<svg xmlns="http://www.w3.org/2000/svg" width="570.492" height="303.84" viewBox="0 0 570.492 303.84">
  <g id="B2B_Mobile_App_section_1" transform="translate(-198.362 -237.815)">
    <g id="Group_311381" data-name="Group 311381" transform="translate(198.608 237.815)">
      <g id="Group_311380" data-name="Group 311380">
        <g id="Group_311379" data-name="Group 311379">
          <g id="Group_311356" data-name="Group 311356" transform="translate(175.797)">
            <g id="Group_311351" data-name="Group 311351">
              <path id="Path_138648" data-name="Path 138648" d="M317.491,197.179l98.323.411a22.671,22.671,0,0,1,22.521,24.266L422.372,448.32a22.321,22.321,0,0,1-22.266,20.752H300.154a22.322,22.322,0,0,1-22.26-23.979l16.892-226.924A22.675,22.675,0,0,1,317.491,197.179Z" transform="translate(-266.783 -197.179)" fill="#f2f3ff"/>
              <path id="Path_138649" data-name="Path 138649" d="M317.491,197.179l98.323.411a22.671,22.671,0,0,1,22.521,24.266L422.372,448.32a22.321,22.321,0,0,1-22.266,20.752H300.154a22.322,22.322,0,0,1-22.26-23.979l16.892-226.924A22.675,22.675,0,0,1,317.491,197.179Z" transform="translate(-266.783 -197.179)" fill="#60a6df"/>
              <path id="Path_138650" data-name="Path 138650" d="M312.247,197.179l98.323.411a22.67,22.67,0,0,1,22.521,24.266L417.13,448.32a22.324,22.324,0,0,1-22.266,20.752H294.91a22.323,22.323,0,0,1-22.26-23.979l16.892-226.924A22.675,22.675,0,0,1,312.247,197.179Z" transform="translate(-272.587 -197.179)" fill="#a7d3f6"/>
              <path id="Path_138651" data-name="Path 138651" d="M295.211,207.025H407.653L394.126,423.032l-112.865.845Z" transform="translate(-262.987 -186.282)" fill="#fff"/>
              <path id="Path_138652" data-name="Path 138652" d="M311.541,334.555a11.165,11.165,0,1,1,11.168-11.164A11.176,11.176,0,0,1,311.541,334.555Zm0-20.758a9.593,9.593,0,1,0,9.6,9.594A9.6,9.6,0,0,0,311.541,313.8Z" transform="translate(-241.83 -69.85)" fill="#60a6df"/>
              <path id="Path_138653" data-name="Path 138653" d="M330.376,205.235H311.518a1.912,1.912,0,0,1-1.913-1.911h0a1.912,1.912,0,0,1,1.913-1.911h18.858a1.911,1.911,0,0,1,1.911,1.911h0A1.911,1.911,0,0,1,330.376,205.235Z" transform="translate(-231.617 -192.493)" fill="#8992c6"/>
            </g>
            <g id="Group_311352" data-name="Group 311352" transform="translate(35.455 43.357)">
              <path id="Path_138654" data-name="Path 138654" d="M384.841,250.823H293.572a4.153,4.153,0,0,1-4.15-4.359l1.224-24.754a4.155,4.155,0,0,1,4.15-3.95h91.269a4.155,4.155,0,0,1,4.15,4.361l-1.224,24.752A4.154,4.154,0,0,1,384.841,250.823Z" transform="translate(-289.417 -217.759)" fill="#a7d3f6"/>
              <path id="Path_138655" data-name="Path 138655" d="M324.929,250.9h25.186a4.13,4.13,0,0,0,4.127-3.927l1.243-24.879a4.133,4.133,0,0,0-4.127-4.338H326.17a4.133,4.133,0,0,0-4.127,3.927L320.8,246.565A4.132,4.132,0,0,0,324.929,250.9Z" transform="translate(-254.686 -217.759)" fill="#60a6df"/>
              <path id="Path_138656" data-name="Path 138656" d="M346.325,222.4H294.406a.62.62,0,1,1,0-1.241h51.919a.62.62,0,1,1,0,1.241Z" transform="translate(-284.583 -213.993)" fill="#60a6df"/>
              <path id="Path_138657" data-name="Path 138657" d="M346.131,226.336H294.209a.621.621,0,0,1,0-1.243h51.921a.621.621,0,0,1,0,1.243Z" transform="translate(-284.798 -209.642)" fill="#60a6df"/>
              <path id="Path_138658" data-name="Path 138658" d="M319.665,230.268h-25.65a.621.621,0,0,1,0-1.243h25.65a.621.621,0,1,1,0,1.243Z" transform="translate(-285.012 -205.29)" fill="#60a6df"/>
            </g>
            <g id="Group_311353" data-name="Group 311353" transform="translate(32.224 90.157)">
              <path id="Path_138659" data-name="Path 138659" d="M383.309,273.037H292.038a4.156,4.156,0,0,1-4.15-4.361l1.224-24.752a4.156,4.156,0,0,1,4.15-3.95h91.271a4.156,4.156,0,0,1,4.15,4.359l-1.224,24.754A4.156,4.156,0,0,1,383.309,273.037Z" transform="translate(-287.883 -239.973)" fill="#a7d3f6"/>
              <path id="Path_138660" data-name="Path 138660" d="M323.395,273.117h25.189a4.133,4.133,0,0,0,4.127-3.927l1.241-24.879a4.132,4.132,0,0,0-4.127-4.338H324.638a4.132,4.132,0,0,0-4.127,3.927l-1.243,24.879A4.133,4.133,0,0,0,323.395,273.117Z" transform="translate(-253.152 -239.973)" fill="#60a6df"/>
              <path id="Path_138661" data-name="Path 138661" d="M344.792,244.617H292.87a.62.62,0,0,1,0-1.241h51.921a.62.62,0,0,1,0,1.241Z" transform="translate(-283.048 -236.207)" fill="#60a6df"/>
              <path id="Path_138662" data-name="Path 138662" d="M344.6,248.548H292.678a.62.62,0,1,1,0-1.241H344.6a.62.62,0,1,1,0,1.241Z" transform="translate(-283.264 -231.856)" fill="#60a6df"/>
              <path id="Path_138663" data-name="Path 138663" d="M318.133,252.48h-25.65a.62.62,0,1,1,0-1.241h25.65a.62.62,0,0,1,0,1.241Z" transform="translate(-283.478 -227.504)" fill="#60a6df"/>
            </g>
            <g id="Group_311354" data-name="Group 311354" transform="translate(107.202 49.716)">
              <path id="Path_138665" data-name="Path 138665" d="M344.118,231.825a10.335,10.335,0,1,1-9.6-11.023A10.335,10.335,0,0,1,344.118,231.825Z" transform="translate(-323.472 -220.777)" fill="#fff"/>
              <path id="Path_138666" data-name="Path 138666" d="M329.778,231.616a.931.931,0,0,1-.588-.263l-3.47-3.411a.927.927,0,1,1,1.3-1.323l2.882,2.831,6.619-5.33a.928.928,0,0,1,1.165,1.445l-7.262,5.848A.924.924,0,0,1,329.778,231.616Z" transform="translate(-321.292 -217.304)" fill="#60a6df"/>
            </g>
            <g id="Group_311355" data-name="Group 311355" transform="translate(104.773 96.513)">
              <path id="Path_138667" data-name="Path 138667" d="M342.965,254.04a10.335,10.335,0,1,1-9.6-11.025A10.333,10.333,0,0,1,342.965,254.04Z" transform="translate(-322.319 -242.99)" fill="#fff"/>
              <path id="Path_138668" data-name="Path 138668" d="M328.625,253.83a.931.931,0,0,1-.588-.263l-3.47-3.411a.929.929,0,0,1,1.3-1.325l2.88,2.834,6.619-5.33a.928.928,0,0,1,1.165,1.445l-7.262,5.848A.924.924,0,0,1,328.625,253.83Z" transform="translate(-320.139 -239.517)" fill="#c7cbe8"/>
            </g>
          </g>
          <g id="Group_311358" data-name="Group 311358" transform="translate(4.71 175.58)">
            <path id="Path_138669" data-name="Path 138669" d="M252.248,308.457s-1.323-2.063-4.744-15.843-12.369-26.943-26.313-22.051-9.942,21.137-3.072,47.377c4.9,18.733-15.124,33.27,11.273,47.83,15.986,8.817,43.762-3.042,38.309-29.705a36.058,36.058,0,0,0-6.767-14.9A100.275,100.275,0,0,1,252.248,308.457Z" transform="translate(-211.844 -269.52)" fill="#a7d3f6"/>
            <g id="Group_311357" data-name="Group 311357" transform="translate(14.768 24.055)">
              <path id="Path_138670" data-name="Path 138670" d="M231.9,378.051a.6.6,0,0,1-.463-.678c6.344-40.587-10.98-95.1-11.155-95.649a.6.6,0,1,1,1.142-.369c.177.55,17.587,55.339,11.2,96.2a.6.6,0,0,1-.687.5Z" transform="translate(-217.304 -280.938)" fill="#60a6df"/>
              <path id="Path_138671" data-name="Path 138671" d="M223.379,299.224a.542.542,0,0,1-.1-.032.6.6,0,0,1-.329-.782,80.588,80.588,0,0,0,4.081-13.433.6.6,0,0,1,1.182.213,81.648,81.648,0,0,1-4.152,13.673A.6.6,0,0,1,223.379,299.224Z" transform="translate(-214.368 -277.015)" fill="#60a6df"/>
              <path id="Path_138672" data-name="Path 138672" d="M230.307,301.514a.6.6,0,0,1-.238-.112c-3.1-2.4-10.835-6.853-10.913-6.9a.6.6,0,0,1-.221-.822.6.6,0,0,1,.82-.219c.32.183,7.888,4.54,11.05,6.988a.6.6,0,0,1-.5,1.062Z" transform="translate(-218.854 -267.166)" fill="#60a6df"/>
              <path id="Path_138673" data-name="Path 138673" d="M225.529,307.94a.589.589,0,0,1-.126-.042.6.6,0,0,1-.291-.8l3.963-8.49a.6.6,0,0,1,1.089.508l-3.963,8.492A.6.6,0,0,1,225.529,307.94Z" transform="translate(-211.99 -261.764)" fill="#60a6df"/>
            </g>
          </g>
          <path id="Path_138674" data-name="Path 138674" d="M300.526,233a60.555,60.555,0,0,0-4.449-4.626c-3.044-2.619-6.535-7.245-17.7-3.834a25.807,25.807,0,0,0-2.545.969c-.984.417-4.032.428-7.155-2.05-4.964-3.94-6.9-6.914-13.7-7-7.911-.107-9.154,9.752-15.3,12.276-3.912,1.605-14.235,3.2-16.37,3.914Z" transform="translate(-171.272 -175.852)" fill="#a7d3f6"/>
          <path id="Path_138791" data-name="Path 138791" d="M300.526,233a60.555,60.555,0,0,0-4.449-4.626c-3.044-2.619-6.535-7.245-17.7-3.834a25.807,25.807,0,0,0-2.545.969c-.984.417-4.032.428-7.155-2.05-4.964-3.94-6.9-6.914-13.7-7-7.911-.107-9.154,9.752-15.3,12.276-3.912,1.605-14.235,3.2-16.37,3.914Z" transform="translate(181.728 -192.852)" fill="#a7d3f6"/>
          <g id="Group_311362" data-name="Group 311362" transform="translate(421.929 73.701)">
            <path id="Path_138681" data-name="Path 138681" d="M418.355,405.211c-1.053.065-27.626-3.126-28.835-27.839s15.729-30.83,11.271-58.34-16.151-35.417,10.053-55.494c0,0,11.684-8.086,12.228-19.426.651-13.576,24.087-29.33,39.805-20.275s12.025,23.048-1.435,45.687-.489,26.594,2.1,33.913,8.585,15-5.153,32.493,2.629,38.855-9.065,55.606C449.322,391.534,439.06,403.934,418.355,405.211Z" transform="translate(-389.458 -221.162)" fill="#60a6df"/>
            <g id="Group_311361" data-name="Group 311361" transform="translate(22.677 39.877)">
              <path id="Path_138682" data-name="Path 138682" d="M407.955,422.14a1.123,1.123,0,0,0,.826-1.3C394.505,345.416,423.6,242.553,423.9,241.523a1.122,1.122,0,1,0-2.157-.619c-.3,1.037-29.539,104.411-15.167,180.358a1.123,1.123,0,0,0,1.313.893Z" transform="translate(-397.584 -240.09)" fill="#a7d3f6"/>
              <path id="Path_138683" data-name="Path 138683" d="M413.17,274.264a.944.944,0,0,0,.183-.063,1.12,1.12,0,0,0,.567-1.481c-.059-.135-5.992-13.464-8.425-24.845a1.122,1.122,0,0,0-2.2.468c2.484,11.619,8.511,25.157,8.572,25.292A1.12,1.12,0,0,0,413.17,274.264Z" transform="translate(-396.841 -232.457)" fill="#a7d3f6"/>
              <path id="Path_138684" data-name="Path 138684" d="M406.886,279.087a1.124,1.124,0,0,0,.438-.223c5.64-4.664,19.829-13.447,19.972-13.536a1.122,1.122,0,1,0-1.18-1.909c-.588.362-14.463,8.952-20.223,13.715a1.123,1.123,0,0,0,.992,1.953Z" transform="translate(-394.394 -214.459)" fill="#a7d3f6"/>
              <path id="Path_138685" data-name="Path 138685" d="M409.528,290.68a1.234,1.234,0,0,0,.232-.086,1.123,1.123,0,0,0,.493-1.508l-7.909-15.622a1.122,1.122,0,0,0-2,1.013l7.909,15.622A1.122,1.122,0,0,0,409.528,290.68Z" transform="translate(-400.221 -203.835)" fill="#a7d3f6"/>
            </g>
          </g>
          <g id="Group_311363" data-name="Group 311363" transform="translate(502.625 185.808)">
            <path id="Path_138686" data-name="Path 138686" d="M439.745,356.088c-.99.765-9.879-15.341-11.954-35.83,0,0-1-10.072,8.555-4.945,0,0-9.887-44.052,16.456-40.764,4.542.567,7.127,1.58,9.744,4.447,3.539,3.885,5.486,10.15,1.308,19.161-8.355,18.017-15.7,25.014-12.105,34.555S454.127,344.986,439.745,356.088Z" transform="translate(-427.761 -274.375)" fill="#a7d3f6"/>
            <path id="Path_138687" data-name="Path 138687" d="M436.377,371.065a.971.971,0,0,0,.754-1.144c-6.072-29.608,2.659-79.486,3.773-81.673a.94.94,0,0,0-.238-1.327.994.994,0,0,0-1.369.249c-1.8,2.507-9.954,54.418-4.066,83.139A.972.972,0,0,0,436.377,371.065Z" transform="translate(-421.821 -260.681)" fill="#60a6df"/>
          </g>
          <line id="Line_805" data-name="Line 805" x2="570" transform="translate(0 297.665)" fill="none" stroke="#1d2738" stroke-linecap="round" stroke-linejoin="round" stroke-width="0.492"/>
          <g id="Group_311370" data-name="Group 311370" transform="translate(280.56 68.348)">
            <g id="Group_311369" data-name="Group 311369" transform="translate(0)">
              <path id="Path_138688" data-name="Path 138688" d="M361.167,282.55,357.7,296.357l41.7,2.237-1.41-17.3Z" transform="translate(-281.075 -178.756)" fill="#284f63"/>
              <path id="Path_138689" data-name="Path 138689" d="M383.009,286.155l-12.131,40.977.24,61.906-14.8.311-2.869-63.157,9.912-38.94Z" transform="translate(-285.784 -173.372)" fill="#284f63"/>
              <path id="Path_138690" data-name="Path 138690" d="M371.713,289.4l-9.619-.915,7.064,9.546Z" transform="translate(-276.213 -170.789)" fill="#c8c8c8" opacity="0.44" style="mix-blend-mode: multiply;isolation: isolate"/>
              <path id="Path_138691" data-name="Path 138691" d="M387.52,290.353l2.8,38.449,11.714,63.457-14.644,3.009-14.156-64.731-4.887-44.345Z" transform="translate(-269.291 -173.331)" fill="#284f63"/>
              <g id="Group_311364" data-name="Group 311364" transform="translate(60.101 215.733)">
                <path id="Path_138692" data-name="Path 138692" d="M364.51,335.074l8.063-.053.211,11.553-22.926.15h0a4.089,4.089,0,0,1,3.154-3.676l11.353-2.777Z" transform="translate(-349.857 -335.021)" fill="#29323d"/>
                <rect id="Rectangle_163987" data-name="Rectangle 163987" width="22.925" height="1.785" transform="translate(0.001 11.703) rotate(-0.377)" fill="#c7cbe8"/>
                <path id="Path_138693" data-name="Path 138693" d="M361.333,338.232a1.759,1.759,0,1,1-1.772-1.747A1.76,1.76,0,0,1,361.333,338.232Z" transform="translate(-341.049 -333.401)" fill="#fff"/>
              </g>
              <g id="Group_311365" data-name="Group 311365" transform="translate(109.253 219.276)">
                <path id="Path_138694" data-name="Path 138694" d="M386.274,337.763l7.993-1.06,1.65,11.436-22.726,3.011h0a4.087,4.087,0,0,1,2.669-4.041l10.919-4.171Z" transform="translate(-373.188 -336.703)" fill="#29323d"/>
                <rect id="Rectangle_163988" data-name="Rectangle 163988" width="22.925" height="1.785" transform="matrix(0.991, -0.131, 0.131, 0.991, 0.003, 14.447)" fill="#c7cbe8"/>
                <path id="Path_138695" data-name="Path 138695" d="M384.174,339.925a1.759,1.759,0,1,1-1.974-1.513A1.759,1.759,0,0,1,384.174,339.925Z" transform="translate(-364.905 -334.828)" fill="#fff"/>
              </g>
              <path id="Path_138696" data-name="Path 138696" d="M371.384,290.206c-.162-.011-.324-.027-.487-.053l-37.652-5.6,1.829-12.306,33.731,5.012a262.809,262.809,0,0,1,16.962-22.1c-.074.152.381.539,0,0l11.867,1.228c.531,3-2.081,3.021-20.636,31.045A6.222,6.222,0,0,1,371.384,290.206Z" transform="translate(-308.142 -207.676)" fill="#fec35b"/>
              <path id="Path_138697" data-name="Path 138697" d="M381.41,253.635l1.226.2a13.6,13.6,0,0,1,11,10.188l8.617,49.081c-18.325,9.988-41.51.107-41.51.107l-4.454-45.776a11.948,11.948,0,0,1,6.569-12.183h0Z" transform="translate(-282.734 -209.363)" fill="#fec35b"/>
              <path id="Path_138698" data-name="Path 138698" d="M371.625,268.459l-10.317-.857,1.681-23.42,10.317.857Z" transform="translate(-277.083 -219.826)" fill="#ddb28d"/>
              <path id="Path_138699" data-name="Path 138699" d="M360.29,255.059l15.761-1.378s-.114,9.209-9.619,9.076C357.741,262.635,360.29,255.059,360.29,255.059Z" transform="translate(-278.595 -209.313)" fill="#ddb28d"/>
              <g id="Group_311366" data-name="Group 311366" transform="translate(12.42 62.895)">
                <path id="Path_138700" data-name="Path 138700" d="M340.51,270.281a6.689,6.689,0,1,1-5.478-7.711A6.688,6.688,0,0,1,340.51,270.281Z" transform="translate(-327.225 -262.475)" fill="#fff"/>
                <path id="Path_138701" data-name="Path 138701" d="M340.325,272.141l-6.859-1.161a3.314,3.314,0,0,1-2.707-3.809h0a3.315,3.315,0,0,1,3.811-2.707l6.86,1.161a3.315,3.315,0,0,1,2.705,3.811h0A3.314,3.314,0,0,1,340.325,272.141Z" transform="translate(-323.365 -260.324)" fill="#fff"/>
              </g>
              <g id="Group_311367" data-name="Group 311367" transform="translate(0 49.429)">
                <circle id="Ellipse_4732" data-name="Ellipse 4732" cx="19.231" cy="19.231" r="19.231" transform="translate(0 34.569) rotate(-64)" fill="#008dd1"/>
                <path id="Path_138702" data-name="Path 138702" d="M336.138,279.33a1.727,1.727,0,0,1-1.091-.489l-6.459-6.348a1.728,1.728,0,0,1,2.423-2.465l5.362,5.271,12.314-9.919a1.728,1.728,0,1,1,2.168,2.69l-13.513,10.881A1.723,1.723,0,0,1,336.138,279.33Z" transform="translate(-313.867 -246.216)" fill="#f4f8ff"/>
              </g>
              <path id="Path_138703" data-name="Path 138703" d="M366.643,267.084h0a12.72,12.72,0,0,1-11.813-13.568l1.089-15.775L381.3,239.5l-1.089,15.775A12.721,12.721,0,0,1,366.643,267.084Z" transform="translate(-284.286 -226.954)" fill="#e3bc9a"/>
              <path id="Path_138704" data-name="Path 138704" d="M381.49,256.739l-3.624-.179a1.567,1.567,0,0,1-1.443-1.942c.632-2.587,1.454-7.045-.215-7.688-2.372-.912-15.512,1.7-19.726-1.926-5.931-5.1-1-12.4,4.616-12.384s4.412,6.451,10.951,6.716,16.6-1.662,11.3,15.392Z" transform="translate(-285.402 -232.621)" fill="#282c3c"/>
              <path id="Path_138705" data-name="Path 138705" d="M373.235,246.784a4,4,0,1,1-3.712-4.264A4,4,0,0,1,373.235,246.784Z" transform="translate(-272.721 -221.676)" fill="#e3bc9a"/>
              <g id="Group_311368" data-name="Group 311368" transform="translate(37.559 80.001)">
                <path id="Path_138706" data-name="Path 138706" d="M352.52,277.746a6.689,6.689,0,1,1-6.213-7.136A6.689,6.689,0,0,1,352.52,277.746Z" transform="translate(-339.157 -270.594)" fill="#e0ae76"/>
                <path id="Path_138707" data-name="Path 138707" d="M352.685,279.433l-6.942-.48a3.312,3.312,0,0,1-3.067-3.525h0a3.314,3.314,0,0,1,3.525-3.07l6.94.48a3.317,3.317,0,0,1,3.07,3.525h0A3.317,3.317,0,0,1,352.685,279.433Z" transform="translate(-335.272 -268.651)" fill="#e0ae76"/>
              </g>
              <path id="Path_138708" data-name="Path 138708" d="M345.623,300.01l.019-12.44,34.288.051,11.789-27.961a6.22,6.22,0,0,1,8.242-3.078h0a6.221,6.221,0,0,1,3.078,8.24l-13.452,31.608a6.223,6.223,0,0,1-5.669,3.641Z" transform="translate(-294.443 -206.725)" fill="#fec35b"/>
              <rect id="Rectangle_163989" data-name="Rectangle 163989" width="18.561" height="6.473" transform="translate(68.616 209.504)" fill="#284f63"/>
              <rect id="Rectangle_163990" data-name="Rectangle 163990" width="18.561" height="6.473" transform="matrix(0.981, -0.192, 0.192, 0.981, 115.29, 216.312)" fill="#284f63"/>
            </g>
            <path id="Path_138709" data-name="Path 138709" d="M355.99,246.326l10.951.52s-.645,4.2-6.542,3.552C355.744,249.891,355.99,246.326,355.99,246.326Z" transform="translate(-282.971 -217.453)" fill="#fff"/>
            <path id="Path_138710" data-name="Path 138710" d="M357.873,294.121l11.069.019a8.519,8.519,0,0,0,7.171-4.9l12.31-27.86c-4.77,16.252-11.044,32.8-11.044,32.8a5.175,5.175,0,0,1-5.052,3.4l-14.172-.569Z" transform="translate(-280.885 -200.796)" fill="#e5a940"/>
          </g>
          <g id="Group_311371" data-name="Group 311371" transform="translate(171.592 148.631)">
            <path id="Path_138792" data-name="Path 138792" d="M1.93,0H88.759a1.93,1.93,0,0,1,1.93,1.93V28.179a1.93,1.93,0,0,1-1.93,1.93H1.93A1.93,1.93,0,0,1,0,28.179V1.93A1.93,1.93,0,0,1,1.93,0Z" transform="translate(0 11.917) rotate(-7.551)" fill="#a7d3f6"/>
            <path id="Path_138711" data-name="Path 138711" d="M284.586,280.354a.566.566,0,0,1-.076-1.127l46.867-6.213a.539.539,0,0,1,.634.485.559.559,0,0,1-.482.634l-46.869,6.215A.451.451,0,0,1,284.586,280.354Z" transform="translate(-275.724 -261.889)" fill="#60a6df"/>
            <path id="Path_138712" data-name="Path 138712" d="M285.056,283.9a.567.567,0,0,1-.56-.491.561.561,0,0,1,.484-.634l46.869-6.215a.541.541,0,0,1,.634.484.564.564,0,0,1-.485.636L285.132,283.9A.488.488,0,0,1,285.056,283.9Z" transform="translate(-275.204 -257.961)" fill="#60a6df"/>
            <path id="Path_138713" data-name="Path 138713" d="M285.527,285.816a.565.565,0,0,1-.076-1.125l23.189-3.1a.543.543,0,0,1,.634.484.564.564,0,0,1-.485.636l-23.189,3.1A.3.3,0,0,1,285.527,285.816Z" transform="translate(-274.683 -252.399)" fill="#8992c6"/>
          </g>
          <g id="Group_311376" data-name="Group 311376" transform="translate(60.848 117.86)">
            <path id="Path_138714" data-name="Path 138714" d="M273.638,331.815l-7.342-.558-1.079,12.061,20.91,1.656.124-1.624a3.737,3.737,0,0,0-2.642-3.548l-10.167-3.244Z" transform="translate(-165.736 -166.646)" fill="#29323d"/>
            <path id="Path_138715" data-name="Path 138715" d="M230.791,333.275l-.729-7.325L218,326.987,220,347.867l1.622-.162a3.734,3.734,0,0,0,3.034-3.219l1.426-10.576Z" transform="translate(-217.997 -172.52)" fill="#29323d"/>
            <path id="Path_138716" data-name="Path 138716" d="M255.844,306.924l13.313,42.913L222.726,352.6l1.38,11.052,56.617-1.909c5.029-.164,8.838-4,7.812-9.855L285.362,320l29.931-.461-5.174,47.333,12.893.461,12.647-53.189a10.538,10.538,0,0,0-10-12.971l-30.453-.761Z" transform="translate(-212.763 -200.782)" fill="#284f63"/>
            <g id="Group_311375" data-name="Group 311375" transform="translate(39.348)">
              <g id="Group_311372" data-name="Group 311372" transform="translate(8.404)">
                <path id="Path_138717" data-name="Path 138717" d="M247.516,292.464l11.444,2.425,4.856-24.276-11.334-2.374Z" transform="translate(-233.078 -236.392)" fill="#ddb28d"/>
                <path id="Path_138718" data-name="Path 138718" d="M256.732,290.326h0a11.851,11.851,0,0,0,14.029-9.169l3.019-14.417-23.2-4.86L247.564,276.3A11.851,11.851,0,0,0,256.732,290.326Z" transform="translate(-233.307 -243.429)" fill="#e3bc9a"/>
                <path id="Path_138719" data-name="Path 138719" d="M268.095,272.041l-2.221,10.6a7.62,7.62,0,0,1-8.84,6.145l-2.1-.44c-6.988-1.462-11.4-8.648-9.849-16.047l2.008-9.577,21.8,4.565Z" transform="translate(-236.108 -242.5)" fill="#282c3c"/>
                <path id="Path_138720" data-name="Path 138720" d="M255.488,271.557a47.921,47.921,0,0,0,8.869,1.492c4.473.067,7.245-5.065,4.456-8.562-.122-.154-.255-.31-.4-.464-3.411-3.712-9.365-1.864-9.335-1.492S255.488,271.557,255.488,271.557Z" transform="translate(-224.255 -243.583)" fill="#282c3c"/>
                <path id="Path_138721" data-name="Path 138721" d="M273.147,267.392s-6.666-9.782-18.19-6.9c0,0-4.422-.234-9.078,5.284l19.384,9.23Z" transform="translate(-234.89 -245.555)" fill="#282c3c"/>
                <path id="Path_138722" data-name="Path 138722" d="M253.63,270.816a3.467,3.467,0,1,0,4.1-2.682A3.47,3.47,0,0,0,253.63,270.816Z" transform="translate(-226.394 -236.591)" fill="#e3bc9a"/>
                <path id="Path_138723" data-name="Path 138723" d="M262.839,266.628a11.206,11.206,0,1,1-8.669-13.264A11.2,11.2,0,0,1,262.839,266.628Z" transform="translate(-240.663 -253.123)" fill="#282c3c"/>
              </g>
              <path id="Path_138724" data-name="Path 138724" d="M280.082,325.868c-4.27-6.95-2.237-23-.482-32.617a11.733,11.733,0,0,0-5.364-12.046h0l-13.256-3.925c-3.287-1.131-7.586,2.684-9.925,5.254-20.91,22.981-12.855,52.244-12.855,52.244a64.506,64.506,0,0,0,20.678,1.066l0,.006c.063-.006.12-.017.181-.023l.261-.036A36.182,36.182,0,0,0,280.082,325.868Z" transform="translate(-236.674 -226.613)" fill="#60a6df"/>
              <g id="Group_311374" data-name="Group 311374" transform="translate(28.371 50.31)">
                <g id="Group_311373" data-name="Group 311373" transform="translate(57.617)">
                  <path id="Path_138725" data-name="Path 138725" d="M281.639,288.367a7.164,7.164,0,1,0,1.605-10A7.164,7.164,0,0,0,281.639,288.367Z" transform="translate(-274.402 -277.003)" fill="#e3bc9a"/>
                  <path id="Path_138726" data-name="Path 138726" d="M283.1,290.71l6.036-4.367a3.548,3.548,0,0,0,.794-4.94v0a3.552,3.552,0,0,0-4.942-.792l-6.036,4.367a3.551,3.551,0,0,0-.794,4.942h0A3.549,3.549,0,0,0,283.1,290.71Z" transform="translate(-277.489 -273.753)" fill="#e3bc9a"/>
                </g>
                <path id="Path_138727" data-name="Path 138727" d="M318.232,291.858l-7.064-11.3L280.03,300.03l-19.544-19.9A6.661,6.661,0,0,0,251.251,282h0a6.662,6.662,0,0,0,1.871,9.234l23.12,22.273a6.666,6.666,0,0,0,7.214.1Z" transform="translate(-250.141 -274.772)" fill="#60a6df"/>
              </g>
            </g>
            <path id="Path_138728" data-name="Path 138728" d="M252.457,313.413l12.554-7.044-.68,3.258,18.057,3.325Z" transform="translate(-179.858 -194.192)" fill="#c8c8c8" opacity="0.44" style="mix-blend-mode: multiply;isolation: isolate"/>
          </g>
          <g id="Group_311377" data-name="Group 311377" transform="translate(73.459 56.127)">
            <path id="Path_138729" data-name="Path 138729" d="M387.885,226.795l-1.039-2.975-1.037,2.975a10.4,10.4,0,0,1-5.77,5.874h0a10.393,10.393,0,0,1,5.77,5.872l1.037,2.975,1.039-2.975a10.386,10.386,0,0,1,5.77-5.872h0A10.39,10.39,0,0,1,387.885,226.795Z" transform="translate(-71.265 -223.82)" fill="#fff"/>
            <path id="Path_138730" data-name="Path 138730" d="M238.652,267.242l-.685-1.961-.685,1.961a6.855,6.855,0,0,1-3.807,3.876h0a6.846,6.846,0,0,1,3.807,3.874l.685,1.963.685-1.963a6.858,6.858,0,0,1,3.807-3.874h0A6.868,6.868,0,0,1,238.652,267.242Z" transform="translate(-233.476 -177.932)" fill="#fff"/>
          </g>
        </g>
      </g>
    </g>
  </g>
</svg>
