<svg xmlns="http://www.w3.org/2000/svg" width="570" height="377.048" viewBox="0 0 570 377.048">
  <g id="Big_Commerce_about" transform="translate(-91.92 -59.6)">
    <g id="Group_218444" data-name="Group 218444" transform="translate(91.92 59.6)">
      <g id="Group_218443" data-name="Group 218443">
        <g id="Group_218367" data-name="Group 218367" transform="translate(25.302)">
          <path id="Path_95024" data-name="Path 95024" d="M528.652,246.4a3.878,3.878,0,1,1-3.878-3.878A3.882,3.882,0,0,1,528.652,246.4Zm-1.923,0a1.957,1.957,0,1,0-1.956,1.957A1.958,1.958,0,0,0,526.729,246.4Z" transform="translate(-114.314 -58.581)" fill="#91a8f6"/>
          <g id="Group_218359" data-name="Group 218359" transform="translate(445.495 45.798)">
            <path id="Path_95025" data-name="Path 95025" d="M593.579,105.148H571.61a.961.961,0,0,0,0,1.923h21.969a.961.961,0,0,0,0-1.923Z" transform="translate(-559.365 -105.144)" fill="#91a8f6"/>
            <path id="Path_95026" data-name="Path 95026" d="M564.681,105.144h-4.293a.961.961,0,0,0,0,1.923h4.293a.961.961,0,0,0,0-1.923Z" transform="translate(-559.427 -105.144)" fill="#91a8f6"/>
            <path id="Path_95027" data-name="Path 95027" d="M583.32,112.765a.961.961,0,0,1-.961.961h-2.747a.961.961,0,0,1,0-1.923h2.748A.961.961,0,0,1,583.32,112.765Zm-7.553,0a.961.961,0,0,1-.961.961H570a.961.961,0,0,1,0-1.923h4.806A.961.961,0,0,1,575.767,112.765Zm-9.611,0a.961.961,0,0,1-.961.961h-4.806a.961.961,0,0,1,0-1.923h4.806A.961.961,0,0,1,566.156,112.765Z" transform="translate(-559.427 -105.107)" fill="#91a8f6"/>
          </g>
          <g id="Group_218360" data-name="Group 218360" transform="translate(117.043 103.194)">
            <path id="Path_95028" data-name="Path 95028" d="M239.006,169.04a.961.961,0,0,0-.961.961v2.229a.961.961,0,1,0,1.923,0V170A.961.961,0,0,0,239.006,169.04Z" transform="translate(-233.301 -162.185)" fill="#91a8f6"/>
            <path id="Path_95029" data-name="Path 95029" d="M236.518,166.816h-2.229a.961.961,0,1,0,0,1.923h2.229a.961.961,0,1,0,0-1.923Z" transform="translate(-233.327 -162.197)" fill="#91a8f6"/>
            <path id="Path_95030" data-name="Path 95030" d="M239.006,162.223a.961.961,0,0,0-.961.961v2.228a.961.961,0,0,0,1.923,0v-2.228A.961.961,0,0,0,239.006,162.223Z" transform="translate(-233.301 -162.223)" fill="#91a8f6"/>
            <path id="Path_95031" data-name="Path 95031" d="M243.738,166.664h-2.23a.961.961,0,0,0,0,1.923h2.23a.961.961,0,1,0,0-1.923Z" transform="translate(-233.287 -162.198)" fill="#91a8f6"/>
          </g>
          <g id="Group_218361" data-name="Group 218361" transform="translate(359.094 40.885)">
            <path id="Path_95032" data-name="Path 95032" d="M479.407,107.076a.961.961,0,0,0-.961.961v2.229a.961.961,0,1,0,1.923,0v-2.229A.961.961,0,0,0,479.407,107.076Z" transform="translate(-473.702 -100.221)" fill="#91a8f6"/>
            <path id="Path_95033" data-name="Path 95033" d="M476.919,104.852h-2.229a.961.961,0,0,0,0,1.923h2.229a.961.961,0,0,0,0-1.923Z" transform="translate(-473.728 -100.233)" fill="#91a8f6"/>
            <path id="Path_95034" data-name="Path 95034" d="M479.407,100.259a.961.961,0,0,0-.961.961v2.228a.961.961,0,1,0,1.923,0V101.22A.961.961,0,0,0,479.407,100.259Z" transform="translate(-473.702 -100.259)" fill="#91a8f6"/>
            <path id="Path_95035" data-name="Path 95035" d="M484.139,104.7h-2.23a.961.961,0,0,0,0,1.923h2.23a.961.961,0,0,0,0-1.923Z" transform="translate(-473.688 -100.234)" fill="#91a8f6"/>
          </g>
          <g id="Group_218362" data-name="Group 218362" transform="translate(240.845)">
            <path id="Path_95036" data-name="Path 95036" d="M390.423,59.6H368.454a.961.961,0,0,0,0,1.923h21.969a.961.961,0,0,0,0-1.923Z" transform="translate(-356.209 -59.6)" fill="#91a8f6"/>
            <path id="Path_95037" data-name="Path 95037" d="M361.525,59.6h-4.293a.961.961,0,0,0,0,1.923h4.293a.961.961,0,1,0,0-1.923Z" transform="translate(-356.271 -59.6)" fill="#91a8f6"/>
            <path id="Path_95038" data-name="Path 95038" d="M380.164,67.221a.961.961,0,0,1-.961.961h-2.748a.961.961,0,0,1,0-1.923H379.2A.961.961,0,0,1,380.164,67.221Zm-7.553,0a.961.961,0,0,1-.961.961h-4.806a.961.961,0,1,1,0-1.923h4.806A.961.961,0,0,1,372.611,67.221Zm-9.611,0a.961.961,0,0,1-.961.961h-4.806a.961.961,0,1,1,0-1.923h4.806A.961.961,0,0,1,363,67.221Z" transform="translate(-356.271 -59.563)" fill="#91a8f6"/>
          </g>
          <path id="Path_95039" data-name="Path 95039" d="M625.128,159.753a3.394,3.394,0,1,0,3.394-3.394A3.394,3.394,0,0,0,625.128,159.753Z" transform="translate(-113.567 -59.061)" fill="#91a8f6"/>
          <g id="Group_218363" data-name="Group 218363" transform="translate(53.74 265.049)">
            <path id="Path_95040" data-name="Path 95040" d="M182.707,325.1h21.969a.961.961,0,1,0,0-1.923H182.707a.961.961,0,0,0,0,1.923Z" transform="translate(-170.462 -323.181)" fill="#91a8f6"/>
            <path id="Path_95041" data-name="Path 95041" d="M171.485,325.108h4.293a.961.961,0,1,0,0-1.923h-4.293a.961.961,0,1,0,0,1.923Z" transform="translate(-170.524 -323.181)" fill="#91a8f6"/>
          </g>
          <path id="Path_95042" data-name="Path 95042" d="M595.561,340.636s1.312,9.361-9.623,9.146c0,0,9.393.1,9.147,8.88,0,0,.845-6.91,9.464-8.454C604.549,350.208,597.265,351.878,595.561,340.636Z" transform="translate(-113.785 -58.035)" fill="#91a8f6"/>
          <path id="Path_95043" data-name="Path 95043" d="M647.48,209.323s1.312,9.361-9.623,9.145c0,0,9.393.1,9.147,8.88,0,0,.845-6.91,9.464-8.454C656.468,218.9,649.184,220.565,647.48,209.323Z" transform="translate(-113.496 -58.766)" fill="#91a8f6"/>
          <path id="Path_95044" data-name="Path 95044" d="M302.575,83.28s1.312,9.361-9.623,9.145c0,0,9.393.1,9.147,8.88,0,0,.845-6.91,9.464-8.454C311.563,92.851,304.279,94.522,302.575,83.28Z" transform="translate(-115.872 -59.468)" fill="#91a8f6"/>
          <path id="Path_95045" data-name="Path 95045" d="M208.963,108.991s1.312,9.361-9.623,9.145c0,0,9.393.1,9.147,8.88,0,0,.845-6.91,9.464-8.454C217.95,118.562,210.667,120.233,208.963,108.991Z" transform="translate(-116.624 -59.325)" fill="#91a8f6"/>
          <path id="Path_95046" data-name="Path 95046" d="M265.669,69.2s.457,3.262-3.355,3.188c0,0,3.275.033,3.187,3.1a3.715,3.715,0,0,1,3.3-2.947S266.261,73.118,265.669,69.2Z" transform="translate(-116.087 -59.547)" fill="#91a8f6"/>
          <path id="Path_95047" data-name="Path 95047" d="M435.959,181.07s.457,3.263-3.354,3.188c0,0,3.275.033,3.187,3.1a3.715,3.715,0,0,1,3.3-2.947S436.552,184.988,435.959,181.07Z" transform="translate(-114.92 -58.924)" fill="#91a8f6"/>
          <path id="Path_95048" data-name="Path 95048" d="M120.436,236.533s.457,3.263-3.354,3.188c0,0,3.275.033,3.187,3.1a3.715,3.715,0,0,1,3.3-2.947S121.029,240.451,120.436,236.533Z" transform="translate(-117.082 -58.615)" fill="#91a8f6"/>
          <path id="Path_95049" data-name="Path 95049" d="M403.582,324.013s.457,3.263-3.354,3.188c0,0,3.275.033,3.187,3.1a3.715,3.715,0,0,1,3.3-2.947S404.174,327.932,403.582,324.013Z" transform="translate(-115.142 -58.128)" fill="#91a8f6"/>
          <g id="Group_218364" data-name="Group 218364" transform="translate(132.411 195.872)">
            <path id="Path_95050" data-name="Path 95050" d="M274.865,271.81H253.533a4.949,4.949,0,0,1-.159-9.895,7.658,7.658,0,0,1,14.073-4.051,5.556,5.556,0,0,1,6.169,4.049h1.247a4.948,4.948,0,1,1,0,9.9Zm-21.331-8.433a3.484,3.484,0,1,0,0,6.969h21.331a3.484,3.484,0,0,0,0-6.969H272.4l-.1-.617a4.093,4.093,0,0,0-5.049-3.371l-.539.129-.271-.484a6.195,6.195,0,0,0-11.608,3.012c0,.181.012.359.027.536l.068.794h-1.4Z" transform="translate(-248.584 -254.387)" fill="#91a8f6"/>
          </g>
          <g id="Group_218365" data-name="Group 218365" transform="translate(513.469 15.346)">
            <path id="Path_95051" data-name="Path 95051" d="M653.3,92.285H631.973a4.949,4.949,0,0,1-.158-9.895,7.659,7.659,0,0,1,14.074-4.052,5.558,5.558,0,0,1,6.169,4.049h1.247a4.949,4.949,0,1,1,0,9.9Zm-21.332-8.434a3.484,3.484,0,1,0,0,6.969H653.3a3.484,3.484,0,1,0,0-6.969h-2.462l-.1-.617a4.1,4.1,0,0,0-5.049-3.371l-.539.129-.271-.484a6.194,6.194,0,0,0-11.607,3.013c0,.181.012.359.027.536l.068.794Z" transform="translate(-627.025 -74.861)" fill="#91a8f6"/>
          </g>
          <g id="Group_218366" data-name="Group 218366" transform="translate(182.732 69.809)">
            <path id="Path_95052" data-name="Path 95052" d="M324.839,146.446H303.507a4.949,4.949,0,0,1-.158-9.895,7.658,7.658,0,0,1,14.073-4.052,5.558,5.558,0,0,1,6.169,4.049h1.247a4.949,4.949,0,0,1,0,9.9Zm-21.332-8.433a3.484,3.484,0,0,0,0,6.969h21.331a3.484,3.484,0,0,0,0-6.969h-2.462l-.1-.617a4.1,4.1,0,0,0-5.049-3.371l-.539.129-.271-.484a6.194,6.194,0,0,0-11.607,3.013c0,.181.012.359.027.536l.068.794Z" transform="translate(-298.559 -129.022)" fill="#91a8f6"/>
          </g>
        </g>
        <g id="Group_218398" data-name="Group 218398" transform="translate(179.164 167.577)">
          <g id="Group_218369" data-name="Group 218369" transform="translate(86.413 106.525)">
            <path id="Path_95053" data-name="Path 95053" d="M391.328,418.746h0a17.24,17.24,0,0,1-21.283-11.895l-13.679-48.344a17.239,17.239,0,0,1,11.895-21.282h0a17.239,17.239,0,0,1,21.282,11.895l13.679,48.344A17.239,17.239,0,0,1,391.328,418.746Z" transform="translate(-355.711 -332.161)" fill="#93c7ea"/>
            <path id="Path_95054" data-name="Path 95054" d="M371.745,418.248h0a17.24,17.24,0,0,1-.236-24.38L406.688,358a17.24,17.24,0,0,1,24.38-.236h0a17.24,17.24,0,0,1,.236,24.38l-35.18,35.87A17.241,17.241,0,0,1,371.745,418.248Z" transform="translate(-355.65 -332.07)" fill="#93c7ea"/>
            <g id="Group_218368" data-name="Group 218368" transform="translate(57.153)">
              <path id="Path_95055" data-name="Path 95055" d="M441.489,349.418a15.105,15.105,0,1,1-20.945-4.2A15.1,15.1,0,0,1,441.489,349.418Z" transform="translate(-412.54 -332.127)" fill="#ff8383"/>
              <path id="Path_95056" data-name="Path 95056" d="M418.806,355.612h0a3.936,3.936,0,0,1-4.794-2.83l-1.339-5.2a3.936,3.936,0,0,1,2.83-4.794h0a3.936,3.936,0,0,1,4.794,2.83l1.339,5.2A3.936,3.936,0,0,1,418.806,355.612Z" transform="translate(-412.547 -332.127)" fill="#ff8383"/>
              <path id="Path_95057" data-name="Path 95057" d="M433.912,337.773l-5.353,13.55a4.087,4.087,0,0,1-5.3,2.3h0a4.087,4.087,0,0,1-2.3-5.3l5.353-13.55a4.088,4.088,0,0,1,5.3-2.3h0A4.086,4.086,0,0,1,433.912,337.773Z" transform="translate(-412.502 -332.185)" fill="#ff8383"/>
              <path id="Path_95058" data-name="Path 95058" d="M443.3,340.6l-6.464,13.056a4.087,4.087,0,0,1-5.475,1.849h0a4.087,4.087,0,0,1-1.849-5.475l6.464-13.056a4.087,4.087,0,0,1,5.475-1.849h0A4.086,4.086,0,0,1,443.3,340.6Z" transform="translate(-412.455 -332.171)" fill="#ff8383"/>
              <path id="Path_95059" data-name="Path 95059" d="M450.288,347.833l-9.027,11.435a4.087,4.087,0,0,1-5.74.676h0a4.087,4.087,0,0,1-.676-5.74l9.027-11.435a4.086,4.086,0,0,1,5.739-.676h0A4.086,4.086,0,0,1,450.288,347.833Z" transform="translate(-412.428 -332.135)" fill="#ff8383"/>
            </g>
          </g>
          <g id="Group_218389" data-name="Group 218389" transform="translate(51.19)">
            <g id="Group_218370" data-name="Group 218370" transform="translate(20.802 54.754)">
              <path id="Path_95060" data-name="Path 95060" d="M354.087,320.581l-5.861-.23a7.137,7.137,0,0,1-6.851-7.412l1.225-31.149,20.124.791L361.5,313.73A7.137,7.137,0,0,1,354.087,320.581Z" transform="translate(-341.369 -280.694)" fill="#ff8383"/>
              <path id="Path_95061" data-name="Path 95061" d="M362.719,281.491l-20.124-.791-.311,7.9c-.3,7.746,6,14.545,13.732,13.982a13.878,13.878,0,0,0,5.946-1.827Z" transform="translate(-341.364 -280.7)" fill="#d15e79"/>
            </g>
            <g id="Group_218388" data-name="Group 218388">
              <ellipse id="Ellipse_3747" data-name="Ellipse 3747" cx="25.097" cy="19.33" rx="25.097" ry="19.33" transform="translate(0 22.915) rotate(-15.801)" fill="#1b2a67"/>
              <ellipse id="Ellipse_3748" data-name="Ellipse 3748" cx="22.297" cy="14.514" rx="22.297" ry="14.514" transform="translate(20.598 23.175) rotate(-9.642)" fill="#1b2a67"/>
              <ellipse id="Ellipse_3749" data-name="Ellipse 3749" cx="22.297" cy="14.514" rx="22.297" ry="14.514" transform="translate(6.366 30.271) rotate(-42.751)" fill="#1b2a67"/>
              <path id="Path_95062" data-name="Path 95062" d="M374.394,276.67c1.981,11.1-3.829,21.425-12.977,23.058h0c-9.146,1.632-18.166-6.045-20.147-17.147l-1.56-8.737c-1.981-11.1,3.827-21.426,12.973-23.058h0c9.148-1.632,18.17,6.045,20.151,17.147Z" transform="translate(-320.579 -226.114)" fill="#ff8383"/>
              <path id="Path_95063" data-name="Path 95063" d="M354.906,249.486c-5.058-4.578-13.863-2.364-19.665,4.946s-6.4,16.949-1.346,21.528,13.863,2.364,19.665-4.946S359.964,254.066,354.906,249.486Z" transform="translate(-320.629 -226.133)" fill="#1b2a67"/>
              <g id="Group_218387" data-name="Group 218387" transform="translate(6.679 40.249)">
                <g id="Group_218381" data-name="Group 218381" transform="translate(21.827 0.689)">
                  <g id="Group_218374" data-name="Group 218374" transform="translate(8.188 4.458)">
                    <g id="Group_218371" data-name="Group 218371" transform="translate(0 0.005)">
                      <path id="Path_95064" data-name="Path 95064" d="M358.094,274.086a.917.917,0,0,1-.527-1.67,5.951,5.951,0,0,1,6.133-.261.92.92,0,0,1-.926,1.591,4.083,4.083,0,0,0-4.161.182A.918.918,0,0,1,358.094,274.086Z" transform="translate(-357.174 -271.4)" fill="#86294e"/>
                    </g>
                    <g id="Group_218372" data-name="Group 218372" transform="translate(10.726)">
                      <path id="Path_95065" data-name="Path 95065" d="M373.9,274.089a.906.906,0,0,1-.52-.162h0a4.082,4.082,0,0,0-4.161-.182.92.92,0,0,1-.926-1.591,5.92,5.92,0,0,1,6.133.261.919.919,0,0,1-.526,1.673Z" transform="translate(-367.84 -271.395)" fill="#86294e"/>
                    </g>
                    <g id="Group_218373" data-name="Group 218373" transform="translate(3.152 4.169)">
                      <path id="Path_95066" data-name="Path 95066" d="M362.227,276.539a.96.96,0,1,1-.921-1A.96.96,0,0,1,362.227,276.539Z" transform="translate(-360.308 -275.541)" fill="#86294e"/>
                    </g>
                    <path id="Path_95067" data-name="Path 95067" d="M371.379,276.9a.96.96,0,1,1-.921-1A.959.959,0,0,1,371.379,276.9Z" transform="translate(-357.105 -271.37)" fill="#86294e"/>
                  </g>
                  <g id="Group_218378" data-name="Group 218378">
                    <g id="Group_218375" data-name="Group 218375" transform="translate(17.143 1.566)">
                      <path id="Path_95068" data-name="Path 95068" d="M373.635,283.615c-.1,0-.2,0-.307-.008a7.421,7.421,0,1,1,.307.008Zm-.016-13.82a6.272,6.272,0,0,0-.24,12.539,6.372,6.372,0,0,0,4.5-1.662,6.272,6.272,0,0,0-4.01-10.873C373.788,269.8,373.7,269.8,373.619,269.8Z" transform="translate(-366.079 -268.519)" fill="#ffd2d4"/>
                    </g>
                    <g id="Group_218376" data-name="Group 218376">
                      <path id="Path_95069" data-name="Path 95069" d="M357.516,283.914c-.114,0-.228,0-.343-.008a8.474,8.474,0,0,1-5.419-14.69,8.328,8.328,0,0,1,6.086-2.244,8.475,8.475,0,0,1-.324,16.943ZM357.5,268.4a7.041,7.041,0,0,0-7.028,6.765h0a7.05,7.05,0,0,0,6.76,7.311,7.042,7.042,0,1,0,.552-14.073C357.688,268.4,357.593,268.4,357.5,268.4Z" transform="translate(-349.031 -266.962)" fill="#ffd2d4"/>
                    </g>
                    <g id="Group_218377" data-name="Group 218377" transform="translate(14.856 8.487)">
                      <path id="Path_95070" data-name="Path 95070" d="M364.437,276.714l3.117.123a.657.657,0,0,0,.682-.631h0a.656.656,0,0,0-.631-.682l-3.117-.123a.657.657,0,0,0-.682.631h0A.657.657,0,0,0,364.437,276.714Z" transform="translate(-363.806 -275.401)" fill="#ffd2d4"/>
                    </g>
                  </g>
                  <g id="Group_218379" data-name="Group 218379" transform="translate(16.367 12.467)">
                    <path id="Path_95071" data-name="Path 95071" d="M370.671,281.112c-.089,1.1-1.361,2.094-2.84,2.229s-2.607-.642-2.518-1.737,1.361-2.094,2.841-2.229S370.759,280.016,370.671,281.112Z" transform="translate(-365.308 -279.359)" fill="#86294e"/>
                  </g>
                  <g id="Group_218380" data-name="Group 218380" transform="translate(11.69 19.03)">
                    <path id="Path_95072" data-name="Path 95072" d="M370.069,286.966a4.808,4.808,0,0,1-5.166,4.405c-2.753-.109-4.342-2.835-4.242-5.377A23.841,23.841,0,0,1,370.069,286.966Z" transform="translate(-360.657 -285.887)" fill="#86294e"/>
                    <path id="Path_95073" data-name="Path 95073" d="M365.3,288.557c-2.176-.251-3.518-1-3.647-2.634a23.713,23.713,0,0,1,7.941.882C369.219,288.279,367.429,288.8,365.3,288.557Z" transform="translate(-360.651 -285.887)" fill="#ffd2d4"/>
                  </g>
                </g>
                <g id="Group_218386" data-name="Group 218386">
                  <g id="Group_218384" data-name="Group 218384" transform="translate(16.814 19.745)">
                    <g id="Group_218382" data-name="Group 218382">
                      <path id="Path_95074" data-name="Path 95074" d="M358.961,292.387h0l-5.411-.005a8.785,8.785,0,0,1-5.9-2.271l-3.387-3.056a.656.656,0,0,1,.88-.974l3.387,3.056a7.469,7.469,0,0,0,5.02,1.932l5.411.005a.657.657,0,1,1,0,1.313Z" transform="translate(-344.046 -285.912)" fill="#201028"/>
                    </g>
                    <g id="Group_218383" data-name="Group 218383" transform="translate(11.408 4.501)">
                      <path id="Path_95075" data-name="Path 95075" d="M358.9,293.019h0l-2.193,0a1.314,1.314,0,0,1,0-2.628h0l2.193,0a1.314,1.314,0,0,1,0,2.628Z" transform="translate(-355.391 -290.388)" fill="#ffd2d4"/>
                    </g>
                  </g>
                  <g id="Group_218385" data-name="Group 218385">
                    <circle id="Ellipse_3750" data-name="Ellipse 3750" cx="11.001" cy="11.001" r="11.001" transform="translate(0 20.686) rotate(-70.092)" fill="#445eea"/>
                    <ellipse id="Ellipse_3751" data-name="Ellipse 3751" cx="9.391" cy="8.586" rx="9.391" ry="8.586" transform="translate(3.543 23.074) rotate(-87.748)" fill="#91a8f6"/>
                    <path id="Path_95076" data-name="Path 95076" d="M341.119,280.29c-.082,2.1-1.47,3.75-3.1,3.685s-2.882-1.818-2.8-3.918,1.47-3.75,3.1-3.685S341.2,278.19,341.119,280.29Z" transform="translate(-327.282 -266.22)" fill="#e0eef7"/>
                  </g>
                </g>
              </g>
            </g>
          </g>
          <g id="Group_218390" data-name="Group 218390" transform="translate(30.659 76.714)">
            <path id="Path_95077" data-name="Path 95077" d="M368.159,433.7l-52.621,1.482a15.9,15.9,0,0,1-15.259-16.508l3.323-88.061a10.943,10.943,0,0,1,7.615-10l39.229-12.491L381.8,323.154a10.944,10.944,0,0,1,6.205,10.3l-3.342,84.989A15.9,15.9,0,0,1,368.159,433.7Z" transform="translate(-300.266 -302.508)" fill="#93c7ea"/>
            <path id="Path_95078" data-name="Path 95078" d="M387.635,333.313c.181,9.183.074,18.355-.076,27.523-.121,9.17-.447,18.333-.774,27.5-.39,9.16-.785,18.319-1.384,27.471a24.474,24.474,0,0,1-1.087,7.008,15.958,15.958,0,0,1-16.532,10.753,15.961,15.961,0,0,0,11.833-5.553,14.9,14.9,0,0,0,3.119-5.709,22.721,22.721,0,0,0,.648-6.577c.123-9.17.447-18.333.779-27.5.393-9.159.787-18.318,1.388-27.471C386.119,351.6,386.733,342.454,387.635,333.313Z" transform="translate(-299.89 -302.368)" fill="#6eacce"/>
            <path id="Path_95079" data-name="Path 95079" d="M364.648,324.814l-28.4-1.832,1.089-16.88a3.808,3.808,0,0,1,4.044-3.555l20.8,1.341a3.808,3.808,0,0,1,3.555,4.044Z" transform="translate(-300.065 -302.539)" fill="#93c7ea"/>
          </g>
          <g id="Group_218397" data-name="Group 218397" transform="translate(0 102.529)">
            <g id="Group_218391" data-name="Group 218391">
              <path id="Path_95080" data-name="Path 95080" d="M280.409,407.777h0a17.24,17.24,0,0,1-9.31-22.534l19.27-46.4a17.241,17.241,0,0,1,22.534-9.31h0a17.241,17.241,0,0,1,9.31,22.534l-19.27,46.4A17.239,17.239,0,0,1,280.409,407.777Z" transform="translate(-269.777 -328.211)" fill="#93c7ea"/>
              <path id="Path_95081" data-name="Path 95081" d="M312.72,329.528a16.945,16.945,0,0,1,7.964,5.594,17.809,17.809,0,0,1,3.624,9.312c.456,3.375-.63,6.973-1.87,9.877l-3.64,8.954c-2.5,5.939-5,11.876-7.693,17.733l-4.045,8.786c-1.437,2.891-2.79,5.817-4.3,8.678.96-3.089,2.078-6.114,3.112-9.172l3.369-9.066c2.251-6.041,4.69-12.005,7.134-17.965l3.774-8.9a25.172,25.172,0,0,0,1.632-4.329,16.775,16.775,0,0,0,.521-4.482A17.516,17.516,0,0,0,312.72,329.528Z" transform="translate(-269.593 -328.203)" fill="#6eacce"/>
            </g>
            <g id="Group_218396" data-name="Group 218396" transform="translate(1.077 32.669)">
              <g id="Group_218394" data-name="Group 218394" transform="translate(75.42)">
                <g id="Group_218392" data-name="Group 218392" transform="translate(0 6.108)">
                  <path id="Path_95082" data-name="Path 95082" d="M360.225,383.245l-8.779-.566a5.987,5.987,0,0,1-5.583-6.352l.255-3.958a5.987,5.987,0,0,1,6.352-5.583l8.779.566Zm-8.007-12.527a2.043,2.043,0,0,0-2.167,1.9l-.255,3.958a2.043,2.043,0,0,0,1.9,2.167l4.846.313.518-8.028Z" transform="translate(-345.851 -366.774)" fill="#86294e"/>
                </g>
                <g id="Group_218393" data-name="Group 218393" transform="translate(7.49)">
                  <path id="Path_95083" data-name="Path 95083" d="M368.72,395.9l-7.593-.49a8.367,8.367,0,0,1-7.81-8.887l1.575-24.409c.176-2.723,24.465-1.156,24.289,1.567l-1.575,24.409A8.365,8.365,0,0,1,368.72,395.9Z" transform="translate(-353.299 -360.699)" fill="#d15e79"/>
                  <path id="Path_95084" data-name="Path 95084" d="M376.742,364.341c-.063.98-4.572,1.488-10.073,1.133s-9.907-1.437-9.844-2.417,4.572-1.488,10.073-1.133S376.806,363.36,376.742,364.341Z" transform="translate(-353.28 -360.693)" fill="#86294e"/>
                </g>
              </g>
              <path id="Path_95085" data-name="Path 95085" d="M270.85,392.016h0a17.24,17.24,0,0,1,17.51-16.966l50.235.792a17.24,17.24,0,0,1,16.966,17.51h0a17.24,17.24,0,0,1-17.51,16.966l-50.236-.793A17.239,17.239,0,0,1,270.85,392.016Z" transform="translate(-270.848 -360.619)" fill="#93c7ea"/>
              <path id="Path_95086" data-name="Path 95086" d="M288.263,375.054c6.451-.44,12.9-.592,19.342-.7,6.446-.139,12.888-.07,19.331,0l9.661.222c3.158.022,6.892.453,9.807,2.215a17.843,17.843,0,0,1,7.1,7.033,16.961,16.961,0,0,1,1.958,9.536,17.515,17.515,0,0,0-9.966-14.764,16.871,16.871,0,0,0-4.317-1.307,25.18,25.18,0,0,0-4.622-.225l-9.664-.083c-6.442-.135-12.883-.271-19.321-.611C301.134,376.053,294.7,375.7,288.263,375.054Z" transform="translate(-270.751 -360.624)" fill="#6eacce"/>
              <g id="Group_218395" data-name="Group 218395" transform="translate(65.765 7.7)">
                <circle id="Ellipse_3752" data-name="Ellipse 3752" cx="15.106" cy="15.106" r="15.106" transform="translate(0 23.251) rotate(-50.315)" fill="#ff8383"/>
                <path id="Path_95087" data-name="Path 95087" d="M349.622,382.37h0a3.611,3.611,0,0,1-2.232-4.594L349,373.12a3.612,3.612,0,0,1,4.594-2.232h0a3.611,3.611,0,0,1,2.232,4.594l-1.611,4.655A3.612,3.612,0,0,1,349.622,382.37Z" transform="translate(-336.188 -368.344)" fill="#ff8383"/>
                <path id="Path_95088" data-name="Path 95088" d="M378.469,384.312l-13.405,1.248a3.776,3.776,0,0,1-4.11-3.41h0a3.776,3.776,0,0,1,3.41-4.11l13.405-1.247a3.776,3.776,0,0,1,4.11,3.41h0A3.776,3.776,0,0,1,378.469,384.312Z" transform="translate(-336.111 -368.31)" fill="#ff8383"/>
                <path id="Path_95089" data-name="Path 95089" d="M375.642,396.576l-13.435-.867a3.776,3.776,0,0,1-3.526-4.011h0a3.776,3.776,0,0,1,4.011-3.526l13.435.867a3.776,3.776,0,0,1,3.526,4.011h0A3.776,3.776,0,0,1,375.642,396.576Z" transform="translate(-336.124 -368.246)" fill="#ff8383"/>
              </g>
            </g>
          </g>
        </g>
        <g id="Group_218409" data-name="Group 218409" transform="translate(253.02 259.346)">
          <g id="Group_218403" data-name="Group 218403" transform="translate(156.998)">
            <g id="Group_218399" data-name="Group 218399" transform="translate(10.711 15.46)">
              <path id="Path_95090" data-name="Path 95090" d="M511.426,351.078a1.575,1.575,0,0,1-1.113-2.688l15.041-15.044a1.575,1.575,0,0,1,2.226,2.227l-15.041,15.044A1.574,1.574,0,0,1,511.426,351.078Z" transform="translate(-509.851 -332.884)" fill="#008dd1"/>
            </g>
            <g id="Group_218402" data-name="Group 218402">
              <g id="Group_218400" data-name="Group 218400">
                <path id="Path_95091" data-name="Path 95091" d="M500.774,341.932a1.575,1.575,0,0,1-1.575-1.575V319.085a1.575,1.575,0,1,1,3.149,0v21.273A1.574,1.574,0,0,1,500.774,341.932Z" transform="translate(-499.199 -317.51)" fill="#008dd1"/>
              </g>
              <g id="Group_218401" data-name="Group 218401" transform="translate(19.938 41.213)">
                <path id="Path_95092" data-name="Path 95092" d="M541.878,361.645H520.6a1.575,1.575,0,1,1,0-3.15h21.275a1.575,1.575,0,1,1,0,3.15Z" transform="translate(-519.027 -358.495)" fill="#008dd1"/>
              </g>
            </g>
          </g>
          <g id="Group_218408" data-name="Group 218408" transform="translate(0 40.273)">
            <g id="Group_218406" data-name="Group 218406">
              <path id="Path_95093" data-name="Path 95093" d="M353.885,427.468H484.046c3.63,0,4.748-2.941,4.748-6.573H347.31A6.574,6.574,0,0,0,353.885,427.468Z" transform="translate(-343.047 -357.207)" fill="#3284b1"/>
              <path id="Path_95094" data-name="Path 95094" d="M346.36,420.9H392.5c0,3.632-3.341,6.573-7.466,6.573H354.795c-.041,0-8.591,0-8.631,0C341.911,427.407,342.107,420.9,346.36,420.9Z" transform="translate(-343.07 -357.207)" fill="#3284b1"/>
              <g id="Group_218405" data-name="Group 218405" transform="translate(46.527)">
                <path id="Path_95095" data-name="Path 95095" d="M395.119,423.16h93.442a5.777,5.777,0,0,0,5.674-4.7l12.595-54.043a5.778,5.778,0,0,0-5.676-6.857H407.715a5.779,5.779,0,0,0-5.678,4.7L389.443,416.3A5.78,5.78,0,0,0,395.119,423.16Z" transform="translate(-389.34 -357.56)" fill="#639fc5"/>
                <path id="Path_95096" data-name="Path 95096" d="M402.036,362.255a5.765,5.765,0,0,1,2.3-3.611,5.755,5.755,0,0,1,2.306,5.766l-12.592,54.043a5.765,5.765,0,0,1-2.3,3.607,5.767,5.767,0,0,1-2.309-5.765Z" transform="translate(-389.34 -357.554)" fill="#3284b1"/>
                <g id="Group_218404" data-name="Group 218404" transform="translate(50.449 28.312)">
                  <path id="Path_95097" data-name="Path 95097" d="M460.525,397.1H445.2a5.691,5.691,0,0,1-5.692-5.692h0a5.691,5.691,0,0,1,5.692-5.692h15.325a5.691,5.691,0,0,1,5.692,5.692h0A5.691,5.691,0,0,1,460.525,397.1Z" transform="translate(-439.509 -385.715)" fill="#c8e9fe"/>
                </g>
              </g>
            </g>
            <g id="Group_218407" data-name="Group 218407" transform="translate(10.981 62.216)">
              <path id="Path_95098" data-name="Path 95098" d="M360.23,422.715h-4.6a1.642,1.642,0,0,1-1.642-1.642h0a1.642,1.642,0,0,1,1.642-1.642h4.6a1.642,1.642,0,0,1,1.642,1.642h0A1.642,1.642,0,0,1,360.23,422.715Z" transform="translate(-353.99 -419.431)" fill="#3284b1"/>
              <path id="Path_95099" data-name="Path 95099" d="M369.156,422.715h-4.6a1.642,1.642,0,0,1-1.642-1.642h0a1.642,1.642,0,0,1,1.642-1.642h4.6a1.642,1.642,0,0,1,1.642,1.642h0A1.642,1.642,0,0,1,369.156,422.715Z" transform="translate(-353.94 -419.431)" fill="#3284b1"/>
              <path id="Path_95100" data-name="Path 95100" d="M378.082,422.715h-4.6a1.642,1.642,0,0,1-1.642-1.642h0a1.642,1.642,0,0,1,1.642-1.642h4.6a1.642,1.642,0,0,1,1.642,1.642h0A1.642,1.642,0,0,1,378.082,422.715Z" transform="translate(-353.891 -419.431)" fill="#3284b1"/>
              <path id="Path_95101" data-name="Path 95101" d="M387.008,422.715h-4.6a1.642,1.642,0,0,1-1.642-1.642h0a1.642,1.642,0,0,1,1.642-1.642h4.6a1.642,1.642,0,0,1,1.642,1.642h0A1.642,1.642,0,0,1,387.008,422.715Z" transform="translate(-353.841 -419.431)" fill="#3284b1"/>
            </g>
          </g>
        </g>
        <path id="Path_95102" data-name="Path 95102" d="M650.988,434.246H167.218c-2.677,0-4.849-1.6-4.849-3.584h0c0-1.979,2.171-3.584,4.849-3.584h483.77c2.677,0,4.849,1.605,4.849,3.584h0C655.836,432.641,653.665,434.246,650.988,434.246Z" transform="translate(-130.027 -57.197)" fill="#353240"/>
        <g id="Group_218416" data-name="Group 218416" transform="translate(111.088 302.851)">
          <g id="Group_218414" data-name="Group 218414">
            <path id="Path_95103" data-name="Path 95103" d="M224.861,403.134s-2.894-21.742-8.133-27.086" transform="translate(-202.168 -360.689)" fill="none" stroke="#1b2a67" stroke-linecap="round" stroke-miterlimit="10" stroke-width="0.827"/>
            <g id="Group_218412" data-name="Group 218412" transform="translate(3.529)">
              <path id="Path_95104" data-name="Path 95104" d="M217.606,363.2c1.4,4.634,1.114,8.819-.639,9.349s-4.309-2.8-5.709-7.431c-.014-.046-.028-.093-.041-.139-1.186-4.128,5.047-6.011,6.345-1.917C217.578,363.1,217.592,363.15,217.606,363.2Z" transform="translate(-205.729 -360.774)" fill="#ffd2d4"/>
              <g id="Group_218410" data-name="Group 218410" transform="translate(0 6.24)">
                <path id="Path_95105" data-name="Path 95105" d="M225.89,373.517c-4.634,1.4-8.819,1.114-9.349-.639s2.8-4.309,7.431-5.709l.139-.041c4.128-1.187,6.011,5.047,1.917,6.345Z" transform="translate(-205.699 -366.979)" fill="#ffd2d4"/>
                <path id="Path_95106" data-name="Path 95106" d="M210.1,378.283c4.634-1.4,7.96-3.956,7.431-5.709s-4.715-2.038-9.349-.639l-.139.043c-4.094,1.3-2.211,7.532,1.917,6.345Z" transform="translate(-205.759 -366.957)" fill="#ffd2d4"/>
              </g>
              <g id="Group_218411" data-name="Group 218411" transform="translate(5.586 12.72)">
                <path id="Path_95107" data-name="Path 95107" d="M217.867,383.533c1.3-4.662.929-8.84-.835-9.333s-4.249,2.887-5.552,7.549c-.013.046-.026.094-.038.14-1.1,4.152,5.172,5.9,6.384,1.784C217.841,383.625,217.854,383.579,217.867,383.533Z" transform="translate(-211.314 -373.42)" fill="#ffd2d4"/>
                <path id="Path_95108" data-name="Path 95108" d="M222.306,382.186c-3.666-3.161-5.668-6.847-4.473-8.234s5.136.051,8.8,3.212l.11.1c3.215,2.849-1.038,7.78-4.328,5.02Z" transform="translate(-211.28 -373.424)" fill="#ffd2d4"/>
              </g>
              <path id="Path_95109" data-name="Path 95109" d="M219.132,373.093a2.266,2.266,0,1,1-2.825-1.514A2.266,2.266,0,0,1,219.132,373.093Z" transform="translate(-205.709 -360.715)" fill="#d15e79"/>
            </g>
            <g id="Group_218413" data-name="Group 218413" transform="translate(0 20.491)">
              <path id="Path_95110" data-name="Path 95110" d="M216.4,389.111c6.019,4.742,9.445,10.433,7.651,12.71s-8.128.279-14.148-4.465-7.651-12.71-7.651-12.71S210.377,384.368,216.4,389.111Z" transform="translate(-202.249 -381.133)" fill="#008dd1"/>
              <path id="Path_95111" data-name="Path 95111" d="M237.434,396.309c-6.354,5.967-13.335,8.856-15.592,6.453s1.064-9.19,7.418-15.157,15.592-6.453,15.592-6.453S243.788,390.342,237.434,396.309Z" transform="translate(-202.144 -381.152)" fill="#008dd1"/>
            </g>
          </g>
          <g id="Group_218415" data-name="Group 218415" transform="translate(3.624 38.813)">
            <path id="Path_95112" data-name="Path 95112" d="M232.833,428.529H212.042L208.4,402.373h28.068Z" transform="translate(-205.839 -399.355)" fill="#26789f"/>
            <path id="Path_95113" data-name="Path 95113" d="M237.575,409.1H207.33a1.478,1.478,0,0,1-1.477-1.477v-6.771a1.478,1.478,0,0,1,1.477-1.477h30.244a1.478,1.478,0,0,1,1.477,1.477v6.771A1.478,1.478,0,0,1,237.575,409.1Z" transform="translate(-205.853 -399.372)" fill="#264860"/>
          </g>
        </g>
        <g id="Group_218442" data-name="Group 218442" transform="translate(0 32.976)">
          <g id="Group_218420" data-name="Group 218420" transform="translate(0 19.781)">
            <g id="Group_218417" data-name="Group 218417" transform="translate(173.574 59.922)">
              <path id="Path_95114" data-name="Path 95114" d="M285.44,208.059l10.311,11.057,78.586-32.779Z" transform="translate(-264.417 -171.573)" fill="#008dd1"/>
              <path id="Path_95115" data-name="Path 95115" d="M289.223,171.655l-7.762,11.71,5.248,11.476-11.773,2-10.4,22.84,112.443-34.026Z" transform="translate(-264.533 -171.655)" fill="#c8e9fe"/>
              <path id="Path_95116" data-name="Path 95116" d="M286.615,194.776,281.367,183.3l60.905,2.848Z" transform="translate(-264.439 -171.59)" fill="#008dd1"/>
            </g>
            <g id="Group_218418" data-name="Group 218418" transform="translate(89.004 101.138)">
              <path id="Path_95117" data-name="Path 95117" d="M281.258,308.1q-1.3,0-2.6-.015a1.574,1.574,0,0,1-1.558-1.593,1.541,1.541,0,0,1,1.593-1.558c4.082.046,8.132-.018,12.579-.205h.066a1.576,1.576,0,0,1,.066,3.15C287.849,308.026,284.526,308.1,281.258,308.1Zm-15.226-.621a1.278,1.278,0,0,1-.139-.005c-4.341-.372-8.612-.929-12.694-1.655a1.576,1.576,0,0,1-1.275-1.829,1.6,1.6,0,0,1,1.829-1.275c3.987.711,8.163,1.254,12.412,1.619a1.576,1.576,0,0,1-.133,3.145Zm-24.872-4.548a1.519,1.519,0,0,1-.462-.072,91.173,91.173,0,0,1-12.014-4.618,1.576,1.576,0,1,1,1.338-2.853,88.61,88.61,0,0,0,11.6,4.459,1.577,1.577,0,0,1-.462,3.084Zm-22.827-10.752a1.558,1.558,0,0,1-.872-.264,83.5,83.5,0,0,1-10.141-7.966,1.576,1.576,0,1,1,2.135-2.319,80.577,80.577,0,0,0,9.756,7.662,1.576,1.576,0,0,1-.878,2.887Zm-18.574-17.069a1.578,1.578,0,0,1-1.234-.592,83.978,83.978,0,0,1-7.234-10.68,1.576,1.576,0,0,1,2.74-1.56,81,81,0,0,0,6.963,10.275,1.574,1.574,0,0,1-1.235,2.557Zm-12.484-21.924a1.579,1.579,0,0,1-1.475-1.021,77.363,77.363,0,0,1-3.543-12.422,1.576,1.576,0,0,1,3.094-.605,74.2,74.2,0,0,0,3.4,11.914,1.578,1.578,0,0,1-.918,2.032A1.6,1.6,0,0,1,187.275,253.185Zm-5.028-24.731a1.576,1.576,0,0,1-1.57-1.475c-.164-2.575-.246-5.287-.246-8.056v-.639q.008-2.054.074-4.118a1.575,1.575,0,0,1,1.575-1.523h.051a1.575,1.575,0,0,1,1.523,1.626q-.065,2.017-.074,4.02v.634c0,2.7.082,5.347.241,7.855a1.572,1.572,0,0,1-1.472,1.672C182.316,228.454,182.283,228.454,182.247,228.454Z" transform="translate(-180.431 -212.643)" fill="#008dd1"/>
            </g>
            <g id="Group_218419" data-name="Group 218419">
              <path id="Path_95118" data-name="Path 95118" d="M195.993,204.021q-3.609,0-7.1-.087a1.575,1.575,0,0,1,.04-3.15h.041q6.1.154,12.591.033a1.491,1.491,0,0,1,1.606,1.545,1.573,1.573,0,0,1-1.545,1.606Q198.773,204.021,195.993,204.021Zm18.253-.529a1.575,1.575,0,0,1-.084-3.148c4.077-.231,8.309-.536,12.584-.913a1.576,1.576,0,1,1,.277,3.14c-4.308.38-8.573.69-12.686.918A.866.866,0,0,1,214.246,203.492Zm-37.961-.2c-.041,0-.082,0-.126,0-4.387-.341-8.656-.808-12.688-1.386a1.574,1.574,0,0,1-1.336-1.783,1.6,1.6,0,0,1,1.783-1.336c3.966.567,8.168,1.027,12.488,1.36a1.576,1.576,0,0,1-.121,3.147Zm63.192-2.013a1.575,1.575,0,0,1-.18-3.139q6.142-.719,12.519-1.626a1.576,1.576,0,0,1,.446,3.119q-6.423.916-12.6,1.637C239.6,201.276,239.538,201.279,239.477,201.279Zm-88.244-1.617a1.614,1.614,0,0,1-.346-.038c-3.048-.685-6.018-1.455-8.828-2.291q-1.793-.535-3.528-1.111a1.576,1.576,0,1,1,.99-2.992q1.689.558,3.435,1.08c2.742.816,5.641,1.568,8.618,2.234a1.578,1.578,0,0,1-.342,3.117Zm-23.941-8.1a1.571,1.571,0,0,1-.688-.159,76.916,76.916,0,0,1-11.127-6.557,1.576,1.576,0,0,1,1.831-2.565,73.74,73.74,0,0,0,10.67,6.286,1.577,1.577,0,0,1-.687,3Zm54.258-1.409a1.575,1.575,0,0,1-1.575-1.575v-.559c0-3.974-.159-8.012-.475-12a1.577,1.577,0,1,1,3.144-.246c.318,4.072.48,8.194.48,12.25v.559A1.575,1.575,0,0,1,181.551,190.157Zm-74.636-13.366a1.57,1.57,0,0,1-1.164-.513,54.86,54.86,0,0,1-7.576-10.568,1.577,1.577,0,0,1,2.765-1.518,51.561,51.561,0,0,0,7.14,9.961,1.575,1.575,0,0,1-1.164,2.638Zm72.608-11.909a1.578,1.578,0,0,1-1.553-1.308,107.424,107.424,0,0,0-2.783-12.18,1.575,1.575,0,1,1,3.022-.888,110.729,110.729,0,0,1,2.871,12.534,1.579,1.579,0,0,1-1.288,1.821A1.524,1.524,0,0,1,179.523,164.882Zm-84.694-10.07a1.576,1.576,0,0,1-1.518-1.157q-.293-1.062-.549-2.142a30.507,30.507,0,0,1-.842-6.986,26.878,26.878,0,0,1,.3-4.043,1.575,1.575,0,0,1,3.114.472,23.894,23.894,0,0,0-.266,3.571,27.361,27.361,0,0,0,.759,6.26q.243,1.024.518,2.027a1.583,1.583,0,0,1-1.518,2Zm77.388-14.135a1.577,1.577,0,0,1-1.421-.895,53.4,53.4,0,0,0-6.468-10.431,1.576,1.576,0,1,1,2.458-1.975,56.737,56.737,0,0,1,6.852,11.042,1.576,1.576,0,0,1-.739,2.1A1.6,1.6,0,0,1,172.217,140.677ZM98.742,130.8a1.56,1.56,0,0,1-.954-.321,1.578,1.578,0,0,1-.3-2.209,35.721,35.721,0,0,1,9.87-8.72A1.577,1.577,0,1,1,109,122.236a32.555,32.555,0,0,0-9.007,7.94A1.572,1.572,0,0,1,98.742,130.8Zm57.533-9.372a1.574,1.574,0,0,1-.862-.256,35.606,35.606,0,0,0-11.047-4.782,1.577,1.577,0,0,1,.754-3.063,38.819,38.819,0,0,1,12.022,5.208,1.576,1.576,0,0,1-.867,2.894Zm-36.516-4.017a1.577,1.577,0,0,1-.446-3.089A59.428,59.428,0,0,1,131.7,112.08l.475-.015a1.679,1.679,0,0,1,1.606,1.545,1.574,1.574,0,0,1-1.545,1.606l-.344.013a56.125,56.125,0,0,0-11.691,2.114A1.6,1.6,0,0,1,119.758,117.409Z" transform="translate(-91.92 -112.065)" fill="#008dd1"/>
            </g>
          </g>
          <g id="Group_218430" data-name="Group 218430" transform="translate(318.485 35.856)">
            <g id="Group_218427" data-name="Group 218427" transform="translate(70.217)">
              <path id="Path_95119" data-name="Path 95119" d="M496.858,128.051h84.251a19.069,19.069,0,0,1,19.07,19.069v43.455a19.07,19.07,0,0,1-19.07,19.07H526.015L506.2,227.128V209.644h-9.343a19.07,19.07,0,0,1-19.07-19.07V147.12A19.071,19.071,0,0,1,496.858,128.051Z" transform="translate(-477.787 -128.051)" fill="#008dd1"/>
              <g id="Group_218426" data-name="Group 218426" transform="translate(28.937 22.113)">
                <g id="Group_218421" data-name="Group 218421">
                  <path id="Path_95120" data-name="Path 95120" d="M508.953,154.822h59.739a2.39,2.39,0,0,0,0-4.78H508.953a2.39,2.39,0,0,0,0,4.78Z" transform="translate(-506.564 -150.042)" fill="#dfe6ff"/>
                </g>
                <g id="Group_218422" data-name="Group 218422" transform="translate(0 15.929)">
                  <path id="Path_95121" data-name="Path 95121" d="M508.953,170.663h59.739a2.39,2.39,0,0,0,0-4.78H508.953a2.39,2.39,0,0,0,0,4.78Z" transform="translate(-506.564 -165.883)" fill="#dfe6ff"/>
                </g>
                <g id="Group_218423" data-name="Group 218423" transform="translate(50.977 31.859)">
                  <path id="Path_95122" data-name="Path 95122" d="M559.648,186.505h8.762a2.39,2.39,0,0,0,0-4.78h-8.762a2.39,2.39,0,0,0,0,4.78Z" transform="translate(-557.259 -181.725)" fill="#dfe6ff"/>
                </g>
                <g id="Group_218424" data-name="Group 218424" transform="translate(31.064 31.859)">
                  <path id="Path_95123" data-name="Path 95123" d="M539.845,186.505h8.762a2.39,2.39,0,0,0,0-4.78h-8.762a2.39,2.39,0,0,0,0,4.78Z" transform="translate(-537.456 -181.725)" fill="#dfe6ff"/>
                </g>
                <g id="Group_218425" data-name="Group 218425" transform="translate(0 31.859)">
                  <path id="Path_95124" data-name="Path 95124" d="M508.953,186.505h19.913a2.39,2.39,0,0,0,0-4.78H508.953a2.39,2.39,0,0,0,0,4.78Z" transform="translate(-506.564 -181.725)" fill="#dfe6ff"/>
                </g>
              </g>
            </g>
            <g id="Group_218429" data-name="Group 218429" transform="translate(0 86.78)">
              <path id="Path_95125" data-name="Path 95125" d="M486.589,214.35H422.1a11.484,11.484,0,0,0-11.485,11.484v37.19a11.476,11.476,0,0,0,10.644,11.441l-13.3,21.792,35.047-21.749h43.583a11.484,11.484,0,0,0,11.484-11.484v-37.19A11.484,11.484,0,0,0,486.589,214.35Z" transform="translate(-407.959 -214.35)" fill="#c8e9fe"/>
              <g id="Group_218428" data-name="Group 218428" transform="translate(28.338 10.258)">
                <circle id="Ellipse_3753" data-name="Ellipse 3753" cx="7.635" cy="7.635" r="7.635" transform="translate(7.244 10.798) rotate(-45)" fill="#008dd1" stroke="#008dd1" stroke-linecap="round" stroke-linejoin="round" stroke-miterlimit="10" stroke-width="2.761"/>
                <path id="Path_95126" data-name="Path 95126" d="M472.234,260.892H436.14a11.569,11.569,0,0,1,11.569-11.569h12.957a11.57,11.57,0,0,1,11.568,11.569Z" transform="translate(-436.14 -224.413)" fill="#008dd1" stroke="#008dd1" stroke-linecap="round" stroke-linejoin="round" stroke-miterlimit="10" stroke-width="2.761"/>
              </g>
            </g>
          </g>
          <g id="Group_218441" data-name="Group 218441" transform="translate(288.127)">
            <g id="Group_218432" data-name="Group 218432">
              <g id="Group_218431" data-name="Group 218431">
                <path id="Path_95127" data-name="Path 95127" d="M408.911,154.548a31.581,31.581,0,0,1-6.354-.647,1.578,1.578,0,0,1-1.227-1.862,1.6,1.6,0,0,1,1.862-1.226,28.517,28.517,0,0,0,9.895.275,1.577,1.577,0,1,1,.467,3.119A31.79,31.79,0,0,1,408.911,154.548Zm14.307-3.681a1.578,1.578,0,0,1-.767-2.958,27.988,27.988,0,0,0,7.679-6.245,1.575,1.575,0,1,1,2.385,2.057,31.215,31.215,0,0,1-8.535,6.947A1.572,1.572,0,0,1,423.219,150.867Zm-30.041-.847a1.567,1.567,0,0,1-.837-.241,31.225,31.225,0,0,1-8.137-7.409,1.577,1.577,0,0,1,2.5-1.924,28.125,28.125,0,0,0,7.316,6.665,1.575,1.575,0,0,1-.842,2.909Zm43.462-14.749a1.581,1.581,0,0,1-1.477-2.128,27.884,27.884,0,0,0,1.742-9.738,1.575,1.575,0,0,1,3.149,0,31.038,31.038,0,0,1-1.937,10.837A1.58,1.58,0,0,1,436.639,135.271Zm-55.986-1.565a1.577,1.577,0,0,1-1.506-1.113,31.249,31.249,0,0,1-1.378-9.184c0-.587.015-1.167.048-1.745a1.612,1.612,0,0,1,1.662-1.483,1.574,1.574,0,0,1,1.483,1.662c-.028.516-.043,1.039-.043,1.563a28.151,28.151,0,0,0,1.239,8.258,1.576,1.576,0,0,1-1.042,1.97A1.512,1.512,0,0,1,380.653,133.707Zm56.958-15.855a1.576,1.576,0,0,1-1.529-1.2,27.778,27.778,0,0,0-4.048-9.025,1.576,1.576,0,0,1,2.6-1.781,30.849,30.849,0,0,1,4.5,10.047,1.574,1.574,0,0,1-1.149,1.909A1.513,1.513,0,0,1,437.611,117.852Zm-55.809-4.69a1.58,1.58,0,0,1-1.445-2.209,30.967,30.967,0,0,1,6.121-9.149,1.575,1.575,0,1,1,2.269,2.186,27.87,27.87,0,0,0-5.5,8.225A1.574,1.574,0,0,1,381.8,113.162Zm44.2-12.306a1.565,1.565,0,0,1-.911-.29,27.75,27.75,0,0,0-8.949-4.207,1.577,1.577,0,1,1,.811-3.048A30.9,30.9,0,0,1,426.921,98a1.575,1.575,0,0,1-.916,2.86Zm-29.934-2.512a1.577,1.577,0,0,1-.685-3A30.913,30.913,0,0,1,405.992,92.4a1.6,1.6,0,0,1,1.716,1.424,1.579,1.579,0,0,1-1.424,1.717,27.849,27.849,0,0,0-9.528,2.645A1.562,1.562,0,0,1,396.071,98.344Z" transform="translate(-377.769 -92.393)" fill="#008dd1"/>
              </g>
            </g>
            <g id="Group_218440" data-name="Group 218440" transform="translate(184.565 161.942)">
              <g id="Group_218433" data-name="Group 218433">
                <path id="Path_95128" data-name="Path 95128" d="M592.457,315.593a31.353,31.353,0,0,1-6.362-.65,1.581,1.581,0,0,1-1.224-1.865,1.6,1.6,0,0,1,1.865-1.224,28.314,28.314,0,0,0,9.893.275,1.577,1.577,0,1,1,.467,3.119A31.791,31.791,0,0,1,592.457,315.593Zm14.3-3.679a1.577,1.577,0,0,1-.767-2.955,28.112,28.112,0,0,0,7.678-6.247,1.575,1.575,0,0,1,2.385,2.057,31.186,31.186,0,0,1-8.535,6.944A1.545,1.545,0,0,1,606.761,311.914Zm-30.038-.849a1.567,1.567,0,0,1-.837-.241,31.254,31.254,0,0,1-8.135-7.409,1.577,1.577,0,0,1,2.5-1.924,28.052,28.052,0,0,0,7.314,6.665,1.575,1.575,0,0,1-.842,2.909Zm43.459-14.747a1.6,1.6,0,0,1-.549-.1,1.578,1.578,0,0,1-.929-2.027,27.886,27.886,0,0,0,1.742-9.739,1.575,1.575,0,0,1,3.15,0,31.028,31.028,0,0,1-1.937,10.836A1.575,1.575,0,0,1,620.181,296.318Zm-55.988-1.57a1.577,1.577,0,0,1-1.506-1.113,31.144,31.144,0,0,1-1.375-9.182c0-.585.015-1.164.049-1.742a1.651,1.651,0,0,1,1.66-1.485,1.574,1.574,0,0,1,1.485,1.66q-.042.781-.043,1.568a27.942,27.942,0,0,0,1.237,8.253,1.58,1.58,0,0,1-1.507,2.041Zm56.966-15.85a1.577,1.577,0,0,1-1.529-1.2,27.83,27.83,0,0,0-4.048-9.023,1.576,1.576,0,0,1,2.6-1.781,30.844,30.844,0,0,1,4.5,10.044,1.575,1.575,0,0,1-1.149,1.909A1.471,1.471,0,0,1,621.159,278.9Zm-55.811-4.692A1.58,1.58,0,0,1,563.9,272a31.074,31.074,0,0,1,6.124-9.149,1.575,1.575,0,0,1,2.268,2.185,27.928,27.928,0,0,0-5.5,8.225A1.577,1.577,0,0,1,565.347,274.207Zm44.2-12.3a1.565,1.565,0,0,1-.911-.29,27.689,27.689,0,0,0-8.949-4.21,1.577,1.577,0,0,1,.812-3.048,30.96,30.96,0,0,1,9.964,4.687,1.576,1.576,0,0,1-.916,2.861Zm-29.934-2.522a1.577,1.577,0,0,1-.685-3,30.911,30.911,0,0,1,10.608-2.945,1.577,1.577,0,0,1,.293,3.14,27.746,27.746,0,0,0-9.531,2.643A1.554,1.554,0,0,1,579.618,259.387Z" transform="translate(-561.312 -253.438)" fill="#008dd1"/>
              </g>
              <g id="Group_218439" data-name="Group 218439" transform="translate(12.569 17.777)">
                <rect id="Rectangle_157209" data-name="Rectangle 157209" width="36.654" height="20.785" transform="translate(0 7.629)" fill="#91a8f6"/>
                <g id="Group_218438" data-name="Group 218438" transform="translate(6.704)">
                  <g id="Group_218434" data-name="Group 218434">
                    <path id="Path_95129" data-name="Path 95129" d="M605.264,277.1v-2.544a3.389,3.389,0,0,1,3.39-3.39h0a3.389,3.389,0,0,1,3.39,3.39v4.217h-6.781" transform="translate(-580.34 -271.117)" fill="#008dd1"/>
                    <path id="Path_95130" data-name="Path 95130" d="M605.468,274.507v21.6h-24.99v-21.6a3.389,3.389,0,0,1,3.39-3.39h24.708l-.687.143A3.388,3.388,0,0,0,605.468,274.507Z" transform="translate(-580.478 -271.117)" fill="#e0eef7"/>
                  </g>
                  <g id="Group_218437" data-name="Group 218437" transform="translate(1.555 3.484)">
                    <rect id="Rectangle_157210" data-name="Rectangle 157210" width="5.541" height="5.689" transform="translate(0 0.033)" fill="#008dd1"/>
                    <g id="Group_218436" data-name="Group 218436">
                      <g id="Group_218435" data-name="Group 218435" transform="translate(7.239)">
                        <line id="Line_522" data-name="Line 522" x2="14.086" fill="none" stroke="#008dd1" stroke-linecap="round" stroke-linejoin="round" stroke-miterlimit="10" stroke-width="0.658"/>
                        <line id="Line_523" data-name="Line 523" x2="14.086" transform="translate(0 1.916)" fill="none" stroke="#008dd1" stroke-linecap="round" stroke-linejoin="round" stroke-miterlimit="10" stroke-width="0.658"/>
                        <line id="Line_524" data-name="Line 524" x2="14.086" transform="translate(0 3.831)" fill="none" stroke="#008dd1" stroke-linecap="round" stroke-linejoin="round" stroke-miterlimit="10" stroke-width="0.658"/>
                        <line id="Line_525" data-name="Line 525" x2="14.087" transform="translate(0.132 5.747)" fill="none" stroke="#008dd1" stroke-linecap="round" stroke-linejoin="round" stroke-miterlimit="10" stroke-width="0.658"/>
                      </g>
                      <line id="Line_526" data-name="Line 526" x2="21.325" transform="translate(0 7.636)" fill="none" stroke="#008dd1" stroke-linecap="round" stroke-linejoin="round" stroke-miterlimit="10" stroke-width="0.658"/>
                      <line id="Line_527" data-name="Line 527" x2="21.325" transform="translate(0 9.552)" fill="none" stroke="#008dd1" stroke-linecap="round" stroke-linejoin="round" stroke-miterlimit="10" stroke-width="0.658"/>
                      <line id="Line_528" data-name="Line 528" x2="21.325" transform="translate(0 11.426)" fill="none" stroke="#008dd1" stroke-linecap="round" stroke-linejoin="round" stroke-miterlimit="10" stroke-width="0.658"/>
                      <line id="Line_529" data-name="Line 529" x2="10.364" transform="translate(0 13.342)" fill="none" stroke="#008dd1" stroke-linecap="round" stroke-linejoin="round" stroke-miterlimit="10" stroke-width="0.658"/>
                    </g>
                  </g>
                </g>
                <path id="Path_95131" data-name="Path 95131" d="M601.46,299.489H573.811V278.7Z" transform="translate(-573.811 -271.075)" fill="#008dd1"/>
                <path id="Path_95132" data-name="Path 95132" d="M582.765,299.489h27.65V278.7Z" transform="translate(-573.761 -271.075)" fill="#008dd1"/>
                <path id="Path_95133" data-name="Path 95133" d="M610.465,299.426H573.811l16.462-8.792a3.272,3.272,0,0,1,3.731,0Z" transform="translate(-573.811 -271.012)" fill="#008dd1"/>
              </g>
            </g>
          </g>
        </g>
      </g>
    </g>
  </g>
</svg>
