<svg xmlns="http://www.w3.org/2000/svg" xmlns:xlink="http://www.w3.org/1999/xlink" width="570" height="394.099" viewBox="0 0 570 394.099">
  <defs>
    <linearGradient id="linear-gradient" x1="0.5" y1="-3.681" x2="0.5" y2="-2.018" gradientUnits="objectBoundingBox">
      <stop offset="0" stop-color="#537fb8"/>
      <stop offset="1" stop-color="#102035"/>
    </linearGradient>
    <radialGradient id="radial-gradient" cx="-0.153" cy="0.389" r="0.384" gradientTransform="matrix(-2.533, -0.035, 0.088, -0.999, -122.846, -0.908)" gradientUnits="objectBoundingBox">
      <stop offset="0.005" stop-color="#191e3b"/>
      <stop offset="1" stop-color="#222c55"/>
    </radialGradient>
  </defs>
  <g id="Big_Commerce_banner" transform="translate(-823.821 -133)">
    <path id="Path_104195" data-name="Path 104195" d="M870.771,608.338c-35.955,0-522.055-1.048-522.055-1.106-.2-.471-61.709-75.749,15.742-154.453,38.376-39-35.241-89.52,0-132.9,60.367-74.307,120.1-32.459,169.858-53.357,8.792-3.689,17.614-9.626,26.446-18.738a98.291,98.291,0,0,1,16.252-13.473q1.342-.893,2.71-1.742a108.3,108.3,0,0,1,10.843-5.877q3.758-1.769,7.658-3.273h0a125.413,125.413,0,0,1,12.692-4.126,143.763,143.763,0,0,1,18.93-3.708q4.222-.548,8.513-.867c55.6-4.174,118.171,19.3,150.461,53.616,6.5,6.91,36.063,42.661,12.76,91.8-14.713,31.026,46.923,60.658,68.825,96.087C926.093,546.3,871.276,607.163,870.771,608.338Z" transform="translate(498.456 -81.239)" fill="#d6ecfb"/>
    <g id="bigcommerce-web-development" transform="translate(897.203 192.559)">
      <g id="Group_218446" data-name="Group 218446" transform="translate(13.45 6.9)">
        <path id="Path_95134" data-name="Path 95134" d="M171.3,341.126h96.991c-8.876-20.79-9.915-42.618-7.036-65.247a300.578,300.578,0,0,0-83,0C181.135,298.507,180.176,320.336,171.3,341.126Z" transform="translate(-50.321 -60.227)" fill="#012963"/>
        <path id="Path_95135" data-name="Path 95135" d="M290.7,368.83H133.9v-8A12.234,12.234,0,0,1,146.134,348.6H278.467A12.234,12.234,0,0,1,290.7,360.834Z" transform="translate(-42.826 -75.378)" fill="#4572ff"/>
        <path id="Path_95136" data-name="Path 95136" d="M349.594,239.583H29.355A9.367,9.367,0,0,1,20,230.227V16.255A9.367,9.367,0,0,1,29.355,6.9H349.594a9.367,9.367,0,0,1,9.355,9.355V230.307A9.351,9.351,0,0,1,349.594,239.583Z" transform="translate(-20 -6.9)" fill="#0047c2"/>
        <path id="Path_95137" data-name="Path 95137" d="M20,258.7v20.39a10.971,10.971,0,0,0,10.954,10.954h316.96a10.971,10.971,0,0,0,10.954-10.954V258.7Z" transform="translate(-20 -57.362)" fill="#4572ff"/>
        <path id="Path_95138" data-name="Path 95138" d="M178.32,258.7H20v20.39a10.971,10.971,0,0,0,10.954,10.954h154.8C183.518,280.689,181.039,270.134,178.32,258.7Z" transform="translate(-20 -57.362)" opacity="0.17" fill="url(#linear-gradient)"/>
        <rect id="Rectangle_157212" data-name="Rectangle 157212" width="316.64" height="179.11" transform="translate(12.554 15.672)" fill="#c8e9fe"/>
        <g id="Group_218445" data-name="Group 218445" transform="translate(82.878 27.468)">
          <path id="Path_95139" data-name="Path 95139" d="M220.882,140.1h16.949c4.778,0,7.843-2.614,7.843-6.852,0-3.967-3.065-6.852-7.843-6.852H220.882a1.082,1.082,0,0,0-1.082.992v11.9A1.082,1.082,0,0,0,220.882,140.1Z" transform="translate(-150.212 -63.81)" fill="#008dd1"/>
          <path id="Path_95140" data-name="Path 95140" d="M220.882,170.246h17.49c5.409,0,8.565-2.7,8.565-7.573,0-4.147-3.065-7.573-8.565-7.573h-17.49a1.082,1.082,0,0,0-1.082.992v13.072A1.091,1.091,0,0,0,220.882,170.246Z" transform="translate(-150.212 -66.636)" fill="#008dd1"/>
          <path id="Path_95141" data-name="Path 95141" d="M275.126,57.268l-50.035,49.855h8.2c12.712,0,20.284,8.024,20.284,16.768,0,6.852-4.688,11.9-9.646,14.154a.956.956,0,0,0,.09,1.8c5.77,2.254,9.827,8.294,9.827,15.326,0,9.917-6.671,17.85-19.563,17.85h-35.43a1.082,1.082,0,0,1-1.082-.992V134.259l-54.813,54.723a1.152,1.152,0,0,0,.811,1.983H275.757a.9.9,0,0,0,.9-.9V57.989C276.929,57.088,275.757,56.637,275.126,57.268Z" transform="translate(-142.611 -56.974)" fill="#008dd1"/>
        </g>
      </g>
      <g id="Group_218452" data-name="Group 218452" transform="translate(288.415 42.653)">
        <path id="Path_95142" data-name="Path 95142" d="M440.03,104.069c-1.2-3.278,0-4.8-.72-6.557a22.568,22.568,0,0,0-1.919-3.2c-.48-.72-.56-1.439-.8-1.279-1.279.96.96,3.918.32,4.4-.4.32-5.757-7.436-6.4-7.036-1.2.8,2.079,4.478,2.079,4.958s-4.238-4.4-4.718-3.758c-1.039,1.2,3.678,4.638,3.438,5.2-.16.4-3.758-2.8-4.238-2.559-1.279.8,2.958,3.758,2.958,4.078-.08.4-2.958-1.919-3.358-1.359-.64.88,2.239,2.639,2.959,3.438.56.72.88,2.479,3.2,4.238.88.64,2.4.96,3.918,2.4C437.152,107.668,440.27,104.709,440.03,104.069Z" transform="translate(-376.446 -59.383)" fill="#f2b892"/>
        <g id="Group_218447" data-name="Group 218447" transform="translate(58.696 38.157)">
          <path id="Path_95143" data-name="Path 95143" d="M437.617,103.7h0a.344.344,0,0,0,.32-.32,5.492,5.492,0,0,1,.88-3.6c.08-.16.08-.32-.08-.4s-.32-.08-.4.08a5.856,5.856,0,0,0-1.039,3.918A.293.293,0,0,0,437.617,103.7Z" transform="translate(-437.287 -99.334)" fill="#eb836c"/>
        </g>
        <path id="Path_95144" data-name="Path 95144" d="M483.011,123.234c-6.237-2.319-22.149,4.318-25.427,2.4s-14.473-17.031-15.432-18.711c-1.279-2.159-5.277,1.2-4.478,2.4,1.119,1.679,6.877,22.549,15.192,25.907,6.956,2.8,26.547-1.439,28.226-3.2C482.611,130.351,486.129,124.434,483.011,123.234Z" transform="translate(-378.647 -62.556)" fill="#f2b892"/>
        <g id="Group_218448" data-name="Group 218448" transform="translate(0)">
          <rect id="Rectangle_157213" data-name="Rectangle 157213" width="44.538" height="53.253" transform="translate(0 43.62) rotate(-78.357)" fill="#a8d9f8"/>
        </g>
        <path id="Path_95145" data-name="Path 95145" d="M544.619,359.04l-11.114,3.2L424.2,202.8l11.114-3.2Z" transform="translate(-375.968 -81.271)" fill="#7991c9"/>
        <rect id="Rectangle_157214" data-name="Rectangle 157214" width="37.101" height="3.038" transform="translate(96.923 247.477) rotate(-16.099)" fill="#353240"/>
        <rect id="Rectangle_157215" data-name="Rectangle 157215" width="37.101" height="3.038" transform="translate(74.696 215.012) rotate(-16.099)" fill="#353240"/>
        <rect id="Rectangle_157216" data-name="Rectangle 157216" width="37.101" height="3.038" transform="translate(52.384 182.55) rotate(-16.099)" fill="#353240"/>
        <rect id="Rectangle_157217" data-name="Rectangle 157217" width="37.101" height="3.038" transform="translate(30.158 150.086) rotate(-16.099)" fill="#2c4685"/>
        <rect id="Rectangle_157218" data-name="Rectangle 157218" width="37.101" height="3.038" transform="translate(119.235 279.939) rotate(-16.099)" fill="#353240"/>
        <path id="Path_95146" data-name="Path 95146" d="M542.219,359.66,531.1,362.938,421.8,203.5l11.114-3.2Z" transform="translate(-375.487 -81.411)" fill="#353240"/>
        <path id="Path_95147" data-name="Path 95147" d="M490.808,92.136c-6.877-4.238-19.75,13.353-13.433,17.511C484.651,114.365,501.683,98.773,490.808,92.136Z" transform="translate(-386.285 -59.604)" fill="#f2b892"/>
        <path id="Path_95148" data-name="Path 95148" d="M437.482,264.4c0,2.239.56,5.757,1.2,6.637s-4.958,5.117-5.837-.32a33.966,33.966,0,0,0-2.559-6.957C429.486,262.156,437.482,264.4,437.482,264.4Z" transform="translate(-377.177 -94.012)" fill="#f2b892"/>
        <path id="Path_95149" data-name="Path 95149" d="M478.171,179.2c.08.4,8.876,14.233,8.716,18.791-.16,3.6-2.639,9.435-2.639,9.435l2.159,28.306s6.8,7.036,7.6,9.435c2.4,7.356,1.759,17.991,2.639,25.987.24,2-6.877,2.319-7.676.48-3.358-7.916-14.233-24.628-18.231-34.7-2.879-7.2-8.956-29.505-8.956-29.505L459.7,181.279Z" transform="translate(-383.083 -77.183)" fill="url(#radial-gradient)"/>
        <path id="Path_95150" data-name="Path 95150" d="M503.26,294.422a18.833,18.833,0,0,0,.88,4.318c.4,1.039-4.958,5.117-5.837-.32a16.84,16.84,0,0,0-1.119-3.6C496.384,293.142,503.02,292.663,503.26,294.422Z" transform="translate(-390.581 -100.051)" fill="#f2b892"/>
        <path id="Path_95151" data-name="Path 95151" d="M500.711,300.092c.72.4,3.438,4.958,2.959,6.157s-9.115,2.4-12.234,2.239c-2.4-.08-7.836-.24-8.636-.32-.8,0-2.8-.48-2.319-1.679.48-1.119,6.4-1.6,7.6-2,1.519-.48,5.517-4.318,6.477-4.8.64-.32,2,1.839,3.118,1.919C498.712,301.691,500.232,299.772,500.711,300.092Z" transform="translate(-387.233 -101.323)" fill="#222c55"/>
        <path id="Path_95152" data-name="Path 95152" d="M467.222,179.1c.08.4,3.038,12.474,2.879,17.031-.16,3.6-4.078,8.076-6,8.955-5.6,2.719-8.156.96-11.434,2.319-4.718,2-19.19,7.276-20.79,9.035-.48.48,4.078,3.838,4.638,7.356,1.679,10.555-2.239,18.071-1.519,25.587-1.119,1.439-6.877,2.319-7.436.56-4.078-12.634-15.032-33.983-11.994-42.059,2.479-6.717,37.821-28.306,37.821-28.306Z" transform="translate(-374.133 -77.163)" fill="#222c55"/>
        <path id="Path_95153" data-name="Path 95153" d="M491.652,107.8c-2.319,5.917-2.8,9.435-2.319,12.394.64,3.358-11.754.08-11.434-1.919a44.782,44.782,0,0,1,3.2-10.075Z" transform="translate(-386.728 -62.874)" fill="#f2b892"/>
        <path id="Path_95154" data-name="Path 95154" d="M448.27,124.488c-7.436,3.118-15.592,8.076-18.551,7.276-4.318-1.2-17.351-9.435-19.43-12.234-1.759-2.4-4.638,2.239-3.918,3.758.8,1.439,11.354,16.552,19.75,19.19,6,1.839,19.19-2.639,26.627-6.237C455.787,134.723,451.869,122.969,448.27,124.488Z" transform="translate(-372.373 -65.089)" fill="#f2b892"/>
        <path id="Path_95155" data-name="Path 95155" d="M437.674,272.912c-.48-.32-2,1.679-2.959,1.6-1.119-.08-2.479-2.239-3.118-1.919-.96.4-4.878,4.238-6.4,4.718.8,1.279,1.519,2.639,2.239,4h1.039c3.118.08,11.674-1.039,12.234-2.239C441.112,277.949,438.313,273.392,437.674,272.912Z" transform="translate(-376.169 -95.892)" fill="#222c55"/>
        <path id="Path_95156" data-name="Path 95156" d="M456.378,139.311a3.624,3.624,0,0,1-1.519.16c-.08-4.238-2.959-12.074-2.959-12.074a55.673,55.673,0,0,1,8.716-4.718A32.475,32.475,0,0,1,472.13,120.6c1.039,0,3.038,1.119,8.236,1.919,2.159.32,3.358-.24,3.918.08,2.959,1.519,6,4.4,6.477,6.317,2.079,9.115-7.516,32.384-7.756,33.9-.48,3.358.64,15.192-.08,15.512-1.919.8-21.029-2.479-29.265-6.157-.88-.4,3.278-9.275,4.078-12.234C458.137,158.661,456.937,148.506,456.378,139.311Z" transform="translate(-381.519 -65.439)" fill="#008dd1"/>
        <path id="Path_95157" data-name="Path 95157" d="M482.527,90.7c1.119-3.118,11.434-2.639,15.992,1.759,3.838,3.758,2.319,10.954-2.719,15.032-5.117,4.158-4.4,5.437-5.757,5.277-1.279-.16-2.719-5.037-2.879-7.356s1.919-2.959,1.6-4.238c-.32-1.2-1.519-2.079-1.839-1.519-.4.56-1.119,3.358-1.519,3.278s-.48-.4-.8-1.439C484.206,100.613,481.328,93.977,482.527,90.7Z" transform="translate(-387.599 -59.045)" fill="#222c55"/>
        <path id="Path_95158" data-name="Path 95158" d="M484.3,104.818c-.88,2.639.4,6.317-2.719,8.156-2.159,1.279-7.036.64-7.836-1.519-.72-2.079.56-7.676,2.559-8.156.88-.16,1.2,3.2,1.439,3.678s3.278,1.2,3.678.64,1.439-1.519,1.519-2.559C482.945,103.938,484.7,103.459,484.3,104.818Z" transform="translate(-385.858 -61.971)" fill="#222c55"/>
        <path id="Path_95159" data-name="Path 95159" d="M408.52,118.148c-1.679-3.118-.64-4.8-1.6-6.4a26.1,26.1,0,0,0-2.319-2.879c-.56-.64-.8-1.359-.96-1.119-1.119,1.119,1.519,3.758.96,4.318-.32.4-6.717-6.557-7.276-6.077-1.039.96,2.8,4.4,2.559,4.8s-4.638-4-5.037-3.278c-.88,1.359,4,4.558,3.838,5.037-.08.4-3.758-2.719-4.238-2.319-1.2,1.039,3.118,3.358,2.958,4.078-.08.4-2.4-2.479-2.719-1.919-.56.96,1.6,3.038,2.479,3.758a16.859,16.859,0,0,0,4.078,3.118,28.564,28.564,0,0,1,4.4,2.4C406.2,122.066,408.76,118.788,408.52,118.148Z" transform="translate(-369.964 -62.507)" fill="#f2b892"/>
        <path id="Path_95162" data-name="Path 95162" d="M500.519,371.76l-11.114,3.2L380.1,215.6l11.114-3.2Z" transform="translate(-367.131 -83.836)" fill="#7991c9"/>
        <path id="Path_95163" data-name="Path 95163" d="M498.119,372.44,487,375.638,377.7,216.278,388.814,213Z" transform="translate(-366.65 -83.956)" fill="#353240"/>
        <g id="Group_218451" data-name="Group 218451" transform="translate(17.26 12.463)">
          <path id="Path_95164" data-name="Path 95164" d="M414.039,84.471A14.406,14.406,0,1,1,402.6,67.44,14.547,14.547,0,0,1,414.039,84.471Z" transform="translate(-385.466 -67.201)" fill="#008dd1"/>
          <path id="Path_95165" data-name="Path 95165" d="M407.028,79.839c-.56,2.879-2.8,4.478-4.4,4.158-1.519-.32-3.118-2.639-2.559-5.437.56-2.879,2.159-4.078,4.238-3.678C406.468,75.281,407.588,76.96,407.028,79.839Z" transform="translate(-388.37 -68.725)" fill="#fff"/>
          <path id="Path_95166" data-name="Path 95166" d="M406.194,89.274c-.8-2.079-3.758-1.759-3.6-2.319.08-.48.56-1.919.64-2.479.08-.48-.8-.72-1.2-.8-.48-.08-1.279-.24-1.439.24-.08.48-.24,2-.32,2.479s-2.719-.8-4.238.8a5.935,5.935,0,0,0-1.439,3.838l5.757,1.119,5.757,1.119A5.521,5.521,0,0,0,406.194,89.274Z" transform="translate(-387.296 -70.484)" fill="#fff"/>
        </g>
      </g>
      <g id="Group_218458" data-name="Group 218458" transform="translate(109.858 185.33)">
        <g id="Group_218453" data-name="Group 218453" transform="translate(10.311 39.48)">
          <path id="Path_95167" data-name="Path 95167" d="M150.455,315.124c-.24,2.319-.4,4.8.64,6.877s3.758,3.438,5.837,2.319a6.5,6.5,0,0,0,2.4-3.038l10.075-19.67c2.8-5.437,5.6-11.194,5.277-17.271a14.47,14.47,0,0,0-2.719-7.836c-1.519-1.919-4.718-5.037-6.877-2.8-2.239,2.239-3.758,6.237-5.117,9.035a96.117,96.117,0,0,0-7.356,20.47A77.749,77.749,0,0,0,150.455,315.124Z" transform="translate(-149.828 -271.123)" fill="#f6b690"/>
          <path id="Path_95168" data-name="Path 95168" d="M175.269,285.167a16.147,16.147,0,0,0-3.038-8.716c-1.679-2.159-2.639-7.676-5.037-5.117a68.961,68.961,0,0,0-8.316,12.074,96.974,96.974,0,0,0-5.277,12.714l16.072,7.756C172.63,298.12,175.669,291.8,175.269,285.167Z" transform="translate(-150.494 -270.67)" fill="#f2cd53" fill-rule="evenodd"/>
          <path id="Path_95169" data-name="Path 95169" d="M150.822,324.581a7.746,7.746,0,0,1,6.956-2.4,26.108,26.108,0,0,1,7.276,2.479c4.238,2,8.476,4.078,12.794,6.077,4.4,2.079,8.8,4.158,13.193,6.317a2.76,2.76,0,0,1,1.679,1.439,1.878,1.878,0,0,1-.96,2,4.661,4.661,0,0,1-2.319.48,71.108,71.108,0,0,1-19.67-1.839,65.865,65.865,0,0,1-9.515-3.038c-2.639-1.039-6.4-2.239-8.556-4.158A5.308,5.308,0,0,1,150.822,324.581Z" transform="translate(-149.715 -280.979)" fill="#f6b690"/>
        </g>
        <g id="Group_218455" data-name="Group 218455" transform="translate(0 67.787)">
          <path id="Path_95170" data-name="Path 95170" d="M184.35,343.565c4.878-.72,28.146-.72,33.023,0,6.077.88,5.2,8.476,4.4,13.033-.8,4.957-1.839,10.235-5.517,13.673-3.518,3.358-27.266,3.358-30.864,0-3.6-3.438-4.638-8.8-5.517-13.673C179.153,352.04,178.273,344.444,184.35,343.565Z" transform="translate(-145.345 -313.478)" fill="#353240" fill-rule="evenodd"/>
          <path id="Path_95171" data-name="Path 95171" d="M276.309,365.313c2.559,2.8,4.238,7.436,2,10.395-1.839,2.479-54.293-2.4-62.049-2.4-5.517-7.036-5.277-17.671,8.8-24.867,3.038-1.519,6.317.08,9.6.8C244.166,351.16,269.913,358.276,276.309,365.313Z" transform="translate(-152.067 -314.436)" fill="#353240" fill-rule="evenodd"/>
          <path id="Path_95172" data-name="Path 95172" d="M147.681,307.089c-3.758-.32-8,1.119-9.835,4.478-1.519,2.719-1.2,6.157.08,8.956a31.05,31.05,0,0,0,5.437,7.516c29.985,33.5,30.465,35.022,35.5,36.382,8.556,2.319,18.87,0,11.274-19.67C188.94,341.552,157.036,307.889,147.681,307.089Z" transform="translate(-136.822 -306.267)" fill="#353240" fill-rule="evenodd"/>
          <path id="Path_95173" data-name="Path 95173" d="M181.055,388.652c-2-1.2-5.917-6.317-10.555-13.113l8.716-3.038C182.094,382.655,183.214,389.931,181.055,388.652Z" transform="translate(-143.569 -319.385)" fill="#f6b690"/>
          <path id="Path_95174" data-name="Path 95174" d="M140.082,307.454c5.357-2.559,10.555-1.919,14.793,4.958,5.757,9.275,13.433,31.9,17.591,46.776l-9.995,4.558c-6.317-14.473-18.791-33.183-23.668-41.739C136.084,317.289,135.844,309.453,140.082,307.454Z" transform="translate(-136.819 -306.072)" fill="#353240" fill-rule="evenodd"/>
          <g id="Group_218454" data-name="Group 218454" transform="translate(51.239 50.717)">
            <path id="Path_95175" data-name="Path 95175" d="M214.268,380.9l4.318,8.076c-6.477.4-11.674.48-13.833-.4C202.514,387.7,206.912,384.418,214.268,380.9Z" transform="translate(-201.555 -371.785)" fill="#353240"/>
            <path id="Path_95176" data-name="Path 95176" d="M267.974,369.5c8.076,0,12.074,4.158,12.074,7.116,0,4.958-3.038,10.315-10.715,10.315-9.755,0-34.143-.32-49.1.72L216.8,378.7C227.834,373.258,256.14,369.5,267.974,369.5Z" transform="translate(-204.086 -369.5)" fill="#353240" fill-rule="evenodd"/>
            <path id="Path_95177" data-name="Path 95177" d="M200.9,387.931c.32-.16,2.559-3.438,4-4.078.88-.32,2-.88,2.879-.4,1.039.48,1.039,1.919,1.679,2.8a5.257,5.257,0,0,0,1.759,1.519l1.439-1.919c5.037,2.319,1.039,8.156,6.077,10.555a15.29,15.29,0,0,1,3.6,1.839c1.039.88,1.679,2.4,1.039,3.518a2.068,2.068,0,0,1-1.119.88L206.1,394.808s-.08-3.278.4-3.678a9.4,9.4,0,0,1-2.4.8Z" transform="translate(-200.9 -372.259)" fill="#353240" fill-rule="evenodd"/>
          </g>
          <path id="Path_95178" data-name="Path 95178" d="M170.1,390.832a3,3,0,0,1,1.119-2.8c.56-.32,1.439-2.559,2.639-5.837.56-1.519,3.6-1.919,5.117.64.48.8.96,1.359,1.519,1.359.48,0,.96-.8,1.439-.32a5.774,5.774,0,0,1,.56,2.559l.48,4.558c0,.32.08.72.08,1.039H170.418A1.787,1.787,0,0,1,170.1,390.832Z" transform="translate(-143.487 -321.085)" fill="#0b3d60" fill-rule="evenodd"/>
        </g>
        <g id="Group_218456" data-name="Group 218456" transform="translate(57.179 39.48)">
          <path id="Path_95179" data-name="Path 95179" d="M255.922,315.124c.24,2.319.4,4.8-.64,6.877s-3.758,3.438-5.837,2.319a6.5,6.5,0,0,1-2.4-3.038l-10.075-19.67c-2.8-5.437-5.6-11.194-5.277-17.271a14.469,14.469,0,0,1,2.719-7.836c1.519-1.919,4.718-5.037,6.877-2.8,2.239,2.239,3.758,6.237,5.117,9.035a96.122,96.122,0,0,1,7.356,20.47A88.833,88.833,0,0,1,255.922,315.124Z" transform="translate(-213.006 -271.123)" fill="#f6b690"/>
          <path id="Path_95180" data-name="Path 95180" d="M231.691,285.167a16.147,16.147,0,0,1,3.038-8.716c1.679-2.159,2.639-7.676,5.037-5.117a68.962,68.962,0,0,1,8.316,12.074,96.974,96.974,0,0,1,5.277,12.714l-16.072,7.756C234.33,298.12,231.291,291.8,231.691,285.167Z" transform="translate(-213.004 -270.67)" fill="#f2cd53" fill-rule="evenodd"/>
          <path id="Path_95181" data-name="Path 95181" d="M250.285,325.981a7.745,7.745,0,0,0-6.956-2.4,26.106,26.106,0,0,0-7.276,2.479c-4.238,2-8.476,4.078-12.794,6.077-4.4,2.079-8.8,4.158-13.193,6.317a2.76,2.76,0,0,0-1.679,1.439,1.878,1.878,0,0,0,.96,2,4.661,4.661,0,0,0,2.319.48,71.106,71.106,0,0,0,19.67-1.839,65.861,65.861,0,0,0,9.515-3.038c2.639-1.039,6.4-2.239,8.556-4.158A5.3,5.3,0,0,0,250.285,325.981Z" transform="translate(-208.329 -281.259)" fill="#f6b690"/>
        </g>
        <path id="Path_95182" data-name="Path 95182" d="M169.207,269.313a13.535,13.535,0,0,1,6.237-3.758c6.8-2.479,22.389-9.035,22.948-8.956.56,0,16.152,6.477,22.948,8.956a15.033,15.033,0,0,1,6.237,3.758c2.079,2.559,2.4,6.157,1.6,9.355-.72,3.2-2.4,6.077-3.838,9.035a73.361,73.361,0,0,0-4.4,11.434,78.008,78.008,0,0,0-3.118,21.909c0,2.239,1.2,6.077.48,8.236-.88,2.719-5.517,3.278-7.836,3.6a67.819,67.819,0,0,1-12.074.48,75.885,75.885,0,0,1-12.074-.48c-2.319-.32-6.956-.88-7.836-3.6-.72-2.159.48-6,.48-8.236a78.424,78.424,0,0,0-3.118-21.909,82.326,82.326,0,0,0-4.4-11.434c-1.439-2.958-3.038-5.837-3.838-9.035C166.888,275.47,167.128,271.792,169.207,269.313Z" transform="translate(-142.916 -228.371)" fill="#f2cd53" fill-rule="evenodd"/>
        <g id="Group_218457" data-name="Group 218457" transform="translate(40.145)">
          <path id="Path_95183" data-name="Path 95183" d="M199.569,253.546c.64-2,.96-5.837,2.239-7.2.72-.8,4.718-.8,5.437,0,1.279,1.359,1.6,5.2,2.239,7.2.72,2.319,1.359,5.037.56,7.276a4.112,4.112,0,0,1-2.719,2.879,22.484,22.484,0,0,1-5.677,0,4.112,4.112,0,0,1-2.719-2.879C198.29,258.584,198.85,255.865,199.569,253.546Z" transform="translate(-189.355 -226.196)" fill="#f4a186"/>
          <path id="Path_95184" data-name="Path 95184" d="M195.365,233.309c1.279-3.678,15.432-3.678,16.712,0a18.532,18.532,0,0,1,.56,9.355,18.95,18.95,0,0,1-3.358,7.756c-1.119,1.519-2.639,3.678-4.238,4.478H202.4c-1.679-.72-3.118-2.959-4.238-4.478a17.428,17.428,0,0,1-3.358-7.756A17.733,17.733,0,0,1,195.365,233.309Z" transform="translate(-188.509 -223.15)" fill="#f6b690"/>
          <path id="Path_95185" data-name="Path 95185" d="M195.864,245.037c-.16-.88-.56-1.679-.72-2.559s-.48-1.919.16-2.479a65.321,65.321,0,0,0,2.559,7.916,4.3,4.3,0,0,0,.8,1.6,3.522,3.522,0,0,0,2,.88c.8.16,2.879-.72,3.118-.72s2.319.88,3.118.72a2.927,2.927,0,0,0,2.8-2.479A72.778,72.778,0,0,0,211.856,240a2.74,2.74,0,0,1,.56,2.479c-.16.88-.56,1.679-.72,2.559v.24a3.324,3.324,0,0,0,.16,1.759c.08.24.24.4.24.64a2.842,2.842,0,0,1-.16.8,19.54,19.54,0,0,1-1.039,3.518,24.841,24.841,0,0,1-1.6,3.278,17.121,17.121,0,0,1-1.039,1.519c-.16.24-.88,1.359-1.119,1.359l-2.8.8H203.06l-2.8-.8c-.24,0-.96-1.119-1.119-1.359a10.183,10.183,0,0,1-1.039-1.519,15.574,15.574,0,0,1-1.6-3.278,17.8,17.8,0,0,1-1.039-3.518,2.841,2.841,0,0,1-.16-.8c0-.24.16-.4.24-.64a3.252,3.252,0,0,0,.16-1.759C195.944,245.2,195.864,245.117,195.864,245.037Z" transform="translate(-188.608 -225.044)" fill="#0b3d60" fill-rule="evenodd"/>
          <path id="Path_95186" data-name="Path 95186" d="M188.365,223.858a6.3,6.3,0,0,1,7.436-2.079A14.7,14.7,0,0,0,199,223.3a7.459,7.459,0,0,0,3.918-.72,8.5,8.5,0,0,1,3.918-.88,2.849,2.849,0,0,1,2.479,2.879,4.755,4.755,0,0,1,5.277,1.439,5.537,5.537,0,0,1,.64,5.757,31.731,31.731,0,0,0-1.839,3.118c-.48,1.359.08,4.558-1.519,5.117-1.2.48-1.919-9.275-5.357-9.515a5.994,5.994,0,0,1-7.116,1.2c-.88-.48-1.759-1.2-2.719-.88a3.576,3.576,0,0,0-1.759,1.039c-.96,1.359-.64,7.356-2,8.316a17.258,17.258,0,0,1-.8-6.717,4.557,4.557,0,0,1-1.759-.32c-1.6-.64-2.8.08-3.2-1.759S187.245,225.3,188.365,223.858Z" transform="translate(-187.026 -221.296)" fill="#0b3d60" fill-rule="evenodd"/>
          <path id="Path_95187" data-name="Path 95187" d="M218.509,244.637a3.874,3.874,0,0,0,.56-2.079c-.08-.72-.72-1.439-1.359-1.359a1.377,1.377,0,0,0-.96.8,3.426,3.426,0,0,0-.4,1.279c-.16.8-.32,1.519-.48,2.319-.16.64-.24,1.439.32,1.839C216.99,248.075,218.109,245.276,218.509,244.637Z" transform="translate(-192.783 -225.283)" fill="#f6b690"/>
          <path id="Path_95188" data-name="Path 95188" d="M192.857,244.637a3.874,3.874,0,0,1-.56-2.079c.08-.72.72-1.439,1.359-1.359a1.377,1.377,0,0,1,.96.8,3.426,3.426,0,0,1,.4,1.279c.16.8.32,1.519.48,2.319.16.64.24,1.439-.32,1.839C194.376,248.075,193.256,245.276,192.857,244.637Z" transform="translate(-188.08 -225.283)" fill="#f6b690"/>
        </g>
        <path id="Path_95189" data-name="Path 95189" d="M178.392,339.923H221.41a3.836,3.836,0,0,0,3.838-3.518l2.239-26.547a3.868,3.868,0,0,0-3.838-4.158H176.233a3.822,3.822,0,0,0-3.838,4.158l2.239,26.547A3.708,3.708,0,0,0,178.392,339.923Z" transform="translate(-143.944 -238.211)" fill="#d0eefc"/>
        <path id="Path_95190" data-name="Path 95190" d="M227.31,310.977a3.865,3.865,0,0,0-3.758-2.959H176.136a3.865,3.865,0,0,0-3.758,2.959l-.08-1.119a3.868,3.868,0,0,1,3.838-4.158h47.416a3.822,3.822,0,0,1,3.838,4.158Z" transform="translate(-143.927 -238.211)" fill="#4572ff"/>
      </g>
      <g id="Group_218473" data-name="Group 218473" transform="translate(-23.204 242.242)">
        <g id="Group_218459" data-name="Group 218459" transform="translate(5.663 5.663)">
          <path id="Path_95191" data-name="Path 95191" d="M49.911,380.822a30.611,30.611,0,1,1,30.611-30.611A30.652,30.652,0,0,1,49.911,380.822Zm0-52.651a22.04,22.04,0,1,0,22.04,22.04A22.046,22.046,0,0,0,49.911,328.171Z" transform="translate(-19.3 -319.6)" fill="#018eca"/>
        </g>
        <g id="Group_218460" data-name="Group 218460" transform="translate(22.27 22.27)">
          <path id="Path_95192" data-name="Path 95192" d="M55,369.309a14,14,0,1,1,14-14A14.011,14.011,0,0,1,55,369.309Zm0-19.515a5.433,5.433,0,1,0,5.433,5.434A5.358,5.358,0,0,0,55,349.795Z" transform="translate(-41 -341.3)" fill="#018eca"/>
        </g>
        <g id="Group_218461" data-name="Group 218461" transform="translate(58.314 31.989)">
          <path id="Path_95193" data-name="Path 95193" d="M98.049,362.571H92.386a4.286,4.286,0,1,1,0-8.571h5.663a4.286,4.286,0,1,1,0,8.571Z" transform="translate(-88.1 -354)" fill="#018eca"/>
        </g>
        <g id="Group_218462" data-name="Group 218462" transform="translate(54.85 16.051)">
          <path id="Path_95194" data-name="Path 95194" d="M87.8,344.52a4.21,4.21,0,0,1-3.673-2.143,4.3,4.3,0,0,1,1.531-5.816l4.9-2.832a4.253,4.253,0,0,1,4.286,7.347l-4.9,2.831A4.329,4.329,0,0,1,87.8,344.52Z" transform="translate(-83.574 -333.174)" fill="#018eca"/>
        </g>
        <g id="Group_218463" data-name="Group 218463" transform="translate(45.157 4.368)">
          <path id="Path_95195" data-name="Path 95195" d="M75.187,331.294a4.446,4.446,0,0,1-2.143-.536,4.17,4.17,0,0,1-1.531-5.816l2.832-4.9a4.253,4.253,0,0,1,7.347,4.286l-2.832,4.9A4.206,4.206,0,0,1,75.187,331.294Z" transform="translate(-70.907 -317.907)" fill="#018eca"/>
        </g>
        <g id="Group_218464" data-name="Group 218464" transform="translate(31.989)">
          <path id="Path_95196" data-name="Path 95196" d="M57.986,326.434a4.279,4.279,0,0,1-4.286-4.286v-5.663a4.286,4.286,0,0,1,8.571,0v5.663A4.279,4.279,0,0,1,57.986,326.434Z" transform="translate(-53.7 -312.2)" fill="#018eca"/>
        </g>
        <g id="Group_218465" data-name="Group 218465" transform="translate(16.127 4.342)">
          <path id="Path_95197" data-name="Path 95197" d="M40.034,331.286a4.21,4.21,0,0,1-3.673-2.143l-2.832-4.9a4.253,4.253,0,0,1,7.347-4.286l2.832,4.9a4.3,4.3,0,0,1-1.531,5.816A4.562,4.562,0,0,1,40.034,331.286Z" transform="translate(-32.974 -317.874)" fill="#018eca"/>
        </g>
        <g id="Group_218466" data-name="Group 218466" transform="translate(4.368 16.076)">
          <path id="Path_95198" data-name="Path 95198" d="M26.785,344.528a4.446,4.446,0,0,1-2.143-.536l-4.9-2.831a4.253,4.253,0,0,1,4.286-7.347l4.9,2.832a4.17,4.17,0,0,1,1.531,5.816A4.4,4.4,0,0,1,26.785,344.528Z" transform="translate(-17.607 -333.207)" fill="#018eca"/>
        </g>
        <g id="Group_218467" data-name="Group 218467" transform="translate(0 31.989)">
          <path id="Path_95199" data-name="Path 95199" d="M21.849,362.571H16.186a4.286,4.286,0,1,1,0-8.571h5.663a4.286,4.286,0,1,1,0,8.571Z" transform="translate(-11.9 -354)" fill="#018eca"/>
        </g>
        <g id="Group_218468" data-name="Group 218468" transform="translate(4.419 45.131)">
          <path id="Path_95200" data-name="Path 95200" d="M21.9,382.52a4.21,4.21,0,0,1-3.673-2.143,4.3,4.3,0,0,1,1.531-5.816l4.9-2.832a4.253,4.253,0,0,1,4.286,7.347l-4.9,2.832A3.826,3.826,0,0,1,21.9,382.52Z" transform="translate(-17.674 -371.174)" fill="#018eca"/>
        </g>
        <g id="Group_218469" data-name="Group 218469" transform="translate(16.076 54.799)">
          <path id="Path_95201" data-name="Path 95201" d="M37.187,397.194a4.446,4.446,0,0,1-2.143-.536,4.17,4.17,0,0,1-1.531-5.816l2.832-4.9a4.253,4.253,0,1,1,7.347,4.286l-2.832,4.9A4.4,4.4,0,0,1,37.187,397.194Z" transform="translate(-32.907 -383.807)" fill="#018eca"/>
        </g>
        <g id="Group_218470" data-name="Group 218470" transform="translate(31.989 58.314)">
          <path id="Path_95202" data-name="Path 95202" d="M57.986,402.558a4.279,4.279,0,0,1-4.286-4.286v-5.586a4.286,4.286,0,1,1,8.571,0v5.663A4.263,4.263,0,0,1,57.986,402.558Z" transform="translate(-53.7 -388.4)" fill="#018eca"/>
        </g>
        <g id="Group_218471" data-name="Group 218471" transform="translate(45.208 54.774)">
          <path id="Path_95203" data-name="Path 95203" d="M78.034,397.186a4.21,4.21,0,0,1-3.673-2.143l-2.832-4.9a4.253,4.253,0,0,1,7.347-4.286l2.832,4.9a4.3,4.3,0,0,1-1.531,5.816A3.665,3.665,0,0,1,78.034,397.186Z" transform="translate(-70.974 -383.774)" fill="#018eca"/>
        </g>
        <g id="Group_218472" data-name="Group 218472" transform="translate(54.799 45.157)">
          <path id="Path_95204" data-name="Path 95204" d="M92.685,382.528a4.446,4.446,0,0,1-2.143-.536l-4.9-2.832a4.253,4.253,0,0,1,4.286-7.347l4.9,2.832a4.17,4.17,0,0,1,1.531,5.816A4.3,4.3,0,0,1,92.685,382.528Z" transform="translate(-83.507 -371.207)" fill="#018eca"/>
        </g>
      </g>
      <g id="Group_218488" data-name="Group 218488" transform="translate(265.083 248.218)">
        <g id="Group_218474" data-name="Group 218474" transform="translate(3.565 3.565)">
          <path id="Path_95205" data-name="Path 95205" d="M357.886,351.172a19.286,19.286,0,1,1,19.286-19.286A19.29,19.29,0,0,1,357.886,351.172Zm0-33.27a13.893,13.893,0,1,0,13.893,13.893A13.887,13.887,0,0,0,357.886,317.9Z" transform="translate(-338.6 -312.6)" fill="#353240"/>
        </g>
        <g id="Group_218475" data-name="Group 218475" transform="translate(13.985 13.893)">
          <path id="Path_95206" data-name="Path 95206" d="M358.866,341.632a8.866,8.866,0,1,1,8.866-8.866A8.874,8.874,0,0,1,358.866,341.632Zm0-12.248a3.473,3.473,0,1,0,3.473,3.473A3.472,3.472,0,0,0,358.866,329.384Z" transform="translate(-350 -323.9)" fill="#353240"/>
        </g>
        <g id="Group_218476" data-name="Group 218476" transform="translate(36.835 20.2)">
          <path id="Path_95207" data-name="Path 95207" d="M381.215,336.1h-3.565a2.651,2.651,0,1,1,0-5.3h3.565a2.652,2.652,0,0,1,2.651,2.651A2.6,2.6,0,0,1,381.215,336.1Z" transform="translate(-375 -330.8)" fill="#353240"/>
        </g>
        <g id="Group_218477" data-name="Group 218477" transform="translate(34.567 9.979)">
          <path id="Path_95208" data-name="Path 95208" d="M375.244,326.822a2.754,2.754,0,0,1-2.376-1.371,2.69,2.69,0,0,1,1.005-3.656l3.108-1.828a2.681,2.681,0,1,1,2.651,4.662l-3.108,1.828A2.1,2.1,0,0,1,375.244,326.822Z" transform="translate(-372.518 -319.618)" fill="#353240"/>
        </g>
        <g id="Group_218478" data-name="Group 218478" transform="translate(28.443 2.576)">
          <path id="Path_95209" data-name="Path 95209" d="M368.544,320a2.579,2.579,0,0,1-1.371-.366,2.69,2.69,0,0,1-1.005-3.656L368,312.873a2.681,2.681,0,1,1,4.661,2.651l-1.828,3.108A2.513,2.513,0,0,1,368.544,320Z" transform="translate(-365.818 -311.518)" fill="#353240"/>
        </g>
        <g id="Group_218479" data-name="Group 218479" transform="translate(20.2)">
          <path id="Path_95210" data-name="Path 95210" d="M359.451,317.566a2.653,2.653,0,0,1-2.651-2.651v-3.565a2.651,2.651,0,0,1,5.3,0v3.565A2.6,2.6,0,0,1,359.451,317.566Z" transform="translate(-356.8 -308.7)" fill="#353240"/>
        </g>
        <g id="Group_218480" data-name="Group 218480" transform="translate(9.979 2.576)">
          <path id="Path_95211" data-name="Path 95211" d="M350.172,320a2.754,2.754,0,0,1-2.376-1.371l-1.828-3.108a2.681,2.681,0,0,1,4.662-2.651l1.828,3.108a2.69,2.69,0,0,1-1.005,3.656A2.1,2.1,0,0,1,350.172,320Z" transform="translate(-345.618 -311.518)" fill="#353240"/>
        </g>
        <g id="Group_218481" data-name="Group 218481" transform="translate(2.667 9.979)">
          <path id="Path_95212" data-name="Path 95212" d="M343.451,326.822a2.58,2.58,0,0,1-1.371-.366l-3.108-1.828a2.681,2.681,0,1,1,2.651-4.662l3.108,1.828a2.69,2.69,0,0,1,1.005,3.656A2.513,2.513,0,0,1,343.451,326.822Z" transform="translate(-337.618 -319.618)" fill="#353240"/>
        </g>
        <g id="Group_218482" data-name="Group 218482" transform="translate(0 20.2)">
          <path id="Path_95213" data-name="Path 95213" d="M340.915,336.1h-3.565a2.651,2.651,0,1,1,0-5.3h3.565a2.653,2.653,0,0,1,2.651,2.651A2.543,2.543,0,0,1,340.915,336.1Z" transform="translate(-334.7 -330.8)" fill="#353240"/>
        </g>
        <g id="Group_218483" data-name="Group 218483" transform="translate(2.667 28.351)">
          <path id="Path_95214" data-name="Path 95214" d="M340.344,346.922a2.755,2.755,0,0,1-2.376-1.371,2.69,2.69,0,0,1,1.005-3.656l3.108-1.828a2.681,2.681,0,0,1,2.651,4.662l-3.108,1.828A2.1,2.1,0,0,1,340.344,346.922Z" transform="translate(-337.618 -339.718)" fill="#353240"/>
        </g>
        <g id="Group_218484" data-name="Group 218484" transform="translate(10.071 34.475)">
          <path id="Path_95215" data-name="Path 95215" d="M348.444,354.9a2.579,2.579,0,0,1-1.371-.366,2.69,2.69,0,0,1-1.005-3.656l1.828-3.108a2.681,2.681,0,0,1,4.662,2.651l-1.828,3.108A2.513,2.513,0,0,1,348.444,354.9Z" transform="translate(-345.718 -346.418)" fill="#353240"/>
        </g>
        <g id="Group_218485" data-name="Group 218485" transform="translate(20.2 36.835)">
          <path id="Path_95216" data-name="Path 95216" d="M359.451,357.866a2.653,2.653,0,0,1-2.651-2.651v-3.565a2.651,2.651,0,1,1,5.3,0v3.565A2.6,2.6,0,0,1,359.451,357.866Z" transform="translate(-356.8 -349)" fill="#353240"/>
        </g>
        <g id="Group_218486" data-name="Group 218486" transform="translate(28.443 34.475)">
          <path id="Path_95217" data-name="Path 95217" d="M370.372,354.9A2.754,2.754,0,0,1,368,353.531l-1.828-3.108a2.681,2.681,0,1,1,4.661-2.651l1.828,3.108a2.69,2.69,0,0,1-1.005,3.656A2.1,2.1,0,0,1,370.372,354.9Z" transform="translate(-365.818 -346.418)" fill="#353240"/>
        </g>
        <g id="Group_218487" data-name="Group 218487" transform="translate(34.475 28.351)">
          <path id="Path_95218" data-name="Path 95218" d="M378.251,346.922a2.579,2.579,0,0,1-1.371-.366l-3.108-1.828a2.681,2.681,0,0,1,2.651-4.662l3.108,1.828a2.69,2.69,0,0,1,1.005,3.656A2.335,2.335,0,0,1,378.251,346.922Z" transform="translate(-372.418 -339.718)" fill="#353240"/>
        </g>
      </g>
    </g>
  </g>
</svg>
