<svg width="41" height="40" viewBox="0 0 41 40" fill="none" xmlns="http://www.w3.org/2000/svg">
<path d="M40.0128 6.11104C40.0128 7.4351 39.9941 8.75916 40.0206 10.0832C40.0346 10.8169 39.7511 11.3683 39.1016 11.655C38.4318 11.9509 37.8242 11.6877 37.3258 11.211C36.67 10.5832 36.0188 9.94614 35.4035 9.27788C35.0344 8.87755 34.7851 8.8978 34.3941 9.27321C32.8987 10.7125 31.5482 12.303 29.95 13.6364C27.414 15.7518 23.758 15.6225 21.3685 13.3279C20.0195 12.0335 18.7219 10.6876 17.3979 9.36823C16.1751 8.15165 15.6049 8.14542 14.4024 9.34019C11.1421 12.5771 7.888 15.8187 4.62614 19.051C3.59337 20.0744 2.58086 20.3081 1.53251 19.8018C-0.129575 18.9965 -0.517447 17.093 0.753652 15.705C1.71632 14.652 2.75532 13.6691 3.7694 12.6628C6.38636 10.0676 8.93012 7.39148 11.6499 4.90848C14.2824 2.50492 17.9384 2.72767 20.4946 5.22937C21.7938 6.50047 23.0773 7.78403 24.3656 9.06603C25.5619 10.2577 26.079 10.2655 27.2754 9.07849C28.4359 7.92578 29.5746 6.75126 30.7491 5.61413C31.1416 5.23404 31.1463 4.97858 30.7413 4.61096C30.0886 4.01747 29.478 3.3788 28.8565 2.75104C28.3409 2.23232 28.0885 1.62481 28.4078 0.91449C28.7054 0.254017 29.2459 -0.00612177 29.978 0.0001091C32.5747 0.0219172 35.1699 -0.00144862 37.7666 0.0125708C39.2371 0.0203594 40.0051 0.814796 40.0144 2.29307C40.0191 3.56573 40.0128 4.83838 40.0128 6.11104Z" fill="#008DD1"/>
<path d="M40.0139 31.7587C40.0092 34.0018 38.4733 35.9427 36.2473 36.5191C35.0494 36.8291 35.0494 36.829 35.0323 38.0145C35.0151 39.2778 34.4746 39.9336 33.4216 39.9741C32.3047 40.0161 31.6769 39.3993 31.5663 38.1453C31.4495 36.829 31.448 36.8322 30.1255 36.558C28.7266 36.2667 27.6705 35.4723 26.9119 34.2869C26.3932 33.4753 26.5645 32.4067 27.2499 31.9035C27.9649 31.377 29.1005 31.497 29.6893 32.2603C30.2407 32.9753 30.9246 33.2307 31.7829 33.2136C32.8203 33.1933 33.8593 33.2151 34.8983 33.1996C35.6943 33.1887 36.227 32.7696 36.4623 32.0266C36.6944 31.2945 36.2738 30.6309 35.47 30.4782C33.7892 30.1573 32.0991 29.8847 30.4168 29.5685C28.4462 29.1993 27.2079 27.9641 26.7514 26.0777C26.2499 24.0028 26.9275 22.2395 28.6238 20.9092C29.2687 20.4029 30.0164 20.082 30.8264 19.987C31.4043 19.92 31.5663 19.6381 31.5554 19.1147C31.5461 18.7284 31.5601 18.3311 31.6427 17.9557C31.8327 17.0928 32.596 16.5849 33.5042 16.6644C34.3547 16.7392 34.9622 17.3794 35.026 18.2564C35.0619 18.7455 34.8672 19.2969 35.1351 19.7097C35.4388 20.1755 36.051 19.9076 36.5152 20.0306C37.8549 20.3858 38.9359 21.0867 39.6805 22.2597C40.2787 23.2006 40.0793 24.1492 39.1883 24.7832C38.5184 25.2599 37.495 25.0963 36.9093 24.3128C36.3828 23.6087 35.7348 23.3704 34.8921 23.4015C33.7768 23.4436 32.6568 23.3719 31.5461 23.4467C30.3311 23.5277 29.7158 24.6913 30.3358 25.6072C30.5928 25.9858 30.9697 26.1088 31.3934 26.1789C32.9527 26.4422 34.5167 26.6899 36.0682 26.9921C38.5558 27.4796 40.0201 29.271 40.0139 31.7587Z" fill="#005D89"/>
<path d="M15.0922 28.3093C15.0922 31.2938 15.0968 34.2769 15.0906 37.2615C15.0875 38.5357 14.4068 39.5093 13.2899 39.8753C12.254 40.2133 11.2508 39.8597 10.4673 38.8955C10.1386 38.4905 10.014 38.0341 10.014 37.5232C10.0155 31.3733 10.0046 25.2234 10.0202 19.0751C10.0233 17.7059 11.1558 16.6529 12.5359 16.6451C13.9503 16.6373 15.075 17.7028 15.0828 19.1249C15.1015 22.1859 15.089 25.2483 15.089 28.3108C15.089 28.3093 15.0906 28.3093 15.0922 28.3093Z" fill="#005D89"/>
<path d="M18.2761 29.1119C18.2761 26.3625 18.2606 23.6147 18.2839 20.8653C18.2948 19.5677 19.1516 18.5521 20.3588 18.292C21.4741 18.0521 22.6035 18.602 23.144 19.6705C23.4322 20.2391 23.468 20.8638 23.4665 21.49C23.4649 25.8204 23.4665 30.1509 23.4649 34.4813C23.4649 35.3116 23.4696 36.1403 23.4618 36.9706C23.4571 37.5189 23.3979 38.061 23.1409 38.5563C22.5941 39.6109 21.5068 40.1452 20.3495 39.938C19.2855 39.748 18.3914 38.7557 18.2995 37.589C18.245 36.8927 18.273 36.1902 18.2715 35.4892C18.2684 33.3629 18.2699 31.2366 18.2699 29.1103C18.273 29.1119 18.2746 29.1119 18.2761 29.1119Z" fill="#005D89"/>
<path d="M6.82604 31.6503C6.82604 33.5694 6.85096 35.4886 6.81669 37.4061C6.79644 38.5495 6.20295 39.3922 5.1437 39.8097C4.17324 40.1913 3.25886 39.9919 2.47844 39.2707C1.86003 38.699 1.65752 37.9513 1.65441 37.1584C1.64039 33.3981 1.62481 29.6378 1.66064 25.879C1.67466 24.3415 2.83049 23.2184 4.24334 23.2246C5.67021 23.2309 6.79177 24.354 6.8198 25.8946C6.85407 27.8121 6.82759 29.7312 6.82604 31.6503Z" fill="#005D89"/>
</svg>
