<svg xmlns="http://www.w3.org/2000/svg" width="570" height="358" viewBox="0 0 570 358">
  <g id="Blockchain_development_Section_1" transform="translate(-199.5 -906)">
    <g id="Group_317389" data-name="Group 317389" transform="translate(160.484 879.077)">
      <path id="Path_146886" data-name="Path 146886" d="M57.577,363.051a182.912,182.912,0,0,0,22.606,20.578c2.362,1.822,13.364,0,16.178,0H568.21c3.992,0,11.5,1.378,15.2-.234,7.8-3.395,4.242-18.965,3.532-26.067-1.1-11.008-3.68-22.016-9.571-31.509-16.089-25.921-44.226-35.177-66.379-54.363-21.645-18.746-36.649-43.789-54.436-66.227a321.962,321.962,0,0,0-46.823-47.851c-10.972-9.092-22.844-17.6-36.495-21.69-11.943-3.575-24.694-3.578-37.08-2.159a168.5,168.5,0,0,0-97.3,46.048c-29.611,28.715-54.192,71.324-93.265,88.118-21.4,9.2-45.544,10.433-66.993,19.515s-41,31.064-34.977,53.565C45.909,349.325,51.564,356.555,57.577,363.051Z" fill="#e3efff"/>
      <path id="Path_146887" data-name="Path 146887" d="M568.694,292.969c4.14.694,8.573.674,12.323-1.215,1.877-.945,3.649-2.566,3.829-4.66a6.817,6.817,0,0,0-.477-2.77c-2.585-7.514-9.031-12.966-15.459-17.638-4.8-3.488-10.026-6.867-15.933-7.423-12.46-1.173-16.087,8.666-9.678,17.639A39.789,39.789,0,0,0,568.694,292.969Z" fill="#e3efff"/>
      <g id="Group_317358" data-name="Group 317358">
        <path id="Path_146888" data-name="Path 146888" d="M218.493,227.389c-36.8-9.346-47.142-28.784-47.142-28.784h-51.7s-10.344,19.438-47.142,28.784c0,0-24.39,96.974,69.61,155.617h6.76C242.883,324.363,218.493,227.389,218.493,227.389Z" fill="#60a6df"/>
        <path id="Path_146889" data-name="Path 146889" d="M206.908,237.454c-30.958-7.863-39.66-24.216-39.66-24.216H123.757s-8.7,16.353-39.66,24.216c0,0-20.519,81.583,58.562,130.919h5.687C227.428,319.037,206.908,237.454,206.908,237.454Z" fill="#4e95cf"/>
        <path id="Path_146890" data-name="Path 146890" d="M201.942,241.769c-28.454-7.227-36.453-22.258-36.453-22.258H125.516s-8,15.031-36.453,22.258c0,0-18.859,74.985,53.826,120.331h5.228C220.8,316.754,201.942,241.769,201.942,241.769Z" fill="#bed1f9"/>
        <circle id="Ellipse_5119" data-name="Ellipse 5119" cx="48.941" cy="48.941" r="48.941" transform="translate(86.736 320.097) rotate(-76.888)" fill="#60a6df"/>
        <circle id="Ellipse_5120" data-name="Ellipse 5120" cx="41.224" cy="41.224" r="41.224" transform="translate(99.55 247.656) rotate(-7.018)" fill="#dde8fa"/>
        <path id="Path_146891" data-name="Path 146891" d="M125.484,286.185l17.745,10.931L165.8,258.329l4.055,2.731-23.434,47.68-25.273-13.891Z" fill="#4e95cf"/>
      </g>
      <g id="Group_317361" data-name="Group 317361" transform="translate(-19 13)">
        <path id="Path_146898" data-name="Path 146898" d="M598.408,336.25c0-.62-.041-1.229-.092-1.835l5.877-2.833-2.451-7.542-6.428,1.164a21.42,21.42,0,0,0-2.151-2.966l3.092-5.751-6.416-4.662-4.5,4.7a21.3,21.3,0,0,0-3.505-1.119l-.878-6.466h-7.931l-.877,6.466a21.243,21.243,0,0,0-3.505,1.119l-4.5-4.7-6.417,4.662,3.093,5.751a21.562,21.562,0,0,0-2.152,2.966l-6.428-1.164-2.451,7.542,5.878,2.833c-.052.606-.093,1.215-.093,1.835s.041,1.229.093,1.835l-5.878,2.833,2.451,7.543,6.428-1.165a21.573,21.573,0,0,0,2.152,2.967l-3.093,5.75,6.417,4.662,4.5-4.7a21.336,21.336,0,0,0,3.505,1.118l.877,6.467h7.931l.878-6.467a21.4,21.4,0,0,0,3.505-1.118l4.5,4.7,6.416-4.662-3.092-5.75a21.49,21.49,0,0,0,2.151-2.967l6.428,1.165,2.451-7.543-5.877-2.833C598.367,337.479,598.408,336.87,598.408,336.25Zm-21.413,11.967a11.967,11.967,0,1,1,11.966-11.967A11.967,11.967,0,0,1,576.995,348.217Z" fill="#a7d3f6"/>
        <path id="Path_146899" data-name="Path 146899" d="M576.995,353.748a17.5,17.5,0,1,0-17.5-17.5A17.5,17.5,0,0,0,576.995,353.748Zm0-29.464a11.967,11.967,0,1,1-11.967,11.966A11.966,11.966,0,0,1,576.995,324.284Z" fill="#7cb4e2"/>
      </g>
      <g id="Group_317363" data-name="Group 317363" transform="translate(90 15)">
        <rect id="Rectangle_165175" data-name="Rectangle 165175" width="33.358" height="47.105" rx="3.902" transform="translate(377.241 150.676) rotate(-76.191)" fill="#60a6df"/>
        <circle id="Ellipse_5121" data-name="Ellipse 5121" cx="10.482" cy="10.482" r="10.482" transform="translate(393.293 129.719)" fill="#a7d3f6"/>
        <path id="Path_146900" data-name="Path 146900" d="M396.385,143.856l2.24-9.111a1.1,1.1,0,0,1,1.765-.589l8.3,6.789a1.1,1.1,0,0,1-.46,1.927l-10.539,2.322A1.1,1.1,0,0,1,396.385,143.856Z" transform="translate(1.708 -0.106)" fill="#fff"/>
      </g>
      <g id="Group_317364" data-name="Group 317364">
        <path id="Rectangle_165178" data-name="Rectangle 165178" d="M5.822,0h88.49a5.821,5.821,0,0,1,5.821,5.821V102.1a5.822,5.822,0,0,1-5.822,5.822H5.822A5.822,5.822,0,0,1,0,102.1V5.822A5.822,5.822,0,0,1,5.822,0Z" transform="matrix(0.239, -0.971, 0.971, 0.239, 282.633, 241.572)" fill="#60a6df"/>
        <rect id="Rectangle_165179" data-name="Rectangle 165179" width="92.727" height="99.935" rx="4.674" transform="translate(287.392 238.929) rotate(-76.191)" fill="#3a91d8"/>
        <path id="Path_146901" data-name="Path 146901" d="M378.325,259.271l-83.888-20.619A4.674,4.674,0,0,1,291.014,233l18.971-77.182a4.674,4.674,0,0,1,5.654-3.423l83.888,20.619a4.674,4.674,0,0,1,3.423,5.654l-18.971,77.182A4.673,4.673,0,0,1,378.325,259.271Z" fill="#e3edf7"/>
        <path id="Path_146902" data-name="Path 146902" d="M391.454,188.729a11.483,11.483,0,1,1-11.483-11.483A11.483,11.483,0,0,1,391.454,188.729Z" fill="#60a6df"/>
        <path id="Path_146903" data-name="Path 146903" d="M332.992,188.077c-9.516-3.683-36.33,20.308-36.33,20.308h0L290.9,231.84a4.507,4.507,0,0,0,3.3,5.454l60.353,14.834,9.514-5.047-15.915-24.036S340.43,190.955,332.992,188.077Z" fill="#60a6df"/>
        <path id="Path_146904" data-name="Path 146904" d="M369.061,208.731c-8.495.415-41.342,25.17-49.585,36.076L378.848,259.4a4.136,4.136,0,0,0,5-3.029l7.011-28.525C386.005,221.2,375.753,208.4,369.061,208.731Z" fill="#60a6df"/>
        <path id="Path_146905" data-name="Path 146905" d="M305.462,241.362s30.521-28.444,39.342-30.516,22.362,45.682,22.362,45.682Z" fill="#a7d3f6"/>
        <path id="Path_146906" data-name="Path 146906" d="M317.005,208.725c-1.833-1.337-12.618,5.935-23.453,13.95L291.014,233a4.674,4.674,0,0,0,3.424,5.654l29.94,7.359h0S320.87,211.546,317.005,208.725Z" fill="#a7d3f6"/>
        <path id="Path_146907" data-name="Path 146907" d="M379.288,231.886c-4.717-.454-33.271,19.444-33.271,19.444h0l32.308,7.941a4.673,4.673,0,0,0,5.654-3.423l3.446-14.019C385,236.724,382.6,232.205,379.288,231.886Z" fill="#a7d3f6"/>
      </g>
      <g id="Group_317365" data-name="Group 317365">
        <circle id="Ellipse_5122" data-name="Ellipse 5122" cx="59.295" cy="59.295" r="59.295" transform="translate(190.007 132.181)" fill="#a7d3f6"/>
        <path id="Path_146908" data-name="Path 146908" d="M307.827,200.989l-46.3-9.842,45.9-11.444c-.365-1.81-.818-3.587-1.344-5.333l-45.887,11.441,36.189-30.366q-1.675-2.186-3.542-4.207L256.658,181.6l19.2-43.133q-2.449-1.231-5.025-2.234l-18.785,42.193V132.251c-.912-.042-1.828-.07-2.75-.07s-1.838.028-2.75.07v47.2l-20.7-42.443q-2.535,1.094-4.945,2.406l20.7,42.447-37.218-29.077q-1.794,2.081-3.4,4.326L238.224,186.2l-46.266-9.834q-.694,2.642-1.141,5.379l46.264,9.834-45.94,11.454c.358,1.811.8,3.59,1.321,5.338l45.949-11.457-36.3,30.458q1.668,2.191,3.528,4.219l36.3-30.464-19.288,43.322q2.448,1.233,5.021,2.242l18.873-42.39v46.4c.912.042,1.828.07,2.75.07s1.838-.028,2.75-.07V203.27L272.845,245.9q2.532-1.1,4.94-2.414l-20.791-42.629,37.337,29.171q1.789-2.086,3.381-4.337L260.38,196.526l46.327,9.847C307.164,204.61,307.533,202.812,307.827,200.989Z" fill="#60a6df"/>
        <circle id="Ellipse_5123" data-name="Ellipse 5123" cx="49.886" cy="49.886" r="49.886" transform="translate(199.416 141.59)" fill="#4e95cf"/>
        <circle id="Ellipse_5124" data-name="Ellipse 5124" cx="46.744" cy="46.744" r="46.744" transform="translate(188.524 165.475) rotate(-21.839)" fill="#a7d3f6"/>
      </g>
      <path id="Path_146909" data-name="Path 146909" d="M427.266,362.191l-1.913,14.585-7.731-.558,1.2-14.5Z" fill="#e38f6f"/>
      <path id="Path_146910" data-name="Path 146910" d="M436.7,178.291a10.326,10.326,0,0,1,4.376-15.115,5.532,5.532,0,0,1,4.043-.414c1.182.418,2.08,1.4,3.217,1.928,1.885.873,4.242.417,6,1.527a6.251,6.251,0,0,1,2.4,4.037,28.51,28.51,0,0,0,1.1,4.684,13.337,13.337,0,0,0,4.028,4.82,10.555,10.555,0,0,1,2.048,2.029,4.923,4.923,0,0,1,.438,4.646,14.752,14.752,0,0,0-.573,8.656c1.04,5.372,3.117,10.479,5.181,15.545a17.043,17.043,0,0,1,.984,4.63,3.016,3.016,0,0,1-.592,2.606c-.642.591-1.666.586-2.328,1.154-.832.713-.771,1.983-1.012,3.051a4.823,4.823,0,0,1-7.684,2.73c-1.692-1.329-2.293-3.579-2.88-5.649a157.75,157.75,0,0,0-5.63-15.593c-1.62-4.041-2.417-8.443-3.622-12.626a30.018,30.018,0,0,0-2.91-7.5C441.877,181.139,439.333,178.862,436.7,178.291Z" fill="#141414"/>
      <path id="Path_146911" data-name="Path 146911" d="M502.55,299.548l14.681.08-.03,7.751-14.552-.2Z" fill="#e38f6f"/>
      <path id="Path_146912" data-name="Path 146912" d="M525.87,327.876l-2.1-30.691a8.5,8.5,0,0,0-5.486.374c-2.792,1.229-4.165,1-3.728,2.731s2.294,2,1.6,3.565-1.326,2.807-.683,4.041,3.314,2.6,4.825,7.819c1.7,5.875,2.357,8.517,2.588,9.489C523.564,328.034,525.87,327.876,525.87,327.876Z" fill="#58b9d6"/>
      <path id="Path_146913" data-name="Path 146913" d="M523.372,326.385a2.9,2.9,0,0,0,2.5,1.491l-2.1-30.691a8.322,8.322,0,0,0-2.415-.283Z" fill="#b7e6f1"/>
      <path id="Path_146914" data-name="Path 146914" d="M457.072,240.015s3.233,7.659,0,27.257c-2.55,15.461,0,32.516,0,32.516s38.414-2.71,50.847-.8v9.763s-31.719,1.714-42.08,2.192-17.215.159-19.287-4.463-4.463-26.779-4.463-26.779-4.144,12.114-5.579,15.781-1.434,3.347-1.593,4.463a197.485,197.485,0,0,1-3.188,41.283c-4.3,23.271-3.985,26.3-3.985,26.3s-7.173,1.594-10.839-1.594c0,0,3.029-45.428,4.463-56.9s3.507-30.922,5.26-39.37,3.958-28.691,3.892-30.6S457.072,240.015,457.072,240.015Z" fill="#222"/>
      <path id="Path_146915" data-name="Path 146915" d="M446.744,188.953s9.85,6.83,12.241,10.536,1.674,8.189.3,13.449-1.733,18.829-1.494,23.371l.239,4.543s.167.478-5.535,1.315-10.126-1.554-13.353-1.315-10.162-.239-10.162-.239.717-10.879,0-11.357-14.345,1.076-25.941-1.554l.956-5.977s10.64.837,14.346.239,11.117-1.2,11.117-1.2-.358-3.826-.6-6.695a77.728,77.728,0,0,1,.119-8.368s-9.205,8.248-11.476,9.085-17.014-.668-17.014-.668l1.467-5.967s8.733-.418,12.439-.777c0,0,11.117-11.524,14.225-13.2s11.477-5.228,11.477-5.228Z" fill="#fec35b"/>
      <path id="Path_146916" data-name="Path 146916" d="M447.051,182.766s-.5,5.546-.439,5.964,1.435,1.016,1.375,1.973-3.168,8.727-6.4,7.83-3.945-7.83-3.168-8.727,1.614-1.554,1.435-5.08S447.051,182.766,447.051,182.766Z" fill="#c8776f"/>
      <path id="Path_146917" data-name="Path 146917" d="M436.63,176.7s-.12,8.169,4.583,9.564,7.651-7.173,7.85-7.771.518.319,1.394-1.076.6-3.865-.239-3.945-1.514-.119-1.833,1.076-.358,3.547-1.155,3.188-.478-3.945-.757-4.1c-.817-.467-1.931-.005-2.8-.353-.506-.2-.88-.686-1.412-.8-.644-.143-1.255.29-1.874.52a3.208,3.208,0,0,1-2.942-.394,2.224,2.224,0,0,0-.56,1.322C436.717,174.852,436.721,175.753,436.63,176.7Z" fill="#e38f6f"/>
      <path id="Path_146918" data-name="Path 146918" d="M447.989,226.746c-5.019,1.793-20.087,2.412-20.087,2.412v0a3.29,3.29,0,0,1,1.078.1c.355.237.358,3.022.271,5.775,5.469-1.593,14.227-3.88,18.739-5.873,6.537-2.887,11.116-18.79,11.116-18.79S453.008,224.953,447.989,226.746Z" fill="#d5921c"/>
      <path id="Path_146919" data-name="Path 146919" d="M439.22,217.541c-1.472.508-6.529.562-10.01.535.138,1.526.247,2.693.247,2.693s7.89-1.055,11.118-1.006a46.64,46.64,0,0,0,9.8-14.535S441.531,216.744,439.22,217.541Z" fill="#d5921c"/>
      <path id="Path_146920" data-name="Path 146920" d="M438.583,257.07s2.231,23.909-2.073,38.415c1.435-3.667,5.579-15.781,5.579-15.781S442.249,266.794,438.583,257.07Z" fill="#383752"/>
      <path id="Path_146921" data-name="Path 146921" d="M403.994,221.725s-2.909-.956-3.267-1.554-1.133-2.4-1.133-2.4l-.533,2.168a41.981,41.981,0,0,1-5.667-1.636c-3.188-1.156-5.3-2.627-5.937-2.648a.966.966,0,0,0-.956,1.094l.119.438s-2.438-1.362-3.012-1.039-.813.8-.455,1.278,6.894,3.666,7.293,3.826-6.575-2.431-7.173-2.272-1.016,1.036-.289,1.395,7.008,2.391,7.008,2.391a15.254,15.254,0,0,0-3.212-.478c-.479.159-.678.6-.279,1.155s4.3,2.272,5.857,2.471,5.579-.12,6.177,0,4.619,1.069,4.619,1.069Z" fill="#e38f6f"/>
      <path id="Path_146922" data-name="Path 146922" d="M396.582,383.47h30.763a8.5,8.5,0,0,0,0-5.5c-1.036-2.869-.717-4.224-2.47-3.9s-2.152,2.152-3.666,1.355-2.71-1.515-3.985-.957-2.823,3.129-8.129,4.281c-5.978,1.3-8.659,1.771-9.644,1.936C396.582,381.159,396.582,383.47,396.582,383.47Z" fill="#58b9d6"/>
      <path id="Path_146923" data-name="Path 146923" d="M398.24,381.079a2.9,2.9,0,0,0-1.658,2.391h30.763a8.361,8.361,0,0,0,.447-2.391Z" fill="#b7e6f1"/>
      <g id="Group_317366" data-name="Group 317366" transform="translate(77 -19)">
        <rect id="Rectangle_165180" data-name="Rectangle 165180" width="32.881" height="42.609" rx="3.902" transform="matrix(0.239, -0.971, 0.971, 0.239, 342.08, 110.074)" fill="#60a6df"/>
        <path id="Path_146924" data-name="Path 146924" d="M376.977,93.456,363.365,89.9l-1.311-.342-.382,1.465-3.3,12.643a4.751,4.751,0,0,0-2.288-1.334c-2.087-.544-4.1.257-4.5,1.791s.968,3.217,3.054,3.762,4.1-.257,4.5-1.79l3.844-14.73L376.6,94.921l-2.438,9.342a4.747,4.747,0,0,0-2.288-1.333c-2.087-.545-4.1.257-4.5,1.79s.967,3.218,3.054,3.762,4.1-.257,4.5-1.79a2.159,2.159,0,0,0,.052-.429l.053.028L377.9,95.263l.383-1.465Z" transform="translate(2)" fill="#fff"/>
      </g>
      <g id="Group_317391" data-name="Group 317391" transform="translate(44 -64)">
        <path id="Path_146925" data-name="Path 146925" d="M494.3,159.927l-14.213-9.415L494.3,141.1l14.214,9.415Z" fill="#d7eaff"/>
        <path id="Path_146926" data-name="Path 146926" d="M480.084,165.551l14.213,9.415V159.927l-14.213-9.415Z" fill="#cee1f5"/>
        <path id="Path_146927" data-name="Path 146927" d="M508.511,165.551,494.3,174.966V159.927l14.214-9.415Z" fill="#b9d3f0"/>
      </g>
      <g id="Group_317368" data-name="Group 317368" transform="translate(-17 1)">
        <path id="Path_146928" data-name="Path 146928" d="M120.521,161.186,103.25,149.745,120.521,138.3l17.271,11.441Z" fill="#d7eaff"/>
        <path id="Path_146929" data-name="Path 146929" d="M103.25,168.019l17.271,11.441V161.186L103.25,149.745Z" fill="#cee1f5"/>
        <path id="Path_146930" data-name="Path 146930" d="M137.792,168.019,120.521,179.46V161.186l17.271-11.441Z" fill="#b9d3f0"/>
      </g>
      <path id="Path_146931" data-name="Path 146931" d="M275.071,195.807c-.654-4.329-3.175-6.939-7.378-8.008-.481-.122-1.039-.019-1.462-.472a1.592,1.592,0,0,1,.276-.343,8.6,8.6,0,0,0,3.715-7.557,9.732,9.732,0,0,0-7.351-9.84,25.237,25.237,0,0,0-7.205-.883c-.9.008-1.322-.217-1.361-1.23-.092-2.386-.352-4.765-.474-7.151a2.211,2.211,0,0,0-.134-.693l-5.823.426a1.667,1.667,0,0,0,0,.2c.255,2.493.421,4.994.673,7.487.07.7-.108,1.034-.821,1.1-.9.079-1.8.161-2.682.318-.951.169-1.211-.194-1.25-1.121-.1-2.425-.329-4.844-.47-7.267a1.657,1.657,0,0,0-.064-.377l-5.568.407a1.73,1.73,0,0,0-.026.549c.206,2.26.339,4.526.53,6.788.145,1.716.092,1.807-1.561,1.975-.156.016-.314.019-.47.032-2.807.232-5.614.469-8.422.695-.053,0-.1.01-.152.015l.611,6.285c1.027-.112,2.058-.2,3.09-.265a2.793,2.793,0,0,1,3.338,2.663c.2,1.315.25,2.653.37,3.98q.968,10.71,1.933,21.422c.139,1.565-.511,2.33-2.086,2.508-.854.1-1.712.182-2.571.231-.092,1.355-.3,4.382-.517,7.111,3.014-.247,6.046-.287,9.05-.674.862-.111,1.123.184,1.165,1.073.119,2.527.374,5.046.554,7.57l5.957-.335c0-.041,0-.066,0-.109-.245-2.376-.357-4.765-.569-7.145-.079-.883.085-1.415,1.117-1.426a13.656,13.656,0,0,0,2.332-.249c.9-.167,1.257.119,1.3,1.065.124,2.463.352,4.92.508,7.381.005.083.023.143.032.217l6-.338c0-.007,0-.011,0-.018-.217-2.453-.275-4.92-.493-7.373-.1-1.092.28-1.52,1.337-1.677a30.661,30.661,0,0,0,7.238-1.992c3.473-1.441,6.241-3.645,7.384-7.39A16.992,16.992,0,0,0,275.071,195.807Zm-28.857-7.776q-.416-5.084-.9-10.161c-.062-.658.052-.933.832-.986,3.16-.217,6.325-.618,9.431.327,3.907,1.188,5.295,5.634,2.608,8.313a7.834,7.834,0,0,1-3.446,1.968,29.687,29.687,0,0,1-7.717,1.232C246.493,188.761,246.261,188.608,246.214,188.031Zm14.6,16.744a10.379,10.379,0,0,1-2.285,1.031c-3.358,1.166-6.692,1.331-9.995,1.686-.56.06-.781-.2-.829-.722q-.521-5.666-1.057-11.33c-.046-.488-.018-.8.611-.855,3.35-.3,6.692-.751,10.066-.312a10.909,10.909,0,0,1,3.263.912,5.013,5.013,0,0,1,3.117,4.712A5.211,5.211,0,0,1,260.819,204.775Z" fill="#60a6df"/>
      <g id="Group_317369" data-name="Group 317369" transform="translate(30 -56.467)">
        <path id="Path_146932" data-name="Path 146932" d="M334.95,112.87a42.01,42.01,0,1,1-52.635-27.553A42.01,42.01,0,0,1,334.95,112.87Z" transform="translate(0)" fill="#60a6df"/>
        <path id="Path_146933" data-name="Path 146933" d="M325.242,111.73a35.171,35.171,0,1,1-44.067-23.067A35.173,35.173,0,0,1,325.242,111.73Z" transform="translate(3.181 3.181)" fill="#a1baf0"/>
        <circle id="Ellipse_5125" data-name="Ellipse 5125" cx="30.448" cy="30.448" r="30.448" transform="translate(258.913 149.123) rotate(-78.413)" fill="#bed1f9"/>
        <path id="Path_146934" data-name="Path 146934" d="M299.715,126.208a6.926,6.926,0,0,0-3.5-7.463c-.312-.187-.729-.224-.931-.647a1.219,1.219,0,0,1,.267-.2,6.79,6.79,0,0,0,4.243-4.871,7.493,7.493,0,0,0-3.09-8.821,17.668,17.668,0,0,0-4.9-2.121c-.639-.178-.888-.43-.7-1.193.445-1.8.77-3.621,1.194-5.421a1.794,1.794,0,0,0,.052-.544l-4.207-.865a1.219,1.219,0,0,0-.041.15c-.353,1.907-.772,3.8-1.127,5.71-.1.533-.3.748-.815.65-.651-.123-1.3-.245-1.965-.308-.708-.067-.815-.389-.643-1.088.449-1.826.8-3.673,1.222-5.507a1.368,1.368,0,0,0,.036-.293l-4.024-.828a1.412,1.412,0,0,0-.135.4c-.338,1.723-.729,3.439-1.079,5.161-.264,1.308-.321,1.364-1.525,1.153-.114-.019-.226-.049-.34-.071Q274.652,98.6,271.6,98l-.11-.021-.912,4.8c.75.125,1.5.271,2.241.432a2.081,2.081,0,0,1,1.789,2.66c-.14,1.021-.391,2.026-.589,3.039q-1.609,8.173-3.219,16.344a1.543,1.543,0,0,1-2.009,1.443c-.626-.1-1.251-.211-1.867-.351-.355.991-1.151,3.2-1.888,5.191,2.183.428,4.335,1.015,6.542,1.336.634.093.755.366.594,1.035-.458,1.907-.817,3.834-1.228,5.749l4.282.961c.007-.03.017-.049.022-.08.336-1.819.768-3.621,1.127-5.435.133-.673.363-1.037,1.1-.836a9.486,9.486,0,0,0,1.7.288c.675.06.864.344.7,1.058-.439,1.86-.8,3.735-1.221,5.6-.015.064-.015.11-.024.168l4.318.968,0-.013c.372-1.871.858-3.72,1.23-5.591.165-.832.523-1.075,1.3-.978a21.587,21.587,0,0,0,5.544-.013,8.858,8.858,0,0,0,6.8-4A13.846,13.846,0,0,0,299.715,126.208Zm-18.736-11.654c.531-2.579,1.037-5.163,1.538-7.748.1-.5.236-.684.8-.566,2.28.482,4.6.826,6.6,2.161a3.957,3.957,0,0,1,.065,6.72,5.709,5.709,0,0,1-2.858.764,20.8,20.8,0,0,1-5.72-.65C281.02,115.153,280.889,114.993,280.979,114.553Zm6.742,15.435a7.426,7.426,0,0,1-1.836.3,30.5,30.5,0,0,1-7.426-.774c-.409-.069-.51-.308-.432-.707q.844-4.323,1.677-8.65c.071-.374.159-.6.615-.512a32.259,32.259,0,0,1,7.183,1.811,7.726,7.726,0,0,1,2.112,1.342,3.9,3.9,0,0,1,1.194,4.142A4.07,4.07,0,0,1,287.721,129.989Z" transform="translate(10.604 7.96)" fill="#60a6df"/>
      </g>
      <g id="Group_317372" data-name="Group 317372">
        <path id="Path_146935" data-name="Path 146935" d="M182.058,362.31l-1,13.569,7.531.777.4-2.3.954-11.15Z" fill="#e38f6f"/>
        <path id="Path_146936" data-name="Path 146936" d="M230.055,360.6l5.3,13.419,6.5-3.377-4.622-14.266Z" fill="#e38f6f"/>
        <path id="Path_146937" data-name="Path 146937" d="M166.509,168.644a8.648,8.648,0,0,0,.6-6.333c-1.075-3.348-3.825-3.467-5.439-4.3s-6.276-1.614-8.368.418-2.989,3.527-3.826,4-1.554,2.69-.9,4.842,2.391,2.63,2.63,4.363a4.967,4.967,0,0,0,3.108,3.826,4.6,4.6,0,0,0,3.945-.478C158.388,174.684,166.509,168.644,166.509,168.644Z"/>
        <path id="Path_146938" data-name="Path 146938" d="M171.614,232.447s1.119,11.035,5.811,20.36,9.235,22.474,9.474,24.148-1.434,19.605-.6,35.027-3.586,47.46-5.738,51.883c0,0,5.5,3.227,10.759,1.673,0,0,5.021-34.07,7.293-46.264s3.586-45.308,3.586-45.308a75.029,75.029,0,0,1,4.9,11.357c1.554,5.141,6.575,30.245,13.629,49.372s8.009,27.137,8.009,27.137,8.01-1.315,10.879-3.706c0,0-10.321-26.14-18.769-63.757,0,0-4.463-24.228-6.694-29.807s-19.606-43.515-21.04-44.949S171.614,232.447,171.614,232.447Z" fill="#4e4c71"/>
        <path id="Path_146939" data-name="Path 146939" d="M158.866,181.079s-5.858,5.858-7.352,9.8,3.347,11.357,5.021,15.362,4.184,9.922,8.607,9.683c0,0,3.646,9.026,3.347,12.672s-.3,4.483-.3,4.483,14.824-2.451,18.829-5.5a61.372,61.372,0,0,0,8.308-8.309,7,7,0,0,1-2.451-1.913c-.6-1.016-3.167-7.172-3.167-7.172s11.356-3.646,15.122-5.8,4.543-2.57,4.543-2.57l-2.092-4.484s-11.6,4.125-20.084,6.157l-3.586-9.145a49.247,49.247,0,0,0,5.14,2.391,9.173,9.173,0,0,0,1.614.179s-.538-7.173-.179-9.205a64.607,64.607,0,0,1-9.885-5.738c-4.162-3.108-4.341-3.228-5.357-3.407s-9.982.956-9.982.956Z" fill="#4e95cf"/>
        <path id="Path_146940" data-name="Path 146940" d="M166.009,179.04a14.7,14.7,0,0,1-1.375-5.223l-6.586,1.685s1.177,4.083.818,5.577,6.336,1.943,7.441,1.016S166.009,179.04,166.009,179.04Z" fill="#c8776f"/>
        <path id="Path_146941" data-name="Path 146941" d="M166.457,167.73s.916,10.042-3.945,9.8-7.332-6.057-7.332-6.057a1.984,1.984,0,0,1-2.057-.556,4.152,4.152,0,0,1-1.024-1.937c-.12-.43-.183-.967.159-1.254a.841.841,0,0,1,.8-.1,2.506,2.506,0,0,1,.715.443l1.049.831a.606.606,0,0,0,.472.186c.218-.048.306-.306.346-.525a7.688,7.688,0,0,0-.117-3.3c1.868-.048,3.818-.052,5.385-1.07a2.274,2.274,0,0,0,1.747.7,6.752,6.752,0,0,0,1.9-.379,18.062,18.062,0,0,0,.974,2.475C165.7,167.351,166.061,167.827,166.457,167.73Z" fill="#e38f6f"/>
        <path id="Path_146942" data-name="Path 146942" d="M167.45,222.606c7.8-4.4,18.858-9.972,22.517-11.8l-.258-.616s-15.8,5.319-24.567,5.738C165.142,215.927,166.463,219.2,167.45,222.606Z" fill="#3582c1"/>
        <path id="Path_146943" data-name="Path 146943" d="M169.6,205.028a49.015,49.015,0,0,0-7.89-11.795c3.028,4.3,7.175,13.968,7.175,13.968a113.662,113.662,0,0,0,18.308-3.707Z" fill="#3582c1"/>
        <path id="Path_146944" data-name="Path 146944" d="M207.46,197.665a6.213,6.213,0,0,0,2.721-1.882c.717-1.165,1.883-1.7,2.152-1.524s-.06,1.106.209.987,4.811-3.408,5.618-3.677,1.166.09.9.479-4.214,3.048-4.214,3.048,5.111-2.779,5.678-2.929.748.478.748.718-5.858,3.5-5.858,3.5a33.376,33.376,0,0,1,4.274-1.524c.358.09.538.359.239.807s-4.244,2.122-4.244,2.122a8.185,8.185,0,0,1,2.032-.269c.179.149,0,.717-.478.956a7.367,7.367,0,0,1-3.347,1.046,35.278,35.278,0,0,0-5.068,1.056Z" fill="#e38f6f"/>
        <path id="Path_146945" data-name="Path 146945" d="M204.4,278.426c1.123-4.983,2.638-15.024-1.839-20.1-6.1-6.911-11.355-24.052-11.355-24.052,2.271,13.748,10.865,28.779,11.343,30.811s-.345,8.878-.345,8.878S203.222,275.864,204.4,278.426Z" fill="#383752"/>
        <g id="Group_317370" data-name="Group 317370">
          <path id="Path_146946" data-name="Path 146946" d="M180.3,383.47h28.133s.665-1.076-2.084-2.391-7-1.2-14.175-4.3a4.551,4.551,0,0,1-2.152-1.754c-1.036-1.434-2.55-.239-3.028,0a3.46,3.46,0,0,1-3.347-.079c-1.514-.877-2.79-.558-3.347.239a5.069,5.069,0,0,0-.479,3.108A23.855,23.855,0,0,1,180.3,383.47Z" fill="#75add3"/>
          <path id="Path_146947" data-name="Path 146947" d="M180.3,383.47h28.133s.578-.991-1.793-2.231h-26.4A12,12,0,0,1,180.3,383.47Z" fill="#608ead"/>
        </g>
        <g id="Group_317371" data-name="Group 317371">
          <path id="Path_146948" data-name="Path 146948" d="M234.767,379.5l27.3-6.791s.386-1.2-2.6-1.817-7.083.53-14.794-.755a4.543,4.543,0,0,1-2.511-1.182c-1.352-1.142-2.533.383-2.939.731a3.463,3.463,0,0,1-3.268.731c-1.681-.486-2.841.132-3.19,1.04a5.065,5.065,0,0,0,.286,3.131A23.922,23.922,0,0,1,234.767,379.5Z" fill="#75add3"/>
          <path id="Path_146949" data-name="Path 146949" d="M234.767,379.5l27.3-6.791s.323-1.1-2.277-1.733l-25.622,6.373A11.944,11.944,0,0,1,234.767,379.5Z" fill="#608ead"/>
        </g>
      </g>
      <g id="Group_317375" data-name="Group 317375" transform="translate(-30.218 -33.218)">
        <circle id="Ellipse_5126" data-name="Ellipse 5126" cx="44.25" cy="44.25" r="44.25" transform="translate(157.546 83.023)" fill="#60a6df"/>
        <circle id="Ellipse_5127" data-name="Ellipse 5127" cx="37.046" cy="37.046" r="37.046" transform="translate(164.75 90.227)" fill="#bed1f9"/>
        <circle id="Ellipse_5128" data-name="Ellipse 5128" cx="32.808" cy="32.808" r="32.808" transform="translate(168.988 94.464)" fill="#e9f3ff"/>
        <g id="Group_317374" data-name="Group 317374" transform="translate(181.805 96.284)">
          <path id="Path_146950" data-name="Path 146950" d="M187.175,91.909v44.8l19.3-13.278Z" transform="translate(-167.218 -91.909)" fill="#60a6df"/>
          <path id="Path_146951" data-name="Path 146951" d="M187.175,108.036v20.738l19.3-13.278Z" transform="translate(-167.218 -83.97)" fill="#60a6df"/>
          <path id="Path_146952" data-name="Path 146952" d="M193.541,91.909v44.8l-19.3-13.278Z" transform="translate(-173.584 -91.909)" fill="#60a6df"/>
          <path id="Path_146953" data-name="Path 146953" d="M193.541,108.036v20.738l-19.3-13.278Z" transform="translate(-173.584 -83.97)" fill="#60a6df"/>
          <g id="Group_317373" data-name="Group 317373" transform="translate(0 34.549)">
            <path id="Path_146954" data-name="Path 146954" d="M187.175,142.488,207.2,115.061l-20.025,14.231Z" transform="translate(-167.218 -115.061)" fill="#60a6df"/>
            <path id="Path_146955" data-name="Path 146955" d="M193.827,142.488,173.8,115.061l20.025,14.231Z" transform="translate(-173.802 -115.061)" fill="#60a6df"/>
          </g>
        </g>
      </g>
      <g id="Group_317388" data-name="Group 317388">
        <g id="Group_317382" data-name="Group 317382">
          <rect id="Rectangle_165181" data-name="Rectangle 165181" width="67.185" height="67.185" rx="2.901" transform="translate(289.44 280.701)" fill="#4e95cf"/>
          <rect id="Rectangle_165182" data-name="Rectangle 165182" width="54.279" height="54.279" transform="translate(295.893 287.153)" fill="#60a6df"/>
          <rect id="Rectangle_165183" data-name="Rectangle 165183" width="46.981" height="46.981" transform="translate(299.542 290.802)" fill="#a7d3f6"/>
          <g id="Group_317380" data-name="Group 317380">
            <g id="Group_317376" data-name="Group 317376">
              <path id="Path_146956" data-name="Path 146956" d="M300.079,267.67h0a1.873,1.873,0,0,0-1.872,1.873V280.7h3.745V269.543A1.873,1.873,0,0,0,300.079,267.67Z" fill="#7cb4e2"/>
              <path id="Path_146957" data-name="Path 146957" d="M311.556,267.67h0a1.873,1.873,0,0,0-1.873,1.873V280.7h3.746V269.543A1.874,1.874,0,0,0,311.556,267.67Z" fill="#7cb4e2"/>
              <path id="Path_146958" data-name="Path 146958" d="M323.032,267.67h0a1.874,1.874,0,0,0-1.873,1.873V280.7H324.9V269.543A1.873,1.873,0,0,0,323.032,267.67Z" fill="#7cb4e2"/>
              <path id="Path_146959" data-name="Path 146959" d="M334.509,267.67h0a1.873,1.873,0,0,0-1.873,1.873V280.7h3.745V269.543A1.873,1.873,0,0,0,334.509,267.67Z" fill="#7cb4e2"/>
              <path id="Path_146960" data-name="Path 146960" d="M345.985,267.67h0a1.874,1.874,0,0,0-1.873,1.873V280.7h3.746V269.543A1.874,1.874,0,0,0,345.985,267.67Z" fill="#7cb4e2"/>
            </g>
            <g id="Group_317377" data-name="Group 317377">
              <path id="Path_146961" data-name="Path 146961" d="M345.985,360.916h0a1.874,1.874,0,0,0,1.873-1.873V347.885h-3.746v11.158A1.874,1.874,0,0,0,345.985,360.916Z" fill="#7cb4e2"/>
              <path id="Path_146962" data-name="Path 146962" d="M334.509,360.916h0a1.873,1.873,0,0,0,1.872-1.873V347.885h-3.745v11.158A1.873,1.873,0,0,0,334.509,360.916Z" fill="#7cb4e2"/>
              <path id="Path_146963" data-name="Path 146963" d="M323.032,360.916h0a1.873,1.873,0,0,0,1.873-1.873V347.885h-3.746v11.158A1.874,1.874,0,0,0,323.032,360.916Z" fill="#7cb4e2"/>
              <path id="Path_146964" data-name="Path 146964" d="M311.556,360.916h0a1.874,1.874,0,0,0,1.873-1.873V347.885h-3.746v11.158A1.873,1.873,0,0,0,311.556,360.916Z" fill="#7cb4e2"/>
              <path id="Path_146965" data-name="Path 146965" d="M300.079,360.916h0a1.873,1.873,0,0,0,1.873-1.873V347.885h-3.745v11.158A1.873,1.873,0,0,0,300.079,360.916Z" fill="#7cb4e2"/>
            </g>
            <g id="Group_317378" data-name="Group 317378">
              <path id="Path_146966" data-name="Path 146966" d="M369.655,291.34h0a1.874,1.874,0,0,0-1.873-1.873H356.625v3.746h11.157A1.874,1.874,0,0,0,369.655,291.34Z" fill="#7cb4e2"/>
              <path id="Path_146967" data-name="Path 146967" d="M369.655,302.817h0a1.873,1.873,0,0,0-1.873-1.873H356.625v3.745h11.157A1.873,1.873,0,0,0,369.655,302.817Z" fill="#7cb4e2"/>
              <path id="Path_146968" data-name="Path 146968" d="M369.655,314.293h0a1.874,1.874,0,0,0-1.873-1.873H356.625v3.746h11.157A1.874,1.874,0,0,0,369.655,314.293Z" fill="#7cb4e2"/>
              <path id="Path_146969" data-name="Path 146969" d="M369.655,325.769h0a1.873,1.873,0,0,0-1.873-1.872H356.625v3.745h11.157A1.873,1.873,0,0,0,369.655,325.769Z" fill="#7cb4e2"/>
              <path id="Path_146970" data-name="Path 146970" d="M369.655,337.246h0a1.873,1.873,0,0,0-1.873-1.873H356.625v3.746h11.157A1.874,1.874,0,0,0,369.655,337.246Z" fill="#7cb4e2"/>
            </g>
            <g id="Group_317379" data-name="Group 317379">
              <path id="Path_146971" data-name="Path 146971" d="M276.41,337.246h0a1.873,1.873,0,0,0,1.872,1.873H289.44v-3.746H278.282A1.872,1.872,0,0,0,276.41,337.246Z" fill="#7cb4e2"/>
              <path id="Path_146972" data-name="Path 146972" d="M276.41,325.769h0a1.872,1.872,0,0,0,1.872,1.873H289.44V323.9H278.282A1.872,1.872,0,0,0,276.41,325.769Z" fill="#7cb4e2"/>
              <path id="Path_146973" data-name="Path 146973" d="M276.41,314.293h0a1.873,1.873,0,0,0,1.872,1.873H289.44V312.42H278.282A1.873,1.873,0,0,0,276.41,314.293Z" fill="#7cb4e2"/>
              <path id="Path_146974" data-name="Path 146974" d="M276.41,302.817h0a1.872,1.872,0,0,0,1.872,1.872H289.44v-3.745H278.282A1.872,1.872,0,0,0,276.41,302.817Z" fill="#7cb4e2"/>
              <path id="Path_146975" data-name="Path 146975" d="M276.41,291.34h0a1.873,1.873,0,0,0,1.872,1.873H289.44v-3.746H278.282A1.873,1.873,0,0,0,276.41,291.34Z" fill="#7cb4e2"/>
            </g>
          </g>
          <g id="Group_317381" data-name="Group 317381">
            <rect id="Rectangle_165184" data-name="Rectangle 165184" width="3.746" height="2.699" transform="translate(332.636 278.001)" fill="#176a92"/>
            <rect id="Rectangle_165185" data-name="Rectangle 165185" width="3.746" height="2.699" transform="translate(321.159 278.001)" fill="#176a92"/>
            <rect id="Rectangle_165186" data-name="Rectangle 165186" width="3.746" height="2.699" transform="translate(298.207 278.001)" fill="#176a92"/>
            <rect id="Rectangle_165187" data-name="Rectangle 165187" width="3.746" height="2.699" transform="translate(309.683 278.001)" fill="#176a92"/>
            <rect id="Rectangle_165188" data-name="Rectangle 165188" width="2.699" height="3.746" transform="translate(356.625 289.467)" fill="#176a92"/>
            <rect id="Rectangle_165189" data-name="Rectangle 165189" width="2.699" height="3.746" transform="translate(356.625 335.373)" fill="#176a92"/>
            <rect id="Rectangle_165190" data-name="Rectangle 165190" width="2.699" height="3.746" transform="translate(356.625 300.944)" fill="#176a92"/>
            <rect id="Rectangle_165191" data-name="Rectangle 165191" width="2.699" height="3.746" transform="translate(356.625 312.42)" fill="#176a92"/>
            <rect id="Rectangle_165192" data-name="Rectangle 165192" width="2.699" height="3.746" transform="translate(356.625 323.897)" fill="#176a92"/>
            <rect id="Rectangle_165193" data-name="Rectangle 165193" width="3.746" height="2.699" transform="translate(298.207 347.885)" fill="#176a92"/>
            <rect id="Rectangle_165194" data-name="Rectangle 165194" width="2.699" height="3.746" transform="translate(286.741 312.42)" fill="#176a92"/>
            <rect id="Rectangle_165195" data-name="Rectangle 165195" width="2.699" height="3.746" transform="translate(286.741 300.944)" fill="#176a92"/>
            <rect id="Rectangle_165196" data-name="Rectangle 165196" width="2.699" height="3.746" transform="translate(286.741 289.467)" fill="#176a92"/>
            <rect id="Rectangle_165197" data-name="Rectangle 165197" width="2.699" height="3.746" transform="translate(286.741 323.897)" fill="#176a92"/>
            <rect id="Rectangle_165198" data-name="Rectangle 165198" width="2.699" height="3.746" transform="translate(286.741 335.373)" fill="#176a92"/>
            <rect id="Rectangle_165199" data-name="Rectangle 165199" width="3.746" height="2.699" transform="translate(344.112 278.001)" fill="#176a92"/>
            <rect id="Rectangle_165200" data-name="Rectangle 165200" width="3.746" height="2.699" transform="translate(321.159 347.885)" fill="#176a92"/>
            <rect id="Rectangle_165201" data-name="Rectangle 165201" width="3.746" height="2.699" transform="translate(332.636 347.885)" fill="#176a92"/>
            <rect id="Rectangle_165202" data-name="Rectangle 165202" width="3.746" height="2.699" transform="translate(309.683 347.885)" fill="#176a92"/>
            <rect id="Rectangle_165203" data-name="Rectangle 165203" width="3.746" height="2.699" transform="translate(344.112 347.885)" fill="#176a92"/>
          </g>
        </g>
        <g id="Group_317387" data-name="Group 317387">
          <g id="Group_317383" data-name="Group 317383">
            <path id="Path_146976" data-name="Path 146976" d="M406.874,283.351H391.253a.381.381,0,0,0-.3.154l-8.334,11.321H371.807a.379.379,0,1,0,0,.757h22.714a.379.379,0,0,0,0-.757H383.553l7.89-10.718h15.431a.378.378,0,1,0,0-.757Z" fill="#6d89c9"/>
            <path id="Path_146977" data-name="Path 146977" d="M400.578,307.539a.378.378,0,0,0,0-.757H371.807a.378.378,0,1,0,0,.757Z" fill="#6d89c9"/>
            <path id="Path_146978" data-name="Path 146978" d="M403.287,326.228H389.4l-4.352-7.385a.38.38,0,0,0-.327-.187H370.373a.379.379,0,0,0,0,.758H384.5l4.352,7.385a.379.379,0,0,0,.327.186h14.106a.378.378,0,0,0,0-.757Z" fill="#6d89c9"/>
            <path id="Path_146979" data-name="Path 146979" d="M396.2,335.951h-21.2a.379.379,0,0,0,0,.757h21.2a.379.379,0,0,0,0-.757Z" fill="#6d89c9"/>
          </g>
          <g id="Group_317384" data-name="Group 317384">
            <path id="Path_146980" data-name="Path 146980" d="M273.061,296.431a.189.189,0,1,0,0-.379H258.348l-3.771-6.678a.188.188,0,0,0-.164-.1h-6.695a.189.189,0,0,0,0,.379H254.3l3.613,6.395H241.088l-3.894-2.993a.189.189,0,0,0-.231.3l3.946,3.033a.19.19,0,0,0,.115.039Z" fill="#6d89c9"/>
            <path id="Path_146981" data-name="Path 146981" d="M273.061,309.561H249.313a.189.189,0,1,0,0,.378h23.748a.189.189,0,1,0,0-.378Z" fill="#6d89c9"/>
            <path id="Path_146982" data-name="Path 146982" d="M273.061,324.066h-17.79a.189.189,0,0,0-.19.189v7.1H244.829a.189.189,0,1,0,0,.378h10.442a.189.189,0,0,0,.189-.189v-7.1h17.6a.189.189,0,1,0,0-.378Z" fill="#6d89c9"/>
            <path id="Path_146983" data-name="Path 146983" d="M271.389,341.243H253.477a.189.189,0,1,0,0,.379h17.912a.189.189,0,0,0,0-.379Z" fill="#6d89c9"/>
          </g>
          <g id="Group_317385" data-name="Group 317385">
            <path id="Path_146984" data-name="Path 146984" d="M410.619,283.729a1.833,1.833,0,1,1-1.833-1.833A1.832,1.832,0,0,1,410.619,283.729Z" fill="#0271a6"/>
            <path id="Path_146985" data-name="Path 146985" d="M398.187,295.2a1.833,1.833,0,1,1-1.833-1.833A1.834,1.834,0,0,1,398.187,295.2Z" fill="#0271a6"/>
            <path id="Path_146986" data-name="Path 146986" d="M404.244,307.12a1.833,1.833,0,1,1-1.833-1.833A1.833,1.833,0,0,1,404.244,307.12Z" fill="#0271a6"/>
            <circle id="Ellipse_5129" data-name="Ellipse 5129" cx="1.833" cy="1.833" r="1.833" transform="translate(396.194 334.496)" fill="#0271a6"/>
            <path id="Path_146987" data-name="Path 146987" d="M406.953,326.606a1.833,1.833,0,1,1-1.833-1.833A1.832,1.832,0,0,1,406.953,326.606Z" fill="#0271a6"/>
          </g>
          <g id="Group_317386" data-name="Group 317386">
            <path id="Path_146988" data-name="Path 146988" d="M237.576,291.952a1.833,1.833,0,1,1-1.833-1.833A1.833,1.833,0,0,1,237.576,291.952Z" fill="#0271a6"/>
            <path id="Path_146989" data-name="Path 146989" d="M247.718,289.467a1.833,1.833,0,1,1-1.833-1.833A1.832,1.832,0,0,1,247.718,289.467Z" fill="#0271a6"/>
            <path id="Path_146990" data-name="Path 146990" d="M244.829,331.547A1.833,1.833,0,1,1,243,329.714,1.833,1.833,0,0,1,244.829,331.547Z" fill="#0271a6"/>
            <path id="Path_146991" data-name="Path 146991" d="M253.477,341.433a1.833,1.833,0,1,1-1.833-1.833A1.833,1.833,0,0,1,253.477,341.433Z" fill="#0271a6"/>
            <circle id="Ellipse_5130" data-name="Ellipse 5130" cx="1.833" cy="1.833" r="1.833" transform="translate(245.846 307.917)" fill="#0271a6"/>
          </g>
        </g>
      </g>
      <text id="NFT" transform="translate(304.73 321.068)" fill="#fff" font-size="18.171" font-family="Poppins-Bold, Poppins" font-weight="700" letter-spacing="0.05em"><tspan x="0" y="0">NFT</tspan></text>
      <g id="Group_317466" data-name="Group 317466" transform="translate(-65 -57.984)">
        <path id="Path_146898-2" data-name="Path 146898" d="M576.143,323.742c0-.336-.022-.666-.05-.995l3.185-1.535-1.328-4.088-3.484.631a11.606,11.606,0,0,0-1.166-1.608l1.676-3.117L571.5,310.5l-2.437,2.548a11.545,11.545,0,0,0-1.9-.606l-.476-3.5h-4.3l-.475,3.5a11.513,11.513,0,0,0-1.9.606l-2.437-2.548-3.478,2.527,1.676,3.117a11.682,11.682,0,0,0-1.166,1.608l-3.484-.631-1.328,4.088,3.186,1.535c-.028.328-.05.659-.05.995s.022.666.05.995l-3.186,1.535,1.328,4.088,3.484-.631a11.689,11.689,0,0,0,1.166,1.608l-1.676,3.116,3.478,2.527,2.437-2.547a11.564,11.564,0,0,0,1.9.606l.475,3.505h4.3l.476-3.505a11.6,11.6,0,0,0,1.9-.606l2.437,2.547,3.477-2.527-1.676-3.116a11.644,11.644,0,0,0,1.166-1.608l3.484.631,1.328-4.088-3.185-1.535C576.121,324.408,576.143,324.078,576.143,323.742Zm-11.606,6.486a6.486,6.486,0,1,1,6.485-6.486A6.486,6.486,0,0,1,564.538,330.228Z" fill="#a7d3f6"/>
        <path id="Path_146899-2" data-name="Path 146899" d="M568.981,337.719a9.484,9.484,0,1,0-9.484-9.484A9.484,9.484,0,0,0,568.981,337.719Zm0-15.969a6.486,6.486,0,1,1-6.486,6.485A6.485,6.485,0,0,1,568.981,321.75Z" transform="translate(-4.443 -4.494)" fill="#7cb4e2"/>
      </g>
    </g>
    <line id="Line_989" data-name="Line 989" x1="570" transform="translate(199.5 1263.5)" fill="none" stroke="#213033" stroke-miterlimit="10" stroke-width="1"/>
  </g>
</svg>
