<svg xmlns="http://www.w3.org/2000/svg" width="510" height="395.162" viewBox="0 0 510 395.162">
  <g id="Career_And_Culture_At_Sapphire_2" data-name="Career And Culture At Sapphire 2" transform="translate(-56.419 -88.313)">
    <g id="Group_183981" data-name="Group 183981" transform="translate(56.419 88.313)">
      <g id="Group_183947" data-name="Group 183947">
        <path id="Path_93440" data-name="Path 93440" d="M117.931,481.545H518.084c12.741-21.267,73.533-127.006,36.568-149.522-41.146-25.066-33.072-31.517-32.132-146.93,1.021-125.451-66.95-108.283-179.312-63.34s-107.056-9.7-193.323,17.621c-85.892,27.2-7.492,133.013-73.168,211.663C21.721,416.9,93.217,466.99,117.931,481.545Z" transform="translate(-56.419 -88.313)" fill="#ecf4fc"/>
      </g>
      <g id="Group_183948" data-name="Group 183948" transform="translate(125.614 312.168)">
        <rect id="Rectangle_151935" data-name="Rectangle 151935" width="90.195" height="81.065" fill="#bbdbfa"/>
        <rect id="Rectangle_151936" data-name="Rectangle 151936" width="19.296" height="76.671" transform="translate(83.433 6.762) rotate(90)" fill="#81bbf2"/>
        <rect id="Rectangle_151937" data-name="Rectangle 151937" width="19.296" height="76.671" transform="translate(83.433 31.067) rotate(90)" fill="#81bbf2"/>
        <rect id="Rectangle_151938" data-name="Rectangle 151938" width="19.296" height="76.671" transform="translate(83.433 56.359) rotate(90)" fill="#81bbf2"/>
        <circle id="Ellipse_3717" data-name="Ellipse 3717" cx="3.832" cy="3.832" r="3.832" transform="translate(41.266 13.132)" fill="#ebedff"/>
        <path id="Path_93441" data-name="Path 93441" d="M195.306,366.965a3.832,3.832,0,1,1-3.832-3.832A3.832,3.832,0,0,1,195.306,366.965Z" transform="translate(-146.377 -325.807)" fill="#ebedff"/>
        <path id="Path_93442" data-name="Path 93442" d="M195.306,388a3.832,3.832,0,1,1-3.832-3.832A3.832,3.832,0,0,1,195.306,388Z" transform="translate(-146.377 -320.092)" fill="#ebedff"/>
      </g>
      <g id="Group_183951" data-name="Group 183951" transform="translate(58.949 76.183)">
        <rect id="Rectangle_151939" data-name="Rectangle 151939" width="166.516" height="113.507" rx="6.858" fill="#bbdbfa"/>
        <path id="Rectangle_151940" data-name="Rectangle 151940" d="M1.737,0H98.746a1.737,1.737,0,0,1,1.737,1.737V151.755a1.737,1.737,0,0,1-1.737,1.737H1.738A1.738,1.738,0,0,1,0,151.754V1.737A1.737,1.737,0,0,1,1.737,0Z" transform="translate(160.005 6.512) rotate(90)" fill="#d6e7f8"/>
        <g id="Group_183949" data-name="Group 183949" transform="translate(114.45 6.512)">
          <path id="Path_93443" data-name="Path 93443" d="M236.113,153.339H192.769c2.34,11.27,11.175,48.241,29.6,66.663h15.96V155.548A2.213,2.213,0,0,0,236.113,153.339Z" transform="translate(-192.769 -153.339)" fill="#81bbf2"/>
          <path id="Path_93444" data-name="Path 93444" d="M216.041,205.759v9.8h15.7l.259-9.8Z" transform="translate(-186.446 -139.096)" fill="#fff"/>
          <path id="Path_93445" data-name="Path 93445" d="M233.694,235.277V213.61l-.259-.149h-15.7s-7.49,19.373-7.923,23.911l.261.114h21.411A2.213,2.213,0,0,0,233.694,235.277Z" transform="translate(-188.138 -137.003)" fill="#81bbf2"/>
        </g>
        <g id="Group_183950" data-name="Group 183950" transform="translate(6.847 6.512)">
          <path id="Path_93446" data-name="Path 93446" d="M110.369,153.339h43.344c-2.34,11.27-11.175,48.241-29.6,66.663h-15.96V155.548A2.212,2.212,0,0,1,110.369,153.339Z" transform="translate(-108.157 -153.339)" fill="#81bbf2"/>
          <path id="Path_93447" data-name="Path 93447" d="M124.117,205.759v9.8h-15.7l-.259-9.8Z" transform="translate(-108.157 -139.096)" fill="#fff"/>
          <path id="Path_93448" data-name="Path 93448" d="M108.157,235.277V213.61l.259-.149h15.7s7.49,19.373,7.923,23.911l-.261.114H110.369A2.212,2.212,0,0,1,108.157,235.277Z" transform="translate(-108.157 -137.003)" fill="#81bbf2"/>
        </g>
      </g>
      <g id="Group_183953" data-name="Group 183953" transform="translate(279.114 81.341)">
        <rect id="Rectangle_151941" data-name="Rectangle 151941" width="82.369" height="56.147" rx="3.392" transform="translate(0 0.001)" fill="#bbdbfa"/>
        <g id="Group_183952" data-name="Group 183952">
          <path id="Path_93449" data-name="Path 93449" d="M358.266,160.44v-3.851a4.315,4.315,0,0,0-4.315-4.315H280.212a4.315,4.315,0,0,0-4.315,4.315v3.851Z" transform="translate(-275.897 -152.274)" fill="#5fa6f0"/>
          <rect id="Rectangle_151942" data-name="Rectangle 151942" width="13.378" height="13.337" rx="0.806" transform="translate(4.849 16.029)" fill="#dfefff"/>
          <rect id="Rectangle_151943" data-name="Rectangle 151943" width="13.377" height="13.337" rx="0.806" transform="translate(24.683 16.029)" fill="#fff"/>
          <rect id="Rectangle_151944" data-name="Rectangle 151944" width="13.378" height="13.337" rx="0.806" transform="translate(44.407 16.029)" fill="#81bbf2"/>
          <rect id="Rectangle_151945" data-name="Rectangle 151945" width="13.378" height="13.337" rx="0.806" transform="translate(63.474 16.029)" fill="#dfefff"/>
          <rect id="Rectangle_151946" data-name="Rectangle 151946" width="13.378" height="13.337" rx="0.806" transform="translate(4.849 34.637)" fill="#81bbf2"/>
          <rect id="Rectangle_151947" data-name="Rectangle 151947" width="13.377" height="13.337" rx="0.806" transform="translate(24.683 34.637)" fill="#dfefff"/>
          <rect id="Rectangle_151948" data-name="Rectangle 151948" width="13.378" height="13.337" rx="0.806" transform="translate(44.407 34.637)" fill="#fff"/>
          <rect id="Rectangle_151949" data-name="Rectangle 151949" width="13.378" height="13.337" rx="0.806" transform="translate(63.474 34.637)" fill="#dfefff"/>
        </g>
      </g>
      <g id="Group_183954" data-name="Group 183954" transform="translate(220.333 252.419)">
        <rect id="Rectangle_151950" data-name="Rectangle 151950" width="262.035" height="9.566" fill="#aad5ff"/>
        <rect id="Rectangle_151951" data-name="Rectangle 151951" width="224.911" height="131.718" transform="translate(15.944 9.566)" fill="#bbdbfa"/>
        <rect id="Rectangle_151952" data-name="Rectangle 151952" width="224.911" height="14.049" transform="translate(15.944 9.566)" fill="#8ac5ff"/>
      </g>
      <g id="Group_183957" data-name="Group 183957" transform="translate(379.352 36.609)">
        <circle id="Ellipse_3718" data-name="Ellipse 3718" cx="29.518" cy="29.518" r="29.518" transform="translate(0 41.745) rotate(-45)" fill="#81bbf2"/>
        <g id="Group_183956" data-name="Group 183956" transform="translate(20.005 20.005)">
          <circle id="Ellipse_3719" data-name="Ellipse 3719" cx="21.741" cy="21.741" r="21.741" fill="#bbdbfa"/>
          <g id="Group_183955" data-name="Group 183955" transform="translate(13.934 7.428)">
            <path id="Path_93450" data-name="Path 93450" d="M382.375,162.489a.97.97,0,0,1-.633-1.7l6.74-5.822v-15.32a.97.97,0,1,1,1.939,0v15.764a.97.97,0,0,1-.336.734l-7.077,6.112A.968.968,0,0,1,382.375,162.489Z" transform="translate(-381.405 -138.672)" fill="#fff"/>
          </g>
        </g>
      </g>
      <g id="Group_183958" data-name="Group 183958" transform="translate(243.167 166.452)">
        <rect id="Rectangle_151953" data-name="Rectangle 151953" width="100.919" height="62.6" rx="6.098" fill="#8ac5ff"/>
        <path id="Path_93451" data-name="Path 93451" d="M324.055,219.569a7.752,7.752,0,0,0-5.122,7.287v47.089a7.751,7.751,0,0,0,5.122,7.287,7.749,7.749,0,0,0,5.121-7.287V226.856A7.751,7.751,0,0,0,324.055,219.569Z" transform="translate(-228.257 -219.101)" fill="#8ac5ff"/>
        <path id="Path_93452" data-name="Path 93452" d="M308.115,290.318H296.865V247.841H274.481V296.88h33.634a3.281,3.281,0,1,0,0-6.562Z" transform="translate(-240.335 -211.419)" fill="#babfe8"/>
        <path id="Path_93453" data-name="Path 93453" d="M307.93,290.318H296.865V247.841H274.481v42.477h0a6.562,6.562,0,0,0,6.562,6.562h27.072a3.282,3.282,0,0,0,3.276-3.458A3.406,3.406,0,0,0,307.93,290.318Z" transform="translate(-240.335 -211.419)" fill="#6c9ccb"/>
        <path id="Path_93454" data-name="Path 93454" d="M308.235,293.6a3.282,3.282,0,0,0-3.281-3.281H293.7V247.841h-7.588v42.477a6.562,6.562,0,0,0,6.562,6.562h12.277A3.282,3.282,0,0,0,308.235,293.6Z" transform="translate(-237.174 -211.419)" fill="#6c9ccb"/>
        <path id="Path_93455" data-name="Path 93455" d="M314.95,222.9H265.167a2.176,2.176,0,0,0-2.176,2.176h0a2.176,2.176,0,0,0,2.176,2.176H314.95a2.176,2.176,0,0,0,2.176-2.176h0A2.176,2.176,0,0,0,314.95,222.9Z" transform="translate(-243.457 -218.197)" fill="#8ac5ff"/>
      </g>
      <rect id="Rectangle_151954" data-name="Rectangle 151954" width="83.828" height="20.102" transform="translate(366.889 232.46)" fill="#8ac5ff"/>
      <rect id="Rectangle_151955" data-name="Rectangle 151955" width="86.431" height="14.047" transform="translate(358.83 218.414)" fill="#b8dbfe"/>
      <rect id="Rectangle_151956" data-name="Rectangle 151956" width="82.851" height="17.594" transform="translate(367.249 200.8)" fill="#b8dbfe"/>
      <rect id="Rectangle_151957" data-name="Rectangle 151957" width="82.851" height="6.165" transform="translate(367.249 212.229)" fill="#8ac5ff"/>
      <g id="Group_183980" data-name="Group 183980" transform="translate(54.745 120.416)">
        <g id="Group_183966" data-name="Group 183966" transform="translate(243.902 5.555)">
          <g id="Group_183961" data-name="Group 183961" transform="translate(0 25.818)">
            <path id="Path_93456" data-name="Path 93456" d="M387.233,218.789c4.178.715,24.046,4.114,27.931,6.818,3.337,2.321,19.5,49.611,16.095,52.073s-23.669,4.733-23.669,4.733l2.273,17.072-23.187,5.276a42.21,42.21,0,0,1-16.946.366l-19.515-3.56,3.977-49.263-25.971,14.916a3.921,3.921,0,0,1-5.248-1.588l-27.666-47.839,7.821-3.693,23.8,28.548,22.913-18.178s5.161-3.6,24.144-5.208Z" transform="translate(-287.157 -205.923)" fill="#61a0e0"/>
            <path id="Path_93457" data-name="Path 93457" d="M304.287,216.352s-4.02-8.242-5.458-8.65-.126,3.324-.126,3.324-5.009-3.839-8.966-3.294,7.3,7.671,8.417,11.505C298.155,219.237,304.531,216.38,304.287,216.352Z" transform="translate(-288.898 -207.67)" fill="#ffa683"/>
            <g id="Group_183960" data-name="Group 183960" transform="translate(33.172 37.779)">
              <g id="Group_183959" data-name="Group 183959">
                <rect id="Rectangle_151958" data-name="Rectangle 151958" width="49.291" height="32.562" rx="3.165" transform="translate(49.291 32.562) rotate(180)" fill="#fff"/>
                <path id="Path_93458" data-name="Path 93458" d="M336.332,264.358h34.9a3.406,3.406,0,0,0,3.406-3.406v.373a3.406,3.406,0,0,0-3.406-3.407h-34.9a3.406,3.406,0,0,0-3.406,3.407v-.373A3.406,3.406,0,0,0,336.332,264.358Z" transform="translate(-310.107 -231.796)" fill="#fff"/>
                <path id="Path_93459" data-name="Path 93459" d="M358.58,257.918v2.414a4.028,4.028,0,0,1-4,4.026H350.6a4.026,4.026,0,0,0,4-4.026v-2.414Z" transform="translate(-305.305 -231.796)" fill="#e6e1ef"/>
              </g>
              <path id="Path_93460" data-name="Path 93460" d="M328.413,252.95a5.624,5.624,0,1,1,5.625,5.625A5.624,5.624,0,0,1,328.413,252.95Z" transform="translate(-311.334 -234.674)" fill="#81bbf2"/>
            </g>
            <path id="Path_93461" data-name="Path 93461" d="M387.573,255.05l-4.705-20.278,9.048,23.632a3.486,3.486,0,0,1-2.6,4.733L365.65,268.5l18.516-7.235A5.18,5.18,0,0,0,387.573,255.05Z" transform="translate(-268.043 -200.306)" fill="#7327cc" opacity="0.15" style="mix-blend-mode: multiply;isolation: isolate"/>
            <path id="Path_93462" data-name="Path 93462" d="M389.334,270.844l-27.661,2.406-.38-9.505,29.205-6.667Z" transform="translate(-269.227 -194.246)" fill="#61a0e0"/>
            <path id="Path_93464" data-name="Path 93464" d="M363.939,269.337s-4.861,1.579-10.927-4.508a1.039,1.039,0,0,1,.725-1.77l9.819-.078Z" transform="translate(-271.56 -192.641)" fill="#ffa683"/>
          </g>
          <g id="Group_183963" data-name="Group 183963" transform="translate(49.534 119.91)">
            <g id="Group_183962" data-name="Group 183962">
              <path id="Path_93465" data-name="Path 93465" d="M398.774,416.564l-13.691-.206c-2.613-9.449-15.676-109.026-15.676-109.026l-17.041,36.352,8.358,72.634-12.788.079s-20.086-62.782-20.086-75.847c0-9.959,10.038-42.166,14.812-56.939l.383-.1,17.847,3.252a42.085,42.085,0,0,0,16.943-.364l20.871-4.745.039.02C400.818,308.944,398.774,416.564,398.774,416.564Z" transform="translate(-327.849 -281.658)" fill="#0572a8"/>
              <path id="Path_93467" data-name="Path 93467" d="M353.671,410.956l3.5-.122L348.813,338.2l17.041-36.352-24.934,35.5Z" transform="translate(-324.297 -276.172)" fill="#0572a8"/>
            </g>
            <path id="Path_93468" data-name="Path 93468" d="M348.254,387.56c-3.065,6.139-17.4,9.128-17.4,9.128a3.935,3.935,0,0,0,.565,4.125c1.614,2.315,16.679,1.038,18.57.635a6.564,6.564,0,0,0,3.2-1.922,10.514,10.514,0,0,0,1.96,1.733c.7.346,4.554-.39,4.554-.39.926-2.444.106-11.814-.141-13.31Z" transform="translate(-327.122 -252.883)"/>
            <path id="Path_93469" data-name="Path 93469" d="M377.311,387.56c-3.064,6.139-17.395,9.128-17.395,9.128a3.936,3.936,0,0,0,.565,4.125c1.613,2.315,16.679,1.038,18.57.635a6.571,6.571,0,0,0,3.2-1.922,10.494,10.494,0,0,0,1.958,1.733c.7.346,4.555-.39,4.555-.39.926-2.444.106-11.814-.141-13.31Z" transform="translate(-319.227 -252.883)"/>
          </g>
          <g id="Group_183965" data-name="Group 183965" transform="translate(72.914)">
            <g id="Group_183964" data-name="Group 183964">
              <path id="Path_93470" data-name="Path 93470" d="M368.7,208.675v11.472l-6.758,4.833-4.558-4.39.108-4.705a8.659,8.659,0,0,0,1.759.177,9.561,9.561,0,0,0,9.164-7.405A1.431,1.431,0,0,0,368.7,208.675Z" transform="translate(-343.203 -181.584)" fill="#ffa683"/>
              <path id="Path_93471" data-name="Path 93471" d="M373.053,203.994a2.163,2.163,0,0,0-2.883-.273s-.022.023-.06.066c-3.963-.94-9.488-5.147-9.488-5.147a65.608,65.608,0,0,1-9.221,4.282v5.949a9.7,9.7,0,0,0,9.47,9.916,9.562,9.562,0,0,0,9.165-7.412C373.3,211.825,374.371,205.4,373.053,203.994Z" transform="translate(-344.829 -184.306)" fill="#ffa683"/>
              <path id="Path_93472" data-name="Path 93472" d="M371.747,218.938l-.019-.01v-4.469c3.034.06,4.007-6.03,2.73-7.405a2.174,2.174,0,0,0-2.888-.275.484.484,0,0,1-.059.069,88.248,88.248,0,0,1-9.459-3.109,15.882,15.882,0,0,1-9.252,2.245c-1.385-.334-6.778-2.131-6.562-9.114.216-7.053,19.183-15.273,29.673-3.772C380.017,197.585,382.434,217.073,371.747,218.938Z" transform="translate(-346.233 -187.369)"/>
            </g>
            <path id="Path_93473" data-name="Path 93473" d="M359.25,216.061a9.031,9.031,0,0,1-1.76-.192l-.106,4.721,2.936,2.832v-5.533c7.573,0,8.093-9.233,8.093-9.233A9.561,9.561,0,0,1,359.25,216.061Z" transform="translate(-343.203 -181.584)" fill="#f48260"/>
            <path id="Path_93474" data-name="Path 93474" d="M370.081,202.737a.484.484,0,0,1-.059.069,12.311,12.311,0,0,1-1.709-.561c.186,2.4.266,8.39-2.961,11.621-.774-1-2.589-3.113-4.282-3.443a19.485,19.485,0,0,0-5.228.066,2.4,2.4,0,0,0-1.359.638l-1.648,1.558a9.519,9.519,0,0,1-1.122-1.924,9.372,9.372,0,0,0,18.24-.364,2.067,2.067,0,0,0,.786-.05v-.01ZM362.43,214.09c-3.931,1.833-6.655.36-7.385-.558a.552.552,0,0,1,.034-.717l.666-.726c.757-.829,3.2-.524,4.22-.524a3.76,3.76,0,0,1,2.487,1.55C362.7,213.374,362.733,213.947,362.43,214.09Z" transform="translate(-344.744 -183.326)"/>
          </g>
        </g>
        <g id="Group_183969" data-name="Group 183969" transform="translate(140.565)">
          <path id="Path_93475" data-name="Path 93475" d="M289.38,417.916c-1.691-50.195-8.318-142.125-8.318-142.125H231.009s-6.627,91.93-8.32,142.125H236.93s16.174-107.971,19.31-117.854c3.137,9.883,18.9,117.854,18.9,117.854Z" transform="translate(-206.551 -157.788)" fill="#0572a8"/>
          <path id="Path_93476" data-name="Path 93476" d="M279.193,417.916h-4.46L260.187,275.79h10.686S277.5,367.725,279.193,417.916Z" transform="translate(-196.362 -157.788)" fill="#5725a5"/>
          <path id="Path_93477" data-name="Path 93477" d="M279.193,417.916h-4.46L260.187,275.79h10.686S277.5,367.725,279.193,417.916Z" transform="translate(-196.362 -157.788)" fill="#0572a8"/>
          <path id="Path_93478" data-name="Path 93478" d="M227.729,387.56c-3.064,6.139-17.4,9.128-17.4,9.128a3.934,3.934,0,0,0,.566,4.125c1.613,2.315,16.677,1.038,18.568.635a6.571,6.571,0,0,0,3.2-1.922,10.494,10.494,0,0,0,1.958,1.733c.7.346,4.554-.39,4.554-.39.927-2.444.107-11.814-.14-13.31Z" transform="translate(-209.999 -127.418)"/>
          <path id="Path_93479" data-name="Path 93479" d="M276.249,387.56c3.064,6.139,17.395,9.128,17.395,9.128a3.935,3.935,0,0,1-.565,4.125c-1.614,2.315-16.679,1.038-18.57.635a6.572,6.572,0,0,1-3.2-1.922,10.514,10.514,0,0,1-1.96,1.733c-.7.346-4.554-.39-4.554-.39-.926-2.444-.106-11.814.141-13.31Z" transform="translate(-195.227 -127.418)"/>
          <g id="Group_183967" data-name="Group 183967" transform="translate(2.33 37.494)">
            <path id="Path_93480" data-name="Path 93480" d="M263,213.471l-3.395-.987H247.626l-3.395.987-8.46,79.24h35.684Z" transform="translate(-205.326 -212.484)" fill="#dfedfa"/>
            <path id="Path_93481" data-name="Path 93481" d="M250.737,213.26s-21.008,5.851-24.392,10.716c-3.165,4.549-15.285,29.42-14.475,44.228a2.757,2.757,0,0,0,3.111,2.592L231,267.261l-5.78,31.935s16.5,3.314,25.8,2.749Z" transform="translate(-211.832 -212.273)" fill="#61a0e0"/>
            <path id="Path_93482" data-name="Path 93482" d="M257.212,213.26s21.009,5.851,24.393,10.716c3.165,4.549,15.608,28.427,14.8,43.235a2.756,2.756,0,0,1-3.109,2.592l-16.342-2.541,5.781,31.935s-16.367,3.736-25.673,3.173Z" transform="translate(-199.542 -212.273)" fill="#61a0e0"/>
            <path id="Path_93483" data-name="Path 93483" d="M256.895,219.639l-5.877-3.275-5.453,3.275,3.478,4.81s-3.326,49.132-3.454,54.377c-.019.788,2.058,3.357,3.95,5.531.523.6,1.033,1.173,1.479,1.666.446-.495.956-1.064,1.479-1.666,1.894-2.173,3.969-4.742,3.95-5.531-.13-5.246-3.08-54.189-3.08-54.189Z" transform="translate(-202.666 -211.429)" fill="#396fa5"/>
            <path id="Path_93484" data-name="Path 93484" d="M228.966,259.956l49.49-8.319-2.679-11.491-56.469,5.5Z" transform="translate(-209.8 -204.967)" fill="#61a0e0"/>
            <path id="Path_93485" data-name="Path 93485" d="M265.639,250.415s7.237-2.35,9.682-1.974,1.316-8.037-11.61-8.3Z" transform="translate(-197.735 -204.967)" fill="#ffa683"/>
            <path id="Path_93486" data-name="Path 93486" d="M243.7,243.138a14.046,14.046,0,0,0-10.646-3.736c-3.581.312-6.273,5.358-6.273,5.358Z" transform="translate(-207.77 -205.183)" fill="#ffa683"/>
            <path id="Path_93487" data-name="Path 93487" d="M225.184,268.5,247.2,253.116l-19.829,3.316Z" transform="translate(-208.203 -201.443)" fill="#486eb9" opacity="0.22" style="mix-blend-mode: multiply;isolation: isolate"/>
            <path id="Path_93488" data-name="Path 93488" d="M227.627,246.248l-3.968-.1,8.039-12.275Z" transform="translate(-208.618 -206.672)" fill="#441982" opacity="0.12" style="mix-blend-mode: multiply;isolation: isolate"/>
            <path id="Path_93489" data-name="Path 93489" d="M273.095,249.9s4.108.083,4.543-.57-5.159-14.387-5.159-14.387S276.6,248.721,273.095,249.9Z" transform="translate(-195.353 -206.382)" fill="#441982" opacity="0.12" style="mix-blend-mode: multiply;isolation: isolate"/>
            <path id="Path_93490" data-name="Path 93490" d="M282.719,288.4l-3.275-18.089h0l-2.507-13.846-19.826-3.453v1.117l14.557,10.549,4.309,25.072C279.917,289.036,282.719,288.4,282.719,288.4Z" transform="translate(-199.529 -201.473)" fill="#486eb9" opacity="0.22" style="mix-blend-mode: multiply;isolation: isolate"/>
          </g>
          <path id="Path_93491" data-name="Path 93491" d="M254.158,294.862h0a15.26,15.26,0,0,0-5.251,9.093L229.956,412.734h5S248.292,321.911,254.158,294.862Z" transform="translate(-204.576 -152.606)" fill="#0572a8"/>
          <g id="Group_183968" data-name="Group 183968" transform="translate(36.662)">
            <path id="Path_93492" data-name="Path 93492" d="M256.157,214.261l-5.005,3.047-5.332-3.047v-9.99h10.337Z" transform="translate(-236.928 -177.221)" fill="#ffa683"/>
            <path id="Path_93493" data-name="Path 93493" d="M239.731,202.009s-2.072-7.736.061-11.635,5.755-8.228,9.287-5.791c0,0,2.125-2.789,9.617-.961s11.187,1.88,13.868.479.63,12.365-4.914,13.157c0,0-.446,3.594-1.544,4.873s-14.5,1.95-14.5,1.95Z" transform="translate(-238.828 -183.001)"/>
            <path id="Path_93494" data-name="Path 93494" d="M249.7,190.059c-.387-.432-1.147,1.445-2.943,3A21.372,21.372,0,0,1,241.8,196.1v7.459s1.546,10.133,10.672,10.133C260,213.693,262.7,203.6,262.7,203.6v-8.73S253.724,194.545,249.7,190.059Z" transform="translate(-238.02 -181.1)" fill="#ffa683"/>
            <path id="Path_93495" data-name="Path 93495" d="M256.156,207.4v2.053a8.005,8.005,0,0,1-4.775,1.578,9.7,9.7,0,0,1-5.56-1.614v-2.051a9.7,9.7,0,0,0,5.56,1.614A8.009,8.009,0,0,0,256.156,207.4Z" transform="translate(-236.928 -176.382)" fill="#f48260"/>
            <path id="Path_93496" data-name="Path 93496" d="M246.761,199.435a3.643,3.643,0,0,0-7.286,0,4.732,4.732,0,0,0,4.22,4.246C245.706,203.681,246.761,201.447,246.761,199.435Z" transform="translate(-238.652 -179.525)" fill="#ffa683"/>
            <path id="Path_93497" data-name="Path 93497" d="M255.5,199.435a3.643,3.643,0,0,1,7.286,0,4.732,4.732,0,0,1-4.22,4.246C256.552,203.681,255.5,201.447,255.5,199.435Z" transform="translate(-234.298 -179.525)" fill="#ffa683"/>
          </g>
        </g>
        <g id="Group_183979" data-name="Group 183979" transform="translate(0 2.373)">
          <g id="Group_183970" data-name="Group 183970" transform="translate(18.081 174.856)">
            <path id="Path_93498" data-name="Path 93498" d="M143.341,389.581V397.8a3.634,3.634,0,0,1-3.429,3.81h-24.88a1.522,1.522,0,0,1-.733-2.742c3.287-2.362,14.167-5.749,17.615-8.1Z" transform="translate(-113.685 -304.099)"/>
            <path id="Path_93499" data-name="Path 93499" d="M146.687,325.84c-1.641,21.982-6.02,79.432-7.15,82.653-1.4,3.988-12.4,1.857-11.7.708.235-.4,2.327-.638,3.781-3.8.453-.972.3-7.031.216-8.093-.7-9.743-4.253-59.846-5.255-74.942A94.2,94.2,0,0,0,146.687,325.84Z" transform="translate(-110.181 -322.363)" fill="#ffa683"/>
          </g>
          <g id="Group_183971" data-name="Group 183971" transform="translate(57.936 175.711)">
            <path id="Path_93500" data-name="Path 93500" d="M150.4,389.581V397.8a3.634,3.634,0,0,0,3.429,3.81h24.88a1.522,1.522,0,0,0,.733-2.742c-3.286-2.362-14.167-5.749-17.615-8.1Z" transform="translate(-143.564 -304.953)"/>
            <path id="Path_93501" data-name="Path 93501" d="M163.864,409.018c.687,1.148-10.3,3.28-11.7-.708-1.12-3.211-5.49-60.474-7.141-82.534a63.751,63.751,0,0,0,20.037-2.741c-1.081,16.039-4.529,64.522-5.206,74.088-.069,1.062-.225,7.122.216,8.093C161.526,408.38,163.619,408.615,163.864,409.018Z" transform="translate(-145.025 -323.035)" fill="#ffa683"/>
          </g>
          <path id="Path_93502" data-name="Path 93502" d="M123.155,270.4l.187.276-1.139,2.406C122.526,272.108,122.851,271.214,123.155,270.4Z" transform="translate(-93.29 -161.626)" fill="#ba95f4"/>
          <path id="Path_93503" data-name="Path 93503" d="M129.445,224.048" transform="translate(-91.322 -174.221)" fill="#ba95f4"/>
          <g id="Group_183972" data-name="Group 183972" transform="translate(22.979 102.33)">
            <path id="Path_93504" data-name="Path 93504" d="M181.98,334.677c-27.552,15.263-62.223,0-62.223,0a118.876,118.876,0,0,1,3.693-60.18l.019-.039c.324-.973.649-1.867.952-2.682a58.9,58.9,0,0,1,2.662-6.207h.02c1.493.983,19.948,12.543,45.1,0h.481a.365.365,0,0,0-.029-.048c-.019-.039-.039-.079-.069-.148-.009-.01-.009-.029-.019-.039h.167C185.634,298.04,181.98,334.677,181.98,334.677Z" transform="translate(-117.537 -265.333)" fill="#0572a8"/>
          </g>
          <path id="Path_93506" data-name="Path 93506" d="M146.689,325.84c-1.641,21.973-6.02,79.432-7.15,82.653a3.551,3.551,0,0,1-2.761,2.014c4.381-14.587,3.984-82.816,3.984-82.816-4.567.148-10.254-2.15-14.114-3.86-.108-1.641.013-.251-.075-1.469A94.176,94.176,0,0,0,146.689,325.84Z" transform="translate(-92.102 -147.507)" fill="#ffa683"/>
          <path id="Path_93507" data-name="Path 93507" d="M160.072,405.216c-.441-.972-.285-7.031-.216-8.093.688-9.566,4.125-58.058,5.206-74.088-.81.254-1.621.476-2.434.691-.432.114-.866.22-1.3.324q-.71.17-1.418.32a66.9,66.9,0,0,1-14.885,1.405c.039.52.08,1.067.122,1.625a117.754,117.754,0,0,0,13.869-.731c-.655,12.495-3.846,75.88-1.646,80.139.629,1.237,2.564,2.288,5.059,3.172,1.012-.3,1.611-.668,1.435-.961C163.619,408.615,161.526,408.38,160.072,405.216Z" transform="translate(-87.089 -147.324)" fill="#ffa683"/>
          <g id="Group_183976" data-name="Group 183976" transform="translate(0 34.49)">
            <path id="Path_93508" data-name="Path 93508" d="M192.994,219.017s4.32-6.8,5.615-7.019-.215,2.915-.215,2.915,4.75-2.861,8.152-2-7.129,5.982-8.48,9.221C198.066,222.138,192.779,219.017,192.994,219.017Z" transform="translate(-74.056 -211.988)" fill="#ffa683"/>
            <path id="Path_93509" data-name="Path 93509" d="M129.288,276.4c0-.553-5.228-4.892-5.588-5.112-.048-.069-.093-.142-.142-.211l-3.328,6.949s8.044,6.752,8.841,6.088c.543-.453-1.377-3.476-2.771-7.565C127.687,276.369,129.288,276.787,129.288,276.4Z" transform="translate(-93.826 -195.933)" fill="#ffa683"/>
            <g id="Group_183975" data-name="Group 183975" transform="translate(0 6.272)">
              <path id="Path_93510" data-name="Path 93510" d="M179.365,247.186a13.369,13.369,0,0,1,1.475,6.711,8.979,8.979,0,0,1-2.747,5.779,10.614,10.614,0,0,0-.908,1.028c-.066.081-.128.165-.189.249-4.829,6.587-.249,16.124.5,17.579l.075.141a.263.263,0,0,0,.024.047h-.478c-25.155,12.548-43.612.986-45.107,0h-.1a.452.452,0,0,0,.024-.047c.415-.776,5.611-10.849.574-17.72a10.8,10.8,0,0,0-1.1-1.277c-4.036-4.039-2.908-10.52-1.228-14.027l-13.961,19.677,13.3,19.876-3.856,8.11s-26.59-25.194-26.191-27.055,21.272-38.822,28.186-43.742,20.739-5.583,20.739-5.583h10.1s10.3-.533,18.781,5.449l17.557,17.509,22.921-22.6,6.088,3.692s-20.706,28.044-28.072,36.442a3.326,3.326,0,0,1-4.732.281Z" transform="translate(-99.467 -216.919)" fill="#61a0e0"/>
              <g id="Group_183973" data-name="Group 183973" transform="translate(13.1 18.788)">
                <path id="Path_93512" data-name="Path 93512" d="M127.385,241.634s2.573-8.04,4.256-9.941c0,0-20.857,26.669-21.834,29.711s16.913,19.783,16.913,19.783l-13.3-19.876Z" transform="translate(-109.769 -231.693)" fill="#61a0e0"/>
                <path id="Path_93513" data-name="Path 93513" d="M123.869,239.51a16.071,16.071,0,0,0-1.16,3.458Z" transform="translate(-106.252 -229.569)" fill="#61a0e0"/>
              </g>
            </g>
          </g>
          <g id="Group_183978" data-name="Group 183978" transform="translate(36.416)">
            <g id="Group_183977" data-name="Group 183977" transform="translate(4.758 15.055)">
              <path id="Path_93535" data-name="Path 93535" d="M147.357,219.3l-4.655,2.833-4.958-2.833v-9.29h9.613Z" transform="translate(-130.241 -193.089)" fill="#ffa683"/>
              <path id="Path_93536" data-name="Path 93536" d="M145.549,212.912v5.606l-1.152.7c.041-.239.083-.473.123-.7C144.976,215.96,145.364,213.96,145.549,212.912Z" transform="translate(-128.433 -192.301)" fill="#ffa683"/>
              <path id="Path_93537" data-name="Path 93537" d="M150.368,201.156v7.035s-1.412,5.275-5.065,7.915C145.829,213.124,149.748,204.349,150.368,201.156Z" transform="translate(-128.187 -195.496)" fill="#ffa683"/>
              <path id="Path_93538" data-name="Path 93538" d="M147.357,212.92v1.909a7.441,7.441,0,0,1-4.44,1.468,9.034,9.034,0,0,1-5.172-1.5v-1.908a9.025,9.025,0,0,0,5.172,1.5A7.447,7.447,0,0,0,147.357,212.92Z" transform="translate(-130.241 -192.308)" fill="#f48260"/>
              <path id="Path_93539" data-name="Path 93539" d="M154.18,203.6c-.053,0-.1.014-.155.015v-2.337s-13.424.842-15.856-4.549c-.221-.492-3.574,5.693-3.574,5.693v1.242a3.385,3.385,0,0,0-2.752,3.323,4.49,4.49,0,0,0,3.1,3.811c.791,2.638,3.183,7.983,9.576,7.983,5.215,0,7.934-5.21,8.981-7.866.05,0,.093.02.144.02a4.4,4.4,0,0,0,3.923-3.949A3.388,3.388,0,0,0,154.18,203.6Z" transform="translate(-131.844 -196.705)" fill="#ffa683"/>
            </g>
            <path id="Path_93540" data-name="Path 93540" d="M154.491,214.2a.341.341,0,0,1,.167-.048,4.4,4.4,0,0,0,3.925-3.945,3.383,3.383,0,0,0-3.388-3.387c-.048,0-.1.009-.156.009V204.5s-13.423.839-15.855-4.55c-.215-.5-3.572,5.692-3.572,5.692v1.24a3.393,3.393,0,0,0-2.753,3.328,4.5,4.5,0,0,0,3.1,3.807,11.966,11.966,0,0,0,4.4,6.483v3.924c-16.15-9.72-14.283-30.876-6.21-34.868,3.622-1.778,5.378-.327,5.378-.327,12.655-11.134,22.925,1.957,26.017,6.952,4.236,6.844,21.346,51.655,3.585,57.684-32.508,11.035-22.277-30.118-19.165-33.324C152.643,217.791,154.208,215.369,154.491,214.2Z" transform="translate(-128.103 -184.867)"/>
          </g>
        </g>
      </g>
    </g>
  </g>
</svg>
