<svg xmlns="http://www.w3.org/2000/svg" xmlns:xlink="http://www.w3.org/1999/xlink" width="570" height="333.868" viewBox="0 0 570 333.868">
  <defs>
    <clipPath id="clip-path">
      <path id="SVGID" d="M399.667,253.7c-18.25,0-24.459-28.423-24.72-29.662a5.13,5.13,0,1,1,10.038-2.119c1.237,5.791,6.7,22.16,15.279,21.5,10.959-.841,15.308-25.315,15.968-33.822a5.13,5.13,0,0,1,10.23.783c-.325,4.254-3.793,41.61-25.412,43.269Q400.348,253.7,399.667,253.7Z" fill="none"/>
    </clipPath>
    <clipPath id="clip-path-2">
      <path id="SVGID-2" data-name="SVGID" d="M439.487,164.275c1.209,5.2-2.285,10.45-7.8,11.734s-10.973-1.888-12.182-7.084,2.284-10.451,7.8-11.735S438.278,159.078,439.487,164.275Z" fill="none"/>
    </clipPath>
    <clipPath id="clip-path-3">
      <ellipse id="SVGID-3" data-name="SVGID" cx="9.661" cy="10.259" rx="9.661" ry="10.259" transform="translate(492.723 173.684) rotate(-76.902)" fill="none"/>
    </clipPath>
    <clipPath id="clip-path-4">
      <path id="SVGID-4" data-name="SVGID" d="M429.235,261.215a101.346,101.346,0,0,1-17.127-37.678l-.836-3.634c-2.612-11.351,7.6-21.908,21.2-21.908H500.8c13.6,0,23.812,10.557,21.2,21.908l-.766,3.326a101.5,101.5,0,0,1-19.409,40.709C478.836,292.684,452.711,292.9,429.235,261.215Z" fill="none"/>
    </clipPath>
    <clipPath id="clip-path-5">
      <path id="SVGID-5" data-name="SVGID" d="M506.2,264.1c-7.875,0-17.318-2.8-28.662-8.4a5.13,5.13,0,1,1,4.547-9.2c24.734,12.23,31.726,6.056,34.359,3.733,4.049-3.575,2.286-9.48-2.394-21.179-1.617-4.041-3.288-8.219-4.55-12.58a5.13,5.13,0,1,1,9.855-2.851c1.122,3.872,2.7,7.811,4.221,11.619,4.486,11.216,9.572,23.928-.342,32.682A24.716,24.716,0,0,1,506.2,264.1Z" fill="none"/>
    </clipPath>
    <linearGradient id="linear-gradient" x1="0.998" y1="-8.286" x2="0.358" y2="3.571" gradientUnits="objectBoundingBox">
      <stop offset="0" stop-color="#94ffff"/>
      <stop offset="1" stop-color="#4995ff"/>
    </linearGradient>
    <linearGradient id="linear-gradient-2" x1="1.227" y1="-2.707" x2="0.289" y2="1.561" xlink:href="#linear-gradient"/>
  </defs>
  <g id="Chatbot_Development_section_1" transform="translate(-807 -946)">
    <g id="Group_289197" data-name="Group 289197" transform="translate(761.215 908.803)">
      <g id="bg">
        <path id="Path_125371" data-name="Path 125371" d="M593.954,349.714c6.118,19.167-33.837,18.962-33.14,19.167L267.9,368.659c-51.289.965-147.135,1.225-191.034-54.212a82.665,82.665,0,0,1-7.982-12.394c-20.858-39.142-18.706-106.983,63.16-136.63,30.3-10.974,62.482-15.585,93.025-26.029A426.814,426.814,0,0,0,325.1,89.869c92.738-62.328,142.745-58.727,183.137-42.66,39.48,15.687,67,52.007,72.486,94.144,5.068,39-14.352,74.259-34.514,106.846C499.617,323.509,587.005,327.941,593.954,349.714Z" fill="#ebf3fa"/>
      </g>
      <g id="chat">
        <rect id="Rectangle_161180" data-name="Rectangle 161180" width="150.865" height="187.616" transform="translate(229.548 103.769)" fill="#fff"/>
        <path id="Rectangle_161181" data-name="Rectangle 161181" d="M0,0H150.866a0,0,0,0,1,0,0V37.886a9.16,9.16,0,0,1-9.16,9.16H9.16A9.16,9.16,0,0,1,0,37.886V0A0,0,0,0,1,0,0Z" transform="translate(229.462 291.211)" fill="#60a6df"/>
        <path id="Rectangle_161182" data-name="Rectangle 161182" d="M9.16,0H141.705a9.16,9.16,0,0,1,9.16,9.16V35.948a0,0,0,0,1,0,0H0a0,0,0,0,1,0,0V9.16A9.16,9.16,0,0,1,9.16,0Z" transform="translate(229.462 67.821)" fill="#60a6df"/>
        <g id="Group_289126" data-name="Group 289126">
          <path id="Path_125476" data-name="Path 125476" d="M243.028,76.961a4.974,4.974,0,1,1-4.974-4.973A4.974,4.974,0,0,1,243.028,76.961Z" fill="#fff"/>
          <g id="Group_289124" data-name="Group 289124">
            <path id="Path_125477" data-name="Path 125477" d="M240.541,79.778a.328.328,0,0,1-.233-.1l-4.974-4.974a.33.33,0,0,1,.467-.467l4.973,4.974a.33.33,0,0,1-.233.563Z" fill="#1388e5"/>
          </g>
          <g id="Group_289125" data-name="Group 289125">
            <path id="Path_125478" data-name="Path 125478" d="M235.567,79.778a.33.33,0,0,1-.233-.563l4.974-4.974a.33.33,0,0,1,.466.467L235.8,79.682A.332.332,0,0,1,235.567,79.778Z" fill="#1388e5"/>
          </g>
        </g>
        <path id="Path_125479" data-name="Path 125479" d="M338.277,244.683H247.5a7.633,7.633,0,0,0-7.633,7.634V265.53a6.14,6.14,0,0,1-4.37,5.878H338.277a7.634,7.634,0,0,0,7.634-7.634V252.317A7.634,7.634,0,0,0,338.277,244.683Z" fill="#c9e4f9"/>
        <path id="Path_125480" data-name="Path 125480" d="M353.008,212.4H246.672a7.383,7.383,0,0,0-7.1,7.633v7.8a6.1,6.1,0,0,1-4.067,5.877H353.008a7.383,7.383,0,0,0,7.105-7.633v-6.042A7.383,7.383,0,0,0,353.008,212.4Z" fill="#a7d3f6"/>
        <g id="Group_289131" data-name="Group 289131">
          <g id="Group_289127" data-name="Group 289127">
            <path id="Path_125481" data-name="Path 125481" d="M364.894,93.259a5.747,5.747,0,0,1-3.483-1.18,25.484,25.484,0,0,1-4.772-4.771,5.746,5.746,0,0,1-.883-5.3,3.69,3.69,0,0,1,.236-.6c.029-.063.062-.131.1-.2a10.171,10.171,0,0,1,.882-1.375,1.353,1.353,0,0,1,1.009-.58,1.736,1.736,0,0,1,1.381.522l1.711,1.712a1.591,1.591,0,0,1,.161,2.2l-1.568,1.684a26.435,26.435,0,0,0,3.691,3.683l1.678-1.565a1.593,1.593,0,0,1,2.2.161l1.712,1.712a1.721,1.721,0,0,1,.522,1.381,1.368,1.368,0,0,1-.6,1.023,10.164,10.164,0,0,1-1.355.867c-.073.037-.138.068-.206.1a4.569,4.569,0,0,1-.549.226l-.1.02A5.555,5.555,0,0,1,364.894,93.259ZM358.128,79.9a.807.807,0,0,0-.085,0,.719.719,0,0,0-.539.309,9.682,9.682,0,0,0-.829,1.291c-.03.057-.058.115-.085.175a4.054,4.054,0,0,0-.2.48,5.142,5.142,0,0,0,.774,4.744,24.8,24.8,0,0,0,4.647,4.649,5.092,5.092,0,0,0,4.694.78l.1-.019c.107-.039.266-.11.424-.186l.186-.089a9.855,9.855,0,0,0,1.268-.814.726.726,0,0,0,.326-.552,1.075,1.075,0,0,0-.331-.85l-1.711-1.712a.952.952,0,0,0-1.286-.143l-2.093,1.952-.223-.176a26.984,26.984,0,0,1-4.2-4.189l-.178-.222,1.957-2.1a.951.951,0,0,0-.145-1.284l-1.71-1.712A1.1,1.1,0,0,0,358.128,79.9Z" fill="#fff"/>
          </g>
          <g id="Group_289130" data-name="Group 289130">
            <g id="Group_289128" data-name="Group 289128">
              <path id="Path_125482" data-name="Path 125482" d="M366.645,85.221a.33.33,0,0,1-.33-.33V78.665a.331.331,0,1,1,.661,0v6.226A.331.331,0,0,1,366.645,85.221Z" fill="#fff"/>
            </g>
            <g id="Group_289129" data-name="Group 289129">
              <path id="Path_125483" data-name="Path 125483" d="M369.759,82.107h-6.227a.33.33,0,1,1,0-.66h6.227a.33.33,0,0,1,0,.66Z" fill="#fff"/>
            </g>
          </g>
        </g>
        <path id="Path_125484" data-name="Path 125484" d="M364.029,324.682H246.482a9.948,9.948,0,0,1-9.947-9.948h0a9.948,9.948,0,0,1,9.947-9.947H364.029a9.947,9.947,0,0,1,9.947,9.947h0A9.947,9.947,0,0,1,364.029,324.682Z" fill="#fff"/>
        <g id="Group_289137" data-name="Group 289137">
          <g id="Group_289132" data-name="Group 289132">
            <path id="Path_125485" data-name="Path 125485" d="M369.762,314.734a6.494,6.494,0,1,1-6.495-6.495A6.494,6.494,0,0,1,369.762,314.734Z" fill="#fff"/>
            <path id="Path_125486" data-name="Path 125486" d="M363.268,321.89a7.156,7.156,0,1,1,7.155-7.156A7.164,7.164,0,0,1,363.268,321.89Zm0-12.991a5.835,5.835,0,1,0,5.834,5.835A5.842,5.842,0,0,0,363.268,308.9Z" fill="#4e95cf"/>
          </g>
          <g id="Group_289136" data-name="Group 289136">
            <g id="Group_289133" data-name="Group 289133">
              <path id="Path_125487" data-name="Path 125487" d="M363.268,317.034a2.236,2.236,0,0,1-2.234-2.233v-3.32a2.234,2.234,0,0,1,4.468,0v3.32A2.236,2.236,0,0,1,363.268,317.034Zm0-7.126a1.575,1.575,0,0,0-1.574,1.573v3.32a1.574,1.574,0,0,0,3.148,0v-3.32A1.575,1.575,0,0,0,363.268,309.908Z" fill="#4e95cf"/>
            </g>
            <g id="Group_289134" data-name="Group 289134">
              <path id="Path_125488" data-name="Path 125488" d="M363.268,318.611a3.489,3.489,0,0,1-3.485-3.484.33.33,0,1,1,.66,0,2.825,2.825,0,0,0,5.649,0,.33.33,0,1,1,.66,0A3.489,3.489,0,0,1,363.268,318.611Z" fill="#4e95cf"/>
            </g>
            <g id="Group_289135" data-name="Group 289135">
              <path id="Path_125489" data-name="Path 125489" d="M363.268,320.221a.331.331,0,0,1-.331-.33v-1.61a.33.33,0,0,1,.661,0v1.61A.33.33,0,0,1,363.268,320.221Z" fill="#4e95cf"/>
            </g>
          </g>
        </g>
        <g id="Group_289140" data-name="Group 289140">
          <g id="Group_289138" data-name="Group 289138">
            <path id="Path_125490" data-name="Path 125490" d="M354.419,219.577h-108.5a.318.318,0,0,1,0-.637h108.5a.318.318,0,0,1,0,.637Z" fill="#fff"/>
          </g>
          <g id="Group_289139" data-name="Group 289139">
            <path id="Path_125491" data-name="Path 125491" d="M307.446,227.178H245.918a.318.318,0,0,1,0-.637h61.528a.318.318,0,1,1,0,.637Z" fill="#fff"/>
          </g>
        </g>
        <g id="Group_289144" data-name="Group 289144">
          <g id="Group_289141" data-name="Group 289141">
            <path id="Path_125492" data-name="Path 125492" d="M338.776,251.148H246.693a.33.33,0,0,1,0-.66h92.083a.33.33,0,0,1,0,.66Z" fill="#fff"/>
          </g>
          <g id="Group_289142" data-name="Group 289142">
            <path id="Path_125493" data-name="Path 125493" d="M338.776,266.349H246.693a.33.33,0,0,1,0-.66h92.083a.33.33,0,0,1,0,.66Z" fill="#fff"/>
          </g>
          <g id="Group_289143" data-name="Group 289143">
            <path id="Path_125494" data-name="Path 125494" d="M312.8,258.748H246.693a.33.33,0,0,1,0-.66H312.8a.33.33,0,1,1,0,.66Z" fill="#fff"/>
          </g>
        </g>
        <path id="Path_125495" data-name="Path 125495" d="M261.414,130.013h123.6c5.741,0,10.394,5.151,10.394,11.505v19.915a9.184,9.184,0,0,0,5.949,8.858H261.414c-5.741,0-10.394-5.151-10.394-11.505V141.518C251.02,135.164,255.673,130.013,261.414,130.013Z" fill="#a7d3f6"/>
        <g id="Group_289148" data-name="Group 289148">
          <g id="Group_289145" data-name="Group 289145">
            <path id="Path_125496" data-name="Path 125496" d="M386.117,139.733H260.734a.473.473,0,1,1,0-.946H386.117a.473.473,0,0,1,0,.946Z" fill="#fff"/>
          </g>
          <g id="Group_289146" data-name="Group 289146">
            <path id="Path_125497" data-name="Path 125497" d="M386.117,162.642H260.734a.473.473,0,1,1,0-.946H386.117a.473.473,0,0,1,0,.946Z" fill="#fff"/>
          </g>
          <g id="Group_289147" data-name="Group 289147">
            <path id="Path_125498" data-name="Path 125498" d="M386.117,151.188H296.1a.474.474,0,0,1,0-.947h90.013a.474.474,0,0,1,0,.947Z" fill="#fff"/>
          </g>
        </g>
        <g id="Group_289152" data-name="Group 289152">
          <g id="Group_289149" data-name="Group 289149">
            <path id="Path_125499" data-name="Path 125499" d="M242.341,286.209a1.6,1.6,0,1,1,1.6-1.6A1.6,1.6,0,0,1,242.341,286.209Z" fill="#b1e4fa"/>
          </g>
          <g id="Group_289150" data-name="Group 289150">
            <path id="Path_125500" data-name="Path 125500" d="M248.7,286.209a1.6,1.6,0,1,1,1.6-1.6A1.6,1.6,0,0,1,248.7,286.209Z" fill="#b1e4fa"/>
          </g>
          <g id="Group_289151" data-name="Group 289151">
            <path id="Path_125501" data-name="Path 125501" d="M255.063,286.209a1.6,1.6,0,1,1,1.6-1.6A1.6,1.6,0,0,1,255.063,286.209Z" fill="#b1e4fa"/>
          </g>
        </g>
        <g id="Group_289156" data-name="Group 289156">
          <g id="Group_289155" data-name="Group 289155">
            <g id="Group_289153" data-name="Group 289153">
              <path id="Path_125502" data-name="Path 125502" d="M245.143,319.228a.331.331,0,0,1-.33-.331v-8.742a.33.33,0,0,1,.66,0V318.9A.331.331,0,0,1,245.143,319.228Z" fill="#4e95cf"/>
            </g>
            <g id="Group_289154" data-name="Group 289154">
              <path id="Path_125503" data-name="Path 125503" d="M249.3,314.856h-8.314a.33.33,0,0,1,0-.66H249.3a.33.33,0,1,1,0,.66Z" fill="#4e95cf"/>
            </g>
          </g>
        </g>
      </g>
      <g id="robot">
        <g id="Group_289194" data-name="Group 289194">
          <g id="Group_289157" data-name="Group 289157">
            <path id="Path_125504" data-name="Path 125504" d="M426.465,210.377a97.572,97.572,0,0,1-2.072,13.389A65.921,65.921,0,0,1,418.36,240.6c-3.786,6.915-9.306,12.425-17.308,13.04q-.708.062-1.385.062c-18.253,0-24.46-28.43-24.716-29.672a5.127,5.127,0,0,1,10.034-2.113c1.241,5.787,6.7,22.161,15.277,21.494,4.535-.348,7.931-4.74,10.413-10.372a65.025,65.025,0,0,0,3.663-11.532,88.961,88.961,0,0,0,1.9-11.912,5.129,5.129,0,0,1,10.229.78Z" fill="#0271a6"/>
          </g>
          <g id="Group_289163" data-name="Group 289163">
            <g id="Group_289162" data-name="Group 289162" clip-path="url(#clip-path)">
              <g id="Group_289158" data-name="Group 289158">
                <path id="Path_125505" data-name="Path 125505" d="M375.984,232.969a14.922,14.922,0,0,1-3.373-.375,9.385,9.385,0,0,1-6.871-5.264.293.293,0,1,1,.539-.228,8.813,8.813,0,0,0,6.465,4.922,16.806,16.806,0,0,0,10.221-1.117c7.043-2.988,11.016-9.557,8.858-14.644a.293.293,0,1,1,.539-.229c2.284,5.384-1.829,12.3-9.169,15.412A18.592,18.592,0,0,1,375.984,232.969Z" fill="#2c2a2b"/>
              </g>
              <g id="Group_289159" data-name="Group 289159">
                <path id="Path_125506" data-name="Path 125506" d="M381.6,245.565a14.908,14.908,0,0,1-3.372-.375,9.384,9.384,0,0,1-6.873-5.262.293.293,0,0,1,.54-.229,8.813,8.813,0,0,0,6.464,4.922,16.794,16.794,0,0,0,10.222-1.117c7.042-2.988,11.016-9.558,8.857-14.645a.293.293,0,0,1,.54-.228c2.283,5.384-1.83,12.3-9.168,15.412A18.6,18.6,0,0,1,381.6,245.565Z" fill="#2c2a2b"/>
              </g>
              <g id="Group_289160" data-name="Group 289160">
                <path id="Path_125507" data-name="Path 125507" d="M394.682,260.947a.292.292,0,0,1,0-.584c5.525,0,10.021-6.224,10.021-13.875s-4.5-13.875-10.021-13.875a.292.292,0,0,1,0-.584c5.847,0,10.6,6.487,10.6,14.459S400.529,260.947,394.682,260.947Z" fill="#2c2a2b"/>
              </g>
              <g id="Group_289161" data-name="Group 289161">
                <path id="Path_125508" data-name="Path 125508" d="M418.133,256.44a.293.293,0,0,1-.17-.531c4.5-3.207,4.546-10.885.1-17.114a16.794,16.794,0,0,0-8.13-6.3,8.823,8.823,0,0,0-8.084.816.292.292,0,1,1-.339-.476,9.388,9.388,0,0,1,8.609-.9,17.392,17.392,0,0,1,8.421,6.511c4.628,6.492,4.519,14.536-.241,17.931A.3.3,0,0,1,418.133,256.44Z" fill="#2c2a2b"/>
              </g>
              <path id="Path_125509" data-name="Path 125509" d="M424.393,223.766A65.921,65.921,0,0,1,418.36,240.6a21.339,21.339,0,0,0-7.685-7.561,65.025,65.025,0,0,0,3.663-11.532l7.941.1Z" fill="#2c2a2b"/>
            </g>
          </g>
          <g id="Group_289174" data-name="Group 289174">
            <path id="Path_125510" data-name="Path 125510" d="M438.577,170.8a10.426,10.426,0,0,1-6.895,5.2,10.808,10.808,0,0,1-2.78.277,9.766,9.766,0,0,1-9.4-7.357c-1.211-5.2,2.277-10.454,7.8-11.737s10.978,1.888,12.189,7.09A9.19,9.19,0,0,1,438.577,170.8Z" fill="#008dd1"/>
            <g id="Group_289166" data-name="Group 289166">
              <g id="Group_289165" data-name="Group 289165" clip-path="url(#clip-path-2)">
                <g id="Group_289164" data-name="Group 289164">
                  <path id="Path_125511" data-name="Path 125511" d="M420.806,178.616a.256.256,0,0,1-.044-.509c2.394-.417,3.588-5.1,2.659-10.43s-3.628-9.331-6.027-8.919a.257.257,0,0,1-.087-.506c2.721-.461,5.627,3.629,6.62,9.337s-.359,10.55-3.077,11.024Z" fill="#2c2a2b"/>
                </g>
              </g>
            </g>
            <path id="Path_125512" data-name="Path 125512" d="M438.577,170.8a10.426,10.426,0,0,1-6.895,5.2,10.808,10.808,0,0,1-2.78.277c4.524-5.2,4-14.764,3.909-15.339Z" fill="#2c2a2b"/>
            <path id="Path_125513" data-name="Path 125513" d="M514.894,168.927a9.856,9.856,0,0,1-10.619,7.326,10.479,10.479,0,0,1-1.56-.246,10.33,10.33,0,0,1-7.756-7.388,9.12,9.12,0,0,1-.052-4.339c1.211-5.2,6.669-8.372,12.189-7.09S516.1,163.726,514.894,168.927Z" fill="#008dd1"/>
            <path id="Path_125514" data-name="Path 125514" d="M504.275,176.253a10.479,10.479,0,0,1-1.56-.246,10.33,10.33,0,0,1-7.756-7.388l6.063-7.674C500.95,161.622,499.863,170.62,504.275,176.253Z" fill="#2c2a2b"/>
            <g id="Group_289169" data-name="Group 289169">
              <g id="Group_289168" data-name="Group 289168" clip-path="url(#clip-path-3)">
                <g id="Group_289167" data-name="Group 289167">
                  <path id="Path_125515" data-name="Path 125515" d="M513.593,178.616a.314.314,0,0,1-.044,0c-2.718-.474-4.07-5.316-3.076-11.024s3.909-9.8,6.619-9.337a.257.257,0,0,1,.209.3.261.261,0,0,1-.3.209c-2.394-.413-5.1,3.587-6.026,8.919s.264,10.013,2.659,10.43a.256.256,0,0,1-.044.509Z" fill="#2c2a2b"/>
                </g>
              </g>
            </g>
            <path id="Path_125516" data-name="Path 125516" d="M487.413,189.764H446.656a11.231,11.231,0,0,1-11.077-9.376l-4.5-26.862a9.33,9.33,0,0,1,9.2-10.872h53.507a9.331,9.331,0,0,1,9.2,10.872l-4.5,26.862A11.23,11.23,0,0,1,487.413,189.764Z" fill="#008dd1"/>
            <g id="Group_289170" data-name="Group 289170">
              <path id="Path_125517" data-name="Path 125517" d="M466.3,146.427a.593.593,0,0,1-.294-.079c-.8-.459-.989-4.222-.915-6.135.128-3.263,1.036-9.068,5.689-11.28A.592.592,0,0,1,471.29,130a8.334,8.334,0,0,0-4.206,5.329,20.228,20.228,0,0,0-.351,10.1.592.592,0,0,1-.431,1Zm.3-1.1h0Z" fill="#5ac7e0"/>
            </g>
            <path id="Path_125518" data-name="Path 125518" d="M477.928,125.565c1.075,1.862.07,4.454-2.246,5.791s-5.063.911-6.138-.95-.069-4.455,2.246-5.792S476.854,123.7,477.928,125.565Z" fill="#5ac7e0"/>
            <g id="Group_289171" data-name="Group 289171">
              <path id="Path_125519" data-name="Path 125519" d="M444.942,190.02a.257.257,0,0,1-.254-.221l-6.551-46.949a.256.256,0,1,1,.507-.071l6.552,46.949a.256.256,0,0,1-.219.29A.2.2,0,0,1,444.942,190.02Z" fill="#2c2a2b"/>
            </g>
            <g id="Group_289172" data-name="Group 289172">
              <path id="Path_125520" data-name="Path 125520" d="M488.8,190.02a.217.217,0,0,1-.036,0,.256.256,0,0,1-.218-.29l6.551-46.949a.256.256,0,1,1,.508.071L489.059,189.8A.257.257,0,0,1,488.8,190.02Z" fill="#2c2a2b"/>
            </g>
            <path id="Path_125521" data-name="Path 125521" d="M495.517,161.1c0,9.084-6.451,21.948-28.723,21.948-21,0-28.242-12.864-28.242-21.948s13.335-10.947,28.242-10.947S495.517,152.016,495.517,161.1Z" fill="#fff"/>
            <g id="Group_289173" data-name="Group 289173">
              <path id="Path_125522" data-name="Path 125522" d="M457.528,164.676a6.473,6.473,0,1,1-6.472-6.473A6.473,6.473,0,0,1,457.528,164.676Z" fill="#2c2a2b"/>
              <path id="Path_125523" data-name="Path 125523" d="M489.487,164.676a6.473,6.473,0,1,1-6.473-6.473A6.473,6.473,0,0,1,489.487,164.676Z" fill="#2c2a2b"/>
            </g>
          </g>
          <path id="Path_125524" data-name="Path 125524" d="M521.994,219.9l-.759,3.334a101.544,101.544,0,0,1-19.411,40.7c-22.993,28.748-49.114,28.963-72.589-2.719a101.184,101.184,0,0,1-17.123-37.674l-.842-3.642c-2.606-11.348,7.6-21.9,21.2-21.9H500.8C514.392,197.993,524.611,208.55,521.994,219.9Z" fill="#008dd1"/>
          <g id="Group_289179" data-name="Group 289179">
            <g id="Group_289178" data-name="Group 289178" clip-path="url(#clip-path-4)">
              <path id="Path_125525" data-name="Path 125525" d="M524.967,220.245c1.53,6.574-1.633,12.928-7.064,14.192s-11.074-3.041-12.6-9.615,1.633-12.928,7.064-14.192S523.438,213.671,524.967,220.245Z" fill="#2c2a2b"/>
              <g id="Group_289175" data-name="Group 289175">
                <path id="Path_125526" data-name="Path 125526" d="M514.087,238.709c-7.471,0-14.264-6.93-15.568-16.279-1.4-10.043,4.052-19.134,12.158-20.265,8.1-1.114,15.839,6.12,17.24,16.163h0c1.4,10.043-4.054,19.134-12.159,20.265A12.259,12.259,0,0,1,514.087,238.709Zm-1.736-36.075a11.594,11.594,0,0,0-1.594.11c-7.785,1.087-13.017,9.881-11.66,19.606s8.787,16.749,16.582,15.664,13.015-9.882,11.66-19.606h0C526.074,209.352,519.533,202.634,512.351,202.634Z" fill="#2c2a2b"/>
              </g>
              <g id="Group_289176" data-name="Group 289176">
                <path id="Path_125527" data-name="Path 125527" d="M406.506,234.92a12.156,12.156,0,0,1-3.97-.66c-7.738-2.664-11.349-12.633-8.047-22.22a20.709,20.709,0,0,1,8.316-10.865,13.482,13.482,0,0,1,11.7-1.692c7.738,2.664,11.347,12.632,8.048,22.219h0C419.81,229.681,413.13,234.92,406.506,234.92Zm4-35.519a13.883,13.883,0,0,0-7.393,2.269,20.119,20.119,0,0,0-8.075,10.559c-3.2,9.284.251,18.918,7.684,21.478S418.808,230.8,422,221.513s-.252-18.917-7.685-21.477A11.66,11.66,0,0,0,410.51,199.4Zm11.77,22.206h0Z" fill="#2c2a2b"/>
              </g>
              <g id="Group_289177" data-name="Group 289177">
                <path id="Path_125528" data-name="Path 125528" d="M466.281,295.827c-15.814,0-28.68-4.747-28.68-10.583s12.866-10.582,28.68-10.582,28.682,4.747,28.682,10.582S482.1,295.827,466.281,295.827Zm0-20.581c-15.492,0-28.1,4.485-28.1,10s12.6,10,28.1,10,28.1-4.485,28.1-10S481.774,275.246,466.281,275.246Z" fill="#2c2a2b"/>
              </g>
            </g>
          </g>
          <g id="Group_289180" data-name="Group 289180">
            <path id="Path_125529" data-name="Path 125529" d="M506.2,264.1c-7.875,0-17.318-2.8-28.662-8.4a5.13,5.13,0,1,1,4.547-9.2c24.734,12.23,31.726,6.056,34.359,3.733,4.049-3.575,2.286-9.48-2.394-21.179-1.617-4.041-3.288-8.219-4.55-12.58a5.13,5.13,0,1,1,9.855-2.851c1.122,3.872,2.7,7.811,4.221,11.619,4.486,11.216,9.572,23.928-.342,32.682A24.716,24.716,0,0,1,506.2,264.1Z" fill="#0271a6"/>
          </g>
          <path id="Path_125530" data-name="Path 125530" d="M499.618,197.993c0,1.077-14.59,1.939-32.585,1.939s-32.575-.862-32.575-1.939Z" fill="#2c2a2b"/>
          <g id="Group_289186" data-name="Group 289186">
            <g id="Group_289185" data-name="Group 289185" clip-path="url(#clip-path-5)">
              <g id="Group_289181" data-name="Group 289181">
                <path id="Path_125531" data-name="Path 125531" d="M480.871,266.685a7.855,7.855,0,0,1-1.1-.077.289.289,0,0,1-.249-.329.286.286,0,0,1,.329-.249,8.829,8.829,0,0,0,7.546-3.015,16.8,16.8,0,0,0,4.3-9.341c1.057-7.578-2.536-14.364-8.007-15.128a.292.292,0,0,1-.25-.329.286.286,0,0,1,.33-.249c5.792.807,9.607,7.889,8.506,15.786a17.386,17.386,0,0,1-4.456,9.667A9.719,9.719,0,0,1,480.871,266.685Z" fill="#2c2a2b"/>
              </g>
              <g id="Group_289182" data-name="Group 289182">
                <path id="Path_125532" data-name="Path 125532" d="M499.771,271.709a7.8,7.8,0,0,1-1.086-.076.292.292,0,0,1-.25-.329.287.287,0,0,1,.33-.249c5.473.765,10.785-4.78,11.843-12.357s-2.536-14.363-8.007-15.128a.292.292,0,1,1,.08-.578c5.792.809,9.607,7.891,8.506,15.786C510.153,266.179,505.162,271.709,499.771,271.709Z" fill="#2c2a2b"/>
              </g>
              <g id="Group_289183" data-name="Group 289183">
                <path id="Path_125533" data-name="Path 125533" d="M534.586,252.45h-.021a.292.292,0,0,1-.271-.312c.391-5.512-5.5-10.437-13.13-10.979s-14.157,3.5-14.549,9.014a.293.293,0,0,1-.584-.041c.414-5.834,7.22-10.122,15.174-9.557s14.087,5.771,13.673,11.6A.293.293,0,0,1,534.586,252.45Z" fill="#2c2a2b"/>
              </g>
              <g id="Group_289184" data-name="Group 289184">
                <path id="Path_125534" data-name="Path 125534" d="M505.038,232.966a.291.291,0,0,1-.291-.27c-.445-5.831,5.66-11.069,13.609-11.675a17.361,17.361,0,0,1,10.395,2.292,9.382,9.382,0,0,1,4.831,7.181.292.292,0,0,1-.27.314.274.274,0,0,1-.313-.269,8.817,8.817,0,0,0-4.555-6.729A16.787,16.787,0,0,0,518.4,221.6c-7.629.582-13.492,5.539-13.071,11.048a.293.293,0,0,1-.27.315Z" fill="#2c2a2b"/>
              </g>
            </g>
          </g>
          <g id="Group_289187" data-name="Group 289187">
            <path id="Path_125535" data-name="Path 125535" d="M482.906,238.292h-34.48a5.781,5.781,0,0,1-5.7-4.811l-2.325-13.66a5.782,5.782,0,0,1,5.7-6.752h39.132a5.782,5.782,0,0,1,5.7,6.752l-2.325,13.66A5.781,5.781,0,0,1,482.906,238.292Z" fill="#0271a6"/>
            <path id="Path_125536" data-name="Path 125536" d="M482.906,238.549h-34.48a6.022,6.022,0,0,1-5.952-5.026l-2.326-13.66a6.037,6.037,0,0,1,5.953-7.05h39.13a6.037,6.037,0,0,1,5.953,7.05l-2.326,13.66A6.022,6.022,0,0,1,482.906,238.549Zm-36.8-25.223a5.524,5.524,0,0,0-5.447,6.451l2.325,13.661a5.511,5.511,0,0,0,5.447,4.6h34.48a5.509,5.509,0,0,0,5.446-4.6l2.326-13.661a5.524,5.524,0,0,0-5.447-6.451Z" fill="#fff"/>
          </g>
          <g id="Group_289188" data-name="Group 289188">
            <path id="Path_125537" data-name="Path 125537" d="M480.214,222.032h0Z" fill="#0b42f8"/>
            <path id="Path_125538" data-name="Path 125538" d="M485.114,222.288h-4.9a.257.257,0,0,1,0-.514h4.9a.257.257,0,0,1,0,.514Z" fill="#fff"/>
          </g>
          <g id="Group_289189" data-name="Group 289189">
            <path id="Path_125539" data-name="Path 125539" d="M463.212,222.032h0Z" fill="#0b42f8"/>
            <path id="Path_125540" data-name="Path 125540" d="M477.56,222.288H463.212a.257.257,0,1,1,0-.514H477.56a.257.257,0,0,1,0,.514Z" fill="#fff"/>
          </g>
          <g id="Group_289190" data-name="Group 289190">
            <path id="Path_125541" data-name="Path 125541" d="M446.218,222.032h0Z" fill="#0b42f8"/>
            <path id="Path_125542" data-name="Path 125542" d="M457.573,222.288H446.218a.257.257,0,0,1,0-.514h11.355a.257.257,0,0,1,0,.514Z" fill="#fff"/>
          </g>
          <g id="Group_289191" data-name="Group 289191">
            <path id="Path_125543" data-name="Path 125543" d="M472.833,229.33h0Z" fill="#0b42f8"/>
            <path id="Path_125544" data-name="Path 125544" d="M485.114,229.587H472.833a.257.257,0,1,1,0-.514h12.281a.257.257,0,0,1,0,.514Z" fill="#fff"/>
          </g>
          <g id="Group_289192" data-name="Group 289192">
            <path id="Path_125545" data-name="Path 125545" d="M453.758,229.33h0Z" fill="#0b42f8"/>
            <path id="Path_125546" data-name="Path 125546" d="M468.52,229.587H453.758a.257.257,0,0,1,0-.514H468.52a.257.257,0,1,1,0,.514Z" fill="#fff"/>
          </g>
          <g id="Group_289193" data-name="Group 289193">
            <path id="Path_125547" data-name="Path 125547" d="M446.218,229.33h0Z" fill="#0b42f8"/>
            <path id="Path_125548" data-name="Path 125548" d="M450.606,229.587h-4.388a.257.257,0,0,1,0-.514h4.388a.257.257,0,1,1,0,.514Z" fill="#fff"/>
          </g>
        </g>
        <path id="Path_125549" data-name="Path 125549" d="M468.954,173.948a1.917,1.917,0,1,1-1.916-1.916A1.916,1.916,0,0,1,468.954,173.948Z" fill="#1388e5"/>
        <g id="Group_289195" data-name="Group 289195">
          <path id="Path_125550" data-name="Path 125550" d="M465.666,318.986c-11.177,0-23.056-1.606-23.056-4.583s11.879-4.582,23.056-4.582,23.056,1.606,23.056,4.582S476.843,318.986,465.666,318.986Zm0-8.415c-13.146,0-22.306,2.02-22.306,3.832s9.16,3.833,22.306,3.833,22.306-2.02,22.306-3.833S478.811,310.571,465.666,310.571Z" fill="#008dd1"/>
        </g>
        <g id="Group_289196" data-name="Group 289196">
          <path id="Path_125551" data-name="Path 125551" d="M465.666,303.8c-20.515,0-42.317-2.083-42.317-5.944s21.8-5.944,42.317-5.944,42.317,2.083,42.317,5.944S486.181,303.8,465.666,303.8Zm0-11.138c-24.5,0-41.567,2.737-41.567,5.194s17.071,5.194,41.567,5.194,41.567-2.738,41.567-5.194S490.162,292.666,465.666,292.666Z" fill="#008dd1"/>
        </g>
        <path id="Path_125552" data-name="Path 125552" d="M447.675,163.653a1.023,1.023,0,1,1-1.023-1.023A1.023,1.023,0,0,1,447.675,163.653Z" fill="#fff"/>
        <path id="Path_125553" data-name="Path 125553" d="M480.677,163.653a1.023,1.023,0,1,1-1.023-1.023A1.023,1.023,0,0,1,480.677,163.653Z" fill="#fff"/>
      </g>
      <g id="Group_225" data-name="Group 225" transform="translate(87.605 73.321)">
        <path id="Path_2232" data-name="Path 2232" d="M1721.2,1586.41l.767,8.806,14.654,8.065h-24.57l1.084-7.686-.17-8.809Z" transform="translate(-1633.332 -1306.688)" fill="#ffcea1"/>
        <path id="Path_2233" data-name="Path 2233" d="M1712.05,1613.584l1.084-7.686,1.358.994a4.365,4.365,0,0,0,4.825.218l2.646-1.591,14.655,8.066Z" transform="translate(-1633.331 -1316.989)" fill="url(#linear-gradient)"/>
        <path id="Path_2234" data-name="Path 2234" d="M1559.842,1555.068l-5.912,6.571,4.107,16.215-16.77-17.957,6.357-4.453,6.323-6.138Z" transform="translate(-1541.267 -1286.687)" fill="#ffcea1"/>
        <path id="Path_2235" data-name="Path 2235" d="M1541.27,1567.083l6.357-4.453.2,1.671a4.367,4.367,0,0,0,3.136,3.675l2.969.848,4.107,16.215Z" transform="translate(-1541.269 -1293.868)" fill="url(#linear-gradient-2)"/>
        <path id="Path_2236" data-name="Path 2236" d="M1589.3,1327.88s-.929,42.812,0,59.565l-29.371,44.447,9.308,9.307s49.845-43.438,49.845-47.9,4.654-54.718,4.654-54.718Z" transform="translate(-1551.329 -1167.323)" fill="#284f63"/>
        <path id="Path_2237" data-name="Path 2237" d="M1607.078,1285.48s-.276,21.871,4.842,30.714,34.814,43.618,34.814,43.618l6.6,69h16.752s3.257-70.268,0-80.04-19.545-63.286-19.545-63.286Z" transform="translate(-1576.743 -1144.466)" fill="#284f63"/>
        <path id="Path_2238" data-name="Path 2238" d="M1692.6,1149.64s14.388,31.473,17.645,32.636,26.525,6.683,26.525,6.683v10.009s-26.525.763-33.04-1.564-21.639-33.97-21.639-33.97Z" transform="translate(-1617.181 -1071.24)" fill="#60a6df"/>
        <path id="Path_2239" data-name="Path 2239" d="M1617.278,1103.73s-19.079,3.723-19.079,22.337-6.981,75.387,0,76.782,51.188,6.981,54.446,0-4.3-78.644-9.539-85.624S1629.029,1102.684,1617.278,1103.73Z" transform="translate(-1570.284 -1046.439)" fill="#60a6df"/>
        <path id="Path_2240" data-name="Path 2240" d="M1610.885,1121.362a12.69,12.69,0,0,1,19.191.691c10.155,12.64,25.912,31.231,31.418,32.114,8.376,1.343,42.58-1.451,42.58-1.451l1.446,9.821s-49.609,9.723-54.495,9.374c-3.435-.245-26.185-20.5-39.4-32.508a12.688,12.688,0,0,1-.739-18.044Z" transform="translate(-1576.956 -1053.812)" fill="#4c98d5"/>
        <path id="Path_2241" data-name="Path 2241" d="M1661.769,1027.53s4.781,34.809-8.157,33.6-14.318-16.733-12.592-27.773Z" transform="translate(-1594.718 -1005.415)" fill="#ffcea1"/>
        <path id="Path_2242" data-name="Path 2242" d="M1635.041,1022.5l-2.07-10.7s17.521-6.728,16.351-12.421c0,0,13.838-15.007,1.417-19.837,0,0-7.245,7.418-13.973,7.935s-15.353,1.035-15.525,5.69-2.415,10.922-4.312,11.67,3.1,21.449,13.11,27.487l-1.725-16.388,3.622.517,1.38,6.555Z" transform="translate(-1581.84 -979.55)" fill="#222"/>
        <path id="Path_2243" data-name="Path 2243" d="M1654.783,1088.891l.97,4.2a5.291,5.291,0,0,1-6.142,6.387h0a5.289,5.289,0,0,1-4.3-4.869l-.84-13.482Z" transform="translate(-1596.902 -1034.307)" fill="#ffcea1"/>
        <path id="Path_2244" data-name="Path 2244" d="M1643.977,1058.361s-3.8-2.459-4.965,0,4.965,5.833,4.965,5.833Z" transform="translate(-1593.879 -1021.445)" fill="#ffcea1"/>
        <path id="Path_2245" data-name="Path 2245" d="M1800.71,1229.132s3.924.375,6.018-1.6,2.327-3.839,3.839-3.257-2.908,4.89-1.745,4.888a16.24,16.24,0,0,0,7.136-2.555c2.648-1.756,5.661,11.951-3.3,12.648s-11.951-.12-11.951-.12Z" transform="translate(-1681.124 -1111.414)" fill="#ffcea1"/>
        <path id="Path_2246" data-name="Path 2246" d="M1817.05,1189.219s2.967.022,4.013-1.636,2.094-2.967,3.141-2.443-2.618,3.316-1.832,3.578,7.094-2.53,8.9-2.53-5.584,4.078-5.5,4.275,3.6,5.642-.571,7.033a32.107,32.107,0,0,1-6.709,1.545Z" transform="translate(-1689.932 -1090.314)" fill="#ffcea1"/>
      </g>
    </g>
    <rect id="Rectangle_161183" data-name="Rectangle 161183" width="570" height="1.867" rx="0.934" transform="translate(807 1278)" fill="#2e3552"/>
  </g>
</svg>
