<svg xmlns="http://www.w3.org/2000/svg" width="570" height="359.448" viewBox="0 0 570 359.448">
  <g id="Chatbot_Development_banner" transform="translate(17809.458 19566.661)">
    <g id="Group_289065" data-name="Group 289065">
      <g id="Group_289063" data-name="Group 289063" transform="translate(-18178.621 -19691.875)">
        <path id="Path_125274" data-name="Path 125274" d="M406.6,483.11c-17.65-21.338-29.226-48.792-34.233-75.83-10-53.99,9.22-112.531,46.239-152.723,30.8-33.439,76.2-45.216,120.261-46.526,19.039-.566,38.066.686,57,2.592,12.2,1.229,24.75,3.553,37.052,3.156,11.644-.375,19.022-9.665,25.483-18.262,10.443-13.9,20.685-27.591,34.41-38.5,37.275-29.639,94.653-42.562,138.826-21.236a87.882,87.882,0,0,1,44.318,48.629c10.1,27.229,7.4,57.453-.045,84.969-5.435,20.169-9.544,41.822-2.438,62.157,7.391,21.151,25.886,34.131,39.312,51.108,23.64,29.89,17.194,67.87,5.8,101.589Z" transform="translate(-0.452)" fill="#ebf3fa"/>
        <path id="Path_125275" data-name="Path 125275" d="M653.244,1260.394s29.9,15.536,26.665,20.92-32.068-19.713-32.068-19.713-30.643,15.075-37.178,25.3c0,0,37.221,4.94,32.761,9.363s-43.431,1.081-43.431,1.081-24.075,21.219-12.49,36.745,23.991,14.862,27.8,11.905,22.015-26.8,24.6-23.779-5.016,22.8-14.748,29.527c0,0,31.908,9.189,40.781-4.646s4.031-24.071,9.67-32.52,12.353-12.59,11.373-6.922-13,18.021-12.581,28.751-.294,18.585,11.536,8.556,27.13-32.686,21.3-44.191l-.729-1.439a6.173,6.173,0,0,1,.729,1.439c3.016-1.2,11.745.31,18.252,1.708,1.057.3,2.572.654,4.679,1.065h0c.925.222,1.677.41,2.2.542,13.848,4.058,30.3,20.573,30.3,20.573l2.69-2.016c-13.908-20.054-36.769-21.954-36.769-21.954-17-2.942-27.183-11.424-27.183-11.424s5.162-33.086-20.724-36.066C680.677,1253.2,663.217,1253.363,653.244,1260.394Z" transform="translate(-167.435 -877.672)" fill="#dfebfd"/>
        <path id="Path_125276" data-name="Path 125276" d="M793.1,733.66s4.826,25.824-.035,26.425-3.3-29.163-3.3-29.163-23.98-11.574-33.4-10.675c0,0,14.85,25.23,9.991,24.616s-21.531-26.15-21.531-26.15-24.6-4.589-28.565,9.986,2.4,21.872,6.045,22.788,27.032.643,26.42,3.68-16.412,7.876-25.217,5.13c0,0,9.688,24.008,22.447,22.81s16.718-9.09,24.616-9.687,13.666,1.537,9.715,3.658-17.314.674-23.7,6.088-11.554,8.748.289,11.194,33.106.955,37.371-8.151l.533-1.139a4.822,4.822,0,0,1-.533,1.139c2.184,1.277,5.453,7.361,7.721,12.028.323.794.834,1.893,1.594,3.385h0c.308.675.554,1.226.724,1.612,4.162,10.453,1.926,28.492,1.926,28.492l2.53.683c5.632-18.176-4.185-33.126-4.185-33.126-6.363-11.854-6.046-22.181-6.046-22.181s22.8-12.727,12.189-30.054C810.7,747.048,802.21,736.406,793.1,733.66Z" transform="translate(-269.096 -461.263)" fill="#dfebfd"/>
        <path id="Path_125277" data-name="Path 125277" d="M1847.164,431.935c-6.287-23.213-45.458-15.959-45.458-15.959s-26.6,40.622-34.335,41.589,15.959-39.172,15.959-39.172c-14.992-1.451-53.2,16.926-53.2,16.926s2.418,47.393-5.32,46.425,0-42.073,0-42.073c-14.508,4.352-28.048,21.278-28.048,21.278-16.926,27.565,19.344,47.876,19.344,47.876s.483,16.442-9.672,35.3h0a55.958,55.958,0,0,0-4.621,9.4h3.955q.485-1.591,1.073-3.07a.023.023,0,0,1,.008-.018l.017-.043c.271-.611.66-1.481,1.146-2.54l0,0s0,0,0-.005c1.208-2.365,2.025-4.113,2.541-5.375a.04.04,0,0,0,0-.012c3.621-7.426,8.837-17.1,12.316-19.13a7.66,7.66,0,0,1-.847-1.814l.847,1.814c6.77,14.508,40.622,16.926,59.483,13.057s10.639-9.188.483-17.822-31.434-6.358-37.72-9.743,2.9-6.77,15.475-5.8,18.86,13.541,39.172,15.475,35.786-36.27,35.786-36.27c-14.024,4.352-39.171-3.385-40.139-8.221s36.27-4.352,42.073-5.8S1853.451,455.148,1847.164,431.935Z" transform="translate(-1029.351 -225.404)" fill="#dfebfd"/>
        <g id="Group_289019" data-name="Group 289019" transform="translate(832.845 303.115)">
          <path id="Path_125278" data-name="Path 125278" d="M2407.838,908.867h-54.786a7.964,7.964,0,0,0-7.941,7.94v24.036a7.315,7.315,0,0,0,7.294,7.293h1.407l-2.64,11.149,16.572-11.149h40.567a7.957,7.957,0,0,0,7.934-7.934V917.274A8.431,8.431,0,0,0,2407.838,908.867Z" transform="translate(-2345.111 -908.867)" fill="#d2e2f9"/>
          <g id="Group_289018" data-name="Group 289018" transform="translate(5.657 4.243)">
            <path id="Path_125279" data-name="Path 125279" d="M2429.144,977.566h-57.125a1.419,1.419,0,0,1-1.415-1.415h0a1.419,1.419,0,0,1,1.415-1.415h57.125a1.419,1.419,0,0,1,1.415,1.415h0A1.419,1.419,0,0,1,2429.144,977.566Z" transform="translate(-2370.604 -964.363)" fill="#b4cffc"/>
            <path id="Path_125280" data-name="Path 125280" d="M2429.144,1006.1h-57.125a1.419,1.419,0,0,1-1.415-1.415h0a1.419,1.419,0,0,1,1.415-1.415h57.125a1.419,1.419,0,0,1,1.415,1.415h0A1.419,1.419,0,0,1,2429.144,1006.1Z" transform="translate(-2370.604 -986.566)" fill="#b4cffc"/>
            <path id="Path_125281" data-name="Path 125281" d="M2429.144,1034.637h-57.125a1.419,1.419,0,0,1-1.415-1.415h0a1.419,1.419,0,0,1,1.415-1.415h57.125a1.419,1.419,0,0,1,1.415,1.415h0A1.419,1.419,0,0,1,2429.144,1034.637Z" transform="translate(-2370.604 -1008.769)" fill="#b4cffc"/>
            <path id="Path_125282" data-name="Path 125282" d="M2403.217,931.356h-24.251a1.689,1.689,0,0,1-1.684-1.684h0a1.689,1.689,0,0,1,1.684-1.684h24.251a1.689,1.689,0,0,1,1.685,1.684h0A1.689,1.689,0,0,1,2403.217,931.356Z" transform="translate(-2375.8 -927.988)" fill="#b4cffc"/>
            <rect id="Rectangle_161053" data-name="Rectangle 161053" width="17.255" height="3.368" rx="1.684" transform="translate(32.335 0)" fill="#b4cffc"/>
          </g>
        </g>
        <rect id="Rectangle_161054" data-name="Rectangle 161054" width="182.168" height="305.703" rx="39" transform="translate(548.329 173.892)" fill="#c0d8fb"/>
        <g id="Group_289021" data-name="Group 289021" transform="translate(604.796 412.194)">
          <rect id="Rectangle_161055" data-name="Rectangle 161055" width="84.797" height="32.069" rx="16.035" transform="translate(84.797 32.069) rotate(180)" fill="#fff"/>
        </g>
        <g id="Group_289022" data-name="Group 289022" transform="translate(585.356 369.64)">
          <path id="Rectangle_161056" data-name="Rectangle 161056" d="M14.217,0H70.58A14.217,14.217,0,0,1,84.8,14.217v0A14.217,14.217,0,0,1,70.58,28.434H14.217A14.217,14.217,0,0,1,0,14.217v0A14.217,14.217,0,0,1,14.217,0Z" transform="translate(84.797 28.434) rotate(180)" fill="#4e95cf"/>
        </g>
        <rect id="Rectangle_161057" data-name="Rectangle 161057" width="176.31" height="117.529" transform="translate(550.995 173.892)" fill="#f0f6ff"/>
        <g id="Group_289034" data-name="Group 289034" transform="translate(572.884 196.563)">
          <g id="Group_289025" data-name="Group 289025" transform="translate(121.26 67.037)">
            <g id="Group_289023" data-name="Group 289023" transform="translate(2.392 0.856)">
              <path id="Path_125286" data-name="Path 125286" d="M1753.381,756.752a1.51,1.51,0,0,1-2.622,1.194c-.566-.623-2.423-2.249-4.156-2.247a2.978,2.978,0,0,0-2.242,1.136c-2.659,2.94,1.121,7.278,1.159,7.321a1.51,1.51,0,1,1-2.26,2c-1.951-2.2-4.7-7.411-1.139-11.348a5.983,5.983,0,0,1,4.5-2.131,7.943,7.943,0,0,1,4.558,1.655,11.84,11.84,0,0,1,1.831,1.594A1.5,1.5,0,0,1,1753.381,756.752Z" transform="translate(-1740.396 -752.68)" fill="#2c3a64"/>
            </g>
            <g id="Group_289024" data-name="Group 289024">
              <path id="Path_125287" data-name="Path 125287" d="M1735.323,753.083a1.1,1.1,0,0,1-1.833.815l-3.512-3.161a1.1,1.1,0,1,1,1.469-1.632l3.512,3.161A1.1,1.1,0,0,1,1735.323,753.083Z" transform="translate(-1729.615 -748.823)" fill="#2c3a64"/>
            </g>
          </g>
          <g id="Group_289026" data-name="Group 289026" transform="translate(86.391 49.454)">
            <path id="Path_125288" data-name="Path 125288" d="M1609.607,690.486l-.3.2a6.546,6.546,0,0,1-1.069.58l-.012,0a6.558,6.558,0,0,1-7.183-1.406,31.767,31.767,0,0,0-15.663-8.161c-.249-.057-.5-.11-.741-.161a45.588,45.588,0,0,0-6.562-.889,5.843,5.843,0,0,1-5.465-5.295l-.019-.2-.091-1a4.182,4.182,0,0,1,4.282-4.569,57.409,57.409,0,0,1,9.312,1.028,50.921,50.921,0,0,1,7.647,2.1,40.182,40.182,0,0,1,16.745,11.163A4.437,4.437,0,0,1,1609.607,690.486Z" transform="translate(-1572.483 -669.59)" fill="#97bdff"/>
          </g>
          <path id="Path_125289" data-name="Path 125289" d="M1650.849,694.878a6.558,6.558,0,0,1-7.183-1.406A31.765,31.765,0,0,0,1628,685.311c-.249-.057-.5-.11-.741-.161.567-5.339,1.157-10.759,1.157-10.759l.3-.161a50.934,50.934,0,0,1,7.647,2.1s-1.217,5.37,3.2,7.972S1647.6,695.988,1650.849,694.878Z" transform="translate(-1528.714 -623.746)" fill="#4c88f2"/>
          <g id="Group_289027" data-name="Group 289027" transform="translate(52.286 41.186)">
            <path id="Path_125290" data-name="Path 125290" d="M1420.373,637.9c-2.255-2.022-1.439-5.429-1.4-5.574l2.152.611-1.076-.305,1.077.3c-.005.021-.484,2.1.683,3.149Z" transform="translate(-1418.797 -632.329)" fill="#60a6df"/>
          </g>
          <g id="Group_289028" data-name="Group 289028" transform="translate(82.716 41.186)">
            <path id="Path_125291" data-name="Path 125291" d="M1557.357,637.9c2.255-2.022,1.439-5.429,1.4-5.574l-2.152.611,1.076-.305-1.077.3c.005.021.484,2.1-.682,3.149Z" transform="translate(-1555.925 -632.329)" fill="#60a6df"/>
          </g>
          <path id="Path_125292" data-name="Path 125292" d="M1337.857,651.984v46.367h57.6V651.984a3.794,3.794,0,0,0-3.781-3.784h-50.035a3.733,3.733,0,0,0-1.888.51,3.808,3.808,0,0,0-1.609,1.83A3.754,3.754,0,0,0,1337.857,651.984Z" transform="translate(-1303.532 -603.492)" fill="#0271a6"/>
          <path id="Path_125293" data-name="Path 125293" d="M1397.574,651.984v46.367h57.6V651.984a3.794,3.794,0,0,0-3.784-3.784h-50.032A3.794,3.794,0,0,0,1397.574,651.984Z" transform="translate(-1349.997 -603.492)" fill="#60a6df"/>
          <rect id="Rectangle_161058" data-name="Rectangle 161058" width="18.29" height="2.313" transform="translate(63.126 42.394)" fill="#97bdff"/>
          <rect id="Rectangle_161059" data-name="Rectangle 161059" width="10.577" height="2.313" transform="translate(55.879 42.394)" fill="#4c88f2"/>
          <path id="Path_125294" data-name="Path 125294" d="M1607.656,670.061l-2.674,3.313a1.139,1.139,0,0,1-1.775,0l-1.07-1.325-1.708-2.117a.671.671,0,0,1,.521-1.093h6.121A.751.751,0,0,1,1607.656,670.061Z" transform="translate(-1507.72 -619.551)" fill="#97bdff"/>
          <path id="Path_125295" data-name="Path 125295" d="M1614.173,670.061l-2.674,3.313a1.139,1.139,0,0,1-1.775,0l-1.07-1.325a4.807,4.807,0,0,0,3.567-3.21h1.367A.751.751,0,0,1,1614.173,670.061Z" transform="translate(-1514.237 -619.551)" fill="#4c88f2"/>
          <g id="Group_289029" data-name="Group 289029" transform="translate(8.806 23.096)">
            <path id="Path_125296" data-name="Path 125296" d="M1258.348,585.524l0-.006.369-1.084.074-.214a6.717,6.717,0,0,0-3.244-8.119,52.36,52.36,0,0,1-7.161-4.53c-6.07-4.586-10.286-9.918-12.588-15.912a7.523,7.523,0,0,0-8.275-4.743l-.412.071a5.091,5.091,0,0,0-3.488,2.352,5.038,5.038,0,0,0-.534,4.16c5.431,17.574,20.647,26.961,28.621,30.8A4.8,4.8,0,0,0,1258.348,585.524Z" transform="translate(-1222.864 -550.81)" fill="#60a6df"/>
          </g>
          <path id="Path_125297" data-name="Path 125297" d="M1261.019,585.518l.369-1.084.074-.214a6.717,6.717,0,0,0-3.244-8.119,52.374,52.374,0,0,1-7.161-4.53c-6.07-4.586-10.286-9.918-12.589-15.912a7.523,7.523,0,0,0-8.275-4.743l-.412.071a5.091,5.091,0,0,0-3.488,2.352c3.363-.757,7.25-.592,8.878,3.38,3.133,7.65,12.375,15.969,19.83,20.46C1262.288,581.566,1261.077,585.352,1261.019,585.518Z" transform="translate(-1216.726 -527.714)" fill="#4c88f2"/>
          <g id="Group_289032" data-name="Group 289032" transform="translate(0 7.767)">
            <g id="Group_289030" data-name="Group 289030">
              <path id="Path_125298" data-name="Path 125298" d="M1197.427,481.916a1.734,1.734,0,0,0-2.285,2.394c.462.849,1.526,3.477.869,5.357a3.422,3.422,0,0,1-2.079,2c-4.193,1.775-7.473-3.962-7.506-4.02a1.734,1.734,0,1,0-3.025,1.7c1.655,2.948,6.268,7.894,11.883,5.517a6.873,6.873,0,0,0,4.008-4.074,9.121,9.121,0,0,0-.075-5.57,13.656,13.656,0,0,0-1.039-2.589A1.727,1.727,0,0,0,1197.427,481.916Z" transform="translate(-1183.179 -481.737)" fill="#2c3a64"/>
            </g>
            <g id="Group_289031" data-name="Group 289031" transform="translate(9.649 10.852)">
              <path id="Path_125299" data-name="Path 125299" d="M1228.334,530.708a1.261,1.261,0,0,0-1.575,1.681l2.1,5a1.261,1.261,0,1,0,2.325-.978l-2.1-5A1.258,1.258,0,0,0,1228.334,530.708Z" transform="translate(-1226.66 -530.639)" fill="#2c3a64"/>
            </g>
          </g>
          <path id="Path_125300" data-name="Path 125300" d="M1439.177,496.5a2.8,2.8,0,1,0-2.8,2.8A2.8,2.8,0,0,0,1439.177,496.5Z" transform="translate(-1378.007 -483.278)" fill="#2c3a64"/>
          <path id="Path_125301" data-name="Path 125301" d="M1444.789,458.881h0a.4.4,0,0,0,.4-.4V447.137a.4.4,0,0,0-.4-.4h0a.4.4,0,0,0-.4.4v11.342A.4.4,0,0,0,1444.789,458.881Z" transform="translate(-1386.421 -446.734)" fill="#2c3a64"/>
          <path id="Path_125302" data-name="Path 125302" d="M1586.047,496.5a2.8,2.8,0,1,0-2.8,2.8A2.8,2.8,0,0,0,1586.047,496.5Z" transform="translate(-1492.285 -483.278)" fill="#2c3a64"/>
          <rect id="Rectangle_161060" data-name="Rectangle 161060" width="55.339" height="29.822" rx="14.911" transform="translate(37.354 12.572)" fill="#0271a6"/>
          <rect id="Rectangle_161061" data-name="Rectangle 161061" width="55.339" height="29.822" rx="14.911" transform="translate(48.707 12.572)" fill="#60a6df"/>
          <path id="Path_125303" data-name="Path 125303" d="M1493.822,590.362H1471.18s2.308,4.79,12.466,4.792C1491.983,595.156,1493.822,590.362,1493.822,590.362Z" transform="translate(-1407.269 -558.489)" fill="#fff"/>
          <rect id="Rectangle_161062" data-name="Rectangle 161062" width="47.698" height="10.454" transform="translate(99.461 28.864) rotate(180)" fill="#0271a6"/>
          <rect id="Rectangle_161063" data-name="Rectangle 161063" width="1.088" height="1.088" transform="translate(91.302 23.869) rotate(180)" fill="#fff"/>
          <rect id="Rectangle_161064" data-name="Rectangle 161064" width="1.088" height="1.088" transform="translate(92.68 23.869) rotate(180)" fill="#fff"/>
          <rect id="Rectangle_161065" data-name="Rectangle 161065" width="1.088" height="1.088" transform="translate(92.68 25.291) rotate(180)" fill="#fff"/>
          <rect id="Rectangle_161066" data-name="Rectangle 161066" width="1.088" height="1.088" transform="translate(94.105 23.869) rotate(180)" fill="#fff"/>
          <rect id="Rectangle_161067" data-name="Rectangle 161067" width="1.088" height="1.088" transform="translate(89.919 23.869) rotate(180)" fill="#fff"/>
          <rect id="Rectangle_161068" data-name="Rectangle 161068" width="1.088" height="1.088" transform="translate(89.919 25.291) rotate(180)" fill="#fff"/>
          <rect id="Rectangle_161069" data-name="Rectangle 161069" width="1.088" height="1.088" transform="translate(88.536 23.869) rotate(180)" fill="#fff"/>
          <rect id="Rectangle_161070" data-name="Rectangle 161070" width="1.088" height="1.088" transform="translate(91.302 22.461) rotate(180)" fill="#fff"/>
          <rect id="Rectangle_161071" data-name="Rectangle 161071" width="1.088" height="1.088" transform="translate(91.302 21.155) rotate(180)" fill="#fff"/>
          <rect id="Rectangle_161072" data-name="Rectangle 161072" width="1.088" height="1.088" transform="translate(89.919 22.461) rotate(180)" fill="#fff"/>
          <rect id="Rectangle_161073" data-name="Rectangle 161073" width="1.088" height="1.088" transform="translate(92.68 22.461) rotate(180)" fill="#fff"/>
          <rect id="Rectangle_161074" data-name="Rectangle 161074" width="1.088" height="1.088" transform="translate(91.302 25.291) rotate(180)" fill="#fff"/>
          <rect id="Rectangle_161075" data-name="Rectangle 161075" width="1.088" height="1.088" transform="translate(91.302 26.724) rotate(180)" fill="#fff"/>
          <rect id="Rectangle_161076" data-name="Rectangle 161076" width="1.088" height="1.088" transform="translate(62.222 23.869) rotate(180)" fill="#fff"/>
          <rect id="Rectangle_161077" data-name="Rectangle 161077" width="1.088" height="1.088" transform="translate(63.599 23.869) rotate(180)" fill="#fff"/>
          <rect id="Rectangle_161078" data-name="Rectangle 161078" width="1.088" height="1.088" transform="translate(63.599 25.291) rotate(180)" fill="#fff"/>
          <rect id="Rectangle_161079" data-name="Rectangle 161079" width="1.088" height="1.088" transform="translate(65.024 23.869) rotate(180)" fill="#fff"/>
          <rect id="Rectangle_161080" data-name="Rectangle 161080" width="1.088" height="1.088" transform="translate(60.839 23.869) rotate(180)" fill="#fff"/>
          <rect id="Rectangle_161081" data-name="Rectangle 161081" width="1.088" height="1.088" transform="translate(60.839 25.291) rotate(180)" fill="#fff"/>
          <rect id="Rectangle_161082" data-name="Rectangle 161082" width="1.088" height="1.088" transform="translate(59.456 23.869) rotate(180)" fill="#fff"/>
          <rect id="Rectangle_161083" data-name="Rectangle 161083" width="1.088" height="1.088" transform="translate(62.222 22.461) rotate(180)" fill="#fff"/>
          <rect id="Rectangle_161084" data-name="Rectangle 161084" width="1.088" height="1.088" transform="translate(62.222 21.155) rotate(180)" fill="#fff"/>
          <rect id="Rectangle_161085" data-name="Rectangle 161085" width="1.088" height="1.088" transform="translate(60.839 22.461) rotate(180)" fill="#fff"/>
          <rect id="Rectangle_161086" data-name="Rectangle 161086" width="1.088" height="1.088" transform="translate(63.599 22.461) rotate(180)" fill="#fff"/>
          <rect id="Rectangle_161087" data-name="Rectangle 161087" width="1.088" height="1.088" transform="translate(62.222 25.291) rotate(180)" fill="#fff"/>
          <rect id="Rectangle_161088" data-name="Rectangle 161088" width="1.088" height="1.088" transform="translate(62.222 26.724) rotate(180)" fill="#fff"/>
          <path id="Path_125304" data-name="Path 125304" d="M1591.658,458.881h0a.4.4,0,0,0,.4-.4V447.137a.4.4,0,0,0-.4-.4h0a.4.4,0,0,0-.4.4v11.342A.4.4,0,0,0,1591.658,458.881Z" transform="translate(-1500.699 -446.734)" fill="#2c3a64"/>
          <g id="Group_289033" data-name="Group 289033" transform="translate(52.938 47.363)">
            <path id="Path_125305" data-name="Path 125305" d="M1453.274,660.947a.78.78,0,1,0-.78.78A.78.78,0,0,0,1453.274,660.947Z" transform="translate(-1445.061 -660.167)" fill="#fff"/>
            <path id="Path_125306" data-name="Path 125306" d="M1438.208,660.947a.78.78,0,1,0-.78.78A.78.78,0,0,0,1438.208,660.947Z" transform="translate(-1433.338 -660.167)" fill="#fff"/>
            <path id="Path_125307" data-name="Path 125307" d="M1423.292,660.947a.78.78,0,1,0-.78.78A.78.78,0,0,0,1423.292,660.947Z" transform="translate(-1421.732 -660.167)" fill="#fff"/>
          </g>
        </g>
        <g id="Group_289036" data-name="Group 289036" transform="translate(545.139 170.533)">
          <path id="Path_125308" data-name="Path 125308" d="M1385.5,371.63h-44.456a11.915,11.915,0,0,1-11.915-11.915h68.286A11.915,11.915,0,0,1,1385.5,371.63Z" transform="translate(-1269.001 -352.996)" fill="#284f63"/>
          <g id="Group_289035" data-name="Group 289035">
            <path id="Path_125309" data-name="Path 125309" d="M1231.317,641.858H1073.559c-8.488,0-15.394-7.274-15.394-16.215V345.65c0-8.941,6.906-16.215,15.394-16.215h157.758c8.489,0,15.395,7.274,15.395,16.215V625.643C1246.712,634.584,1239.806,641.858,1231.317,641.858Zm-157.758-305.7a9.275,9.275,0,0,0-9.015,9.5V625.643a9.275,9.275,0,0,0,9.015,9.5h157.758a9.275,9.275,0,0,0,9.015-9.5V345.65a9.275,9.275,0,0,0-9.015-9.5Z" transform="translate(-1058.165 -329.435)" fill="#284f63"/>
          </g>
          <path id="Rectangle_161089" data-name="Rectangle 161089" d="M0,0H182.564a0,0,0,0,1,0,0V0a19.619,19.619,0,0,1-19.619,19.619H12.353A12.353,12.353,0,0,1,0,7.267V0A0,0,0,0,1,0,0Z" transform="translate(2.991 289.339)" fill="#2b478b"/>
        </g>
        <g id="girl_2" data-name="girl 2" transform="translate(735.641 326.865)">
          <path id="Path_125310" data-name="Path 125310" d="M1867.484,1034.379a21.344,21.344,0,0,1,19.149,5.467,56.867,56.867,0,0,1,6.975,7.979c5.612,7.836-5.133,15.591-3.7,18.246s4.74,4.751,3.291,10.294-11,12.736-14.119,13.056c-31.572,3.242-45.274-14.164-34.72-23.547s6.247-22.995,14.817-28.283A26.292,26.292,0,0,1,1867.484,1034.379Z" transform="translate(-1838.594 -1033.916)" fill="#233862"/>
          <path id="Path_125311" data-name="Path 125311" d="M2011.782,1254.719s29.733,12.954,35.13,12.718,38.655-10.13,38.655-10.13l-.847,5.721s-25.666,14.761-34.638,15.6c-8.835.825-39.041-7.928-41.957-9.776S2003.307,1256.589,2011.782,1254.719Z" transform="translate(-1966.834 -1205.72)" fill="#ed985f"/>
          <path id="Path_125312" data-name="Path 125312" d="M1931.993,1209.118a28.6,28.6,0,0,1-10,4.254c-15.408,3.56-21.313-9.463-23.53-18.4a13.236,13.236,0,0,1,5.22-1.6c1.114-.132,2.285-.219,3.255-.267,1.73-1.325,4.308-6.749,4.879-15.17l.724.195,12.143,3.323s-.556,3.86-.829,7.509c-.211,2.855-.244,5.583.3,6.251.948.206,1.516.34,1.516.34a.03.03,0,0,0,.006.011A78.191,78.191,0,0,1,1931.993,1209.118Z" transform="translate(-1883.431 -1145.972)" fill="#ffb27d"/>
          <path id="Path_125313" data-name="Path 125313" d="M1974.05,1182.141s-.558,3.857-.828,7.508c-6.88-.689-10.073-7.239-11.316-10.832Z" transform="translate(-1932.792 -1146.663)" fill="#ed985f"/>
          <path id="Path_125314" data-name="Path 125314" d="M1971.067,1111.812s-16.329-.9-15.612-11.062-.907-17.12,9.55-16.974,12.206,4.166,12.792,7.615S1975.333,1111.785,1971.067,1111.812Z" transform="translate(-1927.755 -1072.71)" fill="#ffb27d"/>
          <path id="Path_125315" data-name="Path 125315" d="M1959.826,1078.367c-2.3-3.237-4.255-2.7-5.389-1.861a11.43,11.43,0,0,0-14.828,1.294,19.456,19.456,0,0,1-7.17,11.01s2.894,2.314,9.821.779a17.33,17.33,0,0,0,12.319-10.829c.932.965,2.135,1.58,3.057,3.674a16.1,16.1,0,0,1,1.8,8.018S1963.278,1083.221,1959.826,1078.367Z" transform="translate(-1909.865 -1065.369)" fill="#233862"/>
          <path id="Path_125316" data-name="Path 125316" d="M1845.847,1289.512c-1.475-7.538-6.283-37.657-1.475-47.349,1.727-3.482,8.5-3.8,15.937-3.49,2.313,1.494,11.129,7.137,14.749,6.433.039-.008.109-.024.2-.048,1.7-.427,2.349-1.625.926-2.657a32.477,32.477,0,0,1,8.255.506c2.583.486,9.549,4.091,9.549,4.091s-3.508,6.337-8.681,8.525c.88,7.868-.429,11.339-8.591,29.513-6.9,15.362.93,29.193.93,29.193s-40.6,32.646-40.83,16.024C1836.65,1317.739,1847.731,1299.147,1845.847,1289.512Z" transform="translate(-1835.463 -1193.165)" fill="#fec35b"/>
          <path id="Path_125317" data-name="Path 125317" d="M1942.566,1426.282a7.549,7.549,0,0,0,5.431-3.306q.294-.44.628-.946c4.622-7,6.421-28.424,16.817-51.251,2.532-5.557,11.622-6.557,14.1-12.839,0,0,6.1-20.363-11.676-20.963s-47.609,56.658-48.08,62.663C1919.328,1405.457,1908.032,1430.179,1942.566,1426.282Z" transform="translate(-1898.366 -1269.721)" fill="#222"/>
          <path id="Path_125318" data-name="Path 125318" d="M2258.627,1691.3h-25.3s-.946-4.035.715-6.782c1.47-2.429.907-3.814-.182-5.824a9.832,9.832,0,0,0,4.261.8,8.917,8.917,0,0,0,3.762-1.323c1.089,1.241,5.752,6.526,7.209,7.573C2250.745,1686.931,2258.118,1686.508,2258.627,1691.3Z" transform="translate(-2143.772 -1535.203)" fill="#233862"/>
          <path id="Path_125319" data-name="Path 125319" d="M2122.25,1340.044c1.524,11.422,7.473,47.473,17.968,65.062,3.384,5.67-8.525,8.849-8.589,8.832-1.6-.418-4.258-2.964-5.485-4.069-8.521-7.679-25.817-29.423-25.817-46.856,0-8.5-.149-24.734,6.032-28.86C2110.165,1331.612,2121.645,1335.507,2122.25,1340.044Z" transform="translate(-2040.496 -1266.901)" fill="#222"/>
          <path id="Path_125320" data-name="Path 125320" d="M1859.824,1421.261s.938-1.305,2.572-3.783c1.946-2.947,4.1-8.747,6.712-16.182,2.744-7.8,6-17.407,10.069-27.4,1.256-3.084,2.589-6.205,4.007-9.322,2.532-5.557,9.5-4.789,11.977-11.072,0,0,9.67-21.779-8.106-22.38s-51.556,58.261-53.5,63.962C1831.432,1401.327,1821.065,1427.24,1859.824,1421.261Z" transform="translate(-1830.712 -1265.167)" fill="#222"/>
          <path id="Path_125321" data-name="Path 125321" d="M2174.93,1691.3h-25.3s-.946-4.035.715-6.782c1.47-2.429.907-3.814-.182-5.824a9.833,9.833,0,0,0,4.261.8,8.923,8.923,0,0,0,3.763-1.323c1.089,1.241,5.752,6.526,7.208,7.573C2167.047,1686.931,2174.42,1686.508,2174.93,1691.3Z" transform="translate(-2078.648 -1535.203)" fill="#2b478b"/>
          <path id="Path_125322" data-name="Path 125322" d="M1995.7,1492.172c2.745-7.8,6-17.407,10.069-27.4-1.062-7.569-3.355-14.192-7.208-16.861C1998.56,1447.914,1989.209,1476.88,1995.7,1492.172Z" transform="translate(-1957.303 -1356.043)" fill="#222"/>
          <path id="Path_125323" data-name="Path 125323" d="M2042.357,1340.822c1.524,11.422,3.669,48.283,14.165,65.871,3.384,5.67-8.525,8.849-8.589,8.832-1.6-.418-4.258-2.964-5.484-4.069-8.521-7.679-25.817-29.423-25.817-46.856,0-8.5,9.975-24.052,16.156-28.178A6.217,6.217,0,0,1,2042.357,1340.822Z" transform="translate(-1975.373 -1268.489)" fill="#222"/>
          <g id="Group_289037" data-name="Group 289037" transform="translate(84.721 34.106)">
            <path id="Path_125324" data-name="Path 125324" d="M2249.523,1190.372l-25.911-2.752a1.672,1.672,0,0,0-1.74,1.068l-9.271,24.36a1.673,1.673,0,0,0,1.5,2.266l25.711,1.037a1.673,1.673,0,0,0,1.61-1.026l9.471-22.646A1.672,1.672,0,0,0,2249.523,1190.372Z" transform="translate(-2212.49 -1187.61)" fill="#233862"/>
            <path id="Path_125325" data-name="Path 125325" d="M2259.667,1191.433l-25.912-2.752a1.673,1.673,0,0,0-1.74,1.068l-9.271,24.361a1.672,1.672,0,0,0,1.5,2.266l25.711,1.037a1.672,1.672,0,0,0,1.611-1.026l9.471-22.646A1.673,1.673,0,0,0,2259.667,1191.433Z" transform="translate(-2220.383 -1188.436)" fill="#2b478b"/>
            <path id="Path_125326" data-name="Path 125326" d="M2313.4,1246.851a1.066,1.066,0,0,0-1-1.574,2.491,2.491,0,0,0-2.147,1.574,1.066,1.066,0,0,0,1,1.575A2.491,2.491,0,0,0,2313.4,1246.851Z" transform="translate(-2288.476 -1232.48)" fill="#ebf3fa"/>
            <path id="Path_125327" data-name="Path 125327" d="M2380.423,1208.777a.523.523,0,0,0-.492-.773,1.224,1.224,0,0,0-1.055.773.524.524,0,0,0,.492.774A1.223,1.223,0,0,0,2380.423,1208.777Z" transform="translate(-2341.914 -1203.479)" fill="#ebf3fa"/>
          </g>
          <path id="Path_125328" data-name="Path 125328" d="M1876.985,1254.719s35.912,13.225,41.307,12.954c3.488-.175,32.477-10.365,32.477-10.365l2.6,4.923s-28.216,18.135-35.972,18.046c-15.315-.177-41.156-9.578-44.072-11.426S1868.51,1256.589,1876.985,1254.719Z" transform="translate(-1861.949 -1205.72)" fill="#ffb27d"/>
          <path id="Path_125329" data-name="Path 125329" d="M2230.963,1251.911s2.6-4,5.194-4.122,7.067,1.767,8.6,2.061,5.89,1.708,4.594,3.828-7.3,2.591-9.894,2.12-5.889,1.036-5.889,1.036Z" transform="translate(-2142.143 -1200.324)" fill="#ffb27d"/>
          <path id="Path_125330" data-name="Path 125330" d="M2251.19,1240.037s4.121-1.89,5.3-2.244.942.006.589,1.122-2.474,2.182-2.474,2.532S2251.19,1240.037,2251.19,1240.037Z" transform="translate(-2157.881 -1192.449)" fill="#ffb27d"/>
          <path id="Path_125331" data-name="Path 125331" d="M2357.209,1241.648s-2.6-4.11-3.449-4.278c-2.592-.512-2.592,2.9-2.042,5.1.589,2.362,2.586,4.591,3.138,4.4S2357.821,1243.82,2357.209,1241.648Z" transform="translate(-2235.874 -1192.181)" fill="#ffb27d"/>
          <path id="Path_125332" data-name="Path 125332" d="M2365.492,1260.545a6.879,6.879,0,0,1-3.548,7.017l1.3-3.173Z" transform="translate(-2244.058 -1210.253)" fill="#ffb27d"/>
          <path id="Path_125333" data-name="Path 125333" d="M2019.02,1182.5s-1.544-.61-5.888-.258c0,0,.231,1.695,3.434,1.862A2.555,2.555,0,0,0,2019.02,1182.5Z" transform="translate(-1972.651 -1149.242)" fill="#fff"/>
          <path id="Path_125334" data-name="Path 125334" d="M1890.957,1258.317s-3.212,10.168-14.243,12.481c0,0-18.216-5.612-9.146-18.021C1867.568,1252.777,1876.535,1246.114,1890.957,1258.317Z" transform="translate(-1857.419 -1202.797)" fill="#fec35b"/>
        </g>
        <g id="Group_289042" data-name="Group 289042" transform="translate(558.777 407.837)">
          <path id="Path_125335" data-name="Path 125335" d="M1156.614,1417.252a18.4,18.4,0,0,1-2.678,9.583s0,0,0,.009a18.317,18.317,0,0,1-1.567,2.192c-.368.439-.752.866-1.157,1.271a18.435,18.435,0,0,1-11.868,5.368c-.389.025-.786.038-1.182.038a18.459,18.459,0,1,1,18.456-18.461Z" transform="translate(-1119.701 -1398.8)" fill="#fff"/>
          <g id="Group_289041" data-name="Group 289041" transform="translate(2.306 5.184)">
            <g id="Group_289038" data-name="Group 289038" transform="translate(8.094 18.556)">
              <path id="Path_125336" data-name="Path 125336" d="M1167.279,1508.292a2.722,2.722,0,0,1-.633-2.511l.97.275-.485-.138.485.135a1.63,1.63,0,0,0,.307,1.419Z" transform="translate(-1166.569 -1505.78)" fill="#60a6df"/>
            </g>
            <g id="Group_289039" data-name="Group 289039" transform="translate(21.804 18.556)">
              <path id="Path_125337" data-name="Path 125337" d="M1229,1508.292a2.721,2.721,0,0,0,.632-2.511l-.969.275.485-.138-.485.135a1.631,1.631,0,0,1-.307,1.419Z" transform="translate(-1228.35 -1505.78)" fill="#60a6df"/>
            </g>
            <path id="Path_125338" data-name="Path 125338" d="M1156.046,1514.637v7.066a18.361,18.361,0,0,1-8.62,2.779c-.388.025-.785.038-1.182.038a18.469,18.469,0,0,1-16.15-9.52v-.363a1.709,1.709,0,0,1,1.706-1.7h22.544A1.705,1.705,0,0,1,1156.046,1514.637Z" transform="translate(-1130.093 -1492.792)" fill="#0271a6"/>
            <path id="Path_125339" data-name="Path 125339" d="M1182.957,1514.637v1.014a18.308,18.308,0,0,1-1.567,2.192c-.368.439-.752.866-1.157,1.271a18.435,18.435,0,0,1-11.868,5.368c-.388.025-.786.038-1.183.038a18.358,18.358,0,0,1-10.178-3.062v-6.821a1.709,1.709,0,0,1,1.706-1.7h22.54A1.709,1.709,0,0,1,1182.957,1514.637Z" transform="translate(-1151.032 -1492.792)" fill="#60a6df"/>
            <rect id="Rectangle_161090" data-name="Rectangle 161090" width="8.24" height="1.042" transform="translate(12.978 19.1)" fill="#4c88f2"/>
            <rect id="Rectangle_161091" data-name="Rectangle 161091" width="4.765" height="1.042" transform="translate(9.713 19.1)" fill="#2c3a64"/>
            <path id="Path_125340" data-name="Path 125340" d="M1175.751,1444.585a1.263,1.263,0,1,0-1.263,1.263A1.263,1.263,0,0,0,1175.751,1444.585Z" transform="translate(-1163.654 -1438.626)" fill="#2c3a64"/>
            <path id="Path_125341" data-name="Path 125341" d="M1178.279,1427.635h0a.182.182,0,0,0,.181-.181v-5.11a.181.181,0,0,0-.181-.181h0a.181.181,0,0,0-.181.181v5.11A.182.182,0,0,0,1178.279,1427.635Z" transform="translate(-1167.445 -1422.162)" fill="#2c3a64"/>
            <path id="Path_125342" data-name="Path 125342" d="M1241.921,1444.585a1.263,1.263,0,1,0-1.262,1.263A1.263,1.263,0,0,0,1241.921,1444.585Z" transform="translate(-1215.14 -1438.626)" fill="#2c3a64"/>
            <rect id="Rectangle_161092" data-name="Rectangle 161092" width="24.933" height="13.436" rx="6.718" transform="translate(1.367 5.664)" fill="#0271a6"/>
            <path id="Rectangle_161093" data-name="Rectangle 161093" d="M6.718,0h11.5a6.718,6.718,0,0,1,6.718,6.718v0a6.718,6.718,0,0,1-6.718,6.718H6.718A6.718,6.718,0,0,1,0,6.718v0A6.718,6.718,0,0,1,6.718,0Z" transform="translate(6.482 5.664)" fill="#60a6df"/>
            <path id="Path_125343" data-name="Path 125343" d="M1200.371,1486.872h-10.2s1.04,2.158,5.616,2.159C1199.543,1489.032,1200.371,1486.872,1200.371,1486.872Z" transform="translate(-1176.838 -1472.512)" fill="#ebf3fa"/>
            <rect id="Rectangle_161094" data-name="Rectangle 161094" width="21.49" height="4.71" transform="translate(29.348 13.004) rotate(180)" fill="#4c88f2"/>
            <rect id="Rectangle_161095" data-name="Rectangle 161095" width="0.49" height="0.49" transform="translate(25.673 10.754) rotate(180)" fill="#ebf3fa"/>
            <rect id="Rectangle_161096" data-name="Rectangle 161096" width="0.49" height="0.49" transform="translate(26.293 10.754) rotate(180)" fill="#ebf3fa"/>
            <rect id="Rectangle_161097" data-name="Rectangle 161097" width="0.49" height="0.49" transform="translate(26.293 11.395) rotate(180)" fill="#ebf3fa"/>
            <rect id="Rectangle_161098" data-name="Rectangle 161098" width="0.49" height="0.49" transform="translate(26.935 10.754) rotate(180)" fill="#ebf3fa"/>
            <rect id="Rectangle_161099" data-name="Rectangle 161099" width="0.49" height="0.49" transform="translate(25.049 10.754) rotate(180)" fill="#ebf3fa"/>
            <rect id="Rectangle_161100" data-name="Rectangle 161100" width="0.49" height="0.49" transform="translate(25.049 11.395) rotate(180)" fill="#ebf3fa"/>
            <rect id="Rectangle_161101" data-name="Rectangle 161101" width="0.49" height="0.49" transform="translate(24.426 10.754) rotate(180)" fill="#ebf3fa"/>
            <rect id="Rectangle_161102" data-name="Rectangle 161102" width="0.49" height="0.49" transform="translate(25.673 10.12) rotate(180)" fill="#ebf3fa"/>
            <rect id="Rectangle_161103" data-name="Rectangle 161103" width="0.49" height="0.49" transform="translate(25.673 9.531) rotate(180)" fill="#ebf3fa"/>
            <rect id="Rectangle_161104" data-name="Rectangle 161104" width="0.49" height="0.49" transform="translate(25.049 10.12) rotate(180)" fill="#ebf3fa"/>
            <rect id="Rectangle_161105" data-name="Rectangle 161105" width="0.49" height="0.49" transform="translate(26.293 10.12) rotate(180)" fill="#ebf3fa"/>
            <rect id="Rectangle_161106" data-name="Rectangle 161106" width="0.49" height="0.49" transform="translate(25.673 11.395) rotate(180)" fill="#ebf3fa"/>
            <rect id="Rectangle_161107" data-name="Rectangle 161107" width="0.49" height="0.49" transform="translate(25.673 12.04) rotate(180)" fill="#ebf3fa"/>
            <rect id="Rectangle_161108" data-name="Rectangle 161108" width="0.49" height="0.49" transform="translate(12.571 10.754) rotate(180)" fill="#ebf3fa"/>
            <rect id="Rectangle_161109" data-name="Rectangle 161109" width="0.49" height="0.49" transform="translate(13.191 10.754) rotate(180)" fill="#ebf3fa"/>
            <rect id="Rectangle_161110" data-name="Rectangle 161110" width="0.49" height="0.49" transform="translate(13.191 11.395) rotate(180)" fill="#ebf3fa"/>
            <rect id="Rectangle_161111" data-name="Rectangle 161111" width="0.49" height="0.49" transform="translate(13.833 10.754) rotate(180)" fill="#ebf3fa"/>
            <rect id="Rectangle_161112" data-name="Rectangle 161112" width="0.49" height="0.49" transform="translate(11.948 10.754) rotate(180)" fill="#ebf3fa"/>
            <rect id="Rectangle_161113" data-name="Rectangle 161113" width="0.49" height="0.49" transform="translate(11.948 11.395) rotate(180)" fill="#ebf3fa"/>
            <rect id="Rectangle_161114" data-name="Rectangle 161114" width="0.49" height="0.49" transform="translate(11.324 10.754) rotate(180)" fill="#ebf3fa"/>
            <rect id="Rectangle_161115" data-name="Rectangle 161115" width="0.49" height="0.49" transform="translate(12.571 10.12) rotate(180)" fill="#ebf3fa"/>
            <rect id="Rectangle_161116" data-name="Rectangle 161116" width="0.49" height="0.49" transform="translate(12.571 9.531) rotate(180)" fill="#ebf3fa"/>
            <rect id="Rectangle_161117" data-name="Rectangle 161117" width="0.49" height="0.49" transform="translate(11.948 10.12) rotate(180)" fill="#ebf3fa"/>
            <rect id="Rectangle_161118" data-name="Rectangle 161118" width="0.49" height="0.49" transform="translate(13.191 10.12) rotate(180)" fill="#ebf3fa"/>
            <rect id="Rectangle_161119" data-name="Rectangle 161119" width="0.49" height="0.49" transform="translate(12.571 11.395) rotate(180)" fill="#ebf3fa"/>
            <rect id="Rectangle_161120" data-name="Rectangle 161120" width="0.49" height="0.49" transform="translate(12.571 12.04) rotate(180)" fill="#ebf3fa"/>
            <path id="Path_125344" data-name="Path 125344" d="M1244.45,1427.635h0a.182.182,0,0,0,.181-.181v-5.11a.182.182,0,0,0-.181-.181h0a.182.182,0,0,0-.182.181v5.11A.182.182,0,0,0,1244.45,1427.635Z" transform="translate(-1218.931 -1422.162)" fill="#2c3a64"/>
            <g id="Group_289040" data-name="Group 289040" transform="translate(8.388 21.339)">
              <path id="Path_125345" data-name="Path 125345" d="M1182.1,1518.674a.351.351,0,1,0-.351.352A.351.351,0,0,0,1182.1,1518.674Z" transform="translate(-1178.402 -1518.322)" fill="#fff"/>
              <path id="Path_125346" data-name="Path 125346" d="M1175.314,1518.674a.352.352,0,1,0-.351.352A.351.351,0,0,0,1175.314,1518.674Z" transform="translate(-1173.12 -1518.322)" fill="#fff"/>
              <path id="Path_125347" data-name="Path 125347" d="M1168.595,1518.674a.351.351,0,1,0-.351.352A.351.351,0,0,0,1168.595,1518.674Z" transform="translate(-1167.892 -1518.322)" fill="#fff"/>
            </g>
          </g>
        </g>
        <g id="Group_289043" data-name="Group 289043" transform="translate(678.885 366.085)">
          <path id="Path_125348" data-name="Path 125348" d="M1660.744,1229.109a18.458,18.458,0,0,0,18.456,18.458q.6,0,1.185-.037a18.4,18.4,0,0,0,11.866-5.368c.4-.4.791-.83,1.158-1.271a18.457,18.457,0,1,0-32.665-11.781Z" transform="translate(-1660.744 -1210.653)" fill="#fff"/>
          <path id="Path_125349" data-name="Path 125349" d="M1687.312,1247.453a4.878,4.878,0,0,0,1.092.564c2.875,2.5,7.449,6.542,10.813,9.5a18.4,18.4,0,0,0,11.866-5.368c.4-.4.791-.83,1.158-1.271a18.444,18.444,0,0,0,1.57-2.2,17.949,17.949,0,0,0-1.432-2.14c-2.97-3.841-5.39-5.144-4.726-10.1.359-2.692-1.369-12.209-7.553-12.7a17.079,17.079,0,0,0-5.9.061C1688.714,1225.313,1681,1243.1,1687.312,1247.453Z" transform="translate(-1679.576 -1220.638)" fill="#233862"/>
          <path id="Path_125350" data-name="Path 125350" d="M1724.431,1299.647c-.028.011,2.568,1.574,4.622,1.15,1.932-.4,3.9-3.01,3.87-3.017-.794-.211-1.523-1.1-1.206-5.851l-.368.049-6.19.824s.017,1.933-.093,3.746C1724.973,1298.069,1724.79,1299.507,1724.431,1299.647Z" transform="translate(-1710.298 -1273.892)" fill="#ffb27d"/>
          <path id="Path_125351" data-name="Path 125351" d="M1727.382,1292.971s.018,1.933-.093,3.746c3.427.12,5.433-2.887,6.284-4.57Z" transform="translate(-1712.522 -1274.063)" fill="#ed975d"/>
          <path id="Path_125352" data-name="Path 125352" d="M1714.511,1255.935s8.087.645,8.411-4.4,1.586-8.355-3.563-8.98-6.277,1.234-6.794,2.891S1712.416,1255.637,1714.511,1255.935Z" transform="translate(-1700.902 -1235.381)" fill="#ffb27d"/>
          <path id="Path_125353" data-name="Path 125353" d="M1717.2,1240.317s4.093,5.424,7.439,6.513,4.879.272,4.879.272a13.673,13.673,0,0,1-2.284-5.076,2.461,2.461,0,0,0-1.677-1.847C1723.156,1239.439,1718.545,1238.341,1717.2,1240.317Z" transform="translate(-1704.669 -1232.865)" fill="#233862"/>
          <path id="Path_125354" data-name="Path 125354" d="M1715.177,1240.736a12.67,12.67,0,0,0-2.826,2.356,9.725,9.725,0,0,0-1.351,5s-1.52-5.666.5-7.822C1713.643,1237.984,1715.177,1240.736,1715.177,1240.736Z" transform="translate(-1699.421 -1232.991)" fill="#233862"/>
          <path id="Path_125355" data-name="Path 125355" d="M1686.935,1324.532a18.387,18.387,0,0,0,12.644,5.013h1.226c-.014-.011-.027-.024-.042-.037a18.4,18.4,0,0,0,11.866-5.369c.4-.4.791-.83,1.158-1.27a20.894,20.894,0,0,0-1.785-3.26c-2.287-3.192-8.9-3.6-8.9-3.6v0s0,0,0,0-.026.014-.037.023c-2.516,1.484-4.171,1.954-5.257,1.954a1.869,1.869,0,0,1-2.04-1.275h0v0a.32.32,0,0,1-.01-.053v0s-4.772.808-6.9,2.789a3.046,3.046,0,0,0-.92,1.408Z" transform="translate(-1681.123 -1292.631)" fill="#60a6df"/>
        </g>
        <g id="Group_289052" data-name="Group 289052" transform="translate(521.608 301.921)">
          <g id="Group_289044" data-name="Group 289044" transform="translate(0 0)">
            <path id="Rectangle_161121" data-name="Rectangle 161121" d="M28.993,0h109.78a28.993,28.993,0,0,1,28.993,28.993v0a28.992,28.992,0,0,1-28.992,28.992H28.992A28.992,28.992,0,0,1,0,28.993v0A28.993,28.993,0,0,1,28.993,0Z" transform="translate(167.765 57.985) rotate(180)" fill="#fff"/>
          </g>
          <g id="Group_289049" data-name="Group 289049" transform="translate(10.941 7.286)">
            <path id="Path_125356" data-name="Path 125356" d="M1044.911,976.045a21.638,21.638,0,0,1-3.149,11.271s-.005,0-.005.01a21.47,21.47,0,0,1-1.843,2.578c-.432.517-.884,1.018-1.361,1.5a21.675,21.675,0,0,1-13.958,6.313c-.457.03-.924.045-1.391.045a21.71,21.71,0,1,1,21.707-21.712Z" transform="translate(-1001.498 -954.343)" fill="#dfebfd"/>
            <g id="Group_289048" data-name="Group 289048" transform="translate(2.712 6.097)">
              <g id="Group_289045" data-name="Group 289045" transform="translate(9.52 21.823)">
                <path id="Path_125357" data-name="Path 125357" d="M1057.454,1083.117a3.2,3.2,0,0,1-.744-2.954l1.14.324-.57-.162.571.158a1.918,1.918,0,0,0,.362,1.669Z" transform="translate(-1056.619 -1080.163)" fill="#60a6df"/>
              </g>
              <g id="Group_289046" data-name="Group 289046" transform="translate(25.644 21.823)">
                <path id="Path_125358" data-name="Path 125358" d="M1130.039,1083.117a3.2,3.2,0,0,0,.743-2.954l-1.14.324.57-.162-.571.158a1.918,1.918,0,0,1-.362,1.669Z" transform="translate(-1129.28 -1080.163)" fill="#60a6df"/>
              </g>
              <path id="Path_125359" data-name="Path 125359" d="M1044.242,1090.579v8.31a21.6,21.6,0,0,1-10.138,3.268c-.457.03-.924.045-1.391.045a21.724,21.724,0,0,1-18.994-11.2v-.427a2.01,2.01,0,0,1,2.007-2h26.515A2.005,2.005,0,0,1,1044.242,1090.579Z" transform="translate(-1013.719 -1064.886)" fill="#0271a6"/>
              <path id="Path_125360" data-name="Path 125360" d="M1075.893,1090.579v1.192a21.461,21.461,0,0,1-1.843,2.578c-.432.517-.884,1.018-1.361,1.5a21.677,21.677,0,0,1-13.958,6.313c-.457.03-.924.045-1.391.045a21.589,21.589,0,0,1-11.971-3.6v-8.022a2.01,2.01,0,0,1,2.007-2h26.509A2.01,2.01,0,0,1,1075.893,1090.579Z" transform="translate(-1038.346 -1064.886)" fill="#60a6df"/>
              <rect id="Rectangle_161122" data-name="Rectangle 161122" width="9.691" height="1.226" transform="translate(15.264 22.464)" fill="#4c88f2"/>
              <rect id="Rectangle_161123" data-name="Rectangle 161123" width="5.605" height="1.226" transform="translate(11.424 22.464)" fill="#2c3a64"/>
              <circle id="Ellipse_4395" data-name="Ellipse 4395" cx="1.485" cy="1.485" r="1.485" transform="translate(11.257 5.523)" fill="#2c3a64"/>
              <path id="Path_125361" data-name="Path 125361" d="M1070.392,988.257h0a.214.214,0,0,0,.213-.214v-6.01a.214.214,0,0,0-.213-.213h0a.214.214,0,0,0-.214.213v6.01A.214.214,0,0,0,1070.392,988.257Z" transform="translate(-1057.649 -981.82)" fill="#2c3a64"/>
              <circle id="Ellipse_4396" data-name="Ellipse 4396" cx="1.485" cy="1.485" r="1.485" transform="translate(28.527 5.523)" fill="#2c3a64"/>
              <rect id="Rectangle_161124" data-name="Rectangle 161124" width="29.323" height="15.802" rx="7.901" transform="translate(1.608 6.662)" fill="#0271a6"/>
              <path id="Rectangle_161125" data-name="Rectangle 161125" d="M7.9,0H21.422a7.9,7.9,0,0,1,7.9,7.9v0a7.9,7.9,0,0,1-7.9,7.9H7.9A7.9,7.9,0,0,1,0,7.9v0A7.9,7.9,0,0,1,7.9,0Z" transform="translate(7.623 6.662)" fill="#60a6df"/>
              <path id="Path_125362" data-name="Path 125362" d="M1096.374,1057.926h-12s1.223,2.538,6.605,2.539C1095.4,1060.466,1096.374,1057.926,1096.374,1057.926Z" transform="translate(-1068.696 -1041.037)" fill="#ebf3fa"/>
              <rect id="Rectangle_161126" data-name="Rectangle 161126" width="25.274" height="5.539" transform="translate(34.517 15.294) rotate(180)" fill="#0271a6"/>
              <rect id="Rectangle_161127" data-name="Rectangle 161127" width="0.577" height="0.577" transform="translate(30.194 12.647) rotate(180)" fill="#ebf3fa"/>
              <rect id="Rectangle_161128" data-name="Rectangle 161128" width="0.577" height="0.577" transform="translate(30.924 12.647) rotate(180)" fill="#ebf3fa"/>
              <rect id="Rectangle_161129" data-name="Rectangle 161129" width="0.577" height="0.577" transform="translate(30.924 13.401) rotate(180)" fill="#ebf3fa"/>
              <rect id="Rectangle_161130" data-name="Rectangle 161130" width="0.577" height="0.577" transform="translate(31.679 12.647) rotate(180)" fill="#ebf3fa"/>
              <rect id="Rectangle_161131" data-name="Rectangle 161131" width="0.577" height="0.577" transform="translate(29.461 12.647) rotate(180)" fill="#ebf3fa"/>
              <rect id="Rectangle_161132" data-name="Rectangle 161132" width="0.577" height="0.577" transform="translate(29.461 13.401) rotate(180)" fill="#ebf3fa"/>
              <rect id="Rectangle_161133" data-name="Rectangle 161133" width="0.577" height="0.577" transform="translate(28.728 12.647) rotate(180)" fill="#ebf3fa"/>
              <rect id="Rectangle_161134" data-name="Rectangle 161134" width="0.577" height="0.577" transform="translate(30.194 11.902) rotate(180)" fill="#ebf3fa"/>
              <rect id="Rectangle_161135" data-name="Rectangle 161135" width="0.577" height="0.577" transform="translate(30.194 11.21) rotate(180)" fill="#ebf3fa"/>
              <rect id="Rectangle_161136" data-name="Rectangle 161136" width="0.577" height="0.577" transform="translate(29.461 11.902) rotate(180)" fill="#ebf3fa"/>
              <rect id="Rectangle_161137" data-name="Rectangle 161137" width="0.577" height="0.577" transform="translate(30.924 11.902) rotate(180)" fill="#ebf3fa"/>
              <rect id="Rectangle_161138" data-name="Rectangle 161138" width="0.577" height="0.577" transform="translate(30.194 13.401) rotate(180)" fill="#ebf3fa"/>
              <rect id="Rectangle_161139" data-name="Rectangle 161139" width="0.577" height="0.577" transform="translate(30.194 14.16) rotate(180)" fill="#ebf3fa"/>
              <rect id="Rectangle_161140" data-name="Rectangle 161140" width="0.577" height="0.577" transform="translate(14.785 12.647) rotate(180)" fill="#ebf3fa"/>
              <rect id="Rectangle_161141" data-name="Rectangle 161141" width="0.577" height="0.577" transform="translate(15.514 12.647) rotate(180)" fill="#ebf3fa"/>
              <rect id="Rectangle_161142" data-name="Rectangle 161142" width="0.577" height="0.577" transform="translate(15.514 13.401) rotate(180)" fill="#ebf3fa"/>
              <rect id="Rectangle_161143" data-name="Rectangle 161143" width="0.577" height="0.577" transform="translate(16.269 12.647) rotate(180)" fill="#ebf3fa"/>
              <rect id="Rectangle_161144" data-name="Rectangle 161144" width="0.577" height="0.577" transform="translate(14.052 12.647) rotate(180)" fill="#ebf3fa"/>
              <rect id="Rectangle_161145" data-name="Rectangle 161145" width="0.577" height="0.577" transform="translate(14.052 13.401) rotate(180)" fill="#ebf3fa"/>
              <rect id="Rectangle_161146" data-name="Rectangle 161146" width="0.577" height="0.577" transform="translate(13.319 12.647) rotate(180)" fill="#ebf3fa"/>
              <rect id="Rectangle_161147" data-name="Rectangle 161147" width="0.577" height="0.577" transform="translate(14.785 11.902) rotate(180)" fill="#ebf3fa"/>
              <rect id="Rectangle_161148" data-name="Rectangle 161148" width="0.577" height="0.577" transform="translate(14.785 11.21) rotate(180)" fill="#ebf3fa"/>
              <rect id="Rectangle_161149" data-name="Rectangle 161149" width="0.577" height="0.577" transform="translate(14.052 11.902) rotate(180)" fill="#ebf3fa"/>
              <rect id="Rectangle_161150" data-name="Rectangle 161150" width="0.577" height="0.577" transform="translate(15.514 11.902) rotate(180)" fill="#ebf3fa"/>
              <rect id="Rectangle_161151" data-name="Rectangle 161151" width="0.577" height="0.577" transform="translate(14.785 13.401) rotate(180)" fill="#ebf3fa"/>
              <rect id="Rectangle_161152" data-name="Rectangle 161152" width="0.577" height="0.577" transform="translate(14.785 14.16) rotate(180)" fill="#ebf3fa"/>
              <path id="Path_125363" data-name="Path 125363" d="M1148.215,988.257h0a.214.214,0,0,0,.213-.214v-6.01a.214.214,0,0,0-.213-.213h0a.214.214,0,0,0-.213.213v6.01A.214.214,0,0,0,1148.215,988.257Z" transform="translate(-1118.203 -981.82)" fill="#2c3a64"/>
              <g id="Group_289047" data-name="Group 289047" transform="translate(9.865 25.097)">
                <path id="Path_125364" data-name="Path 125364" d="M1074.888,1095.327a.413.413,0,1,0-.413.414A.413.413,0,0,0,1074.888,1095.327Z" transform="translate(-1070.536 -1094.914)" fill="#fff"/>
                <path id="Path_125365" data-name="Path 125365" d="M1066.9,1095.327a.413.413,0,1,0-.413.414A.413.413,0,0,0,1066.9,1095.327Z" transform="translate(-1064.324 -1094.914)" fill="#fff"/>
                <path id="Path_125366" data-name="Path 125366" d="M1059,1095.327a.413.413,0,1,0-.413.414A.413.413,0,0,0,1059,1095.327Z" transform="translate(-1058.175 -1094.914)" fill="#fff"/>
              </g>
            </g>
          </g>
          <g id="Group_289050" data-name="Group 289050" transform="translate(67.258 28.959)">
            <rect id="Rectangle_161153" data-name="Rectangle 161153" width="21.041" height="2.728" fill="#cbe1fd"/>
            <rect id="Rectangle_161154" data-name="Rectangle 161154" width="26.225" height="2.728" transform="translate(0 5.457)" fill="#cbe1fd"/>
            <rect id="Rectangle_161155" data-name="Rectangle 161155" width="19.313" height="2.728" transform="translate(28.317 5.457)" fill="#cbe1fd"/>
            <rect id="Rectangle_161156" data-name="Rectangle 161156" width="19.313" height="2.728" transform="translate(0 10.796)" fill="#cbe1fd"/>
            <rect id="Rectangle_161157" data-name="Rectangle 161157" width="14.026" height="2.728" transform="translate(23.304)" fill="#cbe1fd"/>
            <rect id="Rectangle_161158" data-name="Rectangle 161158" width="28.371" height="2.728" transform="translate(40.356)" fill="#cbe1fd"/>
          </g>
          <g id="Group_289051" data-name="Group 289051" transform="translate(67.469 15.452)">
            <rect id="Rectangle_161159" data-name="Rectangle 161159" width="29.79" height="3.863" fill="#cbe1fd"/>
            <rect id="Rectangle_161160" data-name="Rectangle 161160" width="41.158" height="3.863" transform="translate(33.081)" fill="#cbe1fd"/>
          </g>
        </g>
        <g id="Group_289055" data-name="Group 289055" transform="translate(591.667 374.965)">
          <g id="Group_289053" data-name="Group 289053" transform="translate(0 8.881)">
            <rect id="Rectangle_161161" data-name="Rectangle 161161" width="13.835" height="1.794" fill="#fff"/>
            <rect id="Rectangle_161162" data-name="Rectangle 161162" width="17.244" height="1.794" transform="translate(0 3.588)" fill="#fff"/>
            <rect id="Rectangle_161163" data-name="Rectangle 161163" width="12.699" height="1.794" transform="translate(18.619 3.588)" fill="#fff"/>
            <rect id="Rectangle_161164" data-name="Rectangle 161164" width="12.699" height="1.794" transform="translate(0 7.098)" fill="#fff"/>
            <rect id="Rectangle_161165" data-name="Rectangle 161165" width="9.223" height="1.794" transform="translate(15.323)" fill="#fff"/>
            <rect id="Rectangle_161166" data-name="Rectangle 161166" width="18.655" height="1.794" transform="translate(26.535)" fill="#fff"/>
          </g>
          <g id="Group_289054" data-name="Group 289054" transform="translate(0.139)">
            <rect id="Rectangle_161167" data-name="Rectangle 161167" width="19.588" height="2.54" fill="#fff"/>
            <rect id="Rectangle_161168" data-name="Rectangle 161168" width="27.063" height="2.54" transform="translate(21.752)" fill="#fff"/>
          </g>
        </g>
        <g id="Group_289058" data-name="Group 289058" transform="translate(616.336 419.298)">
          <g id="Group_289056" data-name="Group 289056" transform="translate(0 8.881)">
            <rect id="Rectangle_161169" data-name="Rectangle 161169" width="13.835" height="1.794" fill="#cbe1fd"/>
            <rect id="Rectangle_161170" data-name="Rectangle 161170" width="17.244" height="1.794" transform="translate(0 3.588)" fill="#cbe1fd"/>
            <rect id="Rectangle_161171" data-name="Rectangle 161171" width="12.699" height="1.794" transform="translate(18.619 3.588)" fill="#cbe1fd"/>
            <rect id="Rectangle_161172" data-name="Rectangle 161172" width="12.699" height="1.794" transform="translate(0 7.099)" fill="#cbe1fd"/>
            <rect id="Rectangle_161173" data-name="Rectangle 161173" width="9.223" height="1.794" transform="translate(15.323)" fill="#cbe1fd"/>
            <rect id="Rectangle_161174" data-name="Rectangle 161174" width="18.655" height="1.794" transform="translate(26.535)" fill="#cbe1fd"/>
          </g>
          <g id="Group_289057" data-name="Group 289057" transform="translate(0.139)">
            <rect id="Rectangle_161175" data-name="Rectangle 161175" width="19.588" height="2.54" fill="#cbe1fd"/>
            <rect id="Rectangle_161176" data-name="Rectangle 161176" width="27.063" height="2.54" transform="translate(21.752)" fill="#cbe1fd"/>
          </g>
        </g>
        <g id="Group_289062" data-name="Group 289062" transform="translate(700.253 183.784)">
          <path id="Path_125367" data-name="Path 125367" d="M1794.5,431.531l-1.813,1.3-1.823-1.287a2.232,2.232,0,0,1,3.636-.014Z" transform="translate(-1783.353 -421.403)" fill="#2b478b"/>
          <g id="Group_289059" data-name="Group 289059" transform="translate(4.923 6.027)">
            <path id="Path_125368" data-name="Path 125368" d="M1783.612,416.311a5.388,5.388,0,0,0-4.411,2.293l1.151.808a3.986,3.986,0,0,1,6.5-.024l1.147-.822A5.4,5.4,0,0,0,1783.612,416.311Z" transform="translate(-1779.201 -416.311)" fill="#2b478b"/>
          </g>
          <g id="Group_289060" data-name="Group 289060" transform="translate(0)">
            <path id="Path_125369" data-name="Path 125369" d="M1766.35,389.151a11.4,11.4,0,0,0-9.334,4.848l1.151.808a10.009,10.009,0,0,1,16.325-.061l1.141-.822A11.4,11.4,0,0,0,1766.35,389.151Z" transform="translate(-1757.016 -389.151)" fill="#2b478b"/>
          </g>
          <g id="Group_289061" data-name="Group 289061" transform="translate(2.678 3.298)">
            <path id="Path_125370" data-name="Path 125370" d="M1775.739,404.012a8.157,8.157,0,0,0-6.657,3.439l1.151.808a6.762,6.762,0,0,1,10.983-.042l1.142-.817A8.156,8.156,0,0,0,1775.739,404.012Z" transform="translate(-1769.082 -404.012)" fill="#2b478b"/>
          </g>
        </g>
        <rect id="Rectangle_161177" data-name="Rectangle 161177" width="570" height="1.867" rx="0.934" transform="translate(369.163 482.794)" fill="#2e3552"/>
      </g>
      <g id="Group_289064" data-name="Group 289064" transform="translate(-17783.631 -19492.869)">
        <g id="Group_283002" data-name="Group 283002" transform="translate(139.198 56.661)">
          <path id="Path_122625" data-name="Path 122625" d="M1330.671,1244.255c-1.2,3.238-3.292,7-5.482,7.931a8.486,8.486,0,0,0-3.52,2.557l-2.006-1.164-2.4-1.393s.056-.266.174-.7.3-1.033.538-1.7a2.317,2.317,0,0,0,.285-2.131,4.952,4.952,0,0,1,.408-4.136c.769-1.116,1.51-3.867,1.973-3.786,1.12.193-.551,3.974-.071,4.676a.829.829,0,0,0,1.077.369l.019-.011c3.142-1.382,6.954-8.83,8.642-7.826C1330.941,1237.321,1331.184,1242.875,1330.671,1244.255Z" transform="translate(-1317.268 -1236.851)" fill="#fc9290"/>
        </g>
        <g id="Group_283005" data-name="Group 283005" transform="translate(141.467 53.102)">
          <g id="Group_283003" data-name="Group 283003">
            <path id="Path_122626" data-name="Path 122626" d="M1322.126,1245.116l3.937,2.767a.62.62,0,0,0,.861-.151l10.085-14.349a.62.62,0,0,0-.151-.861l-3.937-2.767a.619.619,0,0,0-.86.15l-10.085,14.35A.619.619,0,0,0,1322.126,1245.116Z" transform="translate(-1321.864 -1229.643)" fill="#4e95cf"/>
          </g>
          <g id="Group_283004" data-name="Group 283004" transform="translate(3.667 2.56)">
            <path id="Path_122627" data-name="Path 122627" d="M1329.489,1250.273l2.308,1.622a.472.472,0,0,0,.655-.115l10.255-14.592a.472.472,0,0,0-.115-.655l-2.307-1.621a.471.471,0,0,0-.655.114l-10.255,14.592A.472.472,0,0,0,1329.489,1250.273Z" transform="translate(-1329.29 -1234.826)" fill="#176a92"/>
          </g>
        </g>
        <g id="Group_283006" data-name="Group 283006" transform="translate(74.35 47.983)">
          <path id="Path_122628" data-name="Path 122628" d="M1196.84,1219.277s20.032,34.939,27.3,41.368l26.648-19.867a9.728,9.728,0,0,1,5.56,5.067s-16.182,32.969-32.114,34.366-38.294-39.516-38.294-39.516Z" transform="translate(-1185.939 -1219.277)" fill="#60a6df"/>
        </g>
        <g id="Group_283007" data-name="Group 283007" transform="translate(19.413 262.133)">
          <path id="Path_122629" data-name="Path 122629" d="M1095.187,1676.465h-11.575a7.018,7.018,0,0,1-3.165-5.3c-.565-3.729-4.745-5.762-5.65-8.813s3.73-7.341,3.73-7.341l.774-1,.807-1.036,7.682,1.809s.191,1.829.306,4.16c.083,1.682.127,3.624.033,5.329-.226,4.066,1.137,8.446,4.75,9.238C1095.551,1674.092,1095.432,1675.677,1095.187,1676.465Z" transform="translate(-1074.681 -1652.973)" fill="#060632"/>
        </g>
        <g id="Group_283008" data-name="Group 283008" transform="translate(79.766 272.089)">
          <path id="Path_122630" data-name="Path 122630" d="M1224.232,1686.672h-26.469c-1.273-1.554-.8-7.286-.612-9.158.04-.377.067-.6.067-.6s9.039-7.23,10.281-1.694c.038.174.084.344.134.511,1.564,5.178,8.58,7.531,12.631,8.187C1222.9,1684.348,1223.872,1685.717,1224.232,1686.672Z" transform="translate(-1196.906 -1673.136)" fill="#060632"/>
        </g>
        <g id="Group_283009" data-name="Group 283009" transform="translate(63.7 135.503)">
          <path id="Path_122631" data-name="Path 122631" d="M1202.718,1398.894s-1.372,17.125-2.986,37.708c-2.192,27.961-4.828,62.307-5.09,68.815-.451,11.3-2.26,29.371-2.26,29.371s-4.291,4.293-12.877,2.484c0,0-7.653-25.8-9.838-53.1q-.051-.672-.1-1.349c-2.033-27.789-5.2-86.3-5.2-86.3Z" transform="translate(-1164.37 -1396.522)" fill="#284f63"/>
        </g>
        <g id="Group_283010" data-name="Group 283010" transform="translate(63.7 135.503)">
          <path id="Path_122632" data-name="Path 122632" d="M1202.718,1398.894s-1.372,17.125-2.986,37.708l-30.065,47.573q-.051-.672-.1-1.349c-2.033-27.789-5.2-86.3-5.2-86.3Z" transform="translate(-1164.37 -1396.522)" fill="#284f63"/>
        </g>
        <g id="Group_283011" data-name="Group 283011" transform="translate(23.259 128.726)">
          <path id="Path_122633" data-name="Path 122633" d="M1154.99,1393.979s-24.739,62.016-41.005,91.161-21.35,37.278-21.35,37.278-9.319-3.728-10.167-6.27c0,0,6.22-56.265,17.114-69.98,6.155-7.75,13.386-31.009,13.725-39.142s2.2-24.23,2.2-24.23Z" transform="translate(-1082.469 -1382.796)" fill="#284f63"/>
        </g>
        <g id="Group_283012" data-name="Group 283012" transform="translate(63.228 23.722)">
          <path id="Path_122634" data-name="Path 122634" d="M1189.808,1195.923c-9.667,3.05-26.394-5.182-26.394-5.182s8.913-6.69,8.447-20.6l7.474,6.023,5.078,4.092a60.742,60.742,0,0,1-.576,6.639c-.147,1.112-.329,2.352-.559,3.706A23.134,23.134,0,0,1,1189.808,1195.923Z" transform="translate(-1163.414 -1170.143)" fill="#ffbe9d"/>
        </g>
        <g id="Group_283013" data-name="Group 283013" transform="translate(71.643 29.6)">
          <path id="Path_122635" data-name="Path 122635" d="M1193.039,1186.284a60.776,60.776,0,0,1-.576,6.639c-5.626-.965-12.008-10.058-12.008-10.058a17.924,17.924,0,0,1,7.506-.672Z" transform="translate(-1180.456 -1182.047)" fill="#ffb27d"/>
        </g>
        <g id="Group_283014" data-name="Group 283014" transform="translate(68.083 7.191)">
          <path id="Path_122636" data-name="Path 122636" d="M1192.346,1163.08s-15.968,2.653-17.468-7.317-4.569-16.341,5.563-18.456,12.689,1.39,14,4.6S1196.461,1162.133,1192.346,1163.08Z" transform="translate(-1173.247 -1136.664)" fill="#ffbe9d"/>
        </g>
        <g id="Group_283015" data-name="Group 283015" transform="translate(54.414 40.473)">
          <path id="Path_122637" data-name="Path 122637" d="M1194.265,1302.9a1.566,1.566,0,0,1-1.016.387c-3.63-.049-14.216,1.967-23.174,1.047-7.552-.725-14.235-2.962-21.413-6.18-.953-.427-3.147-1.6-3.1-2.663.032-1.166.148-2.858.293-4.989a266.768,266.768,0,0,0,.53-34.852c-.155-2.738-.237-5.453-.246-8.126-.074-19.924,3.877-37.449,11.816-43.38.678-.486,4.841,1.549,8.666,3.436a15.836,15.836,0,0,0,10.408,1.26l3.339,2.952c4.067,3.776,8.521,8.908,10.457,16.7,1.647,6.631,2.614,18.59,3.147,30.983.241,5.615.437,11.28.485,16.654v.193c.048.532.048,1.115.048,1.647C1194.7,1291.76,1194.507,1302.7,1194.265,1302.9Z" transform="translate(-1145.564 -1204.066)" fill="#60a6df"/>
        </g>
        <g id="Group_283016" data-name="Group 283016" transform="translate(54.708 70.085)">
          <path id="Path_122638" data-name="Path 122638" d="M1146.16,1320.857a266.846,266.846,0,0,0,.531-34.853c-.156-2.737-.237-5.453-.247-8.126,3.308-8.022,6.01-13.84,6.01-13.84h8.336S1166.9,1305.781,1146.16,1320.857Z" transform="translate(-1146.16 -1264.038)" fill="#4491cf"/>
        </g>
        <g id="Group_283021" data-name="Group 283021" transform="translate(28.25 125.909)">
          <path id="Path_122641" data-name="Path 122641" d="M1103.37,1379.521s-1.867,2.487-1.941,3.481c-.5,6.735,2.575,7.667-5.392,11.408,0,0-3.4,1.3-3.459-1.343s2.36-2.684,1.918-6.381c-.51-4.265-.458-4.3,2.34-6.532l1.854-3.063Z" transform="translate(-1092.577 -1377.091)" fill="#fc9290"/>
        </g>
        <g id="Group_283022" data-name="Group 283022" transform="translate(30.169 41.87)">
          <path id="Path_122642" data-name="Path 122642" d="M1100.591,1295.272a27.317,27.317,0,0,0,6.255.348s8.912-27.529,10.059-30.044,26.469-32.279,26.469-32.279l-10.549-26.4s-27.389,45.751-30.171,52.179c-4.6,10.623-6.191,34.441-6.191,34.441A11.467,11.467,0,0,0,1100.591,1295.272Z" transform="translate(-1096.464 -1206.897)" fill="#60a6df"/>
        </g>
        <g id="Group_283023" data-name="Group 283023" transform="translate(65.818)">
          <path id="Path_122643" data-name="Path 122643" d="M1172.544,1147.433s1.639-.274,1.374-2.531-.26-5.207,1.575-4.657,1.926,2.019,2.681,1.161.767-4.473,6.227-4.724,7.679,1.649,10.218.532,2.673-4.96,2.673-4.96a4.368,4.368,0,0,1-1.813,1.809s4.236-5.794-.668-9.767-9.906-1.372-12.744-1.2c-6.253.379-10.293.754-12.336,4.863S1168.531,1143.477,1172.544,1147.433Z" transform="translate(-1168.659 -1122.101)" fill="#030231"/>
        </g>
        <g id="Group_283024" data-name="Group 283024" transform="translate(35.938 131.301)">
          <path id="Path_122644" data-name="Path 122644" d="M1108.307,1388.011s1.8,1.874,1.912,2.653c.364,2.5,1.2,3.585.781,3.856-.871.566-2.023-1.287-2.574-2.95A7.6,7.6,0,0,1,1108.307,1388.011Z" transform="translate(-1108.146 -1388.011)" fill="#fc9290"/>
        </g>
      </g>
    </g>
    <g id="Group_289066" data-name="Group 289066" transform="translate(-17338.146 -19286.668)">
      <g id="Group_282845" data-name="Group 282845" transform="translate(22.013 46.009)">
        <path id="Path_122511" data-name="Path 122511" d="M1071.953,1618.319h-33.471a1.81,1.81,0,0,0-1.81,1.81v6.725c0,2,2.239,1.869,3.66,1.81l2.986,23.051h21.958l3.629-23.051c1.529-.1,4.868.643,4.858-1.81v-6.725A1.81,1.81,0,0,0,1071.953,1618.319Z" transform="translate(-1036.671 -1618.319)" fill="#284f63"/>
        <path id="Path_122512" data-name="Path 122512" d="M1053.194,1665.018h23.129l-20.97,16.661Z" transform="translate(-1049.533 -1654.673)" fill="#1a1a35"/>
      </g>
      <path id="Path_122513" data-name="Path 122513" d="M967.941,1457.662c-15.487,1.1-24.041-15.938-26.982-27.53,0,0,21.775,7.47,24.863,12.589,0,0-8.4-21.443,1.427-32.1,0,0,12.605,18.729,13.458,28.775,0,0,5.5-14.8,24.731-17.985,0,0-5.345,21.6-14.667,25.04,0,0,7.61-4.842,26.7,1.522C1004.508,1457.215,988.978,1458.593,967.941,1457.662Z" transform="translate(-940.149 -1410.625)" fill="#60a6df"/>
      <path id="Path_122514" data-name="Path 122514" d="M1129.051,1603.461s2.267,18.177,35.929,13.556c0,0-16.595-17.057-27.124-17.721S1129.051,1603.461,1129.051,1603.461Z" transform="translate(-1086.493 -1557.453)" fill="#60a6df"/>
      <path id="Path_122515" data-name="Path 122515" d="M967.933,1612.039s6.717,18.86-30.632,21.368c0,0,15.3-22.056,23.3-22.958S967.933,1612.039,967.933,1612.039Z" transform="translate(-937.301 -1566.03)" fill="#60a6df"/>
      <path id="Path_122516" data-name="Path 122516" d="M1073.346,1598.253c-14.633,12,5.567,26.524,11.179,31.908,0,0,3.983-25.53,1.542-29.467S1073.346,1598.253,1073.346,1598.253Z" transform="translate(-1039.147 -1556.472)" fill="#60a6df"/>
      <path id="Path_122517" data-name="Path 122517" d="M1036.671,1573.074s5.528-2.359,8.619,1.29c2.535-6.942,8.966-6.978,14.1-3.522a7.071,7.071,0,0,1,5.592-5.61C1056.324,1558.586,1041.726,1562.041,1036.671,1573.074Z" transform="translate(-1014.659 -1528.355)" fill="#0271a6"/>
      <path id="Path_122518" data-name="Path 122518" d="M1073.1,1599.233a42.05,42.05,0,0,0,11.179,31.908C1077.455,1626.413,1058.723,1611.235,1073.1,1599.233Z" transform="translate(-1038.897 -1557.452)" fill="#0271a6"/>
      <path id="Path_122519" data-name="Path 122519" d="M966.536,1520.677s-19.913-8.784-25.577-22c0,0,2.44,19.669,19.088,26.219a10.955,10.955,0,0,1,9.022-1.255Z" transform="translate(-940.149 -1479.175)" fill="#0271a6"/>
      <path id="Path_122520" data-name="Path 122520" d="M937.3,1655.832s24.18-10.261,30.962-16.774C966.265,1646.138,966.379,1653.226,937.3,1655.832Z" transform="translate(-937.301 -1588.455)" fill="#0271a6"/>
      <path id="Path_122521" data-name="Path 122521" d="M1139.218,1602.418s13.78,17.868,33.759,17.078c0,0-20.5,4.908-30.775-5.2C1142.2,1614.293,1141.443,1605.716,1139.218,1602.418Z" transform="translate(-1094.489 -1559.932)" fill="#0271a6"/>
      <path id="Path_122522" data-name="Path 122522" d="M1128.725,1571.168a19.4,19.4,0,0,1,16.175,2.9s-7.452-10.241-19.161-11.792Z" transform="translate(-1083.996 -1528.681)" fill="#0271a6"/>
      <path id="Path_122523" data-name="Path 122523" d="M1125.739,1483.791s20.615-15.76,23.546-24.455c0,0-4.063,23.417-17.576,27.2Z" transform="translate(-1083.996 -1448.546)" fill="#0271a6"/>
      <path id="Path_122524" data-name="Path 122524" d="M1041.02,1410.625s-4.962,27.107,7.422,37.994C1036.6,1448.7,1030.75,1420.688,1041.02,1410.625Z" transform="translate(-1013.92 -1410.625)" fill="#0271a6"/>
    </g>
  </g>
</svg>
