<svg xmlns="http://www.w3.org/2000/svg" width="481.441" height="253.558" viewBox="0 0 481.441 253.558">
  <g id="community" transform="translate(-413.903 -464.226)">
    <path id="Path_94037" data-name="Path 94037" d="M432.093,716.612c.023.017,446.134-.056,446.134-.056,14.687-31.835,14.661-47.389,16.333-65.636,9.228-100.858-65.526-116.364-87.426-120.569-67.055-12.878-36.536-76.593-211.27-64.639-16.015,1.1-53.775,9.941-66.788,15.672-9.127,4.016-43.515,21.987-53.6,52.386a55.48,55.48,0,0,0-.738,32.449c11.372,42.543-18.275,40.1-39.939,60.372C405.879,653.646,408.9,697.9,432.093,716.612Z" transform="translate(0 0)" fill="#ebf3fa"/>
    <g id="Group_184422" data-name="Group 184422" transform="translate(669.061 620.688)">
      <g id="Group_184419" data-name="Group 184419" transform="translate(32.238 46.352)">
        <path id="Path_94038" data-name="Path 94038" d="M1833.085,1512.737h.07a.737.737,0,0,0,.737-.754l-1.117-48.4-3.29-.384,2.806,48.789A.8.8,0,0,0,1833.085,1512.737Z" transform="translate(-1829.485 -1463.198)" fill="#b0d4ff"/>
      </g>
      <g id="Group_184420" data-name="Group 184420" transform="translate(51.408 46.352)">
        <path id="Path_94039" data-name="Path 94039" d="M1927.5,1512.737h.07a.736.736,0,0,0,.736-.754l-1.116-48.4-3.29-.384,2.805,48.789A.8.8,0,0,0,1927.5,1512.737Z" transform="translate(-1923.904 -1463.198)" fill="#95c0f4"/>
      </g>
      <g id="Group_184421" data-name="Group 184421" transform="translate(1.304 46.352)">
        <path id="Path_94040" data-name="Path 94040" d="M1677.925,1512.737h-.07a.737.737,0,0,1-.736-.754l1.117-48.4,3.289-.384-2.805,48.789A.8.8,0,0,1,1677.925,1512.737Z" transform="translate(-1677.118 -1463.198)" fill="#b0d4ff"/>
      </g>
      <path id="Path_94041" data-name="Path 94041" d="M1775.6,1278.622v-33.167a10.567,10.567,0,0,0-10.567-10.567h-23.9a10.567,10.567,0,0,0-10.567,10.567v34.435Z" transform="translate(-1718.415 -1234.888)" fill="#b0d4ff"/>
      <path id="Rectangle_152101" data-name="Rectangle 152101" d="M5.236,0H49.312a0,0,0,0,1,0,0V5.236a0,0,0,0,1,0,0H0a0,0,0,0,1,0,0v0A5.236,5.236,0,0,1,5.236,0Z" transform="translate(57.187 48.97) rotate(180)" fill="#95c0f4"/>
      <path id="Rectangle_152102" data-name="Rectangle 152102" d="M2.618,0H36.98A2.618,2.618,0,0,1,39.6,2.618v0A2.618,2.618,0,0,1,36.98,5.236H2.618A2.618,2.618,0,0,1,0,2.618v0A2.618,2.618,0,0,1,2.618,0Z" transform="translate(39.598 48.97) rotate(180)" fill="#cae5ff"/>
    </g>
    <g id="Group_184443" data-name="Group 184443" transform="translate(614.082 489.856)">
      <rect id="Rectangle_152103" data-name="Rectangle 152103" width="137.758" height="118.918" transform="translate(0 0)" fill="#95c0f4"/>
      <g id="Group_184442" data-name="Group 184442" transform="translate(2.622 1.981)">
        <rect id="Rectangle_152104" data-name="Rectangle 152104" width="132.457" height="114.566" fill="#dfedfb"/>
        <g id="Group_184423" data-name="Group 184423" transform="translate(17.27 9.166)">
          <path id="Path_94042" data-name="Path 94042" d="M1526.9,686.058h-29.025V649.814l4.922-4.437h24.1Z" transform="translate(-1497.874 -645.377)" fill="#fff"/>
          <path id="Path_94043" data-name="Path 94043" d="M1497.874,649.814h4.764l.158-4.437Z" transform="translate(-1497.874 -645.377)" fill="#b0d4ff"/>
          <rect id="Rectangle_152105" data-name="Rectangle 152105" width="9.293" height="0.443" transform="translate(9.866 3.528)" fill="#b0d4ff"/>
          <rect id="Rectangle_152106" data-name="Rectangle 152106" width="13.669" height="0.443" transform="translate(7.678 4.855)" fill="#b0d4ff"/>
          <rect id="Rectangle_152107" data-name="Rectangle 152107" width="22.696" height="0.569" transform="translate(3.436 13.382)" fill="#b0d4ff"/>
          <rect id="Rectangle_152108" data-name="Rectangle 152108" width="22.696" height="0.569" transform="translate(3.436 15.11)" fill="#b0d4ff"/>
          <rect id="Rectangle_152109" data-name="Rectangle 152109" width="22.696" height="0.569" transform="translate(3.436 16.838)" fill="#b0d4ff"/>
          <rect id="Rectangle_152110" data-name="Rectangle 152110" width="22.696" height="0.569" transform="translate(3.436 18.566)" fill="#b0d4ff"/>
          <rect id="Rectangle_152111" data-name="Rectangle 152111" width="22.696" height="0.569" transform="translate(3.436 37.058)" fill="#b0d4ff"/>
        </g>
        <g id="Group_184424" data-name="Group 184424" transform="translate(50.785 59.451)">
          <path id="Path_94044" data-name="Path 94044" d="M1691.976,933.737h-29.025V897.493l4.922-4.437h24.1Z" transform="translate(-1662.951 -893.056)" fill="#fff"/>
          <path id="Path_94045" data-name="Path 94045" d="M1662.951,897.493h4.763l.158-4.437Z" transform="translate(-1662.951 -893.056)" fill="#b0d4ff"/>
          <rect id="Rectangle_152112" data-name="Rectangle 152112" width="9.293" height="0.443" transform="translate(9.866 3.528)" fill="#b0d4ff"/>
          <rect id="Rectangle_152113" data-name="Rectangle 152113" width="13.669" height="0.443" transform="translate(7.678 4.855)" fill="#b0d4ff"/>
          <rect id="Rectangle_152114" data-name="Rectangle 152114" width="22.696" height="0.569" transform="translate(3.436 13.382)" fill="#b0d4ff"/>
          <rect id="Rectangle_152115" data-name="Rectangle 152115" width="22.696" height="0.569" transform="translate(3.436 15.11)" fill="#b0d4ff"/>
          <rect id="Rectangle_152116" data-name="Rectangle 152116" width="22.696" height="0.569" transform="translate(3.436 16.838)" fill="#b0d4ff"/>
          <rect id="Rectangle_152117" data-name="Rectangle 152117" width="22.696" height="0.569" transform="translate(3.436 18.566)" fill="#b0d4ff"/>
          <rect id="Rectangle_152118" data-name="Rectangle 152118" width="22.696" height="0.569" transform="translate(3.436 23.884)" fill="#b0d4ff"/>
          <rect id="Rectangle_152119" data-name="Rectangle 152119" width="22.696" height="0.569" transform="translate(3.436 25.611)" fill="#b0d4ff"/>
          <rect id="Rectangle_152120" data-name="Rectangle 152120" width="22.696" height="0.569" transform="translate(3.436 27.615)" fill="#b0d4ff"/>
        </g>
        <g id="Group_184425" data-name="Group 184425" transform="translate(80.161 9.166)">
          <rect id="Rectangle_152121" data-name="Rectangle 152121" width="16.027" height="14.13" fill="#b0d4ff"/>
          <path id="Path_94046" data-name="Path 94046" d="M1843.663,650.909a.7.7,0,1,1,.7.7A.7.7,0,0,1,1843.663,650.909Z" transform="translate(-1836.351 -649.226)" fill="#8dc1ff"/>
        </g>
        <g id="Group_184426" data-name="Group 184426" transform="translate(79.689 27.736)">
          <rect id="Rectangle_152122" data-name="Rectangle 152122" width="16.027" height="14.13" transform="translate(0 1.116) rotate(-3.993)" fill="#fff"/>
          <path id="Path_94047" data-name="Path 94047" d="M1842.119,749.456a.7.7,0,1,1,.749.651A.7.7,0,0,1,1842.119,749.456Z" transform="translate(-1834.647 -746.297)" fill="#b0d4ff"/>
        </g>
        <g id="Group_184427" data-name="Group 184427" transform="translate(26.43 79.791)">
          <rect id="Rectangle_152123" data-name="Rectangle 152123" width="16.027" height="14.13" transform="translate(0 1.116) rotate(-3.993)" fill="#fff"/>
          <path id="Path_94048" data-name="Path 94048" d="M1579.789,1005.856a.7.7,0,1,1,.749.651A.7.7,0,0,1,1579.789,1005.856Z" transform="translate(-1572.317 -1002.697)" fill="#b0d4ff"/>
        </g>
        <g id="Group_184428" data-name="Group 184428" transform="translate(6.275 89.932)">
          <rect id="Rectangle_152124" data-name="Rectangle 152124" width="16.027" height="14.13" transform="matrix(1, -0.01, 0.01, 1, 0, 0.164)" fill="#fff"/>
          <path id="Path_94049" data-name="Path 94049" d="M1479.862,1053.449a.7.7,0,1,1,.709.694A.7.7,0,0,1,1479.862,1053.449Z" transform="translate(-1472.524 -1050.801)" fill="#b0d4ff"/>
        </g>
        <g id="Group_184429" data-name="Group 184429" transform="translate(101.679 36.27)">
          <rect id="Rectangle_152125" data-name="Rectangle 152125" width="16.027" height="14.13" transform="translate(2.486 0) rotate(10.133)" fill="#eef6ff"/>
          <path id="Path_94050" data-name="Path 94050" d="M1960.079,792.6a.61.61,0,1,1,.493.708A.61.61,0,0,1,1960.079,792.6Z" transform="translate(-1950.642 -789.416)" fill="#78acea"/>
        </g>
        <g id="Group_184430" data-name="Group 184430" transform="translate(54.775 27.455)">
          <rect id="Rectangle_152126" data-name="Rectangle 152126" width="16.027" height="14.13" transform="translate(0 1.725) rotate(-6.177)" fill="#eef6ff"/>
          <path id="Path_94051" data-name="Path 94051" d="M1719.859,746.753a.61.61,0,1,1,.672.541A.61.61,0,0,1,1719.859,746.753Z" transform="translate(-1712.292 -743.922)" fill="#78acea"/>
        </g>
        <g id="Group_184431" data-name="Group 184431" transform="translate(13.433 60.856)">
          <rect id="Rectangle_152127" data-name="Rectangle 152127" width="16.027" height="14.13" transform="translate(0 3.342) rotate(-12.037)" fill="#c8def9"/>
          <path id="Path_94052" data-name="Path 94052" d="M1516.809,915.52a.61.61,0,1,1,.844-.18A.61.61,0,0,1,1516.809,915.52Z" transform="translate(-1508.906 -911.47)" fill="#8dc1ff"/>
        </g>
        <g id="Group_184433" data-name="Group 184433" transform="translate(55.793 9.166)">
          <g id="Group_184432" data-name="Group 184432">
            <path id="Path_94053" data-name="Path 94053" d="M1703.278,659.507h-15.254V649.258l4.223-3.88h11.031Z" transform="translate(-1687.942 -645.377)" fill="#fff"/>
            <path id="Path_94054" data-name="Path 94054" d="M1687.622,649.258h4.167l.138-3.88Z" transform="translate(-1687.622 -645.377)" fill="#b0d4ff"/>
          </g>
          <path id="Path_94055" data-name="Path 94055" d="M1725.867,649.847a.5.5,0,1,1,.5.5A.5.5,0,0,1,1725.867,649.847Z" transform="translate(-1718.102 -648.54)" fill="#b0d4ff"/>
        </g>
        <g id="Group_184435" data-name="Group 184435" transform="translate(100.364 93.066)">
          <g id="Group_184434" data-name="Group 184434">
            <path id="Path_94056" data-name="Path 94056" d="M1922.811,1072.761h-15.255v-10.249l4.223-3.881h11.031Z" transform="translate(-1907.475 -1058.631)" fill="#fff"/>
            <path id="Path_94057" data-name="Path 94057" d="M1907.156,1062.511h4.166l.138-3.881Z" transform="translate(-1907.156 -1058.631)" fill="#b0d4ff"/>
          </g>
          <path id="Path_94058" data-name="Path 94058" d="M1945.4,1063.1a.5.5,0,1,1,.5.5A.5.5,0,0,1,1945.4,1063.1Z" transform="translate(-1937.636 -1061.794)" fill="#b0d4ff"/>
        </g>
        <g id="Group_184437" data-name="Group 184437" transform="translate(107.323 72.726)">
          <g id="Group_184436" data-name="Group 184436">
            <path id="Path_94059" data-name="Path 94059" d="M1957.087,972.574h-15.255V962.325l4.223-3.88h11.031Z" transform="translate(-1941.751 -958.444)" fill="#fff"/>
            <path id="Path_94060" data-name="Path 94060" d="M1941.432,962.325h4.166l.138-3.88Z" transform="translate(-1941.432 -958.444)" fill="#b0d4ff"/>
          </g>
          <path id="Path_94061" data-name="Path 94061" d="M1979.677,962.915a.5.5,0,1,1,.5.5A.5.5,0,0,1,1979.677,962.915Z" transform="translate(-1971.912 -961.607)" fill="#b0d4ff"/>
        </g>
        <g id="Group_184439" data-name="Group 184439" transform="translate(87.192 72.726)">
          <g id="Group_184438" data-name="Group 184438">
            <path id="Path_94062" data-name="Path 94062" d="M1857.931,972.574h-15.255V962.325l4.224-3.88h11.031Z" transform="translate(-1842.596 -958.444)" fill="#c8def9"/>
            <path id="Path_94063" data-name="Path 94063" d="M1842.276,962.325h4.166l.138-3.88Z" transform="translate(-1842.276 -958.444)" fill="#c8def9"/>
          </g>
          <path id="Path_94064" data-name="Path 94064" d="M1880.522,962.915a.5.5,0,1,1,.5.5A.5.5,0,0,1,1880.522,962.915Z" transform="translate(-1872.757 -961.607)" fill="#c8def9"/>
        </g>
        <g id="Group_184441" data-name="Group 184441" transform="translate(111.627 5.629)">
          <g id="Group_184440" data-name="Group 184440">
            <path id="Path_94065" data-name="Path 94065" d="M1978.29,642.085h-15.255V631.836l4.224-3.88h11.031Z" transform="translate(-1962.954 -627.955)" fill="#c8def9"/>
            <path id="Path_94066" data-name="Path 94066" d="M1962.635,631.836h4.166l.139-3.88Z" transform="translate(-1962.635 -627.955)" fill="#b0d4ff"/>
          </g>
          <path id="Path_94067" data-name="Path 94067" d="M2000.88,632.425a.5.5,0,1,1,.5.5A.5.5,0,0,1,2000.88,632.425Z" transform="translate(-1993.115 -631.117)" fill="#8dc1ff"/>
        </g>
      </g>
    </g>
    <g id="Group_184447" data-name="Group 184447" transform="translate(753.297 547.268)">
      <g id="Group_184444" data-name="Group 184444" transform="translate(0 154.602)">
        <path id="Path_94068" data-name="Path 94068" d="M2103.749,1647.732c-.139,1.884-2.8,1.9-5.814,1.554s-2.215.413-6.439.472-5.68-1.338-5.885-1.941c-.182-.536,1.853-.986,4.029-1.516.274-.065.548-.135.823-.2,2.455-.624,4.079-2.461,6.179-4.065,1.99-1.519,4.554-7.018,4.554-7.018l5.771-.261s-2.431,4.929-3.343,7.054a6.954,6.954,0,0,0-.075,3.964A7.371,7.371,0,0,1,2103.749,1647.732Z" transform="translate(-2085.599 -1634.754)" fill="#ffb27d"/>
        <path id="Path_94069" data-name="Path 94069" d="M2097.935,1692.537c-3.017-.35-2.215.413-6.439.472s-5.68-1.338-5.885-1.941c-.182-.536,1.853-.986,4.029-1.516l.026.04a11.833,11.833,0,0,0,6.2,1.11c2.836-.284,5.729-1.467,7.685-1.68a7.369,7.369,0,0,1,.2,1.96C2103.61,1692.867,2100.952,1692.887,2097.935,1692.537Z" transform="translate(-2085.599 -1678.004)" fill="#233862"/>
      </g>
      <g id="Group_184445" data-name="Group 184445" transform="translate(39.856 151.133)">
        <path id="Path_94070" data-name="Path 94070" d="M2300.059,1634.5c-.136,1.885-2.8,1.907-5.812,1.56s-2.215.416-6.439.479-5.682-1.332-5.886-1.935c-.183-.536,1.851-.988,4.027-1.521.273-.066.548-.135.823-.205,2.454-.626,4.077-2.464,6.175-4.071,1.988-1.521,0-10.528,0-10.528l6.347-.618s-.3,7.584-.3,11.031a19.386,19.386,0,0,0,.862,3.847A7.406,7.406,0,0,1,2300.059,1634.5Z" transform="translate(-2281.91 -1617.666)" fill="#ffb27d"/>
        <path id="Path_94071" data-name="Path 94071" d="M2294.247,1694.469c-3.018-.347-2.215.416-6.439.479s-5.682-1.332-5.886-1.935c-.183-.536,1.851-.988,4.027-1.521l.026.04a11.834,11.834,0,0,0,6.2,1.1c2.835-.287,5.727-1.473,7.683-1.687a7.406,7.406,0,0,1,.2,1.96C2299.923,1694.793,2297.264,1694.815,2294.247,1694.469Z" transform="translate(-2281.91 -1676.07)" fill="#233862"/>
      </g>
      <path id="Path_94072" data-name="Path 94072" d="M2278.632,885.56c-1.093-4.494.491-6.587,1.92-7.7a6.812,6.812,0,0,1,2.242-3.3,8.094,8.094,0,0,1,4.381-.838,2.048,2.048,0,0,0-.924-.438,6.792,6.792,0,0,1,2.423.632c10.43-4.019,12.069,11.338,11.85,14.906s-.188,7.769,5.238,10.58c10.353,5.363-3.441,25.575-3.441,25.575.263-2.883-13.04-18.1-19.98-22.654-1.689-2.488-2.29-6.881-2.335-7.227a18.968,18.968,0,0,0,1.42,6.539C2278.263,898.726,2277.794,891.735,2278.632,885.56Z" transform="translate(-2239.15 -873.254)"/>
      <path id="Path_94073" data-name="Path 94073" d="M2300.36,977.231c-.035.016,3.351,1.774,5.9,1.077,2.4-.653,3.961-3.759,3.928-3.766-1.015-.2-1.307-1.6-1.286-7.586l-.459.09-7.711,1.527s.176,2.427.181,4.713C2300.916,975.206,2300.8,977.027,2300.36,977.231Z" transform="translate(-2256.759 -947.932)" fill="#ffb27d"/>
      <path id="Path_94074" data-name="Path 94074" d="M2302.184,968.927s.175,2.427.18,4.713c4.315-.122,6.6-4.058,7.531-6.24Z" transform="translate(-2258.212 -948.286)" fill="#ed975d"/>
      <path id="Path_94075" data-name="Path 94075" d="M2147.29,1313.621a1.892,1.892,0,0,0,1.715,2.465l3.012.141,3.188.1a2.558,2.558,0,0,0,2.063-.941,89.616,89.616,0,0,0,15.126-28.64q.2-.636.424-1.287c3.137-9.148,9.641-20.63,13.068-31.024.545-1.656,1.036-3.214,1.475-4.689q.212-.709.409-1.393a110.258,110.258,0,0,0,3.931-20.7l-24.75.2A545.182,545.182,0,0,1,2147.29,1313.621Z" transform="translate(-2134.693 -1155.703)" fill="#0572a8"/>
      <path id="Path_94076" data-name="Path 94076" d="M2247.474,1032.674c.062,11.777-1.728,16.83-1.728,16.83a33.255,33.255,0,0,0,23.191,1.42c.148-.046,10.428-2.393,10.428-2.393-.211-.477-2.085-8.414-2.291-8.851-2.659-5.71-4.678-8.214-4.993-9.97a37.356,37.356,0,0,1-.307-9.867,79.2,79.2,0,0,1,3.054-15.5,80.4,80.4,0,0,1-10.217-3.492c-.822,1.023-3.333,2.094-5.512,2.045-2.508-.055-3.322-1.129-3.192-2.3-2.673,1.487-4.807,2.893-4.807,2.893-2.272,3.947-6.88,7.78-7.214,13.834C2243.805,1018.814,2247.472,1032.344,2247.474,1032.674Z" transform="translate(-2211.75 -974.745)" fill="#dceaf8"/>
      <path id="Path_94077" data-name="Path 94077" d="M2351.8,1084.7c1.082,1.531,3.156,10.838,8.316,12.008-2.659-6.633-4.678-9.542-4.993-11.581a50.274,50.274,0,0,1-.306-11.462c-1.728-3.027-3.017-5.1-3.017-5.1-.135-.49-2.745-8.558-3.582-1.346S2350.591,1082.991,2351.8,1084.7Z" transform="translate(-2294.791 -1025.463)" fill="#5f9aa8"/>
      <path id="Path_94078" data-name="Path 94078" d="M2281.738,917.957s10.21.169,10.216-6.191,1.329-10.621-5.188-11-7.788,2.049-8.306,4.171S2279.082,917.749,2281.738,917.957Z" transform="translate(-2239.207 -895.151)" fill="#ffb27d"/>
      <path id="Path_94079" data-name="Path 94079" d="M2296.947,895.08s2.8,7.461,7.085,8.564,6.151-.046,6.151-.046a12.15,12.15,0,0,1-3.974-7.177S2299.055,891.529,2296.947,895.08Z" transform="translate(-2254.038 -889.619)"/>
      <path id="Path_94080" data-name="Path 94080" d="M2280.066,898.361a9.017,9.017,0,0,0-2.6,3.285c-.509,1.62-.738,4.953-1.709,4.84,0,0-2.106-5.071.261-7.94C2278.531,895.5,2280.066,898.361,2280.066,898.361Z" transform="translate(-2236.465 -892.294)"/>
      <path id="Path_94081" data-name="Path 94081" d="M2197.029,1198.847l-4.822,14.7,2.751,1.1,7.973-12.989Z" transform="translate(-2170.563 -1132.744)" fill="#ffb27d"/>
      <path id="Path_94082" data-name="Path 94082" d="M2224.256,1010.583s-5.686,2.256-7.331,5.774-4.138,27.113-5.13,29.536-1.739,4.342-1.739,4.342,2.867,2.415,5.75,2.594S2224.256,1010.583,2224.256,1010.583Z" transform="translate(-2184.789 -982.702)" fill="#87b7e6"/>
      <path id="Path_94083" data-name="Path 94083" d="M2242.408,1000.6s-5.907,14.593-6.081,17.546-.695,48.293-.695,48.293.347,2.085-3.648,1.216-5.038-1.737-5.038-1.737,3.823-27.969,2.78-37.7,7.991-25.594,7.991-25.594Z" transform="translate(-2198.249 -974.745)" fill="#76ace2"/>
      <path id="Path_94084" data-name="Path 94084" d="M2170.929,1386.61l3.461.106a2,2,0,0,0,1.605-.725,89.319,89.319,0,0,0,15.311-28.865q.2-.636.424-1.287c3.137-9.148,9.642-20.631,13.069-31.024.546-1.656,1.035-3.214,1.475-4.689.14-.472.278-.937.408-1.393l-3.645-2.766s-10.943,17.719-14.33,34.395C2185.764,1364.847,2173.979,1382.276,2170.929,1386.61Z" transform="translate(-2153.605 -1226.086)" fill="#0572a8"/>
      <path id="Path_94085" data-name="Path 94085" d="M2317.659,1333.455c-.059,7.672.3,24.771,1.238,33.129a1.511,1.511,0,0,0,1.5,1.342h2.583c1.088,0,1.9-.008,2.443-.016a.992.992,0,0,0,.958-.8c2.568-13.068,4.406-23.925,5.752-33.306,1.125-7.852,2.125-14.584,2.9-20.379.775-5.832,1.313-10.715,1.506-14.841.03-.649.052-1.282.064-1.9s.016-1.216.011-1.8l-21.385-2.084C2315.5,1307.014,2317.694,1328.742,2317.659,1333.455Z" transform="translate(-2268.607 -1207.626)" fill="#0572a8"/>
      <path id="Path_94086" data-name="Path 94086" d="M2353.423,1390.607c.978,0,1.734-.006,2.27-.013a1.205,1.205,0,0,0,1.165-.973c2.551-12.993,4.378-23.8,5.718-33.137,1.125-7.852,2.126-14.584,2.9-20.379.774-5.831,1.313-10.715,1.506-14.841l-7.847,4.616s5.008,1.767,3.1,15.143S2356.083,1388.714,2353.423,1390.607Z" transform="translate(-2299.049 -1230.307)" fill="#0572a8"/>
      <path id="Path_94087" data-name="Path 94087" d="M2319.763,1066.737s1.506,5.443,6.718,4.747,12.622-3.822,12.622-3.822-2.227-7.037-5-16.282c-3.353-11.193-7.5-25.622-9.459-34.723a56.487,56.487,0,0,1-1.063-6.205l-4.323-8.389s-6.447,14.469-6.794,18.117S2319.763,1066.737,2319.763,1066.737Z" transform="translate(-2266.398 -975.913)" fill="#76ace2"/>
      <path id="Path_94088" data-name="Path 94088" d="M2295.007,1019.637l-5.707-17.573a88,88,0,0,1,10.825,3.967s2.261,2.915,3.66,9.641c0,0,1.479,16.147-1.822,22.054,0,0-10.423,2.085-27.1-3.648v-3.822s18.241.955,21.976,1.39Z" transform="translate(-2236.438 -975.913)" fill="#ffb27d"/>
      <path id="Path_94089" data-name="Path 94089" d="M2349.569,1085.114c.233,5.906,1.623,17.372,14.014,23.509.033.016.066.033.1.047-3.353-11.193-7.5-25.622-9.459-34.723C2351.947,1077.348,2349.442,1081.862,2349.569,1085.114Z" transform="translate(-2295.973 -1033.202)" fill="#76ace2"/>
      <path id="Path_94090" data-name="Path 94090" d="M2343.573,1002.064s10.578.745,13.126,6.42,3.359,24.552.116,30.111c0,0-4.465,1.272-12.361-.2l-.292-.055s-2.519-6.167-.26-7.383c0,0,6.659.347,5.964-1.853S2343.573,1002.064,2343.573,1002.064Z" transform="translate(-2290.711 -975.913)" fill="#87b7e6"/>
      <g id="Group_184446" data-name="Group 184446" transform="translate(25.084 51.306)">
        <path id="Path_94091" data-name="Path 94091" d="M2215.336,1131.362l.312,1,17.358-5.4a.666.666,0,0,0,.117-.614.491.491,0,0,0-.429-.387Z" transform="translate(-2214.08 -1125.962)" fill="#a9453d"/>
        <path id="Path_94092" data-name="Path 94092" d="M2209.153,1153.5l1.255-.946.312,1Z" transform="translate(-2209.153 -1147.159)" fill="#a9453d"/>
      </g>
      <path id="Path_94093" data-name="Path 94093" d="M2174.928,1269.281s-4.4,2.434-4.983,4.287-.181,5.736.518,5.678,1.742-4.172,2.322-4.461,1.39-1.158,1.39-.521-.579,1.8-.29,1.97,1.217-1.622,1.854-1.97.905-3.213,1.524-3.982S2174.928,1269.281,2174.928,1269.281Z" transform="translate(-2152.599 -1188.878)" fill="#ffb27d"/>
      <path id="Path_94094" data-name="Path 94094" d="M2235.74,1132.718s-3.938-2.425-5.59-2.052-5.862,3.423-3.837,4.083,3.665-.032,4.444.447,1.354,1.356,4.983,1.344S2235.74,1132.718,2235.74,1132.718Z" transform="translate(-2197.315 -1078.374)" fill="#ffb27d"/>
    </g>
    <g id="Group_184449" data-name="Group 184449" transform="translate(460.317 536.217)">
      <path id="Path_94095" data-name="Path 94095" d="M714.955,858.162c-.66-1.273,14.4-5.858,14.641,6.707,0,0,28.216-.694,14.743-16.42-4.664-5.445-4.184-9.946-4.044-14.137s-2.905-16.371-13.349-15.144a7.776,7.776,0,0,0-6.148.658C713.035,823.853,695.646,862.8,714.955,858.162Z" transform="translate(-693.241 -818.823)"/>
      <path id="Path_94096" data-name="Path 94096" d="M976.677,1068.742s1.836-2.8,3.317-2.851,4.222-.822,4-.274-1.919.6-2.083.932,2.522.822,3.289.877,2.577,0,2.522.384-3.261,1.974-5.523,1.754a15.34,15.34,0,0,0-5.058.658Z" transform="translate(-908.834 -1015.355)" fill="#ffb27d"/>
      <path id="Path_94097" data-name="Path 94097" d="M845.847,998.591a27.51,27.51,0,0,0,2.809,4.248c2.182,2.734,5.548,5.891,9.773,6.515a10.49,10.49,0,0,0,5.806-.943h.007c5.131-2.278,8.99-7.516,8.99-7.516a4.218,4.218,0,0,0-.575-4.14s-10.362,2.33-11.349,1.837-6.743-17.077-8.113-19.161-6.043-3.166-6.043-3.166Z" transform="translate(-804.565 -944.301)" fill="#76ace2"/>
      <path id="Path_94098" data-name="Path 94098" d="M858.4,1085.6c2.183,2.734,5.548,5.891,9.773,6.515a10.49,10.49,0,0,0,5.806-.943c-.2.026-5.325.659-7.368-2.995-2.084-3.728-4.337-9.649-7.432-7.676C857.845,1081.358,857.9,1083.475,858.4,1085.6Z" transform="translate(-814.312 -1027.065)" fill="#61a0e0"/>
      <path id="Path_94099" data-name="Path 94099" d="M645.137,1631.778s-3.162,2.885-2.545,4.936,3.47,3.417,3.855,5.922,1.928,3.872,3.316,3.872h6.618s1.022-1.763-1.446-2.295-3.4-3.476-3.244-6.21a48.192,48.192,0,0,0-.231-6.378l-5.244-1.215Z" transform="translate(-642.513 -1465.639)" fill="#233862"/>
      <path id="Path_94100" data-name="Path 94100" d="M785.528,1643.176s-1.138,12.223.25,12.907l17.764-.036s0-2.05-2.853-2.506-7.866-2.126-8.714-5.847S785.528,1643.176,785.528,1643.176Z" transform="translate(-756.142 -1475.813)" fill="#233862"/>
      <path id="Path_94101" data-name="Path 94101" d="M724.583,979.092c3.656-8.2,5.892-10.551,5.465-13.1-.318-1.894.968-35.31.968-35.31.434-.134,1.3-.255,1.779-.36a4.46,4.46,0,0,0,3.257-2.833,22.738,22.738,0,0,0,1.105-7.54l.468.092,7.873,1.559s-.179,2.478-.184,4.812c0,.019,0,.039,0,.058a4.529,4.529,0,0,0,3.268,4.379c.995.287,1.86.533,1.86.533a72.2,72.2,0,0,1,3.443,16.734c.552,8.479-5.257,12.163.044,29.108C759.341,994.535,722.563,983.622,724.583,979.092Z" transform="translate(-707.857 -899.422)" fill="#ffb27d"/>
      <path id="Path_94102" data-name="Path 94102" d="M797.011,921.967s-.179,2.478-.184,4.812c-4.406-.124-6.735-4.144-7.689-6.371Z" transform="translate(-759.37 -899.784)" fill="#e8945b"/>
      <path id="Path_94103" data-name="Path 94103" d="M793.757,869.925s-10.424.172-10.431-6.322-1.357-10.844,5.3-11.229,7.951,2.092,8.481,4.259S796.469,869.713,793.757,869.925Z" transform="translate(-754.644 -845.532)" fill="#ffb27d"/>
      <path id="Path_94104" data-name="Path 94104" d="M780.214,846.567s-2.854,7.618-7.234,8.744-6.28-.047-6.28-.047a12.4,12.4,0,0,0,4.057-7.328S778.061,842.941,780.214,846.567Z" transform="translate(-741.486 -839.883)"/>
      <path id="Path_94105" data-name="Path 94105" d="M829.781,849.918a6.466,6.466,0,0,1,2.988,2.335,10.5,10.5,0,0,1,1.409,5.961s2.151-5.178-.266-8.107C831.349,847,829.781,849.918,829.781,849.918Z" transform="translate(-791.761 -842.615)"/>
      <path id="Path_94106" data-name="Path 94106" d="M823.994,917.7a2.619,2.619,0,0,0,2.158.878,1.916,1.916,0,0,0,1.606-1.06A7,7,0,0,0,823.994,917.7Z" transform="translate(-787.149 -897.339)" fill="#ebf3fa"/>
      <path id="Path_94107" data-name="Path 94107" d="M719.48,987.6a70.755,70.755,0,0,0,0,8.211c.176,2.969,3.179,6.945,3.605,7.929,1.069,2.467,2.274,2.868,2.274,2.868l9.327,2.286,3.28.8,10.342-3.089s4.71-13.148,2.819-20.549a56.879,56.879,0,0,0-4.781-12.541s-8.439,8.263-19.427-.7Z" transform="translate(-703.76 -941.55)" fill="#61a0e0"/>
      <path id="Path_94108" data-name="Path 94108" d="M733.389,1080.246a29.035,29.035,0,0,0,.875,6.717c1.069,2.467,2.274,2.868,2.274,2.868l9.327,2.286,4.051-1.191s-13.523-2.049-12.024-13.684Z" transform="translate(-714.939 -1024.778)" fill="#f2ccaa"/>
      <path id="Path_94109" data-name="Path 94109" d="M791.337,1149.077s5.122,15.941,5.45,21.369-9.79,77.1-10.2,79.6c-.384,2.357-3.311,3.86-3.311,3.86a4.429,4.429,0,0,1-3.268.251,8.084,8.084,0,0,1-3.509-1.654s-3.986-51.118-1.519-69.378a289.235,289.235,0,0,0,2.5-34.051Z" transform="translate(-747.447 -1082.028)" fill="#1379ac"/>
      <path id="Path_94110" data-name="Path 94110" d="M679.245,1146.736s-7.812,10.482-8.541,17.568-1.142,31.975-2.694,38.883-7.252,20.2-7.252,41.747a4.3,4.3,0,0,0,2.422,1.893,19.878,19.878,0,0,0,2.13.589,3.349,3.349,0,0,0,3.746-1.778c3.854-7.76,16.132-32.789,16.761-37.984.445-3.677,4.322-28.01,12.778-42.289,2.03-3.428-1.246-17.06-1.246-17.06Z" transform="translate(-657.054 -1080.162)" fill="#0572a8"/>
      <path id="Path_94111" data-name="Path 94111" d="M825.135,918.069s.18.765,2.084.647c0,0,1.6-.1,1.55-.94A5.142,5.142,0,0,0,825.135,918.069Z" transform="translate(-788.058 -897.53)" fill="#fff"/>
      <path id="Path_94112" data-name="Path 94112" d="M769.988,1136.956a10.737,10.737,0,0,1-6.14,1.708c-4.879.1-16.968-1.244-16.968-1.244a10,10,0,0,0-.515,3.085s14.765,3.724,23.319.544A5.406,5.406,0,0,0,769.988,1136.956Z" transform="translate(-725.28 -1072.368)" fill="#233862"/>
      <g id="Group_184448" data-name="Group 184448" transform="translate(37.512 65.462)">
        <path id="Path_94113" data-name="Path 94113" d="M827.28,1143.78a2.243,2.243,0,1,1,2.226,2.52A2.389,2.389,0,0,1,827.28,1143.78Zm.738,0a1.512,1.512,0,1,0,1.488-1.782A1.657,1.657,0,0,0,828.018,1143.78Z" transform="translate(-827.28 -1141.26)" fill="#fff"/>
      </g>
      <rect id="Rectangle_152128" data-name="Rectangle 152128" width="20.058" height="27.456" transform="matrix(-0.754, -0.657, 0.657, -0.754, 20.832, 80.644)" fill="#2b478b"/>
      <path id="Path_94114" data-name="Path 94114" d="M761.584,1151.4s5.542.648,5.525,1.964-1.381,4.019-2.066,4.139-4.51-3.655-4.51-3.655Z" transform="translate(-736.572 -1083.876)" fill="#ffb27d"/>
      <path id="Path_94115" data-name="Path 94115" d="M684.138,972.814s-7.4.519-10.236,7.414-8.218,18.472-8.218,20.42,3.006,7.951,19.152,11.4c0,0,1.67-1.757,1.569-3.146,0,0-10.078-8.657-10.051-9.668.051-1.914,1.652-4.44,10.5-13.291C689.259,983.54,684.138,972.814,684.138,972.814Z" transform="translate(-660.98 -941.55)" fill="#76ace2"/>
    </g>
    <g id="Group_184458" data-name="Group 184458" transform="translate(540.723 572.238)">
      <g id="Group_184453" data-name="Group 184453" transform="translate(3.157 48.579)">
        <g id="Group_184450" data-name="Group 184450" transform="translate(20.542 46.353)">
          <path id="Path_94116" data-name="Path 94116" d="M1156.1,1513.374h-.07a.737.737,0,0,1-.736-.754l1.117-48.4,3.29-.384-2.805,48.789A.8.8,0,0,1,1156.1,1513.374Z" transform="translate(-1155.292 -1463.835)" fill="#b0d4ff"/>
        </g>
        <g id="Group_184451" data-name="Group 184451" transform="translate(1.373 46.353)">
          <path id="Path_94117" data-name="Path 94117" d="M1061.68,1513.374h-.07a.737.737,0,0,1-.736-.754l1.117-48.4,3.289-.384-2.805,48.789A.8.8,0,0,1,1061.68,1513.374Z" transform="translate(-1060.873 -1463.835)" fill="#95c0f4"/>
        </g>
        <g id="Group_184452" data-name="Group 184452" transform="translate(51.476 46.353)">
          <path id="Path_94118" data-name="Path 94118" d="M1311.258,1513.374h.07a.737.737,0,0,0,.736-.754l-1.117-48.4-3.289-.384,2.805,48.789A.8.8,0,0,0,1311.258,1513.374Z" transform="translate(-1307.659 -1463.835)" fill="#b0d4ff"/>
        </g>
        <path id="Path_94119" data-name="Path 94119" d="M1054.111,1279.258V1246.09a10.567,10.567,0,0,1,10.567-10.567h23.9a10.567,10.567,0,0,1,10.567,10.567v34.435Z" transform="translate(-1054.111 -1235.523)" fill="#b0d4ff"/>
        <path id="Rectangle_152129" data-name="Rectangle 152129" d="M0,0H49.312a0,0,0,0,1,0,0V5.236a0,0,0,0,1,0,0H5.236A5.236,5.236,0,0,1,0,0V0A0,0,0,0,1,0,0Z" transform="translate(0 43.735)" fill="#95c0f4"/>
        <rect id="Rectangle_152130" data-name="Rectangle 152130" width="39.598" height="5.236" rx="2.618" transform="translate(17.589 43.735)" fill="#b0d4ff"/>
      </g>
      <g id="Group_184457" data-name="Group 184457" transform="translate(0 0)">
        <path id="Path_94120" data-name="Path 94120" d="M1216.9,1406.4a22.228,22.228,0,0,1-7.729,8.258h-17.913S1219.51,1401.855,1216.9,1406.4Z" transform="translate(-1160.256 -1322.351)" fill="#233862"/>
        <g id="Group_184454" data-name="Group 184454">
          <path id="Path_94121" data-name="Path 94121" d="M1248.119,1578.971a1.656,1.656,0,0,0-.295,1.771.012.012,0,0,0,0,.009c.427,1.18,1.839,2.5,3.479,3.815.209.169.4.323.558.465.043.038.085.075.125.113l.1.087c1.529,1.409.953,1.732,3.7,4.592,3.132,3.259,5.288,3.318,5.9,3.021.519-.253-.535-1.981-1.7-3.924-.057-.094-.112-.189-.17-.283-.156-.258-.31-.52-.465-.78-1.369-2.338-1.018-3.435-.693-6.914.264-2.828,4.4-15.8,4.4-15.8l-6-1.034s-1.807,10.327-3.8,11.917c-1.064.848-2.257.858-3.28,1.487-.073.043-.143.088-.213.134A7.871,7.871,0,0,0,1248.119,1578.971Z" transform="translate(-1205.234 -1448.822)" fill="#ffb27d"/>
          <path id="Path_94122" data-name="Path 94122" d="M1248.119,1631.587a1.656,1.656,0,0,0-.295,1.771.013.013,0,0,0,0,.009,12.743,12.743,0,0,0,3.484,3.8c.207.172.39.33.552.477.043.038.085.075.125.113s.065.059.1.087c1.529,1.409.953,1.732,3.7,4.592,3.132,3.259,5.288,3.318,5.9,3.021.519-.253-.535-1.981-1.7-3.924a13.343,13.343,0,0,1-5.583-4.114c-1.886-2.406-3.143-5.5-4.428-7.29-.073.044-.143.089-.213.135A7.877,7.877,0,0,0,1248.119,1631.587Z" transform="translate(-1205.234 -1501.439)" fill="#233862"/>
          <path id="Path_94123" data-name="Path 94123" d="M1469.326,1568.052c.371,1.853,3.011,1.543,5.962.823s2.249.136,6.448-.328,5.471-2.031,5.6-2.655c.115-.554-1.96-.75-4.186-1.006-.28-.031-.561-.066-.842-.1-2.513-.315-4.353-1.937-6.635-3.268-2.162-1.261-5.388-6.4-5.388-6.4l-5.759.456s3.022,4.59,4.191,6.586a6.961,6.961,0,0,1,.565,3.924A7.4,7.4,0,0,0,1469.326,1568.052Z" transform="translate(-1378.044 -1441.652)" fill="#ffb27d"/>
          <path id="Path_94124" data-name="Path 94124" d="M1493.786,1607.224c2.95-.721,2.249.136,6.448-.328s5.471-2.031,5.6-2.655c.115-.554-1.96-.75-4.186-1.006l-.021.043a11.837,11.837,0,0,1-6.013,1.869c-2.849.069-5.866-.747-7.834-.715a7.4,7.4,0,0,0,.044,1.97C1488.195,1608.254,1490.835,1607.944,1493.786,1607.224Z" transform="translate(-1396.542 -1480.001)" fill="#233862"/>
          <path id="Path_94125" data-name="Path 94125" d="M1301.915,1401.225l-5.383,14.486-7.028,18.914a11.391,11.391,0,0,1-3.734-.341,16.2,16.2,0,0,1-3.611-1.758s1.952-20.309,5.592-31.967a20.758,20.758,0,0,1,3.132-6.775C1296.527,1387.115,1301.915,1401.225,1301.915,1401.225Z" transform="translate(-1232.703 -1311.647)" fill="#0572a8"/>
          <path id="Path_94126" data-name="Path 94126" d="M1148.106,1312.791c-3.527-1.137-13.586.323-23.691,2.3l-2.115-3.49-21.826-1.7s-7.2,15.971-3.259,26.148a3.69,3.69,0,0,0,3.694,2.487h.319s12.99-.008,17.208-.008c10.854,0,22.971-7.461,24.538-7.775,2.566-.513,3.592,4.618,6.158,10.006s24.117,23.86,24.117,23.86a18.985,18.985,0,0,0,4.681-.48,4.611,4.611,0,0,0,2.01-1.269S1156.06,1315.356,1148.106,1312.791Z" transform="translate(-1084.367 -1246.219)" fill="#0572a8"/>
          <path id="Path_94127" data-name="Path 94127" d="M1075.948,998.076c-2.8-1.468-7.05-1.667-7.741-1.76-8.271-1.111-13.248,10.906-13.541,14.548-.539,6.712-4.09,7.735-9.088,11.939-10.021,8.428-7.082,18.222-1.6,21.862,3.288,2.183,9.083,0,9.083,0,.082.057,15.849-8.814,23.621-13.093C1088.33,1029.915,1083.073,1001.817,1075.948,998.076Z" transform="translate(-1038.873 -996.244)"/>
          <path id="Path_94128" data-name="Path 94128" d="M1150.941,1104.334c.034.022-3.824,1.339-6.4.2-2.427-1.072-4.266-5.066-4.229-5.068,1.1-.051,2.316-1.016,3.25-7.35l.47.169,7.9,2.844s-.573,2.536-.943,4.951C1150.677,1102.106,1150.51,1104.048,1150.941,1104.334Z" transform="translate(-1119.65 -1072.65)" fill="#ffb27d"/>
          <path id="Path_94129" data-name="Path 94129" d="M1166.536,1095.789s-.573,2.536-.943,4.951c-4.54-.817-6.322-5.341-6.961-7.8Z" transform="translate(-1134.254 -1073.312)" fill="#ed975d"/>
          <path id="Path_94130" data-name="Path 94130" d="M1164.605,1044.677s-10.815-1.452-9.807-8.172.29-11.435,7.238-10.792,7.9,3.408,8.111,5.733S1167.444,1044.881,1164.605,1044.677Z" transform="translate(-1131.146 -1019.683)" fill="#ffb27d"/>
          <path id="Path_94131" data-name="Path 94131" d="M1157.572,1025.43s-6.923,5.966-11.632,6.447-6.492-1.03-6.492-1.03a18.39,18.39,0,0,0,4.446-6.024,3.311,3.311,0,0,1,2.729-1.952C1149.986,1022.58,1156.36,1022.448,1157.572,1025.43Z" transform="translate(-1118.965 -1017.351)"/>
          <path id="Path_94132" data-name="Path 94132" d="M1207.4,1028.325a17.047,17.047,0,0,1,3.045,3.9,13.089,13.089,0,0,1,.354,6.959s3.608-7.016,1.566-10.426C1210.2,1025.143,1207.4,1028.325,1207.4,1028.325Z" transform="translate(-1173.123 -1020.78)"/>
          <path id="Path_94133" data-name="Path 94133" d="M1123.615,1148.117c-.327,21.892-.09,17.317-2.484,19.395-.577.5-2.2.8-4.334.94-6.713.445-18.513-.66-18.962-1.9-1.548-4.292-.455-5.626-1.747-12.2-.134-.7-.3-1.456-.5-2.279-1.077-4.514-2.125-6.049,1.7-13.3,3.465-6.568,7.065-11.9,7.389-11.707,9.143,5.427,9.88.865,9.88.865S1123.776,1137.439,1123.615,1148.117Z" transform="translate(-1083.217 -1100.501)" fill="#61a0e0"/>
          <path id="Path_94134" data-name="Path 94134" d="M1296.532,1449.336l-7.028,18.914a11.4,11.4,0,0,1-3.734-.341,16.194,16.194,0,0,1-3.611-1.758s1.952-20.309,5.592-31.967Z" transform="translate(-1232.703 -1345.273)" fill="#0572a8"/>
          <path id="Path_94135" data-name="Path 94135" d="M1192.92,1131.342s9.407,1.595,10.512,5.645,7.605,27.862,7.605,27.862-4.782.859-6.992-1.35-7.688-20.5-7.688-20.5Z" transform="translate(-1161.581 -1103.914)" fill="#76ace2"/>
          <path id="Path_94136" data-name="Path 94136" d="M1122.662,1239.8c-6.713.445-18.513-.66-18.962-1.9-1.548-4.292-.455-5.626-1.747-12.2l3.238-9.117s-.535,10.152,2.459,12.823,12.259,5.155,13.714,7.386A8.168,8.168,0,0,1,1122.662,1239.8Z" transform="translate(-1089.083 -1171.849)" fill="#61a0e0"/>
          <path id="Path_94137" data-name="Path 94137" d="M1166.072,1305.874s6.623-1.474,7.691-.887,3.68,2.728,4.007,3.473-2.379-.565-3.259-.8a7.826,7.826,0,0,0-2.813.616,9.353,9.353,0,0,1-5.041.506Z" transform="translate(-1140.184 -1242.195)" fill="#ffb27d"/>
          <path id="Path_94138" data-name="Path 94138" d="M1060.012,1127.061s-8.893.548-11.971,4.841c-4.333,6.044-12.929,31.8-8,35.236,5.548,3.869,25.25,1.012,25.25,1.012s.656-3.065-.257-4.547-15.736-3.877-16.421-4.561,8.553-13.342,8.553-15.395S1060.012,1127.061,1060.012,1127.061Z" transform="translate(-1038.559 -1100.502)" fill="#76ace2"/>
          <path id="Path_94139" data-name="Path 94139" d="M1205.534,1314.61a12.814,12.814,0,0,0,1.842,2,1.358,1.358,0,0,0,.749.161l-.935-1.683Z" transform="translate(-1171.634 -1249.974)" fill="#ffb27d"/>
          <path id="Path_94140" data-name="Path 94140" d="M1203.955,1305.531l4.035,1.959a.72.72,0,0,1-.669.258,9.639,9.639,0,0,1-1.75-.481Z" transform="translate(-1170.376 -1242.739)" fill="#ffb27d"/>
        </g>
        <g id="Group_184456" data-name="Group 184456" transform="translate(25.888 45.509)">
          <g id="Group_184455" data-name="Group 184455">
            <path id="Path_94141" data-name="Path 94141" d="M1214.609,1244.271h31.913l9.6-23.873h-31.864Z" transform="translate(-1204.755 -1220.398)" fill="#2b478b"/>
            <path id="Path_94142" data-name="Path 94142" d="M1208.214,1333.4h-42.142v.93h41.767Z" transform="translate(-1166.072 -1310.46)" fill="#2b478b"/>
          </g>
          <path id="Path_94143" data-name="Path 94143" d="M1319.947,1273.226a1.106,1.106,0,0,0-1.084-1.519,2.178,2.178,0,0,0-1.955,1.519,1.106,1.106,0,0,0,1.084,1.52A2.178,2.178,0,0,0,1319.947,1273.226Z" transform="translate(-1286.236 -1261.29)" fill="#fff"/>
        </g>
      </g>
    </g>
    <g id="Group_184461" data-name="Group 184461" transform="translate(559.501 641.838)">
      <g id="Group_184459" data-name="Group 184459" transform="translate(178.883 6.394)">
        <path id="Path_94144" data-name="Path 94144" d="M2016.9,1439.914H2017a1.006,1.006,0,0,0,.974-1.055l-1.477-67.769-4.35-.537,3.71,68.311A1.08,1.08,0,0,0,2016.9,1439.914Z" transform="translate(-2012.144 -1370.553)" fill="#78acea"/>
      </g>
      <g id="Group_184460" data-name="Group 184460" transform="translate(6.202 6.394)">
        <path id="Path_94145" data-name="Path 94145" d="M1162.665,1439.914h-.093a1,1,0,0,1-.974-1.055l1.477-67.769,4.35-.537-3.71,68.311A1.08,1.08,0,0,1,1162.665,1439.914Z" transform="translate(-1161.598 -1370.553)" fill="#78acea"/>
      </g>
      <path id="Rectangle_152131" data-name="Rectangle 152131" d="M4.089,0H187.554a4.089,4.089,0,0,1,4.089,4.089v0a4.089,4.089,0,0,1-4.089,4.089H4.089A4.089,4.089,0,0,1,0,4.089v0A4.089,4.089,0,0,1,4.089,0Z" transform="translate(0 0)" fill="#78acea"/>
    </g>
    <g id="Group_184462" data-name="Group 184462" transform="translate(819.898 538.277)">
      <path id="Path_94146" data-name="Path 94146" d="M2614.354,1687.07a20.325,20.325,0,0,1,1.392-5.212c.972-1.943,7.156-.707,7.156-.707s1.237,1.06,1.5,6.008Z" transform="translate(-2573.605 -1507.829)" fill="#233862"/>
      <path id="Path_94147" data-name="Path 94147" d="M2433.324,1671.035c1.453-.887.626-7.5.626-7.5s-6.771-5.417-7.7-1.27-6.433,6.009-9.564,6.517c-2.162.351-2.832,1.548-3.038,2.256Z" transform="translate(-2413.645 -1491.837)" fill="#233862"/>
      <path id="Path_94148" data-name="Path 94148" d="M2489.1,1276.315a31.3,31.3,0,0,0-.5,3.657c-.63,12.278-10.335,40.351-12.071,41.006-2.686,1.014-6.916-1.141-9.129-1.846a1.9,1.9,0,0,1-1.332-2.156c4.806-22.1,6.573-53.915,7.216-72.752a85.5,85.5,0,0,1,1.953-16.043s23.672-6.316,23.813,1.674C2499.176,1236.925,2491.21,1264.652,2489.1,1276.315Z" transform="translate(-2455.395 -1145.243)" fill="#0572a8"/>
      <path id="Path_94149" data-name="Path 94149" d="M2517.578,1276.315l-15.813-32.091a85.49,85.49,0,0,1,1.954-16.043s23.672-6.316,23.813,1.674C2527.655,1236.925,2519.689,1264.652,2517.578,1276.315Z" transform="translate(-2483.874 -1145.243)" fill="#0572a8"/>
      <path id="Path_94150" data-name="Path 94150" d="M2553.713,1234.54l12.514,90.7s5.495,1.325,9.769.265c0,0,3.664-48.237,3.359-59.9s2.629-31.2-.67-33.36S2553.713,1234.54,2553.713,1234.54Z" transform="translate(-2525.276 -1149.9)" fill="#0572a8"/>
      <path id="Path_94151" data-name="Path 94151" d="M2544.2,1020.515a1.737,1.737,0,0,1-1.253,1.794c-1.746.507-3.758.859-7.64,1.663a74.081,74.081,0,0,1-14.578,1.465c-9.586.061-13.215-3.243-13.215-3.243-.413.008.218-2,.787-11.537.192-3.231.378-7.327.513-12.5.12-4.658.2-10.191.21-16.756.01-7.9,12.233-16.392,12.459-16.392l0,0c0,1.137,1.792,3.235,4.552,3.416,3.276.214,7.294-1.416,7.294-3.3,0-.019,5.922,9.473,8.025,19.588C2542.417,989.8,2541.988,989.665,2544.2,1020.515Z" transform="translate(-2488.349 -937.386)" fill="#b0d0ff"/>
      <path id="Path_94152" data-name="Path 94152" d="M2496.021,965.007s-11.366-.1-14.1,3.74-8.733,24.474-5.6,31.341,8.987-2.841,12.237-7.047S2496.021,965.007,2496.021,965.007Z" transform="translate(-2462.89 -937.388)" fill="#b0d0ff"/>
      <path id="Path_94153" data-name="Path 94153" d="M2576.132,929.857l.006,1.175s-.32,3.674,4.2,4.211,7.883-.686,7.76-3.522a40.925,40.925,0,0,1-.816-6.266,12.79,12.79,0,0,1,.162-2.2l-8.768-.175-2.583.422Z" transform="translate(-2543.116 -903.973)" fill="#ffb27d"/>
      <path id="Path_94154" data-name="Path 94154" d="M2576.1,923.5l.034,6.356a7.413,7.413,0,0,0,3.16.7c4.03,0,6.635-2.955,8-5.1a12.79,12.79,0,0,1,.162-2.2l-8.768-.175Z" transform="translate(-2543.116 -903.973)" fill="#e2915a"/>
      <path id="Path_94155" data-name="Path 94155" d="M2578.495,862.865c-1.017,5.475-8.081,5.295-11.135,4.951-.859-.1-1.4-.205-1.4-.205-.969-.259-1.51-1.785-1.761-3.783-.5-3.955.132-9.762.8-11.247,1.006-2.234,2.9-4.651,10.014-2.907S2579.8,855.851,2578.495,862.865Z" transform="translate(-2533.491 -844.994)" fill="#ffb27d"/>
      <path id="Path_94156" data-name="Path 94156" d="M2502.821,1040.764s-4.4,9.708-4.268,12.618a15.178,15.178,0,0,1,4.268.549C2506.257,1054.955,2502.821,1040.764,2502.821,1040.764Z" transform="translate(-2481.312 -997.764)" fill="#98baf4"/>
      <path id="Path_94157" data-name="Path 94157" d="M2557.809,831.343a23.542,23.542,0,0,0,6.825-1.847c3-1.3,6.78.132,8.008.779a1.822,1.822,0,0,0-.3-.739,1.648,1.648,0,0,1,.633.937c.057.042.083.071.068.08a2.115,2.115,0,0,1,1.027.066s-.281-.04-.381.14a.166.166,0,0,1-.045.05c4.676,2.259,5.108,9.65,3.6,11.36a59.38,59.38,0,0,0-4.544,6.713,8.453,8.453,0,0,1,.1-2.927c.329-1.81-1.234-1.81-3.21-2.633s-.329-3.127-2.057-4.526-8.065-.576-7.983-1.646C2557.2,836.293,2557.809,831.584,2557.809,831.343Z" transform="translate(-2528.484 -828.967)"/>
      <path id="Path_94158" data-name="Path 94158" d="M2538.394,1128.7c-1.855,7.452-21.925,11.3-26.487,12.085.192-3.231.379-7.327.513-12.5Z" transform="translate(-2491.958 -1067.512)" fill="#98baf4"/>
      <path id="Path_94159" data-name="Path 94159" d="M2615.8,1111.442a35.334,35.334,0,0,0,5.226-1.02c.765-.383,4.263-5.354,1.972-6.628s-8.44,3.824-8.44,3.824Z" transform="translate(-2573.764 -1047.834)" fill="#ffb27d"/>
      <path id="Path_94160" data-name="Path 94160" d="M2492.135,1114.519s16.515.9,27.6-1.477a4.764,4.764,0,0,0-3.2-4.624s-17.274-3.661-21.424-2.641S2492.135,1114.519,2492.135,1114.519Z" transform="translate(-2476.077 -1049.434)" fill="#b0d0ff"/>
      <path id="Path_94161" data-name="Path 94161" d="M2624.186,989.97c-3.428,4.133-7.909,7.507-12.848,8.3h0a9.206,9.206,0,0,1-1.223-5.516,11.047,11.047,0,0,1,1.8-5.063,11.2,11.2,0,0,0,.971-1.958c2.7-6.882,2.3-20.146,2.3-20.146s11.455,1.2,15.024,6.3C2632.39,975,2629.6,983.436,2624.186,989.97Z" transform="translate(-2570.199 -937.847)" fill="#b0d0ff"/>
      <path id="Path_94162" data-name="Path 94162" d="M2568.064,925.721c-.859-.1-1.4-.205-1.4-.205-.969-.259-1.509-1.785-1.761-3.783a4.785,4.785,0,0,1,3,2.449A3.525,3.525,0,0,1,2568.064,925.721Z" transform="translate(-2534.195 -902.899)" fill="#e2915a"/>
      <path id="Path_94163" data-name="Path 94163" d="M2549.687,929.788s-3.956-6.527-.879-6.812a4.652,4.652,0,0,1,4.757,2.563c.444.765-.116,4.215-.116,4.215Z" transform="translate(-2520.433 -903.869)" fill="#ffb27d"/>
      <path id="Path_94164" data-name="Path 94164" d="M2569.361,980.834a8.509,8.509,0,0,1-.674,2.267,10.854,10.854,0,0,1-2.519,3.47h0c-10.274-4.637-12.353-20.562-12.7-29.311-.14-3.517,0-5.875,0-5.875,4.635-1.535,5.938,1.132,5.938,1.132s5.472,13.013,8.311,21.518C2568.8,977.287,2569.5,979.882,2569.361,980.834Z" transform="translate(-2525.029 -926.15)" fill="#b0d0ff"/>
      <path id="Path_94165" data-name="Path 94165" d="M2579.26,1003.206c-3.427,4.133-7.908,7.507-12.848,8.3h0c-10.274-4.637-12.353-20.562-12.7-29.312,0,0,4.862,17.633,11.479,23.8a7.217,7.217,0,0,0,3.743,2.047s8.344-2.358,10.094-4.578A.931.931,0,0,1,2579.26,1003.206Z" transform="translate(-2525.273 -951.082)" fill="#98baf4"/>
    </g>
    <g id="Group_184464" data-name="Group 184464" transform="translate(645.242 617.965)">
      <g id="Group_184463" data-name="Group 184463" transform="translate(0 0)">
        <path id="Path_94166" data-name="Path 94166" d="M1594.882,1245.347h-31.913l-9.6-23.873h31.864Z" transform="translate(-1553.369 -1221.474)" fill="#2b478b"/>
        <path id="Path_94167" data-name="Path 94167" d="M1598.813,1334.478h42.141v.93h-41.767Z" transform="translate(-1589.586 -1311.536)" fill="#2b478b"/>
      </g>
      <path id="Path_94168" data-name="Path 94168" d="M1640.093,1274.3a1.106,1.106,0,0,1,1.084-1.519,2.177,2.177,0,0,1,1.955,1.519,1.106,1.106,0,0,1-1.083,1.52A2.178,2.178,0,0,1,1640.093,1274.3Z" transform="translate(-1622.437 -1262.365)" fill="#fff"/>
    </g>
    <path id="Path_94169" data-name="Path 94169" d="M935.856,1706.894v.2a.561.561,0,0,1-.518.592H479.453a.561.561,0,0,1-.518-.592v-.2a.561.561,0,0,1,.518-.592H935.338A.561.561,0,0,1,935.856,1706.894Z" transform="translate(-51.829 -989.906)" fill="#2e3552"/>
  </g>
</svg>
