<svg width="49" height="45" viewBox="0 0 49 45" fill="none" xmlns="http://www.w3.org/2000/svg">
<path d="M0.034417 22.0403C0.034417 15.943 0.0984924 9.84569 0.000693117 3.75009C-0.034717 1.57827 1.28557 -0.382773 4.20944 0.0640688C6.92758 0.478873 9.64404 0.902108 12.3622 1.31523C15.8847 1.85144 19.4054 2.40114 22.9329 2.90531C25.1806 3.22569 26.28 4.41614 26.28 6.67395C26.2834 18.361 26.2817 30.0497 26.28 41.7367C26.28 42.9777 26.2767 42.9794 25.0171 42.9794C23.1623 42.9811 21.3075 42.944 19.4543 42.9963C18.623 43.0199 18.4005 42.713 18.4106 41.9239C18.4477 39.2276 18.4291 36.5297 18.4224 33.8318C18.4173 31.6296 17.2522 30.4746 15.0331 30.4645C13.6572 30.4577 12.2796 30.4476 10.9036 30.4712C9.08085 30.5016 7.90052 31.6718 7.88534 33.4979C7.86174 36.3071 7.85499 39.118 7.88871 41.9272C7.89715 42.7197 7.65771 43.0283 6.83147 42.998C5.31558 42.9423 3.798 42.9845 2.28043 42.9811C0.639761 42.9761 0.034417 42.3808 0.034417 40.7536C0.0327308 34.5147 0.034417 28.2775 0.034417 22.0403ZM8.6357 7.54403C8.15851 7.54403 7.67794 7.51537 7.20243 7.55078C6.46557 7.60473 6.07774 8.06001 6.07268 8.76989C6.06762 9.45449 6.4858 9.90976 7.15185 9.9536C8.13153 10.0177 9.12132 10.0244 10.0993 9.95192C10.7974 9.90133 11.219 9.441 11.1819 8.6957C11.1464 8.00436 10.7502 7.60811 10.0673 7.55415C9.59346 7.51537 9.11289 7.54572 8.6357 7.54403ZM8.67617 12.9382C8.67617 12.9399 8.67617 12.9415 8.67617 12.9449C8.17031 12.9449 7.66276 12.9112 7.16028 12.9533C6.46557 13.0107 6.09629 13.4575 6.07268 14.1269C6.04908 14.8132 6.45208 15.2921 7.11138 15.3427C8.11635 15.4186 9.1365 15.4202 10.1415 15.3427C10.7923 15.2921 11.2055 14.8402 11.1819 14.1337C11.1582 13.4002 10.7468 12.9972 10.0234 12.9449C9.5766 12.9129 9.1247 12.9382 8.67617 12.9382ZM8.63907 20.7672C8.63907 20.7655 8.63907 20.7655 8.63907 20.7638C9.11627 20.7638 9.6002 20.811 10.0707 20.752C10.7687 20.666 11.2055 20.2613 11.1802 19.5143C11.1549 18.7808 10.7333 18.366 10.0099 18.3407C9.08423 18.3087 8.15513 18.3104 7.22941 18.3407C6.49255 18.366 6.08786 18.823 6.07268 19.5329C6.05751 20.2579 6.4976 20.6812 7.20581 20.7571C7.67963 20.8076 8.16188 20.7672 8.63907 20.7672ZM8.58005 26.1681C8.58005 26.1664 8.58005 26.1664 8.58005 26.1647C9.05725 26.1647 9.53781 26.195 10.0133 26.1579C10.7637 26.0989 11.2291 25.5846 11.1835 24.8865C11.1346 24.1531 10.7097 23.7568 9.98803 23.7349C9.08929 23.7079 8.18886 23.7045 7.29012 23.7349C6.54313 23.7602 6.05582 24.2745 6.06088 24.9557C6.06594 25.6217 6.56674 26.1192 7.31709 26.1647C7.73696 26.19 8.15851 26.1681 8.58005 26.1681ZM17.6805 7.54403C17.2033 7.54403 16.7261 7.53054 16.2489 7.5474C15.5558 7.57101 15.1141 7.96389 15.0618 8.62657C15.0078 9.32803 15.4193 9.87098 16.1106 9.93337C17.1122 10.0244 18.1324 10.0143 19.1373 9.94011C19.7983 9.89122 20.2199 9.3803 20.2047 8.72943C20.1878 8.04315 19.7713 7.58113 19.0277 7.54909C18.5792 7.52886 18.129 7.54403 17.6805 7.54403ZM17.6568 12.9382C17.6568 12.9399 17.6568 12.9399 17.6568 12.9415C17.1797 12.9415 16.7025 12.9247 16.2253 12.9449C15.5306 12.9753 15.0972 13.3816 15.0601 14.0443C15.0213 14.7424 15.4361 15.2735 16.1325 15.3359C17.1071 15.4219 18.0986 15.4135 19.0766 15.3477C19.7798 15.3005 20.2249 14.7947 20.203 14.1016C20.1811 13.4154 19.7477 12.9651 19.0041 12.9415C18.5556 12.9264 18.1071 12.9382 17.6568 12.9382ZM17.7024 18.3374C17.7024 18.3357 17.7024 18.334 17.7024 18.334C17.2252 18.334 16.748 18.3205 16.2708 18.3374C15.539 18.3627 15.082 18.7724 15.0601 19.4789C15.0399 20.1753 15.4715 20.6879 16.1713 20.7402C17.1476 20.8127 18.1391 20.8161 19.1154 20.7351C19.8135 20.6778 20.2452 20.1568 20.203 19.4587C20.1642 18.8162 19.7562 18.3711 19.0496 18.3407C18.6011 18.3222 18.1509 18.3374 17.7024 18.3374ZM17.6417 23.7332C17.1645 23.7332 16.6856 23.713 16.2101 23.7382C15.5154 23.7737 15.0955 24.1885 15.0601 24.8511C15.0247 25.5121 15.4193 26.05 16.0684 26.1107C17.097 26.2052 18.1475 26.2018 19.1778 26.1175C19.8303 26.0635 20.2418 25.5357 20.2064 24.8764C20.1726 24.2323 19.7798 23.777 19.0749 23.7399C18.5961 23.7146 18.1189 23.7349 17.6417 23.7332Z" fill="#008DD1"/>
<path d="M33.7057 16.9324L33.7062 16.9326C34.6973 17.14 35.6899 17.3468 36.6831 17.5538C38.9826 18.0331 41.2859 18.5131 43.5845 19.0027L43.272 20.4698L43.5845 19.0027C44.6575 19.2313 45.6552 19.6765 46.3531 20.5535C47.0469 21.4256 47.2616 22.4959 47.2624 23.5838L47.2624 23.5845V23.5884C47.2639 28.4065 47.2653 33.224 47.2624 38.0431L47.2624 38.0433C47.2615 39.2827 46.9119 40.4638 46.0455 41.3345C45.1782 42.2062 43.9991 42.5596 42.7614 42.5615H42.7612C41.7459 42.5629 40.7351 42.5614 39.7268 42.56C37.6142 42.5569 35.5126 42.5538 33.4041 42.5774C33.0016 42.5821 32.207 42.5592 31.5933 41.9687C30.964 41.3631 30.9257 40.5542 30.9299 40.1217L33.7057 16.9324ZM33.7057 16.9324C33.6938 16.9299 33.6815 16.9274 33.6691 16.9248C33.4707 16.8832 33.2156 16.8298 32.9934 16.8086C32.8095 16.791 32.1977 16.736 31.649 17.1605C31.0813 17.5998 30.9954 18.2256 30.9714 18.4236C30.9441 18.649 30.9442 18.9114 30.9444 19.106C30.9444 19.118 30.9444 19.1297 30.9444 19.1411L33.7057 16.9324ZM38.7649 36.3262C38.6087 36.3187 38.4597 36.3158 38.3161 36.3129C38.0136 36.3069 37.7349 36.3013 37.463 36.255C36.9021 36.162 36.5287 35.7973 36.5127 35.2248C36.4967 34.6538 36.844 34.2412 37.4078 34.1569C38.2912 34.0247 39.192 34.0247 40.0754 34.1598C40.6101 34.2412 40.9443 34.6335 40.956 35.1696C40.969 35.7421 40.6232 36.1359 40.0609 36.239M38.7649 36.3262C38.8761 36.3199 38.9942 36.3167 39.1167 36.3135C39.4166 36.3055 39.7432 36.2968 40.0609 36.239M38.7649 36.3262L38.8016 35.5584L37.6298 35.6404M38.7649 36.3262L38.7212 35.5581C38.3565 35.5588 37.9916 35.5862 37.6298 35.6404M40.0609 36.239L39.8959 35.3396L39.8954 35.3369L39.8693 35.1945L39.869 35.1932L39.7902 34.7637L37.6295 35.6404L37.6298 35.6404M40.0609 36.239L39.8966 35.3352L39.8961 35.3324L39.871 35.1944L39.8708 35.1932L39.7926 34.7632C39.5874 34.8005 39.4302 34.8041 39.2027 34.8093C39.081 34.812 38.9391 34.8153 38.759 34.8244C38.515 34.8137 38.344 34.8113 38.2094 34.8094C38.0027 34.8065 37.882 34.8048 37.7148 34.7763L37.7083 34.7752C37.7056 34.7748 37.7042 34.7745 37.7042 34.7745C37.7042 34.7745 37.7056 34.7749 37.7083 34.7757C37.7099 34.7762 37.712 34.7768 37.7146 34.7777C37.7386 34.7861 37.8015 34.8133 37.8716 34.8872C37.921 34.9393 37.9592 35.0002 37.9836 35.0617C38.0075 35.122 38.0117 35.1663 38.0121 35.1829C38.0121 35.1829 38.0121 35.183 38.0121 35.183C38.0131 35.2191 38.0002 35.3435 37.8919 35.4725C37.7841 35.601 37.6649 35.6351 37.6298 35.6404M37.7135 25.4814C37.7155 25.4819 37.7201 25.4833 37.727 25.4861M37.7135 25.4814C37.7155 25.4818 37.7205 25.4829 37.7289 25.4841L37.7285 25.4867M37.7135 25.4814C37.7128 25.4812 37.7124 25.4811 37.7124 25.4811L37.7135 25.4814ZM37.727 25.4861L37.7285 25.4867M37.727 25.4861L37.669 25.8947L37.727 25.4861ZM37.7285 25.4867L37.6702 25.8947L38.0111 25.8898C38.0109 25.8764 38.0077 25.8295 37.9814 25.7639C37.9545 25.6969 37.9124 25.6327 37.86 25.58C37.8025 25.5222 37.7529 25.4967 37.7285 25.4867ZM30.9441 26.1169C30.9437 23.792 30.9434 21.4667 30.9444 19.1418L30.9441 26.1169ZM30.9441 26.1169C30.9442 27.2792 30.9444 28.4413 30.9444 29.6033M30.9441 26.1169L30.9444 29.6033M30.9444 29.6033C30.9444 30.5399 30.9457 31.4745 30.947 32.4078M30.9444 29.6033L30.947 32.4078M30.947 32.4078C30.9507 34.9846 30.9544 37.5513 30.9299 40.1212L30.947 32.4078Z" stroke="#005D89" stroke-width="3"/>
</svg>
