<svg xmlns="http://www.w3.org/2000/svg" xmlns:xlink="http://www.w3.org/1999/xlink" width="570" height="379.912" viewBox="0 0 570 379.912">
  <defs>
    <clipPath id="clip-path">
      <path id="SVGID" d="M204.025,212.655a36.694,36.694,0,1,1-36.693-36.7A36.692,36.692,0,0,1,204.025,212.655Z" transform="translate(-130.637 -175.959)" fill="none"/>
    </clipPath>
    <clipPath id="clip-path-2">
      <path id="SVGID-2" data-name="SVGID" d="M399.651,67.263a36.695,36.695,0,1,1-36.7-36.7A36.694,36.694,0,0,1,399.651,67.263Z" transform="translate(-326.262 -30.567)" fill="none"/>
    </clipPath>
    <clipPath id="clip-path-3">
      <path id="SVGID-3" data-name="SVGID" d="M474.685,314.09a36.695,36.695,0,1,1-36.7-36.7A36.695,36.695,0,0,1,474.685,314.09Z" transform="translate(-401.295 -277.395)" fill="none"/>
    </clipPath>
    <clipPath id="clip-path-4">
      <path id="SVGID-4" data-name="SVGID" d="M532.949,95.909a36.695,36.695,0,1,1-36.694-36.7A36.694,36.694,0,0,1,532.949,95.909Z" transform="translate(-459.56 -59.214)" fill="none"/>
    </clipPath>
  </defs>
  <g id="CRM_Development_Banner" transform="translate(-844 -195)">
    <g id="Group_313144" data-name="Group 313144" transform="translate(806.344 169.366)">
      <g id="OBJECTS" transform="translate(50.657 25.634)">
        <g id="Group_313076" data-name="Group 313076" transform="translate(59.393 40.414)">
          <g id="Group_313073" data-name="Group 313073" transform="translate(77.392 241.714)">
            <rect id="Rectangle_164396" data-name="Rectangle 164396" width="53.646" height="39.342" transform="translate(113.255)" fill="#2d4c7f"/>
            <rect id="Rectangle_164397" data-name="Rectangle 164397" width="280.156" height="12.518" transform="translate(0 38.129)" fill="#4e73a8"/>
            <rect id="Rectangle_164398" data-name="Rectangle 164398" width="280.156" height="3.577" transform="translate(0 47.07)" fill="#2d4c7f"/>
          </g>
          <g id="Group_313075" data-name="Group 313075">
            <rect id="Rectangle_164399" data-name="Rectangle 164399" width="434.94" height="243.42" fill="#4e73a8"/>
            <g id="Group_313074" data-name="Group 313074" transform="translate(13.678 8.549)">
              <rect id="Rectangle_164400" data-name="Rectangle 164400" width="407.584" height="210.228" fill="#b8d0ff"/>
              <path id="Path_142970" data-name="Path 142970" d="M514.295,291.984c-16.145-3.9-31.554-10.18-46.592-17.147-15.09-6.993-30.243-14.009-45.1-21.477C342.9,213.3,272.06,153.6,217.227,82.994H136.259V293.222H519.8C517.963,292.83,516.124,292.426,514.295,291.984Z" transform="translate(-136.259 -82.994)" fill="#b8d0ff" opacity="0.5" style="mix-blend-mode: multiply;isolation: isolate"/>
            </g>
            <rect id="Rectangle_164401" data-name="Rectangle 164401" width="408.12" height="3.843" transform="translate(13.41 218.777)" fill="#2d4c7f"/>
          </g>
        </g>
        <g id="Group_313078" data-name="Group 313078" transform="translate(129.95 88.723)">
          <path id="Path_142971" data-name="Path 142971" d="M464.349,185.723c3.082-2.879,2.809-9.067,1.57-12.407-4.516-12.171-13.169-17.039-33.469-17.039-.71,0-1.414.014-2.113.034-.148-12.534-13.627-23.256-23.112-24.271-27.545-2.95-86.269-4.166-104.493,1.624-9.133,2.9-17.371,10.234-17.371,22.858,0,.252.016.5.023.748a45.066,45.066,0,0,0-7.138-.567c-18.37,0-33.263,10.887-33.263,24.318a18.168,18.168,0,0,0,.819,5.351c-.273,0-.545-.016-.819-.016-.851,0-1.694.025-2.534.061H240.6a15.509,15.509,0,0,0-4.218.59c-19.119,2.926-33.485,15.4-33.485,30.354,0,17.124,14.166,30.6,48.839,30.6H465.756c18.643,0,30.961-18.247,30.961-31.24C496.718,200.736,482.577,187.566,464.349,185.723Z" transform="translate(-202.892 -129.572)" fill="#fff"/>
          <g id="Group_313077" data-name="Group 313077" transform="translate(54.835 43.45)">
            <path id="Path_142972" data-name="Path 142972" d="M267.131,209.447c0-16.888,12.966-28.973,30.415-28.973,9.683,0,17.769,3.521,23.05,9.925l-8.324,7.683a18.025,18.025,0,0,0-14.085-6.563c-10.486,0-17.929,7.364-17.929,17.928s7.443,17.928,17.929,17.928a17.849,17.849,0,0,0,14.085-6.644l8.324,7.685c-5.281,6.483-13.367,10.005-23.13,10.005C280.1,238.422,267.131,226.337,267.131,209.447Z" transform="translate(-267.131 -180.474)" fill="#4e95cf"/>
            <path id="Path_142973" data-name="Path 142973" d="M375.676,237.627l-10.8-15.608H352.946v15.608H339.979V181.6h24.253c14.966,0,24.33,7.764,24.33,20.33,0,8.4-4.243,14.566-11.524,17.688L389.6,237.627Zm-12.165-45.462H352.946v19.53h10.565c7.923,0,11.926-3.682,11.926-9.764C375.437,195.766,371.435,192.164,363.511,192.164Z" transform="translate(-277.795 -180.639)" fill="#4e95cf"/>
            <path id="Path_142974" data-name="Path 142974" d="M459.876,237.627l-.082-33.617L443.308,231.7h-5.843L421.058,204.73v32.9H408.891V181.6h10.725l20.969,34.816,20.65-34.816H471.88l.16,56.028Z" transform="translate(-287.883 -180.639)" fill="#4e95cf"/>
          </g>
        </g>
        <g id="Group_313094" data-name="Group 313094" transform="translate(0 210.715)">
          <g id="Group_313081" data-name="Group 313081" transform="translate(0 105.082)">
            <g id="Group_313079" data-name="Group 313079" transform="translate(20.94)">
              <rect id="Rectangle_164402" data-name="Rectangle 164402" width="70.083" height="55.806" transform="translate(0 0)" fill="#83b3ff"/>
              <path id="Path_142975" data-name="Path 142975" d="M91.036,430.542c4.157-9.255,17.365-11.316,26.136-13.138,10.9-2.264,21.272-4.538,28.1-13.155v-8.661H75.188v55.806H95.883C91.984,445.377,87.9,437.517,91.036,430.542Z" transform="translate(-75.188 -395.588)" fill="#83b3ff" opacity="0.4" style="mix-blend-mode: multiply;isolation: isolate"/>
            </g>
            <g id="Group_313080" data-name="Group 313080" transform="translate(0 18.894)">
              <path id="Path_142976" data-name="Path 142976" d="M95.116,432.592l-1.843-4.3a2.015,2.015,0,0,0-2.659-1l-1.395.6a2.258,2.258,0,0,1-2.543-.5,18.958,18.958,0,0,0-1.536-1.455,2.1,2.1,0,0,1-.581-2.458l.576-1.372a1.894,1.894,0,0,0-1.1-2.549l-4.477-1.692a2.1,2.1,0,0,0-2.66,1.136l-.585,1.368a2.343,2.343,0,0,1-2.22,1.41,18.67,18.67,0,0,0-2.181.046,2.177,2.177,0,0,1-2.2-1.288l-.573-1.339a2.014,2.014,0,0,0-2.657-1L61.992,420.1a2.009,2.009,0,0,0-1.111,2.611l.575,1.337a2.188,2.188,0,0,1-.592,2.488,19.1,19.1,0,0,0-1.541,1.536,2.34,2.34,0,0,1-2.551.629l-1.391-.529a2.113,2.113,0,0,0-2.668,1.141l-1.867,4.4a1.905,1.905,0,0,0,1.093,2.551l1.392.526a2.1,2.1,0,0,1,1.386,2.12,16.879,16.879,0,0,0-.007,2.109,2.26,2.26,0,0,1-1.4,2.184l-1.394.595a2,2,0,0,0-1.11,2.608l1.844,4.3a2.008,2.008,0,0,0,2.66,1l1.4-.593a2.253,2.253,0,0,1,2.545.5,17.348,17.348,0,0,0,1.534,1.453,2.094,2.094,0,0,1,.575,2.46l-.58,1.365a1.914,1.914,0,0,0,1.1,2.557l4.477,1.685A2.111,2.111,0,0,0,69.024,460l.58-1.368a2.345,2.345,0,0,1,2.22-1.405,20.48,20.48,0,0,0,2.18-.049,2.175,2.175,0,0,1,2.208,1.29l.57,1.335a2.016,2.016,0,0,0,2.663,1l4.487-1.913a2,2,0,0,0,1.106-2.614l-.569-1.334a2.17,2.17,0,0,1,.581-2.485,19.494,19.494,0,0,0,1.548-1.537,2.347,2.347,0,0,1,2.55-.63l1.4.522a2.111,2.111,0,0,0,2.663-1.138l1.868-4.4a1.9,1.9,0,0,0-1.1-2.552l-1.393-.525a2.11,2.11,0,0,1-1.379-2.122,18.047,18.047,0,0,0,.007-2.106,2.244,2.244,0,0,1,1.395-2.184l1.4-.594A2,2,0,0,0,95.116,432.592ZM77.984,448.914c-6.1,3.164-13.46.391-15.554-5.858a10.916,10.916,0,0,1,5.52-12.976c6.092-3.159,13.449-.388,15.547,5.867A10.923,10.923,0,0,1,77.984,448.914Z" transform="translate(-50.657 -417.722)" fill="#176a92"/>
              <path id="Path_142977" data-name="Path 142977" d="M117.866,446.656l-1.224-2.863a1.338,1.338,0,0,0-1.767-.667l-.929.4a1.5,1.5,0,0,1-1.694-.331,12.107,12.107,0,0,0-1.023-.967,1.408,1.408,0,0,1-.387-1.636l.386-.913a1.261,1.261,0,0,0-.729-1.7l-2.979-1.125a1.394,1.394,0,0,0-1.769.755l-.389.909a1.555,1.555,0,0,1-1.476.938,12.193,12.193,0,0,0-1.453.032,1.452,1.452,0,0,1-1.466-.858l-.382-.891a1.341,1.341,0,0,0-1.767-.668l-2.985,1.274a1.333,1.333,0,0,0-.739,1.736l.382.889a1.453,1.453,0,0,1-.4,1.657,12.719,12.719,0,0,0-1.024,1.022,1.558,1.558,0,0,1-1.7.418l-.927-.353a1.405,1.405,0,0,0-1.774.759L88.419,447.4a1.266,1.266,0,0,0,.727,1.7l.924.351a1.4,1.4,0,0,1,.924,1.41,11.633,11.633,0,0,0,0,1.4,1.507,1.507,0,0,1-.93,1.455l-.925.394a1.334,1.334,0,0,0-.74,1.736l1.226,2.862a1.338,1.338,0,0,0,1.771.665l.927-.394a1.5,1.5,0,0,1,1.693.333,11.626,11.626,0,0,0,1.022.967,1.393,1.393,0,0,1,.382,1.636l-.387.907a1.273,1.273,0,0,0,.732,1.7l2.977,1.123a1.4,1.4,0,0,0,1.772-.754l.388-.909a1.556,1.556,0,0,1,1.476-.936,14.187,14.187,0,0,0,1.449-.032,1.447,1.447,0,0,1,1.471.857l.381.889a1.338,1.338,0,0,0,1.77.665l2.985-1.274a1.327,1.327,0,0,0,.735-1.736l-.377-.888a1.443,1.443,0,0,1,.387-1.653,12.658,12.658,0,0,0,1.029-1.023,1.569,1.569,0,0,1,1.7-.418l.928.347a1.405,1.405,0,0,0,1.773-.757l1.241-2.924a1.267,1.267,0,0,0-.727-1.7l-.927-.35a1.4,1.4,0,0,1-.918-1.409,11.82,11.82,0,0,0,.005-1.4,1.493,1.493,0,0,1,.927-1.452l.931-.4A1.328,1.328,0,0,0,117.866,446.656Z" transform="translate(-40.166 -422.51)" fill="#176a92"/>
            </g>
          </g>
          <g id="Group_313093" data-name="Group 313093" transform="translate(18.174)">
            <g id="Group_313082" data-name="Group 313082" transform="translate(37.551 14.476)">
              <path id="Path_142978" data-name="Path 142978" d="M122.552,305.155A309.7,309.7,0,0,0,149.135,325.5a147.537,147.537,0,0,0,10.361-22.43q3.013,1.534,6.019,3.07a80.022,80.022,0,0,1-7.1,23.5c-1.032,2.143-2.248,4.333-4.218,5.553-3.908,2.422-8.835.109-12.812-2.192l-12.759-7.379a5.966,5.966,0,0,1-1.774-1.352,6.47,6.47,0,0,1-1.041-3.139,107.55,107.55,0,0,0-3.257-15.98" transform="translate(-116.906 -291.439)" fill="#fa6e61"/>
              <path id="Path_142979" data-name="Path 142979" d="M137.454,316.528a3.088,3.088,0,0,1,1.112,1.938,3.119,3.119,0,0,1-.478,1.483q-2.341,4.5-4.684,9a1.14,1.14,0,0,1-.478.567,1.163,1.163,0,0,1-.866-.086c-4.948-1.857-10.225-3.968-13.136-8.382-1.839-2.779-2.5-6.164-2.854-9.478-.208-1.945-.292-4.041.715-5.718s2.456-2.475,4.067-1.367C120.851,304.488,132.527,311.507,137.454,316.528Z" transform="translate(-115.938 -291.571)" fill="#0271a6"/>
              <path id="Path_142980" data-name="Path 142980" d="M164.656,303.757c.573-2.078,1.286-5.159.878-6.857a8.087,8.087,0,0,1-.017-4.231c.125-.261.469-.517.759-.33a.649.649,0,0,1,.207.589c0,.818.759,4.045.715,3.291a23.888,23.888,0,0,0,2.178-5.31,2.526,2.526,0,0,1,.451-1.019c.253-.286.848-.636,1.134-.318.359.4-.814,3.711-1.223,5.566l1.869-4.384c.151-.358.607-.791.948-.491.457.4-.884,3.883-1.327,5.825q.972-2.042,1.946-4.084c.259-.546,1.041-1.433,1.251-.823.384,1.117-1.04,3.835-1.746,5.872q.748-1.232,1.495-2.463c.164-.271.564-.561.83-.309a.476.476,0,0,1,.077.483c-.809,3.548-2.075,6.2-3.491,10-1.964-1.121-5.243.582-6.932-1.009" transform="translate(-123.07 -289.444)" fill="#fa6e61"/>
            </g>
            <g id="Group_313084" data-name="Group 313084" transform="translate(3.831 78.941)">
              <path id="Path_142981" data-name="Path 142981" d="M208.833,461.052c2.691,2.819,7.024,3.1,10.173,5.356a1.7,1.7,0,0,1,.571.591,1.265,1.265,0,0,1-.575,1.534,3.44,3.44,0,0,1-1.7.351l-9.963.318a2.756,2.756,0,0,1-1.07-.108,2.962,2.962,0,0,1-1.407-1.844q-1.352-3.355-2.7-6.712a24.811,24.811,0,0,1,6.679.516" transform="translate(-94.838 -378.95)" fill="#132444"/>
              <path id="Path_142982" data-name="Path 142982" d="M218.832,442.872c1.986,3.353,6.144,4.6,8.705,7.51a1.7,1.7,0,0,1,.423.7,1.267,1.267,0,0,1-.907,1.365,3.452,3.452,0,0,1-1.741-.043l-9.779-1.935a2.733,2.733,0,0,1-1.018-.347,2.962,2.962,0,0,1-.954-2.112q-.562-3.574-1.121-7.15a24.892,24.892,0,0,1,6.391,2.008" transform="translate(-96.344 -376.075)" fill="#132444"/>
              <path id="Path_142983" data-name="Path 142983" d="M90.5,364.964s-4.662,13.405,0,20.847,14.954,7.941,26.844,7.941,44.765-2.98,44.765-2.98,12.648,15.877,27.44,47.329l16.691-5.662c-14.634-37.177-14.458-37.02-16.691-42.245-4.639-10.867-6.035-21.282-33.375-22.236C143.578,367.5,90.5,364.964,90.5,364.964Z" transform="translate(-78.19 -364.964)" fill="#222"/>
              <g id="Group_313083" data-name="Group 313083" transform="translate(0 0.264)">
                <path id="Path_142984" data-name="Path 142984" d="M78.39,365.273s-2.755,12.015-1.724,20.583c1.5,12.512,23.1,13.332,27.5,13.393,11.9.164,51.286-4.459,51.286-4.459s13.035,30.579,16.755,39.539c4.21,10.144,3.108,8.417,8.384,18.079l18.38-4.738s-18.816-53.4-23.092-62.7c-4.931-10.738-6.206-16.013-33.535-16.966C129.732,367.546,78.39,365.273,78.39,365.273Z" transform="translate(-76.434 -365.273)" fill="#222"/>
                <path id="Path_142985" data-name="Path 142985" d="M97.621,385.148c2.877-5.95,11.853-6.572,17.571-7.015,8.238-.638,16.618-1.384,24.878-1.4,8.635-.015,18.384,1.03,24.84,7.443,6.679,6.634,9.522,15.73,12.586,24.387,3.006,8.5,6.217,16.913,9.166,25.428.87,2.51,3.7,9.27,5.019,15.555l7.286-1.878s-18.816-53.4-23.092-62.7c-4.931-10.738-6.206-16.013-33.535-16.966-12.608-.457-63.95-2.731-63.95-2.731s-2.755,12.015-1.724,20.583c1.5,12.512,23.1,13.332,27.5,13.393h.045C99.389,395.99,94.9,390.77,97.621,385.148Z" transform="translate(-76.434 -365.273)" fill="#2e6adb" opacity="0.4" style="mix-blend-mode: multiply;isolation: isolate"/>
              </g>
            </g>
            <g id="Group_313085" data-name="Group 313085" transform="translate(43.359 45.53)">
              <path id="Path_142986" data-name="Path 142986" d="M159.538,325.824l-13.021,37.858,33.908,1.33L194.564,327Z" transform="translate(-126.222 -325.824)" fill="#e1edff"/>
              <path id="Path_142987" data-name="Path 142987" d="M122.78,369.027l-.039-1.368,21.59.47-.572,1.656Z" transform="translate(-122.741 -331.948)" fill="#e1edff"/>
              <path id="Path_142988" data-name="Path 142988" d="M177.127,363.662c-14.672-5.034-20.324-21.689-18.107-36.074l-12.5,36.352,33.907,1.33.262-.706A23.274,23.274,0,0,1,177.127,363.662Z" transform="translate(-126.222 -326.082)" fill="#e1edff" style="mix-blend-mode: multiply;isolation: isolate"/>
            </g>
            <g id="Group_313092" data-name="Group 313092">
              <g id="Group_313088" data-name="Group 313088" transform="translate(2.972 23.591)">
                <g id="Group_313086" data-name="Group 313086">
                  <path id="Path_142989" data-name="Path 142989" d="M117.071,305.065a32.106,32.106,0,0,0-7.9-3.641c-3.549-1.01-11.026-1.489-14.706-1.235-2.766.19-5.494,1.235-10.648,3.1-5.253,1.9-6.158,3.121-8.1,9.566-1.362,4.49,2.525,42.884,2.525,42.884l40.482,2.4-.58-32.4Z" transform="translate(-75.428 -300.122)" fill="#0271a6"/>
                  <path id="Path_142990" data-name="Path 142990" d="M108.191,346.462c-7.326-.729-14.482-15.481-14.482-21.77,0-13.694-8.009-18.7-5.829-22.571-1.181.411-2.511.9-4.065,1.459-5.253,1.9-6.158,3.121-8.1,9.566-1.362,4.49,2.525,42.884,2.525,42.884l40.482,2.4-.242-13.5A21.89,21.89,0,0,1,108.191,346.462Z" transform="translate(-75.428 -300.414)" fill="#0271a6"/>
                </g>
                <g id="Group_313087" data-name="Group 313087" transform="translate(27.946 21.055)">
                  <path id="Path_142991" data-name="Path 142991" d="M108.167,338c1.37-2.045,3.173-3.951,4.458-6.152a33.409,33.409,0,0,0,3.033-7.063" transform="translate(-108.167 -324.787)" fill="none" stroke="#26395e" stroke-miterlimit="10" stroke-width="0.5"/>
                  <path id="Path_142992" data-name="Path 142992" d="M111.678,345.6c1.189-1.646,2.335-3.416,3.4-5.15,1.1-1.787,1.818-3.9,3-5.561" transform="translate(-108.681 -326.266)" fill="none" stroke="#26395e" stroke-miterlimit="10" stroke-width="0.5"/>
                </g>
              </g>
              <g id="Group_313089" data-name="Group 313089" transform="translate(0 29.002)">
                <path id="Path_142993" data-name="Path 142993" d="M82.824,312.945c5.671,3.417,4.8,9.434,6.1,15.457,1.237,5.708.795,14.36,2.424,19.937,2.429,8.306,28.142,5.272,36.413,4.648a11.728,11.728,0,0,0-1.36,6.9c-11.067,1.921-22.386,3.852-33.532,2.439a22.859,22.859,0,0,1-8.8-2.606c-5.638-3.354-7.538-9.9-8.592-15.894a133.222,133.222,0,0,1-1.956-19.393c-.083-3.034.008-6.278,1.928-8.783s6.145-3.443,7.37-2.7" transform="translate(-72.175 -307.374)" fill="#fa6e61"/>
                <path id="Path_142994" data-name="Path 142994" d="M85.344,310.423c1.44,3.122,5.789,19.532,5.94,28.095-6.464-.248-11.542,1.09-17.983,1.713-1.212-5.093-1.357-10.691-1.354-15.923,0-5.123.507-11.569,2.42-14.388,1.814-2.674,5.482-4.043,7.15-3.221A7.3,7.3,0,0,1,85.344,310.423Z" transform="translate(-71.947 -306.461)" fill="#0271a6"/>
                <path id="Path_142995" data-name="Path 142995" d="M135.086,359.456c2.641-.232,3.844-.427,5.617-1.478a11.072,11.072,0,0,1,4.854-1.632c.356.019.8.259.714.614-.061.25-.345.349-.585.428-.937.312-4.313,2.287-3.466,1.956a34.5,34.5,0,0,0,7.064.1,3.58,3.58,0,0,1,1.372.055c.438.137,1.1.582.864.985-.3.5-4.623.62-6.935.93q2.932.076,5.864.149c.475.014,1.176.292.981.741-.264.6-4.854.618-7.28.927l5.552.341c.743.048,2.108.471,1.5.909-1.113.8-4.864.452-7.517.538,1.164.171,2.328.347,3.49.518.383.059.9.337.72.7-.087.187-.322.233-.522.257-4.435.563-8.346-.068-13.344,0,.419-2.349-.021-4.776,1.059-7.035" transform="translate(-81.035 -313.763)" fill="#fa6e61"/>
              </g>
              <g id="Group_313091" data-name="Group 313091" transform="translate(16.137)">
                <path id="Path_142996" data-name="Path 142996" d="M103.328,293a18.25,18.25,0,0,0,1.985,7.846c-1.761,1.381-4.257,1.385-6.516,1.164a12.139,12.139,0,0,1-3.279-.672.7.7,0,0,1-.31-.2.686.686,0,0,1-.092-.363q-.415-7.3-.614-14.608c2.236.663,4.683.217,6.948.779a1.453,1.453,0,0,1,.609.266,1.477,1.477,0,0,1,.386.7,18.782,18.782,0,0,1,.882,5.086" transform="translate(-91.385 -274.488)" fill="#fa6e61"/>
                <path id="Path_142997" data-name="Path 142997" d="M97.237,293.883c-1.7-2.271-1.678-5.186-2.731-7.716,2.236.662,4.68.214,6.944.777a1.452,1.452,0,0,1,.611.266,1.477,1.477,0,0,1,.386.7,18.782,18.782,0,0,1,.882,5.086,18.037,18.037,0,0,0,.67,4.448,9.266,9.266,0,0,1-6.762-3.561" transform="translate(-91.386 -274.488)" fill="#d75246"/>
                <path id="Path_142998" data-name="Path 142998" d="M105.633,279.078c.561,1.636.657,3.384,1.147,5.037.67,2.261,2.078,4.59,1.266,6.8a4.879,4.879,0,0,1-4.673,2.847,8.668,8.668,0,0,1-5.308-2.233,13.316,13.316,0,0,1-4.73-9.647,3.459,3.459,0,0,1,1.35-3.322,11.417,11.417,0,0,1,4.854-2.174c2.694-.635,5.532,1.058,6.093,2.691" transform="translate(-91.213 -273.037)" fill="#fa6e61"/>
                <g id="Group_313090" data-name="Group 313090">
                  <path id="Path_142999" data-name="Path 142999" d="M101.356,273.937a5.272,5.272,0,0,1,4.19,4.549.626.626,0,0,1-.083.453c-.184.231-.563.146-.821-.009a1.329,1.329,0,0,0-.816-.32c-.487.071-.58.691-.8,1.117a2.621,2.621,0,0,1-2.329,1.061,4.8,4.8,0,0,1-2.609-.5c-.523-.3-.947-.757-1.493-1.021a1.341,1.341,0,0,0-1.656.221c-.425.612.108,1.508-.24,2.164a1.384,1.384,0,0,1-1.327.594,2.74,2.74,0,0,1-2.2-1.557,3.8,3.8,0,0,1-.137-2.705,5.121,5.121,0,0,1,1.581-2.433c1.78-1.531,4.357-1.724,6.738-1.845.94-.048,1.987-.061,2,.23" transform="translate(-90.851 -272.66)" fill="#141d30"/>
                  <path id="Path_143000" data-name="Path 143000" d="M100.346,273.6q3.4-.5,6.809-1a5.71,5.71,0,0,1,1.888-.061,3.722,3.722,0,0,1,2.13,1.417,5.117,5.117,0,0,1,.57,5.373,3.191,3.191,0,0,1-3.233,1.9c-1.414-.283-2.166-1.744-3.389-2.481a1.023,1.023,0,0,0-.871-.171,1.749,1.749,0,0,0-.415.317,1.815,1.815,0,0,1-1.644.247,2.978,2.978,0,0,1-1.375-.984,4.129,4.129,0,0,1-.47-4.558" transform="translate(-92.171 -272.485)" fill="#141d30"/>
                  <path id="Path_143001" data-name="Path 143001" d="M95.721,279.038a8.731,8.731,0,0,0-.226,4.284,2.336,2.336,0,0,1,.07.577,1.912,1.912,0,0,1-.192.635q-.6,1.407-1.2,2.816c-1.672-1.059-2.9-3.22-3.28-6.935-.065-.656.061-.738.429-1.287.6-.894,1.865-1,2.949-.948a2.112,2.112,0,0,1,1.026.232c.3.185.5.58.424.626" transform="translate(-90.855 -273.317)" fill="#141d30"/>
                </g>
                <path id="Path_143002" data-name="Path 143002" d="M95.747,284.97a2.465,2.465,0,0,0-2.385-1.183c-1.654.206-.428,3.377,2.265,4.08a1.013,1.013,0,0,0,1.077-.2,1.024,1.024,0,0,0,.046-.883,3.515,3.515,0,0,0-1-1.814" transform="translate(-91.109 -274.137)" fill="#fa6e61"/>
              </g>
            </g>
          </g>
        </g>
        <g id="Group_313130" data-name="Group 313130" transform="translate(64.061)">
          <ellipse id="Ellipse_4962" data-name="Ellipse 4962" cx="169.65" cy="96.266" rx="169.65" ry="96.266" transform="translate(34.507 58.003)" fill="none" stroke="#2e6adb" stroke-miterlimit="10" stroke-width="1"/>
          <g id="Group_313099" data-name="Group 313099" transform="translate(0 124.109)">
            <path id="Path_143003" data-name="Path 143003" d="M207.516,211.933a40.906,40.906,0,1,1-40.906-40.906A40.905,40.905,0,0,1,207.516,211.933Z" transform="translate(-125.704 -171.027)" fill="#e1edff"/>
            <path id="Path_143004" data-name="Path 143004" d="M204.025,212.655a36.694,36.694,0,1,1-36.693-36.7A36.692,36.692,0,0,1,204.025,212.655Z" transform="translate(-126.426 -171.749)" fill="#4e95cf"/>
            <g id="Group_313098" data-name="Group 313098" transform="translate(4.211 4.21)">
              <g id="Group_313097" data-name="Group 313097" clip-path="url(#clip-path)">
                <g id="Group_313096" data-name="Group 313096" transform="translate(7.88 8.477)">
                  <path id="Path_143006" data-name="Path 143006" d="M157.963,247.486a1.22,1.22,0,0,1-.763,1.548l-4.773,1.611a1.225,1.225,0,0,1-1.551-.772l-6.119-18.146a1.222,1.222,0,0,1,.766-1.547l4.774-1.61a1.221,1.221,0,0,1,1.547.768Z" transform="translate(-140.574 -192.128)" fill="#83b3ff"/>
                  <path id="Path_143007" data-name="Path 143007" d="M152.477,229.444a1.356,1.356,0,0,1-1.066,1.6l-7,1.4a1.357,1.357,0,0,1-1.595-1.068l-2.924-14.657a1.365,1.365,0,0,1,1.069-1.6l6.994-1.391a1.36,1.36,0,0,1,1.6,1.067Z" transform="translate(-139.868 -189.96)" fill="#fff"/>
                  <path id="Path_143008" data-name="Path 143008" d="M198.126,229.605l-44.074-4.029-3.023-15.183,38.387-24.49Z" transform="translate(-141.502 -185.892)" fill="#fff"/>
                  <path id="Path_143009" data-name="Path 143009" d="M154.213,227.689l-1.047-6.269a40.527,40.527,0,0,1,15.548-5.229c6.975-.95,16.672-1.425,19.979-8.878,1.052-2.366,1.98-5.193,3.3-7.187l6.3,31.6Z" transform="translate(-141.815 -187.974)" fill="#b8d0ff"/>
                  <path id="Path_143010" data-name="Path 143010" d="M203.633,207.06c2.407,12.069,2.793,22.162.866,22.544s-5.439-9.086-7.843-21.154-2.792-22.164-.866-22.548S201.231,194.989,203.633,207.06Z" transform="translate(-147.875 -185.89)" fill="#83b3ff"/>
                  <path id="Path_143011" data-name="Path 143011" d="M154.561,222.58c.283-.566,6.263-2.8,7.644-3.184a57.747,57.747,0,0,1,8.668-1.653c2.72-.359,5.494-.657,8.193-1.269a14.427,14.427,0,0,0,7.824-4.29" transform="translate(-142.019 -189.739)" fill="none" stroke="#26395e" stroke-linecap="round" stroke-miterlimit="10" stroke-width="0.5"/>
                  <g id="Group_313095" data-name="Group 313095" transform="translate(47.489 14.519)">
                    <path id="Path_143012" data-name="Path 143012" d="M198.34,217.818c-.888-3.525-1.927-8.228-2.146-10.078-.125-1.073-.481-2.6-.693-4.266a9.741,9.741,0,0,1,1.286-.428,7.509,7.509,0,1,1,2.936,14.728A8.336,8.336,0,0,1,198.34,217.818Z" transform="translate(-195.501 -202.899)" fill="#176a92"/>
                    <path id="Path_143013" data-name="Path 143013" d="M200.028,211.647a7.618,7.618,0,0,1-3.606-2.317c.335,2.143,1.255,6.26,2.053,9.429a8.336,8.336,0,0,0,1.382-.044A7.509,7.509,0,0,0,205.9,211.3,8.257,8.257,0,0,1,200.028,211.647Z" transform="translate(-195.636 -203.84)" fill="#176a92"/>
                  </g>
                  <path id="Path_143014" data-name="Path 143014" d="M152.686,230.854l-1.5-7.531a7.74,7.74,0,0,1-6.222,2.195,7.663,7.663,0,0,1-3.667-1.408l1.729,8.67a1.357,1.357,0,0,0,1.595,1.068l7-1.4A1.356,1.356,0,0,0,152.686,230.854Z" transform="translate(-140.077 -191.37)" fill="#b8d0ff"/>
                </g>
              </g>
            </g>
          </g>
          <g id="Group_313105" data-name="Group 313105" transform="translate(54.569 23.196)">
            <g id="Group_313100" data-name="Group 313100">
              <path id="Path_143015" data-name="Path 143015" d="M272.915,95.187A40.906,40.906,0,1,1,232.01,54.281,40.905,40.905,0,0,1,272.915,95.187Z" transform="translate(-189.847 -53.024)" fill="#e1edff"/>
              <circle id="Ellipse_4963" data-name="Ellipse 4963" cx="36.696" cy="36.696" r="36.696" transform="translate(0 72.418) rotate(-80.662)" fill="#83b3ff"/>
              <path id="Path_143016" data-name="Path 143016" d="M243.446,116.049c-10.932-4.327-18.756-13.548-23.125-24.3a36.181,36.181,0,0,1,.848-30.347,36.694,36.694,0,1,0,39.672,58.407A57.293,57.293,0,0,1,243.446,116.049Z" transform="translate(-190.569 -54.066)" fill="#b8d0ff" style="mix-blend-mode: multiply;isolation: isolate"/>
            </g>
            <g id="Group_313104" data-name="Group 313104" transform="translate(17.598 23.864)">
              <g id="Group_313102" data-name="Group 313102">
                <g id="Group_313101" data-name="Group 313101">
                  <path id="Path_143017" data-name="Path 143017" d="M264.023,109.842a5.057,5.057,0,0,1-4.918,5.2l-42.992,1.187a5.059,5.059,0,0,1-5.2-4.918l-.667-24.158a5.06,5.06,0,0,1,4.919-5.2l42.99-1.185a5.059,5.059,0,0,1,5.2,4.918Z" transform="translate(-210.247 -80.765)" fill="#fff"/>
                  <path id="Path_143018" data-name="Path 143018" d="M213.007,130.807s3.2-.784,4.544-6.505a28.41,28.41,0,0,0-.027-11.519l16.105,2.449s-4.709,9.678-8.825,12.811C218.266,133.023,213.007,130.807,213.007,130.807Z" transform="translate(-210.651 -85.452)" fill="#fff"/>
                </g>
              </g>
              <g id="Group_313103" data-name="Group 313103" transform="translate(13.078 11.981)">
                <path id="Path_143019" data-name="Path 143019" d="M231.171,98.187a2.8,2.8,0,1,1-2.868-2.734A2.8,2.8,0,0,1,231.171,98.187Z" transform="translate(-225.568 -94.896)" fill="#4e95cf"/>
                <path id="Path_143020" data-name="Path 143020" d="M245.037,97.862a2.8,2.8,0,1,1-2.864-2.735A2.8,2.8,0,0,1,245.037,97.862Z" transform="translate(-227.598 -94.848)" fill="#4e95cf"/>
                <path id="Path_143021" data-name="Path 143021" d="M258.907,97.536a2.8,2.8,0,1,1-2.866-2.735A2.8,2.8,0,0,1,258.907,97.536Z" transform="translate(-229.628 -94.8)" fill="#4e95cf"/>
              </g>
              <path id="Path_143022" data-name="Path 143022" d="M242.843,105.835c-7.685-.553-16.531-2.466-21.751-8.66-3.7-4.39-4.743-9.7-4.39-15.069l-1.534.042a5.06,5.06,0,0,0-4.919,5.2l.667,24.158a5.059,5.059,0,0,0,5.2,4.918l1.547-.043a22.5,22.5,0,0,1-.513,3.432c-1.344,5.722-4.544,6.505-4.544,6.505s5.259,2.216,11.8-2.765c2.045-1.555,4.233-4.724,5.919-7.521l28.786-.795a5.057,5.057,0,0,0,4.918-5.2l-.156-5.643A82.242,82.242,0,0,1,242.843,105.835Z" transform="translate(-210.247 -80.961)" fill="#b8d0ff" opacity="0.3" style="mix-blend-mode: multiply;isolation: isolate"/>
              <line id="Line_961" data-name="Line 961" y1="0.532" x2="33.292" transform="translate(9.942 25.367)" fill="none" stroke="#26395e" stroke-linecap="round" stroke-miterlimit="10" stroke-width="0.5"/>
              <line id="Line_962" data-name="Line 962" y1="0.446" x2="36.664" transform="translate(8.396 27.592)" fill="none" stroke="#26395e" stroke-linecap="round" stroke-miterlimit="10" stroke-width="0.5"/>
            </g>
          </g>
          <g id="Group_313113" data-name="Group 313113" transform="translate(166.986)">
            <path id="Path_143023" data-name="Path 143023" d="M403.14,66.541a40.906,40.906,0,1,1-40.906-40.907A40.9,40.9,0,0,1,403.14,66.541Z" transform="translate(-321.327 -25.634)" fill="#e1edff"/>
            <path id="Path_143024" data-name="Path 143024" d="M399.651,67.263a36.695,36.695,0,1,1-36.7-36.7A36.694,36.694,0,0,1,399.651,67.263Z" transform="translate(-322.049 -26.356)" fill="#4e95cf"/>
            <path id="Path_143025" data-name="Path 143025" d="M373.671,87.4c-10.931-4.327-18.756-13.549-23.125-24.3a36.187,36.187,0,0,1,.847-30.347,36.695,36.695,0,1,0,39.674,58.407A57.364,57.364,0,0,1,373.671,87.4Z" transform="translate(-322.049 -26.677)" fill="#b8d0ff" style="mix-blend-mode: multiply;isolation: isolate"/>
            <g id="Group_313112" data-name="Group 313112" transform="translate(4.213 4.211)">
              <g id="Group_313111" data-name="Group 313111" clip-path="url(#clip-path-2)">
                <g id="Group_313110" data-name="Group 313110" transform="translate(-43.079 9.949)">
                  <g id="Group_313107" data-name="Group 313107">
                    <g id="Group_313106" data-name="Group 313106" transform="translate(3.304 9.467)">
                      <rect id="Rectangle_164403" data-name="Rectangle 164403" width="6.527" height="19.243" transform="translate(0 17.072)" fill="#b8d0ff"/>
                      <rect id="Rectangle_164404" data-name="Rectangle 164404" width="6.537" height="31.627" transform="translate(16.181 4.688)" fill="#b8d0ff"/>
                      <rect id="Rectangle_164405" data-name="Rectangle 164405" width="6.529" height="36.315" transform="translate(32.372)" fill="#b8d0ff"/>
                      <rect id="Rectangle_164406" data-name="Rectangle 164406" width="6.534" height="31.927" transform="translate(48.552 4.388)" fill="#176a92"/>
                      <rect id="Rectangle_164407" data-name="Rectangle 164407" width="6.53" height="34.711" transform="translate(64.736 1.603)" fill="#176a92"/>
                    </g>
                    <rect id="Rectangle_164408" data-name="Rectangle 164408" width="6.534" height="45.782" transform="translate(84.223)" fill="#176a92"/>
                    <rect id="Rectangle_164409" data-name="Rectangle 164409" width="3.363" height="25.734" transform="translate(12.848 20.048)" fill="#b8d0ff"/>
                    <rect id="Rectangle_164410" data-name="Rectangle 164410" width="3.367" height="25.734" transform="translate(29.406 20.048)" fill="#b8d0ff"/>
                    <rect id="Rectangle_164411" data-name="Rectangle 164411" width="3.368" height="25.734" transform="translate(45.694 20.048)" fill="#b8d0ff"/>
                    <rect id="Rectangle_164412" data-name="Rectangle 164412" width="3.367" height="25.734" transform="translate(61.134 20.048)" fill="#b8d0ff"/>
                    <rect id="Rectangle_164413" data-name="Rectangle 164413" width="3.371" height="25.734" transform="translate(78.541 20.048)" fill="#b8d0ff"/>
                    <rect id="Rectangle_164414" data-name="Rectangle 164414" width="95.462" height="1.921" transform="translate(0 44.92)" fill="#fff"/>
                  </g>
                  <g id="Group_313109" data-name="Group 313109" transform="translate(71.54 7.498)">
                    <g id="Group_313108" data-name="Group 313108" transform="translate(0 27.008)">
                      <path id="Path_143026" data-name="Path 143026" d="M367.077,121.9a2.53,2.53,0,0,1-3.228,1.544h0a2.53,2.53,0,0,1-1.547-3.228l12.635-35.875a2.527,2.527,0,0,1,3.225-1.547h0a2.527,2.527,0,0,1,1.547,3.226Z" transform="translate(-359.978 -82.646)" fill="#83b3ff"/>
                      <path id="Path_143027" data-name="Path 143027" d="M370.479,91.006l-10.615,30.141a4.575,4.575,0,1,0,8.631,3.037l10.612-30.138Z" transform="translate(-359.604 -83.87)" fill="#b8d0ff"/>
                      <path id="Path_143028" data-name="Path 143028" d="M367.1,126.073a4.576,4.576,0,0,1-2.8-5.834l9.84-27.942-3.663-1.292-10.615,30.141A4.574,4.574,0,0,0,367.2,126.1C367.164,126.092,367.131,126.084,367.1,126.073Z" transform="translate(-359.604 -83.87)" fill="#0093cc" opacity="0.3" style="mix-blend-mode: multiply;isolation: isolate"/>
                    </g>
                    <path id="Path_143029" data-name="Path 143029" d="M399.264,73.426A17.324,17.324,0,1,1,387.8,51.776,17.324,17.324,0,0,1,399.264,73.426Z" transform="translate(-360.449 -51.006)" fill="#fff"/>
                    <path id="Path_143030" data-name="Path 143030" d="M397.357,73.129A14.892,14.892,0,1,1,387.5,54.518,14.887,14.887,0,0,1,397.357,73.129Z" transform="translate(-360.866 -51.423)" fill="#4e73a8"/>
                    <path id="Path_143031" data-name="Path 143031" d="M396.582,72.955a13.938,13.938,0,1,1-9.228-17.418A13.937,13.937,0,0,1,396.582,72.955Z" transform="translate(-361.026 -51.579)" fill="#b8d0ff"/>
                    <path id="Path_143032" data-name="Path 143032" d="M380.277,58.121a21.33,21.33,0,0,1,1.205-3.058A14.006,14.006,0,1,0,390.015,81.2C381.626,77.889,377.288,67.843,380.277,58.121Z" transform="translate(-361.009 -51.6)" fill="#fff" opacity="0.4"/>
                  </g>
                </g>
              </g>
            </g>
          </g>
          <g id="Group_313123" data-name="Group 313123" transform="translate(102.939 210.695)">
            <g id="Group_313118" data-name="Group 313118">
              <path id="Path_143033" data-name="Path 143033" d="M328.109,313.368A40.906,40.906,0,1,1,287.2,272.462,40.905,40.905,0,0,1,328.109,313.368Z" transform="translate(-246.296 -272.462)" fill="#e1edff"/>
              <path id="Path_143034" data-name="Path 143034" d="M324.618,314.09a36.7,36.7,0,1,1-36.693-36.7A36.695,36.695,0,0,1,324.618,314.09Z" transform="translate(-247.018 -273.184)" fill="#83b3ff"/>
              <path id="Path_143035" data-name="Path 143035" d="M298.638,334.23c-10.932-4.327-18.757-13.548-23.125-24.3a36.183,36.183,0,0,1,.847-30.348,36.695,36.695,0,1,0,39.672,58.407A57.273,57.273,0,0,1,298.638,334.23Z" transform="translate(-247.018 -273.505)" fill="#b8d0ff" style="mix-blend-mode: multiply;isolation: isolate"/>
              <g id="Group_313117" data-name="Group 313117" transform="translate(18.062 18.099)">
                <path id="Path_143036" data-name="Path 143036" d="M295.689,307.725a8.619,8.619,0,0,0-7.555-4.025h-20.17v36.446h44.819V307.725Z" transform="translate(-267.53 -295.134)" fill="#2d4c7f"/>
                <g id="Group_313115" data-name="Group 313115" transform="translate(4.205)">
                  <rect id="Rectangle_164415" data-name="Rectangle 164415" width="37.278" height="29.985" fill="#fff"/>
                  <g id="Group_313114" data-name="Group 313114" transform="translate(2.846 4.531)">
                    <line id="Line_963" data-name="Line 963" x1="31.587" fill="none" stroke="#26395e" stroke-linecap="round" stroke-miterlimit="10" stroke-width="0.5"/>
                    <line id="Line_964" data-name="Line 964" x1="31.587" transform="translate(0 3.322)" fill="none" stroke="#26395e" stroke-linecap="round" stroke-miterlimit="10" stroke-width="0.5"/>
                    <line id="Line_965" data-name="Line 965" x1="31.587" transform="translate(0 6.643)" fill="none" stroke="#26395e" stroke-linecap="round" stroke-miterlimit="10" stroke-width="0.5"/>
                    <line id="Line_966" data-name="Line 966" x1="31.587" transform="translate(0 9.963)" fill="none" stroke="#26395e" stroke-linecap="round" stroke-miterlimit="10" stroke-width="0.5"/>
                  </g>
                  <path id="Path_143037" data-name="Path 143037" d="M298.245,311.243a27.28,27.28,0,0,1-18.2-17.578h-7.666V323.65h37.278V311.578A22.029,22.029,0,0,1,298.245,311.243Z" transform="translate(-272.381 -293.665)" fill="#b8d0ff" opacity="0.3" style="mix-blend-mode: multiply;isolation: isolate"/>
                </g>
                <g id="Group_313116" data-name="Group 313116" transform="translate(0 19.714)">
                  <path id="Path_143038" data-name="Path 143038" d="M313.144,345.255v-23.13a5.364,5.364,0,0,0-5.364-5.365h-34.96a5.365,5.365,0,0,0-5.364,5.365v23.13Z" transform="translate(-267.455 -316.76)" fill="#4e95cf"/>
                  <line id="Line_967" data-name="Line 967" x1="35.454" transform="translate(5.138 2.253)" fill="none" stroke="#26395e" stroke-linecap="round" stroke-miterlimit="10" stroke-width="0.5"/>
                  <path id="Path_143039" data-name="Path 143039" d="M295.512,336.655c-6.31-4.59-16.551-11.481-18.338-19.9h-4.355a5.365,5.365,0,0,0-5.364,5.365v23.13h45.689V344.5A46.034,46.034,0,0,1,295.512,336.655Z" transform="translate(-267.455 -316.76)" fill="#ffa607" opacity="0.2" style="mix-blend-mode: multiply;isolation: isolate"/>
                </g>
              </g>
            </g>
            <g id="Group_313122" data-name="Group 313122" transform="translate(128.098)">
              <path id="Path_143040" data-name="Path 143040" d="M478.174,313.368a40.906,40.906,0,1,1-40.906-40.906A40.9,40.9,0,0,1,478.174,313.368Z" transform="translate(-396.362 -272.462)" fill="#e1edff"/>
              <path id="Path_143041" data-name="Path 143041" d="M474.685,314.09a36.695,36.695,0,1,1-36.7-36.7A36.695,36.695,0,0,1,474.685,314.09Z" transform="translate(-397.084 -273.184)" fill="#5d81ec"/>
              <g id="Group_313121" data-name="Group 313121" transform="translate(4.211 4.211)">
                <g id="Group_313120" data-name="Group 313120" clip-path="url(#clip-path-3)">
                  <g id="Group_313119" data-name="Group 313119" transform="translate(8.264 21.572)">
                    <rect id="Rectangle_164416" data-name="Rectangle 164416" width="56.187" height="66.452" fill="#b8d0ff"/>
                    <path id="Path_143043" data-name="Path 143043" d="M463.492,325.8a6.457,6.457,0,0,1-6.456,6.459H422.622a6.455,6.455,0,0,1-6.449-6.459h0a6.452,6.452,0,0,1,6.449-6.448h34.414a6.454,6.454,0,0,1,6.456,6.448Z" transform="translate(-411.737 -301.109)" fill="#fff"/>
                    <path id="Path_143044" data-name="Path 143044" d="M463.492,343a6.455,6.455,0,0,1-6.456,6.452H422.622A6.453,6.453,0,0,1,416.173,343h0a6.452,6.452,0,0,1,6.449-6.452h34.414A6.454,6.454,0,0,1,463.492,343Z" transform="translate(-411.737 -303.626)" fill="#fff"/>
                    <path id="Path_143045" data-name="Path 143045" d="M463.492,360.194a6.46,6.46,0,0,1-6.456,6.457H422.622a6.458,6.458,0,0,1-6.449-6.457h0a6.45,6.45,0,0,1,6.449-6.447h34.414a6.452,6.452,0,0,1,6.456,6.447Z" transform="translate(-411.737 -306.144)" fill="#fff"/>
                    <rect id="Rectangle_164417" data-name="Rectangle 164417" width="39.471" height="8.225" transform="translate(8.359 20.524)" fill="#b8d0ff"/>
                    <rect id="Rectangle_164418" data-name="Rectangle 164418" width="39.471" height="8.228" transform="translate(8.359 35.261)" fill="#b8d0ff"/>
                    <rect id="Rectangle_164419" data-name="Rectangle 164419" width="39.471" height="8.225" transform="translate(8.359 49.94)" fill="#b8d0ff"/>
                    <rect id="Rectangle_164420" data-name="Rectangle 164420" width="20.941" height="2.03" transform="translate(17.626 22.579)" fill="#4e95cf"/>
                    <path id="Path_143046" data-name="Path 143046" d="M463.493,308.278a6.452,6.452,0,0,1-6.454,6.452H422.622a6.451,6.451,0,0,1-6.453-6.452h0a6.454,6.454,0,0,1,6.453-6.452h34.417a6.455,6.455,0,0,1,6.454,6.452Z" transform="translate(-411.737 -298.543)" fill="#fff"/>
                    <rect id="Rectangle_164421" data-name="Rectangle 164421" width="39.468" height="8.225" transform="translate(8.361 5.558)" fill="#b8d0ff"/>
                    <rect id="Rectangle_164422" data-name="Rectangle 164422" width="20.943" height="2.027" transform="translate(17.624 7.616)" fill="#4e95cf"/>
                    <rect id="Rectangle_164423" data-name="Rectangle 164423" width="20.941" height="2.022" transform="translate(17.626 37.26)" fill="#4e95cf"/>
                    <rect id="Rectangle_164424" data-name="Rectangle 164424" width="20.941" height="2.021" transform="translate(17.626 51.935)" fill="#ffbf00"/>
                    <line id="Line_968" data-name="Line 968" x2="35.942" transform="translate(9.647 11.048)" fill="none" stroke="#26395e" stroke-linecap="round" stroke-miterlimit="10" stroke-width="0.5"/>
                    <line id="Line_969" data-name="Line 969" x2="36.94" transform="translate(9.447 26.419)" fill="none" stroke="#26395e" stroke-linecap="round" stroke-miterlimit="10" stroke-width="0.5"/>
                    <line id="Line_970" data-name="Line 970" x2="37.74" transform="translate(9.846 41.396)" fill="none" stroke="#26395e" stroke-linecap="round" stroke-miterlimit="10" stroke-width="0.5"/>
                    <line id="Line_971" data-name="Line 971" x2="36.139" transform="translate(10.247 56.372)" fill="none" stroke="#26395e" stroke-linecap="round" stroke-miterlimit="10" stroke-width="0.5"/>
                    <path id="Path_143047" data-name="Path 143047" d="M441.969,342.823c-12.026-12.433-18.744-28.839-24.634-44.843h-6.358v66.452h56.187V357.1A52.435,52.435,0,0,1,441.969,342.823Z" transform="translate(-410.977 -297.98)" fill="#b8d0ff" opacity="0.3" style="mix-blend-mode: multiply;isolation: isolate"/>
                  </g>
                </g>
              </g>
            </g>
          </g>
          <g id="Group_313129" data-name="Group 313129" transform="translate(280.816 24.453)">
            <path id="Path_143048" data-name="Path 143048" d="M536.491,95.187a40.906,40.906,0,1,1-40.907-40.906A40.906,40.906,0,0,1,536.491,95.187Z" transform="translate(-454.679 -54.281)" fill="#e1edff"/>
            <path id="Path_143049" data-name="Path 143049" d="M533,95.909a36.7,36.7,0,1,1-36.7-36.7A36.7,36.7,0,0,1,533,95.909Z" transform="translate(-455.401 -55.003)" fill="#83b3ff"/>
            <path id="Path_143050" data-name="Path 143050" d="M507.021,116.049c-10.931-4.327-18.756-13.548-23.125-24.3a36.184,36.184,0,0,1,.848-30.347,36.694,36.694,0,1,0,39.672,58.407A57.281,57.281,0,0,1,507.021,116.049Z" transform="translate(-455.401 -55.324)" fill="#b8d0ff" style="mix-blend-mode: multiply;isolation: isolate"/>
            <g id="Group_313128" data-name="Group 313128" transform="translate(4.166 4.211)">
              <g id="Group_313127" data-name="Group 313127" clip-path="url(#clip-path-4)">
                <g id="Group_313126" data-name="Group 313126" transform="translate(10.849 4.945)">
                  <g id="Group_313124" data-name="Group 313124">
                    <path id="Path_143051" data-name="Path 143051" d="M501.352,91.953c4.509-1.7,7.8-6.942,7.816-13.161.014-7.6-4.878-13.775-10.93-13.785s-10.97,6.141-10.987,13.745c-.009,6.218,3.263,11.475,7.769,13.191-12.773,1.682-22.686,13.525-22.715,27.92l-.034,18.786,51.654.1.037-18.786C523.988,105.565,514.117,93.683,501.352,91.953Z" transform="translate(-472.27 -65.007)" fill="#e1edff"/>
                    <path id="Path_143052" data-name="Path 143052" d="M494.759,96.616c-12.645,1.807-22.427,13.578-22.455,27.874l-.034,18.786,51.654.1.012-6.406C506.522,132.691,497.892,115.41,494.759,96.616Z" transform="translate(-472.27 -69.634)" fill="#b8d0ff" opacity="0.8" style="mix-blend-mode: multiply;isolation: isolate"/>
                  </g>
                  <g id="Group_313125" data-name="Group 313125" transform="translate(21.308 31.676)">
                    <path id="Path_143053" data-name="Path 143053" d="M499.393,107.065l-1.553-4.883,6.951-.066L503.533,107Z" transform="translate(-497.321 -102.116)" fill="#176a92"/>
                    <path id="Path_143054" data-name="Path 143054" d="M501.656,121.2l-4.423-6.437,2.145-7.6h3.993l2.071,7.157Z" transform="translate(-497.232 -102.854)" fill="#176a92"/>
                  </g>
                  <path id="Path_143055" data-name="Path 143055" d="M487.812,100.968l12.465,19.152,11.149-20.333" transform="translate(-474.545 -70.099)" fill="none" stroke="#26395e" stroke-linecap="round" stroke-miterlimit="10" stroke-width="0.5"/>
                </g>
              </g>
            </g>
          </g>
        </g>
        <g id="Group_313143" data-name="Group 313143" transform="translate(397.237 42.694)">
          <g id="Group_313132" data-name="Group 313132" transform="translate(23.992 226.349)">
            <g id="Group_313131" data-name="Group 313131">
              <path id="Path_143056" data-name="Path 143056" d="M635.294,405.695V376.161H601.217V340.816H544.123V451.685H667.161v-45.99Z" transform="translate(-544.123 -340.816)" fill="#b8d0ff"/>
              <path id="Path_143057" data-name="Path 143057" d="M553.79,417.76c-2.105-13.382-1.9-30.428,7.432-40.671,4.784-5.252,11.5-8.373,18.263-7.625,7.569.837,11.661,8.076,16.5,13.633,12.39,14.225,26.17,9.368,39.307,1.469v-8.406H601.217V340.816H544.123V451.685H568.95C560.505,443.172,555.7,429.92,553.79,417.76Z" transform="translate(-544.123 -340.816)" fill="#b8d0ff" opacity="0.4" style="mix-blend-mode: multiply;isolation: isolate"/>
            </g>
            <path id="Path_143058" data-name="Path 143058" d="M656.63,436.4l-.773-5.112a2.221,2.221,0,0,0-2.563-1.812l-1.659.248a2.492,2.492,0,0,1-2.583-1.242,20.182,20.182,0,0,0-1.237-1.981,2.326,2.326,0,0,1,.061-2.792l1-1.305a2.1,2.1,0,0,0-.464-3.031l-4.319-3.054a2.32,2.32,0,0,0-3.161.477l-1,1.3a2.586,2.586,0,0,1-2.766.891,20.785,20.785,0,0,0-2.347-.555,2.409,2.409,0,0,1-2-1.992l-.242-1.592a2.224,2.224,0,0,0-2.562-1.81l-5.333.8a2.219,2.219,0,0,0-1.915,2.482l.243,1.589a2.412,2.412,0,0,1-1.325,2.5,21.133,21.133,0,0,0-2.074,1.214,2.587,2.587,0,0,1-2.9-.035l-1.341-.953a2.333,2.333,0,0,0-3.169.478l-3.22,4.187a2.1,2.1,0,0,0,.458,3.03l1.34.948a2.323,2.323,0,0,1,.895,2.654,19.1,19.1,0,0,0-.591,2.254,2.5,2.5,0,0,1-2.1,1.946l-1.654.248a2.217,2.217,0,0,0-1.914,2.483l.776,5.117a2.222,2.222,0,0,0,2.569,1.808l1.656-.248a2.488,2.488,0,0,1,2.581,1.244,20.172,20.172,0,0,0,1.237,1.981,2.311,2.311,0,0,1-.069,2.79l-1,1.3a2.114,2.114,0,0,0,.465,3.041l4.318,3.048a2.331,2.331,0,0,0,3.163-.473l1-1.3a2.588,2.588,0,0,1,2.765-.887,23.3,23.3,0,0,0,2.344.554,2.4,2.4,0,0,1,2,1.992l.24,1.589a2.23,2.23,0,0,0,2.568,1.813l5.331-.8a2.206,2.206,0,0,0,1.908-2.486l-.236-1.585a2.392,2.392,0,0,1,1.312-2.494,21.158,21.158,0,0,0,2.081-1.216,2.6,2.6,0,0,1,2.9.038l1.349.944a2.331,2.331,0,0,0,3.164-.475l3.219-4.182a2.1,2.1,0,0,0-.462-3.035l-1.342-.948a2.329,2.329,0,0,1-.887-2.652,20.551,20.551,0,0,0,.595-2.254,2.478,2.478,0,0,1,2.1-1.945l1.662-.248A2.21,2.21,0,0,0,656.63,436.4ZM633.771,449.1c-7.4,1.686-14.5-3.325-15-10.592a12.056,12.056,0,0,1,9.508-12.341c7.393-1.684,14.491,3.322,15,10.593A12.069,12.069,0,0,1,633.771,449.1Z" transform="translate(-553.091 -351.385)" fill="#0271a6"/>
          </g>
          <g id="Group_313142" data-name="Group 313142">
            <g id="Group_313133" data-name="Group 313133" transform="translate(56.027 78.207)">
              <path id="Path_143059" data-name="Path 143059" d="M593.716,331.454c-2.8,3.326-8.037,3.182-11.391,5.914a1.9,1.9,0,0,0-.6.7,1.411,1.411,0,0,0,.748,1.669,3.878,3.878,0,0,0,1.928.271l11.137-.337a3.081,3.081,0,0,0,1.186-.195,3.318,3.318,0,0,0,1.439-2.149c.847-2.553.9-4.781,1.742-7.334-2.473.049-3.728.737-6.194,1.466" transform="translate(-581.652 -191.089)" fill="#fa6e61"/>
              <path id="Path_143060" data-name="Path 143060" d="M581.73,338.911a1.9,1.9,0,0,1,.6-.7,14.946,14.946,0,0,1,4.635-2.3,3.732,3.732,0,0,0,3.079,1.7c.86.075,1.725.071,2.589.094a10.3,10.3,0,0,0,2.585-.209,8.785,8.785,0,0,0,3.577-1.717,20.837,20.837,0,0,1-.621,2.39,3.321,3.321,0,0,1-1.439,2.149,3.081,3.081,0,0,1-1.186.195q-5.57.166-11.137.337a3.873,3.873,0,0,1-1.927-.271,1.41,1.41,0,0,1-.749-1.669" transform="translate(-581.652 -191.937)" fill="#132444"/>
              <path id="Path_143061" data-name="Path 143061" d="M602.274,167.269a146.437,146.437,0,0,1,4,65.633,48.648,48.648,0,0,0-1.1,10.19,62.648,62.648,0,0,0,1.706,9.591c3.831,18.742-1.163,38.08-7.036,56.282-2.691-.461-2.648-.552-5.34-1.011,2.56-22.133-5.013-44.746-6.353-66.99-.454-7.564-.505-15.146-.556-22.722q-.159-24.1-.32-48.2c5.011-.434,10.018-.867,15-2.774" transform="translate(-582.475 -167.269)" fill="#fa6e61"/>
              <path id="Path_143062" data-name="Path 143062" d="M604.114,254.949a29.421,29.421,0,0,0-6.6-3.723,11.876,11.876,0,0,0-3.285-.889,16.325,16.325,0,0,0-3.043.005,13.791,13.791,0,0,0-2.1.358c-.41-3.251-.739-6.5-.935-9.737-.454-7.564-.505-15.146-.556-22.722q-.159-24.1-.32-48.2c5.011-.434,10.018-.867,15-2.774a146.437,146.437,0,0,1,4,65.633,48.648,48.648,0,0,0-1.1,10.19,62.667,62.667,0,0,0,1.706,9.591c.417,2.036.72,4.078.94,6.126a17.344,17.344,0,0,0-3.7-3.859" transform="translate(-582.475 -167.269)" fill="#d75246"/>
            </g>
            <g id="Group_313134" data-name="Group 313134" transform="translate(26.171 90.48)">
              <path id="Path_143063" data-name="Path 143063" d="M557.309,330.545c-2.25,3.63-7.268,4.182-10.123,7.3a1.879,1.879,0,0,0-.478.761,1.4,1.4,0,0,0,.93,1.537,3.627,3.627,0,0,0,1.875.013q5.3-.9,10.594-1.8a2.91,2.91,0,0,0,1.107-.349,3.3,3.3,0,0,0,1.1-2.3c.483-2.616.244-4.808.724-7.422-2.358.373-3.467,1.214-5.728,2.254" transform="translate(-546.676 -203.114)" fill="#fa6e61"/>
              <path id="Path_143064" data-name="Path 143064" d="M546.708,339.465a1.888,1.888,0,0,1,.478-.762,14.387,14.387,0,0,1,4.132-2.864,3.552,3.552,0,0,0,3.159,1.257c.831-.039,1.658-.157,2.484-.249a9.647,9.647,0,0,0,2.444-.548,8.423,8.423,0,0,0,3.2-2.155,21.188,21.188,0,0,1-.288,2.426,3.3,3.3,0,0,1-1.1,2.3,2.91,2.91,0,0,1-1.107.349q-5.3.9-10.594,1.8a3.627,3.627,0,0,1-1.875-.013,1.4,1.4,0,0,1-.93-1.537" transform="translate(-546.676 -203.97)" fill="#132444"/>
              <path id="Path_143065" data-name="Path 143065" d="M577.42,182.582a112,112,0,0,1-5.854,59.208,35.35,35.35,0,0,0-2.494,8,35.418,35.418,0,0,0,.131,7.295c.887,11.747-.559,22.839-2.056,34.524-.837,6.534-2.542,10.621-3.488,18-1.8-.277-6-.126-5.722.054-.889-6.965-6.518-50.753-3.094-78.53a419.068,419.068,0,0,1,8.766-47.472,2.138,2.138,0,0,1,2.86-1.974c4.094.359,8.188.72,10.951.9" transform="translate(-547.711 -181.646)" fill="#fa6e61"/>
              <path id="Path_143066" data-name="Path 143066" d="M569.071,249.79a35.478,35.478,0,0,0,.131,7.295c.037.5.065.992.094,1.487-.424-.324-.858-.64-1.311-.923a25.448,25.448,0,0,0-7-2.926,21.353,21.353,0,0,0-7.229-.283,183.242,183.242,0,0,1,1.084-23.31,419.068,419.068,0,0,1,8.766-47.472,2.138,2.138,0,0,1,2.86-1.974c4.094.359,8.188.72,10.951.9a112,112,0,0,1-5.854,59.208,35.35,35.35,0,0,0-2.494,8" transform="translate(-547.711 -181.646)" fill="#d75246"/>
            </g>
            <g id="Group_313135" data-name="Group 313135" transform="translate(27.654 72.89)">
              <path id="Path_143067" data-name="Path 143067" d="M613.474,236.188c-3.181-26.055-6.7-53.116-20.449-75.148a54.8,54.8,0,0,1-26.631,1.455c-1.514-.3-3.289-.59-4.407.509a4.975,4.975,0,0,0-1.081,2.2,251.23,251.23,0,0,0-6.97,30.259c-1.137,6.837-1.992,13.721-2.845,20.6q-1.316,10.612-2.633,21.224a2.291,2.291,0,0,0,.021.988c.224.686.994.962,1.667,1.142,15.087,4.044,31.232,6.882,46.365,4.435-.033-2.515-.254-5.021-.28-7.536a1.974,1.974,0,0,1,.638-1.475c1.018-1.472,3.914-1.078,3.914,1.191v.411a47.122,47.122,0,0,1,2.083,6.047A55.677,55.677,0,0,0,612,239.145a2.773,2.773,0,0,0,1.28-.958A3.112,3.112,0,0,0,613.474,236.188Z" transform="translate(-548.414 -161.04)" fill="#222"/>
              <path id="Path_143068" data-name="Path 143068" d="M614.426,236.188c-3.181-26.055-6.7-53.115-20.449-75.148a54.8,54.8,0,0,1-26.631,1.455c-1.514-.3-3.289-.59-4.407.509a4.975,4.975,0,0,0-1.081,2.2,251.229,251.229,0,0,0-6.941,30.082,45.673,45.673,0,0,0,15.387,7.559,33.869,33.869,0,0,0,12.682.984,27.182,27.182,0,0,0,6.206-1.529c.457-.169.907-.354,1.35-.551a9.253,9.253,0,0,1,1.727-.411,3.3,3.3,0,0,1,2.989.4c1.644,1.231,2.006,3.155,2.138,5.072a48.464,48.464,0,0,1,.02,6.289,56.15,56.15,0,0,1-2.369,12.686,56.967,56.967,0,0,1-9.876,18.971,74.463,74.463,0,0,0,12.29-.907c-.033-2.515-.254-5.021-.28-7.537a1.974,1.974,0,0,1,.638-1.475c1.018-1.472,3.914-1.078,3.914,1.191v.411a47.17,47.17,0,0,1,2.081,6.041,55.664,55.664,0,0,0,9.133-3.341,2.78,2.78,0,0,0,1.28-.959A3.112,3.112,0,0,0,614.426,236.188Z" transform="translate(-549.366 -161.04)" fill="#222" style="mix-blend-mode: darken;isolation: isolate"/>
              <path id="Path_143069" data-name="Path 143069" d="M579.412,235.845a41.078,41.078,0,0,1-22.26-14.705" transform="translate(-549.693 -169.838)" fill="none" stroke="#132444" stroke-miterlimit="10" stroke-width="0.5"/>
              <path id="Path_143070" data-name="Path 143070" d="M572.211,244.36c-5.175-4.021-10.6-8.387-12.762-14.566" transform="translate(-550.029 -171.105)" fill="none" stroke="#132444" stroke-miterlimit="10" stroke-width="0.5"/>
            </g>
            <g id="Group_313136" data-name="Group 313136" transform="translate(35.713 30.968)">
              <path id="Path_143071" data-name="Path 143071" d="M578.734,111.928c4.6.09,9.727.4,12.863,3.712,3.165,3.339,3.089,8.45,2.856,13.01-.592,11.548-.778,23.893,5.441,33.706a56.736,56.736,0,0,1-38.984,2.057c1.2-7.939,2.153-16.107.325-23.929-1.643-7.034-5.432-14.634-1.968-21,1.864-3.426,5.557-5.6,9.387-6.557s7.838-.854,10.079-1" transform="translate(-557.855 -111.928)" fill="#f5a823"/>
              <path id="Path_143072" data-name="Path 143072" d="M563.064,153.87a19.332,19.332,0,0,0,2.341.1,20.281,20.281,0,0,0,2.276-.333,35.11,35.11,0,0,0,4.078-.83,18.874,18.874,0,0,0,11.153-9.964c2.53-5.236,3.025-10.935,2.954-16.657-.062-4.854-.871-9.888-3.4-14.107,3.632.26,7.24,1.028,9.659,3.581,3.165,3.339,3.089,8.45,2.856,13.01-.592,11.548-.778,23.893,5.441,33.706a56.736,56.736,0,0,1-38.984,2.057c.529-3.5,1.009-7.055,1.224-10.6.135.009.27.026.4.033" transform="translate(-558.379 -111.951)" fill="#f5a823"/>
              <path id="Path_143073" data-name="Path 143073" d="M579.162,137.2a21.583,21.583,0,0,1-13.351-14.335" transform="translate(-559.019 -113.529)" fill="#e5a940" stroke="#26395e" stroke-miterlimit="10" stroke-width="0.5"/>
              <path id="Path_143074" data-name="Path 143074" d="M571.708,140.112a20.012,20.012,0,0,1-6.773-8.336" transform="translate(-558.891 -114.834)" fill="#e5a940" stroke="#26395e" stroke-miterlimit="10" stroke-width="0.5"/>
            </g>
            <g id="Group_313139" data-name="Group 313139" transform="translate(40.739)">
              <path id="Path_143075" data-name="Path 143075" d="M579.627,91.282c1.187,2.8,4.848,3.5,6.983,5.671,1.915,1.943,2.656,5.119,5.155,6.213,2.083.912,4.688-.01,6.662,1.118,2.244,1.284,2.554,4.543,4.6,6.124a5.555,5.555,0,0,0,3.379,1.027c4.925.019,9.151-5.2,8.113-10.011-.38-1.765-1.325-3.355-1.845-5.084s-.513-3.82.76-5.1a16.918,16.918,0,0,1,1.817-1.318c2.8-2.125,2.809-6.776.418-9.353s-6.473-3.115-9.763-1.875c-1.887.711-4.161,1.882-5.7.577a10.271,10.271,0,0,1-1.332-1.851A4.92,4.92,0,0,0,594,75.755a7.621,7.621,0,0,0-4.4,2.984c-.741.977-.309,3.58-1.051,4.557-1.753,2.311-4.76.142-6.219.746-.9.374-3.554,5.22-2.7,7.239" transform="translate(-566.043 -75.65)" fill="#132444"/>
              <g id="Group_313138" data-name="Group 313138" transform="translate(0 6.813)">
                <path id="Path_143076" data-name="Path 143076" d="M572.977,104.184a18.9,18.9,0,0,1-.586,8.155c1.94,1.1,4.359.695,6.51.108a11.5,11.5,0,0,0,3.063-1.2.674.674,0,0,0,.265-.249.475.475,0,0,0,.026-.375c-1.7-4.392-2.038-8.675-1.76-14.137-2.054,1.024-4.63.424-6.729,1.354a1.415,1.415,0,0,0-.546.364,1.5,1.5,0,0,0-.253.764,19.52,19.52,0,0,0,.011,5.217" transform="translate(-565.008 -85.513)" fill="#ff7055"/>
                <path id="Path_143077" data-name="Path 143077" d="M579.1,103.989c1.256-2.541.742-5.448,1.33-8.147-2.053,1.023-4.5.972-6.595,1.9a1.424,1.424,0,0,0-.546.364,1.5,1.5,0,0,0-.253.764,19.511,19.511,0,0,0,.011,5.216,18.794,18.794,0,0,1,.108,4.551,8.98,8.98,0,0,0,5.945-4.65" transform="translate(-565.078 -85.419)" fill="#d75246"/>
                <path id="Path_143078" data-name="Path 143078" d="M567.6,90.763c-.264,1.722-.535,3.245-.727,4.977-.264,2.365-.754,4.2.406,6.278A5.039,5.039,0,0,0,572.3,104.7a7.2,7.2,0,0,0,4.748-2.731,13.589,13.589,0,0,0,2.941-10.4,3.563,3.563,0,0,0-1.873-3.1,11.082,11.082,0,0,0-5.074-1.385c-2.717-.2-5.18,1.95-5.447,3.672" transform="translate(-564.151 -84.136)" fill="#ff7055"/>
                <g id="Group_313137" data-name="Group 313137">
                  <path id="Path_143079" data-name="Path 143079" d="M566.13,84.628c-2.207,1.647-3.07,3.324-1.793,4.983.841,1.092,1.812.207,2.162.2.483-.009.681.6.965.988a2.557,2.557,0,0,0,2.439.681,4.6,4.6,0,0,0,2.44-.92c.457-.388.79-.91,1.274-1.264a1.292,1.292,0,0,1,1.643-.046c.516.545.15,1.524.6,2.123a1.348,1.348,0,0,0,1.386.377,2.677,2.677,0,0,0,1.869-1.91,3.954,3.954,0,0,0-.327-2.723,5.264,5.264,0,0,0-1.945-2.174c-1.985-1.238-3.775.157-5.819-.989-1.708-.958-4.658.5-4.894.673" transform="translate(-563.742 -83.632)" fill="#141d30"/>
                  <path id="Path_143080" data-name="Path 143080" d="M578.557,88.912a9.147,9.147,0,0,1,.948,4.238,2.252,2.252,0,0,0,.031.587,2.074,2.074,0,0,0,.293.6q.819,1.307,1.644,2.615c1.438-1.33,3.385-3.142,2.351-6.5a6.678,6.678,0,0,0-.989-2.172c-2.117-2.344-3.713-.306-3.974-.072s-.387.662-.3.7" transform="translate(-565.907 -84.15)" fill="#141d30"/>
                </g>
                <path id="Path_143081" data-name="Path 143081" d="M580.615,96.858a2.4,2.4,0,0,1,2.58-.515c1.507.647-.528,3.406-3.268,3.367-.382-.005-.831-.12-.96-.483a1.056,1.056,0,0,1,.2-.872,3.562,3.562,0,0,1,1.447-1.5" transform="translate(-565.966 -85.467)" fill="#ff7055"/>
              </g>
            </g>
            <g id="Group_313141" data-name="Group 313141" transform="translate(0 35.138)">
              <g id="Group_313140" data-name="Group 313140" transform="translate(0 8.615)">
                <path id="Path_143082" data-name="Path 143082" d="M577.447,140.669c-7.052,4.046-17.947,11.3-23.564,12.18a21.523,21.523,0,0,1-8.665-.522c-7.874-2.018-11.441-6.5-18.707-10.157,1.455-1.728.566-.668,1.388-2.776,6.956,2.255,24.365,10.487,35.244-.563,8.591-8.726,10.047-8.2,16.59-11.057,1.423-.623,4.756-1.256,6.154-.574s4.067,6.293-8.44,13.468" transform="translate(-517.553 -126.906)" fill="#ff7055"/>
                <path id="Path_143083" data-name="Path 143083" d="M525.692,143.438a26.346,26.346,0,0,1-6.183-1.131c-.63-.223-1.5-.388-1.691-1.031.321-.376.438-.1,1.3.138a2.922,2.922,0,0,0,1.587.212,9.706,9.706,0,0,1-4.692-2.963.918.918,0,0,1,.952-.067,4.272,4.272,0,0,1,.825.568,4.957,4.957,0,0,0,2.351.961c-1.491-.713-3.1-1.541-3.78-3.047a.635.635,0,0,1,.726-.147,2.353,2.353,0,0,1,.646.459,6.541,6.541,0,0,0,2.609,1.386,9.306,9.306,0,0,1-3.235-2.962c.323-.36.895-.015,1.265.292a7.7,7.7,0,0,0,3.128,1.649c.161.034.979.319,1.079.192.078-.1-.421-1.555-.493-2.112-.06-.491.172-1.1.662-1.154.982,2.44,2.146,5.088,4.5,6.249a20.1,20.1,0,0,0-1.561,2.507" transform="translate(-516.017 -128.045)" fill="#ff7055"/>
              </g>
              <path id="Path_143084" data-name="Path 143084" d="M594.256,117.1a9.73,9.73,0,0,1,1.717,6.517,15.258,15.258,0,0,1-1.072,3.994,36.367,36.367,0,0,1-11.216,15.17,53.915,53.915,0,0,1-8.843-8.49,1.164,1.164,0,0,1-.365-.808,1.151,1.151,0,0,1,.349-.605,117.967,117.967,0,0,1,15.086-14.125,8.449,8.449,0,0,1,3.543-1.924c.544-.1,1.339.464.8.271" transform="translate(-524.574 -116.813)" fill="#f5a823"/>
            </g>
          </g>
        </g>
      </g>
    </g>
    <g id="Group_312682" data-name="Group 312682" transform="translate(844 572)">
      <path id="Path_142302" data-name="Path 142302" d="M617.081,425.476H49.7a1.309,1.309,0,1,1,0-2.617H617.081a1.309,1.309,0,1,1,0,2.617Z" transform="translate(-48.39 -422.859)" fill="#176a92"/>
    </g>
  </g>
</svg>
