<svg xmlns="http://www.w3.org/2000/svg" xmlns:xlink="http://www.w3.org/1999/xlink" width="555.166" height="354.223" viewBox="0 0 555.166 354.223">
  <defs>
    <linearGradient id="linear-gradient" x1="0.498" y1="-738.929" x2="0.498" y2="-755.951" gradientUnits="objectBoundingBox">
      <stop offset="0" stop-color="#dfedf2"/>
      <stop offset="1" stop-color="#e8f8ff"/>
    </linearGradient>
    <linearGradient id="linear-gradient-2" x1="0.026" y1="-939.645" x2="1.332" y2="-938.255" xlink:href="#linear-gradient"/>
    <linearGradient id="linear-gradient-3" x1="0.037" y1="-1466.102" x2="1.331" y2="-1464.725" xlink:href="#linear-gradient"/>
    <linearGradient id="linear-gradient-4" x1="0.491" y1="-1713.968" x2="0.491" y2="-1715.145" gradientUnits="objectBoundingBox">
      <stop offset="0" stop-color="#49a5f7"/>
      <stop offset="1" stop-color="#1c6ceb"/>
    </linearGradient>
    <linearGradient id="linear-gradient-5" x1="0.759" y1="-0.166" x2="0.28" y2="1.138" gradientUnits="objectBoundingBox">
      <stop offset="0" stop-color="#4e95cf"/>
      <stop offset="1" stop-color="#51b9f8"/>
    </linearGradient>
    <linearGradient id="linear-gradient-6" x1="0.499" y1="-1798.752" x2="0.499" y2="-1796.686" gradientUnits="objectBoundingBox">
      <stop offset="0" stop-color="#162959"/>
      <stop offset="1" stop-color="#0b1b38"/>
    </linearGradient>
    <linearGradient id="linear-gradient-7" x1="0.496" y1="-602.841" x2="0.496" y2="-602.144" xlink:href="#linear-gradient-6"/>
    <linearGradient id="linear-gradient-8" x1="0.45" y1="-828.865" x2="0.524" y2="-828.025" gradientUnits="objectBoundingBox">
      <stop offset="0" stop-color="#283770"/>
      <stop offset="1" stop-color="#141a5a"/>
    </linearGradient>
    <linearGradient id="linear-gradient-9" x1="0.463" y1="-1070.045" x2="2.917" y2="-1067.225" xlink:href="#linear-gradient"/>
  </defs>
  <g id="CRM_Development_section_1" transform="translate(-30 -71.4)">
    <g id="OBJECTS" transform="translate(30 71.4)">
      <g id="XMLID_99_">
        <g id="XMLID_181_">
          <path id="XMLID_226_" d="M302.426,71.4C167.5,71.4,58.1,180.5,58.1,315.063A241.752,241.752,0,0,0,84.394,425.027H520.457a242.05,242.05,0,0,0,26.294-109.964C546.655,180.5,437.352,71.4,302.426,71.4Z" transform="translate(-31.207 -71.4)" fill="#b9d7f1"/>
          <circle id="XMLID_225_" cx="18.28" cy="18.28" r="18.28" transform="translate(88.651 1.34)" fill="#80b3dc"/>
          <circle id="XMLID_97_" cx="3.828" cy="3.828" r="3.828" transform="translate(449.626 40.004)" fill="#9dbed9"/>
          <circle id="XMLID_101_" cx="3.828" cy="3.828" r="3.828" transform="translate(392.355 56.561)" fill="#fff"/>
          <circle id="XMLID_219_" cx="10.719" cy="10.719" r="10.719" transform="translate(533.728 279.648)" fill="url(#linear-gradient)"/>
          <circle id="XMLID_217_" cx="17.514" cy="17.514" r="17.514" transform="translate(485.589 149.012)" fill="#80b3dc"/>
          <circle id="XMLID_215_" cx="14.26" cy="14.26" r="14.26" transform="translate(29.955 315.441)" fill="#80b3dc"/>
          <circle id="XMLID_211_" cx="23.256" cy="23.256" r="23.256" transform="translate(0 189.399)" fill="#80b3dc"/>
          <g id="XMLID_17_" transform="translate(56.37 57.423)">
            <path id="XMLID_52_" d="M98.853,376.7H95.312v-3.541a.957.957,0,0,0-1.914,0V376.7H89.857a.957.957,0,0,0,0,1.914H93.4v3.541a.957.957,0,0,0,1.914,0v-3.541h3.541a.957.957,0,1,0,0-1.914Z" transform="translate(-88.9 -141.744)" fill="#fff"/>
            <path id="XMLID_50_" d="M530.326,138.2h-5.359v-5.359a1.436,1.436,0,0,0-2.871,0V138.2h-5.359a1.436,1.436,0,0,0,0,2.871H522.1v5.359a1.436,1.436,0,1,0,2.871,0v-5.359h5.359a1.436,1.436,0,1,0,0-2.871Z" transform="translate(-105.892 -131.4)" fill="url(#linear-gradient-2)"/>
            <path id="XMLID_51_" d="M571.453,414.7h-3.541v-3.541a.957.957,0,0,0-1.914,0V414.7h-3.541a.959.959,0,0,0-.957.957.9.9,0,0,0,.957.957H566v3.541a.957.957,0,0,0,1.914,0v-3.541h3.541a.959.959,0,0,0,.957-.957A.9.9,0,0,0,571.453,414.7Z" transform="translate(-107.876 -143.377)" fill="url(#linear-gradient-3)"/>
          </g>
        </g>
        <g id="XMLID_63_" transform="translate(270.48 27.563)">
          <path id="XMLID_297_" d="M426.786,157.928v-9.57a1.716,1.716,0,0,0-1.723-1.723h-2.488a1.536,1.536,0,0,1-1.531-1.244,31.958,31.958,0,0,0-4.307-10.336,1.73,1.73,0,0,1,.191-2.01l1.723-1.723a1.675,1.675,0,0,0,0-2.393l-6.795-6.795a1.675,1.675,0,0,0-2.393,0l-1.723,1.723a1.714,1.714,0,0,1-2.01.191,33.826,33.826,0,0,0-10.336-4.307,1.636,1.636,0,0,1-1.244-1.531v-2.488A1.716,1.716,0,0,0,392.428,114h-9.57a1.716,1.716,0,0,0-1.723,1.723v2.488a1.536,1.536,0,0,1-1.244,1.531,31.958,31.958,0,0,0-10.336,4.307,1.73,1.73,0,0,1-2.01-.191l-1.723-1.723a1.675,1.675,0,0,0-2.393,0l-6.8,6.795a1.675,1.675,0,0,0,0,2.393l1.723,1.723a1.714,1.714,0,0,1,.191,2.01,33.825,33.825,0,0,0-4.307,10.336,1.636,1.636,0,0,1-1.531,1.244h-2.488a1.716,1.716,0,0,0-1.723,1.723v9.57a1.716,1.716,0,0,0,1.723,1.723h2.488a1.536,1.536,0,0,1,1.531,1.244,31.958,31.958,0,0,0,4.307,10.336,1.73,1.73,0,0,1-.191,2.01l-1.723,1.723a1.675,1.675,0,0,0,0,2.393l6.8,6.8a1.675,1.675,0,0,0,2.393,0l1.723-1.723a1.714,1.714,0,0,1,2.01-.191,32.866,32.866,0,0,0,10.336,4.307,1.636,1.636,0,0,1,1.244,1.531v2.488a1.716,1.716,0,0,0,1.723,1.723h9.57a1.716,1.716,0,0,0,1.723-1.723v-2.488a1.536,1.536,0,0,1,1.244-1.531,32.866,32.866,0,0,0,10.336-4.307,1.73,1.73,0,0,1,2.01.191l1.723,1.723a1.675,1.675,0,0,0,2.393,0l6.795-6.8a1.675,1.675,0,0,0,0-2.393l-1.723-1.723a1.714,1.714,0,0,1-.191-2.01,32.866,32.866,0,0,0,4.307-10.336,1.636,1.636,0,0,1,1.531-1.244h2.488A1.716,1.716,0,0,0,426.786,157.928Zm-38.952,17.705a22.491,22.491,0,1,1,22.491-22.491A22.464,22.464,0,0,1,387.834,175.634Z" transform="translate(-313.376 -100.793)" fill="#60a6df"/>
          <path id="XMLID_298_" d="M356.111,125.083v-5.455a.959.959,0,0,0-.957-.957h-1.436a.919.919,0,0,1-.861-.67,21.442,21.442,0,0,0-2.393-5.934,1,1,0,0,1,.1-1.148l.957-.957a.925.925,0,0,0,0-1.34l-3.828-3.828a.925.925,0,0,0-1.34,0l-.957.957a.871.871,0,0,1-1.148.1,18.861,18.861,0,0,0-5.934-2.393.919.919,0,0,1-.67-.861v-1.436a.959.959,0,0,0-.957-.957h-5.455a.959.959,0,0,0-.957.957v1.436a.919.919,0,0,1-.67.861,21.441,21.441,0,0,0-5.934,2.393,1,1,0,0,1-1.148-.1l-.957-.957a.925.925,0,0,0-1.34,0l-3.828,3.828a.925.925,0,0,0,0,1.34l.957.957a.871.871,0,0,1,.1,1.148A18.86,18.86,0,0,0,315.054,118a.919.919,0,0,1-.861.67h-1.436a.959.959,0,0,0-.957.957v5.455a.959.959,0,0,0,.957.957h1.436a.919.919,0,0,1,.861.67,21.441,21.441,0,0,0,2.393,5.934,1,1,0,0,1-.1,1.148l-.957.957a.925.925,0,0,0,0,1.34l3.828,3.828a.925.925,0,0,0,1.34,0l.957-.957a.871.871,0,0,1,1.148-.1,17.989,17.989,0,0,0,5.934,2.393.919.919,0,0,1,.67.861v1.436a.959.959,0,0,0,.957.957h5.455a.959.959,0,0,0,.957-.957v-1.436a.919.919,0,0,1,.67-.861,21.44,21.44,0,0,0,5.934-2.393,1,1,0,0,1,1.148.1l.957.957a.925.925,0,0,0,1.34,0l3.828-3.828a.925.925,0,0,0,0-1.34l-.957-.957a.871.871,0,0,1-.1-1.148,17.989,17.989,0,0,0,2.393-5.934.919.919,0,0,1,.861-.67h1.436A1.029,1.029,0,0,0,356.111,125.083Zm-22.2,8.613A11.293,11.293,0,1,1,345.2,122.4,11.193,11.193,0,0,1,333.908,133.7Z" transform="translate(-311.8 -100.2)" fill="#60a6df"/>
        </g>
        <g id="XMLID_36_" transform="translate(118.942 79.913)">
          <path id="XMLID_20_" d="M461.863,380.571H173.411A19.789,19.789,0,0,1,153.6,360.76V174.711A19.789,19.789,0,0,1,173.411,154.9H461.863a19.789,19.789,0,0,1,19.811,19.811V360.76A19.851,19.851,0,0,1,461.863,380.571Z" transform="translate(-153.6 -154.9)" fill="#4e95cf"/>
          <path id="XMLID_255_" d="M474,175.9V343.29a5.555,5.555,0,0,1-5.551,5.551H167.551A5.555,5.555,0,0,1,162,343.29V175.9a13.275,13.275,0,0,1,13.3-13.3h285.39A13.275,13.275,0,0,1,474,175.9Z" transform="translate(-153.961 -155.231)" fill="#fff"/>
          <path id="XMLID_15_" d="M354.891,438.839H292.3l6.6-38.186,1.723-9.953h45.938l1.723,9.953Z" transform="translate(-159.558 -165.029)" fill="#4e95cf"/>
          <path id="XMLID_9_" d="M348.583,400.653H299.2l1.723-9.953h45.938Z" transform="translate(-159.855 -165.029)" fill="#4e95cf"/>
          <rect id="XMLID_57_" width="104.126" height="8.231" transform="translate(111.974 265.579)" fill="#4e95cf"/>
          <rect id="XMLID_34_" width="194.184" height="5.742" transform="translate(64.533 138.58)" fill="#4e95cf"/>
        </g>
        <g id="XMLID_25_" transform="translate(75.34 114.557)">
          <path id="XMLID_316_" d="M119.608,427.4l-1.008,6.606s5.486,1.68,7.726.56l1.792-6.382" transform="translate(-112.219 -203.397)" fill="#ffa49a"/>
          <path id="XMLID_313_" d="M155.6,425.3l.56,8.846s4.927,1.792,9.07-1.12l.112-7.278" transform="translate(-107.791 -203.648)" fill="#ffa49a"/>
          <path id="XMLID_307_" d="M156.217,432.436s-2.127,3.471-.448,9.07h23.737a4.2,4.2,0,0,0-3.695-5.039c-4.479-.9-10.637-4.367-10.637-4.367a13.831,13.831,0,0,1-3.135.784A14.682,14.682,0,0,1,156.217,432.436Z" transform="translate(-107.848 -202.834)" fill="#283770"/>
          <path id="XMLID_260_" d="M118.79,433.3a26.511,26.511,0,0,0-1.344,3.695,6.65,6.65,0,0,0-.112,4.479h13.548s1.12-3.359,0-4.815a12.459,12.459,0,0,0-2.687-1.792c-1.008-.672-1.68-1.232-1.68-1.232A28.054,28.054,0,0,1,118.79,433.3Z" transform="translate(-112.409 -202.69)" fill="#283770"/>
          <path id="XMLID_262_" d="M145.6,321.344v29.112l6.718-4.7c.672,8.286,1.9,18.475,3.135,32.471-3.135,7.726-1.12,30.456-.56,39.413.672,9.07,1.9,24.521,1.9,24.521,6.158,1.12,9.741-.224,9.741-.224s.56-12.541.9-17.691c.336-5.039,2.127-34.711,3.583-42.772.672-3.583,1.232-26.2,1.568-42.66.112-6.382-1.12-18.811-1.12-18.811Z" transform="translate(-108.988 -216.252)" fill="#222"/>
          <path id="XMLID_228_" d="M139.178,318.3a59.084,59.084,0,0,0-4.591,21.5c0,9.181-2.127,33.143-2.127,33.143a202.714,202.714,0,0,0-7.054,24.073C122.831,409,118.8,442.25,118.8,442.25s6.158,1.568,9.07.56c0,0,8.846-25.865,12.2-35.606s7.278-26.649,8.174-30.9c1.232-6.158,8.51-37.174,8.51-37.174l-.56-17.8Z" transform="translate(-112.196 -216.455)" fill="#222"/>
          <path id="XMLID_76_" d="M163.2,264.219c-1.9-1.568-2.127-2.575-2.127-2.575a14.132,14.132,0,0,1-.336-3.359c-.112-1.68-.112-3.359-.112-4.143v-.448l1.232-.9-12.429-5.6a22.394,22.394,0,0,1,.448,14.78h0a6.4,6.4,0,0,1-2.127,2.8,24.791,24.791,0,0,1-5.151,2.239s14.78,10.637,25.641-.672C168.241,266.235,164.21,265.115,163.2,264.219Z" transform="translate(-109.347 -224.965)" fill="#ffa49a"/>
          <path id="XMLID_258_" d="M153.1,251.9c.224.336,1.12,5.71,6.494,7.838-.112-1.68-.224-3.583-.224-4.367Z" transform="translate(-108.09 -224.403)" fill="#ff8189"/>
          <path id="XMLID_229_" d="M166.56,234.2a2.771,2.771,0,0,1,2.687,2.239c1.12,4.031-3.247,7.95-3.247,7.95Z" transform="translate(-106.546 -226.521)" fill="#2d2a30"/>
          <path id="XMLID_257_" d="M151.271,251.25c1.9,6.046,9.741,10.189,13.1,9.07,4.255-1.456,5.822-12.093,5.486-13.66a27.313,27.313,0,0,1-1.008-8.846c.224-3.471-3.135-8.4-10.861-7.5C150.263,231.1,143.433,237.7,151.271,251.25Z" transform="translate(-108.724 -227)" fill="#ffa49a"/>
          <path id="XMLID_253_" d="M142.159,236.588a4.429,4.429,0,0,1-1.12-1.68c-1.792-4.815,3.359-9.07,7.278-7.054a5.862,5.862,0,0,1,2.239,2.127,1.814,1.814,0,0,1,1.344,2.351h-.224a10.326,10.326,0,0,1,.224,2.8l-3.359,3.135a10.393,10.393,0,0,1-2.463-.112l.224.56C140.815,239.5,141.151,236.7,142.159,236.588Z" transform="translate(-109.578 -227.342)" fill="#2d2a30"/>
          <path id="XMLID_251_" d="M144.1,237.89a8.124,8.124,0,0,1,6.718-7.39l-2.127,3.471Z" transform="translate(-109.167 -226.964)" fill="#2d2a30"/>
          <path id="XMLID_249_" d="M143.343,247.27c.9,3.359,3.247,3.919,3.919,5.6,1.12,3.359,2.015,4.815,3.583,4.927a83.364,83.364,0,0,0-.224-8.51,4.369,4.369,0,0,1,0-2.687c.448-1.12,3.023-.448,3.023-.448,1.68.224,1.792-1.792,2.351-2.911a14.626,14.626,0,0,0,1.12-4.7c-.56-4.479,3.359-9.181.56-9.629C151.069,228.011,140.768,236.745,143.343,247.27Z" transform="translate(-109.306 -227.162)" fill="#2d2a30"/>
          <path id="XMLID_242_" d="M166.6,290.406s10.3,24.185,16.571,23.626c4.255-.448,7.95-4.591,11.2-8.286s5.822-6.83,5.822-6.83l-12.429,2.463-3.583-7.614-2.351-5.6-1.792-4.367Z" transform="translate(-106.474 -220.585)" fill="#ffa49a"/>
          <path id="XMLID_289_" d="M183.458,291.661s-2.239,3.695-10.973,6.606a40.7,40.7,0,0,1-4.367,1.232,47.682,47.682,0,0,0-1.008-6.27c-.224-.784-.448-1.68-.672-2.575-.672-2.463-1.344-5.151-2.015-7.726-1.344-5.151,3.919-15.116,3.471-18.027C173.493,267.139,183.458,291.661,183.458,291.661Z" transform="translate(-106.761 -222.847)" fill="#0271a6"/>
          <path id="XMLID_285_" d="M172.346,295.617a40.719,40.719,0,0,1-4.367,1.232,47.684,47.684,0,0,0-1.008-6.27c-.224-.784-.448-1.68-.672-2.575l5.6-1.9A58.037,58.037,0,0,0,172.346,295.617Z" transform="translate(-106.51 -220.309)" opacity="0.5" fill="url(#linear-gradient-4)"/>
          <path id="XMLID_269_" d="M172.85,328.078c-17.915,5.6-30.12-.448-35.718-3.135,0-.224,5.6-13.212,5.486-20.714-.112-24.185-6.606-32.135-6.718-33.255-.112-1.791,9.853-7.166,9.853-7.166a29.476,29.476,0,0,0,8.622,4.7c4.815,1.456,10.077.448,10.637-5.71a46.138,46.138,0,0,1,6.158,2.239c1.792,5.263,4.143,16.571,4.143,23.849C175.425,290.232,170.163,304.341,172.85,328.078Z" transform="translate(-110.149 -223.098)" fill="#0271a6"/>
          <path id="XMLID_71_" d="M163.4,331.812,125.1,346.368a1.787,1.787,0,0,1-2.351-1.12l-9.741-25.529a1.787,1.787,0,0,1,1.12-2.351l38.294-14.556a1.787,1.787,0,0,1,2.351,1.12l9.741,25.529A1.869,1.869,0,0,1,163.4,331.812Z" transform="translate(-112.902 -218.322)" fill="url(#linear-gradient-5)"/>
          <path id="XMLID_100_" d="M149.032,337.35c-.224-.56-1.792-2.015-2.239-2.687a11.466,11.466,0,0,0-2.8-2.127,19.715,19.715,0,0,1-2.687-2.687h0c-.336-1.68-.784-3.807-1.344-6.158a184.273,184.273,0,0,1-3.023-19.259c1.344-4.031,4.7-15.116,4.7-15.116L129.773,284.5s-4.031,14.668-4.255,16.907c0,.336-.112.56-.112.9-.56,3.807,2.8,14.444,6.83,22.73,1.568,3.247,3.023,6.158,4.143,8.4h0c.224,1.68,0,5.151.9,6.494.784,1.12,1.68,2.463,2.463,2.8a2.132,2.132,0,0,0,2.015-.112c1.008,0,1.68-.336,1.792-.784,1.232-.112,1.232-.224,1.792-1.008,1.344,0,1.9-.672,1.568-1.456-.224-.56-1.68-2.911-1.68-2.911a9.825,9.825,0,0,0,2.575,1.456C148.472,338.133,149.144,337.909,149.032,337.35Z" transform="translate(-111.412 -220.501)" fill="#ffa49a"/>
          <path id="XMLID_213_" d="M126.6,294.816c2.015,1.344,11.757,4.031,14.444,3.359a131.392,131.392,0,0,0,4.7-14.332c2.239-9.069,1.344-20.043,1.344-20.043a26.39,26.39,0,0,0-15.9,17.243C130.071,284.626,128.28,289.777,126.6,294.816Z" transform="translate(-111.262 -222.978)" fill="#0271a6"/>
          <path id="XMLID_133_" d="M153.719,229.146s-3.247,5.263-1.568,9.405c1.344.56,2.911,3.695,2.911,6.942,9.07.672,14.556-4.927,14.22-8.734C168.5,226.01,153.719,229.146,153.719,229.146Z" transform="translate(-108.261 -227.177)" fill="#2d2a30"/>
          <path id="XMLID_93_" d="M153.04,244.726s-.784-2.911-2.911-1.9c-2.351,1.008-.672,4.479.112,5.822a1.314,1.314,0,0,0,2.463,0" transform="translate(-108.59 -225.515)" fill="#ffa49a"/>
          <path id="XMLID_91_" d="M178.633,307.224h26.985a1.312,1.312,0,0,0,1.232-1.008l6.83-39.861a1.241,1.241,0,0,0-1.232-1.456H185.463a1.312,1.312,0,0,0-1.232,1.008l-6.83,39.861A1.241,1.241,0,0,0,178.633,307.224Z" transform="translate(-105.183 -222.847)" fill="#4e95cf"/>
          <path id="XMLID_29_" d="M210.14,271.5a9.923,9.923,0,0,1,.9,3.471c0,1.68-1.232,4.7-2.463,5.375a8.338,8.338,0,0,1-4.255.336,1.089,1.089,0,0,1-.672-.672,15.343,15.343,0,0,1-1.792-.224.861.861,0,0,1-.448-1.232,5.044,5.044,0,0,1-1.568-.224,1.171,1.171,0,0,1,.112-1.792,3.658,3.658,0,0,1,1.456-.672,1.954,1.954,0,0,1,.784-1.344,11.726,11.726,0,0,1,3.919-1.008C207.341,273.292,209.468,273.292,210.14,271.5Z" transform="translate(-102.539 -222.057)" fill="#ffa49a"/>
        </g>
        <g id="XMLID_263_" transform="translate(383.817 114.557)">
          <path id="XMLID_450_" d="M537.444,435.8l-1.544-6.4c2.647.441,6.947-.882,8.6-1.1l-.221,7.5A7.036,7.036,0,0,1,537.444,435.8Z" transform="translate(-459.831 -203.081)" fill="#f3b2ad"/>
          <g id="XMLID_512_" transform="translate(35.452 104.686)">
            <path id="XMLID_515_" d="M502.7,319.1Z" transform="translate(-498.696 -318.99)" fill="#203647"/>
            <path id="XMLID_514_" d="M506.731,435.552,506.4,430.7a27.352,27.352,0,0,0,7.389,0l-.221,4.962A7.59,7.59,0,0,1,506.731,435.552Z" transform="translate(-498.315 -307.521)" fill="#f3b2ad"/>
            <path id="XMLID_442_" d="M548.948,440.745c-1.764.992-7.058,1.875-9.594.992,0,0-11.358-51.389-12.792-57.675-1.875-8.271-5.183-18.2-7.168-27.238,0,4.632-.441,10.7-.882,15.88h0c-.551,5.955-1.1,10.7-1.1,10.7.441,3.749,1.213,22.055-.331,33.634-.992,7.5-.992,24.923-.992,24.923a26.242,26.242,0,0,1-9.925.11s-6.176-57.344-6.506-61.865c-1.1-18.747-.331-60.432-.221-61.2,0,.331,2.206,2.206,8.822,1.764,9.153-.551,26.356-1.764,26.356-1.764,5.073,2.867,5.955,17.424,5.845,24.481-.221,3.308,1.544,26.025,2.647,39.038,3.308,7.83,3.308,21.173,3.97,30.988C548.066,428.946,548.948,440.745,548.948,440.745Z" transform="translate(-499.069 -319)" fill="#222"/>
          </g>
          <path id="XMLID_385_" d="M496.776,281.8l-3.419,17.755c-4.3-3.419-10.917-8.6-15.328-11.138l-3.529,2.1a133.29,133.29,0,0,0,9.153,11.028,120.723,120.723,0,0,0,10.7,10.7h0c.992.882,2.316,1.213,4.411.11,6.727-3.639,10.587-25.253,10.587-25.253Z" transform="translate(-466.141 -218.137)" fill="#f3b2ad"/>
          <path id="XMLID_509_" d="M491,293.746a26.92,26.92,0,0,0,6.947,3.2,32.992,32.992,0,0,0,3.529.882,12.274,12.274,0,0,0,1.875.221h2.757c.331,0,.551-.11.882-.11l2.316-9.594,1.764-7.058L499.16,267.5S496.073,272.793,491,293.746Z" transform="translate(-464.446 -219.606)" fill="#e5a940"/>
          <g id="XMLID_459_" transform="translate(37.956)">
            <path id="XMLID_468_" d="M502.628,233h2.206s.11.662.221,1.434l2.536,1.544v4.08s.331,3.639-2.426,2.867c-1.654-.551-1.985-3.639-1.875-6.176C501.635,235.536,502.628,233,502.628,233Z" transform="translate(-501.237 -223.152)" fill="url(#linear-gradient-6)"/>
            <path id="XMLID_467_" d="M523.191,261.941c-.551-1.213-.993-16.541-.993-16.541l-6.837,5.734-3.2,2.647a47.112,47.112,0,0,1-1.434,5.293,6.739,6.739,0,0,0-.221,3.2,5.027,5.027,0,0,0,4.632,2.316C521.427,264.147,523.191,261.941,523.191,261.941Z" transform="translate(-500.407 -221.877)" fill="#f3b2ad"/>
            <path id="XMLID_466_" d="M519.522,250.6s-2.757,6.065-8.822,8.05c.441-1.654.992-3.749,1.434-5.293l3.2-2.757Z" transform="translate(-500.377 -221.343)" fill="#d76b66" opacity="0.32"/>
            <path id="XMLID_465_" d="M504.416,239.425s-1.323,14.336,3.308,16.983c2.536,1.434,8.05.882,11.579-2.426a14.079,14.079,0,0,0,3.2-5.4c1.213-3.2,2.978-9.263,1.875-13.123C522.722,229.941,505.96,226.633,504.416,239.425Z" transform="translate(-501.041 -223.401)" fill="#f3b2ad"/>
            <path id="XMLID_464_" d="M506.479,226.529c2.757-.551,2.977-2.757,6.065-2.426,2.977.331,3.419,1.875,4.852,2.426s3.088.11,4.962,1.213a4.119,4.119,0,0,1,1.764,2.757c5.624.882,5.073,4.742,3.749,9.043-.992,3.2.551,4.191-.662,6.617-.551.992-1.875,2.536-2.1,3.86-.441,2.206-.662,2.977-1.654,3.97-.441-2.316-1.213-4.08-1.875-7.94a1.594,1.594,0,0,0-.221-.772c-2.1-.221-3.419.221-3.86-1.213a25.255,25.255,0,0,1-.331-4.3c-4.852.331-6.065-1.654-6.727-2.1-5.183,1.1-7.168.662-8.491-1.213-1.323-1.985-.11-3.2-.11-3.749h0C501.3,229.838,503.722,227.081,506.479,226.529Z" transform="translate(-501.339 -224.07)" fill="url(#linear-gradient-7)"/>
          </g>
          <path id="XMLID_458_" d="M499.893,328.074c1.985,2.536,9.925,4.632,15.77,4.632,6.617,0,19.188-2.426,21.063-4.962.221-.221,1.434-1.434-.551-8.712a70.792,70.792,0,0,1-1.323-7.719c-.551-8.712,1.985-20.842,2.867-23.489,2.206-6.617,4.411-12.02,3.529-17.313a21.113,21.113,0,0,0-2.647-4.191c-2.757-2.977-12.13-7.389-14.336-7.719a9.26,9.26,0,0,1-7.278,4.411c-6.286.441-5.073-4.411-5.073-4.411-3.749,1.875-8.381,4.19-11.579,7.5-2.647,2.647-4.632,8.822-2.978,20.181.551,3.529,1.434,16.872,1.875,27.569C499.562,320.906,499.121,326.972,499.893,328.074Z" transform="translate(-463.855 -220.521)" fill="#e5a940"/>
          <path id="XMLID_456_" d="M527.2,280.791s3.088,7.83,6.4,14.226c1.1,2.206,3.308,8.932,4.3,9.594,2.977,1.985,7.94-2.316,9.925-4.3a67.314,67.314,0,0,0-2.316-9.925c-2.426-8.05-6.065-18.085-6.065-18.085Z" transform="translate(-460.726 -219.113)" fill="#f3b2ad"/>
          <path id="XMLID_455_" d="M525.671,266.874c1.654-2.1,6.947-5.073,10.587-.662a66.267,66.267,0,0,1,6.286,12.572c1.985,5.624,3.308,10.035,3.308,10.035a67.928,67.928,0,0,1-7.389,3.2c-3.2,1.1-6.837,1.875-9.594,1.213,0,0-3.749-9.925-4.632-15.328C524.127,278.012,522.8,270.624,525.671,266.874Z" transform="translate(-461.071 -219.973)" fill="#e5a940"/>
          <path id="XMLID_403_" d="M549.772,300.08s-17.644-7.719-20.181-9.153c-3.86-2.206-6.175-3.749-7.5-4.632h0s-2.978-5.734-3.749-7.058c-.772-1.434-3.639-1.764-5.514-2.978-1.985-1.213-3.419-3.088-4.3-2.757s.331,2.867,1.323,3.639,3.088,2.426,3.088,2.426a6.522,6.522,0,0,0-.992,1.985c0,.551-.882,1.213-.882,2.206s-.551,1.544-.331,2.536a13.113,13.113,0,0,0,1.654,3.529.737.737,0,0,0,.992-.221,2.465,2.465,0,0,0,.331-1.1,7.825,7.825,0,0,0,4.742,2.757H519c6.175,7.609,12.02,13.233,22.5,18.968C548.89,314.306,550.985,304.271,549.772,300.08Z" transform="translate(-462.676 -218.993)" fill="#f3b2ad"/>
          <path id="XMLID_451_" d="M503.247,434.957s3.419-2.757,4.521-2.757c.882,0,1.323.551,2.1.882a3.4,3.4,0,0,0,1.213.221c2.867,0,3.97-.772,3.97-.772,2.757,4.962,1.1,8.932,1.1,8.932H494.2C493.542,436.28,500.49,435.839,503.247,434.957Z" transform="translate(-464.121 -202.681)" fill="#283770"/>
          <path id="XMLID_449_" d="M535.073,433.891a6.267,6.267,0,0,1,2.536-1.544,7.729,7.729,0,0,1,6.065.221,5.51,5.51,0,0,0,1.213-.11,5.276,5.276,0,0,0,1.1,1.875c4.191,4.411,1.764,7.168,1.764,7.168h-12.02C529.89,440.729,532.316,434.774,535.073,433.891Z" transform="translate(-460.217 -202.718)" fill="#283770"/>
          <g id="XMLID_421_" transform="translate(55.437 19.139)">
            <path id="XMLID_433_" d="M518.193,248.9c3.308,1.764,5.514-6.506,2.316-7.389-2.426-.662-2.977,2.867-2.977,2.867S516.429,247.9,518.193,248.9Z" transform="translate(-517.191 -241.425)" fill="#f3b2ad"/>
          </g>
          <path id="XMLID_423_" d="M518.26,354.911c0,1.764,0,3.749-.11,5.845l-5.293-18.306A34.718,34.718,0,0,0,510.1,338.7l4.962,1.985C515.724,344.655,518.26,354.911,518.26,354.911Z" transform="translate(-462.483 -212.289)" opacity="0.5" fill="url(#linear-gradient-8)"/>
          <path id="XMLID_240_" d="M509.906,303.619H485.535a3.52,3.52,0,0,1-3.088-1.764l-15.328-27.569a1.314,1.314,0,0,1,1.213-1.985H492.7a3.52,3.52,0,0,1,3.088,1.764l15.328,27.569A1.314,1.314,0,0,1,509.906,303.619Z" transform="translate(-466.92 -219.113)" fill="#4e95cf"/>
          <path id="XMLID_382_" d="M479.667,289.363c1.1-.11.662-1.213-.11-1.654a4.325,4.325,0,0,0-1.434-.551h0c2.206.441,1.875-1.1.882-1.654a22.473,22.473,0,0,0-3.86-1.1l-3.088-1.764-1.434-2.536s-.662,3.2.11,4.521a9.245,9.245,0,0,0,0,1.764c0,.11.221.221.331.331.11.882.221,1.764.662,1.985.11.11.221.11.331.221a1.793,1.793,0,0,0,.551,1.213,10.363,10.363,0,0,0,2.647,1.213s1.434.221,3.308.551c1.544.221,1.544-.441,1.1-.992C480.77,290.907,480.439,289.915,479.667,289.363Z" transform="translate(-466.567 -218.311)" fill="#f3b2ad"/>
        </g>
        <g id="XMLID_2_" transform="translate(58.475 65.079)">
          <g id="XMLID_10_" transform="translate(178.297)">
            <path id="XMLID_12_" d="M283.525,146.2H278.07a.654.654,0,0,1-.67-.67V140.07a.654.654,0,0,1,.67-.67h5.455a.654.654,0,0,1,.67.67v5.455A.806.806,0,0,1,283.525,146.2Z" transform="translate(-277.4 -139.4)" fill="#60a6df"/>
            <path id="XMLID_13_" d="M292.925,146.2H287.47a.654.654,0,0,1-.67-.67V140.07a.654.654,0,0,1,.67-.67h5.455a.654.654,0,0,1,.67.67v5.455A.806.806,0,0,1,292.925,146.2Z" transform="translate(-277.804 -139.4)" fill="#60a6df"/>
            <path id="XMLID_14_" d="M302.325,146.2H296.87a.654.654,0,0,1-.67-.67V140.07a.654.654,0,0,1,.67-.67h5.455a.654.654,0,0,1,.67.67v5.455A.806.806,0,0,1,302.325,146.2Z" transform="translate(-278.208 -139.4)" fill="#60a6df"/>
          </g>
          <g id="XMLID_18_" transform="translate(0 200.5)">
            <path id="XMLID_28_" d="M97.225,355.7H91.77a.654.654,0,0,1-.67-.67V349.57a.654.654,0,0,1,.67-.67h5.455a.654.654,0,0,1,.67.67v5.455C97.8,355.5,97.512,355.7,97.225,355.7Z" transform="translate(-91.1 -348.9)" fill="#60a6df"/>
            <path id="XMLID_27_" d="M106.625,355.7H101.17a.654.654,0,0,1-.67-.67V349.57a.654.654,0,0,1,.67-.67h5.455a.654.654,0,0,1,.67.67v5.455C107.2,355.5,106.912,355.7,106.625,355.7Z" transform="translate(-91.504 -348.9)" fill="#60a6df"/>
            <path id="XMLID_21_" d="M116.025,355.7H110.57a.654.654,0,0,1-.67-.67V349.57a.654.654,0,0,1,.67-.67h5.455a.654.654,0,0,1,.67.67v5.455C116.6,355.5,116.312,355.7,116.025,355.7Z" transform="translate(-91.908 -348.9)" fill="#60a6df"/>
          </g>
          <g id="XMLID_30_" transform="translate(255.722 256.2)">
            <path id="XMLID_33_" d="M362.224,411.407h-3.541a.412.412,0,0,1-.383-.383v-3.541a.412.412,0,0,1,.383-.383h3.541a.412.412,0,0,1,.383.383v3.541A.351.351,0,0,1,362.224,411.407Z" transform="translate(-358.3 -407.1)" fill="#60a6df"/>
            <path id="XMLID_32_" d="M368.224,411.407h-3.541a.412.412,0,0,1-.383-.383v-3.541a.412.412,0,0,1,.383-.383h3.541a.412.412,0,0,1,.383.383v3.541A.351.351,0,0,1,368.224,411.407Z" transform="translate(-358.558 -407.1)" fill="#60a6df"/>
            <path id="XMLID_31_" d="M374.224,411.407h-3.541a.412.412,0,0,1-.383-.383v-3.541a.412.412,0,0,1,.383-.383h3.541a.412.412,0,0,1,.383.383v3.541C374.7,411.311,374.511,411.407,374.224,411.407Z" transform="translate(-358.816 -407.1)" fill="#60a6df"/>
          </g>
        </g>
        <g id="XMLID_58_" transform="translate(70.979 58.678)">
          <path id="XMLID_47_" d="M255.707,196.356a4.341,4.341,0,0,0-5.072-.287,5.9,5.9,0,0,0-2.01,1.914,7.273,7.273,0,0,0-2.01-1.914,4.344,4.344,0,0,0-5.072.287c-3.924,3.445,1.914,11.772,7.082,13.59C253.7,208.128,259.63,199.9,255.707,196.356Z" transform="translate(-109.586 -135.404)" fill="url(#linear-gradient-9)"/>
        </g>
        <line id="XMLID_26_" x2="498.509" transform="translate(33.784 353.723)" fill="none" stroke="#232230" stroke-linecap="round" stroke-linejoin="round" stroke-miterlimit="10" stroke-width="1"/>
      </g>
    </g>
    <g id="TEXTS" transform="translate(217.475 187.828)">
      <g id="XMLID_1_">
        <text id="CRM" transform="translate(0 90)" fill="#4e95cf" font-size="83" font-family="SegoeUI-Bold, Segoe UI" font-weight="700"><tspan x="0" y="0">CRM</tspan></text>
      </g>
    </g>
  </g>
</svg>
