<svg xmlns="http://www.w3.org/2000/svg" width="572" height="459.5" viewBox="0 0 572 459.5">
  <g id="CRM_Development_about" transform="translate(-298.5 -3042)">
    <g id="Group_313072" data-name="Group 313072" transform="translate(319.616 2986.208)">
      <g id="Group_312989" data-name="Group 312989" transform="translate(16.383 55.792)">
        <circle id="Ellipse_4953" data-name="Ellipse 4953" cx="11.953" cy="11.953" r="11.953" transform="translate(420.43 44.295) rotate(-72.921)" fill="#e6edff"/>
        <path id="Path_142849" data-name="Path 142849" d="M510.82,372.418a46.557,46.557,0,0,0-2.935-8.37c-9.637-20.807-32.509-26.784-49.291-39-7.16-5.212-12.918-13.074-13.446-21.915-.628-10.5,5.919-19.858,11.236-28.931,6.794-11.593,12.036-24.409,12.806-37.824s-3.392-27.512-13.1-36.8c-11.19-10.713-27.835-13.6-43.312-12.945-39.386,1.672-75.708,18.235-106.911-15.937-22.11-24.214-31.427-64.934-54.28-88.99-36.273-38.181-99-31.7-138.375,3.3C77.636,116.639,66.1,166.956,78.783,212.1c8.188,29.147,18.034,58.763-2.266,86.251-17.37,23.523-44.852,39.208-55,67.844-9.84,27.764-6.293,62.1,17.284,81.978,12.164,10.256,27.751,15.538,43.289,18.966.115.025.229.048.343.072H397.985C447.732,459.716,526.594,435.951,510.82,372.418Z" transform="translate(-16.383 -55.792)" fill="#bfd2ff"/>
        <circle id="Ellipse_4954" data-name="Ellipse 4954" cx="23.548" cy="23.548" r="23.548" transform="translate(374.39 95.161) rotate(-67.66)" fill="#bfd2ff"/>
        <path id="Path_142850" data-name="Path 142850" d="M70.679,255.283a14.3,14.3,0,1,1-14.3-14.3A14.3,14.3,0,0,1,70.679,255.283Z" transform="translate(-14.837 -44.647)" fill="#bfd2ff"/>
      </g>
      <path id="Path_142851" data-name="Path 142851" d="M132.143,441.182q7.143,1.438,14.319,2.712h5Z" transform="translate(6.966 23.192)" fill="#bfd2ff"/>
      <path id="Path_142852" data-name="Path 142852" d="M467.249,286.4a10.983,10.983,0,0,0-2.826-4.85l-2.224-1.719a10.95,10.95,0,0,0-5.547-1.5h-.544a11.3,11.3,0,0,0-10.99,10.99q.2,1.461.392,2.922a10.989,10.989,0,0,0,2.826,4.849l2.224,1.719a10.94,10.94,0,0,0,5.547,1.5h.544a11.3,11.3,0,0,0,10.99-10.991Q467.445,287.86,467.249,286.4Z" transform="translate(25.8 13.392)" fill="#e6edff"/>
      <g id="Group_312990" data-name="Group 312990" transform="translate(82.003 300.373)">
        <rect id="Rectangle_164353" data-name="Rectangle 164353" width="271.148" height="161.243" rx="9.786" transform="translate(20.842 0) rotate(0.273)" fill="#176a92"/>
        <path id="Path_142853" data-name="Path 142853" d="M227.11,290.235a1.24,1.24,0,1,1-1.235-1.247A1.24,1.24,0,0,1,227.11,290.235Z" transform="translate(-69.471 -286.339)" fill="#333842"/>
        <path id="Path_142854" data-name="Path 142854" d="M389.566,440.166h0L78.278,438.681h0a12.942,12.942,0,0,0,12.88,13l285.4,1.362A12.943,12.943,0,0,0,389.566,440.166Z" transform="translate(-78.278 -277.331)" fill="#176a92"/>
        <path id="Path_142855" data-name="Path 142855" d="M353.393,443.53l-241.917-1.155a8.107,8.107,0,0,1-8.068-8.145l.638-133.633a8.107,8.107,0,0,1,8.145-8.068l241.916,1.155a8.106,8.106,0,0,1,8.068,8.144l-.637,133.634A8.107,8.107,0,0,1,353.393,443.53Z" transform="translate(-76.766 -286.126)" fill="#fefeff"/>
      </g>
      <g id="Group_313016" data-name="Group 313016" transform="translate(45.992 69.375)">
        <g id="Group_312995" data-name="Group 312995" transform="translate(260.829 16)">
          <g id="Group_312994" data-name="Group 312994">
            <g id="Group_312993" data-name="Group 312993">
              <path id="Path_142857" data-name="Path 142857" d="M291.214,68.874a25.925,25.925,0,0,0-4.808,1.444,4.148,4.148,0,0,1,.277.356,4.289,4.289,0,1,1-7.273,4.55,4.126,4.126,0,0,1-.217-.44,26.176,26.176,0,0,0-3.458,3.664,4.54,4.54,0,0,1,.444.181,4.29,4.29,0,0,1-4.024,7.577,4.2,4.2,0,0,1-.453-.3,25.81,25.81,0,0,0-1.175,4.94,4.173,4.173,0,0,1,.532-.073,4.292,4.292,0,1,1-.305,8.534,25.854,25.854,0,0,0,1.461,4.914,4.415,4.415,0,0,1,.481-.373,4.29,4.29,0,0,1,4.55,7.274,4.211,4.211,0,0,1-.593.293,26.133,26.133,0,0,0,3.751,3.544,4.247,4.247,0,0,1,.247-.605,4.29,4.29,0,1,1,7.577,4.023,4.221,4.221,0,0,1-.39.585,25.824,25.824,0,0,0,5.048,1.183,4.29,4.29,0,1,1,8.436-.268,25.809,25.809,0,0,0,4.963-1.507,4.241,4.241,0,0,1-.416-.535,4.291,4.291,0,1,1,7.576-3.939,26.141,26.141,0,0,0,3.519-3.776,4.144,4.144,0,0,1-.589-.241A4.29,4.29,0,0,1,320.4,102.3a4.351,4.351,0,0,1,.528.352,25.835,25.835,0,0,0,1.142-5,4.094,4.094,0,0,1-.575.078,4.29,4.29,0,0,1-.3-8.574,4.147,4.147,0,0,1,.565.037,25.684,25.684,0,0,0-1.488-4.857,4.063,4.063,0,0,1-.41.318,4.293,4.293,0,1,1-4.092-7.5,26.068,26.068,0,0,0-3.687-3.436,4.177,4.177,0,0,1-.176.431,4.29,4.29,0,0,1-7.577-4.024,4.438,4.438,0,0,1,.264-.4A25.856,25.856,0,0,0,299.7,68.6a4.137,4.137,0,0,1,.059.434,4.29,4.29,0,1,1-8.574.3A4.535,4.535,0,0,1,291.214,68.874Zm4.433,8.031A17.481,17.481,0,1,1,278.8,94.994,17.481,17.481,0,0,1,295.647,76.905Z" transform="translate(-270.527 -68.604)" fill="#bfd2ff"/>
            </g>
          </g>
        </g>
        <g id="Group_312997" data-name="Group 312997" transform="translate(0 10.903)">
          <rect id="Rectangle_164364" data-name="Rectangle 164364" width="120.305" height="99.866" transform="translate(99.866 0) rotate(90)" fill="#7dafd8"/>
          <g id="Group_312996" data-name="Group 312996" transform="translate(13.723 16.777)">
            <rect id="Rectangle_164365" data-name="Rectangle 164365" width="11.142" height="26.361" transform="translate(6.557 30.704)" fill="#0271a6"/>
            <rect id="Rectangle_164366" data-name="Rectangle 164366" width="11.142" height="39.262" transform="translate(23.781 17.804)" fill="#0271a6"/>
            <rect id="Rectangle_164367" data-name="Rectangle 164367" width="11.142" height="57.065" transform="translate(41.006)" fill="#0271a6"/>
            <rect id="Rectangle_164368" data-name="Rectangle 164368" width="11.142" height="32.107" transform="translate(58.23 24.958)" fill="#0271a6"/>
            <path id="Path_142858" data-name="Path 142858" d="M57.255,95.717V152H130.5" transform="translate(-57.255 -94.653)" fill="none" stroke="#333842" stroke-linecap="round" stroke-miterlimit="10" stroke-width="0.75"/>
          </g>
          <rect id="Rectangle_164369" data-name="Rectangle 164369" width="74.988" height="7.181" transform="translate(12.279 84.858)" fill="#0271a6"/>
          <rect id="Rectangle_164370" data-name="Rectangle 164370" width="74.988" height="7.181" transform="translate(12.279 98.024)" fill="#0271a6"/>
        </g>
        <g id="Group_313009" data-name="Group 313009" transform="translate(76.403 255.834)">
          <g id="Group_313006" data-name="Group 313006" transform="translate(0.399 42.99)">
            <path id="Path_143085" data-name="Path 143085" d="M34.336,0A34.336,34.336,0,1,1,0,34.336,34.336,34.336,0,0,1,34.336,0Z" transform="translate(0 10.89) rotate(-9.125)" fill="#a1cbee"/>
            <path id="Path_142864" data-name="Path 142864" d="M154.708,388.608l-26.779-9.34A28.361,28.361,0,0,0,169.3,412.927Z" transform="translate(-116.176 -348.732)" fill="#0271a6"/>
            <path id="Path_142865" data-name="Path 142865" d="M154.484,387.579l14.78,24.2a28.361,28.361,0,0,0,13.581-24.2Z" transform="translate(-114.483 -348.232)" fill="#4e95cf"/>
            <path id="Path_142866" data-name="Path 142866" d="M154.637,387.475,183,387.084a28.363,28.363,0,0,0-9.166-20.489Z" transform="translate(-114.474 -349.495)" fill="#4e95cf"/>
          </g>
          <g id="Group_313147" data-name="Group 313147" transform="translate(-6.601 -113.01)">
            <path id="Path_143085-2" data-name="Path 143085" d="M34.336,0A34.336,34.336,0,1,1,0,34.336,34.336,34.336,0,0,1,34.336,0Z" transform="translate(0 10.89) rotate(-9.125)" fill="#7dafd8"/>
            <path id="Path_142864-2" data-name="Path 142864" d="M154.708,388.608l-26.779-9.34A28.361,28.361,0,0,0,169.3,412.927Z" transform="translate(-116.176 -348.732)" fill="#0271a6"/>
            <path id="Path_142865-2" data-name="Path 142865" d="M154.484,387.579l14.78,24.2a28.361,28.361,0,0,0,13.581-24.2Z" transform="translate(-114.483 -348.232)" fill="#4e95cf"/>
            <path id="Path_142866-2" data-name="Path 142866" d="M154.637,387.475,183,387.084a28.363,28.363,0,0,0-9.166-20.489Z" transform="translate(-114.474 -349.495)" fill="#4e95cf"/>
          </g>
          <g id="Group_313007" data-name="Group 313007">
            <rect id="Rectangle_164371" data-name="Rectangle 164371" width="79.491" height="4.401" transform="translate(0 26.079)" fill="#60a6df"/>
            <rect id="Rectangle_164372" data-name="Rectangle 164372" width="79.491" height="4.401" transform="translate(0 17.386)" fill="#60a6df"/>
            <rect id="Rectangle_164373" data-name="Rectangle 164373" width="79.491" height="4.401" transform="translate(0 8.693)" fill="#60a6df"/>
            <rect id="Rectangle_164374" data-name="Rectangle 164374" width="79.491" height="4.401" fill="#60a6df"/>
            <rect id="Rectangle_164375" data-name="Rectangle 164375" width="79.491" height="4.401" transform="translate(0 34.147)" fill="#60a6df"/>
          </g>
          <g id="Group_313008" data-name="Group 313008" transform="translate(97.068 101.654)">
            <rect id="Rectangle_164376" data-name="Rectangle 164376" width="137.816" height="4.401" transform="translate(0 17.386)" fill="#4e95cf"/>
            <rect id="Rectangle_164377" data-name="Rectangle 164377" width="137.816" height="4.401" transform="translate(0 8.693)" fill="#4e95cf"/>
            <rect id="Rectangle_164378" data-name="Rectangle 164378" width="137.816" height="4.401" fill="#4e95cf"/>
          </g>
        </g>
        <g id="Group_313015" data-name="Group 313015" transform="translate(173.228 81.208)">
          <rect id="Rectangle_164379" data-name="Rectangle 164379" width="175.975" height="265.584" transform="translate(0)" fill="#7dafd8"/>
          <g id="Group_313014" data-name="Group 313014" transform="translate(18.009 18.672)">
            <g id="Group_313011" data-name="Group 313011" transform="translate(0 42.193)">
              <rect id="Rectangle_164380" data-name="Rectangle 164380" width="12.516" height="52.703" transform="translate(37.277 67.071)" fill="#0271a6"/>
              <rect id="Rectangle_164381" data-name="Rectangle 164381" width="12.516" height="78.495" transform="translate(91.057 41.28)" fill="#0271a6"/>
              <rect id="Rectangle_164382" data-name="Rectangle 164382" width="12.515" height="114.09" transform="translate(117.947 5.685)" fill="#0271a6"/>
              <path id="Path_142870" data-name="Path 142870" d="M232.689,265.3c27.693-7.239,78.934-34.466,100.261-59.932" transform="translate(-224.212 -202.446)" fill="none" stroke="#333842" stroke-linecap="round" stroke-miterlimit="10" stroke-width="0.75"/>
              <rect id="Rectangle_164383" data-name="Rectangle 164383" width="12.515" height="64.191" transform="translate(64.167 55.584)" fill="#0271a6"/>
              <rect id="Rectangle_164384" data-name="Rectangle 164384" width="12.516" height="46.606" transform="translate(10.388 73.169)" fill="#0271a6"/>
              <path id="Path_142871" data-name="Path 142871" d="M366.4,322.4h-141.7V202.612" transform="translate(-224.693 -202.612)" fill="none" stroke="#333842" stroke-linecap="round" stroke-miterlimit="10" stroke-width="0.75"/>
            </g>
            <g id="Group_313013" data-name="Group 313013">
              <g id="Group_313012" data-name="Group 313012" transform="translate(0.019)">
                <rect id="Rectangle_164385" data-name="Rectangle 164385" width="143.426" height="8.64" fill="#bfd2ff"/>
                <rect id="Rectangle_164386" data-name="Rectangle 164386" width="82.778" height="8.64" transform="translate(30.324 13.961)" fill="#bfd2ff"/>
              </g>
              <rect id="Rectangle_164387" data-name="Rectangle 164387" width="143.463" height="7.942" transform="translate(0 173.052)" fill="#bfd2ff"/>
              <rect id="Rectangle_164388" data-name="Rectangle 164388" width="143.463" height="7.942" transform="translate(0 187.613)" fill="#bfd2ff"/>
              <rect id="Rectangle_164389" data-name="Rectangle 164389" width="143.463" height="7.942" transform="translate(0 202.173)" fill="#bfd2ff"/>
              <rect id="Rectangle_164390" data-name="Rectangle 164390" width="63.704" height="7.942" transform="translate(0 217.908)" fill="#bfd2ff"/>
            </g>
          </g>
        </g>
      </g>
      <g id="Group_313038" data-name="Group 313038" transform="translate(1.514 204.281)">
        <g id="Group_313023" data-name="Group 313023" transform="translate(0 110.305)">
          <g id="Group_313019" data-name="Group 313019">
            <path id="Path_142872" data-name="Path 142872" d="M376.464,457.993c3.536-.355,7.034-1.042,10.565-1.4,2.983-.3,5.977-.474,8.947-.913a26.408,26.408,0,0,0,6.3-1.576c1.274-.532.456-3.873.272-4.805a30.506,30.506,0,0,1-.337-6.91c-3.392-.063-6.789-.129-10.173-.272a4.6,4.6,0,0,0-1.869.18,6.231,6.231,0,0,0-1.991,1.644c-2.661,2.735-6.144,4.221-9.416,5.969s-6.568,4-8.226,7.569a1.923,1.923,0,0,0-.221.914Q373.394,458.3,376.464,457.993Z" transform="translate(-370.313 -259.275)" fill="#333842"/>
            <g id="Group_313018" data-name="Group 313018" transform="translate(18.381)">
              <g id="Group_313017" data-name="Group 313017">
                <path id="Path_142873" data-name="Path 142873" d="M430.224,337.377l-.106-.129a16.093,16.093,0,0,0-16.636-5.307c-15.4,4.554-15.426,28.219-17.024,42.1q-2.533,22.017-5.267,44c-3.462,27.854-5.8,68.5-9.743,96.278,2.357,1.314,4.65,1.449,7.331,1.783,4.655.581,6.205.157,7.725-1.015,4.536-25.256,14.881-62.632,20.046-87.741,2.715-13.2,4.711-19.579,7.6-32.734,2.157-9.825,2.968-19.962,5.594-29.673,1.193-4.419,4.186-8.566,4.688-12.976A20.1,20.1,0,0,0,430.224,337.377Z" transform="translate(-381.448 -331.345)" fill="#222"/>
              </g>
            </g>
            <line id="Line_957" data-name="Line 957" x1="5.872" y1="1.314" transform="translate(43.112 114.376)" fill="none" stroke="#333842" stroke-linecap="round" stroke-linejoin="round" stroke-width="0.75"/>
            <line id="Line_958" data-name="Line 958" x1="7.063" y2="3.275" transform="translate(41.861 115.674)" fill="none" stroke="#333842" stroke-linecap="round" stroke-linejoin="round" stroke-width="0.75"/>
          </g>
          <g id="Group_313022" data-name="Group 313022" transform="translate(54.215 4.898)">
            <path id="Path_142874" data-name="Path 142874" d="M411.253,455.844a2.312,2.312,0,0,0,.254.058c.677.01,1.355.033,2.034.063.173,0,.345.01.512.025.81.041,1.619.091,2.43.155,6.309.5,12.762,1.629,18.987,1.761a16.916,16.916,0,0,0,6.435-.786c5.094-1.987-1.114-4.594-3.133-5.746a69.267,69.267,0,0,0-6.225-3.362,47.648,47.648,0,0,1-8.234-4.728,38.74,38.74,0,0,1-11.086,1.07C411.317,444.263,408.481,454.953,411.253,455.844Z" transform="translate(-398.64 -263.401)" fill="#333842"/>
            <g id="Group_313021" data-name="Group 313021" transform="translate(0.005)">
              <g id="Group_313020" data-name="Group 313020">
                <path id="Path_142875" data-name="Path 142875" d="M434.6,363.3c-.9-6.213-5.548-27.64-12.6-28.8-4.629-.764-10.568.931-13.782,4.835a22.6,22.6,0,0,0-4.447,11.075c-1,6.789-.527,14.008-.263,20.849.418,10.85,2.611,31.341,2.611,31.341s10.7,90.053,9.914,112.281c4.1,5.687,16.309.383,16.364-.266,1.429-17.5,1.4-57.082,1.741-70.628C434.5,429.4,436.69,377.786,434.6,363.3Z" transform="translate(-403.159 -334.312)" fill="#222"/>
              </g>
            </g>
            <path id="Path_142876" data-name="Path 142876" d="M405.442,385.342q-1.144-16.491-2.286-32.981" transform="translate(-403.156 -322.566)" fill="none" stroke="#333842" stroke-miterlimit="10" stroke-width="0.75"/>
          </g>
          <path id="Path_142877" data-name="Path 142877" d="M442.028,364.034c-1.24-7.372-5.756-26.514-12.417-27.613a15.66,15.66,0,0,0-6.418.371,16.055,16.055,0,0,0-16.225-4.851c-10.685,3.159-13.969,15.512-15.51,27.417,5.688,3.986,12.532,6.1,19.4,7.08v0c.139.02.276.031.414.049q1.1.148,2.2.261c.253.026.505.053.758.076.865.079,1.73.145,2.588.193.137.008.271.012.406.018q1.139.057,2.263.081c.246,0,.49.01.735.013.827.012,1.651.013,2.46,0l0,0h.106A70.078,70.078,0,0,0,442.028,364.034Z" transform="translate(-356.553 -331.344)" fill="#3c4966"/>
        </g>
        <g id="Group_313024" data-name="Group 313024" transform="translate(55.172 23.696)">
          <path id="Path_142878" data-name="Path 142878" d="M417.808,286.154c.069.624.112,1.243.144,1.836l.381,7.123a65.477,65.477,0,0,1,.383,7.316c-.213,3.41-.943,6.682-4.124,8.349a7.6,7.6,0,0,1-6.334.028c-1.548-.669-3.511-1.72-4.122-3.452a10.609,10.609,0,0,1-.395-3.585c.02-3.965-.068-7.933.092-11.9.1-2.549-.082-5.3,1.014-7.659,1.505-3.232,5.367-6.4,8.955-4.992C416.626,280.333,417.491,283.3,417.808,286.154Z" transform="translate(-403.736 -278.877)" fill="#f7b699"/>
          <path id="Path_142879" data-name="Path 142879" d="M413.582,295.657a17.384,17.384,0,0,0,4.3-8.571c-.023-.312-.038-.616-.073-.933-.317-2.849-1.182-5.82-4-6.931-3.589-1.413-7.45,1.76-8.955,4.992-1.1,2.357-.909,5.111-1.014,7.659-.086,2.144-.1,4.29-.1,6.438C407.022,299.49,411.276,298.131,413.582,295.657Z" transform="translate(-403.736 -278.877)" fill="#c46e58"/>
        </g>
        <g id="Group_313025" data-name="Group 313025" transform="translate(33.429 44.984)">
          <path id="Path_142880" data-name="Path 142880" d="M442.379,379.9l-4.83-24.5L439.2,300.35c-.441,0,.238-4.875-1.254-5.824-2.308-1.469-9.713-2.509-10.649-2.753a10.811,10.811,0,0,1-.238,2.885c-.277,1.032-2.07,2.98-3.363,3.942-3.911,2.917-8.843,2.643-10.946-3.412a13.361,13.361,0,0,1-.447-3.2,47.459,47.459,0,0,0-7.672,1.921,7.459,7.459,0,0,0-5.051,6.545l-2.539,54.8-6.479,20.654C406.216,388.474,424.273,388.36,442.379,379.9Z" transform="translate(-390.564 -291.773)" fill="#6891b2"/>
          <path id="Path_142881" data-name="Path 142881" d="M405.8,341.594a58.979,58.979,0,0,0,23.632-22.32" transform="translate(-380.652 -273.878)" fill="none" stroke="#333842" stroke-linecap="round" stroke-miterlimit="10" stroke-width="0.299"/>
          <path id="Path_142882" data-name="Path 142882" d="M403.341,356.925a73.185,73.185,0,0,0,24.512-29.053" transform="translate(-382.25 -268.283)" fill="none" stroke="#333842" stroke-linecap="round" stroke-miterlimit="10" stroke-width="0.299"/>
          <path id="Path_142883" data-name="Path 142883" d="M405.782,298.627a9.483,9.483,0,0,0,9.077-.193" transform="translate(-380.661 -287.439)" fill="none" stroke="#333842" stroke-linecap="round" stroke-miterlimit="10" stroke-width="0.299"/>
        </g>
        <g id="Group_313029" data-name="Group 313029" transform="translate(21.557 45.231)">
          <g id="Group_313026" data-name="Group 313026" transform="translate(0.256 2.38)">
            <path id="Path_142884" data-name="Path 142884" d="M399.311,300.513c-7.857,9.135-15.005,29.089-15.75,40.989a13.019,13.019,0,0,0,2.095,8.445,7.926,7.926,0,0,0,7.7,3.349c3.065-.631,5.229-3.349,6.783-6.068,2.517-4.406,6.184-15.545,7.176-20.348,1.113-5.386,3.539-10.457,4.5-15.956.6-3.422,3.812-19.477-4.019-17.371a9.66,9.66,0,0,0-3.526,2.078A41.4,41.4,0,0,0,399.311,300.513Z" transform="translate(-383.527 -293.364)" fill="#0271a6"/>
          </g>
          <g id="Group_313027" data-name="Group 313027" transform="translate(7.664)">
            <path id="Path_142885" data-name="Path 142885" d="M397.3,390.672c1.045.53,2.111,1,3.188,1.436,3.473-26.336,12.95-99.984,12.945-100.186a44.01,44.01,0,0,0-7.2,1.811,7.723,7.723,0,0,0-5.338,6.418L398.6,331.874l-3.151,29.688-7.433,22.422A37.478,37.478,0,0,0,397.3,390.672Z" transform="translate(-388.015 -291.922)" fill="#0271a6"/>
            <path id="Path_142886" data-name="Path 142886" d="M407.136,291.922l-8.95,7.564,5.044,1.107-5.536,12.178,4.233,20.037Z" transform="translate(-381.717 -291.922)" fill="#abc0d4"/>
            <path id="Path_142887" data-name="Path 142887" d="M401.242,299.346s-4.931,13.268-5.02,19.559c-.053,3.632-3.417,35.007-3.417,35.007" transform="translate(-384.898 -287.092)" fill="none" stroke="#333842" stroke-miterlimit="10" stroke-width="0.299"/>
          </g>
          <g id="Group_313028" data-name="Group 313028" transform="translate(0 42.665)">
            <path id="Path_142888" data-name="Path 142888" d="M404.407,329.029a10.518,10.518,0,1,1-10.518-10.517A10.518,10.518,0,0,1,404.407,329.029Z" transform="translate(-383.372 -317.286)" fill="#0271a6"/>
            <path id="Path_142889" data-name="Path 142889" d="M387.809,319.431a10.026,10.026,0,0,1,12.752,11.311" transform="translate(-380.485 -316.95)" fill="none" stroke="#333842" stroke-miterlimit="10" stroke-width="0.299"/>
            <path id="Path_142890" data-name="Path 142890" d="M391.1,317.769a11.044,11.044,0,0,1,5.023,5.5" transform="translate(-378.346 -317.769)" fill="none" stroke="#333842" stroke-miterlimit="10" stroke-width="0.299"/>
          </g>
        </g>
        <g id="Group_313033" data-name="Group 313033" transform="translate(71.112 45.068)">
          <path id="Path_142891" data-name="Path 142891" d="M421.237,393.754c5.49-1.231,6.575-2.029,11.831-4.232l-5.188-27.366L424.7,300.105c-.449.007.035-4.792-1.505-5.715-2.182-1.307-8.135-2.235-9.805-2.559V395.148C416.049,394.8,418.674,394.33,421.237,393.754Z" transform="translate(-413.391 -291.819)" fill="#0271a6"/>
          <g id="Group_313031" data-name="Group 313031" transform="translate(3.137 2.055)">
            <g id="Group_313030" data-name="Group 313030">
              <path id="Path_142892" data-name="Path 142892" d="M429.7,301.663c3.947,5.814,6.3,13.452,8.712,20.022,2.39,6.505,6.479,15.018,6.324,22.059a8.827,8.827,0,0,1-3.211,6.91,9.547,9.547,0,0,1-7.867,1.172c-7.9-1.88-10.088-8.63-12.559-15.315a91.874,91.874,0,0,1-5.591-25.911c-.2-3.559-1.573-20.306,6.264-17.131a10.219,10.219,0,0,1,3.391,2.58A43.148,43.148,0,0,1,429.7,301.663Z" transform="translate(-415.292 -293.069)" fill="#0271a6"/>
            </g>
            <path id="Path_142893" data-name="Path 142893" d="M420.752,325.93l-3.808-13.143" transform="translate(-414.218 -280.238)" fill="none" stroke="#333842" stroke-miterlimit="10" stroke-width="0.299"/>
            <path id="Path_142894" data-name="Path 142894" d="M418.913,317.91l-2.679-4.259" transform="translate(-414.68 -279.676)" fill="none" stroke="#333842" stroke-miterlimit="10" stroke-width="0.299"/>
          </g>
          <path id="Path_142895" data-name="Path 142895" d="M413.392,291.824l7.942,8.617-5.142.472,3.98,12.772-6.689,19.356Z" transform="translate(-413.392 -291.824)" fill="#abc0d4"/>
          <g id="Group_313032" data-name="Group 313032" transform="translate(0.895 43.83)">
            <path id="Path_142896" data-name="Path 142896" d="M438.517,337.229l-12.151,3.686a9.631,9.631,0,0,1-12.014-6.421h0a9.631,9.631,0,0,1,6.421-12.014l12.151-3.686a9.634,9.634,0,0,1,12.016,6.421h0A9.632,9.632,0,0,1,438.517,337.229Z" transform="translate(-413.934 -318.376)" fill="#0271a6"/>
            <path id="Path_142897" data-name="Path 142897" d="M414.568,324.8l13.392-4.863c3.831-1.39,7.971-2.336,11.9-.606" transform="translate(-413.522 -318.363)" fill="none" stroke="#333842" stroke-linecap="round" stroke-miterlimit="10" stroke-width="0.299"/>
          </g>
        </g>
        <g id="Group_313034" data-name="Group 313034" transform="translate(29.196 81.097)">
          <rect id="Rectangle_164391" data-name="Rectangle 164391" width="33.857" height="46.104" transform="translate(11.73)" fill="#0e3d54"/>
          <circle id="Ellipse_4959" data-name="Ellipse 4959" cx="8.434" cy="8.434" r="8.434" transform="translate(0 12.693)" fill="#f7b699"/>
          <path id="Path_142898" data-name="Path 142898" d="M411.89,331.3a8.435,8.435,0,1,0,8.83-8.019A8.435,8.435,0,0,0,411.89,331.3Z" transform="translate(-372.46 -307.39)" fill="#f7b699"/>
        </g>
        <g id="Group_313037" data-name="Group 313037" transform="translate(46.674)">
          <path id="Path_142899" data-name="Path 142899" d="M398.588,279.579a3.928,3.928,0,0,0,.485,1.822c1.207,2.171,4.122,1.436,4.908-.687a4.364,4.364,0,0,0,0-2.8c-.475-1.471-1.722-2.674-3.3-1.855a3.871,3.871,0,0,0-2.1,3.521Z" transform="translate(-398.588 -257.188)" fill="#c46e58"/>
          <path id="Path_142900" data-name="Path 142900" d="M405.369,270.641a20.827,20.827,0,0,1,11.52-2.075c4.96.5,7.248,2.94,7.765,5.966.888,5.2.683,11.446-1.613,16.09-.385.777-1.184,2.758-1.644,3.493-3.683,5.858-10.507,6.378-13.932,5.55-4.091-.989-6.312-4.4-7-9.181-.125-.858-.155-3.658-.17-4.525C400.209,280.633,403.057,271.876,405.369,270.641Z" transform="translate(-397.48 -261.99)" fill="#f7b699"/>
          <g id="Group_313035" data-name="Group 313035" transform="translate(2.184)">
            <path id="Path_142901" data-name="Path 142901" d="M404.106,267.8c2.615-1.654,6.06-2.39,9.28-2.816,8.219-1.09,14.315,4.492,14.383,12.415.023,2.71-1.327,8.833-4.4,10.051-3.744,1.481-3.376-2.828-2.894-5.505a19.271,19.271,0,0,0,.523-2.986,3.1,3.1,0,0,0-1.227-2.7,4.726,4.726,0,0,0-2.156-.574c-2.57-.251-17.067.934-16.882-3.919a2.1,2.1,0,0,1,.365-.985A9.231,9.231,0,0,1,404.106,267.8Z" transform="translate(-399.379 -264.307)" fill="#333842"/>
            <path id="Path_142902" data-name="Path 142902" d="M403.861,272.468a15.261,15.261,0,0,0,10.852-1.459" transform="translate(-397.34 -260.301)" fill="none" stroke="#333842" stroke-linecap="round" stroke-linejoin="round" stroke-width="0.75"/>
            <path id="Path_142903" data-name="Path 142903" d="M416.836,268.875a6.144,6.144,0,0,0-5.1-4.353" transform="translate(-392.217 -264.522)" fill="none" stroke="#333842" stroke-linecap="round" stroke-linejoin="round" stroke-width="0.75"/>
            <path id="Path_142904" data-name="Path 142904" d="M416.837,267.239a1.427,1.427,0,0,0-1.836.254" transform="translate(-390.091 -262.901)" fill="none" stroke="#333842" stroke-linecap="round" stroke-linejoin="round" stroke-width="0.75"/>
            <path id="Path_142905" data-name="Path 142905" d="M400.264,283.291c.036.186.078.368.127.543.114-.036.347-.122.408-.234,1.636-3,.7-7.466,3.216-9.952.857-.848,2.172-1.469,2.3-2.668a2.976,2.976,0,0,0-.365-1.51,1.706,1.706,0,0,0-.47-.685,1.508,1.508,0,0,0-1.085-.19c-4.926.579-4.6,6.233-4.379,9.843A40.822,40.822,0,0,0,400.264,283.291Z" transform="translate(-399.911 -261.886)" fill="#333842"/>
          </g>
          <path id="Path_142906" data-name="Path 142906" d="M413.592,282.663a2.683,2.683,0,0,0,4.244.581,4.434,4.434,0,0,0,1.028-2.351,5.045,5.045,0,0,0-.046-2.3,3.138,3.138,0,0,0-2.106-2.019C413.413,275.459,412.1,280.506,413.592,282.663Z" transform="translate(-389.223 -256.781)" fill="#f7b699"/>
          <g id="Group_313036" data-name="Group 313036" transform="translate(5.875 16.312)">
            <path id="Path_142907" data-name="Path 142907" d="M402.178,274.666a5.462,5.462,0,0,1,2.55-.094" transform="translate(-402.127 -274.364)" fill="none" stroke="#333842" stroke-linecap="round" stroke-miterlimit="10" stroke-width="0.476"/>
            <path id="Path_142908" data-name="Path 142908" d="M404.374,282.628a5.524,5.524,0,0,0,4.345.494" transform="translate(-400.698 -269.052)" fill="none" stroke="#333842" stroke-linecap="round" stroke-miterlimit="10" stroke-width="0.476"/>
            <path id="Path_142909" data-name="Path 142909" d="M408.537,274.444a6.109,6.109,0,0,1,3.539.664" transform="translate(-397.989 -274.404)" fill="none" stroke="#333842" stroke-linecap="round" stroke-miterlimit="10" stroke-width="0.476"/>
            <path id="Path_142910" data-name="Path 142910" d="M410.092,277.751a1.084,1.084,0,1,1-1.085-1.085A1.084,1.084,0,0,1,410.092,277.751Z" transform="translate(-398.387 -272.931)" fill="#333842"/>
            <path id="Path_142911" data-name="Path 142911" d="M404.314,277.443a1.084,1.084,0,1,1-1.083-1.083A1.084,1.084,0,0,1,404.314,277.443Z" transform="translate(-402.147 -273.131)" fill="#333842"/>
            <path id="Path_142912" data-name="Path 142912" d="M405.871,283.211c-1-.158-2.42-.877-1.882-2.073a4.624,4.624,0,0,1,.588-.858,6.365,6.365,0,0,0,1.222-2.956" transform="translate(-401.025 -272.504)" fill="none" stroke="#333842" stroke-linecap="round" stroke-miterlimit="10" stroke-width="0.476"/>
          </g>
        </g>
      </g>
      <g id="Group_313071" data-name="Group 313071" transform="translate(377.394 204.281)">
        <g id="Group_313057" data-name="Group 313057" transform="translate(54.409 113.319)">
          <g id="Group_313055" data-name="Group 313055">
            <path id="Path_142938" data-name="Path 142938" d="M343.8,367.542c-14.189,2.8-14.574,19.109-13.342,30.781,2.605,24.651,9.768,83.009,9.768,83.009l13.641,71.594,9.536.531-5.061-72.445s2.417-52.778,4.844-71.162C367.118,384.1,362.658,363.815,343.8,367.542Z" transform="translate(-330.011 -367.1)" fill="#4f5d7a"/>
          </g>
          <g id="Group_313056" data-name="Group 313056" transform="translate(9.877 183.833)">
            <path id="Path_142939" data-name="Path 142939" d="M360.192,480.316a38.4,38.4,0,0,1-10.29-.093l-.015,0a2.157,2.157,0,0,0-2.082.974c-.273.423-.538.818-.8,1.147a9.34,9.34,0,0,1-5.446,3.282c-.076.029-.145.071-.223.1-2.588.323-4.949,1.648-5.243,4.124H359.94C360.773,486.624,361.17,483.24,360.192,480.316Z" transform="translate(-336.085 -480.204)" fill="#628aec"/>
            <rect id="Rectangle_164393" data-name="Rectangle 164393" width="24.291" height="3.134" transform="translate(0 9.266)" fill="#333842"/>
          </g>
        </g>
        <g id="Group_313060" data-name="Group 313060" transform="translate(21.601 114.152)">
          <g id="Group_313058" data-name="Group 313058" transform="translate(18.909)">
            <path id="Path_142940" data-name="Path 142940" d="M351.651,367.643c-14.439-.829-18.888,14.862-20.609,26.472-3.636,24.52-9.583,83.061-9.583,83.061l5.26,75.516,9.949-.392,5.559-74.725s10.685-46.927,17.627-64.123C370.091,389.5,370.838,368.745,351.651,367.643Z" transform="translate(-321.459 -367.612)" fill="#616e87"/>
          </g>
          <g id="Group_313059" data-name="Group 313059" transform="translate(0 182.937)">
            <path id="Path_142941" data-name="Path 142941" d="M344.48,480.34a38.416,38.416,0,0,1-10.292-.093,4.215,4.215,0,0,0-1.5-.023,4.261,4.261,0,0,0-1.222.587,41.346,41.346,0,0,1-13.04,4.546c-2.415.445-5.019.7-6.937,2.232a2.874,2.874,0,0,0-1.175,2.279h33.909C345.062,486.648,345.458,483.264,344.48,480.34Z" transform="translate(-309.523 -480.165)" fill="#628aec"/>
            <rect id="Rectangle_164394" data-name="Rectangle 164394" width="34.635" height="3.134" transform="translate(0 9.329)" fill="#333842"/>
          </g>
        </g>
        <g id="Group_313066" data-name="Group 313066" transform="translate(64.007 5.529)">
          <g id="Group_313062" data-name="Group 313062" transform="translate(5.435 22.695)">
            <g id="Group_313061" data-name="Group 313061">
              <path id="Path_142942" data-name="Path 142942" d="M342.322,321.878a19.807,19.807,0,0,0-.346-4.848,12.639,12.639,0,0,0,7.405.213,21.455,21.455,0,0,0,3.512-1.343c.4-.19,1.133-.783,1.806-1.156-1.476,5.445-1.36,11.127,2.011,15.806a18.68,18.68,0,0,1-9.178,3.9c-2.846.486-9.658.936-8.021-3.855.536-1.568,1.685-2.773,2.141-4.4A19.747,19.747,0,0,0,342.322,321.878Z" transform="translate(-339.26 -314.744)" fill="#f7b699"/>
            </g>
          </g>
          <g id="Group_313064" data-name="Group 313064" transform="translate(7.681 24.98)">
            <g id="Group_313063" data-name="Group 313063">
              <path id="Path_142943" data-name="Path 142943" d="M348.052,316.472a12.608,12.608,0,0,1-6.94-.322,20.53,20.53,0,0,1-.325,9.17c-.041.146-.093.286-.145.426.281-.034.562-.083.844-.136A16.939,16.939,0,0,0,348.052,316.472Z" transform="translate(-340.642 -316.15)" fill="#c46e58"/>
            </g>
          </g>
          <g id="Group_313065" data-name="Group 313065">
            <path id="Path_142944" data-name="Path 142944" d="M337.533,314.587a3.343,3.343,0,0,0,.582.081c.6.024.527-.725.494-1.157-.091-1.144-.093-2.34-.281-3.47a11.22,11.22,0,0,0-.923,1.429c-.445.623-.9,1.24-1.346,1.859a.659.659,0,0,0-.14.28c-.034.247.211.436.434.548A5.444,5.444,0,0,0,337.533,314.587Z" transform="translate(-335.916 -294.99)" fill="#f7b699"/>
            <path id="Path_142945" data-name="Path 142945" d="M358.257,319.923a17.785,17.785,0,0,0,1.464-7.5,12.674,12.674,0,0,0-2.768-7.7,11.205,11.205,0,0,0-10.947-3.667,10.621,10.621,0,0,0-2.885,1.157c-2.194,1.278-4.744,3.844-5.105,6.493-.081.593.039,1.162-.075,1.765-.169.892-.358,1.78-.5,2.679a27.321,27.321,0,0,0-.348,5.414,17.864,17.864,0,0,0,1.193,6.215,8.05,8.05,0,0,0,3.764,4.109,9.411,9.411,0,0,0,9.5-.809A18.634,18.634,0,0,0,358.257,319.923Z" transform="translate(-335.191 -300.781)" fill="#f7b699"/>
            <path id="Path_142946" data-name="Path 142946" d="M337.617,314.252l1.245.554" transform="translate(-334.852 -292.357)" fill="none" stroke="#333842" stroke-linecap="round" stroke-miterlimit="10" stroke-width="0.483"/>
          </g>
        </g>
        <g id="Group_313070" data-name="Group 313070" transform="translate(0 40.224)">
          <path id="Path_142947" data-name="Path 142947" d="M316.067,340.187a3.147,3.147,0,0,1,2.014-2.342c1.052-.366,2.833-.369,3.182-1.425.176-.53.349-.728-.075-1.087a2.626,2.626,0,0,0-1.551-.543,4.619,4.619,0,0,0-4.252,2.362c-.25.463-.611,1.07-1.117.922a.855.855,0,0,1-.492-.528c-.595-1.393.227-2.952,1.024-4.241a7.182,7.182,0,0,1,2.332-2.656,6.906,6.906,0,0,1,3.914-.525c2.693.185,5.515.39,7.79,1.991.6.419,1.141.909,1.736,1.331a19.1,19.1,0,0,0,5.107,2.282l-1.663,5.772a.43.43,0,0,1-.153.262.423.423,0,0,1-.319.007c-3.269-.8-7.041-1.466-10.318-1.98A24.541,24.541,0,0,0,316.067,340.187Z" transform="translate(-285.88 -317.16)" fill="#f7b699"/>
          <path id="Path_142948" data-name="Path 142948" d="M349.912,339.3a51.788,51.788,0,0,0-5.422-2.171c-3.238-1.11-6.644-2.019-9.9-2.878-1.232-.327-5.954-1.512-7.221-1.713-3.54,2.882-4.54,4.809-4.54,9.069a192.815,192.815,0,0,0,16.918,9.568,49.428,49.428,0,0,0,7.124,3.008,16.211,16.211,0,0,0,7.979.523,5.134,5.134,0,0,0,3.308-1.89,3.48,3.48,0,0,0,.4-1.984C358.4,346.222,355.045,341.741,349.912,339.3Z" transform="translate(-280.091 -315.617)" fill="#e5a940"/>
          <path id="Path_142949" data-name="Path 142949" d="M302.145,352.785a9.862,9.862,0,0,1-.7-8.266,3.616,3.616,0,0,1,2.032-2.3,3.179,3.179,0,0,1,3.3,1.364,15.159,15.159,0,0,1,1.616,3.438,16.017,16.017,0,0,0,2.054,3.556c.866,1.131,1.921,2.225,2.17,3.629a3.561,3.561,0,0,1-.99,3.108C308.634,360.268,303.6,355.361,302.145,352.785Z" transform="translate(-293.841 -309.627)" fill="#f7b699"/>
          <g id="Group_313067" data-name="Group 313067" transform="translate(0 19.226)">
            <path id="Path_142950" data-name="Path 142950" d="M338.591,355.928,320.486,364.7l-23.95-21.74,18.106-8.776Z" transform="translate(-296.535 -333.811)" fill="#4e95cf"/>
            <path id="Path_142951" data-name="Path 142951" d="M334.534,354.234l-15.549,7.537-20.694-18.784,15.549-7.537Z" transform="translate(-295.437 -333.023)" fill="#fff"/>
            <path id="Path_142952" data-name="Path 142952" d="M314.769,338.335,301.846,344.6l-1.26-1.144,12.922-6.264Z" transform="translate(-294.002 -331.934)" fill="#c8ddf7"/>
            <path id="Path_142953" data-name="Path 142953" d="M318.83,342.022l-12.922,6.264-1.261-1.144,12.922-6.263Z" transform="translate(-291.462 -329.628)" fill="#c8ddf7"/>
            <path id="Path_142954" data-name="Path 142954" d="M320.176,343.243l-12.922,6.264-1.261-1.144,12.922-6.264Z" transform="translate(-290.621 -328.865)" fill="#c8ddf7"/>
            <path id="Path_142955" data-name="Path 142955" d="M321.522,344.464,308.6,350.728l-1.261-1.144,12.922-6.264Z" transform="translate(-289.78 -328.101)" fill="#c8ddf7"/>
            <path id="Path_142956" data-name="Path 142956" d="M322.867,345.686l-12.922,6.263-1.261-1.144,12.922-6.263Z" transform="translate(-288.938 -327.337)" fill="#c8ddf7"/>
            <path id="Path_142957" data-name="Path 142957" d="M324.213,346.907l-12.922,6.263-1.26-1.144,12.922-6.264Z" transform="translate(-288.097 -326.573)" fill="#c8ddf7"/>
            <path id="Path_142958" data-name="Path 142958" d="M313.341,338.152l-10.863,5.266-4.622-4.2,10.863-5.266Z" transform="translate(-295.709 -333.956)" fill="#4e95cf"/>
          </g>
          <path id="Path_142959" data-name="Path 142959" d="M303.134,350.518a5.133,5.133,0,0,0-.494.671c-1.369,2.2,1.281,4.242,2.966,5.427,3.829,2.695,8.505,3.985,12.944,5.277,2.508.731,9.767-1.058,7.761-5-1.367-2.687-5.417-4.236-8.081-4.954-2.763-.518-5.125-1.669-6.162-4.471-.462-1.245-.647-2.575-1.052-3.839a1.891,1.891,0,0,0-.462-.85.721.721,0,0,0-.9-.1,1,1,0,0,0-.283.466c-.775,2.163.616,3.764-2.046,5.032-.884.421-1.854.653-2.711,1.128A5.385,5.385,0,0,0,303.134,350.518Z" transform="translate(-292.955 -309.345)" fill="#f7b699"/>
          <g id="Group_313068" data-name="Group 313068" transform="translate(47.781)">
            <path id="Path_142960" data-name="Path 142960" d="M368.5,416.463s.616-.25,1.087-.478c2.584-1.329,3.459-4.7,3.716-7.663.588-6.812-1.577-13.227-1.313-20.43.278-7.623,2.058-15.46,3.13-23.663.938-7.155,1.3-14.888-.306-22.257-1.2-5.505-2.846-11.623-6.207-15.922-1.624-2.079-4.572-2.9-6.843-3.454a16.422,16.422,0,0,0-8.635.232,19.988,19.988,0,0,0-9.693,6.817c-2,2.511-2.994,6.773-4.016,9.967a117.544,117.544,0,0,0-4.749,21.823c-.891,7.537.193,5.121-.192,12.533s1.752,13.316-2.058,19.493c-2,3.251-4.556,6.08-5.827,9.612-1.247,3.467-.845,8,2.089,10.253-.167,1.318-.369,2.628-.489,3.933,5.9,2.867,13.708,3.49,20.013,4.06a101.882,101.882,0,0,0,17.35.078,12.573,12.573,0,0,0,2.966-.349Z" transform="translate(-325.933 -322.127)" fill="#e5a940"/>
            <path id="Path_142961" data-name="Path 142961" d="M361.49,380.658a78.925,78.925,0,0,1-24.879-1.112" transform="translate(-319.255 -286.221)" fill="none" stroke="#333842" stroke-linecap="round" stroke-miterlimit="10" stroke-width="0.292"/>
          </g>
          <g id="Group_313069" data-name="Group 313069" transform="translate(16.166 7.226)">
            <path id="Path_142962" data-name="Path 142962" d="M363.268,338.317a5.27,5.27,0,0,0-1.65-2.058,4.544,4.544,0,0,0-2.722-.626c-4.143.185-7.42,3.566-9.633,7.072s-3.917,7.468-7.072,10.158c-5.505,4.7-24.044,3.356-30.2,1.986A6.6,6.6,0,0,0,307,363.8c8.255,3.626,33.147,16.863,42.16,12.572a18.825,18.825,0,0,0,7.412-7.043,57.824,57.824,0,0,0,3.01-5.312,51.545,51.545,0,0,0,4.969-12.518C365.494,347.1,365.333,342.32,363.268,338.317Z" transform="translate(-306.481 -320.912)" fill="#e5a940"/>
            <path id="Path_142963" data-name="Path 142963" d="M353.356,329.071a8.725,8.725,0,0,0-10.786-1.157c-1.941,1.217-2.927,3.732-3.93,5.728a55.619,55.619,0,0,0-3.129,7.574c-.883,2.687-1.559,5.437-2.388,8.141-1.357,4.431-3.125,8.744-4.141,13.266s-1.24,9.378.462,13.689c2.43,6.157,10.532,2.887,14.144-.54,3.109-2.95,4.6-7.174,5.984-11.231l4.174-12.224a48.2,48.2,0,0,0,2.763-12.395C356.733,335.85,356.017,331.9,353.356,329.071Z" transform="translate(-292.905 -326.573)" fill="#e5a940"/>
            <path id="Path_142964" data-name="Path 142964" d="M330.079,355.784c1.518-9.1,5.866-19.782,10.183-27.941" transform="translate(-291.725 -325.779)" fill="none" stroke="#333842" stroke-miterlimit="10" stroke-width="0.292"/>
            <path id="Path_142965" data-name="Path 142965" d="M355.718,339.091l-5.334,14.355c-1.278,3.436-2.49,7.828-4.912,10.664s-4.658,5.91-7.616,8.231a11.153,11.153,0,0,1-8.961,2.578" transform="translate(-292.465 -318.745)" fill="none" stroke="#333842" stroke-linecap="round" stroke-miterlimit="10" stroke-width="0.292"/>
            <path id="Path_142966" data-name="Path 142966" d="M348.058,339.873a10.061,10.061,0,0,0-3.82,3.894" transform="translate(-282.871 -318.256)" fill="none" stroke="#333842" stroke-miterlimit="10" stroke-width="0.292"/>
          </g>
          <path id="Path_142967" data-name="Path 142967" d="M313.115,344.191l-2.134,1.159,1.082-2.173,12.871-13.329a.73.73,0,0,1,1.034-.018h0a.731.731,0,0,1,.018,1.032Z" transform="translate(-287.502 -317.44)" fill="#176a92"/>
        </g>
        <path id="Path_142968" data-name="Path 142968" d="M339.371,319.3a12.226,12.226,0,0,1-1.921-1.882c-3.569-4.484-1.258-9.445,1.6-13.435,3.186-4.445,9.256-6.88,14.605-6.583a12.011,12.011,0,0,1,8.122,3.364,7.152,7.152,0,0,1,2.059,3.534c.094.423.4,3.759-.293,3.826,5.274-.52,5.008,10.952,4.959,14.093q-.193,12.034-.385,24.07c-.045,2.89-.169,6.011-1.96,8.28a7.957,7.957,0,0,1-7.722,2.562,11.939,11.939,0,0,1-6.95-4.671c-1.464-1.933-3.233-4.821-3.278-7.316-.052-2.8.328-5.692.319-8.522-.015-4.9-.974-10.155-4.442-13.62A57.419,57.419,0,0,0,339.371,319.3Z" transform="translate(-272.086 -297.379)" fill="#333842"/>
      </g>
    </g>
    <line id="Line_806" data-name="Line 806" x2="570" transform="translate(299.5 3500.5)" fill="none" stroke="#1d2738" stroke-linecap="round" stroke-linejoin="round" stroke-width="2"/>
  </g>
</svg>
