<svg xmlns="http://www.w3.org/2000/svg" xmlns:xlink="http://www.w3.org/1999/xlink" width="460" height="459.753" viewBox="0 0 460 459.753">
  <defs>
    <filter id="Path_88509" x="127.449" y="132.368" width="203.045" height="203.044" filterUnits="userSpaceOnUse">
      <feOffset dx="2.397" dy="2.397" input="SourceAlpha"/>
      <feGaussianBlur stdDeviation="2.098" result="blur"/>
      <feFlood flood-opacity="0.502"/>
      <feComposite operator="in" in2="blur"/>
      <feComposite in="SourceGraphic"/>
    </filter>
  </defs>
  <g id="img_2" transform="translate(-965 -1684)">
    <g id="Group_171664" data-name="Group 171664" transform="translate(965 1684)">
      <g id="Group_171661" data-name="Group 171661">
        <path id="Path_87859" data-name="Path 87859" d="M980.349,140.992a115.132,115.132,0,0,0-115,114.986,128.259,128.259,0,0,1,114.39,115.006c.2,0,.407.007.61.007s.407-.006.612-.007a115.014,115.014,0,0,0,114.389-114.992v-.014A115.131,115.131,0,0,0,980.349,140.992Z" transform="translate(-750.349 -140.992)" fill="#1a559b"/>
        <path id="Path_87860" data-name="Path 87860" d="M995.683,340.709A114.924,114.924,0,0,0,882.078,239.1c-.2,0-.408-.008-.612-.008a115,115,0,1,0,0,230c.226,0,.45-.008.676-.009A128.261,128.261,0,0,1,996.458,354.769c0-.221.008-.44.008-.661v-.015A115.593,115.593,0,0,0,995.683,340.709Z" transform="translate(-766.466 -125.002)" fill="#4399ff"/>
        <path id="Path_87861" data-name="Path 87861" d="M1079.231,239.663c-.2,0-.407.007-.61.007A128.257,128.257,0,0,1,964.232,354.676c0,.221.007.441.008.662a114.914,114.914,0,0,0,114.316,114.316c.226,0,.449.008.674.008a115,115,0,1,0,0-230Z" transform="translate(-734.232 -124.909)" fill="#286cbc"/>
        <path id="Path_87862" data-name="Path 87862" d="M1094.739,452.871A128.261,128.261,0,0,1,980.424,338.554c-.226,0-.449-.008-.676-.008s-.449.007-.674.008A114.916,114.916,0,0,0,864.756,452.871c0,.226-.008.45-.008.676a115,115,0,0,0,230,0C1094.748,453.321,1094.74,453.1,1094.739,452.871Z" transform="translate(-750.447 -108.792)" fill="#3581dd"/>
        <g transform="matrix(1, 0, 0, 1, 0, 0)" filter="url(#Path_88509)">
          <path id="Path_88509-2" data-name="Path 88509" d="M95.23,0A95.23,95.23,0,1,1,0,95.23,95.23,95.23,0,0,1,95.23,0Z" transform="translate(131.34 136.26)" fill="#f0f8ff"/>
        </g>
      </g>
      <text id="Delivery_Model" data-name="Delivery 
Model" transform="translate(224 225)" fill="#333" font-size="26" font-family="Poppins-Bold, Poppins" font-weight="700"><tspan x="-57.811" y="0">Delivery </tspan><tspan x="-40.885" y="38">Model</tspan></text>
      <text id="Client_Side" data-name="Client Side" transform="translate(238 90)" fill="#fff" font-size="22" font-family="Poppins-Bold, Poppins" font-weight="700"><tspan x="-60.115" y="0">Client Side</tspan></text>
      <text id="Partnership" transform="translate(230 395)" fill="#fff" font-size="22" font-family="Poppins-Bold, Poppins" font-weight="700"><tspan x="-66.671" y="0">Partnership</tspan></text>
      <text id="Offshore" transform="translate(69 237)" fill="#fff" font-size="22" font-family="Poppins-Bold, Poppins" font-weight="700"><tspan x="-48.609" y="0">Offshore</tspan></text>
      <text id="Mix" transform="translate(389.999 243)" fill="#fff" font-size="22" font-family="Poppins-Bold, Poppins" font-weight="700"><tspan x="-19.811" y="0">Mix</tspan></text>
    </g>
    <g id="Group_171665" data-name="Group 171665" transform="translate(1107.176 2021.332)">
      <path id="Path_88507" data-name="Path 88507" d="M-244.392,265.617a1.293,1.293,0,0,1-1.285,1.31,1.334,1.334,0,0,1-1.362-1.318,1.351,1.351,0,0,1,1.369-1.322A1.316,1.316,0,0,1-244.392,265.617Z" transform="translate(307.409 -255.277)" fill="#669e1e"/>
    </g>
  </g>
</svg>
