<svg xmlns="http://www.w3.org/2000/svg" width="904" height="412" viewBox="0 0 904 412">
  <g id="img_4" transform="translate(2815 -17436)">
    <g id="Path_91533" data-name="Path 91533" transform="translate(-2737 17436)" fill="none" stroke-linecap="round" stroke-dasharray="8">
      <path d="M0,0H748V412H0Z" stroke="none"/>
      <path d="M 0 0 L 8 0 C 8.55230712890625 0 9 0.44769287109375 9 1 C 9 1.55230712890625 8.55230712890625 2 8 2 L 0 2 L 0 0 Z M 16 0 L 24 0 C 24.55230712890625 0 25 0.44769287109375 25 1 C 25 1.55230712890625 24.55230712890625 2 24 2 L 16 2 C 15.44769287109375 2 15 1.55230712890625 15 1 C 15 0.44769287109375 15.44769287109375 0 16 0 Z M 32 0 L 40 0 C 40.55230712890625 0 41 0.44769287109375 41 1 C 41 1.55230712890625 40.55230712890625 2 40 2 L 32 2 C 31.44769287109375 2 31 1.55230712890625 31 1 C 31 0.44769287109375 31.44769287109375 0 32 0 Z M 48 0 L 56 0 C 56.55230712890625 0 57 0.44769287109375 57 1 C 57 1.55230712890625 56.55230712890625 2 56 2 L 48 2 C 47.44769287109375 2 47 1.55230712890625 47 1 C 47 0.44769287109375 47.44769287109375 0 48 0 Z M 64 0 L 72 0 C 72.55230712890625 0 73 0.44769287109375 73 1 C 73 1.55230712890625 72.55230712890625 2 72 2 L 64 2 C 63.44769287109375 2 63 1.55230712890625 63 1 C 63 0.44769287109375 63.44769287109375 0 64 0 Z M 80 0 L 88 0 C 88.55230712890625 0 89 0.44769287109375 89 1 C 89 1.55230712890625 88.55230712890625 2 88 2 L 80 2 C 79.44769287109375 2 79 1.55230712890625 79 1 C 79 0.44769287109375 79.44769287109375 0 80 0 Z M 96 0 L 104 0 C 104.5523071289062 0 105 0.44769287109375 105 1 C 105 1.55230712890625 104.5523071289062 2 104 2 L 96 2 C 95.44769287109375 2 95 1.55230712890625 95 1 C 95 0.44769287109375 95.44769287109375 0 96 0 Z M 112 0 L 120 0 C 120.5523071289062 0 121 0.44769287109375 121 1 C 121 1.55230712890625 120.5523071289062 2 120 2 L 112 2 C 111.4476928710938 2 111 1.55230712890625 111 1 C 111 0.44769287109375 111.4476928710938 0 112 0 Z M 128 0 L 136 0 C 136.5523071289062 0 137 0.44769287109375 137 1 C 137 1.55230712890625 136.5523071289062 2 136 2 L 128 2 C 127.4476928710938 2 127 1.55230712890625 127 1 C 127 0.44769287109375 127.4476928710938 0 128 0 Z M 144 0 L 152 0 C 152.5523071289062 0 153 0.44769287109375 153 1 C 153 1.55230712890625 152.5523071289062 2 152 2 L 144 2 C 143.4476928710938 2 143 1.55230712890625 143 1 C 143 0.44769287109375 143.4476928710938 0 144 0 Z M 160 0 L 168 0 C 168.5523071289062 0 169 0.44769287109375 169 1 C 169 1.55230712890625 168.5523071289062 2 168 2 L 160 2 C 159.4476928710938 2 159 1.55230712890625 159 1 C 159 0.44769287109375 159.4476928710938 0 160 0 Z M 176 0 L 184 0 C 184.5523071289062 0 185 0.44769287109375 185 1 C 185 1.55230712890625 184.5523071289062 2 184 2 L 176 2 C 175.4476928710938 2 175 1.55230712890625 175 1 C 175 0.44769287109375 175.4476928710938 0 176 0 Z M 192 0 L 200 0 C 200.5523071289062 0 201 0.44769287109375 201 1 C 201 1.55230712890625 200.5523071289062 2 200 2 L 192 2 C 191.4476928710938 2 191 1.55230712890625 191 1 C 191 0.44769287109375 191.4476928710938 0 192 0 Z M 208 0 L 216 0 C 216.5523071289062 0 217 0.44769287109375 217 1 C 217 1.55230712890625 216.5523071289062 2 216 2 L 208 2 C 207.4476928710938 2 207 1.55230712890625 207 1 C 207 0.44769287109375 207.4476928710938 0 208 0 Z M 224 0 L 232 0 C 232.5523071289062 0 233 0.44769287109375 233 1 C 233 1.55230712890625 232.5523071289062 2 232 2 L 224 2 C 223.4476928710938 2 223 1.55230712890625 223 1 C 223 0.44769287109375 223.4476928710938 0 224 0 Z M 240 0 L 248 0 C 248.5523071289062 0 249 0.44769287109375 249 1 C 249 1.55230712890625 248.5523071289062 2 248 2 L 240 2 C 239.4476928710938 2 239 1.55230712890625 239 1 C 239 0.44769287109375 239.4476928710938 0 240 0 Z M 256 0 L 264 0 C 264.5523071289062 0 265 0.44769287109375 265 1 C 265 1.55230712890625 264.5523071289062 2 264 2 L 256 2 C 255.4476928710938 2 255 1.55230712890625 255 1 C 255 0.44769287109375 255.4476928710938 0 256 0 Z M 272 0 L 280 0 C 280.5523071289062 0 281 0.44769287109375 281 1 C 281 1.55230712890625 280.5523071289062 2 280 2 L 272 2 C 271.4476928710938 2 271 1.55230712890625 271 1 C 271 0.44769287109375 271.4476928710938 0 272 0 Z M 288 0 L 296 0 C 296.5523071289062 0 297 0.44769287109375 297 1 C 297 1.55230712890625 296.5523071289062 2 296 2 L 288 2 C 287.4476928710938 2 287 1.55230712890625 287 1 C 287 0.44769287109375 287.4476928710938 0 288 0 Z M 304 0 L 312 0 C 312.5523071289062 0 313 0.44769287109375 313 1 C 313 1.55230712890625 312.5523071289062 2 312 2 L 304 2 C 303.4476928710938 2 303 1.55230712890625 303 1 C 303 0.44769287109375 303.4476928710938 0 304 0 Z M 320 0 L 328 0 C 328.5523071289062 0 329 0.44769287109375 329 1 C 329 1.55230712890625 328.5523071289062 2 328 2 L 320 2 C 319.4476928710938 2 319 1.55230712890625 319 1 C 319 0.44769287109375 319.4476928710938 0 320 0 Z M 336 0 L 344 0 C 344.5523071289062 0 345 0.44769287109375 345 1 C 345 1.55230712890625 344.5523071289062 2 344 2 L 336 2 C 335.4476928710938 2 335 1.55230712890625 335 1 C 335 0.44769287109375 335.4476928710938 0 336 0 Z M 352 0 L 360 0 C 360.5523071289062 0 361 0.44769287109375 361 1 C 361 1.55230712890625 360.5523071289062 2 360 2 L 352 2 C 351.4476928710938 2 351 1.55230712890625 351 1 C 351 0.44769287109375 351.4476928710938 0 352 0 Z M 368 0 L 376 0 C 376.5523071289062 0 377 0.44769287109375 377 1 C 377 1.55230712890625 376.5523071289062 2 376 2 L 368 2 C 367.4476928710938 2 367 1.55230712890625 367 1 C 367 0.44769287109375 367.4476928710938 0 368 0 Z M 384 0 L 392 0 C 392.5523071289062 0 393 0.44769287109375 393 1 C 393 1.55230712890625 392.5523071289062 2 392 2 L 384 2 C 383.4476928710938 2 383 1.55230712890625 383 1 C 383 0.44769287109375 383.4476928710938 0 384 0 Z M 400 0 L 408 0 C 408.5523071289062 0 409 0.44769287109375 409 1 C 409 1.55230712890625 408.5523071289062 2 408 2 L 400 2 C 399.4476928710938 2 399 1.55230712890625 399 1 C 399 0.44769287109375 399.4476928710938 0 400 0 Z M 416 0 L 424 0 C 424.5523071289062 0 425 0.44769287109375 425 1 C 425 1.55230712890625 424.5523071289062 2 424 2 L 416 2 C 415.4476928710938 2 415 1.55230712890625 415 1 C 415 0.44769287109375 415.4476928710938 0 416 0 Z M 432 0 L 440 0 C 440.5523071289062 0 441 0.44769287109375 441 1 C 441 1.55230712890625 440.5523071289062 2 440 2 L 432 2 C 431.4476928710938 2 431 1.55230712890625 431 1 C 431 0.44769287109375 431.4476928710938 0 432 0 Z M 448 0 L 456 0 C 456.5523071289062 0 457 0.44769287109375 457 1 C 457 1.55230712890625 456.5523071289062 2 456 2 L 448 2 C 447.4476928710938 2 447 1.55230712890625 447 1 C 447 0.44769287109375 447.4476928710938 0 448 0 Z M 464 0 L 472 0 C 472.5523071289062 0 473 0.44769287109375 473 1 C 473 1.55230712890625 472.5523071289062 2 472 2 L 464 2 C 463.4476928710938 2 463 1.55230712890625 463 1 C 463 0.44769287109375 463.4476928710938 0 464 0 Z M 480 0 L 488 0 C 488.5523071289062 0 489 0.44769287109375 489 1 C 489 1.55230712890625 488.5523071289062 2 488 2 L 480 2 C 479.4476928710938 2 479 1.55230712890625 479 1 C 479 0.44769287109375 479.4476928710938 0 480 0 Z M 496 0 L 504 0 C 504.5523071289062 0 505 0.44769287109375 505 1 C 505 1.55230712890625 504.5523071289062 2 504 2 L 496 2 C 495.4476928710938 2 495 1.55230712890625 495 1 C 495 0.44769287109375 495.4476928710938 0 496 0 Z M 512 0 L 520 0 C 520.5523071289062 0 521 0.44769287109375 521 1 C 521 1.55230712890625 520.5523071289062 2 520 2 L 512 2 C 511.4476928710938 2 511 1.55230712890625 511 1 C 511 0.44769287109375 511.4476928710938 0 512 0 Z M 528 0 L 536 0 C 536.5523071289062 0 537 0.44769287109375 537 1 C 537 1.55230712890625 536.5523071289062 2 536 2 L 528 2 C 527.4476928710938 2 527 1.55230712890625 527 1 C 527 0.44769287109375 527.4476928710938 0 528 0 Z M 544 0 L 552 0 C 552.5523071289062 0 553 0.44769287109375 553 1 C 553 1.55230712890625 552.5523071289062 2 552 2 L 544 2 C 543.4476928710938 2 543 1.55230712890625 543 1 C 543 0.44769287109375 543.4476928710938 0 544 0 Z M 560 0 L 568 0 C 568.5523071289062 0 569 0.44769287109375 569 1 C 569 1.55230712890625 568.5523071289062 2 568 2 L 560 2 C 559.4476928710938 2 559 1.55230712890625 559 1 C 559 0.44769287109375 559.4476928710938 0 560 0 Z M 576 0 L 584 0 C 584.5523071289062 0 585 0.44769287109375 585 1 C 585 1.55230712890625 584.5523071289062 2 584 2 L 576 2 C 575.4476928710938 2 575 1.55230712890625 575 1 C 575 0.44769287109375 575.4476928710938 0 576 0 Z M 592 0 L 600 0 C 600.5523071289062 0 601 0.44769287109375 601 1 C 601 1.55230712890625 600.5523071289062 2 600 2 L 592 2 C 591.4476928710938 2 591 1.55230712890625 591 1 C 591 0.44769287109375 591.4476928710938 0 592 0 Z M 608 0 L 616 0 C 616.5523071289062 0 617 0.44769287109375 617 1 C 617 1.55230712890625 616.5523071289062 2 616 2 L 608 2 C 607.4476928710938 2 607 1.55230712890625 607 1 C 607 0.44769287109375 607.4476928710938 0 608 0 Z M 624 0 L 632 0 C 632.5523071289062 0 633 0.44769287109375 633 1 C 633 1.55230712890625 632.5523071289062 2 632 2 L 624 2 C 623.4476928710938 2 623 1.55230712890625 623 1 C 623 0.44769287109375 623.4476928710938 0 624 0 Z M 640 0 L 648 0 C 648.5523071289062 0 649 0.44769287109375 649 1 C 649 1.55230712890625 648.5523071289062 2 648 2 L 640 2 C 639.4476928710938 2 639 1.55230712890625 639 1 C 639 0.44769287109375 639.4476928710938 0 640 0 Z M 656 0 L 664 0 C 664.5523071289062 0 665 0.44769287109375 665 1 C 665 1.55230712890625 664.5523071289062 2 664 2 L 656 2 C 655.4476928710938 2 655 1.55230712890625 655 1 C 655 0.44769287109375 655.4476928710938 0 656 0 Z M 672 0 L 680 0 C 680.5523071289062 0 681 0.44769287109375 681 1 C 681 1.55230712890625 680.5523071289062 2 680 2 L 672 2 C 671.4476928710938 2 671 1.55230712890625 671 1 C 671 0.44769287109375 671.4476928710938 0 672 0 Z M 688 0 L 696 0 C 696.5523071289062 0 697 0.44769287109375 697 1 C 697 1.55230712890625 696.5523071289062 2 696 2 L 688 2 C 687.4476928710938 2 687 1.55230712890625 687 1 C 687 0.44769287109375 687.4476928710938 0 688 0 Z M 704 0 L 712 0 C 712.5523071289062 0 713 0.44769287109375 713 1 C 713 1.55230712890625 712.5523071289062 2 712 2 L 704 2 C 703.4476928710938 2 703 1.55230712890625 703 1 C 703 0.44769287109375 703.4476928710938 0 704 0 Z M 720 0 L 728 0 C 728.5523071289062 0 729 0.44769287109375 729 1 C 729 1.55230712890625 728.5523071289062 2 728 2 L 720 2 C 719.4476928710938 2 719 1.55230712890625 719 1 C 719 0.44769287109375 719.4476928710938 0 720 0 Z M 736 0 L 744 0 C 744.5523071289062 0 745 0.44769287109375 745 1 C 745 1.55230712890625 744.5523071289062 2 744 2 L 736 2 C 735.4476928710938 2 735 1.55230712890625 735 1 C 735 0.44769287109375 735.4476928710938 0 736 0 Z M 747 3 C 747.5523071289062 3 748 3.44769287109375 748 4 C 748 4 748 12 748 12 C 748 12.55230712890625 747.5523071289062 13 747 13 C 746.4476928710938 13 746 12.55230712890625 746 12 L 746 4 C 746 3.44769287109375 746.4476928710938 3 747 3 Z M 747 19 C 747.5523071289062 19 748 19.44769287109375 748 20 C 748 20 748 28 748 28 C 748 28.55230712890625 747.5523071289062 29 747 29 C 746.4476928710938 29 746 28.55230712890625 746 28 L 746 20 C 746 19.44769287109375 746.4476928710938 19 747 19 Z M 747 35 C 747.5523071289062 35 748 35.44769287109375 748 36 C 748 36 748 44 748 44 C 748 44.55230712890625 747.5523071289062 45 747 45 C 746.4476928710938 45 746 44.55230712890625 746 44 L 746 36 C 746 35.44769287109375 746.4476928710938 35 747 35 Z M 747 51 C 747.5523071289062 51 748 51.44769287109375 748 52 C 748 52 748 60 748 60 C 748 60.55230712890625 747.5523071289062 61 747 61 C 746.4476928710938 61 746 60.55230712890625 746 60 L 746 52 C 746 51.44769287109375 746.4476928710938 51 747 51 Z M 747 67 C 747.5523071289062 67 748 67.44769287109375 748 68 C 748 68 748 76 748 76 C 748 76.55230712890625 747.5523071289062 77 747 77 C 746.4476928710938 77 746 76.55230712890625 746 76 L 746 68 C 746 67.44769287109375 746.4476928710938 67 747 67 Z M 747 83 C 747.5523071289062 83 748 83.44769287109375 748 84 C 748 84 748 92 748 92 C 748 92.55230712890625 747.5523071289062 93 747 93 C 746.4476928710938 93 746 92.55230712890625 746 92 L 746 84 C 746 83.44769287109375 746.4476928710938 83 747 83 Z M 747 99 C 747.5523071289062 99 748 99.44769287109375 748 100 C 748 100 748 108 748 108 C 748 108.5523071289062 747.5523071289062 109 747 109 C 746.4476928710938 109 746 108.5523071289062 746 108 L 746 100 C 746 99.44769287109375 746.4476928710938 99 747 99 Z M 747 115 C 747.5523071289062 115 748 115.4476928710938 748 116 C 748 116 748 124 748 124 C 748 124.5523071289062 747.5523071289062 125 747 125 C 746.4476928710938 125 746 124.5523071289062 746 124 L 746 116 C 746 115.4476928710938 746.4476928710938 115 747 115 Z M 747 131 C 747.5523071289062 131 748 131.4476928710938 748 132 C 748 132 748 140 748 140 C 748 140.5523071289062 747.5523071289062 141 747 141 C 746.4476928710938 141 746 140.5523071289062 746 140 L 746 132 C 746 131.4476928710938 746.4476928710938 131 747 131 Z M 747 147 C 747.5523071289062 147 748 147.4476928710938 748 148 C 748 148 748 156 748 156 C 748 156.5523071289062 747.5523071289062 157 747 157 C 746.4476928710938 157 746 156.5523071289062 746 156 L 746 148 C 746 147.4476928710938 746.4476928710938 147 747 147 Z M 747 163 C 747.5523071289062 163 748 163.4476928710938 748 164 C 748 164 748 172 748 172 C 748 172.5523071289062 747.5523071289062 173 747 173 C 746.4476928710938 173 746 172.5523071289062 746 172 L 746 164 C 746 163.4476928710938 746.4476928710938 163 747 163 Z M 747 179 C 747.5523071289062 179 748 179.4476928710938 748 180 C 748 180 748 188 748 188 C 748 188.5523071289062 747.5523071289062 189 747 189 C 746.4476928710938 189 746 188.5523071289062 746 188 L 746 180 C 746 179.4476928710938 746.4476928710938 179 747 179 Z M 747 195 C 747.5523071289062 195 748 195.4476928710938 748 196 C 748 196 748 204 748 204 C 748 204.5523071289062 747.5523071289062 205 747 205 C 746.4476928710938 205 746 204.5523071289062 746 204 L 746 196 C 746 195.4476928710938 746.4476928710938 195 747 195 Z M 747 211 C 747.5523071289062 211 748 211.4476928710938 748 212 C 748 212 748 220 748 220 C 748 220.5523071289062 747.5523071289062 221 747 221 C 746.4476928710938 221 746 220.5523071289062 746 220 L 746 212 C 746 211.4476928710938 746.4476928710938 211 747 211 Z M 747 227 C 747.5523071289062 227 748 227.4476928710938 748 228 C 748 228 748 236 748 236 C 748 236.5523071289062 747.5523071289062 237 747 237 C 746.4476928710938 237 746 236.5523071289062 746 236 L 746 228 C 746 227.4476928710938 746.4476928710938 227 747 227 Z M 747 243 C 747.5523071289062 243 748 243.4476928710938 748 244 C 748 244 748 252 748 252 C 748 252.5523071289062 747.5523071289062 253 747 253 C 746.4476928710938 253 746 252.5523071289062 746 252 L 746 244 C 746 243.4476928710938 746.4476928710938 243 747 243 Z M 747 259 C 747.5523071289062 259 748 259.4476928710938 748 260 C 748 260 748 268 748 268 C 748 268.5523071289062 747.5523071289062 269 747 269 C 746.4476928710938 269 746 268.5523071289062 746 268 L 746 260 C 746 259.4476928710938 746.4476928710938 259 747 259 Z M 747 275 C 747.5523071289062 275 748 275.4476928710938 748 276 C 748 276 748 284 748 284 C 748 284.5523071289062 747.5523071289062 285 747 285 C 746.4476928710938 285 746 284.5523071289062 746 284 L 746 276 C 746 275.4476928710938 746.4476928710938 275 747 275 Z M 747 291 C 747.5523071289062 291 748 291.4476928710938 748 292 C 748 292 748 300 748 300 C 748 300.5523071289062 747.5523071289062 301 747 301 C 746.4476928710938 301 746 300.5523071289062 746 300 L 746 292 C 746 291.4476928710938 746.4476928710938 291 747 291 Z M 747 307 C 747.5523071289062 307 748 307.4476928710938 748 308 C 748 308 748 316 748 316 C 748 316.5523071289062 747.5523071289062 317 747 317 C 746.4476928710938 317 746 316.5523071289062 746 316 L 746 308 C 746 307.4476928710938 746.4476928710938 307 747 307 Z M 747 323 C 747.5523071289062 323 748 323.4476928710938 748 324 C 748 324 748 332 748 332 C 748 332.5523071289062 747.5523071289062 333 747 333 C 746.4476928710938 333 746 332.5523071289062 746 332 L 746 324 C 746 323.4476928710938 746.4476928710938 323 747 323 Z M 747 339 C 747.5523071289062 339 748 339.4476928710938 748 340 C 748 340 748 348 748 348 C 748 348.5523071289062 747.5523071289062 349 747 349 C 746.4476928710938 349 746 348.5523071289062 746 348 L 746 340 C 746 339.4476928710938 746.4476928710938 339 747 339 Z M 747 355 C 747.5523071289062 355 748 355.4476928710938 748 356 C 748 356 748 364 748 364 C 748 364.5523071289062 747.5523071289062 365 747 365 C 746.4476928710938 365 746 364.5523071289062 746 364 L 746 356 C 746 355.4476928710938 746.4476928710938 355 747 355 Z M 747 371 C 747.5523071289062 371 748 371.4476928710938 748 372 C 748 372 748 380 748 380 C 748 380.5523071289062 747.5523071289062 381 747 381 C 746.4476928710938 381 746 380.5523071289062 746 380 L 746 372 C 746 371.4476928710938 746.4476928710938 371 747 371 Z M 747 387 C 747.5523071289062 387 748 387.4476928710938 748 388 C 748 388 748 396 748 396 C 748 396.5523071289062 747.5523071289062 397 747 397 C 746.4476928710938 397 746 396.5523071289062 746 396 L 746 388 C 746 387.4476928710938 746.4476928710938 387 747 387 Z M 747 403 C 747.5523071289062 403 748 403.4476928710938 748 404 C 748 404 748 412 748 412 C 748 412 748 412 748 412 L 746 412 C 746 412 746 412 746 412 L 746 404 C 746 403.4476928710938 746.4476928710938 403 747 403 Z M 732 410 L 740 410 C 740.5523071289062 410 741 410.4476928710938 741 411 C 741 411.5523071289062 740.5523071289062 412 740 412 C 740 412 732 412 732 412 C 731.4476928710938 412 731 411.5523071289062 731 411 C 731 410.4476928710938 731.4476928710938 410 732 410 Z M 716 410 L 724 410 C 724.5523071289062 410 725 410.4476928710938 725 411 C 725 411.5523071289062 724.5523071289062 412 724 412 C 724 412 716 412 716 412 C 715.4476928710938 412 715 411.5523071289062 715 411 C 715 410.4476928710938 715.4476928710938 410 716 410 Z M 700 410 L 708 410 C 708.5523071289062 410 709 410.4476928710938 709 411 C 709 411.5523071289062 708.5523071289062 412 708 412 C 708 412 700 412 700 412 C 699.4476928710938 412 699 411.5523071289062 699 411 C 699 410.4476928710938 699.4476928710938 410 700 410 Z M 684 410 L 692 410 C 692.5523071289062 410 693 410.4476928710938 693 411 C 693 411.5523071289062 692.5523071289062 412 692 412 C 692 412 684 412 684 412 C 683.4476928710938 412 683 411.5523071289062 683 411 C 683 410.4476928710938 683.4476928710938 410 684 410 Z M 668 410 L 676 410 C 676.5523071289062 410 677 410.4476928710938 677 411 C 677 411.5523071289062 676.5523071289062 412 676 412 C 676 412 668 412 668 412 C 667.4476928710938 412 667 411.5523071289062 667 411 C 667 410.4476928710938 667.4476928710938 410 668 410 Z M 652 410 L 660 410 C 660.5523071289062 410 661 410.4476928710938 661 411 C 661 411.5523071289062 660.5523071289062 412 660 412 C 660 412 652 412 652 412 C 651.4476928710938 412 651 411.5523071289062 651 411 C 651 410.4476928710938 651.4476928710938 410 652 410 Z M 636 410 L 644 410 C 644.5523071289062 410 645 410.4476928710938 645 411 C 645 411.5523071289062 644.5523071289062 412 644 412 C 644 412 636 412 636 412 C 635.4476928710938 412 635 411.5523071289062 635 411 C 635 410.4476928710938 635.4476928710938 410 636 410 Z M 620 410 L 628 410 C 628.5523071289062 410 629 410.4476928710938 629 411 C 629 411.5523071289062 628.5523071289062 412 628 412 C 628 412 620 412 620 412 C 619.4476928710938 412 619 411.5523071289062 619 411 C 619 410.4476928710938 619.4476928710938 410 620 410 Z M 604 410 L 612 410 C 612.5523071289062 410 613 410.4476928710938 613 411 C 613 411.5523071289062 612.5523071289062 412 612 412 C 612 412 604 412 604 412 C 603.4476928710938 412 603 411.5523071289062 603 411 C 603 410.4476928710938 603.4476928710938 410 604 410 Z M 588 410 L 596 410 C 596.5523071289062 410 597 410.4476928710938 597 411 C 597 411.5523071289062 596.5523071289062 412 596 412 C 596 412 588 412 588 412 C 587.4476928710938 412 587 411.5523071289062 587 411 C 587 410.4476928710938 587.4476928710938 410 588 410 Z M 572 410 L 580 410 C 580.5523071289062 410 581 410.4476928710938 581 411 C 581 411.5523071289062 580.5523071289062 412 580 412 C 580 412 572 412 572 412 C 571.4476928710938 412 571 411.5523071289062 571 411 C 571 410.4476928710938 571.4476928710938 410 572 410 Z M 556 410 L 564 410 C 564.5523071289062 410 565 410.4476928710938 565 411 C 565 411.5523071289062 564.5523071289062 412 564 412 C 564 412 556 412 556 412 C 555.4476928710938 412 555 411.5523071289062 555 411 C 555 410.4476928710938 555.4476928710938 410 556 410 Z M 540 410 L 548 410 C 548.5523071289062 410 549 410.4476928710938 549 411 C 549 411.5523071289062 548.5523071289062 412 548 412 C 548 412 540 412 540 412 C 539.4476928710938 412 539 411.5523071289062 539 411 C 539 410.4476928710938 539.4476928710938 410 540 410 Z M 524 410 L 532 410 C 532.5523071289062 410 533 410.4476928710938 533 411 C 533 411.5523071289062 532.5523071289062 412 532 412 C 532 412 524 412 524 412 C 523.4476928710938 412 523 411.5523071289062 523 411 C 523 410.4476928710938 523.4476928710938 410 524 410 Z M 508 410 L 516 410 C 516.5523071289062 410 517 410.4476928710938 517 411 C 517 411.5523071289062 516.5523071289062 412 516 412 C 516 412 508 412 508 412 C 507.4476928710938 412 507 411.5523071289062 507 411 C 507 410.4476928710938 507.4476928710938 410 508 410 Z M 492 410 L 500 410 C 500.5523071289062 410 501 410.4476928710938 501 411 C 501 411.5523071289062 500.5523071289062 412 500 412 C 500 412 492 412 492 412 C 491.4476928710938 412 491 411.5523071289062 491 411 C 491 410.4476928710938 491.4476928710938 410 492 410 Z M 476 410 L 484 410 C 484.5523071289062 410 485 410.4476928710938 485 411 C 485 411.5523071289062 484.5523071289062 412 484 412 C 484 412 476 412 476 412 C 475.4476928710938 412 475 411.5523071289062 475 411 C 475 410.4476928710938 475.4476928710938 410 476 410 Z M 460 410 L 468 410 C 468.5523071289062 410 469 410.4476928710938 469 411 C 469 411.5523071289062 468.5523071289062 412 468 412 C 468 412 460 412 460 412 C 459.4476928710938 412 459 411.5523071289062 459 411 C 459 410.4476928710938 459.4476928710938 410 460 410 Z M 444 410 L 452 410 C 452.5523071289062 410 453 410.4476928710938 453 411 C 453 411.5523071289062 452.5523071289062 412 452 412 C 452 412 444 412 444 412 C 443.4476928710938 412 443 411.5523071289062 443 411 C 443 410.4476928710938 443.4476928710938 410 444 410 Z M 428 410 L 436 410 C 436.5523071289062 410 437 410.4476928710938 437 411 C 437 411.5523071289062 436.5523071289062 412 436 412 C 436 412 428 412 428 412 C 427.4476928710938 412 427 411.5523071289062 427 411 C 427 410.4476928710938 427.4476928710938 410 428 410 Z M 412 410 L 420 410 C 420.5523071289062 410 421 410.4476928710938 421 411 C 421 411.5523071289062 420.5523071289062 412 420 412 C 420 412 412 412 412 412 C 411.4476928710938 412 411 411.5523071289062 411 411 C 411 410.4476928710938 411.4476928710938 410 412 410 Z M 396 410 L 404 410 C 404.5523071289062 410 405 410.4476928710938 405 411 C 405 411.5523071289062 404.5523071289062 412 404 412 C 404 412 396 412 396 412 C 395.4476928710938 412 395 411.5523071289062 395 411 C 395 410.4476928710938 395.4476928710938 410 396 410 Z M 380 410 L 388 410 C 388.5523071289062 410 389 410.4476928710938 389 411 C 389 411.5523071289062 388.5523071289062 412 388 412 C 388 412 380 412 380 412 C 379.4476928710938 412 379 411.5523071289062 379 411 C 379 410.4476928710938 379.4476928710938 410 380 410 Z M 364 410 L 372 410 C 372.5523071289062 410 373 410.4476928710938 373 411 C 373 411.5523071289062 372.5523071289062 412 372 412 C 372 412 364 412 364 412 C 363.4476928710938 412 363 411.5523071289062 363 411 C 363 410.4476928710938 363.4476928710938 410 364 410 Z M 348 410 L 356 410 C 356.5523071289062 410 357 410.4476928710938 357 411 C 357 411.5523071289062 356.5523071289062 412 356 412 C 356 412 348 412 348 412 C 347.4476928710938 412 347 411.5523071289062 347 411 C 347 410.4476928710938 347.4476928710938 410 348 410 Z M 332 410 L 340 410 C 340.5523071289062 410 341 410.4476928710938 341 411 C 341 411.5523071289062 340.5523071289062 412 340 412 C 340 412 332 412 332 412 C 331.4476928710938 412 331 411.5523071289062 331 411 C 331 410.4476928710938 331.4476928710938 410 332 410 Z M 316 410 L 324 410 C 324.5523071289062 410 325 410.4476928710938 325 411 C 325 411.5523071289062 324.5523071289062 412 324 412 C 324 412 316 412 316 412 C 315.4476928710938 412 315 411.5523071289062 315 411 C 315 410.4476928710938 315.4476928710938 410 316 410 Z M 300 410 L 308 410 C 308.5523071289062 410 309 410.4476928710938 309 411 C 309 411.5523071289062 308.5523071289062 412 308 412 C 308 412 300 412 300 412 C 299.4476928710938 412 299 411.5523071289062 299 411 C 299 410.4476928710938 299.4476928710938 410 300 410 Z M 284 410 L 292 410 C 292.5523071289062 410 293 410.4476928710938 293 411 C 293 411.5523071289062 292.5523071289062 412 292 412 C 292 412 284 412 284 412 C 283.4476928710938 412 283 411.5523071289062 283 411 C 283 410.4476928710938 283.4476928710938 410 284 410 Z M 268 410 L 276 410 C 276.5523071289062 410 277 410.4476928710938 277 411 C 277 411.5523071289062 276.5523071289062 412 276 412 C 276 412 268 412 268 412 C 267.4476928710938 412 267 411.5523071289062 267 411 C 267 410.4476928710938 267.4476928710938 410 268 410 Z M 252 410 L 260 410 C 260.5523071289062 410 261 410.4476928710938 261 411 C 261 411.5523071289062 260.5523071289062 412 260 412 C 260 412 252 412 252 412 C 251.4476928710938 412 251 411.5523071289062 251 411 C 251 410.4476928710938 251.4476928710938 410 252 410 Z M 236 410 L 244 410 C 244.5523071289062 410 245 410.4476928710938 245 411 C 245 411.5523071289062 244.5523071289062 412 244 412 C 244 412 236 412 236 412 C 235.4476928710938 412 235 411.5523071289062 235 411 C 235 410.4476928710938 235.4476928710938 410 236 410 Z M 220 410 L 228 410 C 228.5523071289062 410 229 410.4476928710938 229 411 C 229 411.5523071289062 228.5523071289062 412 228 412 C 228 412 220 412 220 412 C 219.4476928710938 412 219 411.5523071289062 219 411 C 219 410.4476928710938 219.4476928710938 410 220 410 Z M 204 410 L 212 410 C 212.5523071289062 410 213 410.4476928710938 213 411 C 213 411.5523071289062 212.5523071289062 412 212 412 C 212 412 204 412 204 412 C 203.4476928710938 412 203 411.5523071289062 203 411 C 203 410.4476928710938 203.4476928710938 410 204 410 Z M 188 410 L 196 410 C 196.5523071289062 410 197 410.4476928710938 197 411 C 197 411.5523071289062 196.5523071289062 412 196 412 C 196 412 188 412 188 412 C 187.4476928710938 412 187 411.5523071289062 187 411 C 187 410.4476928710938 187.4476928710938 410 188 410 Z M 172 410 L 180 410 C 180.5523071289062 410 181 410.4476928710938 181 411 C 181 411.5523071289062 180.5523071289062 412 180 412 C 180 412 172 412 172 412 C 171.4476928710938 412 171 411.5523071289062 171 411 C 171 410.4476928710938 171.4476928710938 410 172 410 Z M 156 410 L 164 410 C 164.5523071289062 410 165 410.4476928710938 165 411 C 165 411.5523071289062 164.5523071289062 412 164 412 C 164 412 156 412 156 412 C 155.4476928710938 412 155 411.5523071289062 155 411 C 155 410.4476928710938 155.4476928710938 410 156 410 Z M 140 410 L 148 410 C 148.5523071289062 410 149 410.4476928710938 149 411 C 149 411.5523071289062 148.5523071289062 412 148 412 C 148 412 140 412 140 412 C 139.4476928710938 412 139 411.5523071289062 139 411 C 139 410.4476928710938 139.4476928710938 410 140 410 Z M 124 410 L 132 410 C 132.5523071289062 410 133 410.4476928710938 133 411 C 133 411.5523071289062 132.5523071289062 412 132 412 C 132 412 124 412 124 412 C 123.4476928710938 412 123 411.5523071289062 123 411 C 123 410.4476928710938 123.4476928710938 410 124 410 Z M 108 410 L 116 410 C 116.5523071289062 410 117 410.4476928710938 117 411 C 117 411.5523071289062 116.5523071289062 412 116 412 C 116 412 108 412 108 412 C 107.4476928710938 412 107 411.5523071289062 107 411 C 107 410.4476928710938 107.4476928710938 410 108 410 Z M 92 410 L 100 410 C 100.5523071289062 410 101 410.4476928710938 101 411 C 101 411.5523071289062 100.5523071289062 412 100 412 C 100 412 92 412 92 412 C 91.44769287109375 412 91 411.5523071289062 91 411 C 91 410.4476928710938 91.44769287109375 410 92 410 Z M 76 410 L 84 410 C 84.55230712890625 410 85 410.4476928710938 85 411 C 85 411.5523071289062 84.55230712890625 412 84 412 C 84 412 76 412 76 412 C 75.44769287109375 412 75 411.5523071289062 75 411 C 75 410.4476928710938 75.44769287109375 410 76 410 Z M 60 410 L 68 410 C 68.55230712890625 410 69 410.4476928710938 69 411 C 69 411.5523071289062 68.55230712890625 412 68 412 C 68 412 60 412 60 412 C 59.44769287109375 412 59 411.5523071289062 59 411 C 59 410.4476928710938 59.44769287109375 410 60 410 Z M 44 410 L 52 410 C 52.55230712890625 410 53 410.4476928710938 53 411 C 53 411.5523071289062 52.55230712890625 412 52 412 C 52 412 44 412 44 412 C 43.44769287109375 412 43 411.5523071289062 43 411 C 43 410.4476928710938 43.44769287109375 410 44 410 Z M 28 410 L 36 410 C 36.55230712890625 410 37 410.4476928710938 37 411 C 37 411.5523071289062 36.55230712890625 412 36 412 C 36 412 28 412 28 412 C 27.44769287109375 412 27 411.5523071289062 27 411 C 27 410.4476928710938 27.44769287109375 410 28 410 Z M 12 410 L 20 410 C 20.55230712890625 410 21 410.4476928710938 21 411 C 21 411.5523071289062 20.55230712890625 412 20 412 C 20 412 12 412 12 412 C 11.44769287109375 412 11 411.5523071289062 11 411 C 11 410.4476928710938 11.44769287109375 410 12 410 Z M 1 407 C 1.55230712890625 407 2 407.4476928710938 2 408 L 2 410 L 4 410 C 4.55230712890625 410 5 410.4476928710938 5 411 C 5 411.5523071289062 4.55230712890625 412 4 412 C 4 412 0 412 0 412 L 0 408 C 0 407.4476928710938 0.44769287109375 407 1 407 Z M 1 391 C 1.55230712890625 391 2 391.4476928710938 2 392 L 2 400 C 2 400.5523071289062 1.55230712890625 401 1 401 C 0.44769287109375 401 0 400.5523071289062 0 400 L 0 392 C 0 391.4476928710938 0.44769287109375 391 1 391 Z M 1 375 C 1.55230712890625 375 2 375.4476928710938 2 376 L 2 384 C 2 384.5523071289062 1.55230712890625 385 1 385 C 0.44769287109375 385 0 384.5523071289062 0 384 L 0 376 C 0 375.4476928710938 0.44769287109375 375 1 375 Z M 1 359 C 1.55230712890625 359 2 359.4476928710938 2 360 L 2 368 C 2 368.5523071289062 1.55230712890625 369 1 369 C 0.44769287109375 369 0 368.5523071289062 0 368 L 0 360 C 0 359.4476928710938 0.44769287109375 359 1 359 Z M 1 343 C 1.55230712890625 343 2 343.4476928710938 2 344 L 2 352 C 2 352.5523071289062 1.55230712890625 353 1 353 C 0.44769287109375 353 0 352.5523071289062 0 352 L 0 344 C 0 343.4476928710938 0.44769287109375 343 1 343 Z M 1 327 C 1.55230712890625 327 2 327.4476928710938 2 328 L 2 336 C 2 336.5523071289062 1.55230712890625 337 1 337 C 0.44769287109375 337 0 336.5523071289062 0 336 L 0 328 C 0 327.4476928710938 0.44769287109375 327 1 327 Z M 1 311 C 1.55230712890625 311 2 311.4476928710938 2 312 L 2 320 C 2 320.5523071289062 1.55230712890625 321 1 321 C 0.44769287109375 321 0 320.5523071289062 0 320 L 0 312 C 0 311.4476928710938 0.44769287109375 311 1 311 Z M 1 295 C 1.55230712890625 295 2 295.4476928710938 2 296 L 2 304 C 2 304.5523071289062 1.55230712890625 305 1 305 C 0.44769287109375 305 0 304.5523071289062 0 304 L 0 296 C 0 295.4476928710938 0.44769287109375 295 1 295 Z M 1 279 C 1.55230712890625 279 2 279.4476928710938 2 280 L 2 288 C 2 288.5523071289062 1.55230712890625 289 1 289 C 0.44769287109375 289 0 288.5523071289062 0 288 L 0 280 C 0 279.4476928710938 0.44769287109375 279 1 279 Z M 1 263 C 1.55230712890625 263 2 263.4476928710938 2 264 L 2 272 C 2 272.5523071289062 1.55230712890625 273 1 273 C 0.44769287109375 273 0 272.5523071289062 0 272 L 0 264 C 0 263.4476928710938 0.44769287109375 263 1 263 Z M 1 247 C 1.55230712890625 247 2 247.4476928710938 2 248 L 2 256 C 2 256.5523071289062 1.55230712890625 257 1 257 C 0.44769287109375 257 0 256.5523071289062 0 256 L 0 248 C 0 247.4476928710938 0.44769287109375 247 1 247 Z M 1 231 C 1.55230712890625 231 2 231.4476928710938 2 232 L 2 240 C 2 240.5523071289062 1.55230712890625 241 1 241 C 0.44769287109375 241 0 240.5523071289062 0 240 L 0 232 C 0 231.4476928710938 0.44769287109375 231 1 231 Z M 1 215 C 1.55230712890625 215 2 215.4476928710938 2 216 L 2 224 C 2 224.5523071289062 1.55230712890625 225 1 225 C 0.44769287109375 225 0 224.5523071289062 0 224 L 0 216 C 0 215.4476928710938 0.44769287109375 215 1 215 Z M 1 199 C 1.55230712890625 199 2 199.4476928710938 2 200 L 2 208 C 2 208.5523071289062 1.55230712890625 209 1 209 C 0.44769287109375 209 0 208.5523071289062 0 208 L 0 200 C 0 199.4476928710938 0.44769287109375 199 1 199 Z M 1 183 C 1.55230712890625 183 2 183.4476928710938 2 184 L 2 192 C 2 192.5523071289062 1.55230712890625 193 1 193 C 0.44769287109375 193 0 192.5523071289062 0 192 L 0 184 C 0 183.4476928710938 0.44769287109375 183 1 183 Z M 1 167 C 1.55230712890625 167 2 167.4476928710938 2 168 L 2 176 C 2 176.5523071289062 1.55230712890625 177 1 177 C 0.44769287109375 177 0 176.5523071289062 0 176 L 0 168 C 0 167.4476928710938 0.44769287109375 167 1 167 Z M 1 151 C 1.55230712890625 151 2 151.4476928710938 2 152 L 2 160 C 2 160.5523071289062 1.55230712890625 161 1 161 C 0.44769287109375 161 0 160.5523071289062 0 160 L 0 152 C 0 151.4476928710938 0.44769287109375 151 1 151 Z M 1 135 C 1.55230712890625 135 2 135.4476928710938 2 136 L 2 144 C 2 144.5523071289062 1.55230712890625 145 1 145 C 0.44769287109375 145 0 144.5523071289062 0 144 L 0 136 C 0 135.4476928710938 0.44769287109375 135 1 135 Z M 1 119 C 1.55230712890625 119 2 119.4476928710938 2 120 L 2 128 C 2 128.5523071289062 1.55230712890625 129 1 129 C 0.44769287109375 129 0 128.5523071289062 0 128 L 0 120 C 0 119.4476928710938 0.44769287109375 119 1 119 Z M 1 103 C 1.55230712890625 103 2 103.4476928710938 2 104 L 2 112 C 2 112.5523071289062 1.55230712890625 113 1 113 C 0.44769287109375 113 0 112.5523071289062 0 112 L 0 104 C 0 103.4476928710938 0.44769287109375 103 1 103 Z M 1 87 C 1.55230712890625 87 2 87.44769287109375 2 88 L 2 96 C 2 96.55230712890625 1.55230712890625 97 1 97 C 0.44769287109375 97 0 96.55230712890625 0 96 L 0 88 C 0 87.44769287109375 0.44769287109375 87 1 87 Z M 1 71 C 1.55230712890625 71 2 71.44769287109375 2 72 L 2 80 C 2 80.55230712890625 1.55230712890625 81 1 81 C 0.44769287109375 81 0 80.55230712890625 0 80 L 0 72 C 0 71.44769287109375 0.44769287109375 71 1 71 Z M 1 55 C 1.55230712890625 55 2 55.44769287109375 2 56 L 2 64 C 2 64.55230712890625 1.55230712890625 65 1 65 C 0.44769287109375 65 0 64.55230712890625 0 64 L 0 56 C 0 55.44769287109375 0.44769287109375 55 1 55 Z M 1 39 C 1.55230712890625 39 2 39.44769287109375 2 40 L 2 48 C 2 48.55230712890625 1.55230712890625 49 1 49 C 0.44769287109375 49 0 48.55230712890625 0 48 L 0 40 C 0 39.44769287109375 0.44769287109375 39 1 39 Z M 1 23 C 1.55230712890625 23 2 23.44769287109375 2 24 L 2 32 C 2 32.55230712890625 1.55230712890625 33 1 33 C 0.44769287109375 33 0 32.55230712890625 0 32 L 0 24 C 0 23.44769287109375 0.44769287109375 23 1 23 Z M 1 7 C 1.55230712890625 7 2 7.44769287109375 2 8 L 2 16 C 2 16.55230712890625 1.55230712890625 17 1 17 C 0.44769287109375 17 0 16.55230712890625 0 16 L 0 8 C 0 7.44769287109375 0.44769287109375 7 1 7 Z" stroke="none" fill="#707070"/>
    </g>
    <g id="Group_173776" data-name="Group 173776" transform="translate(0 -19)">
      <g id="Group_173775" data-name="Group 173775" transform="translate(224 174.254)">
        <g id="Group_173772" data-name="Group 173772" transform="translate(-3039 17381.645)">
          <circle id="Ellipse_3644" data-name="Ellipse 3644" cx="91" cy="91" r="91" transform="translate(0 0.355)" fill="#1592c9"/>
          <g id="Group_173762" data-name="Group 173762" transform="translate(45.422 38.933)">
            <path id="Path_91521" data-name="Path 91521" d="M-471.837,168.949a1.548,1.548,0,0,1-1.26-.174h1.224A.52.52,0,0,0-471.837,168.949Z" transform="translate(520.843 -168.775)" fill="#fff"/>
            <path id="Path_91522" data-name="Path 91522" d="M-486.638,168.775c-.136.228-.272.269-.408,0Z" transform="translate(531.12 -168.775)" fill="#fff"/>
            <path id="Path_91523" data-name="Path 91523" d="M-563.08,441.831c-.865-5.225-1.718-10.452-2.62-15.67a52.446,52.446,0,0,0-1.651-8.383,18.4,18.4,0,0,0-12.19-11.914q-6.605-2.2-13.205-4.423c-.4-.132-.826-.131-.85-.783-.06-1.651-.1-1.65-1.732-1.65a7.611,7.611,0,0,1-.917-.007c-.558-.068-.693.183-.676.7a10.006,10.006,0,0,1-.041,2.543c-.759,3.288-1.619,6.554-2.443,9.833-.123-.039-.211-.038-.247-.082-1.331-1.589-2.652-3.186-3.986-4.774-.872-1.039-1.575-2.474-2.694-2.981-1.161-.526-2.731-.146-4.122-.162a.727.727,0,0,1-.1,0,1.029,1.029,0,0,0-1.037.471c-.916,1.138-1.864,2.251-2.8,3.373l-3.61,4.325c-.619-2.495-1.207-4.812-1.766-7.138a15.648,15.648,0,0,1-.769-3.773c.017-2.331,0-2.288-2.288-2.348-.851-.022-1.211.212-1.037,1.055.194.937-.284,1.266-1.109,1.532q-6.479,2.1-12.926,4.3c-7.088,2.424-11.471,7.292-12.867,14.673-.984,5.2-1.788,10.439-2.641,15.666-.36,2.207-.868,4.392-1.022,6.63h91.412A9.648,9.648,0,0,0-563.08,441.831Zm-51.079-21.341c-1.025,6.021-1.8,12.084-2.635,18.136-.1.7-.348.852-1.015.848q-8.412-.042-16.823,0c-.788.005-.875-.266-.8-.935.469-4.39.894-8.785,1.373-13.173.075-.682-.046-.909-.776-.992-2.43-.279-2.471-.322-2.732,2.044-.417,3.78-.784,7.567-1.14,11.354-.159,1.691-.123,1.695-1.76,1.695-3.059,0-6.118-.022-9.176.016-.744.01-.88-.155-.749-.9,1.051-6.015,1.92-12.065,3.1-18.054,1.132-5.735,4.74-9.476,10.228-11.377,4.258-1.475,8.551-2.846,12.816-4.3.672-.23.9-.18,1.082.573,1.121,4.641,2.306,9.267,3.514,14.074,1.19-1.427,2.274-2.686,3.305-3.987.4-.51.545-.4.923.057A5.623,5.623,0,0,1-614.159,420.491Zm7.135-2.566c1,6.849,1.972,13.7,2.983,20.55.121.821-.1,1.048-.915,1-1.253-.069-2.513-.018-3.77-.018-1.291,0-2.584-.046-3.873.017-.749.037-.918-.2-.812-.909.591-3.96,1.145-7.925,1.716-11.888.431-2.989.861-5.978,1.309-8.964a1.473,1.473,0,0,0-.324-1.122c-.862-1.259-1.678-2.55-2.55-3.8a.706.706,0,0,1,.036-1.037c1.091-1.255,2.137-2.551,3.216-3.816a1.849,1.849,0,0,1,2.574.006c1.079,1.266,2.123,2.563,3.216,3.817a.706.706,0,0,1,.025,1.037c-.87,1.254-1.675,2.553-2.554,3.8A1.68,1.68,0,0,0-607.024,417.924Zm39.339,21.547c-3.3-.026-6.595-.045-9.891.011-.812.014-1.026-.274-1.095-1-.412-4.4-.882-8.787-1.269-13.186-.079-.9-.279-1.185-1.253-1.07-2.172.258-2.221.2-2.02,2.36.362,3.889.75,7.776,1.192,11.657.109.956-.047,1.255-1.1,1.244-5.506-.06-11.012-.041-16.519-.012-.672,0-.915-.157-1.012-.852-.94-6.758-1.919-13.51-2.894-20.263-.1-.715.45-1.1.766-1.6,1.177-1.83,1.195-1.82,2.591-.154.72.86,1.435,1.723,2.155,2.582a2.105,2.105,0,0,0,.273.2c1.179-4.7,2.36-9.328,3.483-13.969.177-.734.383-.824,1.076-.584,4.611,1.594,9.291,3,13.845,4.737,5.307,2.026,8.384,6.081,9.387,11.629,1.05,5.81,1.939,11.649,2.942,17.467C-566.908,439.353-567.044,439.477-567.685,439.472Z" transform="translate(654.428 -338.369)" fill="#fff"/>
            <path id="Path_91524" data-name="Path 91524" d="M-535.129,199.637a1.579,1.579,0,0,1-.554-1.31c.018-3.025.034-6.051,0-9.075a8.407,8.407,0,0,0-6.3-8.36,1.661,1.661,0,0,1-1.25-1.118c-2.855-6.2-7.61-9.9-14.433-10.825-.4-.2-.867.08-1.26-.174h-3.265a.265.265,0,0,1-.408,0h-1.02c-.052.227-.242.185-.4.206a24.821,24.821,0,0,0-14.437,6.88,24.755,24.755,0,0,0-7.428,14.159,48.956,48.956,0,0,0-.357,8.136,1.912,1.912,0,0,1-.651,1.576,7.9,7.9,0,0,0-2.434,8.057,7.982,7.982,0,0,0,6.328,6.183,1.457,1.457,0,0,1,1.218,1.116,16.4,16.4,0,0,0,3.767,6.329q3.5,3.632,7.1,7.173a8.122,8.122,0,0,0,5.533,2.472c2.954.112,5.908.117,8.863,0a8.092,8.092,0,0,0,5.452-2.42q3.432-3.345,6.767-6.788a17.384,17.384,0,0,0,4.232-6.984c.182-.581.523-.737,1.074-.868a8.041,8.041,0,0,0,6.376-6.144A7.954,7.954,0,0,0-535.129,199.637Zm-47.718,10.872a4.876,4.876,0,0,1-3.384-4.391,5.146,5.146,0,0,1,2.665-4.7c.594-.308.736-.185.73.465C-582.861,204.731-582.847,207.584-582.847,210.51Zm40.266.386A13.831,13.831,0,0,1-546.265,219c-2.325,2.479-4.762,4.853-7.176,7.249a5.127,5.127,0,0,1-3.78,1.5q-3.723-.019-7.446,0a5.235,5.235,0,0,1-3.866-1.543c-2.27-2.25-4.544-4.5-6.764-6.8A14.838,14.838,0,0,1-579.5,209c-.043-2.482.017-4.965-.028-7.446-.012-.667.217-.783.811-.767,1.461.039,2.924.013,4.836.013a30.292,30.292,0,0,0,18.376-5.478,24.806,24.806,0,0,0,2.021-1.547c.451-.39.652-.351.961.175a13.532,13.532,0,0,0,6.816,5.867,12.218,12.218,0,0,0,2.737.756c.425.063.576.214.564.641C-542.494,204.441-542.221,207.676-542.58,210.9Zm3.005-13.344c-3.056-.131-5.921-.748-8.22-2.972a22.1,22.1,0,0,1-3.135-4.5c-.409-.659-.8-1.329-1.276-2.122a33.382,33.382,0,0,1-6.916,5.691A27.274,27.274,0,0,1-573,197.409c-3.091.025-6.187-.163-9.273.133-.442.043-.566-.08-.59-.536-.407-7.553,1.6-14.187,7.413-19.335a21.814,21.814,0,0,1,16.042-5.485,14.487,14.487,0,0,1,11.338,5.894,14.325,14.325,0,0,1,2.416,5c.167.6.389.854,1.081.861,3.483.031,5.472,2.064,5.49,5.538.012,2.448.006,4.9,0,7.343C-539.081,197.157-538.913,197.58-539.575,197.552Zm3.885,8.563a4.881,4.881,0,0,1-3.386,4.4c0-2.925.014-5.778-.011-8.631-.005-.646.132-.775.729-.467A5.134,5.134,0,0,1-535.69,206.115Z" transform="translate(606.667 -168.775)" fill="#fff"/>
          </g>
        </g>
        <g id="Group_173773" data-name="Group 173773" transform="translate(-2316.844 17381.645)">
          <circle id="Ellipse_3645" data-name="Ellipse 3645" cx="91" cy="91" r="91" transform="translate(-0.156 0.355)" fill="#1592c9"/>
          <g id="Group_173764" data-name="Group 173764" transform="translate(45.422 35.04)">
            <path id="Path_91525" data-name="Path 91525" d="M-521.967,598.362c.325-.458.806-.256,1.216-.256q35-.014,70,0c.45,0,.976-.226,1.348.253Z" transform="translate(531.203 -485.732)" fill="#fff"/>
            <path id="Path_91526" data-name="Path 91526" d="M-548.217,526.926a1.166,1.166,0,0,1,0,1.583Z" transform="translate(548.217 -439.629)" fill="#fff"/>
            <path id="Path_91527" data-name="Path 91527" d="M-457.181,365.857c-.758-7.3-4.783-12.482-11.4-15.618a34.4,34.4,0,0,0-8.176-2.435,7.73,7.73,0,0,1-5.819-4.248,5.42,5.42,0,0,0-7.718-2.457c-.043.023-.143-.062-.278-.126a26.859,26.859,0,0,0-.019-2.728,2.642,2.642,0,0,1,1.238-2.618,20.884,20.884,0,0,0,8.086-13.576c.164-.987.471-1.169,1.382-1.179,3.383-.038,5.361-2.072,5.408-5.465q.025-1.78-.049-3.56a4.377,4.377,0,0,0-1.755-3.4,1.669,1.669,0,0,1-.676-1.558c.013-3.342.054-6.686-.015-10.026a18.6,18.6,0,0,0-16.9-17.851c-5.09-.363-10.2-.117-15.3-.121a18.649,18.649,0,0,0-19.059,18.98c-.019,3.034-.008,6.069,0,9.1a1.574,1.574,0,0,1-.543,1.368c-2.373,2.093-2.829,8.128-.849,10.6a4.732,4.732,0,0,0,3.226,1.853,10.515,10.515,0,0,0,1.576.094c.556-.02.766.2.844.743a21.326,21.326,0,0,0,8.829,14.562.964.964,0,0,1,.511.838c-.014,1.357-.005,2.714-.005,4.147-.27-.09-.437-.132-.593-.2a5.251,5.251,0,0,0-7.012,1.993c-.672.977-1.349,1.952-1.964,2.964a2.33,2.33,0,0,1-1.52,1.114c-2.421.622-4.83,1.288-7.246,1.928a19.552,19.552,0,0,0-14.068,12.5c-.5,1.327-.793,2.736-1.182,4.108v.528a2.018,2.018,0,0,1,0,1.583v2.9a2.082,2.082,0,0,0,2.572,1.291c1.219-.379,1.457-1.394,1.39-2.538-.026-.438-.007-.879,0-1.319a15.547,15.547,0,0,1,11.12-14.856c2.643-.8,5.336-1.431,7.983-2.218a1.837,1.837,0,0,1,2,.453q4.269,3.832,8.615,7.578a6.115,6.115,0,0,0,8.289.067c.981-.814,1.958-1.637,2.879-2.517.549-.524.943-.613,1.523-.035.745.743,1.589,1.386,2.384,2.08,3.188,2.783,6.178,2.754,9.387-.071,2.739-2.411,5.508-4.788,8.227-7.22a1.545,1.545,0,0,1,1.648-.393c2.53.719,5.1,1.319,7.609,2.088,6.591,2.017,10.668,6.394,11.483,13.284a100.883,100.883,0,0,1,.122,15.548,6.041,6.041,0,0,1-6.208,5.63c-1.011.021-2.028-.062-3.033.023-.958.081-1.285-.172-1.253-1.2.082-2.636.04-5.277.022-7.915-.01-1.488-.84-2.428-2.048-2.388-1.179.038-1.894.908-1.9,2.369-.012,2.682-.04,5.366.018,8.047.019.881-.253,1.088-1.1,1.086q-26.122-.036-52.244,0c-.815,0-1.04-.2-1.024-1.018.053-2.637.024-5.277.018-7.915,0-1.64-.734-2.581-1.981-2.578s-1.97.943-1.974,2.586c-.006,2.682,0,5.365,0,8.048,0,.427.114.894-.615.869-1.493-.053-3,.07-4.48-.088-2.759-.293-5.818-2.66-5.463-7.3.085-1.112-.07-2.145-1.28-2.614s-1.961.254-2.676,1.056V383a18.266,18.266,0,0,0,.657,2.621,9.855,9.855,0,0,0,7.787,5.823h.792a2.693,2.693,0,0,1,1.421-.13q34.862-.011,69.725,0a2.692,2.692,0,0,1,1.421.13h.528c.078-.2.253-.2.425-.226a9.625,9.625,0,0,0,8.277-8.376A84.594,84.594,0,0,0-457.181,365.857Zm-23.242-54.663c.752.017,1.711-.257,1.913.855a11.863,11.863,0,0,1,.023,2.093h.058c0,.482.028.965-.006,1.445a1.6,1.6,0,0,1-2.185,1.348c-.431-.155-.317-.474-.32-.749-.014-1.314-.035-2.629.011-3.941C-480.915,311.867-481.3,311.174-480.423,311.194Zm-44.584,5.764c-.984-.039-1.754-.216-1.765-1.405-.009-1-.038-2.008.007-3.008a1.59,1.59,0,0,1,2.273-1.354c.356.14.275.393.279.629.012.741,0,1.482,0,2.224a14.054,14.054,0,0,1-.012,1.569C-524.281,316.151-523.8,317.006-525.007,316.958Zm.958-9.767c-.32-.208-.212-.551-.213-.843-.009-1.714,0-3.428,0-5.457.067-2.094-.186-4.519.433-6.9a14.528,14.528,0,0,1,13.342-11.052,147.871,147.871,0,0,1,16.076.015,14.552,14.552,0,0,1,13.485,14.169c.068,3.075,0,6.152.04,9.228.008.678-.171.885-.878.9-2.538.045-3.245-.6-3.252-3.1,0-1.1.038-2.2-.023-3.3a5.9,5.9,0,0,0-8.34-5.322,24.246,24.246,0,0,1-8.806,1.956,22.3,22.3,0,0,1-8.984-1.717c-4.986-2.055-8.993.616-9.007,5.994,0,1.186.05,2.378-.041,3.557C-520.336,306.816-522.813,307.995-524.049,307.191Zm4,14.063a44.809,44.809,0,0,1-.2-5.239c0-.768.022-1.253,0-1.735-.1-1.909-.241-3.655,2.012-4.764,1.423-.7,1.956-2.423,2-4.089.037-1.361-.007-2.725.027-4.087.049-1.954,1.3-2.825,3.081-2.085a26.492,26.492,0,0,0,21.111-.009c1.741-.724,2.969.11,3.035,1.99.048,1.361-.009,2.725.046,4.086a5.875,5.875,0,0,0,3.288,5.182c.32.176.776.206.753.766-.15,3.722.37,7.473-.467,11.165a17.673,17.673,0,0,1-17.958,13.827A17.747,17.747,0,0,1-520.049,321.254Zm11.033,34.918a2.034,2.034,0,0,1-2.774-.058c-2.895-2.489-5.749-5.023-8.637-7.52-.44-.38-.407-.663-.091-1.092.545-.74,1.014-1.535,1.545-2.286.748-1.057,1.389-1.18,2.414-.384,3.6,2.8,7.182,5.623,10.867,8.512C-506.825,354.314-507.89,355.282-509.017,356.172Zm7.339-6.11c-.64.533-1.06.628-1.767.042-2.125-1.762-4.321-3.44-6.513-5.12a1.544,1.544,0,0,1-.733-1.406c.051-1.577.017-3.157.017-4.915a21.727,21.727,0,0,0,13.827.782c2.319-.634,2.141-.61,2.372,1.8a4.921,4.921,0,0,1-2.531,5.192A43.709,43.709,0,0,0-501.678,350.063Zm14.858.335c-2.022,1.754-4.021,3.534-6.039,5.291-1.524,1.327-2.384,1.32-3.9,0q-1.24-1.081-2.474-2.168a1.1,1.1,0,0,1-.151-.248q5.43-4.258,10.867-8.518a1.41,1.41,0,0,1,2.251.338C-484.038,348-484.037,347.984-486.82,350.4Z" transform="translate(548.217 -278.81)" fill="#fff"/>
          </g>
        </g>
        <g id="Group_173766" data-name="Group 173766" transform="translate(-2674 17391.396)">
          <path id="Path_91528" data-name="Path 91528" d="M-465.25,485.2a.249.249,0,0,0,.31-.037,1.815,1.815,0,0,1-.31,1.723Z" transform="translate(465.25 -359.123)" fill="#473810"/>
          <path id="Path_91529" data-name="Path 91529" d="M-82.036,485.173a.232.232,0,0,0,.312.035v1.686A1.813,1.813,0,0,1-82.036,485.173Z" transform="translate(254.328 -359.126)" fill="#473810"/>
          <path id="Path_91530" data-name="Path 91530" d="M-298.094,337.512a3.012,3.012,0,0,0,2.658,2.825,2.445,2.445,0,0,0,2.789-2.089v-5.731c-.354-.566-.093-1.193-.174-1.785a9.134,9.134,0,0,0-.979-4.217,16.178,16.178,0,0,0-9.67-8.587q-6.951-2.315-13.9-4.645c-.737-.248-1.634-.419-1.712-1.389-.159-2-.33-3.811,1.708-5.373a17.673,17.673,0,0,0,7.316-14.819c-.038-3.93-.02-7.86,0-11.79.048-12.627-13.649-22.865-26.95-17.07a16.98,16.98,0,0,0-6,4.253c-.631.706-1.263,1.108-2.018.05a18.017,18.017,0,0,0-9.817-6.709c-4.077-1.254-8.1-2.672-12.15-4.026-.678-.227-1.409-.371-1.66-1.239a5.249,5.249,0,0,1,1.829-5.625,19.088,19.088,0,0,0,7.166-14.142c.182-4.147.182-8.314,0-12.461a18.952,18.952,0,0,0-7.009-14.207,16.377,16.377,0,0,0-9.923-3.986h-4.72c-1.288.365-2.653.156-3.943.608a19.445,19.445,0,0,0-13.026,18.264c-.015,3.763-.072,7.527.013,11.288a18.611,18.611,0,0,0,6.976,14.386,5.255,5.255,0,0,1,2.153,4.718,2.289,2.289,0,0,1-1.9,2.491c-4.4,1.349-8.743,2.893-13.124,4.312a17.367,17.367,0,0,0-8.421,5.9c-1.144,1.442-1.223,1.468-2.548.149-5.352-5.328-11.744-6.735-18.914-4.886-7.865,2.027-14.072,10.314-13.821,17.923.137,4.151.043,8.311.018,12.466a16.287,16.287,0,0,0,1.592,7,17.887,17.887,0,0,0,6.1,7.489c1.916,1.309,1.42,3.139,1.353,4.868-.055,1.414-1.413,1.434-2.37,1.759-4.36,1.48-8.717,2.973-13.1,4.374a14.391,14.391,0,0,0-4.759,2.467c-3.324,2.7-5.883,5.867-6.042,10.414-.081.589.18,1.212-.174,1.774v5.731c.677,1.693,1.375,2.215,2.791,2.091a3.042,3.042,0,0,0,2.64-2.662,7.772,7.772,0,0,0,.087-1.344c.007-.787,0-1.573.006-2.359.067-5.031,2.608-8.744,7.31-10.437,4.174-1.5,8.415-2.819,12.615-4.251a1.885,1.885,0,0,1,2.544.889,10.048,10.048,0,0,0,3.574,3.5,10.12,10.12,0,0,0,13.493-3.34c.659-1.03,1.329-1.514,2.614-1.068,4.245,1.473,8.533,2.82,12.774,4.3a10.358,10.358,0,0,1,5.646,4.567c.535.894.533,1.362-.578,1.676-1.512.427-3,.955-4.48,1.478a17.527,17.527,0,0,0-9.723,7.894c-1.51,2.611-1.821,5.51-2.158,8.414-.227,1.967-.248,1.974-2.274,1.976q-7.92.008-15.84,0c-3.2,0-6.4-.035-9.6.017-1.309.021-1.841-.468-1.771-1.781.065-1.232.027-2.47,0-3.706a2.943,2.943,0,0,0-.531-1.91,2.755,2.755,0,0,0-2.621-1.212,2.939,2.939,0,0,0-2.453,2.047,13.874,13.874,0,0,0-.355,4.845c0,1.2-.419,1.759-1.675,1.713-1.514-.057-3.034-.057-4.548,0a1.989,1.989,0,0,1-2.307-1.442,2.649,2.649,0,0,0-2.795-1.762,2.376,2.376,0,0,0-2.385,1.969v5.057a2.74,2.74,0,0,0,3.1,2.215c.672-.018,1.347.005,2.02.005h40.4c.561,0,1.124.029,1.683,0,1.261-.064,1.882.461,1.815,1.771-.04.783,0,1.571,0,2.357.009,4.545-.037,9.091.024,13.636.023,1.68.307,3.278,2.2,3.949h70.12c.5-.34,1.119-.467,1.489-1.048a7.43,7.43,0,0,0-.118-6.483,2.727,2.727,0,0,0-4.819.259,2.545,2.545,0,0,1-2.992,1.721c-.559-.041-1.123,0-1.685-.008-4.665-.051-4.146.547-4.183-4.1-.027-3.37.079-6.743-.05-10.111a2.7,2.7,0,0,0-2.49-2.9,2.956,2.956,0,0,0-3.312,2.239,7.414,7.414,0,0,0-.2,2.173c-.008,3.539.013,7.079-.01,10.618-.012,1.894-.172,2.072-1.986,2.074q-14.663.021-29.326,0c-1.919,0-2.051-.156-2.061-2.167-.017-3.6,0-7.191-.009-10.787a5.374,5.374,0,0,0-.413-2.469,2.873,2.873,0,0,0-3.189-1.66,2.666,2.666,0,0,0-2.372,2.472,12.6,12.6,0,0,0-.078,1.851c0,3.539.011,7.079-.006,10.618-.009,1.992-.149,2.124-2.082,2.146q-2.106.024-4.214,0c-1.984-.018-2.126-.14-2.132-2.093q-.025-8.006,0-16.012a46.806,46.806,0,0,1,.356-8.068,10.025,10.025,0,0,1,6.644-8.233c4.318-1.6,8.735-2.927,13.095-4.417a1.883,1.883,0,0,1,2.516.912c4.326,6.437,12.776,6.415,17.175-.046a1.889,1.889,0,0,1,2.538-.855c4.3,1.48,8.663,2.8,12.937,4.358a10.056,10.056,0,0,1,6.755,8.331c.589,3.464.272,6.951.356,10.428.03,1.235-.072,2.475.061,3.706a3,3,0,0,0,2.572,2.718,2.863,2.863,0,0,0,3-1.973,6.338,6.338,0,0,0,.417-2.139c.14-2.8.143-2.8,2.977-2.806h1.011q20.731,0,41.462-.005c2.486,0,2.843-.24,3.62-2.18v-5.057a2.377,2.377,0,0,0-2.383-1.969,2.648,2.648,0,0,0-2.795,1.759,1.988,1.988,0,0,1-2.3,1.445c-1.457-.06-2.923-.076-4.378,0-1.406.076-1.891-.516-1.855-1.879a12.865,12.865,0,0,0-.3-4.514,3.027,3.027,0,0,0-3.165-2.229,2.972,2.972,0,0,0-2.482,2.953c-.061,1.121-.015,2.246-.022,3.368-.013,2.237-.043,2.28-2.246,2.282-7.8.006-15.609.018-23.413,0-4.407-.013-3.575.483-4.01-3.614a16.3,16.3,0,0,0-9.488-13.717,47.281,47.281,0,0,0-6.642-2.412c-1.045-.342-1.175-.747-.621-1.678a10.64,10.64,0,0,1,5.952-4.694c4.092-1.4,8.213-2.706,12.293-4.133a2.027,2.027,0,0,1,2.787.989,10.058,10.058,0,0,0,16.962.022,2.1,2.1,0,0,1,2.826-.982c4.208,1.4,8.446,2.72,12.61,4.245a10.525,10.525,0,0,1,7.145,10.207A33.446,33.446,0,0,0-298.094,337.512Zm-94.629-102.553c-.049-4.652-.508-9.342.273-13.956A13.7,13.7,0,0,1-377.8,209.844,13.873,13.873,0,0,1-365.154,223.1c.063,2.02.01,4.044.01,6.744-.128,1.952.245,4.594-.251,7.219-1.334,7.058-7.541,11.719-14.952,11.189A13.721,13.721,0,0,1-392.723,234.959ZM-383.6,253.6c-.031-.681.368-.71.868-.609a18.236,18.236,0,0,0,7.513,0c.809-.172.972.188.933.886-.038.671-.008,1.346-.008,2.019l.06,0a25.593,25.593,0,0,1-.23,3.009A4.576,4.576,0,0,1-379,262.651a4.592,4.592,0,0,1-4.424-3.684A32.693,32.693,0,0,1-383.6,253.6Zm-20.814,13.32c5.143-2.031,10.468-3.6,15.706-5.392,1.029-.352.944.565,1.186,1a9.652,9.652,0,0,0,15.78,1.916,6.118,6.118,0,0,0,1.231-1.789c.431-1.136.992-1.3,2.126-.9,4.33,1.511,8.7,2.906,13.055,4.352A10.939,10.939,0,0,1-347.779,274a4.53,4.53,0,0,1,.2,1.993c-.957,5.353-.445,10.748-.437,16.125,0,.984-.238,1.247-1.19,1.232-3.143-.049-6.289-.077-9.431.012-1.163.033-1.45-.375-1.611-1.456-1.242-8.338-6.589-14.246-14.536-16.175a18.872,18.872,0,0,0-22.73,15.171,7.571,7.571,0,0,0-.2,1.329c.021.872-.327,1.135-1.2,1.121-3.311-.052-6.625-.04-9.936-.008-.8.008-1.055-.217-1.03-1.055.067-2.3.023-4.6.023-6.9a54.508,54.508,0,0,0-.415-9.4C-410.8,272.839-408.047,268.352-404.414,266.917Zm-19.7,48.244a4.466,4.466,0,0,1-4.656,4.307,4.473,4.473,0,0,1-4.468-4.331c-.073-1.622-.584-3.586.129-4.784.781-1.313,2.731.078,4.2-.04,1.561-.126,3.111-.316,4.813-.528C-424.094,311.7-424.028,313.434-424.11,315.161Zm-4.717-9.957A13.72,13.72,0,0,1-442.386,292.4c-.135-2.181-.021-4.378-.021-6.568.068-2.907-.362-5.84.374-8.72a13.777,13.777,0,0,1,14.955-10.33,13.672,13.672,0,0,1,12.12,12.633,103.682,103.682,0,0,1,0,13.134A13.688,13.688,0,0,1-428.827,305.2Zm40.177,17.466a5.086,5.086,0,0,0-.007.841c0,3.416-.363,3.784-3.781,4.449-.714.139-.765-.243-.921-.609-2.158-5.055-6.074-8-11.225-9.589-4.436-1.366-8.818-2.9-13.243-4.3a1.5,1.5,0,0,1-1.229-1.631c-.177-2.621.107-4.74,2.741-6.323a12.619,12.619,0,0,0,4.656-6.054,1.573,1.573,0,0,1,1.773-1.086c1.793.063,3.591.019,5.387.019s3.594.059,5.386-.023c1.01-.047,1.322.206,1.321,1.274a51.19,51.19,0,0,0,.209,8.232,18.355,18.355,0,0,0,7.744,12.5A2.165,2.165,0,0,1-388.65,322.671Zm14.164,6.8a4.546,4.546,0,0,1-4.4,3.667,4.6,4.6,0,0,1-4.548-3.709,33.66,33.66,0,0,1-.167-5.353c-.031-.669.336-.718.851-.61a18.285,18.285,0,0,0,7.652-.011c.574-.122.834.05.811.667-.029.782-.007,1.566-.007,2.349l.068,0A25.564,25.564,0,0,1-374.486,329.474Zm-5.906-10.749a13.684,13.684,0,0,1-12.325-13.152c-.067-4.707-.519-9.455.276-14.125a13.717,13.717,0,0,1,14.515-11.128,13.876,13.876,0,0,1,12.767,13.144c.076,2.019.012,4.044.012,6.814-.126,1.939.257,4.638-.254,7.319C-366.741,314.636-372.987,319.289-380.392,318.726Zm38.01-4.494q-6.139,2.008-12.273,4.03a15.716,15.716,0,0,0-9.709,8.713c-.392.854-.675,1.153-1.665.82-3.195-1.076-3.126-1.031-3.248-4.368a3.609,3.609,0,0,1,1.678-3.432,18.221,18.221,0,0,0,7.514-14.723c.058-1.906.068-3.818-.01-5.723-.04-.989.3-1.22,1.231-1.185,1.849.071,3.7.021,5.555.021h.169c1.908,0,3.9-.336,5.7.093,1.923.457,1.881,2.91,3.1,4.245a20.122,20.122,0,0,0,4.115,3.933,2.687,2.687,0,0,1,1.372,2.732C-338.929,313.09-338.883,313.087-342.382,314.231Zm17.713.937a4.469,4.469,0,0,1-4.5,4.3,4.52,4.52,0,0,1-4.641-4.34c0-.056-.008-.112-.008-.168,0-1.569-.563-3.493.146-4.614.823-1.3,2.742.089,4.215-.037,1.558-.133,3.111-.294,4.8-.548C-324.653,311.7-324.588,313.439-324.668,315.168Zm-5.745-10a13.707,13.707,0,0,1-12.519-12.621,101.518,101.518,0,0,1,.006-13.3,13.618,13.618,0,0,1,13.786-12.531,13.639,13.639,0,0,1,13.624,12.708c.141,2.237.022,4.49.022,6.736-.053,2.907.359,5.84-.389,8.719A13.85,13.85,0,0,1-330.414,305.171Z" transform="translate(465.25 -204.75)" fill="#473810"/>
        </g>
        <g id="Group_173769" data-name="Group 173769" transform="translate(-2470.654 17491.932) rotate(-90)">
          <g id="Group_173768" data-name="Group 173768" transform="translate(14.247 0)">
            <path id="Path_91531" data-name="Path 91531" d="M4.1,114.27C1.646,114.27-.161,94.307.011,69.7.226,45.088,5.3,0,5.3,0S9.046,45.174,8.831,69.784C8.659,94.393,6.508,114.313,4.1,114.27Z" fill="#473810"/>
          </g>
          <path id="Path_91532" data-name="Path 91532" d="M17.523,28.572,27.892,15.407,38.26,2.237,18.478,12.262,0,0,8.76,14.284Z" transform="translate(0 93.902)" fill="#473810"/>
        </g>
        <g id="Group_173774" data-name="Group 173774" transform="translate(-2843.638 17371.746)">
          <g id="Group_173770" data-name="Group 173770" transform="matrix(0.438, -0.899, 0.899, 0.438, 22.711, 69.755)">
            <g id="Group_173754" data-name="Group 173754" transform="translate(0 0)">
              <path id="Path_91517" data-name="Path 91517" d="M57.235,109.53c.2.133.564-.033,1.029-.431a7.924,7.924,0,0,0,.863-.763c.3-.332.63-.7,1-1.161A47.168,47.168,0,0,0,65.3,99.012c.9-1.825,1.858-3.849,2.754-6.105.863-2.256,1.692-4.678,2.422-7.333a72.712,72.712,0,0,0,2.621-17.519c.033-1.593.066-3.417-.066-5.475-.033-1.029-.133-2.09-.232-3.218l-.2-1.725c-.066-.6-.166-1.194-.265-1.792a67.4,67.4,0,0,0-1.559-7.7,73.071,73.071,0,0,0-2.754-8.262A65.363,65.363,0,0,0,58.4,23.628,67.416,67.416,0,0,0,44.261,10.423,60.549,60.549,0,0,0,28.07,2.459,57.507,57.507,0,0,0,20.24.635l-.9-.166-.929-.1-.9-.1L17.087.2,16.623.17,14.9.037C14.367.037,13.8,0,13.272,0a28.537,28.537,0,0,0-5.84.465,20.487,20.487,0,0,0-2.356.564l-1,.365-.9.365A16.055,16.055,0,0,0,.763,3.189L0,3.82l.8-.564A15.689,15.689,0,0,1,3.285,2.028l.9-.3,1.029-.265c.7-.133,1.46-.3,2.323-.4a26.937,26.937,0,0,1,5.674,0A52.446,52.446,0,0,1,27.34,4.483a57.97,57.97,0,0,1,14.9,8.66A64.055,64.055,0,0,1,54.713,26.415a62.336,62.336,0,0,1,7.93,15.495,64.872,64.872,0,0,1,2.123,7.664,67.993,67.993,0,0,1,1.128,7.1c.066.564.133,1.095.166,1.626l.133,1.593c.033,1.029.1,2.024.133,2.953.066,1.891,0,3.583,0,5.01a90.141,90.141,0,0,1-1.958,16.258c-.5,2.488-1.062,4.811-1.659,7s-1.261,4.214-1.858,6.039c-1.228,3.683-2.356,6.636-3.052,8.759-.166.531-.3,1-.431,1.427A5.49,5.49,0,0,0,57.1,108.4C57,109.032,57.036,109.4,57.235,109.53Z" fill="#473810"/>
            </g>
            <path id="Path_91518" data-name="Path 91518" d="M6.526,25.012,3.265,12.506,0,0,10.886,13.191l16.845-2.965-10.6,7.393Z" transform="translate(49.879 89.622)" fill="#473810"/>
          </g>
          <g id="Group_173771" data-name="Group 173771" transform="matrix(-0.438, 0.899, -0.899, -0.438, 137.054, 122.278)">
            <g id="Group_173754-2" data-name="Group 173754" transform="translate(0 0)">
              <path id="Path_91517-2" data-name="Path 91517" d="M57.235,109.53c.2.133.564-.033,1.029-.431a7.923,7.923,0,0,0,.863-.763c.3-.332.63-.7,1-1.161A47.169,47.169,0,0,0,65.3,99.012c.9-1.825,1.858-3.849,2.754-6.105.863-2.256,1.692-4.678,2.422-7.333a72.712,72.712,0,0,0,2.621-17.519c.033-1.593.066-3.417-.066-5.475-.033-1.029-.133-2.09-.232-3.218l-.2-1.725c-.066-.6-.166-1.194-.265-1.792a67.4,67.4,0,0,0-1.559-7.7,73.075,73.075,0,0,0-2.754-8.262A65.364,65.364,0,0,0,58.4,23.628,67.416,67.416,0,0,0,44.261,10.423,60.549,60.549,0,0,0,28.07,2.46,57.508,57.508,0,0,0,20.239.635l-.9-.166-.929-.1-.9-.1L17.087.2,16.623.17,14.9.037C14.367.037,13.8,0,13.272,0a28.536,28.536,0,0,0-5.84.464,20.485,20.485,0,0,0-2.356.564l-1,.365-.9.365A16.055,16.055,0,0,0,.763,3.189L0,3.82l.8-.564A15.688,15.688,0,0,1,3.285,2.028l.9-.3,1.029-.265c.7-.133,1.46-.3,2.323-.4a26.936,26.936,0,0,1,5.674,0A52.445,52.445,0,0,1,27.34,4.483a57.97,57.97,0,0,1,14.9,8.66A64.055,64.055,0,0,1,54.713,26.415a62.337,62.337,0,0,1,7.93,15.495,64.873,64.873,0,0,1,2.123,7.664,67.993,67.993,0,0,1,1.128,7.1c.066.564.133,1.095.166,1.626l.133,1.593c.033,1.029.1,2.024.133,2.953.066,1.891,0,3.583,0,5.01a90.142,90.142,0,0,1-1.957,16.258c-.5,2.488-1.062,4.811-1.659,7s-1.261,4.214-1.858,6.039c-1.228,3.683-2.356,6.636-3.052,8.759-.166.531-.3,1-.431,1.427A5.488,5.488,0,0,0,57.1,108.4C57,109.032,57.036,109.4,57.235,109.53Z" fill="#1592c9"/>
            </g>
            <path id="Path_91518-2" data-name="Path 91518" d="M6.527,25.012,3.265,12.506,0,0,10.886,13.191l16.845-2.965-10.6,7.393Z" transform="translate(49.879 89.622)" fill="#1592c9"/>
          </g>
        </g>
      </g>
      <text id="Onsite_Project_Manager" data-name="Onsite Project Manager" transform="translate(-2813 17770)" fill="#473911" font-size="16" font-family="Poppins-SemiBold, Poppins" font-weight="600"><tspan x="0" y="0">Onsite Project Manager</tspan></text>
      <text id="Onsite_Team" data-name="Onsite Team" transform="translate(-2415 17770)" fill="#473911" font-size="16" font-family="Poppins-SemiBold, Poppins" font-weight="600"><tspan x="0" y="0">Onsite Team</tspan></text>
      <text id="Client" transform="translate(-2026 17770)" fill="#473911" font-size="16" font-family="Poppins-SemiBold, Poppins" font-weight="600"><tspan x="0" y="0">Client</tspan></text>
    </g>
  </g>
</svg>
