<svg xmlns="http://www.w3.org/2000/svg" width="589" height="451.254" viewBox="0 0 589 451.254">
  <g id="img_3" transform="translate(1292 -13458.946)">
    <g id="Group_173807" data-name="Group 173807" transform="translate(-1292 13459)">
      <line id="Line_426" data-name="Line 426" x2="319.555" transform="translate(138.419 75.165)" fill="none" stroke="#707070" stroke-width="2" stroke-dasharray="6 6"/>
      <line id="Line_430" data-name="Line 430" y2="209.477" transform="translate(74.344 119.525)" fill="none" stroke="#707070" stroke-width="2" stroke-dasharray="6 6"/>
      <line id="Line_429" data-name="Line 429" x2="204.548" y2="138.83" transform="translate(57.914 92.416)" fill="none" stroke="#707070" stroke-width="2" stroke-dasharray="6 6"/>
      <g id="Group_173779" data-name="Group 173779">
        <circle id="Ellipse_3644" data-name="Ellipse 3644" cx="75" cy="75" r="75" transform="translate(0 -0.054)" fill="#1592c9"/>
        <g id="Group_173784" data-name="Group 173784" transform="translate(41.074 10.679)">
          <path id="Path_91525" data-name="Path 91525" d="M-521.967,598.281c.239-.338.594-.188.9-.188q25.784-.01,51.568,0c.331,0,.719-.166.993.187Z" transform="translate(528.771 -515.312)" fill="#fff"/>
          <path id="Path_91526" data-name="Path 91526" d="M-548.217,526.926a.859.859,0,0,1,0,1.166Z" transform="translate(548.217 -462.618)" fill="#fff"/>
          <path id="Path_91527" data-name="Path 91527" d="M-481.155,342.933c-.558-5.378-3.523-9.2-8.4-11.505a25.342,25.342,0,0,0-6.023-1.794,5.694,5.694,0,0,1-4.287-3.129,3.993,3.993,0,0,0-5.685-1.81c-.031.017-.105-.046-.2-.093a19.78,19.78,0,0,0-.014-2.01,1.946,1.946,0,0,1,.912-1.929,15.385,15.385,0,0,0,5.956-10c.121-.727.347-.861,1.018-.869a3.722,3.722,0,0,0,3.984-4.026q.018-1.311-.036-2.622a3.224,3.224,0,0,0-1.293-2.506,1.23,1.23,0,0,1-.5-1.148c.009-2.462.04-4.925-.011-7.386a13.7,13.7,0,0,0-12.446-13.15c-3.75-.268-7.513-.087-11.27-.089a13.738,13.738,0,0,0-14.04,13.982c-.014,2.235-.006,4.471,0,6.706a1.159,1.159,0,0,1-.4,1.008c-1.748,1.542-2.084,5.987-.625,7.807a3.486,3.486,0,0,0,2.376,1.365,7.75,7.75,0,0,0,1.161.069c.409-.015.564.147.622.547a15.709,15.709,0,0,0,6.5,10.727.71.71,0,0,1,.377.618c-.01,1,0,2,0,3.055-.2-.066-.322-.1-.437-.147a3.868,3.868,0,0,0-5.165,1.468c-.495.72-.994,1.438-1.447,2.183a1.716,1.716,0,0,1-1.12.82c-1.783.458-3.558.949-5.338,1.421a14.4,14.4,0,0,0-10.363,9.206c-.372.978-.584,2.016-.871,3.026v.389a1.487,1.487,0,0,1,0,1.166v2.138a1.534,1.534,0,0,0,1.895.951c.9-.279,1.073-1.027,1.024-1.87-.019-.323-.005-.648,0-.972a11.453,11.453,0,0,1,8.191-10.944c1.947-.589,3.931-1.054,5.881-1.634a1.354,1.354,0,0,1,1.471.334q3.145,2.823,6.346,5.582a4.5,4.5,0,0,0,6.106.049c.722-.6,1.443-1.206,2.121-1.854.4-.386.695-.452,1.122-.026.549.547,1.171,1.021,1.756,1.532,2.349,2.05,4.551,2.029,6.915-.053,2.018-1.776,4.057-3.527,6.061-5.318a1.138,1.138,0,0,1,1.214-.289c1.864.53,3.753.971,5.605,1.538,4.855,1.486,7.858,4.71,8.459,9.786a74.321,74.321,0,0,1,.09,11.453,4.45,4.45,0,0,1-4.573,4.147c-.745.015-1.494-.046-2.234.017-.706.06-.947-.126-.923-.885.061-1.942.03-3.887.016-5.831-.007-1.1-.619-1.788-1.509-1.759-.869.028-1.4.669-1.4,1.745-.009,1.976-.03,3.953.013,5.928.014.649-.187.8-.814.8q-19.243-.026-38.486,0c-.6,0-.766-.148-.754-.75.039-1.943.018-3.887.013-5.831,0-1.208-.541-1.9-1.459-1.9s-1.451.694-1.454,1.9c0,1.976,0,3.952,0,5.928,0,.315.084.659-.453.64-1.1-.039-2.21.051-3.3-.065-2.032-.216-4.286-1.96-4.024-5.38.062-.819-.051-1.58-.943-1.926s-1.444.187-1.971.778v3.3a13.46,13.46,0,0,0,.484,1.931,7.26,7.26,0,0,0,5.737,4.29h.583a1.984,1.984,0,0,1,1.047-.1q25.681-.008,51.363,0a1.983,1.983,0,0,1,1.047.1h.389c.057-.145.186-.144.313-.166a7.09,7.09,0,0,0,6.1-6.17A62.318,62.318,0,0,0-481.155,342.933Zm-17.121-40.268c.554.013,1.26-.189,1.409.63a8.741,8.741,0,0,1,.017,1.542h.043c0,.355.021.711,0,1.064a1.175,1.175,0,0,1-1.61.993c-.317-.114-.234-.349-.236-.552-.011-.968-.026-1.937.008-2.9C-498.639,303.162-498.921,302.651-498.276,302.666Zm-32.843,4.246c-.725-.029-1.292-.159-1.3-1.035-.007-.739-.028-1.479,0-2.216a1.171,1.171,0,0,1,1.674-1c.262.1.2.289.206.463.009.546,0,1.092,0,1.638a10.357,10.357,0,0,1-.009,1.155C-530.585,306.317-530.232,306.947-531.119,306.912Zm.706-7.2c-.235-.153-.156-.406-.157-.621-.006-1.263,0-2.525,0-4.02a22.029,22.029,0,0,1,.319-5.082,10.7,10.7,0,0,1,9.829-8.141,108.929,108.929,0,0,1,11.842.011,10.72,10.72,0,0,1,9.934,10.437c.05,2.265,0,4.532.029,6.8.006.5-.126.652-.646.661-1.87.033-2.391-.439-2.4-2.286,0-.809.028-1.621-.017-2.428a4.343,4.343,0,0,0-6.144-3.921,17.862,17.862,0,0,1-6.487,1.441,16.424,16.424,0,0,1-6.618-1.265c-3.673-1.514-6.625.454-6.635,4.415,0,.874.037,1.752-.03,2.621A2.1,2.1,0,0,1-530.413,299.717Zm2.946,10.36a33.006,33.006,0,0,1-.149-3.86c0-.566.016-.923,0-1.278-.076-1.407-.178-2.692,1.482-3.509a3.288,3.288,0,0,0,1.475-3.012c.027-1,0-2.007.02-3.01.036-1.44.954-2.081,2.27-1.536a19.516,19.516,0,0,0,15.551-.006c1.282-.533,2.187.081,2.236,1.466.035,1-.007,2.008.034,3.01a4.328,4.328,0,0,0,2.422,3.818c.236.129.572.152.555.564-.11,2.742.272,5.505-.344,8.225a13.018,13.018,0,0,1-13.229,10.185A13.074,13.074,0,0,1-527.467,310.077Zm8.127,25.723a1.5,1.5,0,0,1-2.044-.043c-2.132-1.833-4.235-3.7-6.363-5.539-.324-.28-.3-.488-.067-.8.4-.545.747-1.131,1.138-1.684.551-.779,1.023-.87,1.778-.283,2.653,2.061,5.291,4.142,8.005,6.27C-517.725,334.43-518.51,335.143-519.34,335.8Zm5.406-4.5c-.471.392-.781.463-1.3.031-1.565-1.3-3.183-2.534-4.8-3.772a1.137,1.137,0,0,1-.54-1.035c.038-1.162.012-2.325.012-3.621a16.005,16.005,0,0,0,10.185.576c1.708-.467,1.577-.449,1.747,1.326a3.625,3.625,0,0,1-1.864,3.825A32.2,32.2,0,0,0-513.934,331.3Zm10.945.247c-1.489,1.292-2.962,2.6-4.449,3.9-1.123.978-1.756.972-2.872,0q-.913-.8-1.822-1.6a.808.808,0,0,1-.111-.183q4-3.137,8.005-6.275a1.039,1.039,0,0,1,1.659.249C-500.939,329.776-500.939,329.767-502.989,331.545Z" transform="translate(548.217 -278.81)" fill="#fff"/>
        </g>
      </g>
      <g id="Group_173780" data-name="Group 173780" transform="translate(439.491 0.209)">
        <path id="Path_91565" data-name="Path 91565" d="M74.755,0A74.755,74.755,0,1,1,0,74.755,74.755,74.755,0,0,1,74.755,0Z" transform="translate(0 0)" fill="#3a77bf"/>
      </g>
      <text id="Client_Manager" data-name="Client 
Manager" transform="translate(74 113.945)" fill="#fff" font-size="13" font-family="Poppins-SemiBold, Poppins" font-weight="600"><tspan x="-20.982" y="0">Client </tspan><tspan x="-29.997" y="16">Manager</tspan></text>
      <g id="Group_173785" data-name="Group 173785" transform="translate(470.707 11.774)">
        <path id="Path_91528" data-name="Path 91528" d="M-465.25,485.185a.119.119,0,0,0,.148-.018.863.863,0,0,1-.148.819Z" transform="translate(467.714 -425.226)" fill="#fff"/>
        <path id="Path_91529" data-name="Path 91529" d="M-82.075,485.173a.11.11,0,0,0,.148.016v.8A.862.862,0,0,1-82.075,485.173Z" transform="translate(166.474 -425.23)" fill="#fff"/>
        <path id="Path_91530" data-name="Path 91530" d="M-380.391,272.148a1.529,1.529,0,0,0,1.35,1.434,1.241,1.241,0,0,0,1.416-1.06v-2.909c-.18-.288-.047-.605-.088-.906a4.636,4.636,0,0,0-.5-2.141,8.213,8.213,0,0,0-4.909-4.36q-3.529-1.175-7.055-2.358c-.374-.126-.829-.213-.869-.705-.081-1.014-.167-1.935.867-2.728a8.972,8.972,0,0,0,3.714-7.523c-.019-2-.01-3.99,0-5.985a9.741,9.741,0,0,0-13.682-8.666,8.621,8.621,0,0,0-3.044,2.159c-.32.358-.641.563-1.025.025a9.147,9.147,0,0,0-4.984-3.406c-2.07-.636-4.114-1.356-6.168-2.044-.344-.115-.715-.188-.843-.629a2.665,2.665,0,0,1,.928-2.856,9.69,9.69,0,0,0,3.638-7.179c.093-2.105.093-4.221,0-6.326a9.622,9.622,0,0,0-3.558-7.212,8.314,8.314,0,0,0-5.038-2.024h-2.4c-.654.185-1.347.079-2,.309a9.871,9.871,0,0,0-6.613,9.272c-.008,1.91-.037,3.821.007,5.73a9.448,9.448,0,0,0,3.541,7.3,2.668,2.668,0,0,1,1.093,2.4,1.162,1.162,0,0,1-.964,1.264c-2.235.685-4.439,1.469-6.662,2.189a8.817,8.817,0,0,0-4.275,3c-.581.732-.621.745-1.293.076a9.427,9.427,0,0,0-9.6-2.481,9.748,9.748,0,0,0-7.017,9.1c.07,2.107.022,4.219.009,6.329a8.269,8.269,0,0,0,.808,3.555,9.08,9.08,0,0,0,3.095,3.8c.973.664.721,1.593.687,2.472-.028.718-.717.728-1.2.893-2.214.751-4.425,1.509-6.652,2.221a7.306,7.306,0,0,0-2.416,1.252c-1.688,1.368-2.986,2.979-3.068,5.287-.041.3.091.615-.088.9v2.909c.344.86.7,1.125,1.417,1.061a1.544,1.544,0,0,0,1.34-1.352,3.944,3.944,0,0,0,.044-.682c0-.4,0-.8,0-1.2a5.354,5.354,0,0,1,3.711-5.3c2.119-.763,4.272-1.431,6.4-2.158a.957.957,0,0,1,1.291.451,5.1,5.1,0,0,0,1.814,1.779,5.138,5.138,0,0,0,6.85-1.7c.334-.523.675-.769,1.327-.542,2.155.748,4.332,1.431,6.485,2.185a5.259,5.259,0,0,1,2.866,2.319c.272.454.271.692-.293.851-.768.217-1.521.485-2.274.75A8.9,8.9,0,0,0-439.2,273a10.666,10.666,0,0,0-1.1,4.272c-.115,1-.126,1-1.154,1q-4.021,0-8.041,0c-1.625,0-3.251-.018-4.876.008-.664.011-.934-.238-.9-.9.033-.625.014-1.254,0-1.881a1.494,1.494,0,0,0-.269-.97,1.4,1.4,0,0,0-1.331-.615,1.492,1.492,0,0,0-1.245,1.039,7.043,7.043,0,0,0-.18,2.46c0,.609-.213.893-.85.869-.769-.029-1.54-.029-2.309,0a1.01,1.01,0,0,1-1.171-.732,1.345,1.345,0,0,0-1.419-.894,1.206,1.206,0,0,0-1.211,1v2.567a1.391,1.391,0,0,0,1.574,1.125c.341-.009.684,0,1.025,0h20.512c.285,0,.571.015.855,0,.64-.033.955.234.921.9-.02.4,0,.8,0,1.2,0,2.307-.019,4.615.012,6.923.012.853.156,1.664,1.115,2h35.6c.254-.173.568-.237.756-.532a3.772,3.772,0,0,0-.06-3.291,1.385,1.385,0,0,0-2.447.131,1.292,1.292,0,0,1-1.519.874c-.284-.021-.57,0-.855,0-2.368-.026-2.1.277-2.124-2.083-.014-1.711.04-3.423-.026-5.133a1.371,1.371,0,0,0-1.264-1.47A1.5,1.5,0,0,0-412.858,282a3.761,3.761,0,0,0-.1,1.1c0,1.8.006,3.594-.005,5.391-.006.962-.087,1.052-1.008,1.053q-7.444.011-14.888,0c-.974,0-1.041-.079-1.047-1.1-.009-1.825,0-3.651,0-5.476a2.729,2.729,0,0,0-.21-1.254,1.459,1.459,0,0,0-1.619-.843,1.354,1.354,0,0,0-1.2,1.255,6.4,6.4,0,0,0-.039.939c0,1.8.005,3.594,0,5.391,0,1.011-.076,1.078-1.057,1.089q-1.069.012-2.139,0c-1.007-.009-1.079-.071-1.083-1.063q-.013-4.064,0-8.129a23.758,23.758,0,0,1,.18-4.1,5.089,5.089,0,0,1,3.373-4.18c2.192-.813,4.435-1.486,6.648-2.242a.956.956,0,0,1,1.277.463,5.1,5.1,0,0,0,8.719-.024.959.959,0,0,1,1.289-.434c2.185.751,4.4,1.42,6.568,2.212a5.106,5.106,0,0,1,3.43,4.229,36.511,36.511,0,0,1,.181,5.294c.015.627-.037,1.257.031,1.881a1.524,1.524,0,0,0,1.306,1.38,1.453,1.453,0,0,0,1.521-1,3.217,3.217,0,0,0,.212-1.086c.071-1.423.073-1.423,1.511-1.425h.513q10.524,0,21.049,0c1.262,0,1.443-.122,1.838-1.107v-2.567a1.206,1.206,0,0,0-1.21-1,1.344,1.344,0,0,0-1.419.893,1.009,1.009,0,0,1-1.17.734c-.74-.031-1.484-.039-2.223,0-.714.039-.96-.262-.942-.954a6.53,6.53,0,0,0-.15-2.292,1.537,1.537,0,0,0-1.607-1.132,1.509,1.509,0,0,0-1.26,1.5c-.031.569-.008,1.14-.011,1.71-.006,1.136-.022,1.157-1.14,1.158-3.962,0-7.924.009-11.886,0-2.237-.006-1.815.245-2.036-1.835a8.276,8.276,0,0,0-4.817-6.964,24.012,24.012,0,0,0-3.372-1.224c-.531-.173-.6-.379-.315-.852a5.4,5.4,0,0,1,3.022-2.383c2.077-.708,4.169-1.374,6.241-2.1a1.029,1.029,0,0,1,1.415.5,5.106,5.106,0,0,0,8.611.011,1.067,1.067,0,0,1,1.435-.5c2.136.712,4.288,1.381,6.4,2.155a5.343,5.343,0,0,1,3.627,5.182A16.982,16.982,0,0,0-380.391,272.148Zm-48.04-52.062a39.744,39.744,0,0,1,.139-7.085,6.957,6.957,0,0,1,7.436-5.665,7.043,7.043,0,0,1,6.421,6.728c.032,1.025.005,2.053.005,3.424a25.505,25.505,0,0,1-.128,3.665,7,7,0,0,1-7.59,5.68A6.966,6.966,0,0,1-428.431,220.086Zm4.631,9.462c-.016-.346.187-.361.44-.309a9.258,9.258,0,0,0,3.814,0c.411-.087.494.1.474.45s0,.683,0,1.025l.031,0a12.973,12.973,0,0,1-.117,1.528,2.323,2.323,0,0,1-2.3,1.9,2.331,2.331,0,0,1-2.246-1.87A16.6,16.6,0,0,1-423.8,229.548Zm-10.566,6.762c2.611-1.031,5.314-1.828,7.974-2.737.522-.179.479.287.6.508a4.9,4.9,0,0,0,8.011.973,3.108,3.108,0,0,0,.625-.908c.219-.577.5-.659,1.079-.458,2.2.767,4.417,1.475,6.628,2.209a5.553,5.553,0,0,1,3.834,4.007,2.3,2.3,0,0,1,.1,1.012,45.729,45.729,0,0,0-.222,8.186c0,.5-.121.633-.6.625-1.6-.025-3.193-.039-4.788.006-.591.017-.736-.191-.818-.739a9.514,9.514,0,0,0-7.379-8.211,9.581,9.581,0,0,0-11.539,7.7,3.844,3.844,0,0,0-.1.675c.01.442-.166.576-.611.569-1.681-.026-3.363-.02-5.044,0-.405,0-.536-.11-.523-.536.034-1.167.012-2.336.012-3.5a27.679,27.679,0,0,0-.211-4.771C-437.608,239.316-436.21,237.038-434.366,236.31Zm-10,24.492a2.267,2.267,0,0,1-2.364,2.186,2.271,2.271,0,0,1-2.268-2.2c-.037-.823-.3-1.82.065-2.429.4-.667,1.386.04,2.131-.021.792-.064,1.58-.16,2.443-.268C-444.357,259.044-444.323,259.925-444.365,260.8Zm-2.395-5.055a6.965,6.965,0,0,1-6.884-6.5c-.069-1.107-.011-2.223-.011-3.334a19.359,19.359,0,0,1,.19-4.427,6.994,6.994,0,0,1,7.592-5.244,6.941,6.941,0,0,1,6.153,6.413,52.635,52.635,0,0,1,0,6.668A6.949,6.949,0,0,1-446.759,255.747Zm20.4,8.867a2.577,2.577,0,0,0,0,.427c0,1.734-.184,1.921-1.92,2.259-.362.071-.388-.123-.467-.309a8.485,8.485,0,0,0-5.7-4.868c-2.252-.693-4.476-1.474-6.723-2.185a.762.762,0,0,1-.624-.828c-.09-1.331.054-2.406,1.392-3.21a6.406,6.406,0,0,0,2.364-3.073.8.8,0,0,1,.9-.551c.91.032,1.823.01,2.735.01s1.825.03,2.734-.012c.513-.024.671.1.671.647a25.987,25.987,0,0,0,.106,4.179,9.318,9.318,0,0,0,3.931,6.344A1.1,1.1,0,0,1-426.363,264.614Zm7.19,3.454a2.308,2.308,0,0,1-2.235,1.862,2.334,2.334,0,0,1-2.309-1.883,17.086,17.086,0,0,1-.085-2.717c-.016-.34.17-.364.432-.31a9.282,9.282,0,0,0,3.884-.005c.292-.062.423.025.412.338-.015.4,0,.795,0,1.192l.035,0A12.984,12.984,0,0,1-419.172,268.068Zm-3-5.457a6.947,6.947,0,0,1-6.257-6.677,39.249,39.249,0,0,1,.14-7.171,6.964,6.964,0,0,1,7.369-5.65,7.044,7.044,0,0,1,6.481,6.673c.038,1.025.006,2.053.006,3.459a25.213,25.213,0,0,1-.129,3.716A6.993,6.993,0,0,1-422.171,262.611Zm19.3-2.282q-3.117,1.019-6.23,2.046a7.979,7.979,0,0,0-4.929,4.423c-.2.434-.343.586-.845.416-1.622-.546-1.587-.523-1.649-2.218a1.832,1.832,0,0,1,.852-1.742,9.25,9.25,0,0,0,3.815-7.475c.029-.968.035-1.938-.005-2.905-.021-.5.152-.62.625-.6.939.036,1.88.011,2.82.011h.086a12.827,12.827,0,0,1,2.895.047c.976.232.955,1.477,1.572,2.155a10.216,10.216,0,0,0,2.089,2,1.364,1.364,0,0,1,.7,1.387C-401.121,259.75-401.1,259.749-402.874,260.33Zm8.992.476a2.269,2.269,0,0,1-2.283,2.184,2.3,2.3,0,0,1-2.356-2.2c0-.028,0-.057,0-.085,0-.8-.286-1.773.074-2.342.418-.661,1.392.045,2.14-.019.791-.067,1.579-.149,2.437-.278C-393.874,259.046-393.841,259.927-393.882,260.805Zm-2.917-5.075a6.959,6.959,0,0,1-6.356-6.407,51.54,51.54,0,0,1,0-6.753,6.913,6.913,0,0,1,7-6.362,6.924,6.924,0,0,1,6.916,6.452c.071,1.135.011,2.279.011,3.42a18.586,18.586,0,0,1-.2,4.426A7.031,7.031,0,0,1-396.8,255.73Z" transform="translate(465.25 -204.75)" fill="#fff"/>
      </g>
      <line id="Line_428" data-name="Line 428" x1="204.548" y2="138.83" transform="translate(105.56 237.818)" fill="none" stroke="#707070" stroke-width="2" stroke-dasharray="6 6"/>
      <text id="Client_Team" data-name="Client Team" transform="translate(514 121.945)" fill="#fff" font-size="13" font-family="Poppins-SemiBold, Poppins" font-weight="600"><tspan x="-39.962" y="0">Client Team</tspan></text>
      <line id="Line_427" data-name="Line 427" x2="204.548" y2="138.83" transform="translate(269.856 237.818)" fill="none" stroke="#707070" stroke-width="2" stroke-dasharray="6 6"/>
      <g id="Group_173791" data-name="Group 173791" transform="translate(439.491 301.691)">
        <g id="Group_173789" data-name="Group 173789" transform="translate(0)">
          <g id="Group_173782" data-name="Group 173782">
            <circle id="Ellipse_3644-2" data-name="Ellipse 3644" cx="74.755" cy="74.755" r="74.755" transform="translate(0 0)" fill="#52a0fc"/>
          </g>
          <g id="Group_173788" data-name="Group 173788" transform="translate(13.965 21.423)">
            <g id="Group_173786" data-name="Group 173786" transform="translate(0 0)">
              <path id="Path_91534" data-name="Path 91534" d="M-386.662,262.924c-.161-.258-.042-.543-.079-.813a4.159,4.159,0,0,0-.446-1.92,7.366,7.366,0,0,0-4.4-3.91q-3.165-1.054-6.327-2.115c-.336-.113-.744-.191-.779-.633a2.355,2.355,0,0,1,.778-2.446,8.047,8.047,0,0,0,3.331-6.747c-.017-1.789-.009-3.579,0-5.368A8.737,8.737,0,0,0-406.86,231.2a7.731,7.731,0,0,0-2.73,1.937c-.287.321-.575.5-.919.023a8.2,8.2,0,0,0-4.47-3.055c-1.856-.571-3.69-1.216-5.532-1.833-.309-.1-.642-.169-.756-.564a2.39,2.39,0,0,1,.833-2.561,8.691,8.691,0,0,0,3.263-6.439c.083-1.888.083-3.785,0-5.673a8.629,8.629,0,0,0-3.191-6.469,7.457,7.457,0,0,0-4.518-1.815h-2.149c-.586.166-1.208.071-1.8.277a8.853,8.853,0,0,0-5.931,8.316c-.007,1.713-.033,3.427.006,5.139a8.474,8.474,0,0,0,3.176,6.55,2.393,2.393,0,0,1,.98,2.148,1.042,1.042,0,0,1-.864,1.134c-2,.614-3.981,1.317-5.975,1.963a7.908,7.908,0,0,0-3.834,2.687c-.521.657-.557.668-1.16.068a8.455,8.455,0,0,0-8.612-2.225,8.742,8.742,0,0,0-6.293,8.161c.062,1.89.019,3.784.008,5.676a7.416,7.416,0,0,0,.725,3.188,8.144,8.144,0,0,0,2.776,3.41c.872.6.647,1.429.616,2.217-.025.644-.643.653-1.079.8-1.985.674-3.969,1.354-5.966,1.991a6.553,6.553,0,0,0-2.167,1.123,6.314,6.314,0,0,0-2.751,4.742c-.037.268.082.552-.079.808v2.609c.308.771.626,1.009,1.271.952a1.385,1.385,0,0,0,1.2-1.212,3.539,3.539,0,0,0,.04-.612c0-.358,0-.716,0-1.074a4.8,4.8,0,0,1,3.328-4.752c1.9-.684,3.831-1.284,5.743-1.935a.858.858,0,0,1,1.158.4,4.576,4.576,0,0,0,1.627,1.6,4.608,4.608,0,0,0,6.143-1.521c.3-.469.605-.689,1.19-.486,1.933.671,3.885,1.284,5.816,1.959a4.716,4.716,0,0,1,2.57,2.079c.244.407.243.62-.263.763-.688.195-1.364.435-2.04.673a7.981,7.981,0,0,0-4.427,3.594,9.567,9.567,0,0,0-.982,3.831c-.1.9-.113.9-1.035.9q-3.606,0-7.212,0c-1.458,0-2.916-.016-4.373.008-.6.009-.838-.213-.806-.811.03-.561.012-1.125,0-1.687a1.34,1.34,0,0,0-.242-.87,1.255,1.255,0,0,0-1.193-.552,1.338,1.338,0,0,0-1.117.932,6.318,6.318,0,0,0-.162,2.206c0,.546-.191.8-.763.78-.689-.026-1.381-.026-2.071,0a.906.906,0,0,1-1.05-.657,1.206,1.206,0,0,0-1.273-.8,1.082,1.082,0,0,0-1.086.9v2.3a1.248,1.248,0,0,0,1.412,1.009c.306-.008.613,0,.92,0h18.4c.256,0,.512.013.766,0,.574-.029.857.21.826.807-.018.357,0,.715,0,1.073,0,2.07-.017,4.139.011,6.209.01.765.14,1.493,1,1.8h31.927c.228-.155.51-.213.678-.477a3.383,3.383,0,0,0-.054-2.952,1.242,1.242,0,0,0-2.194.118,1.159,1.159,0,0,1-1.362.784c-.254-.019-.511,0-.767,0-2.124-.023-1.888.249-1.9-1.868-.012-1.535.036-3.07-.023-4.6a1.229,1.229,0,0,0-1.134-1.319,1.346,1.346,0,0,0-1.508,1.019,3.373,3.373,0,0,0-.093.99c0,1.612.006,3.223,0,4.835-.005.862-.078.943-.9.945q-6.676.009-13.353,0c-.874,0-.934-.071-.939-.986-.008-1.637,0-3.274,0-4.911a2.447,2.447,0,0,0-.188-1.124,1.308,1.308,0,0,0-1.452-.756,1.214,1.214,0,0,0-1.08,1.125,5.739,5.739,0,0,0-.035.843c0,1.611,0,3.223,0,4.835,0,.907-.068.967-.948.977q-.959.011-1.918,0c-.9-.008-.968-.064-.971-.953q-.011-3.645,0-7.29a21.31,21.31,0,0,1,.162-3.674,4.565,4.565,0,0,1,3.025-3.749c1.966-.729,3.977-1.333,5.962-2.011a.858.858,0,0,1,1.146.415,4.572,4.572,0,0,0,7.82-.021.86.86,0,0,1,1.156-.389c1.959.674,3.945,1.274,5.89,1.984a4.579,4.579,0,0,1,3.076,3.793,32.753,32.753,0,0,1,.162,4.748c.013.562-.033,1.127.028,1.687a1.367,1.367,0,0,0,1.171,1.238,1.3,1.3,0,0,0,1.364-.9,2.885,2.885,0,0,0,.19-.974c.064-1.276.065-1.276,1.355-1.278h.46c6.293,0,6.028.142,12.321.136,1.132,0-.576-2.85-1.1-2.871-.663-.027,1.37-.036.708,0-.64.035-.016-1.113,0-1.733.018-.686.613-1.073.388-1.745s1-.531.385-.447a1.353,1.353,0,0,0-1.13,1.345c-.028.51-.007,1.022-.01,1.534-.006,1.019-.019,1.038-1.023,1.039-3.553,0-7.107.008-10.66,0-2.007-.006-1.628.22-1.826-1.646a7.422,7.422,0,0,0-4.32-6.246,21.535,21.535,0,0,0-3.024-1.1c-.476-.156-.535-.34-.283-.764a4.844,4.844,0,0,1,2.71-2.137c1.863-.635,3.739-1.232,5.6-1.882a.923.923,0,0,1,1.269.45,4.579,4.579,0,0,0,7.723.01.957.957,0,0,1,1.287-.447c1.916.639,3.846,1.238,5.742,1.933a4.792,4.792,0,0,1,3.253,4.647C-389.165,264.074-390.69,263.888-386.662,262.924ZM-432.228,218.5a35.645,35.645,0,0,1,.124-6.354,6.24,6.24,0,0,1,6.669-5.081,6.316,6.316,0,0,1,5.759,6.035c.029.92,0,1.841,0,3.071a22.87,22.87,0,0,1-.114,3.287,6.276,6.276,0,0,1-6.808,5.094A6.247,6.247,0,0,1-432.228,218.5Zm4.153,8.486c-.014-.31.168-.323.4-.277a8.3,8.3,0,0,0,3.421,0c.368-.078.443.086.425.4s0,.613,0,.919l.027,0a11.644,11.644,0,0,1-.1,1.37,2.083,2.083,0,0,1-2.066,1.7A2.091,2.091,0,0,1-428,229.436,14.887,14.887,0,0,1-428.074,226.991Zm-9.477,6.065c2.342-.925,4.766-1.639,7.151-2.455.468-.16.43.257.54.456a4.395,4.395,0,0,0,7.185.872,2.786,2.786,0,0,0,.56-.815c.2-.517.452-.591.968-.411,1.972.688,3.962,1.323,5.944,1.981a4.981,4.981,0,0,1,3.438,3.594,2.062,2.062,0,0,1,.091.907,41.011,41.011,0,0,0-.2,7.342c0,.448-.108.568-.542.561-1.431-.022-2.864-.035-4.294.005-.53.015-.66-.171-.733-.663a8.533,8.533,0,0,0-6.618-7.365,8.593,8.593,0,0,0-10.349,6.908,3.451,3.451,0,0,0-.092.605c.009.4-.149.517-.548.511-1.508-.024-3.016-.018-4.524,0-.363,0-.48-.1-.469-.481.03-1.047.01-2.1.01-3.143a24.823,24.823,0,0,0-.189-4.279A4.373,4.373,0,0,1-437.551,233.056Zm-8.967,21.966a2.034,2.034,0,0,1-2.12,1.961,2.036,2.036,0,0,1-2.035-1.972c-.033-.738-.266-1.633.059-2.178.356-.6,1.243.036,1.912-.018.711-.057,1.417-.144,2.191-.24C-446.511,253.445-446.481,254.235-446.518,255.022Zm-2.148-4.533a6.247,6.247,0,0,1-6.174-5.832c-.062-.993-.01-1.993-.01-2.99a17.361,17.361,0,0,1,.17-3.97,6.273,6.273,0,0,1,6.809-4.7,6.225,6.225,0,0,1,5.518,5.752,47.205,47.205,0,0,1,0,5.98A6.232,6.232,0,0,1-448.666,250.488Zm18.293,7.952a2.312,2.312,0,0,0,0,.383c0,1.555-.165,1.723-1.722,2.026-.325.063-.348-.111-.419-.277a7.61,7.61,0,0,0-5.111-4.366c-2.02-.622-4.015-1.322-6.03-1.96a.684.684,0,0,1-.56-.742,2.663,2.663,0,0,1,1.248-2.879,5.746,5.746,0,0,0,2.12-2.756.716.716,0,0,1,.807-.494c.817.029,1.635.009,2.453.009s1.636.027,2.452-.011c.46-.021.6.094.6.58a23.3,23.3,0,0,0,.1,3.748,8.357,8.357,0,0,0,3.526,5.69A.986.986,0,0,1-430.373,258.441Zm6.449,3.1a2.07,2.07,0,0,1-2,1.67A2.093,2.093,0,0,1-428,261.519a15.33,15.33,0,0,1-.076-2.437c-.014-.3.153-.327.388-.278a8.325,8.325,0,0,0,3.484,0c.262-.056.38.023.369.3-.013.356,0,.713,0,1.069l.031,0A11.653,11.653,0,0,1-423.924,261.538Zm-2.689-4.894a6.231,6.231,0,0,1-5.612-5.988,35.2,35.2,0,0,1,.125-6.431,6.246,6.246,0,0,1,6.609-5.067,6.318,6.318,0,0,1,5.813,5.985c.034.919.005,1.841.005,3.1a22.611,22.611,0,0,1-.115,3.332A6.272,6.272,0,0,1-426.613,256.645Zm17.306-2.046q-2.8.914-5.588,1.835a7.156,7.156,0,0,0-4.421,3.967c-.178.389-.307.525-.758.373-1.455-.49-1.423-.47-1.479-1.989a1.643,1.643,0,0,1,.764-1.563,8.3,8.3,0,0,0,3.421-6.7c.026-.868.031-1.738,0-2.606-.018-.45.137-.556.56-.539.842.032,1.686.01,2.529.01h.077a11.506,11.506,0,0,1,2.6.043c.876.208.856,1.325,1.41,1.933a9.163,9.163,0,0,0,1.873,1.791,1.224,1.224,0,0,1,.625,1.244C-407.735,254.079-407.714,254.077-409.307,254.6Zm8.065.427a2.035,2.035,0,0,1-2.047,1.959,2.058,2.058,0,0,1-2.113-1.976c0-.025,0-.051,0-.077,0-.714-.256-1.591.066-2.1.375-.592,1.249.04,1.919-.017.71-.06,1.416-.134,2.186-.249C-401.234,253.447-401.2,254.237-401.242,255.025Zm-2.616-4.552a6.241,6.241,0,0,1-5.7-5.746,46.226,46.226,0,0,1,0-6.057,6.2,6.2,0,0,1,6.277-5.706,6.21,6.21,0,0,1,6.2,5.786c.064,1.018.01,2.044.01,3.067a16.668,16.668,0,0,1-.177,3.97A6.306,6.306,0,0,1-403.858,250.473Z" transform="translate(465.25 -204.75)" fill="#fff"/>
              <path id="Path_91535" data-name="Path 91535" d="M-389.142,265.2a1.371,1.371,0,0,0,1.21,1.286,1.113,1.113,0,0,0,1.27-.951v-2.609c-.161-.258-.042-.543-.079-.813a4.159,4.159,0,0,0-.446-1.92,7.366,7.366,0,0,0-4.4-3.91q-3.165-1.054-6.327-2.115c-.336-.113-.744-.191-.779-.633a2.355,2.355,0,0,1,.778-2.446,8.047,8.047,0,0,0,3.331-6.747c-.017-1.789-.009-3.579,0-5.368A8.737,8.737,0,0,0-406.86,231.2a7.731,7.731,0,0,0-2.73,1.937c-.287.321-.575.5-.919.023a8.2,8.2,0,0,0-4.47-3.055c-1.856-.571-3.69-1.216-5.532-1.833-.309-.1-.642-.169-.756-.564a2.39,2.39,0,0,1,.833-2.561,8.691,8.691,0,0,0,3.263-6.439c.083-1.888.083-3.785,0-5.673a8.629,8.629,0,0,0-3.191-6.469,7.457,7.457,0,0,0-4.518-1.815h-2.149c-.586.166-1.208.071-1.8.277a8.853,8.853,0,0,0-5.931,8.316c-.007,1.713-.033,3.427.006,5.139a8.474,8.474,0,0,0,3.176,6.55,2.393,2.393,0,0,1,.98,2.148,1.042,1.042,0,0,1-.864,1.134c-2,.614-3.981,1.317-5.975,1.963a7.908,7.908,0,0,0-3.834,2.687c-.521.657-.557.668-1.16.068a8.455,8.455,0,0,0-8.612-2.225,8.742,8.742,0,0,0-6.293,8.161c.062,1.89.019,3.784.008,5.676a7.416,7.416,0,0,0,.725,3.188,8.144,8.144,0,0,0,2.776,3.41c.872.6.647,1.429.616,2.217-.025.644-.643.653-1.079.8-1.985.674-3.969,1.354-5.966,1.991a6.553,6.553,0,0,0-2.167,1.123,6.314,6.314,0,0,0-2.751,4.742c-.037.268.082.552-.079.808.308,3.38,3.7-3.318,5.843-4.089,1.9-.684,3.831-1.284,5.743-1.935a.858.858,0,0,1,1.158.4,4.576,4.576,0,0,0,1.627,1.6,4.608,4.608,0,0,0,6.143-1.521c.3-.469.605-.689,1.19-.486,1.933.671,3.885,1.284,5.816,1.959a4.716,4.716,0,0,1,2.57,2.079c.244.407.243.62-.263.763-.688.195-1.364.435-2.04.673a7.981,7.981,0,0,0-4.427,3.594,9.567,9.567,0,0,0-.982,3.831c-.1.9-1.141,3.672-.886,3.659.574-.029.857.21.826.807-.018.357,0,.715,0,1.073,0,2.07-.017,4.139.011,6.209.01.765.14,1.493,1,1.8h31.927c.228-.155.51-.213.678-.477a3.383,3.383,0,0,0-.054-2.952,1.242,1.242,0,0,0-2.194.118,1.159,1.159,0,0,1-1.362.784c-.254-.019-.511,0-.767,0-2.124-.023-1.888.249-1.9-1.868-.012-1.535.036-3.07-.023-4.6a1.229,1.229,0,0,0-1.134-1.319,1.346,1.346,0,0,0-1.508,1.019,3.373,3.373,0,0,0-.093.99c0,1.612.006,3.223,0,4.835-.005.862-.078.943-.9.945q-6.676.009-13.353,0c-.874,0-.934-.071-.939-.986-.008-1.637,0-3.274,0-4.911a2.447,2.447,0,0,0-.188-1.124,1.308,1.308,0,0,0-1.452-.756,1.214,1.214,0,0,0-1.08,1.125,5.739,5.739,0,0,0-.035.843c0,1.611,0,3.223,0,4.835,0,.907-.068.967-.948.977q-.959.011-1.918,0c-.9-.008-.968-.064-.971-.953q-.011-3.645,0-7.29a21.31,21.31,0,0,1,.162-3.674,4.565,4.565,0,0,1,3.025-3.749c1.966-.729,3.977-1.333,5.962-2.011a.858.858,0,0,1,1.146.415,4.572,4.572,0,0,0,7.82-.021.86.86,0,0,1,1.156-.389c1.959.674,3.945,1.274,5.89,1.984a4.579,4.579,0,0,1,3.076,3.793,32.753,32.753,0,0,1,.162,4.748c.013.562-.033,1.127.028,1.687a1.367,1.367,0,0,0,1.171,1.238,1.3,1.3,0,0,0,1.364-.9,2.885,2.885,0,0,0,.19-.974c.064-1.276.065-1.276,1.355-1.278h.46q9.439,0,18.878,0c1.132,0,1.294-.109,1.648-.993v-2.3a1.082,1.082,0,0,0-1.085-.9,1.205,1.205,0,0,0-1.273.8.905.905,0,0,1-1.049.658c-.663-.027-1.331-.035-1.993,0-.64.035-.861-.235-.845-.855a5.858,5.858,0,0,0-.135-2.055,1.378,1.378,0,0,0-1.441-1.015,1.353,1.353,0,0,0-1.13,1.345c-.028.51-.007,1.022-.01,1.534-.006,1.019-.019,1.038-1.023,1.039-3.553,0-7.107.008-10.66,0-2.007-.006-1.628.22-1.826-1.646a7.422,7.422,0,0,0-4.32-6.246,21.535,21.535,0,0,0-3.024-1.1c-.476-.156-.535-.34-.283-.764a4.844,4.844,0,0,1,2.71-2.137c1.863-.635,3.739-1.232,5.6-1.882a.923.923,0,0,1,1.269.45,4.579,4.579,0,0,0,7.723.01.957.957,0,0,1,1.287-.447c1.916.639,3.846,1.238,5.742,1.933a4.792,4.792,0,0,1,3.253,4.647A15.235,15.235,0,0,0-389.142,265.2ZM-432.228,218.5a35.645,35.645,0,0,1,.124-6.354,6.24,6.24,0,0,1,6.669-5.081,6.316,6.316,0,0,1,5.759,6.035c.029.92,0,1.841,0,3.071a22.87,22.87,0,0,1-.114,3.287,6.276,6.276,0,0,1-6.808,5.094A6.247,6.247,0,0,1-432.228,218.5Zm4.153,8.486c-.014-.31.168-.323.4-.277a8.3,8.3,0,0,0,3.421,0c.368-.078.443.086.425.4s0,.613,0,.919l.027,0a11.644,11.644,0,0,1-.1,1.37,2.083,2.083,0,0,1-2.066,1.7A2.091,2.091,0,0,1-428,229.436,14.887,14.887,0,0,1-428.074,226.991Zm-9.477,6.065c2.342-.925,4.766-1.639,7.151-2.455.468-.16.43.257.54.456a4.395,4.395,0,0,0,7.185.872,2.786,2.786,0,0,0,.56-.815c.2-.517.452-.591.968-.411,1.972.688,3.962,1.323,5.944,1.981a4.981,4.981,0,0,1,3.438,3.594,2.062,2.062,0,0,1,.091.907,41.011,41.011,0,0,0-.2,7.342c0,.448-.108.568-.542.561-1.431-.022-2.864-.035-4.294.005-.53.015-.66-.171-.733-.663a8.533,8.533,0,0,0-6.618-7.365,8.593,8.593,0,0,0-10.349,6.908,3.451,3.451,0,0,0-.092.605c.009.4-.149.517-.548.511-1.508-.024-3.016-.018-4.524,0-.363,0-.48-.1-.469-.481.03-1.047.01-2.1.01-3.143a24.823,24.823,0,0,0-.189-4.279A4.373,4.373,0,0,1-437.551,233.056Zm-8.967,21.966a2.034,2.034,0,0,1-2.12,1.961,2.036,2.036,0,0,1-2.035-1.972c-.033-.738-.266-1.633.059-2.178.356-.6,1.243.036,1.912-.018.711-.057,1.417-.144,2.191-.24C-446.511,253.445-446.481,254.235-446.518,255.022Zm-2.148-4.533a6.247,6.247,0,0,1-6.174-5.832c-.062-.993-.01-1.993-.01-2.99a17.361,17.361,0,0,1,.17-3.97,6.273,6.273,0,0,1,6.809-4.7,6.225,6.225,0,0,1,5.518,5.752,47.205,47.205,0,0,1,0,5.98A6.232,6.232,0,0,1-448.666,250.488Zm18.293,7.952a2.312,2.312,0,0,0,0,.383c0,1.555-.165,1.723-1.722,2.026-.325.063-.348-.111-.419-.277a7.61,7.61,0,0,0-5.111-4.366c-2.02-.622-4.015-1.322-6.03-1.96a.684.684,0,0,1-.56-.742,2.663,2.663,0,0,1,1.248-2.879,5.746,5.746,0,0,0,2.12-2.756.716.716,0,0,1,.807-.494c.817.029,1.635.009,2.453.009s1.636.027,2.452-.011c.46-.021.6.094.6.58a23.3,23.3,0,0,0,.1,3.748,8.357,8.357,0,0,0,3.526,5.69A.986.986,0,0,1-430.373,258.441Zm6.449,3.1a2.07,2.07,0,0,1-2,1.67A2.093,2.093,0,0,1-428,261.519a15.33,15.33,0,0,1-.076-2.437c-.014-.3.153-.327.388-.278a8.325,8.325,0,0,0,3.484,0c.262-.056.38.023.369.3-.013.356,0,.713,0,1.069l.031,0A11.653,11.653,0,0,1-423.924,261.538Zm-2.689-4.894a6.231,6.231,0,0,1-5.612-5.988,35.2,35.2,0,0,1,.125-6.431,6.246,6.246,0,0,1,6.609-5.067,6.318,6.318,0,0,1,5.813,5.985c.034.919.005,1.841.005,3.1a22.611,22.611,0,0,1-.115,3.332A6.272,6.272,0,0,1-426.613,256.645Zm17.306-2.046q-2.8.914-5.588,1.835a7.156,7.156,0,0,0-4.421,3.967c-.178.389-.307.525-.758.373-1.455-.49-1.423-.47-1.479-1.989a1.643,1.643,0,0,1,.764-1.563,8.3,8.3,0,0,0,3.421-6.7c.026-.868.031-1.738,0-2.606-.018-.45.137-.556.56-.539.842.032,1.686.01,2.529.01h.077a11.506,11.506,0,0,1,2.6.043c.876.208.856,1.325,1.41,1.933a9.163,9.163,0,0,0,1.873,1.791,1.224,1.224,0,0,1,.625,1.244C-407.735,254.079-407.714,254.077-409.307,254.6Zm8.065.427a2.035,2.035,0,0,1-2.047,1.959,2.058,2.058,0,0,1-2.113-1.976c0-.025,0-.051,0-.077,0-.714-.256-1.591.066-2.1.375-.592,1.249.04,1.919-.017.71-.06,1.416-.134,2.186-.249C-401.234,253.447-401.2,254.237-401.242,255.025Zm-2.616-4.552a6.241,6.241,0,0,1-5.7-5.746,46.226,46.226,0,0,1,0-6.057,6.2,6.2,0,0,1,6.277-5.706,6.21,6.21,0,0,1,6.2,5.786c.064,1.018.01,2.044.01,3.067a16.668,16.668,0,0,1-.177,3.97A6.306,6.306,0,0,1-403.858,250.473Z" transform="translate(510.929 -204.75)" fill="#fff"/>
            </g>
          </g>
          <text id="Offshore_Team" data-name="Offshore Team" transform="translate(75.509 122.254)" fill="#fff" font-size="13" font-family="Poppins-SemiBold, Poppins" font-weight="600"><tspan x="-48.737" y="0">Offshore Team</tspan></text>
        </g>
      </g>
      <g id="Group_173790" data-name="Group 173790" transform="translate(225.085 149.718)">
        <g id="Group_173782-2" data-name="Group 173782">
          <circle id="Ellipse_3644-3" data-name="Ellipse 3644" cx="74.755" cy="74.755" r="74.755" transform="translate(0 0)" fill="#473810"/>
        </g>
        <g id="Group_173788-2" data-name="Group 173788" transform="translate(13.965 21.423)">
          <g id="Group_173786-2" data-name="Group 173786" transform="translate(0 0)">
            <path id="Path_91534-2" data-name="Path 91534" d="M-386.662,262.924c-.161-.258-.042-.543-.079-.813a4.159,4.159,0,0,0-.446-1.92,7.366,7.366,0,0,0-4.4-3.91q-3.165-1.054-6.327-2.115c-.336-.113-.744-.191-.779-.633a2.355,2.355,0,0,1,.778-2.446,8.047,8.047,0,0,0,3.331-6.747c-.017-1.789-.009-3.579,0-5.368A8.737,8.737,0,0,0-406.86,231.2a7.731,7.731,0,0,0-2.73,1.937c-.287.321-.575.5-.919.023a8.2,8.2,0,0,0-4.47-3.055c-1.856-.571-3.69-1.216-5.532-1.833-.309-.1-.642-.169-.756-.564a2.39,2.39,0,0,1,.833-2.561,8.691,8.691,0,0,0,3.263-6.439c.083-1.888.083-3.785,0-5.673a8.629,8.629,0,0,0-3.191-6.469,7.457,7.457,0,0,0-4.518-1.815h-2.149c-.586.166-1.208.071-1.8.277a8.853,8.853,0,0,0-5.931,8.316c-.007,1.713-.033,3.427.006,5.139a8.474,8.474,0,0,0,3.176,6.55,2.393,2.393,0,0,1,.98,2.148,1.042,1.042,0,0,1-.864,1.134c-2,.614-3.981,1.317-5.975,1.963a7.908,7.908,0,0,0-3.834,2.687c-.521.657-.557.668-1.16.068a8.455,8.455,0,0,0-8.612-2.225,8.742,8.742,0,0,0-6.293,8.161c.062,1.89.019,3.784.008,5.676a7.416,7.416,0,0,0,.725,3.188,8.144,8.144,0,0,0,2.776,3.41c.872.6.647,1.429.616,2.217-.025.644-.643.653-1.079.8-1.985.674-3.969,1.354-5.966,1.991a6.553,6.553,0,0,0-2.167,1.123,6.314,6.314,0,0,0-2.751,4.742c-.037.268.082.552-.079.808v2.609c.308.771.626,1.009,1.271.952a1.385,1.385,0,0,0,1.2-1.212,3.539,3.539,0,0,0,.04-.612c0-.358,0-.716,0-1.074a4.8,4.8,0,0,1,3.328-4.752c1.9-.684,3.831-1.284,5.743-1.935a.858.858,0,0,1,1.158.4,4.576,4.576,0,0,0,1.627,1.6,4.608,4.608,0,0,0,6.143-1.521c.3-.469.605-.689,1.19-.486,1.933.671,3.885,1.284,5.816,1.959a4.716,4.716,0,0,1,2.57,2.079c.244.407.243.62-.263.763-.688.195-1.364.435-2.04.673a7.981,7.981,0,0,0-4.427,3.594,9.567,9.567,0,0,0-.982,3.831c-.1.9-.113.9-1.035.9q-3.606,0-7.212,0c-1.458,0-2.916-.016-4.373.008-.6.009-.838-.213-.806-.811.03-.561.012-1.125,0-1.687a1.34,1.34,0,0,0-.242-.87,1.255,1.255,0,0,0-1.193-.552,1.338,1.338,0,0,0-1.117.932,6.318,6.318,0,0,0-.162,2.206c0,.546-.191.8-.763.78-.689-.026-1.381-.026-2.071,0a.906.906,0,0,1-1.05-.657,1.206,1.206,0,0,0-1.273-.8,1.082,1.082,0,0,0-1.086.9v2.3a1.248,1.248,0,0,0,1.412,1.009c.306-.008.613,0,.92,0h18.4c.256,0,.512.013.766,0,.574-.029.857.21.826.807-.018.357,0,.715,0,1.073,0,2.07-.017,4.139.011,6.209.01.765.14,1.493,1,1.8h31.927c.228-.155.51-.213.678-.477a3.383,3.383,0,0,0-.054-2.952,1.242,1.242,0,0,0-2.194.118,1.159,1.159,0,0,1-1.362.784c-.254-.019-.511,0-.767,0-2.124-.023-1.888.249-1.9-1.868-.012-1.535.036-3.07-.023-4.6a1.229,1.229,0,0,0-1.134-1.319,1.346,1.346,0,0,0-1.508,1.019,3.373,3.373,0,0,0-.093.99c0,1.612.006,3.223,0,4.835-.005.862-.078.943-.9.945q-6.676.009-13.353,0c-.874,0-.934-.071-.939-.986-.008-1.637,0-3.274,0-4.911a2.447,2.447,0,0,0-.188-1.124,1.308,1.308,0,0,0-1.452-.756,1.214,1.214,0,0,0-1.08,1.125,5.739,5.739,0,0,0-.035.843c0,1.611,0,3.223,0,4.835,0,.907-.068.967-.948.977q-.959.011-1.918,0c-.9-.008-.968-.064-.971-.953q-.011-3.645,0-7.29a21.31,21.31,0,0,1,.162-3.674,4.565,4.565,0,0,1,3.025-3.749c1.966-.729,3.977-1.333,5.962-2.011a.858.858,0,0,1,1.146.415,4.572,4.572,0,0,0,7.82-.021.86.86,0,0,1,1.156-.389c1.959.674,3.945,1.274,5.89,1.984a4.579,4.579,0,0,1,3.076,3.793,32.753,32.753,0,0,1,.162,4.748c.013.562-.033,1.127.028,1.687a1.367,1.367,0,0,0,1.171,1.238,1.3,1.3,0,0,0,1.364-.9,2.885,2.885,0,0,0,.19-.974c.064-1.276.065-1.276,1.355-1.278h.46c6.293,0,6.028.142,12.321.136,1.132,0-.576-2.85-1.1-2.871-.663-.027,1.37-.036.708,0-.64.035-.016-1.113,0-1.733.018-.686.613-1.073.388-1.745s1-.531.385-.447a1.353,1.353,0,0,0-1.13,1.345c-.028.51-.007,1.022-.01,1.534-.006,1.019-.019,1.038-1.023,1.039-3.553,0-7.107.008-10.66,0-2.007-.006-1.628.22-1.826-1.646a7.422,7.422,0,0,0-4.32-6.246,21.535,21.535,0,0,0-3.024-1.1c-.476-.156-.535-.34-.283-.764a4.844,4.844,0,0,1,2.71-2.137c1.863-.635,3.739-1.232,5.6-1.882a.923.923,0,0,1,1.269.45,4.579,4.579,0,0,0,7.723.01.957.957,0,0,1,1.287-.447c1.916.639,3.846,1.238,5.742,1.933a4.792,4.792,0,0,1,3.253,4.647C-389.165,264.074-390.69,263.888-386.662,262.924ZM-432.228,218.5a35.645,35.645,0,0,1,.124-6.354,6.24,6.24,0,0,1,6.669-5.081,6.316,6.316,0,0,1,5.759,6.035c.029.92,0,1.841,0,3.071a22.87,22.87,0,0,1-.114,3.287,6.276,6.276,0,0,1-6.808,5.094A6.247,6.247,0,0,1-432.228,218.5Zm4.153,8.486c-.014-.31.168-.323.4-.277a8.3,8.3,0,0,0,3.421,0c.368-.078.443.086.425.4s0,.613,0,.919l.027,0a11.644,11.644,0,0,1-.1,1.37,2.083,2.083,0,0,1-2.066,1.7A2.091,2.091,0,0,1-428,229.436,14.887,14.887,0,0,1-428.074,226.991Zm-9.477,6.065c2.342-.925,4.766-1.639,7.151-2.455.468-.16.43.257.54.456a4.395,4.395,0,0,0,7.185.872,2.786,2.786,0,0,0,.56-.815c.2-.517.452-.591.968-.411,1.972.688,3.962,1.323,5.944,1.981a4.981,4.981,0,0,1,3.438,3.594,2.062,2.062,0,0,1,.091.907,41.011,41.011,0,0,0-.2,7.342c0,.448-.108.568-.542.561-1.431-.022-2.864-.035-4.294.005-.53.015-.66-.171-.733-.663a8.533,8.533,0,0,0-6.618-7.365,8.593,8.593,0,0,0-10.349,6.908,3.451,3.451,0,0,0-.092.605c.009.4-.149.517-.548.511-1.508-.024-3.016-.018-4.524,0-.363,0-.48-.1-.469-.481.03-1.047.01-2.1.01-3.143a24.823,24.823,0,0,0-.189-4.279A4.373,4.373,0,0,1-437.551,233.056Zm-8.967,21.966a2.034,2.034,0,0,1-2.12,1.961,2.036,2.036,0,0,1-2.035-1.972c-.033-.738-.266-1.633.059-2.178.356-.6,1.243.036,1.912-.018.711-.057,1.417-.144,2.191-.24C-446.511,253.445-446.481,254.235-446.518,255.022Zm-2.148-4.533a6.247,6.247,0,0,1-6.174-5.832c-.062-.993-.01-1.993-.01-2.99a17.361,17.361,0,0,1,.17-3.97,6.273,6.273,0,0,1,6.809-4.7,6.225,6.225,0,0,1,5.518,5.752,47.205,47.205,0,0,1,0,5.98A6.232,6.232,0,0,1-448.666,250.488Zm18.293,7.952a2.312,2.312,0,0,0,0,.383c0,1.555-.165,1.723-1.722,2.026-.325.063-.348-.111-.419-.277a7.61,7.61,0,0,0-5.111-4.366c-2.02-.622-4.015-1.322-6.03-1.96a.684.684,0,0,1-.56-.742,2.663,2.663,0,0,1,1.248-2.879,5.746,5.746,0,0,0,2.12-2.756.716.716,0,0,1,.807-.494c.817.029,1.635.009,2.453.009s1.636.027,2.452-.011c.46-.021.6.094.6.58a23.3,23.3,0,0,0,.1,3.748,8.357,8.357,0,0,0,3.526,5.69A.986.986,0,0,1-430.373,258.441Zm6.449,3.1a2.07,2.07,0,0,1-2,1.67A2.093,2.093,0,0,1-428,261.519a15.33,15.33,0,0,1-.076-2.437c-.014-.3.153-.327.388-.278a8.325,8.325,0,0,0,3.484,0c.262-.056.38.023.369.3-.013.356,0,.713,0,1.069l.031,0A11.653,11.653,0,0,1-423.924,261.538Zm-2.689-4.894a6.231,6.231,0,0,1-5.612-5.988,35.2,35.2,0,0,1,.125-6.431,6.246,6.246,0,0,1,6.609-5.067,6.318,6.318,0,0,1,5.813,5.985c.034.919.005,1.841.005,3.1a22.611,22.611,0,0,1-.115,3.332A6.272,6.272,0,0,1-426.613,256.645Zm17.306-2.046q-2.8.914-5.588,1.835a7.156,7.156,0,0,0-4.421,3.967c-.178.389-.307.525-.758.373-1.455-.49-1.423-.47-1.479-1.989a1.643,1.643,0,0,1,.764-1.563,8.3,8.3,0,0,0,3.421-6.7c.026-.868.031-1.738,0-2.606-.018-.45.137-.556.56-.539.842.032,1.686.01,2.529.01h.077a11.506,11.506,0,0,1,2.6.043c.876.208.856,1.325,1.41,1.933a9.163,9.163,0,0,0,1.873,1.791,1.224,1.224,0,0,1,.625,1.244C-407.735,254.079-407.714,254.077-409.307,254.6Zm8.065.427a2.035,2.035,0,0,1-2.047,1.959,2.058,2.058,0,0,1-2.113-1.976c0-.025,0-.051,0-.077,0-.714-.256-1.591.066-2.1.375-.592,1.249.04,1.919-.017.71-.06,1.416-.134,2.186-.249C-401.234,253.447-401.2,254.237-401.242,255.025Zm-2.616-4.552a6.241,6.241,0,0,1-5.7-5.746,46.226,46.226,0,0,1,0-6.057,6.2,6.2,0,0,1,6.277-5.706,6.21,6.21,0,0,1,6.2,5.786c.064,1.018.01,2.044.01,3.067a16.668,16.668,0,0,1-.177,3.97A6.306,6.306,0,0,1-403.858,250.473Z" transform="translate(465.25 -204.75)" fill="#fff"/>
            <path id="Path_91535-2" data-name="Path 91535" d="M-389.142,265.2a1.371,1.371,0,0,0,1.21,1.286,1.113,1.113,0,0,0,1.27-.951v-2.609c-.161-.258-.042-.543-.079-.813a4.159,4.159,0,0,0-.446-1.92,7.366,7.366,0,0,0-4.4-3.91q-3.165-1.054-6.327-2.115c-.336-.113-.744-.191-.779-.633a2.355,2.355,0,0,1,.778-2.446,8.047,8.047,0,0,0,3.331-6.747c-.017-1.789-.009-3.579,0-5.368A8.737,8.737,0,0,0-406.86,231.2a7.731,7.731,0,0,0-2.73,1.937c-.287.321-.575.5-.919.023a8.2,8.2,0,0,0-4.47-3.055c-1.856-.571-3.69-1.216-5.532-1.833-.309-.1-.642-.169-.756-.564a2.39,2.39,0,0,1,.833-2.561,8.691,8.691,0,0,0,3.263-6.439c.083-1.888.083-3.785,0-5.673a8.629,8.629,0,0,0-3.191-6.469,7.457,7.457,0,0,0-4.518-1.815h-2.149c-.586.166-1.208.071-1.8.277a8.853,8.853,0,0,0-5.931,8.316c-.007,1.713-.033,3.427.006,5.139a8.474,8.474,0,0,0,3.176,6.55,2.393,2.393,0,0,1,.98,2.148,1.042,1.042,0,0,1-.864,1.134c-2,.614-3.981,1.317-5.975,1.963a7.908,7.908,0,0,0-3.834,2.687c-.521.657-.557.668-1.16.068a8.455,8.455,0,0,0-8.612-2.225,8.742,8.742,0,0,0-6.293,8.161c.062,1.89.019,3.784.008,5.676a7.416,7.416,0,0,0,.725,3.188,8.144,8.144,0,0,0,2.776,3.41c.872.6.647,1.429.616,2.217-.025.644-.643.653-1.079.8-1.985.674-3.969,1.354-5.966,1.991a6.553,6.553,0,0,0-2.167,1.123,6.314,6.314,0,0,0-2.751,4.742c-.037.268.082.552-.079.808.308,3.38,3.7-3.318,5.843-4.089,1.9-.684,3.831-1.284,5.743-1.935a.858.858,0,0,1,1.158.4,4.576,4.576,0,0,0,1.627,1.6,4.608,4.608,0,0,0,6.143-1.521c.3-.469.605-.689,1.19-.486,1.933.671,3.885,1.284,5.816,1.959a4.716,4.716,0,0,1,2.57,2.079c.244.407.243.62-.263.763-.688.195-1.364.435-2.04.673a7.981,7.981,0,0,0-4.427,3.594,9.567,9.567,0,0,0-.982,3.831c-.1.9-1.141,3.672-.886,3.659.574-.029.857.21.826.807-.018.357,0,.715,0,1.073,0,2.07-.017,4.139.011,6.209.01.765.14,1.493,1,1.8h31.927c.228-.155.51-.213.678-.477a3.383,3.383,0,0,0-.054-2.952,1.242,1.242,0,0,0-2.194.118,1.159,1.159,0,0,1-1.362.784c-.254-.019-.511,0-.767,0-2.124-.023-1.888.249-1.9-1.868-.012-1.535.036-3.07-.023-4.6a1.229,1.229,0,0,0-1.134-1.319,1.346,1.346,0,0,0-1.508,1.019,3.373,3.373,0,0,0-.093.99c0,1.612.006,3.223,0,4.835-.005.862-.078.943-.9.945q-6.676.009-13.353,0c-.874,0-.934-.071-.939-.986-.008-1.637,0-3.274,0-4.911a2.447,2.447,0,0,0-.188-1.124,1.308,1.308,0,0,0-1.452-.756,1.214,1.214,0,0,0-1.08,1.125,5.739,5.739,0,0,0-.035.843c0,1.611,0,3.223,0,4.835,0,.907-.068.967-.948.977q-.959.011-1.918,0c-.9-.008-.968-.064-.971-.953q-.011-3.645,0-7.29a21.31,21.31,0,0,1,.162-3.674,4.565,4.565,0,0,1,3.025-3.749c1.966-.729,3.977-1.333,5.962-2.011a.858.858,0,0,1,1.146.415,4.572,4.572,0,0,0,7.82-.021.86.86,0,0,1,1.156-.389c1.959.674,3.945,1.274,5.89,1.984a4.579,4.579,0,0,1,3.076,3.793,32.753,32.753,0,0,1,.162,4.748c.013.562-.033,1.127.028,1.687a1.367,1.367,0,0,0,1.171,1.238,1.3,1.3,0,0,0,1.364-.9,2.885,2.885,0,0,0,.19-.974c.064-1.276.065-1.276,1.355-1.278h.46q9.439,0,18.878,0c1.132,0,1.294-.109,1.648-.993v-2.3a1.082,1.082,0,0,0-1.085-.9,1.205,1.205,0,0,0-1.273.8.905.905,0,0,1-1.049.658c-.663-.027-1.331-.035-1.993,0-.64.035-.861-.235-.845-.855a5.858,5.858,0,0,0-.135-2.055,1.378,1.378,0,0,0-1.441-1.015,1.353,1.353,0,0,0-1.13,1.345c-.028.51-.007,1.022-.01,1.534-.006,1.019-.019,1.038-1.023,1.039-3.553,0-7.107.008-10.66,0-2.007-.006-1.628.22-1.826-1.646a7.422,7.422,0,0,0-4.32-6.246,21.535,21.535,0,0,0-3.024-1.1c-.476-.156-.535-.34-.283-.764a4.844,4.844,0,0,1,2.71-2.137c1.863-.635,3.739-1.232,5.6-1.882a.923.923,0,0,1,1.269.45,4.579,4.579,0,0,0,7.723.01.957.957,0,0,1,1.287-.447c1.916.639,3.846,1.238,5.742,1.933a4.792,4.792,0,0,1,3.253,4.647A15.235,15.235,0,0,0-389.142,265.2ZM-432.228,218.5a35.645,35.645,0,0,1,.124-6.354,6.24,6.24,0,0,1,6.669-5.081,6.316,6.316,0,0,1,5.759,6.035c.029.92,0,1.841,0,3.071a22.87,22.87,0,0,1-.114,3.287,6.276,6.276,0,0,1-6.808,5.094A6.247,6.247,0,0,1-432.228,218.5Zm4.153,8.486c-.014-.31.168-.323.4-.277a8.3,8.3,0,0,0,3.421,0c.368-.078.443.086.425.4s0,.613,0,.919l.027,0a11.644,11.644,0,0,1-.1,1.37,2.083,2.083,0,0,1-2.066,1.7A2.091,2.091,0,0,1-428,229.436,14.887,14.887,0,0,1-428.074,226.991Zm-9.477,6.065c2.342-.925,4.766-1.639,7.151-2.455.468-.16.43.257.54.456a4.395,4.395,0,0,0,7.185.872,2.786,2.786,0,0,0,.56-.815c.2-.517.452-.591.968-.411,1.972.688,3.962,1.323,5.944,1.981a4.981,4.981,0,0,1,3.438,3.594,2.062,2.062,0,0,1,.091.907,41.011,41.011,0,0,0-.2,7.342c0,.448-.108.568-.542.561-1.431-.022-2.864-.035-4.294.005-.53.015-.66-.171-.733-.663a8.533,8.533,0,0,0-6.618-7.365,8.593,8.593,0,0,0-10.349,6.908,3.451,3.451,0,0,0-.092.605c.009.4-.149.517-.548.511-1.508-.024-3.016-.018-4.524,0-.363,0-.48-.1-.469-.481.03-1.047.01-2.1.01-3.143a24.823,24.823,0,0,0-.189-4.279A4.373,4.373,0,0,1-437.551,233.056Zm-8.967,21.966a2.034,2.034,0,0,1-2.12,1.961,2.036,2.036,0,0,1-2.035-1.972c-.033-.738-.266-1.633.059-2.178.356-.6,1.243.036,1.912-.018.711-.057,1.417-.144,2.191-.24C-446.511,253.445-446.481,254.235-446.518,255.022Zm-2.148-4.533a6.247,6.247,0,0,1-6.174-5.832c-.062-.993-.01-1.993-.01-2.99a17.361,17.361,0,0,1,.17-3.97,6.273,6.273,0,0,1,6.809-4.7,6.225,6.225,0,0,1,5.518,5.752,47.205,47.205,0,0,1,0,5.98A6.232,6.232,0,0,1-448.666,250.488Zm18.293,7.952a2.312,2.312,0,0,0,0,.383c0,1.555-.165,1.723-1.722,2.026-.325.063-.348-.111-.419-.277a7.61,7.61,0,0,0-5.111-4.366c-2.02-.622-4.015-1.322-6.03-1.96a.684.684,0,0,1-.56-.742,2.663,2.663,0,0,1,1.248-2.879,5.746,5.746,0,0,0,2.12-2.756.716.716,0,0,1,.807-.494c.817.029,1.635.009,2.453.009s1.636.027,2.452-.011c.46-.021.6.094.6.58a23.3,23.3,0,0,0,.1,3.748,8.357,8.357,0,0,0,3.526,5.69A.986.986,0,0,1-430.373,258.441Zm6.449,3.1a2.07,2.07,0,0,1-2,1.67A2.093,2.093,0,0,1-428,261.519a15.33,15.33,0,0,1-.076-2.437c-.014-.3.153-.327.388-.278a8.325,8.325,0,0,0,3.484,0c.262-.056.38.023.369.3-.013.356,0,.713,0,1.069l.031,0A11.653,11.653,0,0,1-423.924,261.538Zm-2.689-4.894a6.231,6.231,0,0,1-5.612-5.988,35.2,35.2,0,0,1,.125-6.431,6.246,6.246,0,0,1,6.609-5.067,6.318,6.318,0,0,1,5.813,5.985c.034.919.005,1.841.005,3.1a22.611,22.611,0,0,1-.115,3.332A6.272,6.272,0,0,1-426.613,256.645Zm17.306-2.046q-2.8.914-5.588,1.835a7.156,7.156,0,0,0-4.421,3.967c-.178.389-.307.525-.758.373-1.455-.49-1.423-.47-1.479-1.989a1.643,1.643,0,0,1,.764-1.563,8.3,8.3,0,0,0,3.421-6.7c.026-.868.031-1.738,0-2.606-.018-.45.137-.556.56-.539.842.032,1.686.01,2.529.01h.077a11.506,11.506,0,0,1,2.6.043c.876.208.856,1.325,1.41,1.933a9.163,9.163,0,0,0,1.873,1.791,1.224,1.224,0,0,1,.625,1.244C-407.735,254.079-407.714,254.077-409.307,254.6Zm8.065.427a2.035,2.035,0,0,1-2.047,1.959,2.058,2.058,0,0,1-2.113-1.976c0-.025,0-.051,0-.077,0-.714-.256-1.591.066-2.1.375-.592,1.249.04,1.919-.017.71-.06,1.416-.134,2.186-.249C-401.234,253.447-401.2,254.237-401.242,255.025Zm-2.616-4.552a6.241,6.241,0,0,1-5.7-5.746,46.226,46.226,0,0,1,0-6.057,6.2,6.2,0,0,1,6.277-5.706,6.21,6.21,0,0,1,6.2,5.786c.064,1.018.01,2.044.01,3.067a16.668,16.668,0,0,1-.177,3.97A6.306,6.306,0,0,1-403.858,250.473Z" transform="translate(510.929 -204.75)" fill="#fff"/>
          </g>
        </g>
        <text id="Offshore_Lead" data-name="Offshore Lead" transform="translate(75.915 122.227)" fill="#fff" font-size="13" font-family="Poppins-SemiBold, Poppins" font-weight="600"><tspan x="-45.565" y="0">Offshore Lead</tspan></text>
      </g>
      <g id="Group_173792" data-name="Group 173792" transform="translate(0 301.691)">
        <g id="Group_173789-2" data-name="Group 173789" transform="translate(0)">
          <g id="Group_173782-3" data-name="Group 173782">
            <circle id="Ellipse_3644-4" data-name="Ellipse 3644" cx="74.755" cy="74.755" r="74.755" transform="translate(0 0)" fill="#468add"/>
          </g>
          <g id="Group_173788-3" data-name="Group 173788" transform="translate(13.965 21.423)">
            <g id="Group_173786-3" data-name="Group 173786" transform="translate(0 0)">
              <path id="Path_91534-3" data-name="Path 91534" d="M-386.662,262.924c-.161-.258-.042-.543-.079-.813a4.159,4.159,0,0,0-.446-1.92,7.366,7.366,0,0,0-4.4-3.91q-3.165-1.054-6.327-2.115c-.336-.113-.744-.191-.779-.633a2.355,2.355,0,0,1,.778-2.446,8.047,8.047,0,0,0,3.331-6.747c-.017-1.789-.009-3.579,0-5.368A8.737,8.737,0,0,0-406.86,231.2a7.731,7.731,0,0,0-2.73,1.937c-.287.321-.575.5-.919.023a8.2,8.2,0,0,0-4.47-3.055c-1.856-.571-3.69-1.216-5.532-1.833-.309-.1-.642-.169-.756-.564a2.39,2.39,0,0,1,.833-2.561,8.691,8.691,0,0,0,3.263-6.439c.083-1.888.083-3.785,0-5.673a8.629,8.629,0,0,0-3.191-6.469,7.457,7.457,0,0,0-4.518-1.815h-2.149c-.586.166-1.208.071-1.8.277a8.853,8.853,0,0,0-5.931,8.316c-.007,1.713-.033,3.427.006,5.139a8.474,8.474,0,0,0,3.176,6.55,2.393,2.393,0,0,1,.98,2.148,1.042,1.042,0,0,1-.864,1.134c-2,.614-3.981,1.317-5.975,1.963a7.908,7.908,0,0,0-3.834,2.687c-.521.657-.557.668-1.16.068a8.455,8.455,0,0,0-8.612-2.225,8.742,8.742,0,0,0-6.293,8.161c.062,1.89.019,3.784.008,5.676a7.416,7.416,0,0,0,.725,3.188,8.144,8.144,0,0,0,2.776,3.41c.872.6.647,1.429.616,2.217-.025.644-.643.653-1.079.8-1.985.674-3.969,1.354-5.966,1.991a6.553,6.553,0,0,0-2.167,1.123,6.314,6.314,0,0,0-2.751,4.742c-.037.268.082.552-.079.808v2.609c.308.771.626,1.009,1.271.952a1.385,1.385,0,0,0,1.2-1.212,3.539,3.539,0,0,0,.04-.612c0-.358,0-.716,0-1.074a4.8,4.8,0,0,1,3.328-4.752c1.9-.684,3.831-1.284,5.743-1.935a.858.858,0,0,1,1.158.4,4.576,4.576,0,0,0,1.627,1.6,4.608,4.608,0,0,0,6.143-1.521c.3-.469.605-.689,1.19-.486,1.933.671,3.885,1.284,5.816,1.959a4.716,4.716,0,0,1,2.57,2.079c.244.407.243.62-.263.763-.688.195-1.364.435-2.04.673a7.981,7.981,0,0,0-4.427,3.594,9.567,9.567,0,0,0-.982,3.831c-.1.9-.113.9-1.035.9q-3.606,0-7.212,0c-1.458,0-2.916-.016-4.373.008-.6.009-.838-.213-.806-.811.03-.561.012-1.125,0-1.687a1.34,1.34,0,0,0-.242-.87,1.255,1.255,0,0,0-1.193-.552,1.338,1.338,0,0,0-1.117.932,6.318,6.318,0,0,0-.162,2.206c0,.546-.191.8-.763.78-.689-.026-1.381-.026-2.071,0a.906.906,0,0,1-1.05-.657,1.206,1.206,0,0,0-1.273-.8,1.082,1.082,0,0,0-1.086.9v2.3a1.248,1.248,0,0,0,1.412,1.009c.306-.008.613,0,.92,0h18.4c.256,0,.512.013.766,0,.574-.029.857.21.826.807-.018.357,0,.715,0,1.073,0,2.07-.017,4.139.011,6.209.01.765.14,1.493,1,1.8h31.927c.228-.155.51-.213.678-.477a3.383,3.383,0,0,0-.054-2.952,1.242,1.242,0,0,0-2.194.118,1.159,1.159,0,0,1-1.362.784c-.254-.019-.511,0-.767,0-2.124-.023-1.888.249-1.9-1.868-.012-1.535.036-3.07-.023-4.6a1.229,1.229,0,0,0-1.134-1.319,1.346,1.346,0,0,0-1.508,1.019,3.373,3.373,0,0,0-.093.99c0,1.612.006,3.223,0,4.835-.005.862-.078.943-.9.945q-6.676.009-13.353,0c-.874,0-.934-.071-.939-.986-.008-1.637,0-3.274,0-4.911a2.447,2.447,0,0,0-.188-1.124,1.308,1.308,0,0,0-1.452-.756,1.214,1.214,0,0,0-1.08,1.125,5.739,5.739,0,0,0-.035.843c0,1.611,0,3.223,0,4.835,0,.907-.068.967-.948.977q-.959.011-1.918,0c-.9-.008-.968-.064-.971-.953q-.011-3.645,0-7.29a21.31,21.31,0,0,1,.162-3.674,4.565,4.565,0,0,1,3.025-3.749c1.966-.729,3.977-1.333,5.962-2.011a.858.858,0,0,1,1.146.415,4.572,4.572,0,0,0,7.82-.021.86.86,0,0,1,1.156-.389c1.959.674,3.945,1.274,5.89,1.984a4.579,4.579,0,0,1,3.076,3.793,32.753,32.753,0,0,1,.162,4.748c.013.562-.033,1.127.028,1.687a1.367,1.367,0,0,0,1.171,1.238,1.3,1.3,0,0,0,1.364-.9,2.885,2.885,0,0,0,.19-.974c.064-1.276.065-1.276,1.355-1.278h.46c6.293,0,6.028.142,12.321.136,1.132,0-.576-2.85-1.1-2.871-.663-.027,1.37-.036.708,0-.64.035-.016-1.113,0-1.733.018-.686.613-1.073.388-1.745s1-.531.385-.447a1.353,1.353,0,0,0-1.13,1.345c-.028.51-.007,1.022-.01,1.534-.006,1.019-.019,1.038-1.023,1.039-3.553,0-7.107.008-10.66,0-2.007-.006-1.628.22-1.826-1.646a7.422,7.422,0,0,0-4.32-6.246,21.535,21.535,0,0,0-3.024-1.1c-.476-.156-.535-.34-.283-.764a4.844,4.844,0,0,1,2.71-2.137c1.863-.635,3.739-1.232,5.6-1.882a.923.923,0,0,1,1.269.45,4.579,4.579,0,0,0,7.723.01.957.957,0,0,1,1.287-.447c1.916.639,3.846,1.238,5.742,1.933a4.792,4.792,0,0,1,3.253,4.647C-389.165,264.074-390.69,263.888-386.662,262.924ZM-432.228,218.5a35.645,35.645,0,0,1,.124-6.354,6.24,6.24,0,0,1,6.669-5.081,6.316,6.316,0,0,1,5.759,6.035c.029.92,0,1.841,0,3.071a22.87,22.87,0,0,1-.114,3.287,6.276,6.276,0,0,1-6.808,5.094A6.247,6.247,0,0,1-432.228,218.5Zm4.153,8.486c-.014-.31.168-.323.4-.277a8.3,8.3,0,0,0,3.421,0c.368-.078.443.086.425.4s0,.613,0,.919l.027,0a11.644,11.644,0,0,1-.1,1.37,2.083,2.083,0,0,1-2.066,1.7A2.091,2.091,0,0,1-428,229.436,14.887,14.887,0,0,1-428.074,226.991Zm-9.477,6.065c2.342-.925,4.766-1.639,7.151-2.455.468-.16.43.257.54.456a4.395,4.395,0,0,0,7.185.872,2.786,2.786,0,0,0,.56-.815c.2-.517.452-.591.968-.411,1.972.688,3.962,1.323,5.944,1.981a4.981,4.981,0,0,1,3.438,3.594,2.062,2.062,0,0,1,.091.907,41.011,41.011,0,0,0-.2,7.342c0,.448-.108.568-.542.561-1.431-.022-2.864-.035-4.294.005-.53.015-.66-.171-.733-.663a8.533,8.533,0,0,0-6.618-7.365,8.593,8.593,0,0,0-10.349,6.908,3.451,3.451,0,0,0-.092.605c.009.4-.149.517-.548.511-1.508-.024-3.016-.018-4.524,0-.363,0-.48-.1-.469-.481.03-1.047.01-2.1.01-3.143a24.823,24.823,0,0,0-.189-4.279A4.373,4.373,0,0,1-437.551,233.056Zm-8.967,21.966a2.034,2.034,0,0,1-2.12,1.961,2.036,2.036,0,0,1-2.035-1.972c-.033-.738-.266-1.633.059-2.178.356-.6,1.243.036,1.912-.018.711-.057,1.417-.144,2.191-.24C-446.511,253.445-446.481,254.235-446.518,255.022Zm-2.148-4.533a6.247,6.247,0,0,1-6.174-5.832c-.062-.993-.01-1.993-.01-2.99a17.361,17.361,0,0,1,.17-3.97,6.273,6.273,0,0,1,6.809-4.7,6.225,6.225,0,0,1,5.518,5.752,47.205,47.205,0,0,1,0,5.98A6.232,6.232,0,0,1-448.666,250.488Zm18.293,7.952a2.312,2.312,0,0,0,0,.383c0,1.555-.165,1.723-1.722,2.026-.325.063-.348-.111-.419-.277a7.61,7.61,0,0,0-5.111-4.366c-2.02-.622-4.015-1.322-6.03-1.96a.684.684,0,0,1-.56-.742,2.663,2.663,0,0,1,1.248-2.879,5.746,5.746,0,0,0,2.12-2.756.716.716,0,0,1,.807-.494c.817.029,1.635.009,2.453.009s1.636.027,2.452-.011c.46-.021.6.094.6.58a23.3,23.3,0,0,0,.1,3.748,8.357,8.357,0,0,0,3.526,5.69A.986.986,0,0,1-430.373,258.441Zm6.449,3.1a2.07,2.07,0,0,1-2,1.67A2.093,2.093,0,0,1-428,261.519a15.33,15.33,0,0,1-.076-2.437c-.014-.3.153-.327.388-.278a8.325,8.325,0,0,0,3.484,0c.262-.056.38.023.369.3-.013.356,0,.713,0,1.069l.031,0A11.653,11.653,0,0,1-423.924,261.538Zm-2.689-4.894a6.231,6.231,0,0,1-5.612-5.988,35.2,35.2,0,0,1,.125-6.431,6.246,6.246,0,0,1,6.609-5.067,6.318,6.318,0,0,1,5.813,5.985c.034.919.005,1.841.005,3.1a22.611,22.611,0,0,1-.115,3.332A6.272,6.272,0,0,1-426.613,256.645Zm17.306-2.046q-2.8.914-5.588,1.835a7.156,7.156,0,0,0-4.421,3.967c-.178.389-.307.525-.758.373-1.455-.49-1.423-.47-1.479-1.989a1.643,1.643,0,0,1,.764-1.563,8.3,8.3,0,0,0,3.421-6.7c.026-.868.031-1.738,0-2.606-.018-.45.137-.556.56-.539.842.032,1.686.01,2.529.01h.077a11.506,11.506,0,0,1,2.6.043c.876.208.856,1.325,1.41,1.933a9.163,9.163,0,0,0,1.873,1.791,1.224,1.224,0,0,1,.625,1.244C-407.735,254.079-407.714,254.077-409.307,254.6Zm8.065.427a2.035,2.035,0,0,1-2.047,1.959,2.058,2.058,0,0,1-2.113-1.976c0-.025,0-.051,0-.077,0-.714-.256-1.591.066-2.1.375-.592,1.249.04,1.919-.017.71-.06,1.416-.134,2.186-.249C-401.234,253.447-401.2,254.237-401.242,255.025Zm-2.616-4.552a6.241,6.241,0,0,1-5.7-5.746,46.226,46.226,0,0,1,0-6.057,6.2,6.2,0,0,1,6.277-5.706,6.21,6.21,0,0,1,6.2,5.786c.064,1.018.01,2.044.01,3.067a16.668,16.668,0,0,1-.177,3.97A6.306,6.306,0,0,1-403.858,250.473Z" transform="translate(465.25 -204.75)" fill="#fff"/>
              <path id="Path_91535-3" data-name="Path 91535" d="M-389.142,265.2a1.371,1.371,0,0,0,1.21,1.286,1.113,1.113,0,0,0,1.27-.951v-2.609c-.161-.258-.042-.543-.079-.813a4.159,4.159,0,0,0-.446-1.92,7.366,7.366,0,0,0-4.4-3.91q-3.165-1.054-6.327-2.115c-.336-.113-.744-.191-.779-.633a2.355,2.355,0,0,1,.778-2.446,8.047,8.047,0,0,0,3.331-6.747c-.017-1.789-.009-3.579,0-5.368A8.737,8.737,0,0,0-406.86,231.2a7.731,7.731,0,0,0-2.73,1.937c-.287.321-.575.5-.919.023a8.2,8.2,0,0,0-4.47-3.055c-1.856-.571-3.69-1.216-5.532-1.833-.309-.1-.642-.169-.756-.564a2.39,2.39,0,0,1,.833-2.561,8.691,8.691,0,0,0,3.263-6.439c.083-1.888.083-3.785,0-5.673a8.629,8.629,0,0,0-3.191-6.469,7.457,7.457,0,0,0-4.518-1.815h-2.149c-.586.166-1.208.071-1.8.277a8.853,8.853,0,0,0-5.931,8.316c-.007,1.713-.033,3.427.006,5.139a8.474,8.474,0,0,0,3.176,6.55,2.393,2.393,0,0,1,.98,2.148,1.042,1.042,0,0,1-.864,1.134c-2,.614-3.981,1.317-5.975,1.963a7.908,7.908,0,0,0-3.834,2.687c-.521.657-.557.668-1.16.068a8.455,8.455,0,0,0-8.612-2.225,8.742,8.742,0,0,0-6.293,8.161c.062,1.89.019,3.784.008,5.676a7.416,7.416,0,0,0,.725,3.188,8.144,8.144,0,0,0,2.776,3.41c.872.6.647,1.429.616,2.217-.025.644-.643.653-1.079.8-1.985.674-3.969,1.354-5.966,1.991a6.553,6.553,0,0,0-2.167,1.123,6.314,6.314,0,0,0-2.751,4.742c-.037.268.082.552-.079.808.308,3.38,3.7-3.318,5.843-4.089,1.9-.684,3.831-1.284,5.743-1.935a.858.858,0,0,1,1.158.4,4.576,4.576,0,0,0,1.627,1.6,4.608,4.608,0,0,0,6.143-1.521c.3-.469.605-.689,1.19-.486,1.933.671,3.885,1.284,5.816,1.959a4.716,4.716,0,0,1,2.57,2.079c.244.407.243.62-.263.763-.688.195-1.364.435-2.04.673a7.981,7.981,0,0,0-4.427,3.594,9.567,9.567,0,0,0-.982,3.831c-.1.9-1.141,3.672-.886,3.659.574-.029.857.21.826.807-.018.357,0,.715,0,1.073,0,2.07-.017,4.139.011,6.209.01.765.14,1.493,1,1.8h31.927c.228-.155.51-.213.678-.477a3.383,3.383,0,0,0-.054-2.952,1.242,1.242,0,0,0-2.194.118,1.159,1.159,0,0,1-1.362.784c-.254-.019-.511,0-.767,0-2.124-.023-1.888.249-1.9-1.868-.012-1.535.036-3.07-.023-4.6a1.229,1.229,0,0,0-1.134-1.319,1.346,1.346,0,0,0-1.508,1.019,3.373,3.373,0,0,0-.093.99c0,1.612.006,3.223,0,4.835-.005.862-.078.943-.9.945q-6.676.009-13.353,0c-.874,0-.934-.071-.939-.986-.008-1.637,0-3.274,0-4.911a2.447,2.447,0,0,0-.188-1.124,1.308,1.308,0,0,0-1.452-.756,1.214,1.214,0,0,0-1.08,1.125,5.739,5.739,0,0,0-.035.843c0,1.611,0,3.223,0,4.835,0,.907-.068.967-.948.977q-.959.011-1.918,0c-.9-.008-.968-.064-.971-.953q-.011-3.645,0-7.29a21.31,21.31,0,0,1,.162-3.674,4.565,4.565,0,0,1,3.025-3.749c1.966-.729,3.977-1.333,5.962-2.011a.858.858,0,0,1,1.146.415,4.572,4.572,0,0,0,7.82-.021.86.86,0,0,1,1.156-.389c1.959.674,3.945,1.274,5.89,1.984a4.579,4.579,0,0,1,3.076,3.793,32.753,32.753,0,0,1,.162,4.748c.013.562-.033,1.127.028,1.687a1.367,1.367,0,0,0,1.171,1.238,1.3,1.3,0,0,0,1.364-.9,2.885,2.885,0,0,0,.19-.974c.064-1.276.065-1.276,1.355-1.278h.46q9.439,0,18.878,0c1.132,0,1.294-.109,1.648-.993v-2.3a1.082,1.082,0,0,0-1.085-.9,1.205,1.205,0,0,0-1.273.8.905.905,0,0,1-1.049.658c-.663-.027-1.331-.035-1.993,0-.64.035-.861-.235-.845-.855a5.858,5.858,0,0,0-.135-2.055,1.378,1.378,0,0,0-1.441-1.015,1.353,1.353,0,0,0-1.13,1.345c-.028.51-.007,1.022-.01,1.534-.006,1.019-.019,1.038-1.023,1.039-3.553,0-7.107.008-10.66,0-2.007-.006-1.628.22-1.826-1.646a7.422,7.422,0,0,0-4.32-6.246,21.535,21.535,0,0,0-3.024-1.1c-.476-.156-.535-.34-.283-.764a4.844,4.844,0,0,1,2.71-2.137c1.863-.635,3.739-1.232,5.6-1.882a.923.923,0,0,1,1.269.45,4.579,4.579,0,0,0,7.723.01.957.957,0,0,1,1.287-.447c1.916.639,3.846,1.238,5.742,1.933a4.792,4.792,0,0,1,3.253,4.647A15.235,15.235,0,0,0-389.142,265.2ZM-432.228,218.5a35.645,35.645,0,0,1,.124-6.354,6.24,6.24,0,0,1,6.669-5.081,6.316,6.316,0,0,1,5.759,6.035c.029.92,0,1.841,0,3.071a22.87,22.87,0,0,1-.114,3.287,6.276,6.276,0,0,1-6.808,5.094A6.247,6.247,0,0,1-432.228,218.5Zm4.153,8.486c-.014-.31.168-.323.4-.277a8.3,8.3,0,0,0,3.421,0c.368-.078.443.086.425.4s0,.613,0,.919l.027,0a11.644,11.644,0,0,1-.1,1.37,2.083,2.083,0,0,1-2.066,1.7A2.091,2.091,0,0,1-428,229.436,14.887,14.887,0,0,1-428.074,226.991Zm-9.477,6.065c2.342-.925,4.766-1.639,7.151-2.455.468-.16.43.257.54.456a4.395,4.395,0,0,0,7.185.872,2.786,2.786,0,0,0,.56-.815c.2-.517.452-.591.968-.411,1.972.688,3.962,1.323,5.944,1.981a4.981,4.981,0,0,1,3.438,3.594,2.062,2.062,0,0,1,.091.907,41.011,41.011,0,0,0-.2,7.342c0,.448-.108.568-.542.561-1.431-.022-2.864-.035-4.294.005-.53.015-.66-.171-.733-.663a8.533,8.533,0,0,0-6.618-7.365,8.593,8.593,0,0,0-10.349,6.908,3.451,3.451,0,0,0-.092.605c.009.4-.149.517-.548.511-1.508-.024-3.016-.018-4.524,0-.363,0-.48-.1-.469-.481.03-1.047.01-2.1.01-3.143a24.823,24.823,0,0,0-.189-4.279A4.373,4.373,0,0,1-437.551,233.056Zm-8.967,21.966a2.034,2.034,0,0,1-2.12,1.961,2.036,2.036,0,0,1-2.035-1.972c-.033-.738-.266-1.633.059-2.178.356-.6,1.243.036,1.912-.018.711-.057,1.417-.144,2.191-.24C-446.511,253.445-446.481,254.235-446.518,255.022Zm-2.148-4.533a6.247,6.247,0,0,1-6.174-5.832c-.062-.993-.01-1.993-.01-2.99a17.361,17.361,0,0,1,.17-3.97,6.273,6.273,0,0,1,6.809-4.7,6.225,6.225,0,0,1,5.518,5.752,47.205,47.205,0,0,1,0,5.98A6.232,6.232,0,0,1-448.666,250.488Zm18.293,7.952a2.312,2.312,0,0,0,0,.383c0,1.555-.165,1.723-1.722,2.026-.325.063-.348-.111-.419-.277a7.61,7.61,0,0,0-5.111-4.366c-2.02-.622-4.015-1.322-6.03-1.96a.684.684,0,0,1-.56-.742,2.663,2.663,0,0,1,1.248-2.879,5.746,5.746,0,0,0,2.12-2.756.716.716,0,0,1,.807-.494c.817.029,1.635.009,2.453.009s1.636.027,2.452-.011c.46-.021.6.094.6.58a23.3,23.3,0,0,0,.1,3.748,8.357,8.357,0,0,0,3.526,5.69A.986.986,0,0,1-430.373,258.441Zm6.449,3.1a2.07,2.07,0,0,1-2,1.67A2.093,2.093,0,0,1-428,261.519a15.33,15.33,0,0,1-.076-2.437c-.014-.3.153-.327.388-.278a8.325,8.325,0,0,0,3.484,0c.262-.056.38.023.369.3-.013.356,0,.713,0,1.069l.031,0A11.653,11.653,0,0,1-423.924,261.538Zm-2.689-4.894a6.231,6.231,0,0,1-5.612-5.988,35.2,35.2,0,0,1,.125-6.431,6.246,6.246,0,0,1,6.609-5.067,6.318,6.318,0,0,1,5.813,5.985c.034.919.005,1.841.005,3.1a22.611,22.611,0,0,1-.115,3.332A6.272,6.272,0,0,1-426.613,256.645Zm17.306-2.046q-2.8.914-5.588,1.835a7.156,7.156,0,0,0-4.421,3.967c-.178.389-.307.525-.758.373-1.455-.49-1.423-.47-1.479-1.989a1.643,1.643,0,0,1,.764-1.563,8.3,8.3,0,0,0,3.421-6.7c.026-.868.031-1.738,0-2.606-.018-.45.137-.556.56-.539.842.032,1.686.01,2.529.01h.077a11.506,11.506,0,0,1,2.6.043c.876.208.856,1.325,1.41,1.933a9.163,9.163,0,0,0,1.873,1.791,1.224,1.224,0,0,1,.625,1.244C-407.735,254.079-407.714,254.077-409.307,254.6Zm8.065.427a2.035,2.035,0,0,1-2.047,1.959,2.058,2.058,0,0,1-2.113-1.976c0-.025,0-.051,0-.077,0-.714-.256-1.591.066-2.1.375-.592,1.249.04,1.919-.017.71-.06,1.416-.134,2.186-.249C-401.234,253.447-401.2,254.237-401.242,255.025Zm-2.616-4.552a6.241,6.241,0,0,1-5.7-5.746,46.226,46.226,0,0,1,0-6.057,6.2,6.2,0,0,1,6.277-5.706,6.21,6.21,0,0,1,6.2,5.786c.064,1.018.01,2.044.01,3.067a16.668,16.668,0,0,1-.177,3.97A6.306,6.306,0,0,1-403.858,250.473Z" transform="translate(510.929 -204.75)" fill="#fff"/>
            </g>
          </g>
          <text id="Onsite_Lead" data-name="Onsite Lead" transform="translate(75 122.254)" fill="#fff" font-size="13" font-family="Poppins-SemiBold, Poppins" font-weight="600"><tspan x="-38.636" y="0">Onsite Lead</tspan></text>
        </g>
      </g>
      <path id="Polygon_5" data-name="Polygon 5" d="M9.269,2.99a2,2,0,0,1,3.462,0L20.262,16a2,2,0,0,1-1.731,3H3.469a2,2,0,0,1-1.731-3Z" transform="translate(304 63.946) rotate(90)" fill="#1592c9"/>
      <path id="Polygon_6" data-name="Polygon 6" d="M9.365,2.939a2,2,0,0,1,3.45,0l7.6,12.943a2,2,0,0,1-1.725,3.012H3.493a2,2,0,0,1-1.725-3.012Z" transform="translate(217.042 186.934) rotate(120)" fill="#1592c9"/>
      <path id="Polygon_7" data-name="Polygon 7" d="M9.365,2.939a2,2,0,0,1,3.45,0l7.6,12.943a2,2,0,0,1-1.725,3.012H3.493a2,2,0,0,1-1.725-3.012Z" transform="translate(129.648 151.903) rotate(-45)" fill="#473810"/>
      <path id="Polygon_8" data-name="Polygon 8" d="M9.269,2.99a2,2,0,0,1,3.462,0L20.262,16a2,2,0,0,1-1.731,3H3.469a2,2,0,0,1-1.731-3Z" transform="translate(163 319.946)" fill="#473810"/>
      <path id="Polygon_9" data-name="Polygon 9" d="M9.269,2.99a2,2,0,0,1,3.462,0L20.262,16a2,2,0,0,1-1.731,3H3.469a2,2,0,0,1-1.731-3Z" transform="translate(403 322.946)" fill="#473810"/>
      <path id="Polygon_10" data-name="Polygon 10" d="M9.365,2.939a2,2,0,0,1,3.45,0l7.6,12.943a2,2,0,0,1-1.725,3.012H3.493a2,2,0,0,1-1.725-3.012Z" transform="translate(79.445 246.492) rotate(60)" fill="#1592c9"/>
      <path id="Polygon_11" data-name="Polygon 11" d="M9.365,2.939a2,2,0,0,1,3.45,0l7.6,12.943a2,2,0,0,1-1.725,3.012H3.493a2,2,0,0,1-1.725-3.012Z" transform="translate(91.356 176.255) rotate(120)" fill="#468add"/>
    </g>
  </g>
</svg>
