<svg xmlns="http://www.w3.org/2000/svg" xmlns:xlink="http://www.w3.org/1999/xlink" width="424" height="453.635" viewBox="0 0 424 453.635">
  <defs>
    <linearGradient id="linear-gradient" x1="0.508" y1="0.915" x2="0.553" y2="2.074" gradientUnits="objectBoundingBox">
      <stop offset="0" stop-color="#e6e6f4"/>
      <stop offset="1" stop-color="#98afe3"/>
    </linearGradient>
    <linearGradient id="linear-gradient-2" y1="0.5" x2="1" y2="0.5" gradientUnits="objectBoundingBox">
      <stop offset="0" stop-color="#0ef"/>
      <stop offset="0.5" stop-color="#5e8dff"/>
      <stop offset="1" stop-color="#b930ff"/>
    </linearGradient>
    <linearGradient id="linear-gradient-6" y1="0.5" x2="1" y2="0.5" gradientUnits="objectBoundingBox">
      <stop offset="0" stop-color="#5c3c25"/>
      <stop offset="0.281" stop-color="#573823"/>
      <stop offset="1" stop-color="#4f3320"/>
    </linearGradient>
    <linearGradient id="linear-gradient-7" x1="31.924" y1="0.5" x2="32.924" y2="0.5" gradientUnits="objectBoundingBox">
      <stop offset="0" stop-color="#e5cfdd"/>
      <stop offset="1" stop-color="#ecd5e4"/>
    </linearGradient>
    <linearGradient id="linear-gradient-8" x1="40.878" y1="0.5" x2="41.878" y2="0.5" xlink:href="#linear-gradient-7"/>
  </defs>
  <g id="img_1" transform="translate(-915 -243.324)">
    <g id="Group_173927" data-name="Group 173927" transform="translate(6579 -10001)">
      <g id="Group_173926" data-name="Group 173926">
        <g id="Group_173922" data-name="Group 173922" transform="translate(-6730.017 10095.636)">
          <g id="Group_173816" data-name="Group 173816" transform="translate(1384.183 236.845)" opacity="0.8">
            <g id="Group_173810" data-name="Group 173810">
              <path id="Path_91566" data-name="Path 91566" d="M1298.5,219.38c-5.615-3.241-10.184-.637-10.2,5.814l-.155,54.874c-.019,6.443,4.521,14.3,10.135,17.546l85.35,49.277c5.606,3.237,10.175.633,10.194-5.808l.155-54.874c.019-6.453-4.52-14.315-10.127-17.552Z" transform="translate(-1288.147 -217.986)" fill="#ebf3f8"/>
            </g>
            <g id="Group_173815" data-name="Group 173815" transform="translate(39.875 52.669)">
              <g id="Group_173811" data-name="Group 173811" transform="translate(34.279 43.174)">
                <path id="Path_91567" data-name="Path 91567" d="M1339.918,288.948v-2.292a1.755,1.755,0,0,1,2.631-1.52l10.824,6.235a1.756,1.756,0,0,1,.88,1.521v2.29a1.754,1.754,0,0,1-2.63,1.521l-10.826-6.236A1.758,1.758,0,0,1,1339.918,288.948Z" transform="translate(-1339.918 -284.899)" fill="#bcbec0"/>
              </g>
              <g id="Group_173812" data-name="Group 173812" transform="translate(0 12.152)">
                <path id="Path_91568" data-name="Path 91568" d="M1315.988,267.295l0-2.3a1.756,1.756,0,0,1,2.629-1.523l45.1,25.855a1.752,1.752,0,0,1,.882,1.521v2.3a1.755,1.755,0,0,1-2.627,1.524l-45.1-25.855A1.756,1.756,0,0,1,1315.988,267.295Z" transform="translate(-1315.986 -263.241)" fill="#bcbec0"/>
              </g>
              <g id="Group_173813" data-name="Group 173813" transform="translate(18.59)" opacity="0.53">
                <path id="Path_91569" data-name="Path 91569" d="M1328.965,258.81v-2.3a1.755,1.755,0,0,1,2.627-1.523l26.507,15.2a1.755,1.755,0,0,1,.881,1.521V274a1.753,1.753,0,0,1-2.627,1.523l-26.505-15.194A1.756,1.756,0,0,1,1328.965,258.81Z" transform="translate(-1328.965 -254.757)" fill="#bcbec0"/>
              </g>
              <g id="Group_173814" data-name="Group 173814" transform="translate(6.991 4.755)">
                <path id="Path_91570" data-name="Path 91570" d="M1320.868,262.13v-2.3a1.755,1.755,0,0,1,2.627-1.523l38.107,21.846a1.752,1.752,0,0,1,.882,1.521v2.3a1.755,1.755,0,0,1-2.628,1.523l-38.107-21.845A1.756,1.756,0,0,1,1320.868,262.13Z" transform="translate(-1320.867 -258.077)" fill="#bcbec0" opacity="0.3"/>
              </g>
            </g>
          </g>
          <g id="Group_173820" data-name="Group 173820" transform="translate(1229.408 187.764)" opacity="0.8">
            <g id="Group_173818" data-name="Group 173818" transform="translate(0.042)">
              <g id="Group_173817" data-name="Group 173817">
                <path id="Path_91571" data-name="Path 91571" d="M1395.391,304.839a14.759,14.759,0,0,1,6.7,11.6l-.341,120.672L1180.119,309.15l.343-120.673c.011-4.261,3.032-5.977,6.742-3.836Z" transform="translate(-1180.119 -183.719)" fill="#2961ff"/>
              </g>
            </g>
            <g id="Group_173819" data-name="Group 173819" transform="translate(0 4.758)">
              <path id="Path_91572" data-name="Path 91572" d="M1180.474,187.041l-.342,120.673L1401.76,435.671l-.043,14.73c-.011,4.263-3.032,5.977-6.742,3.836l-208.188-120.2a14.759,14.759,0,0,1-6.7-11.6Z" transform="translate(-1180.09 -187.041)" fill="url(#linear-gradient)"/>
            </g>
          </g>
          <g id="Group_173827" data-name="Group 173827" transform="translate(1066.017 383.309)" opacity="0.8">
            <ellipse id="Ellipse_3646" data-name="Ellipse 3646" cx="60.667" cy="33.833" rx="60.667" ry="33.833" transform="translate(0 18.909)" fill="#d2d9e1" opacity="0.32" style="mix-blend-mode: multiply;isolation: isolate"/>
            <g id="Group_173826" data-name="Group 173826" transform="translate(6.664)">
              <g id="Group_173824" data-name="Group 173824" transform="translate(13.705)">
                <g id="Group_173821" data-name="Group 173821" transform="translate(39.912 7.592)">
                  <path id="Path_91573" data-name="Path 91573" d="M1150.253,326.878l-.02,6.946-31.516,18.315.02-6.946Z" transform="translate(-1118.717 -326.878)" fill="#e6a8df"/>
                </g>
                <g id="Group_173822" data-name="Group 173822" transform="translate(0 14.148)">
                  <path id="Path_91574" data-name="Path 91574" d="M1123.757,344.368l-.02,6.946-39.913-11.759.02-6.946Z" transform="translate(-1083.824 -332.609)" fill="#e6a8df"/>
                </g>
                <g id="Group_173823" data-name="Group 173823" transform="translate(0.02)">
                  <path id="Path_91575" data-name="Path 91575" d="M1155.27,327.833l-31.516,18.315-39.912-11.759c11.14-12.745,38.041-17.815,60.083-11.318A49.588,49.588,0,0,1,1155.27,327.833Z" transform="translate(-1083.842 -320.241)" fill="#e6a8df"/>
                </g>
              </g>
              <path id="Path_91576" data-name="Path 91576" d="M1180.139,355.4c-.5,9.049-7.4,15.9-14.665,20.427-7.916,4.934-17.254,7.617-26.433,8.9a92.611,92.611,0,0,1-27.437-.292c-9.114-1.461-18.223-4.409-25.994-9.47-7.062-4.6-13.768-11.687-13.743-20.65q-.008,2.824-.016,5.648a31.306,31.306,0,0,0,.342,6.3c1.487,7.415,7.3,13.131,13.411,17.109,7.618,4.958,16.506,7.868,25.428,9.368a92.259,92.259,0,0,0,27.246.477c9.172-1.2,18.374-3.806,26.388-8.516,7.178-4.22,14.1-10.743,15.3-19.384a43.247,43.247,0,0,0,.2-5.828q.007-2.524.014-5.049C1180.181,354.769,1180.156,355.086,1180.139,355.4Z" transform="translate(-1071.843 -315.337)" fill="#2053e2"/>
              <g id="Group_173825" data-name="Group 173825" transform="translate(0.024 16.816)">
                <path id="Path_91577" data-name="Path 91577" d="M1164.219,334.942c21.183,12.23,21.291,32.059.246,44.29s-55.276,12.231-76.459,0c-16.948-9.785-20.926-24.034-10.148-36.364l48.253,14.22Z" transform="translate(-1071.864 -334.942)" fill="#2961ff"/>
              </g>
            </g>
          </g>
          <g id="Group_173866" data-name="Group 173866" transform="translate(1238.106 213.657)" opacity="0.8">
            <g id="Group_173862" data-name="Group 173862">
              <path id="Path_91606" data-name="Path 91606" d="M1196.907,207.789v1.717a1.314,1.314,0,0,1-1.971,1.14l-8.116-4.675a1.314,1.314,0,0,1-.659-1.139v-1.717a1.314,1.314,0,0,1,1.971-1.14l8.116,4.674A1.316,1.316,0,0,1,1196.907,207.789Z" transform="translate(-1186.162 -201.797)" fill="#1ce5ff"/>
            </g>
            <g id="Group_173863" data-name="Group 173863" transform="translate(0.001 8.544)">
              <path id="Path_91607" data-name="Path 91607" d="M1222.606,228.462v1.722a1.315,1.315,0,0,1-1.969,1.142l-33.812-19.382a1.316,1.316,0,0,1-.662-1.142v-1.72a1.316,1.316,0,0,1,1.969-1.143l33.812,19.384A1.315,1.315,0,0,1,1222.606,228.462Z" transform="translate(-1186.163 -207.762)" fill="#1ce5ff"/>
            </g>
            <g id="Group_173864" data-name="Group 173864" transform="translate(0.006 25.646)" opacity="0.53">
              <path id="Path_91608" data-name="Path 91608" d="M1208.668,232.411v1.72a1.315,1.315,0,0,1-1.969,1.142l-19.871-11.391a1.312,1.312,0,0,1-.662-1.14V221.02a1.315,1.315,0,0,1,1.969-1.142l19.871,11.391A1.316,1.316,0,0,1,1208.668,232.411Z" transform="translate(-1186.166 -219.702)" fill="#1ce5ff"/>
            </g>
            <g id="Group_173865" data-name="Group 173865" transform="translate(0.003 17.095)">
              <path id="Path_91609" data-name="Path 91609" d="M1217.363,231.427v1.72a1.315,1.315,0,0,1-1.969,1.142l-28.57-16.377a1.313,1.313,0,0,1-.66-1.14l0-1.722a1.315,1.315,0,0,1,1.969-1.142l28.569,16.377A1.317,1.317,0,0,1,1217.363,231.427Z" transform="translate(-1186.164 -213.732)" fill="#1ce5ff"/>
            </g>
          </g>
          <g id="Group_173885" data-name="Group 173885" transform="translate(1323.387 295.931)" opacity="0.8">
            <g id="Group_173875" data-name="Group 173875">
              <g id="Group_173867" data-name="Group 173867" transform="translate(26.991 61.331)">
                <path id="Path_91610" data-name="Path 91610" d="M1264.549,302.056a7.353,7.353,0,0,0,2.292,2.227,4.675,4.675,0,0,0,.523.259,27.856,27.856,0,0,1-2.817-1.22Z" transform="translate(-1264.546 -302.056)" fill="#747878"/>
              </g>
              <g id="Group_173868" data-name="Group 173868" transform="translate(25.37 12.054)">
                <path id="Path_91611" data-name="Path 91611" d="M1264.673,268.442c.04.026.078.056.116.082-.454-.3-.908-.6-1.375-.871l.309.192c.288.166.587.351.875.541Z" transform="translate(-1263.414 -267.653)" fill="#6c7070"/>
              </g>
              <g id="Group_173874" data-name="Group 173874" style="isolation: isolate">
                <g id="Group_173869" data-name="Group 173869" transform="translate(25.809 53.382)">
                  <path id="Path_91612" data-name="Path 91612" d="M1263.721,296.506c.211.112.423.222.629.324l.04.023C1264.168,296.742,1263.946,296.626,1263.721,296.506Z" transform="translate(-1263.721 -296.506)" fill="#747878"/>
                </g>
                <g id="Group_173870" data-name="Group 173870" transform="translate(27.013 53.99)">
                  <path id="Path_91613" data-name="Path 91613" d="M1266.023,297.538a2.522,2.522,0,0,0-1.462-.034l0-.573Q1265.3,297.273,1266.023,297.538Z" transform="translate(-1264.561 -296.931)" fill="#747878"/>
                </g>
                <g id="Group_173871" data-name="Group 173871" transform="translate(26.745 12.6)">
                  <path id="Path_91614" data-name="Path 91614" d="M1266.4,269.834q.5.4,1,.834a29.812,29.812,0,0,0-3.027-2.309c.127.085.259.158.385.245v-.57A8.239,8.239,0,0,0,1266.4,269.834Z" transform="translate(-1264.374 -268.034)" fill="#747878"/>
                </g>
                <g id="Group_173872" data-name="Group 173872">
                  <path id="Path_91615" data-name="Path 91615" d="M1271.1,262.709q.9.518,1.76,1.09l0,1.266c-.878.271-1.458,1.153-1.461,2.555a7.826,7.826,0,0,0,1.441,4.217l0,.57c-.576-.394-1.163-.771-1.76-1.116-9.85-5.686-17.868-1.116-17.9,10.214s7.934,25.116,17.784,30.8c.186.107.371.211.556.311.224.12.447.236.668.347.18.09.359.178.537.261v.574a2.4,2.4,0,0,0-1.461,2.537,7.814,7.814,0,0,0,1.442,4.231l0,1.266c-.166-.082-.334-.168-.5-.255q-.621-.32-1.258-.687c-13.98-8.071-25.275-27.637-25.229-43.7S1257.116,254.638,1271.1,262.709Z" transform="translate(-1245.702 -259.237)" fill="#fff"/>
                </g>
                <path id="Path_91616" data-name="Path 91616" d="M1267.438,263.756a5.748,5.748,0,0,1,.52.342c.064.047.129.1.193.148,9.716,7.742,17.442,20.729,19.758,33.043.026.135.046.246.066.357.03.169.048.271.065.37.029.168.046.268.062.37.029.175.044.279.06.382.023.149.037.248.052.347.027.189.042.291.056.392.023.168.037.282.051.4.033.264.062.507.087.751.019.173.029.269.037.364.017.179.026.268.033.36.016.188.024.275.03.361.014.189.02.266.026.344.014.215.019.288.023.359.013.209.016.281.02.35.01.218.013.288.016.358l.006.148.007.189c0,.054,0,.11,0,.163,0,.07,0,.14.006.211,0,.226.006.314.006.4,0,.2,0,.314,0,.433s0,.233,0,.351c0,.165,0,.251-.006.338-.006.2-.007.269-.01.337l-.006.158-.007.18-.007.142-.01.2c-.011.2-.016.269-.02.334-.014.2-.019.264-.024.331-.016.2-.021.271-.029.341-.016.182-.024.258-.032.337-.017.173-.027.254-.036.334-.019.162-.029.248-.04.332-.034.278-.064.487-.1.7-.017.113-.033.211-.05.308-.023.136-.036.218-.052.3-.027.153-.042.232-.057.312-.026.135-.041.215-.057.294-.031.148-.047.225-.064.3-.031.142-.047.216-.066.292-.034.148-.054.231-.074.312-.031.126-.054.218-.079.309-2.464,9.4-10.178,13.315-19.808,9.866-.064-.023-.129-.049-.192-.076a4.7,4.7,0,0,1-.523-.259,7.34,7.34,0,0,1-2.292-2.227,7.815,7.815,0,0,1-1.442-4.231,2.4,2.4,0,0,1,1.461-2.537,2.522,2.522,0,0,1,1.462.034c.06.017.122.037.183.059a11.822,11.822,0,0,0,7.612.41c.1-.032.195-.064.289-.1.11-.04.2-.074.292-.11.109-.044.2-.083.288-.122s.188-.086.272-.126.18-.09.26-.133c.116-.063.192-.1.266-.148.123-.072.193-.115.264-.159.129-.082.195-.125.261-.17.13-.089.2-.135.261-.182.115-.087.172-.13.228-.175.127-.1.182-.146.235-.192.12-.1.177-.153.235-.2.123-.113.179-.166.235-.221.119-.119.174-.173.227-.229.117-.126.17-.183.222-.242.109-.123.155-.176.2-.231l.07-.085.125-.156.069-.09c.044-.059.089-.117.132-.178.1-.139.146-.206.192-.272.1-.15.143-.218.188-.286.1-.156.139-.228.181-.3.09-.156.135-.232.176-.309.075-.139.113-.212.15-.286.076-.15.113-.231.152-.309.072-.156.11-.241.149-.328.069-.162.106-.252.143-.342.064-.162.1-.255.133-.348.062-.168.1-.265.129-.362.052-.156.084-.259.117-.364.043-.143.074-.251.106-.36.039-.14.069-.254.1-.365.04-.16.066-.271.092-.381.039-.178.063-.286.084-.4.037-.185.059-.3.079-.414.03-.173.05-.3.069-.42.024-.156.042-.284.059-.413s.033-.271.047-.4c.019-.183.031-.311.042-.438.016-.185.026-.314.034-.443.011-.193.019-.322.024-.455.009-.2.013-.332.016-.468,0-.185.006-.331.006-.477s0-.3,0-.443c0-.18-.006-.321-.011-.463-.007-.2-.013-.339-.02-.478-.011-.206-.02-.347-.03-.486-.014-.2-.026-.344-.039-.484-.019-.206-.033-.354-.049-.5s-.036-.314-.054-.468c-.021-.172-.042-.324-.063-.474-.026-.185-.047-.331-.07-.476-.033-.209-.057-.354-.082-.5-.036-.2-.063-.354-.092-.5-.1-.516-.2-1-.318-1.484-.039-.162-.077-.321-.117-.48-.087-.347-.175-.672-.268-1a42.2,42.2,0,0,0-10.906-18.245c-.12-.116-.222-.212-.324-.308-.18-.169-.266-.248-.354-.327-.047-.044-.1-.089-.145-.132l-.195-.175-.219-.193c-.364-.315-.7-.594-1.032-.864a8.2,8.2,0,0,1-1.642-1.8,7.826,7.826,0,0,1-1.441-4.217c0-1.4.583-2.285,1.461-2.555A2.924,2.924,0,0,1,1267.438,263.756Z" transform="translate(-1237.989 -257.505)" fill="#84cff2"/>
                <g id="Group_173873" data-name="Group 173873" transform="translate(27.152 4.562)">
                  <path id="Path_91617" data-name="Path 91617" d="M1267.475,264.453a5.765,5.765,0,0,0-.52-.342,2.924,2.924,0,0,0-2.3-.423l0-1.266Q1266.092,263.361,1267.475,264.453Z" transform="translate(-1264.658 -262.422)" fill="#747878"/>
                </g>
              </g>
            </g>
            <g id="Group_173884" data-name="Group 173884" transform="translate(57.824 34.351)">
              <g id="Group_173876" data-name="Group 173876" transform="translate(26.991 61.33)">
                <path id="Path_91618" data-name="Path 91618" d="M1304.919,326.038a7.322,7.322,0,0,0,2.293,2.227,4.426,4.426,0,0,0,.523.261,27.867,27.867,0,0,1-2.819-1.222Z" transform="translate(-1304.916 -326.038)" fill="#747878"/>
              </g>
              <g id="Group_173877" data-name="Group 173877" transform="translate(25.371 12.055)">
                <path id="Path_91619" data-name="Path 91619" d="M1305.044,292.424c.039.026.076.056.115.083-.453-.3-.908-.6-1.374-.871l.308.191c.289.166.587.351.875.541Z" transform="translate(-1303.785 -291.636)" fill="#6c7070"/>
              </g>
              <g id="Group_173883" data-name="Group 173883" style="isolation: isolate">
                <g id="Group_173878" data-name="Group 173878" transform="translate(25.809 53.381)">
                  <path id="Path_91620" data-name="Path 91620" d="M1304.091,320.488c.211.112.423.222.629.324l.04.023C1304.538,320.724,1304.316,320.608,1304.091,320.488Z" transform="translate(-1304.091 -320.488)" fill="#747878"/>
                </g>
                <g id="Group_173879" data-name="Group 173879" transform="translate(27.014 53.99)">
                  <path id="Path_91621" data-name="Path 91621" d="M1306.393,321.52a2.5,2.5,0,0,0-1.461-.033v-.574Q1305.672,321.255,1306.393,321.52Z" transform="translate(-1304.932 -320.913)" fill="#747878"/>
                </g>
                <g id="Group_173880" data-name="Group 173880" transform="translate(26.745 12.601)">
                  <path id="Path_91622" data-name="Path 91622" d="M1306.772,293.816q.505.4,1,.835a29.216,29.216,0,0,0-3.027-2.309c.127.085.259.158.387.243v-.569A8.2,8.2,0,0,0,1306.772,293.816Z" transform="translate(-1304.744 -292.017)" fill="#747878"/>
                </g>
                <g id="Group_173881" data-name="Group 173881">
                  <path id="Path_91623" data-name="Path 91623" d="M1311.466,286.691q.9.518,1.76,1.09l0,1.266c-.878.271-1.457,1.153-1.461,2.555a7.84,7.84,0,0,0,1.441,4.218l0,.569c-.576-.394-1.163-.769-1.76-1.114-9.849-5.686-17.868-1.117-17.9,10.213s7.935,25.116,17.784,30.8c.186.109.371.211.556.311.225.122.447.236.669.348.179.089.358.176.536.261v.574a2.4,2.4,0,0,0-1.461,2.535,7.828,7.828,0,0,0,1.442,4.233l0,1.265c-.166-.082-.334-.168-.5-.254q-.621-.322-1.258-.689c-13.979-8.071-25.275-27.636-25.229-43.7S1297.488,278.621,1311.466,286.691Z" transform="translate(-1286.072 -283.22)" fill="#fff"/>
                </g>
                <path id="Path_91624" data-name="Path 91624" d="M1307.808,287.739a5.761,5.761,0,0,1,.52.341c.064.047.129.1.193.148,9.717,7.742,17.442,20.729,19.758,33.043.026.135.046.246.066.357.03.17.047.271.065.37.029.168.046.269.062.37.029.176.044.281.06.382.023.149.039.248.053.347.027.189.04.291.055.392.023.168.037.282.052.4.033.262.062.507.087.751.019.172.029.268.037.362.017.179.026.269.033.36.017.188.024.275.031.362.014.188.02.266.024.342.014.215.02.288.024.361.011.209.016.279.019.35.011.216.014.286.017.357l.006.149.006.188.006.165c0,.07,0,.14,0,.209,0,.226.006.314.006.4,0,.2,0,.315,0,.433s0,.233,0,.351c0,.165,0,.252-.007.338-.006.2-.007.269-.009.337l-.007.158-.007.18-.006.142c0,.066-.007.133-.011.2-.011.2-.016.269-.02.334-.013.2-.019.265-.024.332-.016.2-.021.271-.027.341-.017.18-.024.258-.033.335-.017.173-.026.254-.036.334-.019.163-.029.248-.04.332-.034.278-.064.488-.1.7-.017.112-.033.209-.049.308-.023.135-.037.216-.052.3-.029.155-.043.233-.059.312-.026.136-.041.215-.057.294-.031.149-.047.225-.064.3-.03.14-.047.216-.064.292-.036.148-.054.229-.074.311-.031.126-.056.218-.079.309-2.464,9.4-10.178,13.315-19.809,9.866-.064-.023-.127-.049-.192-.074a4.524,4.524,0,0,1-.521-.261,7.334,7.334,0,0,1-2.293-2.226,7.828,7.828,0,0,1-1.442-4.233,2.4,2.4,0,0,1,1.461-2.535,2.509,2.509,0,0,1,1.462.033c.06.019.122.037.183.059a11.817,11.817,0,0,0,7.613.41c.1-.031.193-.063.288-.1.112-.04.2-.076.294-.112.109-.044.2-.082.288-.122s.186-.085.271-.126c.1-.049.18-.09.261-.133.117-.062.192-.1.266-.146.123-.073.193-.116.264-.159.129-.082.2-.126.262-.17.129-.09.195-.136.259-.183.115-.086.172-.13.229-.175.128-.1.181-.146.234-.191.12-.1.179-.155.236-.206.122-.113.178-.166.234-.221.12-.119.173-.173.226-.229.119-.126.172-.183.224-.241l.2-.232.069-.084.125-.156.069-.089c.044-.059.089-.119.132-.178.1-.139.146-.206.192-.274.1-.149.145-.218.188-.286.1-.156.14-.226.182-.3.09-.158.133-.233.175-.311.074-.138.113-.212.15-.286.076-.15.115-.229.152-.309.073-.155.11-.241.149-.328.07-.162.108-.252.143-.342.064-.162.1-.255.135-.348.06-.168.094-.265.127-.361.053-.158.086-.261.118-.364.044-.145.076-.252.106-.36.039-.142.069-.254.1-.367.04-.16.066-.271.092-.381.04-.176.063-.286.086-.4.036-.185.057-.3.077-.414.03-.172.05-.294.069-.418.024-.158.042-.285.059-.414s.033-.271.047-.4c.02-.183.032-.309.043-.437.014-.186.024-.314.033-.444.011-.193.019-.322.024-.454.009-.2.013-.334.016-.47,0-.185.006-.329.007-.477s0-.3,0-.443c0-.18-.007-.321-.012-.463-.007-.2-.014-.339-.021-.478-.011-.2-.02-.347-.03-.486-.014-.2-.026-.342-.039-.484-.019-.206-.033-.354-.049-.5s-.034-.312-.054-.467c-.021-.173-.041-.324-.063-.476-.026-.185-.047-.329-.07-.474-.033-.211-.057-.355-.082-.5-.036-.2-.063-.354-.092-.5-.1-.516-.2-1-.316-1.484-.039-.16-.079-.319-.119-.48-.087-.345-.175-.67-.268-1a42.211,42.211,0,0,0-10.9-18.247c-.122-.116-.222-.212-.324-.306-.182-.17-.268-.249-.354-.328l-.146-.132c-.065-.059-.129-.116-.195-.173l-.219-.195c-.364-.315-.7-.594-1.033-.864a8.235,8.235,0,0,1-1.641-1.8,7.84,7.84,0,0,1-1.441-4.218c0-1.4.583-2.285,1.461-2.555A2.926,2.926,0,0,1,1307.808,287.739Z" transform="translate(-1278.359 -281.488)" fill="#ffde42"/>
                <g id="Group_173882" data-name="Group 173882" transform="translate(27.152 4.561)">
                  <path id="Path_91625" data-name="Path 91625" d="M1307.845,288.435a5.462,5.462,0,0,0-.52-.341,2.926,2.926,0,0,0-2.3-.424l0-1.266Q1306.461,287.345,1307.845,288.435Z" transform="translate(-1305.028 -286.404)" fill="#747878"/>
                </g>
              </g>
            </g>
          </g>
          <g id="Group_173907" data-name="Group 173907" transform="translate(1295.653 174.364)" opacity="0.8">
            <g id="Group_173903" data-name="Group 173903" transform="translate(87.042 51.549)">
              <path id="Path_91638" data-name="Path 91638" d="M1297.558,210.354l-10.45,5.956c6.806,12.361,11.009,26.039,11.121,38.491l14.733,8.505C1312.854,246.173,1307.028,227.326,1297.558,210.354Z" transform="translate(-1287.108 -210.354)" fill="#b2ccfc"/>
            </g>
            <g id="Group_173904" data-name="Group 173904" transform="translate(57.675 8.39)">
              <path id="Path_91639" data-name="Path 91639" d="M1266.652,180.222l-.047,16.929c10.827,6.577,20.6,17.271,27.836,29.512l10.45-5.956C1295,203.861,1281.54,189.143,1266.652,180.222Z" transform="translate(-1266.605 -180.222)" fill="#fcdf7f"/>
            </g>
            <g id="Group_173905" data-name="Group 173905" transform="translate(17.194)">
              <path id="Path_91640" data-name="Path 91640" d="M1276.685,181.493c-14.888-8.27-28.379-9.111-38.342-3.728l10.392,17.989c7.285-3.857,17.083-3.251,27.9,2.668Z" transform="translate(-1238.343 -174.364)" fill="#84cff2"/>
            </g>
            <g id="Group_173906" data-name="Group 173906" transform="translate(0 4.299)">
              <path id="Path_91641" data-name="Path 91641" d="M1241.991,177.366c-9.525,6.006-15.449,18.068-15.653,35.024l14.733,8.505c.191-12.278,4.448-21.073,11.311-25.54Z" transform="translate(-1226.339 -177.366)" fill="#e6a8df"/>
            </g>
          </g>
          <g id="Group_173908" data-name="Group 173908" transform="translate(1308.076 214.943)" opacity="0.8">
            <circle id="Ellipse_3651" data-name="Ellipse 3651" cx="23.649" cy="23.649" r="23.649" transform="translate(0 33.444) rotate(-45)" fill="#b2ccfc"/>
            <path id="Path_91642" data-name="Path 91642" d="M1257.32,239.669l-7.132-7.133a.852.852,0,0,1,0-1.2l3.15-3.15a.852.852,0,0,1,1.206,0l2.776,2.776a.854.854,0,0,0,1.206,0L1270.487,219a.852.852,0,0,1,1.2,0l3.151,3.15a.855.855,0,0,1,0,1.206l-16.317,16.317A.854.854,0,0,1,1257.32,239.669Z" transform="translate(-1228.559 -195.755)" fill="#f9fbfc"/>
          </g>
          <g id="Group_173939" data-name="Group 173939" transform="translate(-54 -13)">
            <g id="Group_173909" data-name="Group 173909" transform="translate(1144.379 246.798)">
              <path id="Path_91643" data-name="Path 91643" d="M1178.971,225.306c1.5-.867,2.711-.165,2.716,1.548l.236,83.288a5.945,5.945,0,0,1-2.7,4.684l-55.548,32.07c-1.5.867-2.71.166-2.716-1.558l-.236-83.288a5.947,5.947,0,0,1,2.7-4.674Z" transform="translate(-1120.726 -224.934)" fill="#bbd0f7"/>
            </g>
            <g id="Group_173915" data-name="Group 173915" transform="translate(1154.285 278.535)">
              <g id="Group_173910" data-name="Group 173910" transform="translate(0 58.545)">
                <path id="Path_91644" data-name="Path 91644" d="M1130.028,288.293c1.321-.762,2.4-.149,2.4,1.369l.027,9.549a5.247,5.247,0,0,1-2.386,4.132c-1.321.762-2.4.158-2.4-1.368l-.027-9.551A5.26,5.26,0,0,1,1130.028,288.293Z" transform="translate(-1127.642 -287.965)" fill="#d8ecf9"/>
              </g>
              <g id="Group_173911" data-name="Group 173911" transform="translate(9.544 40.067)">
                <path id="Path_91645" data-name="Path 91645" d="M1136.69,275.393c1.321-.763,2.4-.15,2.4,1.368l.063,22.5a5.247,5.247,0,0,1-2.385,4.131c-1.322.763-2.4.158-2.4-1.368l-.063-22.5A5.26,5.26,0,0,1,1136.69,275.393Z" transform="translate(-1134.305 -275.065)" fill="#d8ecf9"/>
              </g>
              <g id="Group_173912" data-name="Group 173912" transform="translate(19.146 42.787)">
                <path id="Path_91646" data-name="Path 91646" d="M1143.4,277.291c1.321-.762,2.4-.149,2.4,1.377l.04,14.239a5.25,5.25,0,0,1-2.385,4.132c-1.321.762-2.4.158-2.4-1.368l-.042-14.24A5.267,5.267,0,0,1,1143.4,277.291Z" transform="translate(-1141.009 -276.964)" fill="#d8ecf9"/>
              </g>
              <g id="Group_173913" data-name="Group 173913" transform="translate(28.664 15.247)">
                <path id="Path_91647" data-name="Path 91647" d="M1150.04,258.064c1.321-.762,2.4-.149,2.4,1.369l.1,36.255a5.248,5.248,0,0,1-2.386,4.131c-1.326.768-2.4.158-2.4-1.368l-.1-36.255A5.249,5.249,0,0,1,1150.04,258.064Z" transform="translate(-1147.654 -257.736)" fill="#d8ecf9"/>
              </g>
              <g id="Group_173914" data-name="Group 173914" transform="translate(38.211)">
                <path id="Path_91648" data-name="Path 91648" d="M1156.711,247.42c1.321-.763,2.4-.15,2.4,1.368l.13,45.971a5.248,5.248,0,0,1-2.385,4.132c-1.328.766-2.4.16-2.407-1.365l-.131-45.971A5.263,5.263,0,0,1,1156.711,247.42Z" transform="translate(-1154.319 -247.092)" fill="#d8ecf9"/>
              </g>
            </g>
            <g id="Group_173916" data-name="Group 173916" transform="translate(1141.593 227.556)">
              <path id="Path_91649" data-name="Path 91649" d="M1149.268,221.341c6.275-3.622,4.813,5.453,11.594,2.1.341-.169.663-.342.97-.519a15.516,15.516,0,0,0,5.7-5.821c1.213-1.964,2.14-3.766,3.995-4.837a6.8,6.8,0,0,1,1.513-.636c4.638-1.344,4.062,8.6,3.753,11.861l-58.01,33.492a8.763,8.763,0,0,1,2.779-3.506,2.2,2.2,0,0,1,1.093-.321,2.671,2.671,0,0,0,1.371-.305c1.312-.756,1.422-2.941,3.6-6.712a7,7,0,0,1,2.444-2.75c1.752-1.011,3.565-.4,6.421-2.05,4.155-2.4,2.741-12.426,11.048-18.814A15.879,15.879,0,0,1,1149.268,221.341Z" transform="translate(-1118.781 -211.5)" fill="#e6a8df"/>
            </g>
          </g>
          <g id="Group_173917" data-name="Group 173917" transform="translate(1318.582 383.623)" opacity="0.8">
            <path id="Path_91650" data-name="Path 91650" d="M1251.523,321.716c-5.058-2.921-9.158-.573-9.176,5.228s4.058,12.868,9.115,15.789l90.773,52.408c5.048,2.915,9.158.583,9.174-5.229s-4.066-12.872-9.114-15.787Z" transform="translate(-1242.347 -320.46)" fill="#bbd0f7"/>
          </g>
          <g id="Group_173918" data-name="Group 173918" transform="translate(1324.42 393.932)">
            <path id="Path_91651" data-name="Path 91651" d="M1246.423,329.124h0a1.471,1.471,0,0,0,.735,1.278l94.46,54.536a1.47,1.47,0,0,0,2.2-1.269h0a1.471,1.471,0,0,0-.735-1.276l-94.46-54.536A1.47,1.47,0,0,0,1246.423,329.124Z" transform="translate(-1246.423 -327.657)" fill="#ebeeee"/>
          </g>
          <g id="Group_173921" data-name="Group 173921" transform="translate(1372.635 418.728)">
            <g id="Group_173919" data-name="Group 173919">
              <path id="Path_91652" data-name="Path 91652" d="M1285.118,345.658c-2.773-1.6-5.023-.318-5.033,2.86a11.011,11.011,0,0,0,5,8.66c2.766,1.6,5.023.318,5.032-2.868A11.019,11.019,0,0,0,1285.118,345.658Z" transform="translate(-1280.085 -344.969)" fill="#d8ecf9"/>
            </g>
            <g id="Group_173920" data-name="Group 173920" transform="translate(2.865 3.682)">
              <path id="Path_91653" data-name="Path 91653" d="M1284.244,347.835c-1.189-.686-2.154-.136-2.159,1.228a4.722,4.722,0,0,0,2.146,3.714c1.186.685,2.154.136,2.157-1.23A4.726,4.726,0,0,0,1284.244,347.835Z" transform="translate(-1282.085 -347.54)" fill="#d8ecf9"/>
            </g>
          </g>
          <g id="Group_168430" data-name="Group 168430" transform="translate(1245.993 259.031)" opacity="0.8">
            <g id="Group_168405" data-name="Group 168405" transform="translate(0 16.913)">
              <g id="Group_168401" data-name="Group 168401" transform="translate(0 0)">
                <g id="Group_168400" data-name="Group 168400">
                  <g id="Group_168399" data-name="Group 168399">
                    <g id="Group_168398" data-name="Group 168398">
                      <path id="Path_82105" data-name="Path 82105" d="M-503.39,92.711l3.35-1.946,9.148,5.281-3.349,1.946Z" transform="translate(503.39 -90.765)" fill="#ffe984"/>
                    </g>
                  </g>
                </g>
              </g>
              <g id="Group_168404" data-name="Group 168404" transform="translate(0 32.421)">
                <g id="Group_168403" data-name="Group 168403">
                  <g id="Group_168402" data-name="Group 168402">
                    <path id="Path_82106" data-name="Path 82106" d="M-503.39,109.393l3.35-1.946,9.148,5.281-3.349,1.946Z" transform="translate(503.39 -107.447)" fill="url(#linear-gradient-2)"/>
                  </g>
                </g>
              </g>
              <path id="Path_82107" data-name="Path 82107" d="M-503.39,91.766v32.423l9.148,5.281V97.047Z" transform="translate(503.39 -89.822)" fill="#ffde42"/>
              <path id="Path_82108" data-name="Path 82108" d="M-495.333,93.482V125.9l-3.349,1.946V95.428Z" transform="translate(507.832 -88.201)" fill="#ffb70f"/>
            </g>
            <g id="Group_168413" data-name="Group 168413" transform="translate(13.721 11.277)">
              <g id="Group_168409" data-name="Group 168409" transform="translate(0 0)">
                <g id="Group_168408" data-name="Group 168408">
                  <g id="Group_168407" data-name="Group 168407">
                    <g id="Group_168406" data-name="Group 168406">
                      <path id="Path_82109" data-name="Path 82109" d="M-496.329,89.81l3.349-1.946,9.148,5.281-3.349,1.946Z" transform="translate(496.329 -87.864)" fill="#ffe984"/>
                    </g>
                  </g>
                </g>
              </g>
              <g id="Group_168412" data-name="Group 168412" transform="translate(0 45.983)">
                <g id="Group_168411" data-name="Group 168411" transform="translate(0 0)">
                  <g id="Group_168410" data-name="Group 168410">
                    <path id="Path_82110" data-name="Path 82110" d="M-496.329,113.47l3.349-1.946,9.148,5.281-3.349,1.946Z" transform="translate(496.329 -111.524)" fill="url(#linear-gradient-2)"/>
                  </g>
                </g>
              </g>
              <path id="Path_82111" data-name="Path 82111" d="M-496.329,88.865v45.983l9.148,5.281V94.146Z" transform="translate(496.329 -86.921)" fill="#ffde42"/>
              <path id="Path_82112" data-name="Path 82112" d="M-488.273,90.581v45.983l-3.349,1.946V92.527Z" transform="translate(500.77 -85.3)" fill="#ffb70f"/>
            </g>
            <g id="Group_168421" data-name="Group 168421" transform="translate(27.444 5.638)">
              <g id="Group_168417" data-name="Group 168417" transform="translate(0 0)">
                <g id="Group_168416" data-name="Group 168416">
                  <g id="Group_168415" data-name="Group 168415">
                    <g id="Group_168414" data-name="Group 168414">
                      <path id="Path_82113" data-name="Path 82113" d="M-489.269,86.909l3.349-1.946,9.148,5.281-3.35,1.946Z" transform="translate(489.269 -84.963)" fill="#ffe984"/>
                    </g>
                  </g>
                </g>
              </g>
              <g id="Group_168420" data-name="Group 168420" transform="translate(0 59.542)">
                <g id="Group_168419" data-name="Group 168419">
                  <g id="Group_168418" data-name="Group 168418">
                    <path id="Path_82114" data-name="Path 82114" d="M-489.269,117.546l3.349-1.946,9.148,5.282-3.35,1.946Z" transform="translate(489.269 -115.6)" fill="url(#linear-gradient-2)"/>
                  </g>
                </g>
              </g>
              <path id="Path_82115" data-name="Path 82115" d="M-489.269,85.964v59.545l9.148,5.281V91.245Z" transform="translate(489.269 -84.02)" fill="#ffde42"/>
              <path id="Path_82116" data-name="Path 82116" d="M-481.213,87.68v59.545l-3.35,1.946V89.626Z" transform="translate(493.71 -82.399)" fill="#ffb70f"/>
            </g>
            <g id="Group_168429" data-name="Group 168429" transform="translate(41.166 0)">
              <g id="Group_168425" data-name="Group 168425">
                <g id="Group_168424" data-name="Group 168424">
                  <g id="Group_168423" data-name="Group 168423">
                    <g id="Group_168422" data-name="Group 168422">
                      <path id="Path_82117" data-name="Path 82117" d="M-482.209,84.008l3.349-1.946,9.148,5.282-3.349,1.946Z" transform="translate(482.209 -82.062)" fill="#ffe984"/>
                    </g>
                  </g>
                </g>
              </g>
              <g id="Group_168428" data-name="Group 168428" transform="translate(0 73.102)">
                <g id="Group_168427" data-name="Group 168427">
                  <g id="Group_168426" data-name="Group 168426">
                    <path id="Path_82118" data-name="Path 82118" d="M-482.209,121.622l3.349-1.946,9.148,5.281-3.349,1.946Z" transform="translate(482.209 -119.676)" fill="url(#linear-gradient-2)"/>
                  </g>
                </g>
              </g>
              <path id="Path_82119" data-name="Path 82119" d="M-482.209,83.063v73.106l9.148,5.282V88.338Z" transform="translate(482.209 -81.119)" fill="#ffde42"/>
              <path id="Path_82120" data-name="Path 82120" d="M-474.152,84.779v73.1l-3.349,1.946v-73.1Z" transform="translate(486.651 -79.498)" fill="#ffb70f"/>
            </g>
          </g>
        </g>
        <g id="Group_173925" data-name="Group 173925" transform="translate(-5531.46 10434)">
          <g id="Group_171624" data-name="Group 171624">
            <g id="Group_171614" data-name="Group 171614" transform="translate(13.65 166.299)">
              <path id="Path_87442" data-name="Path 87442" d="M234.554,102.2c-6.681-1.558-11.7-.135-14.515-4.251-1.78-2.605-7.749-1.218-10.812-.213-1.315.433-1.505.86-1.63,1.653a30,30,0,0,0,.588,9.484c.438.7,3.826.47,4.646.46a.722.722,0,0,0,.743-.6c.013-.345-.035-.49.393-.423,8.9,1.388,18.7,1.473,20.338,1.23a3.631,3.631,0,0,0,3.315-3.888C237.47,104.342,237.2,102.817,234.554,102.2Z" transform="translate(-207.438 -96.454)" fill="#545a60"/>
              <path id="Path_87443" data-name="Path 87443" d="M237.5,100.136a3.354,3.354,0,0,1-1.348,1.9,6.4,6.4,0,0,1-3.506.818c-6.453-.288-24.3-.933-24.581-1.135a3.622,3.622,0,0,1-.3-1.288c-.08.013-.168.015-.25.025a14.887,14.887,0,0,0,.545,3.278c.438.7,3.826.47,4.646.46.353-.008,19.838.45,21.473.208C236.676,104.3,238.381,101.929,237.5,100.136Z" transform="translate(-207.317 -90.931)" fill="#363d43"/>
            </g>
            <g id="Group_171615" data-name="Group 171615" transform="translate(2.781 195.123)">
              <path id="Path_87444" data-name="Path 87444" d="M203.116,117.16a1.778,1.778,0,0,0,1.06,1.633c.3.13.608.248.9.4a8.969,8.969,0,0,1,2.285,2,35.7,35.7,0,0,0,8.571,7.1c9.016,5.051,15.572,1.745,14.78-2.9-.955-5.578-11.484-8.224-13.214-12.294-.338-.788-.813-4.058-1.418-4.6-.673-.61-8-.915-10.764.453-.963.475-2.11.873-2.22,1.983Z" transform="translate(-203.091 -107.982)" fill="#545a60"/>
              <path id="Path_87445" data-name="Path 87445" d="M230.692,121.047c-1.1,3.463-7.124,5.253-14.78.965-3.25-1.823-10.614-8.3-11.452-8.979a3.708,3.708,0,0,1-1.36-2.153v2.63a1.051,1.051,0,0,0,.278.733c1.62,1.73,9.554,8.406,12.534,10.076,9.016,5.053,15.8,1.68,14.895-2.94A2.51,2.51,0,0,0,230.692,121.047Z" transform="translate(-203.076 -103.634)" fill="#363d43"/>
            </g>
            <path id="Path_87446" data-name="Path 87446" d="M209.374,112.868c-.8,5.686-3.135,6.381-3.543,12.114-.42,5.926,1.41,10.294,1.41,19.8,0,5.763,15.95,5.763,15.95-.113,0-4.541,1.613-20.533,2.8-24.441.938-3.078,1.79-4.131,2.815-7.2,3.843-11.494,6.211-28.442,6.211-28.442,1.535-13.627-.833-19.7-4.058-19.465-3.685.27-20.565,19.68-21.3,22.886C209.149,90.257,209.729,110.322,209.374,112.868Z" transform="translate(-196.294 22.823)" fill="#425563"/>
            <path id="Path_87447" data-name="Path 87447" d="M205.585,122.169c-.8,8.4-3.135,9.431-3.543,17.9-.42,8.759,1.41,18.865,1.41,32.907,0,4.493,15.95,4.316,15.95-.165,0-6.711,1.99-30.524,3.18-36.3.938-4.548,2.005-9.069,3.03-13.6,3.843-16.987,4.493-35.805,4.493-35.805-2.525-2.038-4.216-15.925-7.441-15.577-3.063.333-12.007-6.981-15.932-3.966-.8.613-2.32,7.589-2.95,10.459C201.069,90.379,205.94,118.408,205.585,122.169Z" transform="translate(-201.979 25.401)" fill="#425563"/>
            <g id="Group_171618" data-name="Group 171618" transform="translate(25.159 22.28)">
              <g id="Group_171617" data-name="Group 171617" transform="translate(28.633 53.691)">
                <g id="Group_171616" data-name="Group 171616">
                  <path id="Path_87448" data-name="Path 87448" d="M253.717,76.352,223.492,60.328l5.2,21.817,30.224,16.024Z" transform="translate(-223.492 -60.328)" fill="#2faeee"/>
                </g>
                <path id="Path_87449" data-name="Path 87449" d="M241.482,68.869l2.66,1.393a18.292,18.292,0,0,0-.34-1.85,2.9,2.9,0,0,0-.753-1.018,36.5,36.5,0,0,0-4.238-3.613,4.859,4.859,0,0,0-1.088-.65,5.253,5.253,0,0,0-1.1-.248L232.69,62.3a2.112,2.112,0,0,1-1.053-.358c-.3-.248-6.618,3.936-6.386,4.331a3.2,3.2,0,0,0,.888.87c4.026,3.008,8.714,5.433,13,8.106a1.654,1.654,0,0,0,1.263.365,1.147,1.147,0,0,0,.523-1.59,3.615,3.615,0,0,0-1.365-1.293,2.841,2.841,0,0,1-1.26-1.38C238.516,70.375,240.5,69.022,241.482,68.869Z" transform="translate(-220.862 -57.929)" fill="#ffe1bd"/>
              </g>
              <path id="Path_87450" data-name="Path 87450" d="M233.459,73.417c-.625-2.078-4.076-15.725-5.188-20.58-1.483-6.483-3.62-12.644-9.759-13.792a13.133,13.133,0,0,0-3.46-.135c-2.233,1.113-2.838,1.793-3.01,4.066,3.488,17.518,8.466,34.5,10.254,40.116.085.825,18.685,16.09,23.938,19.638,2.06,1.393,8.291-3.591,5.568-6.736C241.335,83.891,233.812,74.587,233.459,73.417Z" transform="translate(-212.041 -38.855)" fill="#77d2ff"/>
            </g>
            <path id="Path_87451" data-name="Path 87451" d="M206.192,102.949c-.155,5.988-.7,6.126-1.683,12.912,3.838,8.089,35.453,6.058,36.463-5.891,0,0-1.128-10.717-1.01-13.2.033-2.988,4.516-48.927-2.793-56.183a6.639,6.639,0,0,0-7.314-1.223c-17.25,7.409-26.029,18.793-27.251,23.526C200.351,71.6,206.677,84.477,206.192,102.949Z" transform="translate(-201.771 -16.688)" fill="#5fb9e6"/>
            <path id="Path_87452" data-name="Path 87452" d="M222.179,84.016c-8.3-9.511-12.757-22.028-15.107-34.59-.378.278-.735.575-1.113.848a39.873,39.873,0,0,1-3.821,2.433c.463,8.344,4.408,19.518,4.021,34.27-.155,5.988-.7,6.126-1.683,12.912,3.338,7.034,27.656,6.411,34.62-1.72A72.471,72.471,0,0,1,222.179,84.016Z" transform="translate(-201.739 -0.715)" fill="#5fb9e6"/>
            <path id="Path_87453" data-name="Path 87453" d="M221.016,85.338a1.225,1.225,0,0,0,.008-.448L216.573,47.4l-1.618,1.135L213.55,89.188a1.176,1.176,0,0,0,.243.715l4.123,5.321a.588.588,0,0,0,1.038-.238Z" transform="translate(-184.618 -3.755)" fill="#2f5ba8"/>
            <g id="Group_171621" data-name="Group 171621" transform="translate(12.706 27.072)">
              <path id="Path_87454" data-name="Path 87454" d="M214.171,41.669c4.388,5.961,4.751,29.962,4.223,35.463a.263.263,0,0,0,.22.308c.18-.038.458-.2.47-.33.528-5.476.5-29.122-4.906-36.26Z" transform="translate(-196.393 -40.656)" fill="#d33c3c"/>
              <path id="Path_87455" data-name="Path 87455" d="M207.809,48.4c-.865-3.731,2.288-6.093,5.233-7.156a.868.868,0,0,0-.9-.47,2.132,2.132,0,0,0-.925.428q-1.091.735-2.183,1.475c-1.8,1.218-2.168,3-1.9,5.306a18.3,18.3,0,0,0,2.5,6.9c4.9,8.389,11.974,16.465,15.7,23.443.055.1.4.08.5.055.21-.14.25-.32.18-.453-3.726-6.966-10.844-15.1-15.737-23.471A21.112,21.112,0,0,1,207.809,48.4Z" transform="translate(-207.061 -40.772)" fill="#d33c3c"/>
              <g id="Group_171620" data-name="Group 171620" transform="translate(16.715 33.138)">
                <path id="Path_87456" data-name="Path 87456" d="M221.894,65.37l-6.319,2.788-1.829-11.345,6.319-2.788Z" transform="translate(-213.746 -54.025)" fill="#ddd"/>
                <path id="Path_87457" data-name="Path 87457" d="M217.889,58.486l-2.764,1.219-.586-3.637,2.764-1.219Z" transform="translate(-212.555 -52.788)" fill="#605b60" opacity="0.6"/>
                <g id="Group_171619" data-name="Group 171619" transform="translate(1.978 6.378)" opacity="0.4">
                  <path id="Path_87458" data-name="Path 87458" d="M218.754,56.769l-4.186,1.847-.031-.194,4.186-1.847Z" transform="translate(-214.537 -56.576)" fill="#9b979b"/>
                  <path id="Path_87459" data-name="Path 87459" d="M218.818,57.171l-4.186,1.847-.031-.194,4.186-1.847Z" transform="translate(-214.439 -55.972)" fill="#9b979b"/>
                  <path id="Path_87460" data-name="Path 87460" d="M218.883,57.574,214.7,59.42l-.031-.193,4.186-1.847Z" transform="translate(-214.342 -55.369)" fill="#9b979b"/>
                  <path id="Path_87461" data-name="Path 87461" d="M218.422,58.034l-3.528,1.556-.031-.193,3.527-1.556Z" transform="translate(-214.047 -54.678)" fill="#9b979b"/>
                  <path id="Path_87462" data-name="Path 87462" d="M217.938,58.5,215.1,59.751l-.031-.194,2.842-1.253Z" transform="translate(-213.744 -53.984)" fill="#9b979b"/>
                </g>
              </g>
            </g>
            <g id="Group_171622" data-name="Group 171622" transform="translate(11.259)">
              <path id="Path_87463" data-name="Path 87463" d="M218.668,60.166c.137-.1.275-.2.413-.3a68.43,68.43,0,0,1,7.554-5.771,18.593,18.593,0,0,0-4.951-7.381c-3.328-2.945-6.723-7.841-8.2-7-1.14.648-2.028,1.425-3.063,1.913a4.624,4.624,0,0,0-2.69,3.571,7.636,7.636,0,0,0,1.71,6.291A67.333,67.333,0,0,1,218.668,60.166Z" transform="translate(-204.806 -15.426)" fill="#5fb9e6"/>
              <path id="Path_87464" data-name="Path 87464" d="M216.815,52.213c1.865-.715,3-7.864-.963-5.661a10.029,10.029,0,0,0-2.363,1.69,3.058,3.058,0,0,0-.3,2.58C213.567,51.7,215.9,52.565,216.815,52.213Z" transform="translate(-196.654 -5.657)" fill="#2f5ba8"/>
              <path id="Path_87465" data-name="Path 87465" d="M214.478,51.416l4.866,1.69s-3.285-8.294-5.666-10.249C218.164,49.473,214.478,51.416,214.478,51.416Z" transform="translate(-195.685 -10.571)" fill="#77d2ff"/>
              <path id="Path_87466" data-name="Path 87466" d="M222.4,51.806c.53-2.758.853-1.61-2.6-8.074a3.993,3.993,0,0,0-3.033-2.563c-4.683-1.45-4.708-.278-7.071-.763a.616.616,0,0,0-.38,0c-.1.048-1.048-.613-1.035-.5a24.064,24.064,0,0,1-.173,6.783c-.14,2.27,1.928,3.616,3.468,5.213a27.355,27.355,0,0,0,2.793,2.948c.9.7,4.526,2.428,5.553,2.228.9-.173,2.218.328,2.388-.8A35.727,35.727,0,0,1,222.4,51.806Z" transform="translate(-204.055 -15.017)" fill="#ffd1a4"/>
              <path id="Path_87467" data-name="Path 87467" d="M221.578,61.1l2.253-6.7s-5.213.738-13.2-7.816c0,0-2.488-2.933-1.54-5.588a11.238,11.238,0,0,0-1.793,4.816C207.206,48.008,216.827,57.812,221.578,61.1Z" transform="translate(-205.266 -13.365)" fill="#77d2ff"/>
              <path id="Path_87468" data-name="Path 87468" d="M209.3,48.325a27,27,0,0,0,2.678,5.3c3.07,4.7,10.019,7.586,12.022,7.991,2.518.508,5.321,1.07,5.536-1.48.475-5.636,1.685-17.705.553-23.781-1.255-6.728-18.838-.53-21.323,2.035-.84.865-1.2,2.805-1.243,4.018-.03.8.278,1.073.578,1.773C208.672,45.5,208.795,46.975,209.3,48.325Z" transform="translate(-204.924 -24.883)" fill="#ffe1bd"/>
              <path id="Path_87469" data-name="Path 87469" d="M214.616,52.671a1.444,1.444,0,0,0,1.438-.638c.633-1.008.4-1.9.355-3.008-.1-2.5-1.153-4.166,7.131-4.126a18.773,18.773,0,0,0,5.783-.81c5.481-1.74,2.158-8.119,1.41-9.164-1.45-2.035-4.393-3.881-8.584-4.776-5.921-1.265-21.571,2.928-13.312,22.7a5.308,5.308,0,0,0,1.675,2.138c.64.49,1.275.958,1.275.958.185-1.275-.5-2.6-.93-3.813-.285-.808-.768-2.68.67-2.488C213.2,49.866,213.253,52.429,214.616,52.671Z" transform="translate(-206.482 -29.944)" fill="#231202"/>
              <path id="Path_87470" data-name="Path 87470" d="M211.768,40.243c.753,2.28-.235,3.338,1.435,7.1-1.863.085-2.2-1.473-2.813-2.353C204.49,39.105,209.921,34.632,211.768,40.243Z" transform="translate(-204.632 -18.354)" fill="#ffe1bd"/>
            </g>
            <g id="Group_171623" data-name="Group 171623" transform="translate(0.292 41.759)">
              <path id="Path_87471" data-name="Path 87471" d="M221.084,55.128c1.863,10.709,5.158,30.989,5.158,30.989s16.037,12.592,23,16.292c3.115,1.588-.685,10.777-4.636,8.8-4.961-2.48-27.411-10.617-29.579-13.009s-9.369-25.176-12.189-37.073c-.983-4.146-1.09-7.3.283-9.941a8.518,8.518,0,0,1,9.036-4.4C218.3,47.962,220.436,51.4,221.084,55.128Z" transform="translate(-202.096 -46.646)" fill="#77d2ff"/>
              <path id="Path_87472" data-name="Path 87472" d="M227.91,84.247c1.105.78,2.253.945,4.206,1.188a13.771,13.771,0,0,0,5.541-.523c.313-.135.588-.345.888-.508.513-.28,1.093-.418,1.6-.708,1.135-.653,1.6-2.385.615-2.79a35.743,35.743,0,0,0-4.581-.6,6.274,6.274,0,0,1-2.153-.59c-1.683-.8-3.455-1.628-3.943-2.39a3.339,3.339,0,0,1,.033-3.571,1.7,1.7,0,0,1,.735-.49,3.366,3.366,0,0,0,1.85-4.326.939.939,0,0,0-.29-.408.794.794,0,0,0-.878.055c-.488.323-.625.79-.968,1.205A2.985,2.985,0,0,1,229,70.61a9.883,9.883,0,0,1-4.811.075,2.011,2.011,0,0,0-1.343-.013,5.345,5.345,0,0,0-3,3.4c-1.03,2.675-.62,3.746.493,4.421C221.512,79.2,224.577,81.892,227.91,84.247Z" transform="translate(-176.36 -13.969)" fill="#ffe1bd"/>
            </g>
          </g>
          <g id="Group_171629" data-name="Group 171629" transform="translate(94.653 40.746)">
            <g id="Group_171625" data-name="Group 171625" transform="translate(26.25)">
              <path id="Path_87473" data-name="Path 87473" d="M274.274,66.132l-14.265-7.6s-8.944-8.921-9.176-6.471.46,19.19,1.785,21c.528.715,4.291,1.353,5.863,1.19l.583,3.606c9.019.153,15.86-3.44,15.53-6.061A51.206,51.206,0,0,1,274.274,66.132Z" transform="translate(-249.648 -38.145)" fill="#fbbd9e"/>
              <path id="Path_87474" data-name="Path 87474" d="M259.829,46.241c5.306.06,11.062.74,13.454,2.485,3.045,2.223,4.7,7.316,4.766,11.087.088,5.366-.535,12.634-3.035,16.762-1.588,3.53-14.287,5.816-14.62-1.843.223-2.4.208-4.533-.51-6.058-.575-1.223-2.4-2-3.2-.553-.358.643.13,1.443-.935,1.435a1.581,1.581,0,0,1-1.273-1.245c-.14-1.033.413-2.02.145-3.165a8.411,8.411,0,0,0-1.633-3.135c-.35-.448-1.37-1.068-1.583-1.513C248.423,54.248,251.8,46.154,259.829,46.241Z" transform="translate(-250.333 -46.241)" fill="#2b2119"/>
            </g>
            <path id="Path_87475" data-name="Path 87475" d="M277.927,141.743q.007-.428.015-.855l.183-10.066a42,42,0,0,0-6.988-1.338l-7.611,1.288c-2.483,3.821-18.39,1.75-19.2,7.7-1.243,5.236,14.5,5.553,16.9,5.093,1.768-.34,4.676-.685,6.048-1.08C267.275,142.483,277.922,142.1,277.927,141.743Z" transform="translate(-233.207 78.654)" fill="#191619"/>
            <path id="Path_87476" data-name="Path 87476" d="M275.256,123.383l-16.21-4.156c-2.248.69-3.776,4.761-3.105,7,.268.89,8.5,3.483,11.037,4.136a10.7,10.7,0,0,0,7.079-.535c.4-.2,1.2-.648,1.188-1.2C275.243,128.628,275.246,124.1,275.256,123.383Z" transform="translate(-215.909 63.265)" fill="#191619"/>
            <path id="Path_87477" data-name="Path 87477" d="M269.434,125.156a15,15,0,0,1-5.583-.255,25.8,25.8,0,0,1-6.568-2.268l.723,2.59a37.907,37.907,0,0,0,8.439,2.03c4.706.273,6.018-1.025,6.4-1.61a1.008,1.008,0,0,0,.147-.57l0-1.79S272.932,124.611,269.434,125.156Z" transform="translate(-213.657 68.375)" fill="#545a60"/>
            <path id="Path_87478" data-name="Path 87478" d="M277.889,135.546c-.63.6-8.146,1.225-9.946,1.385a115.7,115.7,0,0,1-17.49.358,7.994,7.994,0,0,1-4.643-1.54,2.917,2.917,0,0,1-1.318-2.755,3,3,0,0,0,.063,2.688,5.461,5.461,0,0,0,3.811,3.11c4.356.98,15.13.263,17.572.05,2.4-.21,11.137-.76,11.767-1.353a1.374,1.374,0,0,0,.293-1.01l.023-1.18A.759.759,0,0,1,277.889,135.546Z" transform="translate(-233.277 83.919)" fill="#545a60"/>
            <g id="Group_171626" data-name="Group 171626" transform="translate(0 57.792)">
              <path id="Path_87479" data-name="Path 87479" d="M261.124,73.294c-.638-1.6-.448-3.726-4.091-3.726,0,0-3.455-.03-7.541.075a26.009,26.009,0,0,0-4.448,1.163c-2.7.833-5,1.59-4.581,2.57.258.61,1.235.79,1.945.6-1.813.47-3.145.993-2.328,2.268.27.42,1.058.325,2.605.04-1.953.71-1.743,1.76-.7,2.075a8.524,8.524,0,0,0,2.585-.118c-1.015.558-.715,1.923,1.38,1.628l4.061-.578c2.178-.08,3.12-.133,3.881-.18,2.46-.148,5.171-.565,5.171-.565C260.344,77.394,261.764,74.892,261.124,73.294Z" transform="translate(-239.835 -69.039)" fill="#f9ad87"/>
              <path id="Path_87480" data-name="Path 87480" d="M242.4,71.7a.947.947,0,0,0-.053,1.178c.808.89,3.11.112,4.253-.19,1.4-.37,2.785-1,4.106-.1,1.593,1.093,2.25,2.935,4.266,2.768a2.1,2.1,0,0,0,1.868-1.443,2.917,2.917,0,0,0,.02-1.083c-.245-1.96-.85-2.843-2.523-3.03-.555-.062-2.8-.355-3.3-.41a7.346,7.346,0,0,0-2.935.305C247.31,69.949,242.91,71.044,242.4,71.7Z" transform="translate(-236.343 -69.354)" fill="#fbbd9e"/>
            </g>
            <path id="Path_87481" data-name="Path 87481" d="M256.689,69.145l-7.5.18c-4.318.433-4.043,10.772-1.078,11.284l12.472.085Z" transform="translate(-230.724 -11.876)" fill="#fff"/>
            <path id="Path_87482" data-name="Path 87482" d="M258.312,68.952l-8.286.2c-4.771.475-4.466,11.894-1.19,12.459l13.775.1Z" transform="translate(-229.977 -12.166)" fill="#9ab7e4"/>
            <path id="Path_87483" data-name="Path 87483" d="M272.935,116.509c-.063-6.353-.055-18.483-.423-25.466l-14.892,9.391a135.42,135.42,0,0,0-1.353,21.341c.11,6.808,4.331,34.835,5.066,43.441.462,2.93,13.3,2.9,13.427.453,1.308-26.046.8-33.7-1.01-41.6A50.454,50.454,0,0,1,272.935,116.509Z" transform="translate(-215.204 20.979)" fill="#211921"/>
            <path id="Path_87484" data-name="Path 87484" d="M272.238,172.626c.385-7.931.768-15.922-.363-23.783-.585-4.086-1.388-8.079-1.675-12.2-.275-3.938.665-7.624,1.363-11.534a206.622,206.622,0,0,0,3.3-26.341c.092-1.933.058-4.1-1.305-5.476-1.215-1.225-3.1-1.415-4.821-1.535a29.719,29.719,0,0,0-6.516.028c-5.046.763-8.721,3.718-13.282,6.008,0,0,.548,22.116,1.838,32.54,1.213,9.789,2.838,14.692,3.265,20.938.6,8.634.585,24.526.67,35.905.045,6.016,16.3,7.179,16.62,2.233C271.708,183.751,271.963,178.29,272.238,172.626Z" transform="translate(-226.17 21.794)" fill="#211921"/>
            <path id="Path_87485" data-name="Path 87485" d="M288.069,61.553a9.578,9.578,0,0,1,3.168,5.556c.688,3.613-.165,7.576-.545,11.219-1.018,9.749-1.108,16.657-2.585,25.431-2.738,16.217,3.188,12.857.93,36.728-.575,6.053-4.4,3.846-4.4,3.846a13.78,13.78,0,0,1-1.788,3.305c-6.378,8.541-18.365,7.068-27.726,6.738-1.388-.05-5.368-1-6.5-1.805-.265-.188,1.535-9.9,1.758-12.622.413-5.063.613-10.141.713-15.22.2-9.991-.023-19.985.128-29.979a58.637,58.637,0,0,1,1.418-14c1.19-4.548,3.51-8.939,7.221-11.824a20.586,20.586,0,0,1,2.46-1.623c1.14-.653,6.281-.575,7.464-1.148,3.743-1.81,4.2-1.753,7.366-3.971.958-.463.363-2.525,1.41-2.718A11.661,11.661,0,0,1,288.069,61.553Z" transform="translate(-226.689 -26.74)" fill="#88ade5"/>
            <g id="Group_171628" data-name="Group 171628" transform="translate(3.736 122.294)">
              <g id="Axonometric_Cube" data-name="Axonometric Cube">
                <path id="Path_87486" data-name="Path 87486" d="M262.985,136.784l.51-.3c.743-1.858,1.708-1.955,3.108-1.8l.347-.2.013-28.444-14.672-3.876Z" transform="translate(-224.882 -84.615)" fill="#5c3c25"/>
                <path id="Path_87487" data-name="Path 87487" d="M256.775,106.484l0,26.3c.743-1.858,1.708-1.955,3.108-1.8l-.013-26.351Z" transform="translate(-218.158 -80.914)" fill="url(#linear-gradient-6)"/>
                <path id="Path_87488" data-name="Path 87488" d="M278.5,133.2l-.044-15.466v-2.068L241.329,96.3v15.44l.978.565v11.867L279.431,145.6V132.657Z" transform="translate(-241.329 -93.434)" fill="#472d1a"/>
                <path id="Cube_face_-_top" data-name="Cube face - top" d="M278.454,119.447l4.957-2.862L246.286,95.151l-4.957,2.862Z" transform="translate(-241.329 -95.151)" fill="#66432a"/>
                <path id="Path_87489" data-name="Path 87489" d="M260.513,104.041l-4.163,2.4v15.12l.529-.305V107.689l3.626-2.152Z" transform="translate(-218.791 -81.813)" fill="#472d1a"/>
                <g id="Group_171627" data-name="Group 171627" transform="translate(5.776 16.446)">
                  <g id="Axonometric_Cube-2" data-name="Axonometric Cube" transform="translate(20.414 11.786)">
                    <path id="Cube_face_-_left" data-name="Cube face - left" d="M253.42,110.98l.519-.3v-3.3l-.519.3Z" transform="translate(-249.379 -105.043)" fill="#d5bbc9"/>
                    <path id="Cube_face_-_right" data-name="Cube face - right" d="M251.8,109.867l4.041,2.333v-3.3l-4.041-2.333Z" transform="translate(-251.804 -106.263)" fill="#ab9baa"/>
                    <path id="Cube_face_-_top-2" data-name="Cube face - top" d="M255.845,109.075l.519-.3-4.041-2.333-.519.3Z" transform="translate(-251.804 -106.443)" fill="url(#linear-gradient-7)"/>
                  </g>
                  <g id="Axonometric_Cube-3" data-name="Axonometric Cube">
                    <path id="Cube_face_-_left-2" data-name="Cube face - left" d="M245.255,106.266l.519-.3v-3.3l-.519.3Z" transform="translate(-241.214 -100.329)" fill="#9d8e9c"/>
                    <path id="Cube_face_-_right-2" data-name="Cube face - right" d="M243.639,105.153l4.041,2.333v-3.3l-4.041-2.333Z" transform="translate(-243.639 -101.549)" fill="#ab9baa"/>
                    <path id="Cube_face_-_top-3" data-name="Cube face - top" d="M247.68,104.362l.519-.3-4.041-2.333-.519.3Z" transform="translate(-243.639 -101.729)" fill="url(#linear-gradient-8)"/>
                  </g>
                </g>
              </g>
              <path id="Path_87490" data-name="Path 87490" d="M254.973,99.085c-1.24,2.393-4.483,2.11-4.483,2.11a3.665,3.665,0,0,1-3.765-.19c-1.138-.7-.8-1.6-.468-1.96C248.907,96.157,256.145,96.82,254.973,99.085Z" transform="translate(-234.412 -92.193)" fill="#472d1a"/>
            </g>
            <path id="Path_87491" data-name="Path 87491" d="M258.82,96.78a6.319,6.319,0,0,0-3.415-2.02c-1.69-.288-5.093,1.11-5.763,2.835-.413,1.065-.68,2.013-1.2,3.065a10.256,10.256,0,0,0-1.308,4.811,1.654,1.654,0,0,0,1,1.6c.65.4.858.163,1.52.543.245.14,1.59,1.335,1.855,1.425,1.618.555,1.885,1.385,3.6,1.41a4.2,4.2,0,0,0,3.223-1.823,10.085,10.085,0,0,0,1.488-2.148c.77-1.67.258-3.786-.037-5.513C259.563,99.718,259.5,97.893,258.82,96.78Z" transform="translate(-228.9 26.498)" fill="#fbbd9e"/>
            <path id="Path_87492" data-name="Path 87492" d="M250.827,101.751a27.828,27.828,0,0,1,3.083,4.531,2.848,2.848,0,0,0,3.536.21,1.287,1.287,0,0,0,.465-1.96,21.194,21.194,0,0,0-3.523-5.121C253.32,98.343,250,100.793,250.827,101.751Z" transform="translate(-223.54 33.137)" fill="#472d1a"/>
            <path id="Path_87493" data-name="Path 87493" d="M248.4,94.419c-.2,2.01-.335,3.41-.378,3.746-.5,3.968,9.679,4.763,10.264,3.323a61.194,61.194,0,0,0,1.868-5.908A96.9,96.9,0,0,1,248.4,94.419Z" transform="translate(-227.572 26.044)" fill="#fff"/>
            <path id="Path_87494" data-name="Path 87494" d="M253.433,68.864c-.02-.012,1.183-3.756,1.183-3.756,4.051-.133,7.869-.475,11.682-2.268,2.3-1.223,4.028-2.6,4.083-3.978l1.42,2.083s2.958,2-5.771,6.191C262.372,68.9,257.494,68.927,253.433,68.864Z" transform="translate(-219.432 -27.303)" fill="#fff"/>
            <path id="Path_87495" data-name="Path 87495" d="M254.707,67.075c10.081-.3,14.72-3.163,15.537-3.881,2.86-2.508,1.7-3.5,1.518-3.981,5.743-.588,3.15,5.6-1.47,7.756-8.556,3.988-17.592,2.873-17.4,2.49A9.639,9.639,0,0,1,254.707,67.075Z" transform="translate(-220.253 -26.836)" fill="#b2c1d6"/>
            <path id="Path_87496" data-name="Path 87496" d="M250.819,109.271c-.393,6.266-2.685,30.367-2.893,32.01-.57,4.483,10.929,5.381,11.589,3.753,2.2-5.408,7.014-25.329,7.994-35.708,1.958-20.745,2.74-26.956,2.978-31.67A13.21,13.21,0,0,0,264.7,65.843c-5.693-3.686-13.434-1.968-13.564,23.078C251.1,94.244,250.972,106.848,250.819,109.271Z" transform="translate(-227.725 -19.04)" fill="#7591d0"/>
          </g>
        </g>
      </g>
    </g>
    <g id="Group_168526" data-name="Group 168526" transform="translate(996 243.324)">
      <ellipse id="Ellipse_3425" data-name="Ellipse 3425" cx="21.636" cy="9.001" rx="21.636" ry="9.001" transform="translate(30.696 60.838)" fill="#92b4d1" opacity="0.2"/>
      <path id="Path_82196" data-name="Path 82196" d="M481.519,318.046c0-16.913-11.949-37.523-26.688-46.034-7.106-4.107-13.563-4.642-18.342-2.207l-.016-.026-4.138,2.3,1.916,3.3a27,27,0,0,0-1.38,8.943c0,16.913,11.949,37.523,26.688,46.033a27.43,27.43,0,0,0,8.648,3.349l1.958,3.364,2.77-1.487C478.214,333.04,481.519,326.941,481.519,318.046Z" transform="translate(-413.37 -260.879)" fill="#3f92d1"/>
      <g id="Group_168470" data-name="Group 168470" transform="translate(66.717 29.575)">
        <path id="Path_82197" data-name="Path 82197" d="M508.385,325.38a.347.347,0,0,1-.347-.347q0-.683-.026-1.374a.348.348,0,1,1,.694-.026q.027.7.026,1.4a.347.347,0,0,1-.348.347Zm-.16-3.468a.347.347,0,0,1-.344-.314q-.062-.68-.146-1.369a.347.347,0,0,1,.3-.386.34.34,0,0,1,.387.3q.086.7.149,1.392a.347.347,0,0,1-.314.377Zm-.456-3.438a.348.348,0,0,1-.341-.287q-.115-.675-.252-1.355a.347.347,0,1,1,.68-.137q.139.689.257,1.369a.347.347,0,0,1-.343.406Zm-.706-3.393a.345.345,0,0,1-.336-.265q-.164-.667-.345-1.334a.347.347,0,1,1,.669-.183q.183.676.349,1.352a.345.345,0,0,1-.255.419.34.34,0,0,1-.091.013Zm-.934-3.338a.346.346,0,0,1-.327-.244q-.207-.656-.43-1.31a.348.348,0,1,1,.657-.224q.226.663.434,1.326a.348.348,0,0,1-.33.451Zm-1.138-3.275a.348.348,0,0,1-.324-.223q-.245-.639-.505-1.278a.348.348,0,0,1,.639-.263q.265.648.512,1.3a.348.348,0,0,1-.2.448.366.366,0,0,1-.123.016Zm-1.326-3.2a.347.347,0,0,1-.314-.209q-.28-.628-.577-1.256a.348.348,0,0,1,.628-.3q.3.628.583,1.267a.348.348,0,0,1-.314.489Zm-1.5-3.126a.345.345,0,0,1-.307-.188q-.314-.614-.643-1.221a.347.347,0,1,1,.61-.33q.333.615.651,1.235a.347.347,0,0,1-.15.466.341.341,0,0,1-.161.039Z" transform="translate(-501.171 -300.216)" fill="#0fbab8"/>
      </g>
      <ellipse id="Ellipse_3426" data-name="Ellipse 3426" cx="21.722" cy="37.626" rx="21.722" ry="37.626" transform="matrix(0.863, -0.505, 0.505, 0.863, 0.593, 21.94)" fill="#fff"/>
      <ellipse id="Ellipse_3427" data-name="Ellipse 3427" cx="21.722" cy="37.626" rx="21.722" ry="37.626" transform="matrix(0.863, -0.505, 0.505, 0.863, 0, 22.263)" fill="#a8cff0"/>
      <ellipse id="Ellipse_3428" data-name="Ellipse 3428" cx="18.537" cy="32.107" rx="18.537" ry="32.107" transform="matrix(0.863, -0.505, 0.505, 0.863, 5.536, 25.419)" fill="#fff"/>
      <path id="Path_82198" data-name="Path 82198" d="M450.278,333.891C437.7,326.629,427.5,309.042,427.5,294.609c0-7.227,2.555-12.292,6.689-14.637-4.672,2.093-7.616,7.349-7.616,15.1,0,14.433,10.2,32.025,22.774,39.282,6.279,3.626,11.966,3.991,16.086,1.653C461.409,337.808,456.1,337.248,450.278,333.891Z" transform="translate(-411.608 -264.44)" fill="#72b5e8"/>
      <path id="Path_82199" data-name="Path 82199" d="M460.1,320.7c0,.789-.558,1.108-1.246.711a2.745,2.745,0,0,1-1.246-2.148c0-.789.558-1.107,1.246-.71A2.743,2.743,0,0,1,460.1,320.7Z" transform="translate(-421.112 -276.206)" fill="#03336e"/>
      <g id="Group_168471" data-name="Group 168471" transform="translate(16.925 16.639)">
        <path id="Path_82200" data-name="Path 82200" d="M459.754,287.749h0a.827.827,0,0,1-.346-.66v-1.16c0-.255.155-.371.345-.261h0a.826.826,0,0,1,.345.66v1.16C460.1,287.742,459.948,287.859,459.754,287.749Z" transform="translate(-438.588 -282.81)" fill="#72b5e8"/>
        <path id="Path_82201" data-name="Path 82201" d="M459.753,354.764h0a.821.821,0,0,1-.345-.66v-1.16c0-.255.155-.371.345-.261h0a.827.827,0,0,1,.345.66V354.5C460.1,354.757,459.948,354.874,459.753,354.764Z" transform="translate(-438.588 -303.336)" fill="#72b5e8"/>
        <path id="Path_82202" data-name="Path 82202" d="M431.21,304.012h0c0,.219-.133.314-.3.225l-1.218-.7a.712.712,0,0,1-.3-.568h0c0-.219.133-.314.3-.225l1.218.7a.709.709,0,0,1,.3.568Z" transform="translate(-429.397 -288.041)" fill="#72b5e8"/>
        <path id="Path_82203" data-name="Path 82203" d="M489.612,337.73h0c0,.219-.133.314-.3.225l-1.218-.7a.71.71,0,0,1-.3-.568h0c0-.219.133-.314.3-.225l1.218.7A.712.712,0,0,1,489.612,337.73Z" transform="translate(-447.284 -298.368)" fill="#72b5e8"/>
        <path id="Path_82204" data-name="Path 82204" d="M445.483,283.894h0c-.165.014-.377-.172-.472-.419l-.561-1.439c-.091-.245-.038-.456.127-.468h0c.165-.014.376.173.471.419l.561,1.438C445.7,283.671,445.648,283.879,445.483,283.894Z" transform="translate(-433.993 -281.567)" fill="#72b5e8"/>
        <path id="Path_82205" data-name="Path 82205" d="M474.683,358.79h0c-.165.014-.376-.172-.471-.419l-.561-1.439c-.091-.245-.038-.456.127-.468h0c.165-.014.377.172.472.419l.561,1.439C474.9,358.567,474.848,358.778,474.683,358.79Z" transform="translate(-442.937 -304.507)" fill="#72b5e8"/>
        <path id="Path_82206" data-name="Path 82206" d="M435.036,322.567h0c.091.244.037.456-.127.468l-.972.083c-.165.014-.376-.172-.472-.419h0c-.091-.245-.037-.456.127-.468l.971-.083C434.73,322.135,434.94,322.323,435.036,322.567Z" transform="translate(-430.63 -293.996)" fill="#72b5e8"/>
        <path id="Path_82207" data-name="Path 82207" d="M485.613,318.26h0c.091.245.038.456-.127.468l-.972.083c-.165.014-.376-.172-.472-.419h0c-.091-.245-.037-.456.127-.468l.971-.083C485.307,317.828,485.517,318.016,485.613,318.26Z" transform="translate(-446.119 -292.677)" fill="#72b5e8"/>
        <path id="Path_82208" data-name="Path 82208" d="M435.036,289.851h0c-.091.135-.307.078-.472-.127l-.971-1.2a.58.58,0,0,1-.127-.614h0c.091-.134.307-.078.472.128l.972,1.2A.581.581,0,0,1,435.036,289.851Z" transform="translate(-430.628 -283.485)" fill="#72b5e8"/>
        <path id="Path_82209" data-name="Path 82209" d="M485.613,352.56h0c-.091.134-.307.078-.472-.128l-.971-1.2a.579.579,0,0,1-.127-.614h0c.091-.135.307-.078.472.127l.972,1.2a.58.58,0,0,1,.126.615Z" transform="translate(-446.118 -302.691)" fill="#72b5e8"/>
        <path id="Path_82210" data-name="Path 82210" d="M445.482,340.274h0a.58.58,0,0,1,.127.614l-.561.791c-.091.135-.306.078-.471-.127h0a.579.579,0,0,1-.127-.614l.561-.791C445.105,340.012,445.314,340.068,445.482,340.274Z" transform="translate(-433.992 -299.486)" fill="#72b5e8"/>
        <path id="Path_82211" data-name="Path 82211" d="M474.682,299.1h0a.579.579,0,0,1,.127.614l-.561.791c-.091.135-.307.078-.472-.127h0a.579.579,0,0,1-.127-.614l.561-.791C474.307,298.834,474.513,298.89,474.682,299.1Z" transform="translate(-442.936 -286.873)" fill="#72b5e8"/>
      </g>
      <path id="Path_82212" data-name="Path 82212" d="M459.741,313.677l-1.2-.7V293.688l1.2.694Z" transform="translate(-421.396 -268.641)" fill="#03336e"/>
      <path id="Path_82213" data-name="Path 82213" d="M459.551,320.326l-.365.523,16.274,20.177.365-.523Z" transform="translate(-421.594 -276.8)" fill="#03336e"/>
      <path id="Path_82214" data-name="Path 82214" d="M459.756,320.7c0,.394-.278.554-.628.355a1.369,1.369,0,0,1-.622-1.074c0-.394.278-.554.622-.355A1.369,1.369,0,0,1,459.756,320.7Z" transform="translate(-421.388 -276.559)" fill="#eb4680"/>
      <path id="Path_82215" data-name="Path 82215" d="M457.661,317.4l-.655-1.129-2.653,1.512.172.3-16.449,9.378.314.537,16.449-9.378.172.295Z" transform="translate(-415.13 -275.557)" fill="#eb4680"/>
    </g>
  </g>
</svg>
