<svg xmlns="http://www.w3.org/2000/svg" width="532.507" height="270.498" viewBox="0 0 532.507 270.498">
  <g id="img_5" transform="translate(-385.496 -4474.501)">
    <line id="Line_425" data-name="Line 425" x2="532.5" y2="3.849" transform="translate(385.5 4598.26)" fill="none" stroke="#707070" stroke-width="1" stroke-dasharray="8 3" opacity="0.56"/>
    <g id="Group_173751" data-name="Group 173751" transform="translate(387.745 4472.535)">
      <g id="Group_173749" data-name="Group 173749" transform="translate(0 -0.001)">
        <rect id="Rectangle_150477" data-name="Rectangle 150477" width="97" height="38" rx="8" transform="translate(0.254 73.466)" fill="#1592c9"/>
        <text id="P" transform="translate(172.581 87.356)" fill="#373535" font-size="1" font-family="Poppins-Bold, Poppins" font-weight="700"><tspan x="0" y="0">P</tspan></text>
        <text id="t" transform="translate(172.581 82.223)" fill="#373535" font-size="1" font-family="Poppins-Bold, Poppins" font-weight="700"><tspan x="0" y="0">t</tspan></text>
        <text id="Project_Scope" data-name="Project Scope" transform="translate(47.254 96.466)" fill="#fff" font-size="10" font-family="Poppins-Medium, Poppins" font-weight="500"><tspan x="-34.335" y="0">Project Scope</tspan></text>
        <g id="Group_170256" data-name="Group 170256" transform="translate(112.915 73.525)">
          <rect id="Rectangle_150478" data-name="Rectangle 150478" width="96.877" height="37.852" rx="8" transform="translate(0.642 0)" fill="#1592c9"/>
          <path id="Path_85203" data-name="Path 85203" d="M3.44,0H94.13a3.44,3.44,0,0,1,3.44,3.44V34.634a3.44,3.44,0,0,1-3.44,3.44H3.44A3.44,3.44,0,0,1,0,34.634V3.44A3.44,3.44,0,0,1,3.44,0Z" transform="translate(0 73.051)" fill="#3581dd"/>
          <text id="Analysis" transform="translate(44.663 20.548)" fill="#fff" font-size="9" font-family="Poppins-Medium, Poppins" font-weight="500"><tspan x="-18.909" y="0">Analysis</tspan></text>
          <text id="High_Level_Design" data-name="High Level
Design" transform="translate(47.339 87.94)" fill="#fff" font-size="10" font-family="Poppins-Medium, Poppins" font-weight="500"><tspan x="-25.37" y="0">High Level</tspan><tspan x="-17.255" y="15">Design</tspan></text>
        </g>
        <g id="Group_170257" data-name="Group 170257" transform="translate(116.765 73.437)">
          <rect id="Rectangle_150478-2" data-name="Rectangle 150478" width="98" height="38" rx="8" transform="translate(201.49 0.028)" fill="#1592c9"/>
          <rect id="Rectangle_150480" data-name="Rectangle 150480" width="98" height="38" rx="8" transform="translate(201.49 74.029)" fill="#3581dd"/>
          <rect id="Rectangle_150481" data-name="Rectangle 150481" width="98" height="38" rx="8" transform="translate(98.489 74.029)" fill="#3581dd"/>
          <rect id="Rectangle_150479" data-name="Rectangle 150479" width="97" height="38" rx="8" transform="translate(313.49 0.028)" fill="#1592c9"/>
          <text id="Acceptance_Testing" data-name="Acceptance
Testing" transform="translate(250.49 15.028)" fill="#fff" font-size="10" font-family="Poppins-Medium, Poppins" font-weight="500"><tspan x="-30.54" y="0">Acceptance</tspan><tspan x="-18.39" y="15">Testing</tspan></text>
          <text id="System_Testing" data-name="System Testing" transform="translate(249.49 97.028)" fill="#fff" font-size="10" font-family="Poppins-Medium, Poppins" font-weight="500"><tspan x="-38.43" y="0">System Testing</tspan></text>
          <text id="Development_Unit_Testing" data-name="Development/
Unit Testing" transform="translate(147.49 89.028)" fill="#fff" font-size="10" font-family="Poppins-Medium, Poppins" font-weight="500"><tspan x="-36.45" y="0">Development/</tspan><tspan x="-29.565" y="15">Unit Testing</tspan></text>
          <text id="Acceptance_Testing-2" data-name="Acceptance
Testing" transform="translate(361.49 15.028)" fill="#fff" font-size="10" font-family="Poppins-Medium, Poppins" font-weight="500"><tspan x="-30.54" y="0">Acceptance</tspan><tspan x="-18.39" y="15">Testing</tspan></text>
          <g id="Rectangle_150482" data-name="Rectangle 150482" transform="translate(0.489 152.027)" fill="#473810" stroke="#707070" stroke-width="1">
            <rect width="299" height="47" rx="8" stroke="none"/>
            <rect x="0.5" y="0.5" width="298" height="46" rx="7.5" fill="none"/>
          </g>
        </g>
        <text id="Maintenance" transform="translate(266.254 252.466)" fill="#fff" font-size="10" font-family="Poppins-Medium, Poppins" font-weight="500"><tspan x="-33.275" y="0">Maintenance</tspan></text>
        <text id="onsite" transform="translate(33.204 51.967) rotate(-90)" fill="#473810" font-size="14" font-family="Poppins-SemiBold, Poppins" font-weight="600"><tspan x="0" y="0">ONSITE</tspan></text>
        <text id="offshore_" data-name="offshore
" transform="translate(34.772 217.34) rotate(-90)" fill="#473810" font-size="13" font-family="Poppins-SemiBold, Poppins" font-weight="600"><tspan x="0" y="0">OFFSHORE</tspan><tspan x="0" y="15"></tspan></text>
      </g>
    </g>
    <g id="Group_173755" data-name="Group 173755" transform="matrix(0.438, -0.899, 0.899, 0.438, 441.881, 4539.064)">
      <g id="Group_173754" data-name="Group 173754" transform="translate(0 0)">
        <path id="Path_91517" data-name="Path 91517" d="M44.474,85.11c.155.1.438-.026.8-.335a6.157,6.157,0,0,0,.67-.593c.232-.258.49-.541.773-.9a36.653,36.653,0,0,0,4.022-6.342c.7-1.418,1.444-2.991,2.14-4.744.67-1.753,1.315-3.635,1.882-5.7A56.5,56.5,0,0,0,56.8,52.883c.026-1.238.052-2.656-.052-4.254-.026-.8-.1-1.624-.18-2.5l-.155-1.341c-.052-.464-.129-.928-.206-1.392a52.374,52.374,0,0,0-1.212-5.981,56.779,56.779,0,0,0-2.14-6.42A50.79,50.79,0,0,0,45.377,18.36,52.385,52.385,0,0,0,34.394,8.1,47.05,47.05,0,0,0,21.812,1.911,44.686,44.686,0,0,0,15.727.493l-.7-.129L14.309.287l-.7-.077L13.278.158,12.917.132l-1.341-.1C11.164.029,10.725,0,10.313,0A22.175,22.175,0,0,0,5.775.364,15.92,15.92,0,0,0,3.945.8l-.773.284-.7.284A12.475,12.475,0,0,0,.593,2.478L0,2.968.619,2.53a12.191,12.191,0,0,1,1.934-.954l.7-.232.8-.206c.541-.1,1.134-.232,1.8-.309a20.932,20.932,0,0,1,4.409,0A40.753,40.753,0,0,1,21.245,3.484a45.045,45.045,0,0,1,11.576,6.729,49.774,49.774,0,0,1,9.694,10.313,48.438,48.438,0,0,1,6.162,12.04,50.408,50.408,0,0,1,1.65,5.956,52.832,52.832,0,0,1,.877,5.517c.052.438.1.851.129,1.263l.1,1.238c.026.8.077,1.573.1,2.295.052,1.47,0,2.784,0,3.893a70.045,70.045,0,0,1-1.521,12.633c-.387,1.934-.825,3.738-1.289,5.44s-.98,3.274-1.444,4.692c-.954,2.862-1.831,5.156-2.372,6.807-.129.413-.232.773-.335,1.109a4.266,4.266,0,0,0-.206.825C44.294,84.724,44.32,85.007,44.474,85.11Z" fill="#473810"/>
      </g>
      <path id="Path_91518" data-name="Path 91518" d="M5.071,19.435,2.537,9.718,0,0,8.459,10.25l13.09-2.3-8.237,5.745Z" transform="translate(38.758 69.641)" fill="#473810"/>
    </g>
    <g id="Group_173756" data-name="Group 173756" transform="matrix(0.438, -0.899, 0.899, 0.438, 770.351, 4539.064)">
      <g id="Group_173754-2" data-name="Group 173754" transform="translate(0 0)">
        <path id="Path_91517-2" data-name="Path 91517" d="M44.474,85.11c.155.1.438-.026.8-.335a6.157,6.157,0,0,0,.67-.593c.232-.258.49-.541.773-.9a36.653,36.653,0,0,0,4.022-6.342c.7-1.418,1.444-2.991,2.14-4.744.67-1.753,1.315-3.635,1.882-5.7A56.5,56.5,0,0,0,56.8,52.883c.026-1.238.052-2.656-.052-4.254-.026-.8-.1-1.624-.18-2.5l-.155-1.341c-.052-.464-.129-.928-.206-1.392a52.374,52.374,0,0,0-1.212-5.981,56.779,56.779,0,0,0-2.14-6.42A50.79,50.79,0,0,0,45.377,18.36,52.385,52.385,0,0,0,34.394,8.1,47.05,47.05,0,0,0,21.812,1.911,44.686,44.686,0,0,0,15.727.493l-.7-.129L14.309.287l-.7-.077L13.278.158,12.917.132l-1.341-.1C11.164.029,10.725,0,10.313,0A22.175,22.175,0,0,0,5.775.364,15.92,15.92,0,0,0,3.945.8l-.773.284-.7.284A12.475,12.475,0,0,0,.593,2.478L0,2.968.619,2.53a12.191,12.191,0,0,1,1.934-.954l.7-.232.8-.206c.541-.1,1.134-.232,1.8-.309a20.932,20.932,0,0,1,4.409,0A40.753,40.753,0,0,1,21.245,3.484a45.045,45.045,0,0,1,11.576,6.729,49.774,49.774,0,0,1,9.694,10.313,48.438,48.438,0,0,1,6.162,12.04,50.408,50.408,0,0,1,1.65,5.956,52.832,52.832,0,0,1,.877,5.517c.052.438.1.851.129,1.263l.1,1.238c.026.8.077,1.573.1,2.295.052,1.47,0,2.784,0,3.893a70.045,70.045,0,0,1-1.521,12.633c-.387,1.934-.825,3.738-1.289,5.44s-.98,3.274-1.444,4.692c-.954,2.862-1.831,5.156-2.372,6.807-.129.413-.232.773-.335,1.109a4.266,4.266,0,0,0-.206.825C44.294,84.724,44.32,85.007,44.474,85.11Z" fill="#473810"/>
      </g>
      <path id="Path_91518-2" data-name="Path 91518" d="M5.071,19.435,2.537,9.718,0,0,8.459,10.25l13.09-2.3-8.237,5.745Z" transform="translate(38.758 69.641)" fill="#473810"/>
    </g>
    <g id="Group_173758" data-name="Group 173758" transform="translate(542.363 4586.391)">
      <g id="Group_173757" data-name="Group 173757" transform="translate(5.323 0)">
        <path id="Path_91519" data-name="Path 91519" d="M25.113,65.99c-.916,0-1.591-7.458-1.527-16.653.08-9.194,1.977-11.505,1.977-11.505s1.4,2.343,1.318,11.537C26.817,58.564,26.013,66.006,25.113,65.99Z" transform="translate(-23.582 -37.832)" fill="#473810"/>
      </g>
      <path id="Path_91520" data-name="Path 91520" d="M29.8,23.689l3.874-4.919,3.874-4.92L30.154,17.6l-6.9-4.581,3.273,5.337Z" transform="translate(-23.251 7.534)" fill="#473810"/>
    </g>
    <g id="Group_173759" data-name="Group 173759" transform="translate(747.664 4586.391)">
      <g id="Group_173757-2" data-name="Group 173757" transform="translate(5.323 3.065)">
        <path id="Path_91519-2" data-name="Path 91519" d="M25.113,37.832c-.916,0-1.591,7.458-1.527,16.653.08,9.194,1.977,11.505,1.977,11.505s1.4-2.343,1.318-11.537C26.817,45.258,26.013,37.816,25.113,37.832Z" transform="translate(-23.582 -37.832)" fill="#473810"/>
      </g>
      <path id="Path_91520-2" data-name="Path 91520" d="M29.8,13.015l3.874,4.919,3.874,4.92-7.391-3.745-6.9,4.581,3.273-5.337Z" transform="translate(-23.251 -13.015)" fill="#473810"/>
    </g>
    <g id="Group_173760" data-name="Group 173760" transform="matrix(-0.438, 0.899, -0.899, -0.438, 636.673, 4665.161)">
      <g id="Group_173754-3" data-name="Group 173754" transform="translate(0 0)">
        <path id="Path_91517-3" data-name="Path 91517" d="M34.911,66.809c.121.081.344-.02.627-.263a4.834,4.834,0,0,0,.526-.465c.182-.2.385-.425.607-.708a28.771,28.771,0,0,0,3.157-4.979c.546-1.113,1.133-2.348,1.68-3.724.526-1.376,1.032-2.854,1.477-4.473a44.351,44.351,0,0,0,1.6-10.686c.02-.971.04-2.085-.04-3.339-.02-.627-.081-1.275-.142-1.963l-.121-1.052c-.04-.364-.1-.729-.162-1.093a41.11,41.11,0,0,0-.951-4.7,44.57,44.57,0,0,0-1.68-5.039,39.869,39.869,0,0,0-5.869-9.917A41.121,41.121,0,0,0,27,6.357,36.932,36.932,0,0,0,17.121,1.5,35.078,35.078,0,0,0,12.345.387L11.8.286,11.232.225,10.686.164l-.263-.04L10.139.1,9.087.023C8.763.023,8.419,0,8.1,0A17.407,17.407,0,0,0,4.533.286,12.5,12.5,0,0,0,3.1.63L2.489.853l-.546.223a9.793,9.793,0,0,0-1.477.87L0,2.33l.486-.344A9.57,9.57,0,0,1,2,1.237l.546-.182L3.177.893C3.6.812,4.068.711,4.594.65a16.431,16.431,0,0,1,3.461,0,31.99,31.99,0,0,1,8.621,2.085,35.359,35.359,0,0,1,9.087,5.282,39.071,39.071,0,0,1,7.61,8.1,38.023,38.023,0,0,1,4.837,9.451,39.571,39.571,0,0,1,1.3,4.675,41.472,41.472,0,0,1,.688,4.331c.041.344.081.668.1.992l.081.971c.02.627.061,1.235.081,1.8.041,1.154,0,2.186,0,3.056a54.983,54.983,0,0,1-1.194,9.917c-.3,1.518-.648,2.935-1.012,4.27s-.769,2.57-1.133,3.683c-.749,2.246-1.437,4.048-1.862,5.343-.1.324-.182.607-.263.87a3.349,3.349,0,0,0-.162.648C34.769,66.505,34.789,66.728,34.911,66.809Z" fill="#473810"/>
      </g>
      <path id="Path_91518-3" data-name="Path 91518" d="M3.981,15.256,1.991,7.628,0,0,6.64,8.046,16.915,6.237l-6.466,4.51Z" transform="translate(30.424 54.666)" fill="#473810"/>
    </g>
    <g id="Group_173761" data-name="Group 173761" transform="matrix(0.438, 0.899, -0.899, 0.438, 733.969, 4634.508)">
      <g id="Group_173754-4" data-name="Group 173754" transform="translate(0 3.086)">
        <path id="Path_91517-4" data-name="Path 91517" d="M34.911.027c.121-.081.344.02.627.263a4.833,4.833,0,0,1,.526.465c.182.2.385.425.607.708a28.771,28.771,0,0,1,3.157,4.979c.546,1.113,1.133,2.348,1.68,3.724.526,1.376,1.032,2.854,1.477,4.473a44.352,44.352,0,0,1,1.6,10.686c.02.971.04,2.085-.04,3.339-.02.627-.081,1.275-.142,1.963l-.121,1.052c-.04.364-.1.729-.162,1.093a41.11,41.11,0,0,1-.951,4.7,44.571,44.571,0,0,1-1.68,5.039,39.869,39.869,0,0,1-5.869,9.917A41.121,41.121,0,0,1,27,60.479a36.932,36.932,0,0,1-9.876,4.857,35.078,35.078,0,0,1-4.776,1.113l-.546.1-.567.061-.546.061-.263.04-.283.02-1.052.081c-.324,0-.668.02-.992.02a17.406,17.406,0,0,1-3.562-.283A12.5,12.5,0,0,1,3.1,66.206l-.607-.223-.546-.223a9.794,9.794,0,0,1-1.477-.87L0,64.506l.486.344A9.571,9.571,0,0,0,2,65.6l.546.182.627.162c.425.081.89.182,1.417.243a16.431,16.431,0,0,0,3.461,0A31.99,31.99,0,0,0,16.676,64.1a35.359,35.359,0,0,0,9.087-5.282,39.071,39.071,0,0,0,7.61-8.1,38.023,38.023,0,0,0,4.837-9.451A39.57,39.57,0,0,0,39.5,36.6a41.471,41.471,0,0,0,.688-4.331c.041-.344.081-.668.1-.992l.081-.971c.02-.627.061-1.235.081-1.8.041-1.154,0-2.186,0-3.056a54.982,54.982,0,0,0-1.194-9.917c-.3-1.518-.648-2.935-1.012-4.27s-.769-2.57-1.133-3.683c-.749-2.246-1.437-4.048-1.862-5.343-.1-.324-.182-.607-.263-.87A3.348,3.348,0,0,1,34.83.716C34.769.331,34.789.108,34.911.027Z" transform="translate(0 0)" fill="#473810"/>
      </g>
      <path id="Path_91518-4" data-name="Path 91518" d="M3.981,0,1.991,7.628,0,15.256,6.64,7.21,16.915,9.019l-6.466-4.51Z" transform="translate(30.424 0)" fill="#473810"/>
    </g>
  </g>
</svg>
