<svg xmlns="http://www.w3.org/2000/svg" xmlns:xlink="http://www.w3.org/1999/xlink" width="519.772" height="550.599" viewBox="0 0 519.772 550.599">
  <defs>
    <linearGradient id="linear-gradient" y1="0.5" x2="1" y2="0.5" gradientUnits="objectBoundingBox">
      <stop offset="0.006" stop-color="#005b97"/>
      <stop offset="0.135" stop-color="#0075be"/>
      <stop offset="0.433" stop-color="#1e9cd7"/>
      <stop offset="0.535" stop-color="#46abdd"/>
      <stop offset="0.693" stop-color="#7fc2e7"/>
      <stop offset="0.829" stop-color="#a9d2ee"/>
      <stop offset="0.936" stop-color="#c2dcf2"/>
      <stop offset="1" stop-color="#cce0f4"/>
    </linearGradient>
  </defs>
  <g id="img_3" transform="translate(-147.845 -65.085)">
    <path id="Path_91420" data-name="Path 91420" d="M215.277,580.933h-6.871v-6.871a1.562,1.562,0,1,0-3.123,0v6.871h-6.871a1.561,1.561,0,1,0,0,3.123h6.871v6.871a1.562,1.562,0,1,0,3.123,0v-6.871h6.871a1.561,1.561,0,1,0,0-3.123Z" transform="translate(-35.883 -360.444)" fill="#fff"/>
    <path id="Path_91421" data-name="Path 91421" d="M169.97,961.064H163.1v-6.871a1.561,1.561,0,1,0-3.123,0v6.871h-6.871a1.562,1.562,0,0,0,0,3.123h6.871v6.871a1.561,1.561,0,1,0,3.123,0v-6.871h6.871a1.562,1.562,0,0,0,0-3.123Z" transform="translate(-3.699 -630.47)" fill="#fff"/>
    <path id="Path_91422" data-name="Path 91422" d="M646.221,626.154h-5.153V621a1.171,1.171,0,0,0-2.342,0v5.153h-5.153a1.171,1.171,0,0,0,0,2.342h5.153v5.153a1.171,1.171,0,1,0,2.342,0V628.5h5.153a1.171,1.171,0,1,0,0-2.342Z" transform="translate(-345.277 -394.064)" fill="#fff"/>
    <path id="Path_91423" data-name="Path 91423" d="M590.653,82.69H585.5V77.537a1.171,1.171,0,1,0-2.342,0V82.69H578a1.171,1.171,0,1,0,0,2.342h5.153v5.153a1.171,1.171,0,1,0,2.342,0V85.032h5.153a1.171,1.171,0,0,0,0-2.342Z" transform="translate(-305.804 -8.014)" fill="#fff"/>
    <path id="Path_91424" data-name="Path 91424" d="M1404.3,762.4h-5.153v-5.153a1.171,1.171,0,0,0-2.342,0V762.4h-5.153a1.171,1.171,0,1,0,0,2.342h5.153V769.9a1.171,1.171,0,1,0,2.342,0v-5.153h5.153a1.171,1.171,0,1,0,0-2.342Z" transform="translate(-883.782 -490.846)" fill="#fff"/>
    <path id="Path_91425" data-name="Path 91425" d="M1772.976,554.323h-5.153V549.17a1.171,1.171,0,0,0-2.342,0v5.153h-5.153a1.171,1.171,0,0,0,0,2.342h5.153v5.153a1.171,1.171,0,0,0,2.342,0v-5.153h5.153a1.171,1.171,0,1,0,0-2.342Z" transform="translate(-1145.668 -343.039)" fill="#fff"/>
    <path id="Path_91426" data-name="Path 91426" d="M610.819,1098.506h-5.153v-5.153a1.171,1.171,0,1,0-2.342,0v5.153H598.17a1.171,1.171,0,1,0,0,2.342h5.153V1106a1.171,1.171,0,0,0,2.342,0v-5.153h5.153a1.171,1.171,0,1,0,0-2.342Z" transform="translate(-320.128 -729.599)" fill="#fff"/>
    <path id="Path_91427" data-name="Path 91427" d="M1574.778,1114.587h-5.153v-5.153a1.171,1.171,0,1,0-2.342,0v5.153h-5.153a1.171,1.171,0,0,0,0,2.342h5.153v5.153a1.171,1.171,0,1,0,2.342,0v-5.153h5.153a1.171,1.171,0,1,0,0-2.342Z" transform="translate(-1004.878 -741.022)" fill="#fff"/>
    <path id="Path_91428" data-name="Path 91428" d="M1552.488,90.134h-5.153V84.981a1.171,1.171,0,1,0-2.343,0v5.153h-5.153a1.171,1.171,0,1,0,0,2.342h5.153v5.153a1.171,1.171,0,1,0,2.343,0V92.477h5.153a1.171,1.171,0,0,0,0-2.342Z" transform="translate(-989.044 -13.302)" fill="#fff"/>
    <path id="Path_91429" data-name="Path 91429" d="M1908.1,1026.392h-5.153v-5.153a1.171,1.171,0,0,0-2.343,0v5.153h-5.153a1.171,1.171,0,1,0,0,2.343h5.153v5.153a1.171,1.171,0,1,0,2.343,0v-5.153h5.153a1.171,1.171,0,1,0,0-2.343Z" transform="translate(-1241.651 -678.373)" fill="#fff"/>
    <rect id="Rectangle_150828" data-name="Rectangle 150828" width="171.183" height="149.749" rx="54.659" transform="translate(475.136 89.391)" fill="#29abe2" opacity="0.07"/>
    <rect id="Rectangle_150829" data-name="Rectangle 150829" width="141.349" height="136.715" rx="47.457" transform="translate(484.405 268.973)" fill="#29abe2" opacity="0.07"/>
    <rect id="Rectangle_150830" data-name="Rectangle 150830" width="161.624" height="136.715" rx="50.747" transform="translate(169.266 259.125)" fill="#29abe2" opacity="0.07"/>
    <rect id="Rectangle_150831" data-name="Rectangle 150831" width="261.264" height="136.715" rx="64.52" transform="translate(167.528 75.487)" fill="#29abe2" opacity="0.07"/>
    <g id="Group_173659" data-name="Group 173659" transform="translate(471.37 261.153)">
      <rect id="Rectangle_150832" data-name="Rectangle 150832" width="142.507" height="131.439" rx="65.719" fill="#fff" opacity="0.56"/>
      <g id="Group_173658" data-name="Group 173658" transform="translate(19.197 16.603)">
        <g id="Group_173657" data-name="Group 173657">
          <circle id="Ellipse_3634" data-name="Ellipse 3634" cx="46.613" cy="46.613" r="46.613" transform="translate(2.936 2.936)" fill="#29abe2"/>
          <path id="Path_91430" data-name="Path 91430" d="M1384.326,898.418a49.549,49.549,0,1,1,49.549-49.549A49.6,49.6,0,0,1,1384.326,898.418Zm0-93.225A43.676,43.676,0,1,0,1428,848.869,43.726,43.726,0,0,0,1384.326,805.193Z" transform="translate(-1334.777 -799.32)" fill="#fff"/>
        </g>
        <circle id="Ellipse_3635" data-name="Ellipse 3635" cx="4.955" cy="4.955" r="4.955" transform="translate(42.487 52.866) rotate(-76.717)" fill="#0071bc"/>
        <path id="Path_91431" data-name="Path 91431" d="M1526.3,851.709h0a1.289,1.289,0,0,0-1.805.206l-24.438,30.742a1.288,1.288,0,0,0,.206,1.8h0a1.288,1.288,0,0,0,1.805-.206l24.438-30.742A1.288,1.288,0,0,0,1526.3,851.709Z" transform="translate(-1451.983 -836.337)" fill="#0071bc"/>
        <path id="Path_91432" data-name="Path 91432" d="M1527,984.838l-23.673-10.894a2.761,2.761,0,0,1-1.35-3.652h0a2.761,2.761,0,0,1,3.651-1.35l23.673,10.894a2.761,2.761,0,0,1,1.35,3.652h0A2.761,2.761,0,0,1,1527,984.838Z" transform="translate(-1453.372 -919.633)" fill="#0071bc"/>
      </g>
    </g>
    <g id="Group_173664" data-name="Group 173664" transform="translate(179.063 245.136)">
      <rect id="Rectangle_150833" data-name="Rectangle 150833" width="165.147" height="139.917" rx="60.327" transform="translate(0 0.07)" fill="#fff" opacity="0.56"/>
      <g id="Group_173663" data-name="Group 173663" transform="translate(16.745 0)">
        <g id="Group_173661" data-name="Group 173661" transform="translate(0)">
          <path id="Path_91433" data-name="Path 91433" d="M431.335,1012.788l-14.146,27.484,7.76.265,17.708-18.04Z" transform="translate(-388.208 -918.338)" fill="#2285a8"/>
          <path id="Path_91434" data-name="Path 91434" d="M570.635,1018.091l12.237,28.386-7.76-.265L558.677,1027Z" transform="translate(-488.715 -922.105)" fill="#2285a8"/>
          <g id="Group_173660" data-name="Group 173660">
            <circle id="Ellipse_3636" data-name="Ellipse 3636" cx="45.227" cy="45.227" r="45.227" transform="translate(0 63.96) rotate(-45)" fill="#29abe2"/>
            <circle id="Ellipse_3637" data-name="Ellipse 3637" cx="39.6" cy="39.6" r="39.6" transform="translate(7.958 63.96) rotate(-45)" fill="#fff"/>
            <circle id="Ellipse_3638" data-name="Ellipse 3638" cx="30.282" cy="30.282" r="30.282" transform="translate(21.135 63.96) rotate(-45)" fill="#29abe2"/>
            <circle id="Ellipse_3639" data-name="Ellipse 3639" cx="22.259" cy="22.259" r="22.259" transform="translate(32.482 63.96) rotate(-45)" fill="#fff"/>
            <circle id="Ellipse_3640" data-name="Ellipse 3640" cx="12.941" cy="12.941" r="12.941" transform="translate(46.013 67.545) rotate(-56.297)" fill="#29abe2"/>
          </g>
        </g>
        <g id="Group_173662" data-name="Group 173662" transform="translate(64.122 16.745)">
          <path id="Path_91435" data-name="Path 91435" d="M538.686,823.8h0a1.471,1.471,0,0,0,1.991.607l60.943-32.462a1.472,1.472,0,0,0,.607-1.991h0a1.472,1.472,0,0,0-1.991-.607l-60.943,32.462A1.471,1.471,0,0,0,538.686,823.8Z" transform="translate(-538.513 -776.237)" fill="#4d4d4d"/>
          <path id="Path_91436" data-name="Path 91436" d="M701.39,757.912l2.012-13.4-19.049,11.78-3.035,13.018Z" transform="translate(-639.955 -744.514)" fill="#0071bc"/>
          <path id="Path_91437" data-name="Path 91437" d="M705.16,799.476l12.3,5.69-20.316,9.427-12.54-4.627Z" transform="translate(-642.285 -783.556)" fill="#29abe2"/>
        </g>
      </g>
    </g>
    <g id="Group_173668" data-name="Group 173668" transform="translate(181.721 65.085)">
      <rect id="Rectangle_150834" data-name="Rectangle 150834" width="266.207" height="136.008" rx="68.004" transform="translate(0)" fill="#fff" opacity="0.56"/>
      <rect id="Rectangle_150835" data-name="Rectangle 150835" width="116.897" height="9.543" rx="4.771" transform="translate(134.599 73.557)" opacity="0.26" fill="url(#linear-gradient)"/>
      <rect id="Rectangle_150836" data-name="Rectangle 150836" width="116.897" height="9.543" rx="4.771" transform="translate(134.599 89.78)" opacity="0.26" fill="url(#linear-gradient)"/>
      <rect id="Rectangle_150837" data-name="Rectangle 150837" width="116.897" height="9.543" rx="4.771" transform="translate(134.599 106.957)" opacity="0.26" fill="url(#linear-gradient)"/>
      <g id="Group_173665" data-name="Group 173665" transform="translate(23.965 25.049)">
        <path id="Path_91438" data-name="Path 91438" d="M397.409,151.566a46.172,46.172,0,1,0,46.172,46.172A46.172,46.172,0,0,0,397.409,151.566Zm0,80.8a34.629,34.629,0,1,1,34.629-34.629A34.629,34.629,0,0,1,397.409,232.367Z" transform="translate(-351.237 -151.566)" fill="aqua"/>
        <path id="Path_91439" data-name="Path 91439" d="M422.426,251.227l-5.284-4.083a34.63,34.63,0,0,1-54.361-28.458c0-11.8,7.534-22.451,16.545-28.7,0-.235-8.311-8.927-8.311-8.927-9.85,6.157-19.777,19.85-19.777,37.63a46.17,46.17,0,0,0,76.061,35.19Q424.842,252.625,422.426,251.227Z" transform="translate(-351.237 -172.514)" fill="#0071bc"/>
        <path id="Path_91440" data-name="Path 91440" d="M423.1,339.091a34.628,34.628,0,0,1-60.129-21q-1.77.012-3.561-.055-4.052-.013-8.019-.339a46.171,46.171,0,0,0,46.128,44.224c14.926,0,26.112-4.48,34.552-15.468C432.069,346.455,423.131,339.056,423.1,339.091Z" transform="translate(-351.344 -269.578)" fill="#29abe2"/>
      </g>
      <g id="Group_173666" data-name="Group 173666" transform="translate(132.511 15.109)">
        <path id="Path_91441" data-name="Path 91441" d="M763.353,122.838a22.515,22.515,0,1,0,2.075,31.773A22.515,22.515,0,0,0,763.353,122.838Zm-25.986,29.617A16.886,16.886,0,1,1,761.2,150.9,16.886,16.886,0,0,1,737.367,152.455Z" transform="translate(-725.989 -117.247)" fill="aqua"/>
        <path id="Path_91442" data-name="Path 91442" d="M747.208,159.769l-.624-3.2a16.886,16.886,0,0,1-10.773-27.914c3.794-4.324,9.982-5.806,15.3-5.2.076-.086-.176-5.945-.176-5.945a21.9,21.9,0,0,0-19.351,7.432,22.513,22.513,0,0,0,16.562,37.36Q747.644,161.058,747.208,159.769Z" transform="translate(-725.989 -117.282)" fill="#0071bc"/>
        <path id="Path_91443" data-name="Path 91443" d="M750.376,177.129a16.885,16.885,0,0,1-15.286-27.034q-.652-.565-1.287-1.166-1.481-1.308-2.83-2.7a22.514,22.514,0,0,0,2.685,31.045c5.471,4.8,11.012,6.756,17.639,5.443C751.3,182.713,750.4,177.127,750.376,177.129Z" transform="translate(-725.991 -137.832)" fill="#29abe2"/>
      </g>
      <g id="Group_173667" data-name="Group 173667" transform="translate(194.538 15.109)">
        <path id="Path_91444" data-name="Path 91444" d="M977.45,122.8a22.515,22.515,0,1,0,2.163,31.767A22.515,22.515,0,0,0,977.45,122.8Zm-25.9,29.688a16.886,16.886,0,1,1,23.825-1.622A16.886,16.886,0,0,1,951.547,152.486Z" transform="translate(-940.133 -117.247)" fill="aqua"/>
        <path id="Path_91445" data-name="Path 91445" d="M961.408,159.775l-.633-3.194A16.886,16.886,0,0,1,949.924,128.7c3.782-4.335,9.966-5.834,15.281-5.242.075-.086-.192-5.944-.192-5.944A21.9,21.9,0,0,0,945.683,125a22.513,22.513,0,0,0,16.666,37.313Q961.848,161.063,961.408,159.775Z" transform="translate(-940.133 -117.285)" fill="#0071bc"/>
        <path id="Path_91446" data-name="Path 91446" d="M964.566,177.244a16.885,16.885,0,0,1-15.361-26.992q-.654-.563-1.291-1.162-1.485-1.3-2.838-2.7a22.514,22.514,0,0,0,2.771,31.037c5.484,4.785,11.03,6.725,17.654,5.394C965.5,182.826,964.59,177.242,964.566,177.244Z" transform="translate(-940.135 -137.952)" fill="#29abe2"/>
      </g>
    </g>
    <g id="Group_173671" data-name="Group 173671" transform="translate(317.856 180.63)">
      <ellipse id="Ellipse_3641" data-name="Ellipse 3641" cx="100.943" cy="35.627" rx="100.943" ry="35.627" transform="translate(0 363.8)" fill="#29abe2" opacity="0.2"/>
      <g id="Group_173670" data-name="Group 173670" transform="translate(15.493)">
        <path id="Path_91447" data-name="Path 91447" d="M943.441,1770.214a11.369,11.369,0,0,1,8.3-5.118l1.553-.183c1.448-.29,4.36,1.241,4.822,3.1l15.238,17.854a9.568,9.568,0,0,1-6.954,11.562l-3.48.866c-3.661.911-7.981-.759-8.892-4.42l-11.74-10.42C941.936,1782.026,939.906,1775.788,943.441,1770.214Z" transform="translate(-898.116 -1388.08)" fill="#64342f"/>
        <path id="Path_91448" data-name="Path 91448" d="M1166.587,1770.214a11.37,11.37,0,0,0-8.3-5.118l-1.553-.183c-1.448-.29-4.36,1.241-4.822,3.1l-15.237,17.854a9.568,9.568,0,0,0,6.954,11.562l3.48.866c3.661.911,7.981-.759,8.892-4.42l11.74-10.42C1168.092,1782.026,1170.122,1775.788,1166.587,1770.214Z" transform="translate(-1036.635 -1388.08)" fill="#64342f"/>
        <path id="Path_91449" data-name="Path 91449" d="M927.245,1127.225s-6.341,17.095-6.714,34.609c-.338,15.864,17.664,149.573,21.058,172.113a4.651,4.651,0,0,0,4.208,3.942l5.513.469a5.938,5.938,0,0,0,6.439-6.088l3.609-148.339,21.677,150.72s14.474,6.246,18.465-1.894c1.838-3.749-.153-176.656-3.357-191.4s-5.5-15.352-5.5-15.352Z" transform="translate(-883.297 -934.252)" fill="#222a4e"/>
        <path id="Path_91450" data-name="Path 91450" d="M947.159,537.765s-19.459-27.542-15.716-46.428,8.232-20.46,14.219-22.034,21.7-3.935,26.943-.787,10.477,0,13.471-3.148,11.975-.787,12.723,6.3-2.993,14.165-2.993,14.165-6.735,21.247-8.981,29.9-7.484,22.034-7.484,22.034-4.49,3.148-9.729,6.3S947.159,540.913,947.159,537.765Z" transform="translate(-890.711 -464)" fill="#330f1d"/>
        <path id="Path_91451" data-name="Path 91451" d="M1113.793,630.146s1.47-4.487,5.119-2.3,2.773,8.6.714,10.727-5.77,6.371-6.581,5.934a5.908,5.908,0,0,1-1.615-1.732Z" transform="translate(-1018.904 -579.96)" fill="#ef9e78"/>
        <path id="Path_91452" data-name="Path 91452" d="M934.735,630.146s-1.47-4.487-5.119-2.3-2.773,8.6-.714,10.727,5.77,6.371,6.581,5.934a5.912,5.912,0,0,0,1.615-1.732Z" transform="translate(-887.978 -579.96)" fill="#ef9e78"/>
        <rect id="Rectangle_150838" data-name="Rectangle 150838" width="24.91" height="23.751" transform="translate(60.684 76.467)" fill="#e08a68"/>
        <path id="Path_91453" data-name="Path 91453" d="M994.16,557.43a36.192,36.192,0,0,1-15.6,10.539,35.044,35.044,0,0,1-18.677,4.39,46.458,46.458,0,0,1-24.468-6.959L931,561.814c-.759,18.549,16.167,42.509,16.167,42.509,0,3.148,17.213,9.443,22.452,6.3s9.729-6.3,9.729-6.3,5.239-13.377,7.484-22.034c1.563-6.024,5.3-18.146,7.428-24.961C994.226,557.362,994.194,557.4,994.16,557.43Z" transform="translate(-890.719 -530.296)" fill="#3d1623"/>
        <path id="Path_91454" data-name="Path 91454" d="M922.074,786.579H965.29s25.468,5.244,24.695,8.4c-1.65,6.735-8.925,63.882-11.742,86.256-.647,5.139-4.643,8.992-9.408,9.074l-48.236.833c-4.772.083-8.882-3.643-9.672-8.765L900.5,786S914.871,786.579,922.074,786.579Z" transform="translate(-869.07 -692.733)" fill="#dadeea"/>
        <path id="Path_91455" data-name="Path 91455" d="M961.5,764.848l7.531-9.269L1002.92,755l7.821,9.848Z" transform="translate(-912.402 -670.712)" fill="#e1e4ea"/>
        <path id="Path_91456" data-name="Path 91456" d="M994.229,974.643A68.27,68.27,0,0,1,959.3,982.45c-13.975-.044-24.82-3.062-37.173-9.049l4.161,42.048c.789,5.122,4.9,8.848,9.672,8.765l48.236-.833c4.765-.082,8.761-3.935,9.408-9.074,1.211-9.621,3.247-25.673,5.305-41.381C997.381,973.549,995.822,974.125,994.229,974.643Z" transform="translate(-884.436 -825.516)" fill="#ced0d8"/>
        <g id="Group_173669" data-name="Group 173669" transform="translate(103.344 100.219)">
          <path id="Path_91457" data-name="Path 91457" d="M1160.236,1047.461l-4.345,1.792s-.869-6.4-.869-8.448a36.645,36.645,0,0,1,1.159-6.4s-1.448-2.56-2.9-.768-3.186,5.889-2.9,8.448-.869,7.425-.869,9.729-1.448,5.376-.29,8.7,1.738,6.144,3.186,7.68,6.662,1.536,6.951,0,4.635-6.912,3.766-8.192S1160.236,1047.461,1160.236,1047.461Z" transform="translate(-1148.78 -968.408)" fill="#ef9e78"/>
          <path id="Path_91458" data-name="Path 91458" d="M1187.545,810s39.83,32.748,44.027,37.365c5.793,6.372,5.214,12.745,2.9,18.538s-46.344,40.551-46.344,40.551-3.476-5.793-5.793-17.379l28.965-31.861-27.806-21.434Z" transform="translate(-1172.613 -810)" fill="#dadeea"/>
        </g>
        <path id="Path_91459" data-name="Path 91459" d="M1065.5,1317.793s14.483-2.9,18.538-5.793c0,0-13.9,22.593-14.482,34.758Z" transform="translate(-986.278 -1066.377)" fill="#161e3a"/>
        <path id="Path_91460" data-name="Path 91460" d="M980.493,1521.241A83.561,83.561,0,0,1,949.5,1514c5.266,38.348,11.066,82.986,12.96,95.563a4.651,4.651,0,0,0,4.208,3.942l5.514.469a5.938,5.938,0,0,0,6.439-6.088Z" transform="translate(-903.878 -1209.868)" fill="#161e3a"/>
        <path id="Path_91461" data-name="Path 91461" d="M1123.212,1510.057c-9.571,5.028-18.824,5.007-29.712,5.211l12.7,89.314s14.474,6.245,18.465-1.894c.979-2,.627-51.716-.17-96.689C1123.986,1506.178,1123.725,1509.891,1123.212,1510.057Z" transform="translate(-1006.168 -1204.185)" fill="#161e3a"/>
        <path id="Path_91462" data-name="Path 91462" d="M1209.07,980.583a93.472,93.472,0,0,0-5.129,13.967l-3.063,22.8c-7.6,6.2-13.51,10.861-13.51,10.861s-3.476-5.793-5.793-17.379Z" transform="translate(-1068.732 -830.955)" fill="#ced0d8"/>
        <path id="Path_91463" data-name="Path 91463" d="M811.091,522.991s5.434-16.548,11.895-16.089,12.476,4.99,12.448,9.766c-.018,3.121-2.264,7.967-3.82,10.953a6.51,6.51,0,0,1-3.68,3.121,4.484,4.484,0,0,0-2.567,1.885c-1.136,2.1-4.428,12.62-4.428,12.62l-11.785-3.018Z" transform="translate(-804.182 -494.468)" fill="#ef9e78"/>
        <path id="Path_91464" data-name="Path 91464" d="M796.272,597.044s11.824-7.468,18.67.622l-1.867,39.83,11.2,12.447,5.8,47.682s-23.853-29.012-28.831-38.347c-1.339-2.51-2.722-4.84-4.03-6.905a33.8,33.8,0,0,1-4.982-22.166Z" transform="translate(-791.991 -556.276)" fill="#dadeea"/>
        <path id="Path_91465" data-name="Path 91465" d="M809.219,625.4l7.92,6.119,1.587-33.85c-6.846-8.09-18.67-.622-18.67-.622l-2.739,22.521A93.671,93.671,0,0,1,809.219,625.4Z" transform="translate(-795.773 -556.276)" fill="#ced0d8"/>
      </g>
    </g>
    <g id="Group_173693" data-name="Group 173693" transform="translate(342.032 149.196)">
      <circle id="Ellipse_3642" data-name="Ellipse 3642" cx="18.248" cy="18.248" r="18.248" transform="translate(0 25.806) rotate(-45)" fill="#333"/>
      <path id="Rectangle_150843" data-name="Rectangle 150843" d="M0,0H6.952a0,0,0,0,1,0,0V11.876a3.476,3.476,0,0,1-3.476,3.476h0A3.476,3.476,0,0,1,0,11.876V0A0,0,0,0,1,0,0Z" transform="translate(17.085 37.178) rotate(23.448)" fill="#333"/>
      <circle id="Ellipse_3643" data-name="Ellipse 3643" cx="15.207" cy="15.207" r="15.207" transform="translate(4.492 25.731) rotate(-45)" fill="#29abe2"/>
      <g id="Group_173692" data-name="Group 173692" transform="translate(26.067 13.405)" opacity="0.75">
        <path id="Path_91502" data-name="Path 91502" d="M931.023,411.88a1.734,1.734,0,0,0-1.836,2.935l.107.075c3.64,2.526,4.658,4.546,4.383,6.637s1.2,3.048,2.427,1.684.33-5.856-.8-7.61A12.343,12.343,0,0,0,931.023,411.88Z" transform="translate(-923.671 -408.778)" fill="#fff"/>
        <path id="Path_91503" data-name="Path 91503" d="M915.85,404.589a2.028,2.028,0,1,1-1.053-2.667A2.027,2.027,0,0,1,915.85,404.589Z" transform="translate(-911.961 -401.754)" fill="#fff"/>
      </g>
    </g>
    <g id="Group_173695" data-name="Group 173695" transform="translate(463.908 82.019)">
      <rect id="Rectangle_150844" data-name="Rectangle 150844" width="169.741" height="143.809" rx="62.005" fill="#fff" opacity="0.56"/>
      <g id="Group_173694" data-name="Group 173694" transform="translate(34.62 6.413)">
        <rect id="Rectangle_150845" data-name="Rectangle 150845" width="19.62" height="34.879" transform="translate(0 90.32)" fill="#29abe2"/>
        <rect id="Rectangle_150846" data-name="Rectangle 150846" width="17.803" height="51.956" transform="translate(30.156 73.244)" fill="#29abe2"/>
        <rect id="Rectangle_150847" data-name="Rectangle 150847" width="18.166" height="71.575" transform="translate(60.675 53.624)" fill="#29abe2"/>
        <rect id="Rectangle_150848" data-name="Rectangle 150848" width="17.803" height="95.191" transform="translate(89.741 30.008)" fill="#29abe2"/>
        <path id="Path_91504" data-name="Path 91504" d="M1442.321,145.692l-24.495,11.515,10,6.952-19.268,27.706-20.622-7.328-23.971,34.468,2.228,1.55,22.788-32.766,20.622,7.328,20.452-29.408,10,6.953Z" transform="translate(-1363.469 -145.692)" fill="#29abe2"/>
      </g>
    </g>
  </g>
</svg>
