<svg xmlns="http://www.w3.org/2000/svg" width="784" height="426.719" viewBox="0 0 784 426.719">
  <g id="img_8" transform="translate(9159 -18142)">
    <path id="Path_88701" data-name="Path 88701" d="M-1002.014,367.245c-3.631,3.714-6.732,6.7-9.6,9.891-1.628,1.813-2.608,1.59-4.278-.033-7.806-7.581-7.86-7.527-.138-15.248,7.2-7.194,14.438-14.342,21.552-21.616,1.628-1.665,2.554-2.262,4.526-.236q13.415,13.781,27.193,27.208c1.873,1.833,1.764,2.81-.025,4.623-7.341,7.443-7.3,7.532-14.579.177a84.154,84.154,0,0,0-7.152-6.973,141.484,141.484,0,0,0,8.246,35.175,177.115,177.115,0,0,0,59.721,80.662c23.159,17.706,49.26,28.7,77.967,33.578,1.229.209,2.461.409,3.681.66,5,1.027,7.688,4.718,7.026,9.627a8.241,8.241,0,0,1-9.645,7.05,189.25,189.25,0,0,1-50.642-14.467c-35.628-15.924-63.934-40.469-85.151-73.144a186.929,186.929,0,0,1-27.855-72.594C-1001.341,370.507-1001.583,369.441-1002.014,367.245Z" transform="translate(-7961.548 18017.484)" fill="#156599"/>
    <path id="Path_88702" data-name="Path 88702" d="M-735.212,534.772c3.856,3.693,6.9,6.75,10.108,9.623,1.814,1.626,1.563,2.733-.013,4.413-7.271,7.755-7.225,7.8-14.678.345-7.392-7.391-14.731-14.836-22.212-22.135-1.752-1.71-2.087-2.672-.129-4.582q13.769-13.427,27.212-27.187c1.689-1.72,2.595-1.581,4.259.044,7.647,7.468,7.736,7.445.151,14.923-2.363,2.329-4.961,4.42-7.078,7.036q52.435-8.482,90.908-44.43,45.305-42.342,54.9-103.857c.392-2.532.9-5,2.912-6.733,2.742-2.362,5.914-3.148,9.3-1.548a7.977,7.977,0,0,1,4.823,8.858,174.079,174.079,0,0,1-11.235,43.876q-28.886,71.82-98.732,105.545a184.835,184.835,0,0,1-46.253,14.9C-732.031,534.068-733.087,534.317-735.212,534.772Z" transform="translate(-8003.74 18014.033)" fill="#0c83bf"/>
    <path id="Path_88703" data-name="Path 88703" d="M-355.52,510.442q-5.391-5.4-10.783-10.791c-5.294-5.3-5.294-5.3-.134-10.457,4.521-4.521,4.521-4.521,8.975-.069,8.084,8.084,16.1,16.238,24.3,24.2,2.117,2.056,2.585,3.216.177,5.538-8.93,8.613-17.67,17.425-26.339,26.3-2.151,2.2-3.511,2.286-5.732.049-6.914-6.968-7.006-6.886.075-13.961.882-.881,1.845-1.682,2.814-2.559-1.285-1.832-3.009-1.44-4.517-1.766a191.32,191.32,0,0,1-46.279-15.9,201.987,201.987,0,0,1-45.755-31.685,196.272,196.272,0,0,1-46.04-64.12,188.96,188.96,0,0,1-14.367-49.782,21.37,21.37,0,0,1-.106-3.342c.027-4.65,2.886-8.147,6.839-8.393,5.837-.365,9.249,2.236,9.983,7.539a172.916,172.916,0,0,0,37.7,86.772c22.74,28.054,51.35,47.341,85.731,58.173a137.987,137.987,0,0,0,22.749,5.279Z" transform="translate(-8043.629 18015.041)" fill="#473911"/>
    <path id="Path_88704" data-name="Path 88704" d="M-1067.713,280.915c-4.874-4.751-9.7-9.551-14.648-14.225-1.49-1.408-1.771-2.279-.1-3.84,2.735-2.552,5.176-5.417,7.5-7.89l31.8,31.838c-9.778,9.746-19.77,19.655-29.683,29.645-1.278,1.288-1.927,1.238-3.263.03-8.577-7.752-8.627-7.727-.627-15.7.772-.77,1.874-1.208,2.549-2.209-10.764-2.768-21.041-5.284-31.006-8.919a194.9,194.9,0,0,1-56.384-31.83,193.854,193.854,0,0,1-43.891-50,187.01,187.01,0,0,1-25.983-72.112c-.922-6.621.224-9.4,4.234-11.3,5.482-2.605,11.211.433,12.1,6.567a176.785,176.785,0,0,0,23.247,66.144,177.557,177.557,0,0,0,39.763,46.366,177.117,177.117,0,0,0,60.124,32.592A102.636,102.636,0,0,0-1067.713,280.915Z" transform="translate(-7927.254 18052.643)" fill="#473911"/>
    <path id="Path_88705" data-name="Path 88705" d="M-573.133,267.995c3.916-4.128,7.244-7.483,10.378-11.011,1.486-1.672,2.463-1.584,3.878.028,2.379,2.711,6.584,5.093,6.885,7.944.233,2.216-4.283,4.962-6.736,7.424-7.184,7.211-14.438,14.353-21.558,21.626-1.6,1.635-2.564,1.863-4.3.1q-13.477-13.733-27.207-27.218c-1.641-1.615-1.946-2.677-.071-4.291,2.615-2.251,4.869-6.328,7.589-6.607,2.156-.222,4.777,4.089,7.2,6.383,2.007,1.9,4.022,3.8,6.38,6.031-.371-5.625-1.948-10.836-3.474-15.974-8.552-28.782-23.161-54.137-44.414-75.358-27.581-27.54-60.7-44.568-99.341-50.54-5.7-.88-8.747-3.275-9.2-7.471-.651-6,3.708-10.292,10.119-9.521a163.607,163.607,0,0,1,31.709,7.168c47.1,15.53,83.315,44.793,108.721,87.3C-585,223.379-577.523,244.408-573.133,267.995Z" transform="translate(-8006.399 18054.932)" fill="#0c83bf"/>
    <path id="Path_88706" data-name="Path 88706" d="M-843.659,124.515a125.539,125.539,0,0,0-20.38,5.76q-59.95,21.753-93.2,76.231A167.278,167.278,0,0,0-976,250.805c-.923,3.45-1.415,7.246-5.228,9a8.685,8.685,0,0,1-9.422-.85c-2.95-2.275-3.551-5.5-2.738-9.026a171.1,171.1,0,0,1,11.109-32.182,190.8,190.8,0,0,1,41.8-59.677c27.4-26.279,59.614-43.541,96.932-51.051.816-.164,1.619-.392,2.425-.6.475-.122.945-.263,1.934-.54-4.186-4.158-7.937-8.059-11.894-11.739-1.935-1.8-2.371-3.081-.13-4.98,2.543-2.154,4.732-6.344,7.228-6.462,2.29-.109,4.834,3.967,7.175,6.29,7.516,7.463,14.935,15.023,22.518,22.418,1.694,1.652,1.723,2.554.023,4.223q-13.869,13.623-27.5,27.49c-1.579,1.6-2.51,1.5-3.911-.093-2.289-2.6-6.375-4.846-6.715-7.608-.357-2.91,4.284-4.889,6.462-7.528C-845.16,126.962-843.875,126.411-843.659,124.515Z" transform="translate(-7966.133 18059.301)" fill="#04a8f0"/>
    <text id="Planning" transform="translate(-9033 18259)" fill="#473911" font-size="16" font-family="Poppins-SemiBold, Poppins" font-weight="600"><tspan x="0" y="0">Planning</tspan></text>
    <text id="Requirements" transform="translate(-8987 18167)" fill="#473911" font-size="16" font-family="Poppins-SemiBold, Poppins" font-weight="600"><tspan x="0" y="0">Requirements</tspan></text>
    <text id="Analysis_Design" data-name="Analysis &amp; Design" transform="translate(-8680 18167)" fill="#473911" font-size="16" font-family="Poppins-SemiBold, Poppins" font-weight="600"><tspan x="0" y="0">Analysis &amp; Design</tspan></text>
    <text id="Implementation" transform="translate(-8581 18267)" fill="#473911" font-size="16" font-family="Poppins-SemiBold, Poppins" font-weight="600"><tspan x="0" y="0">Implementation</tspan></text>
    <text id="Deployment" transform="translate(-8521 18403)" fill="#473911" font-size="16" font-family="Poppins-SemiBold, Poppins" font-weight="600"><tspan x="0" y="0">Deployment</tspan></text>
    <text id="Testing" transform="translate(-8621 18535)" fill="#473911" font-size="16" font-family="Poppins-SemiBold, Poppins" font-weight="600"><tspan x="0" y="0">Testing</tspan></text>
    <text id="Evaluation" transform="translate(-8995 18535)" fill="#473911" font-size="16" font-family="Poppins-SemiBold, Poppins" font-weight="600"><tspan x="0" y="0">Evaluation</tspan></text>
    <text id="Initial_Planning" data-name="Initial
Planning" transform="translate(-9075 18361)" fill="#473911" font-size="16" font-family="Poppins-SemiBold, Poppins" font-weight="600"><tspan x="-22.712" y="0">Initial</tspan><tspan x="-36.024" y="24">Planning</tspan></text>
    <text id="Iterative_Incremental" data-name="Iterative &amp;
Incremental" transform="translate(-8769 18349)" fill="#0c83bf" font-size="25" font-family="Poppins-SemiBold, Poppins" font-weight="600"><tspan x="-65.787" y="0">Iterative &amp;</tspan><tspan x="-77.9" y="33">Incremental</tspan></text>
    <g id="Ellipse_3624" data-name="Ellipse 3624" transform="translate(-8915 18211)" fill="none" stroke="#bfbfbf" stroke-width="2" stroke-dasharray="10 10">
      <ellipse cx="145.5" cy="146" rx="145.5" ry="146" stroke="none"/>
      <ellipse cx="145.5" cy="146" rx="144.5" ry="145" fill="none"/>
    </g>
  </g>
</svg>
