<svg xmlns="http://www.w3.org/2000/svg" width="845.529" height="451" viewBox="0 0 845.529 451">
  <g id="img_4" transform="translate(9631 -18489)">
    <g id="Group_171691" data-name="Group 171691" transform="translate(-9631 18489)">
      <path id="Path_88947" data-name="Path 88947" d="M-1412.448,357.227c-1.221-.095-2.456-.017-3.685-.017q-49.1,0-98.195-.011a9.383,9.383,0,0,1-3.645-.241c.01-1.489,1.4-1.767,2.262-2.406,9.5-7.081,19.009-14.154,28.615-21.092,2.489-1.8,2.358-2.871,0-4.686-9.3-7.156-18.49-14.467-27.7-21.75-1.1-.873-2.48-1.523-3.019-3.026,1.5-.873,3.1-.567,4.633-.569,41.389-.063,82.781-.449,124.166-.066,53,.491,101.209-40.4,108.77-94.258,7.014-49.963-19.318-97.82-65.48-118.072-2.859-1.254-5.855-2.188-8.753-3.36-2.257-.912-3.057-.153-3.024,2.171.069,4.911.021,9.823.021,14.638-1.118.645-1.615-.179-2.176-.619q-28.246-22.139-56.5-44.276c-1.919-1.5-2.072-2.28.012-3.825,5.477-4.058,10.775-8.359,16.135-12.576,5.174-4.072,9.765-8.827,15.083-12.742,7.453-5.487,14.825-11.083,22.191-16.686,1.2-.913,2.689-1.623,3.168-3.267h2.014c.02,5.7.14,11.4.013,17.089-.059,2.658,1.075,3.808,3.554,4.309,33.017,6.682,60.66,22.941,83.953,47.03,6.792,7.023,12.494,14.861,18.078,22.816.656,1.489.759,1.236-.077,2.082-3.523,3.566-8.315,8.121-11.832,11.693a6.614,6.614,0,0,1-3.779,1.937c-1.321.224,14.387-15.153,16.019-14.741,3.849.975-4.208,11.714-3.472,11.843,1.377.24-11.528,6.048-11.051,5,3.007-6.638,9.33-10.305,13.917-15.528.463-.527,1.286-1.016,1.966-.055A181.46,181.46,0,0,1-1227.1,164.93c3.183,17.061,2.641,34.218.156,51.34-.144.99-.22,1.989-.328,2.983.35,1.645-.986,2.384-1.873,3.281-6.035,6.1-12.12,12.154-18.187,18.223-1.195,1.195-2.4,2.29-4.234,2.441-1.218.1,19.487-20,19.465-18.639-.015.9-5.621,13-4.783,13.174,1.318.281-13.18,8.884-12.923,7.659.548-2.6,2.435-4.186,4.159-5.913,4.488-4.5,8.92-11.528,13.42-16.011,4.9-6.752,1.273-6.382,4.7-4.153,1.027.667-.691,5.026-.986,5.977-7.478,36.366-25.222,66.888-53.062,91.3-24.243,21.256-52.366,34.619-84.509,39-4.088.557-8.195.979-12.293,1.464-9.489.35-18.981.034-28.471.174" transform="translate(1814.708 -10.491)" fill="#1390c8"/>
      <path id="Path_88948" data-name="Path 88948" d="M-1915.806,492.478c-13.422-.017-30.772-.033-44.194-.05v-56.39q122.646,0,245.29.082c3.3,0,4.16-.873,3.981-4.065-.281-5-.074-10.034-.074-15.322,1.88.25,2.852,1.572,3.983,2.478q27.221,21.809,54.387,43.685c1.422,1.141,2.626,1.8.322,3.593-18.778,14.643-37.446,29.427-56.155,44.157-.6.469-1.273.834-2.536,1.65,0-5.358.025-10.207-.008-15.055-.036-5.352.622-4.7-4.562-4.706q-101.169-.031-202.339-.033c-1.736-4.542-1.111-9.137-.285-13.73a6.5,6.5,0,0,1,.542-1.22c.448-1.087.73-2.176-.462-2.979,15.593-.487,16.364,3.465,15.817,3.988" transform="translate(1960 -144.02)" fill="#156599"/>
      <path id="Path_88949" data-name="Path 88949" d="M-986.459,487.518c7.006,5.16,4.489,4.556-8.642,4.556q-63.083,0-126.166.006c-35.9.018-71.805-.089-107.708.058-1.981-2.3.847-1.79,1.4-1.992a129.132,129.132,0,0,0,21-10.376,177.768,177.768,0,0,0,46.408-39.195c1.743-2.078,3.4-3.836,6.438-2.669a5.935,5.935,0,0,0,2,.036q106.719,0,213.438.061c2.944,0,4.129-.558,3.93-3.785-.3-4.869-.078-9.769-.078-15.466,4.4,3.369,8.26,6.3,12.1,9.259q23.246,17.915,46.493,35.827c1.3,1,2.307,1.557.3,3.06q-28.729,21.508-57.347,43.164a14.722,14.722,0,0,1-1.357.781c-.594-6.335.343-12.447-.533-18.487-1.177-.552-2.426-.266-3.636-.267q-23.992-.034-47.984-.017" transform="translate(1719.944 -144.684)" fill="#473911"/>
      <path id="Path_88950" data-name="Path 88950" d="M-1543.737,111.02c20.8-30.917,48.866-52.368,83.987-64.722,11.406-4.012,30.825-7.84,40.589-7.65-.526,1.541-1.867,2.16-2.92,2.987-9.852,7.729-19.671,15.5-29.631,23.09-2.38,1.814-2.079,2.78.047,4.417,8.682,6.685,17.275,13.486,25.9,20.251.946.743,1.859,1.531,2.948,2.433-50.648,11.22-84.184,40.661-92.816,92.237-8.628,51.556,13.63,90.12,57.58,116.968-.862,1.014-2.181.534-3.337.538-21.814.062-43.629.033-65.442.18-3.343.022-6.592-1.3-9.992-.375-1.482.4-2.018-1.228-2.7-2.129a152.816,152.816,0,0,1-19.634-34.964,185.517,185.517,0,0,1-9.317-30.73c-.162-.751-1.015-4.858-1.247-5.593" transform="translate(1831.719 -19.744)" fill="#473911"/>
      <path id="Path_88951" data-name="Path 88951" d="M-1568.9,265.966c-.925-.912-2.123-1.749-1.766-3.365-1.351-11.528-2.742-23.04-1.747-34.7,2.421-28.379,10.672-54.81,26.042-78.9.119-.187,1.537-2.352,1.641-2.548,1.481-.292.884,2.817,1.723,3.638,3.423,3.35,6.778,6.771,10.182,10.141a10.9,10.9,0,0,1,2.618,4.208" transform="translate(1832.714 -55.174)" fill="#473911"/>
      <path id="Path_89096" data-name="Path 89096" d="M-1283.533,236.494a76.3,76.3,0,0,0-.862-15.707c-.392-3.1-1.872-4.473-5.125-4.206-3,.246-6.047-.1-9.053.1-2.746.189-4.09-1.092-4.959-3.479a84,84,0,0,0-3.65-8.978,3.5,3.5,0,0,1,.851-4.721c2.422-2.322,4.6-4.93,7.183-7.043,2.408-1.968,2.2-3.726.605-5.941a97.784,97.784,0,0,0-24.135-23.852c-1.963-1.342-3.3-1.316-4.907.4-2.523,2.691-5.236,5.2-7.8,7.862a3.2,3.2,0,0,1-4.161.875c-3.124-1.476-6.3-2.862-9.529-4.093-2.227-.849-3.041-2.206-2.907-4.58.189-3.345.009-6.71.064-10.065.035-2.131-.888-3.12-2.989-3.722s-4.208-.388-6.287-.8c-9.781-1.956-19.487-1.177-29.153.936-1.843.4-2.62,1.313-2.558,3.238.11,3.465-.141,6.946.089,10.4.173,2.61-.939,3.969-3.226,4.722a37.387,37.387,0,0,0-8.307,3.52c-2.468,1.545-4.3.728-6.285-1.01-2.527-2.212-4.339-5.039-6.874-7.285-2.068-1.834-3.357-1.45-5.185-.2-9.6,6.573-17.372,14.961-24.191,24.3-1.138,1.558-1.261,2.911.335,4.387,2.708,2.5,5.195,5.248,7.882,7.777,1.651,1.555,1.792,3.121.884,5.111-1.434,3.144-2.789,6.332-3.99,9.571a3.487,3.487,0,0,1-3.726,2.648c-3.579-.066-7.16.018-10.738-.047-2.249-.041-3.414.814-3.895,3.157a91.553,91.553,0,0,0-.46,34.843,3.185,3.185,0,0,0,3.708,2.97c3.574-.145,7.16.028,10.737-.083,2.033-.063,3.267.436,3.983,2.6a53.906,53.906,0,0,0,3.92,9.228c1.44,2.6.8,4.377-1.12,6.18-2.429,2.278-5.068,4.294-7.157,6.987-1.435,1.849-1.6,3.064-.272,4.968a88.961,88.961,0,0,0,19.718,20.737c6.939,5.162,7.127,5.352,13.119-1.147,3.667-3.978,7.02-6.821,12.212-2.651.24.192.649.158.959.28,9.216,3.6,7.8,1.807,7.875,11.226.064,8.122.035,8,8.122,9.619,10.031,2.011,19.925,1.068,29.816-.872a2.609,2.609,0,0,0,2.436-2.989c-.091-3.242.177-6.5-.085-9.727-.244-3.014,1.106-4.527,3.7-5.55,2.583-1.018,5.352-1.665,7.629-3.355,2.316-1.719,4.344-1.294,6.263.634,2.367,2.378,4.813,4.684,7.1,7.139,1.73,1.861,3.046,2.116,5.375.487,9.455-6.612,17.165-14.864,23.964-24.088,1.507-2.044,1.324-3.578-.41-5.255-2.654-2.566-5.178-5.266-7.868-7.792a2.916,2.916,0,0,1-.636-4.122,39.181,39.181,0,0,0,3.844-9.26,3.958,3.958,0,0,1,4.389-3.246c3.467.065,6.935,0,10.4.015,2.185.01,3.839-.822,4-3.141C-1284.458,248.3-1282.61,242.311-1283.533,236.494Zm-89.654,58.493c-31.953-.073-58.331-25.93-57.263-60.392.916-29.552,24.84-55.315,58.8-55.559,32.221,1.226,56.87,24.9,56.918,58.391C-1314.684,269.956-1340.172,295.062-1373.188,294.987Z" transform="translate(1796.325 -55.499)" fill="#cfd7ec"/>
    </g>
    <text id="Develop" transform="translate(-9007 18653)" fill="#473911" font-size="16" font-family="Poppins-SemiBold, Poppins" font-weight="600"><tspan x="0" y="0">Develop</tspan></text>
    <text id="Test" transform="translate(-9007 18524)" fill="#473911" font-size="16" font-family="Poppins-SemiBold, Poppins" font-weight="600"><tspan x="0" y="0">Test</tspan></text>
    <text id="Deploy" transform="translate(-9423 18523)" fill="#473911" font-size="16" font-family="Poppins-SemiBold, Poppins" font-weight="600"><tspan x="0" y="0">Deploy</tspan></text>
    <text id="Review" transform="translate(-9487 18653)" fill="#473911" font-size="16" font-family="Poppins-SemiBold, Poppins" font-weight="600"><tspan x="0" y="0">Review</tspan></text>
    <text id="AGILE" transform="translate(-9250 18681)" fill="#333" font-size="30" font-family="Poppins-SemiBold, Poppins" font-weight="600"><tspan x="0" y="0">AGILE</tspan></text>
    <g id="Group_171701" data-name="Group 171701" transform="translate(-9250.37 18866.945)">
      <text id="Design" transform="translate(0.371 67.055)" fill="#473911" font-size="16" font-family="Poppins-SemiBold, Poppins" font-weight="600"><tspan x="0" y="0">Design</tspan></text>
      <circle id="Ellipse_3626" data-name="Ellipse 3626" cx="23.5" cy="23.5" r="23.5" transform="translate(2.37 0.055)" fill="#1390c8"/>
      <g id="web-design" transform="translate(11.412 7.384)">
        <path id="Path_25466" data-name="Path 25466" d="M50.872,4.165h-.38A2.738,2.738,0,0,0,45.88,1.216L43.907,4.165H26.957A2.53,2.53,0,0,0,24.43,6.692V22.846a2.53,2.53,0,0,0,2.527,2.527h9.815l-.742,3.115h-1.6a1.894,1.894,0,0,0-1.892,1.892v.395H30.564a.625.625,0,0,0,0,1.251h16.7a.625.625,0,1,0,0-1.251H45.291v-.395A1.894,1.894,0,0,0,43.4,28.487H41.8l-.742-3.115h9.815A2.53,2.53,0,0,0,53.4,22.846V6.692a2.53,2.53,0,0,0-2.527-2.527Zm-8.962,11c-.978.685-2.81-.246-4.56.688-.427-2.218-.158-4.3,2.064-4.764a3.981,3.981,0,0,1,.86-.082l2.263,1.679A2.019,2.019,0,0,1,41.91,15.161Zm.63-6.7L44.311,9.77l-1.362,1.66-1.6-1.189ZM46.92,1.912A1.487,1.487,0,1,1,49.3,3.682l-4.2,5.12L43.237,7.416ZM44.04,30.379v.395H33.788v-.395a.642.642,0,0,1,.641-.641H43.4a.642.642,0,0,1,.641.641Zm-3.527-1.892h-3.2l.742-3.115h1.714Zm11.635-5.641a1.277,1.277,0,0,1-1.276,1.276H26.957a1.277,1.277,0,0,1-1.276-1.276V19.917h1.787a.625.625,0,1,0,0-1.251H25.681V6.692a1.277,1.277,0,0,1,1.276-1.276H43.07l-2.9,4.335a4.274,4.274,0,0,0-3.251,1.373c-1.09,1.273-1.282,3.272-.569,5.943a.626.626,0,0,0,1.036.291c1.617-1.545,3.632.14,5.435-1.32a3.276,3.276,0,0,0,.946-3.633L49.5,5.416h1.372a1.277,1.277,0,0,1,1.276,1.276V18.666H32.472a.625.625,0,1,0,0,1.251H52.148Z" transform="translate(-24.43 0)" fill="#fff"/>
        <path id="Path_25467" data-name="Path 25467" d="M103.538,298.435a.625.625,0,1,0,.736.491A.625.625,0,0,0,103.538,298.435Z" transform="translate(-98.118 -279.758)" fill="#fff"/>
      </g>
    </g>
    <circle id="Ellipse_3629" data-name="Ellipse 3629" cx="23.5" cy="23.5" r="23.5" transform="translate(-8897 18638)" fill="#1390c8"/>
    <circle id="Ellipse_3630" data-name="Ellipse 3630" cx="23.5" cy="23.5" r="23.5" transform="translate(-8929 18514)" fill="#1390c8"/>
    <circle id="Ellipse_3631" data-name="Ellipse 3631" cx="23.5" cy="23.5" r="23.5" transform="translate(-9528 18514)" fill="#473911"/>
    <circle id="Ellipse_3632" data-name="Ellipse 3632" cx="23.5" cy="23.5" r="23.5" transform="translate(-9561 18638)" fill="#473911"/>
    <g id="Group_171692" data-name="Group 171692" transform="translate(-9070.46 18661.879)">
      <path id="Path_89098" data-name="Path 89098" d="M-8764.127,17540.777l60.932-61.25h110" transform="translate(8767.398 -17479.527)" fill="none" stroke="#c8eafa" stroke-width="4"/>
      <circle id="Ellipse_3633" data-name="Ellipse 3633" cx="5" cy="5" r="5" transform="translate(0.46 55.121)" fill="#c8eafa"/>
    </g>
    <g id="Group_171693" data-name="Group 171693" transform="translate(-9102.683 18531.646)">
      <path id="Path_89098-2" data-name="Path 89098" d="M-8764.127,17540.777l60.932-61.25h110" transform="translate(8767.398 -17479.527)" fill="none" stroke="#c8eafa" stroke-width="4"/>
      <circle id="Ellipse_3633-2" data-name="Ellipse 3633" cx="5" cy="5" r="5" transform="translate(-0.318 54.354)" fill="#c8eafa"/>
    </g>
    <g id="Group_171694" data-name="Group 171694" transform="translate(-9513.521 18661.879)">
      <path id="Path_89098-3" data-name="Path 89098" d="M-8593.2,17540.777l-60.931-61.25h-110" transform="translate(8764.127 -17479.527)" fill="none" stroke="#c8eafa" stroke-width="4"/>
      <circle id="Ellipse_3633-3" data-name="Ellipse 3633" cx="5.035" cy="5.035" r="5.035" transform="translate(164.13 54.693)" fill="#c8eafa"/>
    </g>
    <g id="Group_171695" data-name="Group 171695" transform="translate(-9481.299 18531.646)">
      <path id="Path_89098-4" data-name="Path 89098" d="M-8593.2,17540.777l-60.931-61.25h-110" transform="translate(8764.127 -17479.527)" fill="none" stroke="#c8eafa" stroke-width="4"/>
      <circle id="Ellipse_3633-4" data-name="Ellipse 3633" cx="5.035" cy="5.035" r="5.035" transform="translate(164.13 54.693)" fill="#c8eafa"/>
    </g>
    <g id="exam_3_" data-name="exam (3)" transform="translate(-8915.389 18524.58)">
      <g id="Group_161269" data-name="Group 161269" transform="translate(3.983 5.975)">
        <g id="Group_161268" data-name="Group 161268" transform="translate(0)">
          <path id="Path_25476" data-name="Path 25476" d="M150.19,120.239a.373.373,0,0,0-.373.373v16.731a.026.026,0,0,1-.026.026H136.647a.373.373,0,0,0,0,.745h13.145a.772.772,0,0,0,.771-.771V120.612A.373.373,0,0,0,150.19,120.239Z" transform="translate(-136.274 -120.239)" fill="#fff"/>
        </g>
      </g>
      <g id="Group_161271" data-name="Group 161271" transform="translate(0)">
        <g id="Group_161270" data-name="Group 161270" transform="translate(0)">
          <path id="Path_25477" data-name="Path 25477" d="M75.207,1.593H71.776L70.525.343A1.162,1.162,0,0,0,69.7,0H56.883a.772.772,0,0,0-.771.771V23.078a.772.772,0,0,0,.771.771h.822v.822a.772.772,0,0,0,.771.771h16.73a.772.772,0,0,0,.771-.771V2.364A.772.772,0,0,0,75.207,1.593ZM70,.874,73.51,4.382H70.028A.026.026,0,0,1,70,4.356Zm5.23,23.8a.026.026,0,0,1-.026.026H58.476a.026.026,0,0,1-.026-.026v-.822h.424a.373.373,0,0,0,0-.745H56.883a.026.026,0,0,1-.026-.026V.771a.026.026,0,0,1,.026-.026H69.257V4.356a.772.772,0,0,0,.771.771h3.983a.373.373,0,0,0,.373-.373V4.686a1.162,1.162,0,0,0-.343-.827l-1.52-1.52h2.685a.026.026,0,0,1,.026.026Z" transform="translate(-56.112)" fill="#fff"/>
        </g>
      </g>
      <g id="Group_161273" data-name="Group 161273" transform="translate(2.39 4.148)">
        <g id="Group_161272" data-name="Group 161272">
          <path id="Path_25478" data-name="Path 25478" d="M109.226,83.591a.373.373,0,0,0-.527,0L106.591,85.7a.026.026,0,0,1-.036,0l-.84-.841h.647a.373.373,0,1,0,0-.745h-.983a.765.765,0,0,0-.333.076l-.2-.2a.373.373,0,0,0-.527.527l.293.293c0,.025,0,.05,0,.075v2.39a.772.772,0,0,0,.771.771h2.39a.772.772,0,0,0,.771-.771V84.806l.688-.687A.373.373,0,0,0,109.226,83.591Zm-1.433,3.684a.026.026,0,0,1-.026.026h-2.39a.026.026,0,0,1-.026-.026V85.551l.675.675a.772.772,0,0,0,1.09,0l.675-.675Z" transform="translate(-104.208 -83.482)" fill="#fff"/>
        </g>
      </g>
      <g id="Group_161275" data-name="Group 161275" transform="translate(2.788 9.959)">
        <g id="Group_161274" data-name="Group 161274" transform="translate(0)">
          <path id="Path_25479" data-name="Path 25479" d="M115.386,200.4H113a.772.772,0,0,0-.771.771v2.39a.772.772,0,0,0,.771.771h2.39a.772.772,0,0,0,.771-.771v-2.39A.772.772,0,0,0,115.386,200.4Zm.026,3.161a.026.026,0,0,1-.026.026H113a.026.026,0,0,1-.026-.026v-2.39a.026.026,0,0,1,.026-.026h2.39a.026.026,0,0,1,.026.026Z" transform="translate(-112.225 -200.403)" fill="#fff"/>
        </g>
      </g>
      <g id="Group_161277" data-name="Group 161277" transform="translate(2.788 15.137)">
        <g id="Group_161276" data-name="Group 161276" transform="translate(0)">
          <path id="Path_25480" data-name="Path 25480" d="M115.386,304.613H113a.772.772,0,0,0-.771.771v2.39a.772.772,0,0,0,.771.771h2.39a.772.772,0,0,0,.771-.771v-2.39A.772.772,0,0,0,115.386,304.613Zm.026,3.161a.026.026,0,0,1-.026.026H113a.026.026,0,0,1-.026-.026v-2.39a.026.026,0,0,1,.026-.026h2.39a.026.026,0,0,1,.026.026Z" transform="translate(-112.225 -304.613)" fill="#fff"/>
        </g>
      </g>
      <g id="Group_161279" data-name="Group 161279" transform="translate(7.967 5.577)">
        <g id="Group_161278" data-name="Group 161278" transform="translate(0)">
          <path id="Path_25481" data-name="Path 25481" d="M220.393,112.226h-3.585a.373.373,0,1,0,0,.745h3.585a.373.373,0,1,0,0-.745Z" transform="translate(-216.435 -112.226)" fill="#fff"/>
        </g>
      </g>
      <g id="Group_161281" data-name="Group 161281" transform="translate(7.967 7.17)">
        <g id="Group_161280" data-name="Group 161280" transform="translate(0)">
          <path id="Path_25482" data-name="Path 25482" d="M223.58,144.291h-6.772a.373.373,0,1,0,0,.745h6.772a.373.373,0,0,0,0-.745Z" transform="translate(-216.435 -144.291)" fill="#fff"/>
        </g>
      </g>
      <g id="Group_161283" data-name="Group 161283" transform="translate(7.967 10.755)">
        <g id="Group_161282" data-name="Group 161282" transform="translate(0)">
          <path id="Path_25483" data-name="Path 25483" d="M220.393,216.436h-3.585a.373.373,0,1,0,0,.745h3.585a.373.373,0,1,0,0-.745Z" transform="translate(-216.435 -216.436)" fill="#fff"/>
        </g>
      </g>
      <g id="Group_161285" data-name="Group 161285" transform="translate(7.967 12.349)">
        <g id="Group_161284" data-name="Group 161284" transform="translate(0)">
          <path id="Path_25484" data-name="Path 25484" d="M223.58,248.5h-6.772a.373.373,0,1,0,0,.745h6.772a.373.373,0,0,0,0-.745Z" transform="translate(-216.435 -248.5)" fill="#fff"/>
        </g>
      </g>
      <g id="Group_161287" data-name="Group 161287" transform="translate(7.967 15.934)">
        <g id="Group_161286" data-name="Group 161286" transform="translate(0)">
          <path id="Path_25485" data-name="Path 25485" d="M220.393,320.645h-3.585a.373.373,0,1,0,0,.745h3.585a.373.373,0,1,0,0-.745Z" transform="translate(-216.435 -320.645)" fill="#fff"/>
        </g>
      </g>
      <g id="Group_161289" data-name="Group 161289" transform="translate(7.967 17.527)">
        <g id="Group_161288" data-name="Group 161288" transform="translate(0)">
          <path id="Path_25486" data-name="Path 25486" d="M223.58,352.709h-6.772a.373.373,0,1,0,0,.745h6.772a.373.373,0,0,0,0-.745Z" transform="translate(-216.435 -352.709)" fill="#fff"/>
        </g>
      </g>
    </g>
    <g id="web-programming_1_" data-name="web-programming (1)" transform="translate(-8886.522 18650.113)">
      <path id="Path_25468" data-name="Path 25468" d="M118.248,186.651a.433.433,0,0,1-.281-.1l-2.814-2.4a.435.435,0,0,1,0-.662l2.814-2.4a.435.435,0,1,1,.564.662l-2.425,2.065,2.425,2.065a.435.435,0,0,1-.282.766Zm0,0" transform="translate(-107.856 -169.746)" fill="#fff"/>
      <path id="Path_25469" data-name="Path 25469" d="M250.143,186.651a.435.435,0,0,1-.282-.766l2.425-2.065-2.425-2.065a.435.435,0,0,1,.564-.662l2.814,2.4a.435.435,0,0,1,0,.662l-2.814,2.4A.433.433,0,0,1,250.143,186.651Zm0,0" transform="translate(-234.196 -169.746)" fill="#fff"/>
      <path id="Path_25470" data-name="Path 25470" d="M189.389,162.221a.442.442,0,0,1-.09-.009.435.435,0,0,1-.336-.515l1.754-8.326a.435.435,0,0,1,.851.179l-1.754,8.326A.435.435,0,0,1,189.389,162.221Zm0,0" transform="translate(-177.216 -143.519)" fill="#fff"/>
      <path id="Path_25471" data-name="Path 25471" d="M23.419,23.238H2.92A2.923,2.923,0,0,1,0,20.318V2.92A2.923,2.923,0,0,1,2.92,0h20.5a2.923,2.923,0,0,1,2.92,2.92v17.4A2.923,2.923,0,0,1,23.419,23.238ZM2.92.87A2.052,2.052,0,0,0,.87,2.92v17.4a2.052,2.052,0,0,0,2.05,2.05h20.5a2.052,2.052,0,0,0,2.05-2.05V2.92A2.052,2.052,0,0,0,23.419.87Zm0,0" fill="#fff"/>
      <path id="Path_25472" data-name="Path 25472" d="M25.9,98.96H.435a.435.435,0,1,1,0-.87H25.9a.435.435,0,0,1,0,.87Zm0,0" transform="translate(0 -91.997)" fill="#fff"/>
      <path id="Path_25473" data-name="Path 25473" d="M98.826,37.041a1.376,1.376,0,1,1,1.376-1.376A1.378,1.378,0,0,1,98.826,37.041Zm0-1.882a.506.506,0,1,0,.506.506A.507.507,0,0,0,98.826,35.159Zm0,0" transform="translate(-91.396 -32.159)" fill="#fff"/>
      <path id="Path_25474" data-name="Path 25474" d="M30.763,36.826a1.376,1.376,0,1,1,1.376-1.376A1.378,1.378,0,0,1,30.763,36.826Zm0-1.882a.506.506,0,1,0,.506.506A.507.507,0,0,0,30.763,34.944Zm0,0" transform="translate(-27.561 -31.958)" fill="#fff"/>
      <path id="Path_25475" data-name="Path 25475" d="M166.891,37.256a1.376,1.376,0,1,1,1.376-1.376A1.378,1.378,0,0,1,166.891,37.256Zm0-1.882a.506.506,0,1,0,.506.506A.507.507,0,0,0,166.891,35.373Zm0,0" transform="translate(-155.234 -32.361)" fill="#fff"/>
    </g>
    <g id="display" transform="translate(-9517.55 18525.25)">
      <path id="Path_25487" data-name="Path 25487" d="M24.881,0H1.459A1.461,1.461,0,0,0,0,1.459V19.133a1.458,1.458,0,0,0,1.459,1.454H7.676a11.36,11.36,0,0,0,1.647,1.484c.849.669,1.9,1.5,1.825,2.043-.025.173-.242.636-1.7,1.208a.527.527,0,0,0,.193,1.017h7.048a.527.527,0,0,0,.193-1.017c-1.455-.572-1.671-1.036-1.7-1.208-.08-.543.978-1.376,1.828-2.045a11.344,11.344,0,0,0,1.648-1.482h6.217a1.459,1.459,0,0,0,1.459-1.454V1.459A1.461,1.461,0,0,0,24.881,0ZM1.459,1.054H24.881a.406.406,0,0,1,.406.405V16.2H1.053V1.459a.406.406,0,0,1,.406-.405ZM16.364,21.242c-1.174.924-2.388,1.88-2.219,3.027a1.736,1.736,0,0,0,.573,1.018h-3.1a1.737,1.737,0,0,0,.573-1.018c.169-1.146-1.043-2.1-2.215-3.025-.275-.217-.554-.438-.809-.656h8.007c-.255.218-.533.438-.808.654Zm8.517-1.708H1.459a.4.4,0,0,1-.406-.4V17.254H25.286v1.879a.4.4,0,0,1-.406.4Zm0,0" transform="translate(0 0)" fill="#fff"/>
      <path id="Path_25488" data-name="Path 25488" d="M192.484,310.1h-3.578a.527.527,0,1,0,0,1.054h3.578a.527.527,0,0,0,0-1.054Zm0,0" transform="translate(-177.525 -292.23)" fill="#fff"/>
      <path id="Path_25489" data-name="Path 25489" d="M46.241,49.064a.525.525,0,0,0,.372-.154l2.3-2.3a.527.527,0,0,0-.745-.745l-2.3,2.3a.527.527,0,0,0,.372.9Zm0,0" transform="translate(-43.08 -43.08)" fill="#fff"/>
      <path id="Path_25490" data-name="Path 25490" d="M56.98,62.083a.527.527,0,0,0,.745,0l4.354-4.353a.527.527,0,0,0-.745-.745L56.98,61.338A.527.527,0,0,0,56.98,62.083Zm0,0" transform="translate(-53.552 -53.555)" fill="#fff"/>
    </g>
    <g id="Group_171700" data-name="Group 171700" transform="translate(-9610.189 18866.945)">
      <text id="Plan" transform="translate(7.189 67.055)" fill="#473911" font-size="16" font-family="Poppins-SemiBold, Poppins" font-weight="600"><tspan x="0" y="0">Plan</tspan></text>
      <circle id="Ellipse_3628" data-name="Ellipse 3628" cx="23.5" cy="23.5" r="23.5" transform="translate(0.189 0.055)" fill="#156599"/>
      <g id="Group_171697" data-name="Group 171697" transform="translate(14.097 11.412)">
        <path id="Path_88539" data-name="Path 88539" d="M118.43,287.365V304.89a1.662,1.662,0,0,1-1.658,1.656H101.856a1.662,1.662,0,0,1-1.658-1.656V283.37a1.662,1.662,0,0,1,1.658-1.656h10.915a1.658,1.658,0,0,1,1.173.485l4,4A1.662,1.662,0,0,1,118.43,287.365Z" transform="translate(-100.198 -281.714)" fill="none" stroke="#fff" stroke-linecap="round" stroke-linejoin="round" stroke-miterlimit="10" stroke-width="2"/>
        <path id="Path_88540" data-name="Path 88540" d="M119.319,281.713v3.855a1.946,1.946,0,0,0,1.941,1.939h3.86" transform="translate(-106.888 -281.713)" fill="none" stroke="#fff" stroke-linecap="round" stroke-linejoin="round" stroke-miterlimit="10" stroke-width="2"/>
        <path id="Path_88541" data-name="Path 88541" d="M116.517,296.994h-9.944" transform="translate(-102.428 -287.06)" fill="none" stroke="#fff" stroke-linecap="round" stroke-linejoin="round" stroke-miterlimit="10" stroke-width="2"/>
        <path id="Path_88542" data-name="Path 88542" d="M116.517,303.358h-9.944" transform="translate(-102.428 -289.287)" fill="none" stroke="#fff" stroke-linecap="round" stroke-linejoin="round" stroke-miterlimit="10" stroke-width="2"/>
        <path id="Path_88543" data-name="Path 88543" d="M116.517,309.722h-9.944" transform="translate(-102.428 -291.513)" fill="none" stroke="#fff" stroke-linecap="round" stroke-linejoin="round" stroke-miterlimit="10" stroke-width="2"/>
      </g>
    </g>
    <g id="analysis" transform="translate(-9551.114 18648.1)">
      <g id="Group_161265" data-name="Group 161265" transform="translate(1.769 1.76)">
        <g id="Group_161264" data-name="Group 161264">
          <path id="Path_25464" data-name="Path 25464" d="M41.415,32.106a9.233,9.233,0,1,0,9.233,9.233A9.233,9.233,0,0,0,41.415,32.106Zm0,.879a8.344,8.344,0,0,1,6.822,3.548l-1.1,1.1a1.735,1.735,0,0,0-.886-.251,1.759,1.759,0,0,0-1.759,1.759,1.735,1.735,0,0,0,.249.888l-2.879,2.879a1.705,1.705,0,0,0-1.775,0l-2-2a1.735,1.735,0,0,0,.249-.888,1.755,1.755,0,0,0-3.455-.44H33.251A8.365,8.365,0,0,1,41.415,32.985ZM47.13,39.14a.879.879,0,1,1-.879-.879A.879.879,0,0,1,47.13,39.14Zm-5.276,5.276a.879.879,0,1,1-.879-.879A.879.879,0,0,1,41.854,44.416Zm-4.4-4.4a.879.879,0,1,1-.879-.879A.879.879,0,0,1,37.458,40.02Zm8.016,8.623a8.352,8.352,0,0,1-12.365-8.183h1.774a1.759,1.759,0,0,0,1.7,1.319,1.735,1.735,0,0,0,.888-.249l2,2a1.735,1.735,0,0,0-.249.888,1.759,1.759,0,0,0,3.517,0,1.735,1.735,0,0,0-.249-.888l2.879-2.879a1.735,1.735,0,0,0,.888.249,1.759,1.759,0,0,0,1.759-1.759,1.735,1.735,0,0,0-.249-.888l.958-.958A8.346,8.346,0,0,1,45.473,48.643Z" transform="translate(-32.182 -32.106)" fill="#fff"/>
        </g>
      </g>
      <g id="Group_161267" data-name="Group 161267" transform="translate(0 0)">
        <g id="Group_161266" data-name="Group 161266" transform="translate(0 0)">
          <path id="Path_25465" data-name="Path 25465" d="M21.993,4.478a1.759,1.759,0,0,0,1.7-1.319h2.7V2.28h-2.7a1.755,1.755,0,0,0-3.455.44,1.735,1.735,0,0,0,.249.888l-.772.772A10.991,10.991,0,1,0,16.967,20.3l1.327,1.327.622.622,3.539,3.539a2.3,2.3,0,0,0,3.26-3.26l-3.539-3.539-.622-.622-1.327-1.327a10.955,10.955,0,0,0,0-11.93l.879-.879A1.736,1.736,0,0,0,21.993,4.478Zm0-2.638a.879.879,0,1,1-.879.879A.879.879,0,0,1,21.993,1.84Zm3.1,21.307A1.426,1.426,0,0,1,23.1,25.186l-.023-.023-3.539-3.539,2.016-2.016Zm-4.161-4.161L18.915,21,17.7,19.786c.062-.047.12-.1.181-.149s.132-.107.2-.162c.1-.081.191-.163.284-.247L18.5,19.1q.27-.253.524-.524c.044-.047.088-.093.132-.141.084-.093.166-.188.247-.284q.083-.1.162-.2c.048-.061.1-.119.148-.181Zm-1.7-2.042c-.138.193-.281.383-.432.565-.044.053-.091.1-.136.157q-.2.235-.417.455-.094.1-.19.19-.22.215-.455.417c-.052.044-.1.092-.157.136-.182.151-.372.294-.565.432a10.128,10.128,0,1,1,2.353-2.353Z" transform="translate(0 -0.08)" fill="#fff"/>
        </g>
      </g>
    </g>
    <g id="Group_171699" data-name="Group 171699" transform="translate(-9592.064 18810.555)">
      <path id="Path_89098-5" data-name="Path 89098" d="M-8764.127,17503.023v-51.689" transform="translate(8769.162 -17446.41)" fill="none" stroke="#c8eafa" stroke-width="4"/>
      <circle id="Ellipse_3633-5" data-name="Ellipse 3633" cx="5" cy="5" r="5" transform="translate(0.064 0.445)" fill="#c8eafa"/>
    </g>
    <g id="Group_171702" data-name="Group 171702" transform="translate(-8931.5 18866.945)">
      <text id="Launch" transform="translate(-0.5 66.055)" fill="#473911" font-size="16" font-family="Poppins-SemiBold, Poppins" font-weight="600"><tspan x="0" y="0">Launch</tspan></text>
      <circle id="Ellipse_3627" data-name="Ellipse 3627" cx="23.5" cy="23.5" r="23.5" transform="translate(4.5 0.055)" fill="#473911"/>
      <g id="Group_171698" data-name="Group 171698" transform="translate(15.44 11.412)">
        <path id="Path_89099" data-name="Path 89099" d="M-535.568,239.253h-.479a.237.237,0,0,0-.059-.038,1.3,1.3,0,0,1-1-1.144q-.138-.909-.282-1.817c-.059-.373-.12-.746-.181-1.122-.082.006-.13.007-.176.014a1.861,1.861,0,0,1-1.677-.558q-2.085-2.074-4.16-4.158a1.922,1.922,0,0,1-.578-1.227c-.017-.2,0-.41,0-.627a.544.544,0,0,0-.093-.028c-.755-.117-1.513-.221-2.265-.355a5.211,5.211,0,0,1-1.119-.3,1.264,1.264,0,0,1-.606-.847v-.479a2.814,2.814,0,0,1,.191-.433c.844-1.285,1.685-2.573,2.547-3.845a1.716,1.716,0,0,1,1.33-.751c1.143-.1,2.288-.179,3.431-.28a.584.584,0,0,0,.333-.175c.354-.367.684-.757,1.037-1.125a16.429,16.429,0,0,1,10.428-5.077c.443-.047.885-.09,1.328-.134h1.962a1.607,1.607,0,0,0,.183.041,1.892,1.892,0,0,1,1.664,1.5c.027.123.045.248.067.372v1.962c-.063.593-.113,1.188-.192,1.779a16.781,16.781,0,0,1-1.794,5.76,18.181,18.181,0,0,1-4.3,5.2.577.577,0,0,0-.237.433c-.075,1.1-.172,2.193-.254,3.289a1.961,1.961,0,0,1-.956,1.568c-.688.447-1.364.913-2.056,1.353C-534.208,238.437-534.891,238.84-535.568,239.253Zm8.6-23.052v-.03c-.517.036-1.034.061-1.55.111a15.225,15.225,0,0,0-5.716,1.6,17.2,17.2,0,0,0-7.266,7.411c-.072.136-.01.2.072.28q3.434,3.432,6.864,6.868a.223.223,0,0,0,.325.04c.58-.348,1.187-.656,1.743-1.039a17.141,17.141,0,0,0,5.483-5.931,14.632,14.632,0,0,0,1.672-5.52c.109-1.043.113-2.1.134-3.149.01-.487-.144-.615-.636-.634C-526.216,216.189-526.591,216.2-526.965,216.2Zm-8.9,17.026-6.314-6.315a.07.07,0,0,0-.025.035c-.177.677-.366,1.352-.517,2.034a.551.551,0,0,0,.15.424q2.068,2.094,4.16,4.163a.514.514,0,0,0,.377.159C-537.308,233.579-536.593,233.4-535.861,233.226Zm4.084-.532a16.432,16.432,0,0,1-4.39,2.09l.456,2.948c1.208-.8,2.379-1.571,3.541-2.355a.514.514,0,0,0,.195-.334C-531.9,234.282-531.843,233.519-531.776,232.694Zm-9.916-9.914c-.83.068-1.608.119-2.383.208a.654.654,0,0,0-.374.293c-.656.971-1.3,1.951-1.943,2.929l-.332.505,2.945.454A16.428,16.428,0,0,1-541.693,222.78Z" transform="translate(548.25 -214.75)" fill="#fff"/>
        <path id="Path_89100" data-name="Path 89100" d="M-548.25,510.715a7.29,7.29,0,0,1,.462-.564q2.08-2.093,4.175-4.171a1.085,1.085,0,0,1,.506-.279.625.625,0,0,1,.688.325.687.687,0,0,1-.026.787,1.381,1.381,0,0,1-.174.2q-2.136,2.138-4.277,4.272a4.267,4.267,0,0,1-.446.343h-.383a1.081,1.081,0,0,1-.526-.526Z" transform="translate(548.25 -487.121)" fill="#fff"/>
        <path id="Path_89101" data-name="Path 89101" d="M-548.25,474.954a4.08,4.08,0,0,1,.4-.58c.694-.715,1.406-1.412,2.108-2.119a.741.741,0,0,1,.732-.248.705.705,0,0,1,.366,1.171q-1.178,1.222-2.4,2.4a.7.7,0,0,1-1.142-.279c-.021-.051-.041-.1-.061-.154Z" transform="translate(548.25 -455.572)" fill="#fff"/>
        <path id="Path_89102" data-name="Path 89102" d="M-480.158,543.094c-.043-.018-.086-.037-.13-.054a.706.706,0,0,1-.289-1.168c.779-.8,1.571-1.586,2.367-2.369a.709.709,0,0,1,.995,0,.7.7,0,0,1,.012,1.01q-1.165,1.186-2.353,2.349a1.79,1.79,0,0,1-.41.23Z" transform="translate(485.088 -518.591)" fill="#fff"/>
        <path id="Path_89103" data-name="Path 89103" d="M-548.25,590.5a1.081,1.081,0,0,0,.526.526h-.526Z" transform="translate(548.25 -566.524)" fill="#fff"/>
        <path id="Path_89104" data-name="Path 89104" d="M-337.808,286.613a3.571,3.571,0,0,1-3.573-3.594,3.587,3.587,0,0,1,3.6-3.579,3.6,3.6,0,0,1,3.581,3.6A3.587,3.587,0,0,1-337.808,286.613Zm-2.137-3.59a2.137,2.137,0,0,0,2.129,2.154,2.152,2.152,0,0,0,2.174-2.141,2.167,2.167,0,0,0-2.161-2.161A2.151,2.151,0,0,0-339.945,283.023Z" transform="translate(354.581 -275.312)" fill="#fff"/>
      </g>
    </g>
    <g id="Group_171703" data-name="Group 171703" transform="translate(-9229.56 18809.885)">
      <path id="Path_89098-6" data-name="Path 89098" d="M-8764.127,17503.023v-51.689" transform="translate(8769.162 -17446.41)" fill="none" stroke="#c8eafa" stroke-width="4"/>
      <ellipse id="Ellipse_3633-6" data-name="Ellipse 3633" cx="5.5" cy="5" rx="5.5" ry="5" transform="translate(-0.441 0.115)" fill="#c8eafa"/>
    </g>
    <g id="Group_171704" data-name="Group 171704" transform="translate(-8908.004 18809.885)">
      <path id="Path_89098-7" data-name="Path 89098" d="M-8764.127,17503.023v-51.689" transform="translate(8769.162 -17446.41)" fill="none" stroke="#c8eafa" stroke-width="4"/>
      <circle id="Ellipse_3633-7" data-name="Ellipse 3633" cx="5" cy="5" r="5" transform="translate(0.003 0.115)" fill="#c8eafa"/>
    </g>
  </g>
</svg>
