<svg xmlns="http://www.w3.org/2000/svg" width="462.909" height="462.046" viewBox="0 0 462.909 462.046">
  <g id="img_2" transform="translate(10069.171 -17584)" opacity="0.9">
    <g id="Group_173700" data-name="Group 173700" transform="translate(-10069.171 17584)">
      <path id="Path_91505" data-name="Path 91505" d="M-183.111,242.346a1.312,1.312,0,0,1,.241.839c-.271.171-.545.452-.826.454-18.722.148-37.444.038-56.165.1q27.625,0,55.251.006a2.518,2.518,0,0,0,1.764-.555c5.7,9.3,9.081,19.59,12.486,29.842A234.61,234.61,0,0,1-158.25,351q-1.023,65.829-37.525,120.936c-.579.874-.892,2.151-2.369,2-3.238-2.389-4.3-6.249-6.181-9.494q-20.407-35.177-40.738-70.4C-254.281,378-263.641,362.043-272.858,346q-27.749-48.217-55.6-96.375c-1.346-2.333-4.267-4.839-1.246-8.043,2.283-1.021,4.7-.836,7.087-.837q65.852-.026,131.7,0C-188.215,240.748-185.439,240.484-183.111,242.346Z" transform="translate(621.131 -114.817)" fill="#3581dd"/>
      <path id="Path_91506" data-name="Path 91506" d="M-275.2,350.193c10.342,17.732,20.731,35.437,31.016,53.2q20.6,35.578,41.058,71.238a39.406,39.406,0,0,1,1.728,3.889c-31.922,45.833-74.077,77.769-127.738,94.1-24.96,7.6-50.537,9.628-76.462,8.571-1.086-.044-2.284.118-2.945-1.1-.221-2.6,1.426-4.525,2.6-6.528,15.959-27.208,31.434-54.7,47.318-81.949q9.866-16.926,19.488-34c2.359-4.191,2.269-4.412-2.448-4.418-19.759-.024-39.518.042-59.276-.081-2.034-.012-4.956,1.153-5.73-2.349,2.115-1.6,4.592-1.089,6.935-1.094,19.62-.042,39.241-.127,58.861.057,4.386.041,6.867-1.5,9.095-5.311,17.462-29.879,34.52-59.99,51.987-89.864C-278.646,352.729-278.019,350.275-275.2,350.193Z" transform="translate(624.383 -119.407)" fill="#4399ff"/>
      <path id="Path_91507" data-name="Path 91507" d="M-414.844,455.773l66.028.263c1.7.007,3.4,0,6.065,0-5.275,9.292-10.07,17.858-14.975,26.36q-28.528,49.44-57.121,98.843c-.634,1.1-1.383,2.128-2.079,3.189-50.133-4.419-95.147-21.7-134.15-53.78-24.179-19.885-42.753-44.293-56.846-72.173a11.158,11.158,0,0,1-.606-2.281c2.456-2.1,5.443-1.475,8.241-1.478q64.948-.065,129.9-.045c3.171,0,6.368.274,9.5-.494,13.986-.913,27.986-.342,41.981-.317C-417.364,453.864-415.652,453.987-414.844,455.773Z" transform="translate(632.768 -123.746)" fill="#286cbc"/>
      <path id="Path_91508" data-name="Path 91508" d="M-592.6,211.045c15.758-23.357,35.487-42.864,58.258-59.274a221.9,221.9,0,0,1,90.809-38.908c18.891-3.455,37.908-4.108,57.029-3.168,1.137,1.711-.044,3.042-.8,4.376-14.33,25.4-29.254,50.456-43.763,75.75-9.195,16.028-18.419,32.043-27.482,48.147q-28.38,49-56.716,98.018c-.855,1.475-1.347,3.319-3.377,3.756-2.609-.531-3.239-2.958-4.311-4.791-14.9-25.492-29.428-51.2-44.307-76.712-7.882-13.512-15.511-27.17-23.451-40.65C-591.865,215.618-593.8,213.751-592.6,211.045Z" transform="translate(632.116 -109.305)" fill="#4399ff"/>
      <path id="Path_91509" data-name="Path 91509" d="M-454.133,237.925q12.072-21.009,24.147-42.016c11.219-19.442,22.515-38.838,33.694-58.3,5.307-9.241,10.416-18.6,15.615-27.9,22.363,1.213,43.928,6.181,64.929,13.807,57.007,20.7,99.482,57.887,127.051,111.982a8.208,8.208,0,0,1,.424,1.351q-40.66.132-81.318.256c-20.415.041-40.832-.014-61.247.049-1.629.006-3.539-.825-4.879.933-1.79,1.369-3.912,1.216-5.964,1.219q-53.037.057-106.073,0C-449.954,239.3-452.259,239.542-454.133,237.925Z" transform="translate(626.294 -109.322)" fill="#286cbc"/>
      <path id="Path_91510" data-name="Path 91510" d="M-594.309,215.5c6.054,12.287,13.413,23.839,20.19,35.717,16.647,29.175,33.514,58.223,50.316,87.309,1.028,1.779,2.253,3.444,3.387,5.162,2.233,1.017,3.011,3.253,4.106,5.14q26.776,46.132,53.33,92.394c.76,1.316,2.038,2.593.992,4.354-1.783,1.052-3.742.554-5.614.556q-70.992.073-141.986.08c-9.171-17.245-14.653-35.767-18.97-54.695-5-21.9-6.107-44.134-4.72-66.424a212.932,212.932,0,0,1,28.061-93.138C-601.967,226.242-599.443,219.986-594.309,215.5Z" transform="translate(633.83 -113.758)" fill="#3581dd"/>
      <path id="Path_91511" data-name="Path 91511" d="M-457.025,446.75q-28.123-48.855-56.237-97.717c-.783-1.36-1.463-2.778-2.19-4.17q20.927-36.031,41.85-72.064,8.48-14.614,16.9-29.262c14.481.07,28.962.187,43.443.2q37.487.032,74.972-.038,25.85,44.781,51.692,89.565c2.372,4.114,4.612,8.3,6.913,12.459-7.69,11.5-14.085,23.766-21.069,35.682-12.06,20.582-23.869,41.312-35.69,62.034a6.061,6.061,0,0,1-6.055,3.449c-22.814-.076-45.63.027-68.445.075Z" transform="translate(628.668 -115.157)" fill="#fefefe"/>
    </g>
    <text id="The_Software_Development_Life_Cycle" data-name="The Software
Development
Life Cycle" transform="translate(-9838.262 17787.775)" fill="#333" font-size="21" font-family="Poppins-Bold, Poppins" font-weight="700"><tspan x="-70.35" y="0">The Software</tspan><tspan x="-72.986" y="33">Development</tspan><tspan x="-51.135" y="66">Life Cycle</tspan></text>
    <g id="Group_173701" data-name="Group 173701" transform="translate(-9817.994 17627.113)">
      <text id="Stage_1" data-name="Stage 1" transform="translate(29.732 17.662)" fill="#fff" font-size="17" font-family="Poppins-Medium, Poppins" font-weight="500"><tspan x="-30.252" y="0">Stage 1</tspan></text>
      <text id="Planning" transform="translate(43.732 49.662)" fill="#fff" font-size="19" font-family="Poppins-Bold, Poppins" font-weight="700"><tspan x="-43.643" y="0">Planning</tspan></text>
    </g>
    <g id="Group_173702" data-name="Group 173702" transform="translate(-9718.356 17736.332)">
      <text id="Stage_2" data-name="Stage 2" transform="translate(32.094 18.443)" fill="#fff" font-size="17" font-family="Poppins-Medium, Poppins" font-weight="500"><tspan x="-32.181" y="0">Stage 2</tspan></text>
      <text id="Analysis" transform="translate(42.094 49.443)" fill="#fff" font-size="19" font-family="Poppins-Bold, Poppins" font-weight="700"><tspan x="-42.066" y="0">Analysis</tspan></text>
    </g>
    <g id="Group_173703" data-name="Group 173703" transform="translate(-9772.008 17925.07)">
      <text id="Stage_3" data-name="Stage 3" transform="translate(31.746 17.705)" fill="#fff" font-size="17" font-family="Poppins-Medium, Poppins" font-weight="500"><tspan x="-32.326" y="0">Stage 3</tspan></text>
      <text id="Design" transform="translate(31.746 48.705)" fill="#fff" font-size="18" font-family="Poppins-Bold, Poppins" font-weight="700"><tspan x="-31.941" y="0">Design</tspan></text>
    </g>
    <g id="Group_173704" data-name="Group 173704" transform="translate(-9991.404 17925.07)">
      <text id="Stage_4" data-name="Stage 4" transform="translate(33.143 17.705)" fill="#fff" font-size="17" font-family="Poppins-Medium, Poppins" font-weight="500"><tspan x="-32.776" y="0">Stage 4</tspan></text>
      <text id="Implementation" transform="translate(80.143 49.705)" fill="#fff" font-size="19" font-family="Poppins-Bold, Poppins" font-weight="700"><tspan x="-79.705" y="0">Implementation</tspan></text>
    </g>
    <g id="Group_173705" data-name="Group 173705" transform="translate(-10055.595 17792.857)">
      <text id="Stage_5" data-name="Stage 5" transform="translate(33.332 17.916)" fill="#fff" font-size="17" font-family="Poppins-Medium, Poppins" font-weight="500"><tspan x="-32.708" y="0">Stage 5</tspan></text>
      <text id="Testing_Integration" data-name="Testing &amp;
Integration" transform="translate(0.332 49.916)" fill="#fff" font-size="19" font-family="Poppins-Bold, Poppins" font-weight="700"><tspan x="0" y="0">Testing &amp;</tspan><tspan x="0" y="27">Integration</tspan></text>
    </g>
    <g id="Group_173706" data-name="Group 173706" transform="translate(-10008.649 17655.855)">
      <text id="Stage_6" data-name="Stage 6" transform="translate(33.387 17.92)" fill="#fff" font-size="17" font-family="Poppins-Medium, Poppins" font-weight="500"><tspan x="-32.734" y="0">Stage 6</tspan></text>
      <text id="Maintenance" transform="translate(58.387 43.92)" fill="#fff" font-size="17" font-family="Poppins-Bold, Poppins" font-weight="700"><tspan x="-58.106" y="0">Maintenance</tspan></text>
    </g>
  </g>
</svg>
