<svg xmlns="http://www.w3.org/2000/svg" width="785" height="364.371" viewBox="0 0 785 364.371">
  <g id="img_6" transform="translate(-408 -5237.629)">
    <g id="Group_171681" data-name="Group 171681" transform="translate(9413 -10726.371)">
      <g id="Group_171679" data-name="Group 171679" transform="translate(-9005 15964)">
        <path id="Path_88605" data-name="Path 88605" d="M-608.388,139.265c-1.728,3.9-1.693,8.174-2.487,12.267-7.686,39.614-26.691,72.843-56.162,100.249a4.892,4.892,0,0,1-4.754,1.224q-27.067-5.283-54.138-10.545c-1.8-.348-2.688-.805-2.253-3.133,3.656-19.57,7.14-39.172,10.635-58.772a7.486,7.486,0,0,1,1.919-3.343c15.823-19.93,22.7-42.639,20.806-67.95a91.4,91.4,0,0,0-9.986-34.929c-.525-1.03-1.02-2.074-1.745-3.554,10.071,1.841,19.678,3.592,29.282,5.355,3.959.726,7.923,1.431,11.867,2.237,2.157.441,3.191.107,3.675-2.469,4.363-23.2,8.908-46.362,13.409-69.534.117-.6-.067-1.345.849-1.846,1.609,1.039,2.548,2.79,3.67,4.306A180.163,180.163,0,0,1-609.039,95.4c.065.531.01,1.1.65,1.347Z" transform="translate(1393.388 64.835)" fill="#1390c8"/>
        <path id="Path_88606" data-name="Path 88606" d="M-1545.159,393.51a183.41,183.41,0,0,1-70.083-26.3c-.489-.31-1.285-.442-1.272-1.614,8.33-1.61,16.716-3.23,25.1-4.852,11-2.128,21.983-4.317,33-6.335,2.005-.368,2.356-.9,1.974-2.931-3.319-17.633-6.489-35.294-9.7-52.948-.133-.729-.2-1.472-.362-2.721,3.038,1.513,5.646,2.963,8.371,4.145,34.865,15.129,67.89,11.82,98.791-10.333,3.4-2.439,6.829-2.98,10.565-3.258,20.51-1.528,41.026-2.973,61.535-4.518,1.916-.145,2.431.529,2.575,2.307q2.013,24.893,4.192,49.774a3.037,3.037,0,0,1-.974,2.876c-13.969,12.639-27.786,25.418-44.422,34.7a186.368,186.368,0,0,1-74.169,23.275,25.244,25.244,0,0,0-5.59.659c-1.091-.533-3.271,0-3.271,0H-1525.9a5,5,0,0,0-3.925,0S-1541.14,394.149-1545.159,393.51Z" transform="translate(1700.565 -31.066)" fill="#473911"/>
        <path id="Path_88607" data-name="Path 88607" d="M-912.663,395.433c-3.514-1.59-7.36-1.3-11.044-1.866a180.713,180.713,0,0,1-92.722-42.72c-5.025-4.344-9.8-8.98-14.785-13.365a4.834,4.834,0,0,1-1.842-4.506c1.259-13.985,2.439-27.977,3.638-41.968.2-2.386.408-4.773.562-7.163.107-1.657.869-2.139,2.539-2.012q33.531,2.559,67.075,4.961c1.729.123,2.786,1.1,3.97,2,18.051,13.741,38.382,20.665,61.095,20.262a94.98,94.98,0,0,0,43.771-11.51c.94-.5,1.895-.982,3.428-1.775-1.1,6.158-2.071,11.788-3.1,17.407-2.292,12.518-4.577,25.037-6.947,37.539-.432,2.278-.256,3.309,2.519,3.821,19.244,3.555,38.441,7.365,57.686,11.1.044,1.314-1.147,1.467-1.9,1.936a181.219,181.219,0,0,1-75.369,26.672c-2.169.262-4.522-.122-6.525,1.182h-3.925a3.544,3.544,0,0,0-3.271,0h-17.008a5,5,0,0,0-3.925,0Z" transform="translate(1498.796 -31.062)" fill="#473911"/>
        <path id="Path_88608" data-name="Path 88608" d="M-1518.931-100.771c33.686,2.312,64.416,13.055,92.9,32.62-6.086,1.212-11.522,2.316-16.968,3.373-14.63,2.838-29.254,5.717-43.91,8.418-2.322.428-2.8,1.177-2.377,3.415,3.2,16.889,6.288,33.8,9.4,50.7a20.474,20.474,0,0,1,.132,2.278c-5.255-2.966-10.225-5.9-15.632-7.9-35.427-13.13-68.044-8.023-97.566,15.523-4.7,3.75-10.107,3.6-15.291,4.674-10.329,2.149-20.765,3.781-31.145,5.684-4.3.789-4.288.854-5.086-3.237-4.1-21.038-8.178-42.083-12.358-63.105-.448-2.252.271-3.625,1.861-5.067a181.23,181.23,0,0,1,83.04-43.339,171.619,171.619,0,0,1,27.1-3.954c.618-.039,6.672-.474,8.516-.315h13.957C-1521.216-100.911-1520.047-101.222-1518.931-100.771Z" transform="translate(1714.555 101.341)" fill="#473911"/>
        <path id="Path_88609" data-name="Path 88609" d="M-865.884-101.5c3.889,1.435,8.036,1.215,12.053,1.792,37.758,5.427,70.553,21.236,98.79,46.762,1.417,1.28,1.342,2.482,1.037,4.042-3.831,19.528-7.6,39.07-11.475,58.589-.582,2.929.071,7.124-2.341,8.4-2.064,1.089-5.622-.618-8.511-1.137-12.2-2.189-24.4-4.417-36.606-6.571a6.937,6.937,0,0,1-3.38-1.807c-18.94-16.164-40.919-24.077-65.762-23.557A94.592,94.592,0,0,0-930.008-.776c-1.653-.175-.778-1.245-.718-2.027,2.742-15.194,5.439-30.4,8.244-45.578,1.372-7.425,1.483-7.512-6.043-8.986-17.608-3.449-35.237-6.787-52.855-10.181-1.015-.2-2.011-.494-3.454-.854a166.669,166.669,0,0,1,27.677-16.057,181.845,181.845,0,0,1,62.469-16.388c.536-.041,1.1,0,1.329-.653h3.925a8.513,8.513,0,0,0,5.233,0h9.158a8.513,8.513,0,0,0,5.233,0Z" transform="translate(1482.109 101.501)" fill="#473911"/>
        <path id="Path_88610" data-name="Path 88610" d="M-1745,181.148v-15.7a.742.742,0,0,1,1.035.307,39,39,0,0,1,.006,15.089A.749.749,0,0,1-1745,181.148Z" transform="translate(1745 9.214)" fill="#9ecff1"/>
        <path id="Path_88612" data-name="Path 88612" d="M-811.767-101.5a4.875,4.875,0,0,1-5.233,0Z" transform="translate(1424.067 101.501)" fill="#473911"/>
        <path id="Path_88613" data-name="Path 88613" d="M-833.767-101.5a4.951,4.951,0,0,1-5.233,0Z" transform="translate(1431.675 101.501)" fill="#473911"/>
        <path id="Path_88617" data-name="Path 88617" d="M-843,455.1a2.946,2.946,0,0,1,3.925,0Z" transform="translate(1433.058 -90.732)" fill="#473911"/>
        <path id="Path_88618" data-name="Path 88618" d="M-1745,189.5l.588.035a2.125,2.125,0,0,1-.016,3.26c-.191,0-.381-.008-.572-.024Z" transform="translate(1745 0.864)" fill="#d3e9f9"/>
        <path id="Path_88619" data-name="Path 88619" d="M-1744.468,163.7a1.523,1.523,0,0,0-.532.047v-3.271a1.489,1.489,0,0,1,.543-.038A2.056,2.056,0,0,1-1744.468,163.7Z" transform="translate(1745 10.918)" fill="#cae5f7"/>
        <path id="Path_88622" data-name="Path 88622" d="M-811,455.111a2.189,2.189,0,0,1,3.271,0Z" transform="translate(1421.992 -90.74)" fill="#473911"/>
        <path id="Path_88623" data-name="Path 88623" d="M-1263.25,213.084c-1.44-17-2.817-33.253-4.2-49.507-.248-2.928.491-6.63-1.023-8.576-1.711-2.2-5.472-.275-8.288-.092-16.183,1.055-32.349,2.373-48.521,3.589-2.135.161-4.276.247-7.361.42,3.221-2.9,5.751-5.2,8.309-7.463q47.928-42.476,95.863-84.946,49.767-44.1,99.455-88.29c2.811-2.512,5.191-2.855,8.651-2.152q25.9,5.266,51.9,10.031c3.042.563,3.438,1.726,2.9,4.556-3.309,17.526-6.446,35.086-9.565,52.647a9.7,9.7,0,0,1-3.253,6.058q-84.8,75.015-169.489,150.161C-1252.823,203.91-1257.8,208.277-1263.25,213.084Z" transform="translate(1602.392 74.786)" fill="#1390c8"/>
        <path id="Path_88624" data-name="Path 88624" d="M-1744.186,109.539q.006-1.631.01-3.262c2.324-41.844,19.8-78.955,39.768-102.454,1.634,8.418,3.217,16.555,4.792,24.693,3.039,15.7,6.151,31.389,9.034,47.118.481,2.63,1.6,2.869,3.75,2.466q18.285-3.431,36.586-6.771c1.359-.25,2.732-.428,4.687-.731a102.023,102.023,0,0,0-7.373,16.875q-14.85,48.859,16.335,89.317c2.194,2.84,2.2,6.095,2.786,9.217,3.294,17.645,6.318,35.341,9.664,52.975.492,2.6-.559,2.912-2.428,3.274-16.985,3.285-33.988,6.489-50.932,9.973-3.958.814-6.647.275-9.756-2.7q-41.481-39.7-53.505-95.728a168.564,168.564,0,0,1-3.379-25.222q.009-1.63.017-3.26Q-1744.158,117.431-1744.186,109.539Z" transform="translate(1744.719 65.076)" fill="#1390c8"/>
        <path id="Path_88625" data-name="Path 88625" d="M-1305.432-25.059c1.062-.268,1.555.569,2.188,1.131q30.892,27.436,61.785,54.871c2.361,2.1,4.719,4.2,7.151,6.208,1.331,1.1,1.744,1.85.16,3.244q-31.138,27.405-62.14,54.964c-1.906,1.7-2.723.155-3.726-.725q-14.968-13.148-29.859-26.383-11.255-9.955-22.513-19.906a5.776,5.776,0,0,1-2.263-3.419q-5.035-28.089-10.265-56.143c-.444-2.374,1.01-2.494,2.5-2.782q20.971-4.074,41.949-8.116Q-1312.948-23.572-1305.432-25.059Z" transform="translate(1613.582 75.083)" fill="#1390c8"/>
        <path id="Path_88626" data-name="Path 88626" d="M-1014.649,235.28c-7.988-.561-15.979-1.085-23.964-1.69q-18.708-1.418-37.408-2.949c-1.783-.148-2.159.549-2.288,2.161-1.493,18.646-3.056,37.287-4.62,56.161-1.893-.487-2.935-1.931-4.154-3-11.223-9.822-22.333-19.773-33.624-29.515-2.3-1.981-2.157-2.926.028-4.851q30.263-26.664,60.364-53.512c1.065-.945,1.946-2.313,3.775-.689q21,18.638,42.131,37.124Z" transform="translate(1529.675 -1.607)" fill="#1390c8"/>
        <path id="Path_88627" data-name="Path 88627" d="M-902.434,49.374c.229.68-.116,1.563.718,2.028a5.2,5.2,0,0,1-.973.445A1.981,1.981,0,0,1-902.434,49.374Z" transform="translate(1453.817 49.323)" fill="#9195de"/>
        <path id="Path_88628" data-name="Path 88628" d="M-624.684,185.248c-2.021,0-3.944,0-5.867,0-.837,0-1.508-.171-1.517-1.219-.009-1.065.7-1.232,1.517-1.24,6.2-.057,12.391-.084,18.586-.172,1.418-.02,2.034,1.344,1.416,1.747-2.159,1.408-.472,2.4.035,3.55a6.55,6.55,0,0,1-3.318,8.757,10.479,10.479,0,0,1-6.378.763C-626.044,196.339-627.667,192.071-624.684,185.248Z" transform="translate(1360.111 3.243)" fill="#fbfbfd"/>
        <path id="Path_88629" data-name="Path 88629" d="M-609.583,218.576c.029,4.465-3.047,7.486-7.609,7.615-1.953.055-2.81-.491-2.33-2.623.644-2.861.982-5.791,1.652-8.644.429-1.824-.419-1.821-1.7-1.568-3.386.671-5.092,3.946-4.1,7.921.2.8.947,1.719-.323,2.179-1.017.369-1.215-.593-1.522-1.27a8.862,8.862,0,0,1,1.764-9.115c2.608-2.618,5.7-2.926,9.041-1.7A7.5,7.5,0,0,1-609.583,218.576Z" transform="translate(1358.047 -6.461)" fill="#fbfbfd"/>
        <path id="Path_88630" data-name="Path 88630" d="M-626.153,160.147c.049-4.532,3.718-7.75,8.728-7.654a7.67,7.67,0,0,1,7.718,7.974c-.09,4.343-4.094,7.822-8.876,7.713C-623.1,168.076-626.2,164.78-626.153,160.147Z" transform="translate(1358.066 13.662)" fill="#fbfbfd"/>
        <path id="Path_88631" data-name="Path 88631" d="M-655.658,303.985a13.887,13.887,0,0,1-1.772-.472c-3.6-1.3-3.72-1.762-1.318-4.734,1.571-1.944,3.1-3.925,4.737-5.81,1.1-1.261.655-1.779-.705-2.261-3.081-1.092-6.183.837-7.346,4.613-.249.807.224,2.4-1.331,2.037s-.755-1.821-.553-2.732a8.806,8.806,0,0,1,7.282-6.585c3.3-.33,7.132,2.08,8.569,5.386a7.535,7.535,0,0,1-2.038,8.867A7.019,7.019,0,0,1-655.658,303.985Z" transform="translate(1371.269 -33.205)" fill="#fcfcfd"/>
        <path id="Path_88632" data-name="Path 88632" d="M-633.236,263.888c3.853,2.314,6.616.788,6.913-3.947.054-.852-.739-2.3.733-2.421,1.666-.133,1.233,1.509,1.266,2.447.212,6.109-4.414,9.093-9.842,6.4-2.238-1.11-4.46-2.253-6.707-3.343-.884-.43-1.76-1.514-.87-1.858,2.354-.913,1.342-2.808,1.788-4.273.742-2.44,2.1-4.347,4.835-4.7a4.711,4.711,0,0,1,4.973,2.4c1.273,2.216.841,4.42-.588,6.415C-631.482,262.048-632.418,262.955-633.236,263.888Z" transform="translate(1363.586 -20.801)" fill="#fcfcfd"/>
        <path id="Path_88633" data-name="Path 88633" d="M-650.1,280.178c-1.2-.2-1.069-1.014-.937-1.764a3.452,3.452,0,0,1,5.247-2.388c1.9,1.039,3.631,2.371,5.515,3.437,1.477.835,2.8,3.115,4.86.663.378-.45,1.611.34,1.344.808-1.2,2.118.226,2.853,1.628,3.716.615.378.911.854.419,1.593-.529.793-1.119.958-1.879.379-1.364-1.04-2.674-2-3.8.318-.289.594-.94.394-1.41.048a.841.841,0,0,1-.215-1.353c1.533-1.87.056-2.569-1.273-3.389-1.476-.91-2.886-1.925-4.359-2.84-1.528-.949-3.143-2.516-4.408.352C-649.467,279.984-649.891,280.066-650.1,280.178Z" transform="translate(1366.699 -28.886)" fill="#fbfbfd"/>
        <path id="Path_88634" data-name="Path 88634" d="M-628.656,236.646c4.382,1.534,8.679,3.008,12.95,4.554,1.152.417,1.013,1.866.378,2.026-2.563.648-1.125,2.214-1.085,3.5.025.816.123,1.9-1.145,1.84-1.049-.049-1.388-.742-1.2-1.823.548-3.2-1.039-4.784-4.047-5.5-2.1-.5-4.1-1.384-6.152-2.067-.711-.236-1.132-.615-.96-1.408A1.24,1.24,0,0,1-628.656,236.646Z" transform="translate(1359.381 -15.442)" fill="#f8f8fc"/>
        <path id="Path_88635" data-name="Path 88635" d="M-1430.127,393.883a7.777,7.777,0,0,1-7.853-7.244,8,8,0,0,1,5.814-9.026c3.82-.934,7.316,1.081,8.842,4.913.81,2.036.356,3.063-1.87,3.314-2.7.3-5.392.712-8.089,1.058-1.965.252-2.02,1.146-.98,2.581,2.016,2.782,5.1,3.116,8.662.848.678-.432,1.27-1.491,2.063-.2.587.958-.252,1.351-.828,1.8A9.061,9.061,0,0,1-1430.127,393.883Z" transform="translate(1638.846 -64.115)" fill="#fbfcfe"/>
        <path id="Path_88636" data-name="Path 88636" d="M-1404.116,384.906a7.552,7.552,0,0,0,1.628-.018c1.846-.416,3.975-.972,3.761-3.286-.222-2.4-2.433-1.951-4.154-1.951-1.613,0-3.176.654-4.843.1-2.749-.911-3.822-3.5-2.333-5.938,1.371-2.248,5.542-3.906,8.075-3.194.724.2,1.592.357,1.456,1.4-.162,1.232-1.009.8-1.735.627a6.284,6.284,0,0,0-4.13.592c-1.138.523-2.124,1.351-1.859,2.755.284,1.506,1.585,1.649,2.822,1.574,1.19-.071,2.367-.371,3.557-.432,2.314-.119,4.482.316,5.269,2.855s-.342,4.473-2.525,5.785a8.872,8.872,0,0,1-6.243,1.331c-.713-.129-2,.071-1.919-1.249.092-1.592,1.273-1.047,2.193-.947.324.035.652.033.979.049Z" transform="translate(1629.398 -61.717)" fill="#fafcfe"/>
        <path id="Path_88637" data-name="Path 88637" d="M-1390.71,358.237c.684,0,.934.5,1.155.985.722,1.578,1.416,3.052,3.505,1.442.542-.418.924.177,1.2.693.466.868-.155,1.267-.724,1.488-1.731.672-1.236,1.682-.588,2.831,1.016,1.8,1.979,3.63,2.953,5.454.862,1.615,1.663,3.332,3.867,1.5a.771.771,0,0,1,1.139.152c.476.483.337.925.026,1.446a3.527,3.527,0,0,1-6.016.19c-1.21-1.8-1.976-3.89-3.175-5.7-.948-1.429-.818-4.42-4.047-3.158-.573.224-1.271-.99-.8-1.328,1.851-1.321,1.2-2.625.374-4.117C-1392.481,358.959-1391.44,358.648-1390.71,358.237Z" transform="translate(1623.048 -57.492)" fill="#f9fcfd"/>
        <path id="Path_88638" data-name="Path 88638" d="M-1454,387.424c.183-1.721.456-3.439.521-5.165.055-1.476.843-3.315-1.666-3.833-.857-.177-.98-1.649-.309-1.69,2.313-.139,2.336-1.708,2.577-3.277a1.114,1.114,0,0,1,1.368-1.018c.861.067,1.052.518.945,1.306-.234,1.7-.353,3.347,2.174,3.285.656-.016.866.524.775,1.149a.936.936,0,0,1-1.179.811c-1.9-.264-2.075.926-2.146,2.346-.092,1.837-.393,3.667-.4,5.5-.01,1.77-.91,4.323,2.577,3.795.656-.1.655.479.7.848.067.6-.307.956-.862,1.2a3.594,3.594,0,0,1-4.9-2.349,13.934,13.934,0,0,1-.034-2.906Z" transform="translate(1645.013 -62.402)" fill="#fbfcfe"/>
        <path id="Path_88639" data-name="Path 88639" d="M-943.071,343.86a8.565,8.565,0,0,1-.869,2.017c-2.036,2.829-4.153,5.6-6.259,8.376-.439.579-.805,1.312-1.807.651-1.09-.718-.727-1.353-.137-2.129,1.781-2.341,3.534-4.7,5.3-7.054,1.2-1.592,1.624-3.247-.309-4.493-1.715-1.106-3.669-1.726-5.268.258-1.777,2.2-3.442,4.5-5.142,6.762-.61.812-1.136,1.677-2.315.7-1.134-.942-.1-1.558.329-2.154,1.664-2.291,3.424-4.511,5.11-6.786,1.17-1.578,1.595-3.274-.313-4.531-1.727-1.138-3.671-1.643-5.259.334-1.773,2.208-3.449,4.493-5.192,6.725-.484.621-.8,1.722-1.977.884-.974-.7-.722-1.367-.1-2.176q3.788-4.918,7.494-9.9c.76-1.024,2.205-1.2,2.235-.224.078,2.54,1.908,1.85,3.169,2.273,1.053.353,2.44.8,2.617,1.774.613,3.38,3.073,3.767,5.763,4.393C-944.287,339.956-943.081,341.418-943.071,343.86Z" transform="translate(1476.228 -47.889)" fill="#fcfcfd"/>
        <path id="Path_88640" data-name="Path 88640" d="M-832.394,388.14c.068,4.689-3.279,8.356-7.694,8.43s-7.826-3.481-7.913-8.214,3.168-8.3,7.688-8.4C-835.871,379.861-832.462,383.382-832.394,388.14Z" transform="translate(1434.788 -65.003)" fill="#fcfcfd"/>
        <path id="Path_88641" data-name="Path 88641" d="M-922.556,356.323a7.661,7.661,0,0,1,7.878,7.452c.082,4.536-3.937,8.921-8.21,8.957a8.073,8.073,0,0,1-7.921-7.577C-930.942,360.625-926.928,356.33-922.556,356.323Z" transform="translate(1463.427 -56.83)" fill="#fcfcfd"/>
        <path id="Path_88642" data-name="Path 88642" d="M-888.825,374.213c-1.243,3.181-2.741,7.011-4.238,10.841-.324.83-.919.777-1.586.485-.991-.434-.754-1.217-.48-1.93,1.013-2.633,2.059-5.255,3.111-7.873.934-2.324.451-4.164-2.058-4.889-2.3-.665-4.586-.694-5.666,2.155-.924,2.435-1.836,4.877-2.822,7.287-.293.716-.4,1.844-1.719,1.408-1.489-.494-.89-1.51-.555-2.38,1.442-3.75,2.946-7.476,4.386-11.227.442-1.15,1.632-1.83,2.031-.759.83,2.234,2.24,1.369,3.646,1.351C-891.447,368.639-888.835,370.785-888.825,374.213Z" transform="translate(1454.585 -60.451)" fill="#fbfbfd"/>
        <path id="Path_88643" data-name="Path 88643" d="M-858.711,374.807c-.213,1.189-.2,2.21,1.417,2.285.988.046,1.3.665,1.066,1.579-.247.985-.961.658-1.554.5-1.322-.363-1.694.283-1.86,1.467-.271,1.935-.822,3.837-1,5.777-.173,1.826-1.482,4.374,2.14,4.517.239.01.587.611.648.977.078.466-.328.684-.779.856a3.4,3.4,0,0,1-4.784-3.194c.141-2.7.761-5.372,1.1-8.065.156-1.257,1.119-2.865-1.2-3.319-.631-.124-.624-.794-.529-1.357.13-.765.678-.735,1.223-.6,1.578.393,1.36-.829,1.648-1.708.3-.906.049-2.433,1.813-2.062C-857.664,372.813-858.879,374.008-858.711,374.807Z" transform="translate(1440.355 -62.389)" fill="#fbfbfd"/>
        <path id="Path_88644" data-name="Path 88644" d="M-818.59,379.293c-.137-1.227,1.433-1.791,1.738-1.286,1.525,2.534,2.1.184,3.048-.375.817-.481,1.692-1.932,2.623-.417.676,1.1-.309,1.578-1.316,2.041-2.38,1.094-3.234,2.9-2.426,5.561.657,2.164.94,4.44,1.436,6.655.206.92.375,1.726-.877,1.982-1.083.222-1.252-.5-1.422-1.282C-816.7,387.944-817.626,383.718-818.59,379.293Z" transform="translate(1424.62 -63.822)" fill="#f9f9fc"/>
        <path id="Path_88645" data-name="Path 88645" d="M-877.077,389.494c1.1-4.077,2.192-8.058,3.233-12.052.253-.97.534-1.62,1.748-1.242,1.076.335.89.992.678,1.781-1.068,3.988-2.1,7.985-3.17,11.972-.231.858-.541,1.736-1.764,1.352C-877.411,390.973-877.047,390.126-877.077,389.494Z" transform="translate(1444.856 -63.666)" fill="#f9f9fd"/>
        <path id="Path_88646" data-name="Path 88646" d="M-867.24,368.938a1.549,1.549,0,0,1-1.566,1.644,1.484,1.484,0,0,1-1.564-1.644,1.4,1.4,0,0,1,1.38-1.48C-867.954,367.379-867.424,367.951-867.24,368.938Z" transform="translate(1442.524 -60.678)" fill="#f5f5fb"/>
        <path id="Path_88647" data-name="Path 88647" d="M-1513.7-43.849c.167-2.22-.625-4.047-.973-5.933-.154-.836-.274-1.52.8-1.715.911-.164,1.392.186,1.588,1.126,1.285,6.154,2.583,12.3,3.935,18.444.269,1.221-.784,2.029-1.228,1.653-2.018-1.709-2.873.34-4.134,1.011a7.145,7.145,0,0,1-3.124.754c-3.3.158-5.377-1.6-6.53-4.415-1.326-3.243-1.672-6.663.7-9.572a6.124,6.124,0,0,1,7.647-1.769C-1514.659-44.113-1514.273-44.027-1513.7-43.849Z" transform="translate(1668.711 84.221)" fill="#fbfdfe"/>
        <path id="Path_88648" data-name="Path 88648" d="M-1495.146-37.425c-.025-4.372,2.509-7.6,6.379-8.132,4.2-.573,7.31,1.629,8.5,5.819.572,2.021.046,2.732-2.083,2.755-2.7.029-5.4.491-8.106.563-2.435.065-2.147,1.171-1.241,2.651,1.588,2.591,4.787,3.193,8.057,1.615.754-.364,1.6-1.774,2.435-.438.892,1.433-.77,1.8-1.538,2.262C-1488.5-26.911-1495.107-30.727-1495.146-37.425Z" transform="translate(1658.592 82.185)" fill="#fbfdfe"/>
        <path id="Path_88649" data-name="Path 88649" d="M-1544.4-16.987c-4.47.025-8.233-4.07-8.137-8.856a7.947,7.947,0,0,1,7.851-7.633c4.312-.021,8.2,4.279,8.11,8.977A7.634,7.634,0,0,1-1544.4-16.987Z" transform="translate(1678.442 77.976)" fill="#fbfcfe"/>
        <path id="Path_88650" data-name="Path 88650" d="M-1565.9-5.162a8.788,8.788,0,0,1-9.112-8.013,7.706,7.706,0,0,1,6.65-8.317c1-.1,2.51-.534,2.777.876.321,1.694-1.179,1.248-2.213,1.378-2.67.336-4.413,1.746-4.7,4.571-.279,2.726,1.648,6.063,4.125,6.779,2.646.763,4.956.222,6.471-2.367.481-.822.544-2.645,2.053-1.738,1.39.836.319,2.215-.272,3.146A7.4,7.4,0,0,1-1565.9-5.162Z" transform="translate(1686.219 73.88)" fill="#f9fcfd"/>
        <path id="Path_88651" data-name="Path 88651" d="M-841.348-47.779c-.337-2.032-.673-3.928-.956-5.831-.111-.746-.234-1.573.84-1.8,1.191-.253,1.487.459,1.656,1.44,1.048,6.1,2.127,12.2,3.188,18.3.115.664.141,1.352-.69,1.582-.617.17-1.388.366-1.647-.466-.33-1.062-.64-.792-1.215-.188-2.4,2.526-5.307,3.1-8.288,1.407-3.44-1.947-4.276-5.416-3.962-9.033C-851.944-47.883-847.785-49.916-841.348-47.779Z" transform="translate(1436.338 85.579)" fill="#fcfcfd"/>
        <path id="Path_88652" data-name="Path 88652" d="M-793.3-31.426c-.517,2.507-.893,4.4-1.3,6.289-.183.843-.64,1.368-1.613,1.116-.835-.215-.926-.864-.792-1.525,1.27-6.267,2.586-12.525,3.839-18.795.265-1.327,1.651-1.325,1.8-.8.754,2.668,2.314,1.032,3.516.8a6.53,6.53,0,0,1,7.891,5.772,14.388,14.388,0,0,1,.033,2.278c-.186,3.368-1.467,6.2-4.613,7.685C-787.884-27.029-790.613-28.507-793.3-31.426Z" transform="translate(1417.17 82.123)" fill="#fcfcfd"/>
        <path id="Path_88653" data-name="Path 88653" d="M-813.59-38.636c-1.71,0-2.91-.067-4.1.022-.9.068-2.138-.521-2.627.617s.332,2.14,1.048,2.914c2.165,2.339,4.744,2.3,7.469,1.065.678-.307,1.416-1.423,2.11-.08.633,1.226-.582,1.464-1.227,1.853a8.892,8.892,0,0,1-9.788-.909c-2.585-2.288-3.336-6.864-1.684-10.265a7.519,7.519,0,0,1,8.108-4.168c3.581.463,6.922,4.159,6.125,7.587C-808.976-36.471-812.241-39.636-813.59-38.636Z" transform="translate(1426.233 82.884)" fill="#fbfbfd"/>
        <path id="Path_88654" data-name="Path 88654" d="M-756.152-23.617c.05-4.723,3.721-8.78,7.9-8.727a8.011,8.011,0,0,1,7.892,7.913c-.106,4.607-3.866,8.679-8.055,8.723A7.74,7.74,0,0,1-756.152-23.617Z" transform="translate(1403.024 77.584)" fill="#fcfcfd"/>
        <path id="Path_88655" data-name="Path 88655" d="M-728.913-9.028c3.124-2.534,5.807-4.721,8.5-6.892a7.709,7.709,0,0,1,2.112-1.49,2.207,2.207,0,0,1,1.7.667c.576.538-.086.956-.472,1.263q-7.788,6.2-15.606,12.367a3.92,3.92,0,0,1-3.133.574c-1.171-.177-2.817-.5-2.656-1.8.19-1.544,1.584-.548,2.6-.512,2.227.077,4.02-.91,4.338-3.393.567-4.422.994-8.863,1.6-13.278.094-.678-.4-2.1.933-2,1.272.092,1.575,1.126,1.406,2.429C-728.074-17.321-728.427-13.535-728.913-9.028Z" transform="translate(1396.911 74.533)" fill="#fbfcfd"/>
        <path id="Path_88656" data-name="Path 88656" d="M-759.88-45.69c-2.055,6.472-4.028,12.688-6,18.9-.228.718-.58,1.04-1.44.751-1.228-.413-1-1.2-.729-2.063Q-766.18-34-764.3-39.907c.66-2.073,1.359-4.134,1.976-6.22.259-.875.721-.907,1.454-.658C-760.187-46.554-759.6-46.336-759.88-45.69Z" transform="translate(1407.214 82.625)" fill="#f9f9fd"/>
        <path id="Path_88657" data-name="Path 88657" d="M-1071.262,115.92a8.835,8.835,0,0,1-7.993-6.591,7.448,7.448,0,0,1,3.3-8.472,7.33,7.33,0,0,1,9.049.893c1.228,1.048,1.527,1.834.063,3-2.208,1.763-4.2,3.793-6.4,5.576-2.124,1.726-.923,2.415.8,2.952,3.037.947,5.646-.511,7.333-3.9.312-.626-.072-2.129,1.391-1.65,1.437.471.717,1.556.4,2.437A8.719,8.719,0,0,1-1071.262,115.92Z" transform="translate(1514.864 31.923)" fill="#fbfbfd"/>
        <path id="Path_88658" data-name="Path 88658" d="M-1158.852,192.911a8.8,8.8,0,0,1-8.04-6.107,7.587,7.587,0,0,1,3.049-8.884c3-1.924,6.217-1.624,9.035.736,1.331,1.115,1.786,1.94.08,3.237-2.246,1.708-4.212,3.78-6.421,5.541-1.7,1.355-.994,2.059.477,2.694,3.062,1.323,6.21-.245,7.843-3.9.317-.709.1-2.055,1.478-1.493,1.092.447.6,1.472.36,2.28A8.891,8.891,0,0,1-1158.852,192.911Z" transform="translate(1545.212 5.304)" fill="#fbfbfd"/>
        <path id="Path_88659" data-name="Path 88659" d="M-1129.478,166.93c-3.648-.014-7.108-2.918-8.147-6.837a7.531,7.531,0,0,1,3.6-8.358c2.877-1.719,6.266-1.22,9.027,1.157,1.21,1.041,1.251,1.753.014,2.783-2.253,1.877-4.356,3.934-6.622,5.793-1.633,1.34-1.057,2.076.495,2.71,2.974,1.213,5.89-.249,7.657-3.71.354-.693.131-2.394,1.719-1.612,1.324.653.34,1.781.053,2.57A8.829,8.829,0,0,1-1129.478,166.93Z" transform="translate(1535.032 14.276)" fill="#fbfbfd"/>
        <path id="Path_88660" data-name="Path 88660" d="M-1107.669,138.291c-2.866-3.89-6.012-3.5-8.085.822-.381.795-.072,2.758-1.8,1.911-1.217-.6-.378-1.952.017-2.916,2.284-5.571,7.469-6.56,11.4-2.184,1.675,1.862,3.286,3.782,4.979,5.628.922,1.006,1.1,2.424-.228,2.462-1.828.052-1.855,1.232-2.426,2.22-1.436,2.485-3.549,3.971-6.457,3.393a4.627,4.627,0,0,1-3.948-4.234c-.313-3.026,1.262-4.946,3.875-6.143C-1109.487,138.861-1108.576,138.612-1107.669,138.291Z" transform="translate(1528.227 20.337)" fill="#fbfbfd"/>
        <path id="Path_88661" data-name="Path 88661" d="M-1083.139,126.241c0,3.109-4.136,7.065-7.428,7.123-.691.012-1.334-.025-1.535-.837-.26-1.053.426-1.349,1.262-1.433a6.42,6.42,0,0,0,4.316-2.042c.963-1.075,1.834-2.271.75-3.762-1.015-1.4-2.285-.894-3.508-.344-1.385.622-2.713,1.389-4.134,1.908a3.8,3.8,0,0,1-4.7-1.138,4.15,4.15,0,0,1-.251-4.874,8.47,8.47,0,0,1,5.874-4.253c.679-.166,1.592-.389,1.846.71.282,1.217-.691,1.083-1.39,1.24a6.51,6.51,0,0,0-3.854,2.268c-.754.963-1.435,2.022-.5,3.227.85,1.09,1.95.72,2.969.287,1.593-.676,3.111-1.563,4.746-2.1A4.054,4.054,0,0,1-1083.139,126.241Z" transform="translate(1521.602 26.126)" fill="#fbfbfd"/>
        <path id="Path_88662" data-name="Path 88662" d="M-1139.733,175.726a5.8,5.8,0,0,1-1.143,1.03c-.789.408-1.164-.345-1.565-.793q-4.245-4.735-8.447-9.508c-1.3-1.465-2.562-2.959-3.891-4.4-.6-.651-.88-1.168-.074-1.874.574-.5,1.088-.753,1.659-.1q6.57,7.467,13.118,14.953A3.549,3.549,0,0,1-1139.733,175.726Z" transform="translate(1541.08 11.172)" fill="#fafafd"/>
        <path id="Path_88663" data-name="Path 88663" d="M-1180.441,194.509c1.569.259.89-1.511,1.491-2.138.618-.643.418-2.524,2.03-1.652,1.466.792.476,1.727-.17,2.615-1.515,2.086-1.267,3.948.622,5.779,1.637,1.588,3.06,3.4,4.562,5.124.566.651,1.3,1.293.239,2.167s-1.557.007-2.115-.625q-4.113-4.652-8.191-9.334c-.377-.435-1.11-.933-.312-1.6C-1181.845,194.475-1181.49,193.665-1180.441,194.509Z" transform="translate(1550.518 0.52)" fill="#fafafd"/>
        <path id="Path_88664" data-name="Path 88664" d="M-1681.785,184.62c2.077,4.8,1.5,7.981-1.68,10.068-3.195,2.1-8.81,1.522-11.515-1.248a6.325,6.325,0,0,1-1.427-7.2c.546-1.436,2.5-2.525.811-4.624-.657-.818.794-1.208,1.688-1.112,6.149.664,12.3,1.353,18.444,2.015.9.1,1.405.445,1.317,1.435-.1,1.081-.843,1.061-1.641,1.081C-1677.734,185.084-1679.606,184.128-1681.785,184.62Z" transform="translate(1728.382 3.979)" fill="#fcfdfe"/>
        <path id="Path_88665" data-name="Path 88665" d="M-1661.175,268.979c1.787-.971,3.488-1.877,5.17-2.818.722-.4,1.309-.7,1.893.269.566.937.136,1.386-.6,1.807-5.481,3.132-10.974,6.247-16.436,9.411-1.115.646-2.161-.237-1.862-.739,1.51-2.534-1.013-2.478-1.956-3.347-2.005-1.85-3.012-4.024-2.237-6.712,1.083-3.759,3.93-5.725,7.544-6.4C-1664.4,259.468-1661.811,262.114-1661.175,268.979Z" transform="translate(1721.645 -23.605)" fill="#fcfdfe"/>
        <path id="Path_88666" data-name="Path 88666" d="M-1690.47,223.031c3.457-.584,6.463-1.075,9.459-1.611.794-.142,1.529-.349,1.787.737.275,1.157-.315,1.5-1.357,1.669-4.185.69-8.361,1.435-12.534,2.2-1.771.323-2.157-1.4-1.492-1.8,2.184-1.337.308-1.953-.24-2.719-3.042-4.253-1.557-8.07,3.57-9.029,2.78-.52,5.568-.993,8.349-1.5.743-.135,1.528-.485,1.811.652.277,1.112-.208,1.557-1.284,1.737q-4.5.756-8.979,1.65a2.925,2.925,0,0,0-2.545,3.83C-1693.47,220.932-1692.465,222.687-1690.47,223.031Z" transform="translate(1728.198 -6.507)" fill="#fbfcfe"/>
        <path id="Path_88667" data-name="Path 88667" d="M-1683.335,254.445c-1.183.264-1.436-.353-1.615-.99-.3-1.083.633-1.277,1.268-1.553,4.477-1.942,8.973-3.841,13.463-5.751,1.3-.552,2.585-1.134,3.9-1.629.74-.277,1.239.13,1.495.834a.99.99,0,0,1-.56,1.344C-1671.45,249.335-1677.531,251.945-1683.335,254.445Z" transform="translate(1724.253 -18.135)" fill="#f9fcfd"/>
        <path id="Path_88668" data-name="Path 88668" d="M-1674.707,237.985c.324,1.632-.308,1.861-.932,2.071-4,1.346-8.011,2.665-12,4.039-.983.338-1.609.276-1.967-.841-.379-1.185.558-1.26,1.194-1.482,3.984-1.391,7.989-2.727,11.98-4.1C-1675.372,237.306-1674.75,237.605-1674.707,237.985Z" transform="translate(1725.874 -15.739)" fill="#f8fbfd"/>
        <path id="Path_88669" data-name="Path 88669" d="M-1659.705,236.024a1.515,1.515,0,0,1-1.688,1.545,1.526,1.526,0,0,1-1.492-1.757,1.469,1.469,0,0,1,1.533-1.376A1.487,1.487,0,0,1-1659.705,236.024Z" transform="translate(1716.605 -14.677)" fill="#eef6fc"/>
        <path id="Path_88670" data-name="Path 88670" d="M-1312.062,36.106c-1.318,1.422-2.545,2.774-3.806,4.1-.563.59-1.028,1.489-2.1.565-1.036-.893-.382-1.433.22-2.1q6.117-6.783,12.211-13.588c.687-.764,2.154-1.52,2.161-.275.017,2.8,2.162,2.174,3.486,2.841a6.679,6.679,0,0,1,3.294,8.533,10.8,10.8,0,0,1-3.982,5.04C-1305.26,44.434-1309.387,42.676-1312.062,36.106Z" transform="translate(1597.506 58.05)" fill="#fcfdfe"/>
        <path id="Path_88671" data-name="Path 88671" d="M-1269.623,62.975c3.549-3.629,2.735-6.409-1.956-8.087-.737-.264-2.409.169-1.953-1.433.358-1.261,1.573-.76,2.513-.533,6.163,1.491,7.852,6.543,3.752,11.344-1.62,1.9-3.379,3.675-5.011,5.562-.823.951-1.954,1.2-2.212.015-.383-1.752-1.639-1.789-2.8-2.313-2.614-1.181-4.15-3.141-3.82-6.146a4.6,4.6,0,0,1,3.881-4.248c2.772-.557,4.842.756,6.272,3.089C-1270.453,61.048-1270.106,61.966-1269.623,62.975Z" transform="translate(1584.587 48.197)" fill="#fbfdfe"/>
        <path id="Path_88672" data-name="Path 88672" d="M-1252.418,72.84c-1.365-.2-2.192.636-3,1.562q-2.471,2.816-5,5.582c-.576.627-1.183,1.4-2.153.475-.8-.76-.321-1.324.217-1.927,2.82-3.159,5.655-6.306,8.433-9.5,1.184-1.362,2.43-.387,2.309.464-.3,2.122,1.14,1.837,2.232,2.2,4.863,1.637,5.869,5.363,2.474,9.171q-2.71,3.04-5.458,6.046c-.627.681-1.219,1.747-2.348.623-.985-.979-.009-1.578.5-2.17,1.631-1.891,3.353-3.7,4.983-5.6,1.041-1.21,2.431-2.406,1.37-4.266A4.985,4.985,0,0,0-1252.418,72.84Z" transform="translate(1578.308 42.759)" fill="#fbfcfe"/>
        <path id="Path_88673" data-name="Path 88673" d="M-1275.332,37.955c-.449.553-.769.983-1.126,1.381-3.84,4.278-7.665,8.57-11.549,12.808-.633.69-1.242,2.2-2.548.979-1.326-1.238.218-1.913.823-2.6,3.8-4.316,7.651-8.581,11.512-12.841.463-.512.864-1.435,1.811-.894A5.386,5.386,0,0,1-1275.332,37.955Z" transform="translate(1588.018 53.733)" fill="#fafcfd"/>
        <path id="Path_88674" data-name="Path 88674" d="M-614.017,186.651c4.237-.051,5.831,1.17,5.929,4.545.09,3.082-2.214,5.119-5.842,5.161-3.655.043-6.077-1.881-6.152-4.891C-620.166,188.131-618.368,186.7-614.017,186.651Z" transform="translate(1355.967 1.849)" fill="#1390c8"/>
        <path id="Path_88675" data-name="Path 88675" d="M-607.077,219.961a5.073,5.073,0,0,1-2,4.675c-.987.754-2.244,1.3-3.338.735-1.3-.673-.286-1.911-.149-2.891a20.394,20.394,0,0,1,.689-3.5c.358-1.1-.4-3.13,1.392-3.088,1.65.04,2.714,1.621,3.281,3.239A2.526,2.526,0,0,1-607.077,219.961Z" transform="translate(1353.54 -8.265)" fill="#1390c8"/>
        <path id="Path_88676" data-name="Path 88676" d="M-610.99,161.5c-.03,3.1-2.8,5.432-6.438,5.429-3.2,0-5.566-2.176-5.55-5.1.017-3,2.947-5.427,6.522-5.405C-613.12,156.441-610.96,158.448-610.99,161.5Z" transform="translate(1356.967 12.303)" fill="#1390c8"/>
        <path id="Path_88677" data-name="Path 88677" d="M-646.046,299.507a4.987,4.987,0,0,1-6.62,4.893c-1.38-.527-1.72-1.118-.685-2.31,1.134-1.305,2.106-2.761,3.314-3.987.754-.765,1.153-2.549,2.5-1.983C-646.369,296.612-646.055,298.148-646.046,299.507Z" transform="translate(1367.68 -35.972)" fill="#1390c8"/>
        <path id="Path_88678" data-name="Path 88678" d="M-629.822,259.313c-.046,2.286-2.34,5.043-4.137,4.693-1.764-.343-3.256-1.162-3.079-3.48.194-2.531,2.08-4.954,4.073-4.7A3.221,3.221,0,0,1-629.822,259.313Z" transform="translate(1361.835 -22.069)" fill="#1390c8"/>
        <path id="Path_88679" data-name="Path 88679" d="M-1431.617,386.135c-2.38.445-2.543-.375-2.36-1.539a5.032,5.032,0,0,1,6.432-3.835c1.614.561,3.21,1.637,3.184,3.328-.03,1.972-2.185,1.117-3.355,1.48A19.293,19.293,0,0,1-1431.617,386.135Z" transform="translate(1637.457 -65.195)" fill="#473911"/>
        <path id="Path_88680" data-name="Path 88680" d="M-843.995,389.531c-.053-3.649,2.082-6.147,5.224-6.113,2.946.033,5.123,2.522,5.182,5.924.061,3.536-2.2,6.137-5.3,6.1C-841.906,395.411-843.943,393.052-843.995,389.531Z" transform="translate(1433.403 -66.2)" fill="#473911"/>
        <path id="Path_88681" data-name="Path 88681" d="M-915.864,364.832c-.061,3.622-2.965,6.682-6.249,6.584a4.938,4.938,0,0,1-4.812-5.075c.081-3.447,3.26-6.816,6.3-6.68A5.027,5.027,0,0,1-915.864,364.832Z" transform="translate(1462.083 -57.983)" fill="#473911"/>
        <path id="Path_88682" data-name="Path 88682" d="M-1515.551-38.236c3.338-.094,5.322,2.8,5.375,7.826.024,2.205-2.312,4.306-4.8,4.321-3.019.018-5.282-2.8-5.32-6.616C-1520.331-35.857-1518.356-38.157-1515.551-38.236Z" transform="translate(1667.291 79.623)" fill="#473911"/>
        <path id="Path_88683" data-name="Path 88683" d="M-1486.96-37.262c-1.329-.493-3.411,1.378-4.038-1.046-.459-1.77,2.236-4.084,4.533-4.182a4.462,4.462,0,0,1,2.512.468c1.376.79,2.779,1.91,2.532,3.45-.242,1.506-2.1.951-3.274,1.189A14.451,14.451,0,0,1-1486.96-37.262Z" transform="translate(1657.175 81.097)" fill="#473911"/>
        <path id="Path_88684" data-name="Path 88684" d="M-1548.323-24.568c-.031-3.212,1.83-5.213,4.863-5.229s5.754,3.118,5.8,6.646a5.141,5.141,0,0,1-5,5.3C-1545.726-17.843-1548.288-20.885-1548.323-24.568Z" transform="translate(1676.983 76.703)" fill="#473911"/>
        <path id="Path_88685" data-name="Path 88685" d="M-848.373-36.348c.048-3.561,1.767-5.706,4.39-5.956,2.862-.272,4.541,1.321,5.086,4.862.315,2.048,1.546,4.228-.831,5.911-1.667,1.181-3.381,1.889-5.423.912C-847.806-31.887-848.3-34.239-848.373-36.348Z" transform="translate(1434.916 81.039)" fill="#473911"/>
        <path id="Path_88686" data-name="Path 88686" d="M-780.153-35.235c-.028,3.887-2.237,6.6-5.318,6.526-2.721-.062-5-1.968-4.654-4.317.892-6.122.75-7.533,5.309-7.573C-781.721-40.627-780.127-38.691-780.153-35.235Z" transform="translate(1414.784 80.439)" fill="#473911"/>
        <path id="Path_88687" data-name="Path 88687" d="M-814.27-39.428a6.956,6.956,0,0,1-1.3-.016c-1.1-.22-2.768.71-3.214-.629-.525-1.577.773-2.829,2.028-3.749a4.676,4.676,0,0,1,4.947-.326c1.7.775,3.065,2.225,2.582,4.063-.4,1.51-2.237.513-3.417.721A7.283,7.283,0,0,1-814.27-39.428Z" transform="translate(1424.726 81.857)" fill="#473911"/>
        <path id="Path_88688" data-name="Path 88688" d="M-752.337-22.123c.084-3.657,2.7-6.573,5.837-6.509a4.879,4.879,0,0,1,4.841,5.324c-.095,3.605-2.772,6.58-5.875,6.527C-750.47-16.83-752.409-18.986-752.337-22.123Z" transform="translate(1401.705 76.301)" fill="#473911"/>
        <path id="Path_88689" data-name="Path 88689" d="M-1076.117,107.92a4.814,4.814,0,0,1,4.752-4.771c1.351-.058,2.918.091,3.516,1.233.727,1.387-1.085,1.835-1.814,2.638a18.552,18.552,0,0,1-2.937,2.552c-.794.57-1.331,2.123-2.572,1.336C-1076.085,110.328-1076.128,109.03-1076.117,107.92Z" transform="translate(1513.678 30.73)" fill="#1390c8"/>
        <path id="Path_88690" data-name="Path 88690" d="M-1164,185.141a4.928,4.928,0,0,1,2.766-4.493,5.03,5.03,0,0,1,5,.142c.975.542,1.223,1.1.224,1.939-1.583,1.329-3.055,2.79-4.65,4.1-.624.513-1.189,1.639-2.124,1.17C-1163.825,187.479-1163.872,186.225-1164,185.141Z" transform="translate(1544.071 4.131)" fill="#1390c8"/>
        <path id="Path_88691" data-name="Path 88691" d="M-1134.348,158.93a4.633,4.633,0,0,1,4.092-4.731c1.549-.3,3.4-.2,4.149,1.164.794,1.44-1.2,1.938-1.972,2.816a16.152,16.152,0,0,1-2.7,2.341c-.8.577-1.321,2.087-2.586,1.382C-1134.388,161.332-1134.21,160-1134.348,158.93Z" transform="translate(1533.816 13.12)" fill="#1390c8"/>
        <path id="Path_88692" data-name="Path 88692" d="M-1105.786,150.889c-1.663.05-2.738-1.216-2.933-3.134-.208-2.045,2.553-4.448,4.825-4.362a2.918,2.918,0,0,1,2.993,3.124C-1100.8,148.673-1103.1,150.848-1105.786,150.889Z" transform="translate(1524.957 16.809)" fill="#1390c8"/>
        <path id="Path_88693" data-name="Path 88693" d="M-1681.322,189.69c.072,3.02-2.057,5.083-5.4,5.234-3.7.167-6.649-2.123-6.532-5.242.09-2.408.847-4.721,3.708-4.86C-1683.771,184.539-1681.409,186.06-1681.322,189.69Z" transform="translate(1727.107 2.493)" fill="#1390c8"/>
        <path id="Path_88694" data-name="Path 88694" d="M-1661.944,269.463c-.042,2.039-4.9,6.024-7.189,5.9-2.093-.111-4.626-2.917-4.661-5.165-.047-2.969,3.846-6.145,7.337-5.988C-1663.657,264.34-1661.881,266.406-1661.944,269.463Z" transform="translate(1720.374 -24.973)" fill="#1390c8"/>
        <path id="Path_88695" data-name="Path 88695" d="M-1294.272,35.917c-.111,3.118-3.576,6.519-6.6,6.481a5.24,5.24,0,0,1-4.954-5.059c-.007-1.854,4.618-6.68,6.37-6.647A5.47,5.47,0,0,1-1294.272,35.917Z" transform="translate(1593.12 55.784)" fill="#1390c8"/>
        <path id="Path_88696" data-name="Path 88696" d="M-1274.438,62.691c2.1.05,4.586,2.572,4.477,4.614a2.955,2.955,0,0,1-3.015,3.147c-2.288.081-4.979-2.4-4.775-4.471A3.493,3.493,0,0,1-1274.438,62.691Z" transform="translate(1583.414 44.718)" fill="#1390c8"/>
      </g>
    </g>
    <text id="Dev" transform="translate(547 5438)" fill="#473911" font-size="52" font-family="Poppins-SemiBold, Poppins" font-weight="600"><tspan x="0" y="0">Dev</tspan></text>
    <text id="Ops" transform="translate(958 5438)" fill="#473911" font-size="52" font-family="Poppins-SemiBold, Poppins" font-weight="600"><tspan x="0" y="0">Ops</tspan></text>
  </g>
</svg>
