<svg xmlns="http://www.w3.org/2000/svg" width="900.251" height="382.58" viewBox="0 0 900.251 382.58">
  <g id="img_7" transform="translate(8639 -17730)">
    <g id="Group_171686" data-name="Group 171686" transform="translate(-8639 17730)">
      <g id="Group_161262" data-name="Group 161262" transform="translate(0 0)">
        <g id="Group_161255" data-name="Group 161255" transform="translate(453 147.386)">
          <path id="Path_88698" data-name="Path 88698" d="M23.519,0h97.212a23.519,23.519,0,0,1,23.519,23.519v95.645a23.519,23.519,0,0,1-23.519,23.519H23.519A23.519,23.519,0,0,1,0,119.164V23.519A23.519,23.519,0,0,1,23.519,0Z" transform="translate(0 0)" fill="#4399ff"/>
        </g>
        <g id="Group_161256" data-name="Group 161256" transform="translate(604.999 191.289)">
          <path id="Path_88699" data-name="Path 88699" d="M23.519,0h95.645a23.519,23.519,0,0,1,23.519,23.519v95.645a23.519,23.519,0,0,1-23.519,23.519H23.519A23.519,23.519,0,0,1,0,119.164V23.519A23.519,23.519,0,0,1,23.519,0Z" transform="translate(0)" fill="#70aeff"/>
        </g>
        <g id="Group_161257" data-name="Group 161257" transform="translate(756 239.897)">
          <path id="Path_88700" data-name="Path 88700" d="M23.519,0h97.212a23.519,23.519,0,0,1,23.519,23.519v95.645a23.519,23.519,0,0,1-23.519,23.519H23.519A23.519,23.519,0,0,1,0,119.164V23.519A23.519,23.519,0,0,1,23.519,0Z" transform="translate(0 0)" fill="#95c0f9"/>
        </g>
        <g id="Group_161252" data-name="Group 161252" transform="translate(0)">
          <rect id="Rectangle_147983" data-name="Rectangle 147983" width="142" height="142" rx="15" fill="#503535"/>
          <rect id="Rectangle_147989" data-name="Rectangle 147989" width="142" height="142" rx="15" fill="#1a559b"/>
        </g>
        <g id="Group_161253" data-name="Group 161253" transform="translate(150 51.742)">
          <rect id="Rectangle_147984" data-name="Rectangle 147984" width="144" height="142" rx="15" transform="translate(0 0.257)" fill="#286cbc"/>
          <path id="Path_88697" data-name="Path 88697" d="M23.519,0h97.212a23.519,23.519,0,0,1,23.519,23.519v95.645a23.519,23.519,0,0,1-23.519,23.519H23.519A23.519,23.519,0,0,1,0,119.164V23.519A23.519,23.519,0,0,1,23.519,0Z" transform="translate(0.522 0)" fill="#286cbc"/>
        </g>
        <g id="Group_161254" data-name="Group 161254" transform="translate(302.207 99.264)">
          <rect id="Rectangle_147985" data-name="Rectangle 147985" width="144" height="143" rx="15" transform="translate(-0.206 -0.265)" fill="#503535"/>
          <rect id="Rectangle_147991" data-name="Rectangle 147991" width="144" height="143" rx="15" transform="translate(-0.206 -0.265)" fill="#3581dd"/>
        </g>
        <g id="Group_161258" data-name="Group 161258" transform="translate(143.148 24.01)">
          <path id="Path_25462" data-name="Path 25462" d="M8585,4289.54h82.133v26.612" transform="translate(-8585.001 -4289.54)" fill="none" stroke="#473911" stroke-width="1" stroke-dasharray="3"/>
          <path id="Polygon_1" data-name="Polygon 1" d="M5.122,1.609a1,1,0,0,1,1.756,0l4.315,7.912A1,1,0,0,1,10.315,11H1.685A1,1,0,0,1,.807,9.521Z" transform="translate(87.852 27.99) rotate(180)" fill="#473911"/>
        </g>
        <g id="Group_161259" data-name="Group 161259" transform="translate(294.413 71.972)">
          <path id="Path_25462-2" data-name="Path 25462" d="M8585,4289.54h82.133v26.612" transform="translate(-8585.001 -4289.54)" fill="none" stroke="#473911" stroke-width="1" stroke-dasharray="3"/>
          <path id="Polygon_1-2" data-name="Polygon 1" d="M6.156,1.326a1,1,0,0,1,1.687,0l5.178,8.137A1,1,0,0,1,12.178,11H1.822A1,1,0,0,1,.978,9.463Z" transform="translate(88.587 28.027) rotate(180)" fill="#473911"/>
        </g>
        <g id="Group_161263" data-name="Group 161263" transform="translate(445.678 119.934)">
          <path id="Path_25462-3" data-name="Path 25462" d="M8585,4289.54h82.133v26.612" transform="translate(-8585.001 -4289.54)" fill="none" stroke="#473911" stroke-width="1" stroke-dasharray="3"/>
          <path id="Polygon_1-3" data-name="Polygon 1" d="M4.606,1.789a1,1,0,0,1,1.789,0l3.882,7.764A1,1,0,0,1,9.382,11H1.618A1,1,0,0,1,.724,9.553Z" transform="translate(87.322 28.065) rotate(180)" fill="#473911"/>
        </g>
        <g id="Group_161260" data-name="Group 161260" transform="translate(524.631 289.986)">
          <path id="Polygon_2" data-name="Polygon 2" d="M5.035,1.519a1,1,0,0,1,1.736,0l4.18,7.315a1,1,0,0,1-.868,1.5H1.723a1,1,0,0,1-.868-1.5Z" transform="matrix(0.017, 1, -1, 0.017, 81.063, 20.571)" fill="#473911"/>
          <path id="Path_25463" data-name="Path 25463" d="M9103,4650v26.757h79.955" transform="translate(-9103.003 -4650)" fill="none" stroke="#473911" stroke-width="1" stroke-dasharray="3"/>
        </g>
        <g id="Group_161261" data-name="Group 161261" transform="translate(675.897 334.259)">
          <path id="Polygon_2-2" data-name="Polygon 2" d="M5.035,1.519a1,1,0,0,1,1.736,0l4.18,7.315a1,1,0,0,1-.868,1.5H1.723a1,1,0,0,1-.868-1.5Z" transform="matrix(0.017, 1, -1, 0.017, 81.063, 20.571)" fill="#473911"/>
          <path id="Path_25463-2" data-name="Path 25463" d="M9103,4650v26.757h79.955" transform="translate(-9103.003 -4650)" fill="none" stroke="#473911" stroke-width="1" stroke-dasharray="3"/>
        </g>
      </g>
      <g id="analysis" transform="translate(40.584 23.612)">
        <g id="Group_161265" data-name="Group 161265" transform="translate(4.131 4.111)">
          <g id="Group_161264" data-name="Group 161264">
            <path id="Path_25464" data-name="Path 25464" d="M53.746,32.106A21.564,21.564,0,1,0,75.31,53.67,21.564,21.564,0,0,0,53.746,32.106Zm0,2.054a19.49,19.49,0,0,1,15.933,8.287l-2.567,2.567a4.052,4.052,0,0,0-2.07-.585,4.107,4.107,0,0,0-4.107,4.107,4.053,4.053,0,0,0,.582,2.073l-6.724,6.724a3.982,3.982,0,0,0-4.146,0l-4.67-4.67a4.053,4.053,0,0,0,.582-2.073,4.1,4.1,0,0,0-8.069-1.027h-3.81A19.538,19.538,0,0,1,53.746,34.16ZM67.1,48.536a2.054,2.054,0,1,1-2.054-2.054A2.054,2.054,0,0,1,67.1,48.536ZM54.773,60.858A2.054,2.054,0,1,1,52.719,58.8,2.054,2.054,0,0,1,54.773,60.858ZM44.5,50.59a2.054,2.054,0,1,1-2.054-2.054A2.054,2.054,0,0,1,44.5,50.59ZM63.226,70.73a19.507,19.507,0,0,1-28.88-19.113h4.143A4.108,4.108,0,0,0,42.451,54.7a4.053,4.053,0,0,0,2.073-.582l4.67,4.67a4.053,4.053,0,0,0-.582,2.073,4.107,4.107,0,1,0,8.215,0,4.053,4.053,0,0,0-.582-2.073l6.724-6.724a4.053,4.053,0,0,0,2.073.582,4.107,4.107,0,0,0,4.107-4.107,4.053,4.053,0,0,0-.582-2.073l2.239-2.238A19.493,19.493,0,0,1,63.226,70.73Z" transform="translate(-32.182 -32.106)" fill="#fff"/>
          </g>
        </g>
        <g id="Group_161267" data-name="Group 161267" transform="translate(0 0)">
          <g id="Group_161266" data-name="Group 161266" transform="translate(0 0)">
            <path id="Path_25465" data-name="Path 25465" d="M51.367,10.352a4.108,4.108,0,0,0,3.962-3.081h6.307V5.218H55.329A4.1,4.1,0,0,0,47.26,6.245a4.053,4.053,0,0,0,.582,2.073l-1.8,1.8A25.672,25.672,0,1,0,39.628,47.3l3.1,3.1,1.452,1.452,8.266,8.266a5.383,5.383,0,0,0,7.613-7.613l-8.266-8.266L50.34,42.787l-3.1-3.1a25.587,25.587,0,0,0,0-27.865l2.054-2.054A4.054,4.054,0,0,0,51.367,10.352Zm0-6.161a2.054,2.054,0,1,1-2.054,2.054A2.054,2.054,0,0,1,51.367,4.191Zm7.239,49.766a3.33,3.33,0,0,1-4.656,4.763l-.054-.054L45.631,50.4l4.709-4.709Zm-9.718-9.718-4.709,4.709-2.842-2.842c.145-.111.28-.233.423-.347s.308-.251.461-.379c.225-.189.447-.38.664-.576.112-.1.219-.205.329-.308q.632-.591,1.223-1.223c.1-.11.205-.217.308-.329.2-.218.387-.439.576-.664q.193-.228.379-.461c.113-.142.235-.277.346-.422Zm-3.982-4.77c-.323.452-.657.894-1.009,1.321-.1.124-.213.244-.318.367q-.471.548-.973,1.064-.219.226-.445.445-.513.5-1.064.973c-.122.1-.242.215-.367.318-.426.352-.869.686-1.321,1.009a23.655,23.655,0,1,1,5.5-5.5Z" transform="translate(0 -0.08)" fill="#fff"/>
          </g>
        </g>
      </g>
      <g id="web-design" transform="translate(193.324 67.885)">
        <path id="Path_25466" data-name="Path 25466" d="M78.868,8.574h-.782a5.636,5.636,0,0,0-9.5-6.071L64.528,8.574h-34.9a5.208,5.208,0,0,0-5.2,5.2V47.035a5.208,5.208,0,0,0,5.2,5.2H49.838l-1.527,6.412h-3.3a3.9,3.9,0,0,0-3.895,3.895v.813H37.059a1.288,1.288,0,0,0,0,2.575H71.441a1.288,1.288,0,0,0,0-2.575H67.379v-.813a3.9,3.9,0,0,0-3.895-3.895h-3.3l-1.527-6.412H78.868a5.208,5.208,0,0,0,5.2-5.2V13.776a5.208,5.208,0,0,0-5.2-5.2ZM60.418,31.212c-2.013,1.409-5.785-.506-9.387,1.416-.879-4.566-.325-8.859,4.25-9.807a8.2,8.2,0,0,1,1.77-.168l4.658,3.456c.676,1.966.422,3.9-1.291,5.1Zm1.3-13.8,3.645,2.7-2.8,3.418-3.3-2.449ZM70.731,3.936a3.061,3.061,0,1,1,4.91,3.643L67,18.12l-3.846-2.854ZM64.8,62.544v.813H43.7v-.813a1.321,1.321,0,0,1,1.319-1.319H63.484A1.321,1.321,0,0,1,64.8,62.544Zm-7.262-3.895H50.959l1.527-6.412h3.53ZM81.495,47.035a2.629,2.629,0,0,1-2.627,2.627H29.632a2.629,2.629,0,0,1-2.627-2.627V41h3.68a1.288,1.288,0,1,0,0-2.575h-3.68V13.776a2.63,2.63,0,0,1,2.627-2.627H62.805l-5.973,8.926A8.8,8.8,0,0,0,50.14,22.9c-2.244,2.62-2.639,6.736-1.172,12.235a1.289,1.289,0,0,0,2.134.6c3.33-3.182,7.477.289,11.19-2.717a6.744,6.744,0,0,0,1.949-7.48l11.8-14.39h2.824a2.63,2.63,0,0,1,2.627,2.627V38.429H40.987a1.288,1.288,0,1,0,0,2.575H81.495Z" transform="translate(-24.43 0)" fill="#fff"/>
        <path id="Path_25467" data-name="Path 25467" d="M104.07,298.448a1.288,1.288,0,1,0,1.514,1.011A1.286,1.286,0,0,0,104.07,298.448Z" transform="translate(-92.913 -259.995)" fill="#fff"/>
      </g>
      <g id="web-programming_1_" data-name="web-programming (1)" transform="translate(342.376 119.536)">
        <path id="Path_25468" data-name="Path 25468" d="M122.586,194.213a1.012,1.012,0,0,1-.657-.243l-6.572-5.6a1.016,1.016,0,0,1,0-1.547l6.572-5.6a1.015,1.015,0,1,1,1.317,1.546l-5.664,4.823,5.664,4.823a1.016,1.016,0,0,1-.659,1.789Zm0,0" transform="translate(-98.315 -154.73)" fill="#fff"/>
        <path id="Path_25469" data-name="Path 25469" d="M250.724,194.213a1.016,1.016,0,0,1-.659-1.789l5.664-4.823-5.664-4.823a1.015,1.015,0,0,1,1.317-1.546l6.572,5.6a1.016,1.016,0,0,1,0,1.547l-6.572,5.6A1.012,1.012,0,0,1,250.724,194.213Zm0,0" transform="translate(-213.478 -154.73)" fill="#fff"/>
        <path id="Path_25470" data-name="Path 25470" d="M189.971,174.5a1.032,1.032,0,0,1-.211-.022,1.016,1.016,0,0,1-.784-1.2l4.1-19.447a1.016,1.016,0,1,1,1.988.419l-4.1,19.447A1.016,1.016,0,0,1,189.971,174.5Zm0,0" transform="translate(-161.539 -130.823)" fill="#fff"/>
        <path id="Path_25471" data-name="Path 25471" d="M54.7,54.276H6.819A6.827,6.827,0,0,1,0,47.456V6.819A6.827,6.827,0,0,1,6.819,0H54.7a6.827,6.827,0,0,1,6.819,6.819V47.456A6.827,6.827,0,0,1,54.7,54.276ZM6.819,2.031A4.794,4.794,0,0,0,2.031,6.819V47.456a4.794,4.794,0,0,0,4.788,4.788H54.7a4.794,4.794,0,0,0,4.788-4.788V6.819A4.794,4.794,0,0,0,54.7,2.031Zm0,0" fill="#fff"/>
        <path id="Path_25472" data-name="Path 25472" d="M60.5,100.121H1.016a1.016,1.016,0,1,1,0-2.031H60.5a1.016,1.016,0,1,1,0,2.031Zm0,0" transform="translate(0 -83.858)" fill="#fff"/>
        <path id="Path_25473" data-name="Path 25473" d="M100.664,40.717a3.214,3.214,0,1,1,3.214-3.214A3.218,3.218,0,0,1,100.664,40.717Zm0-4.4a1.183,1.183,0,1,0,1.183,1.183A1.184,1.184,0,0,0,100.664,36.32Zm0,0" transform="translate(-83.311 -29.314)" fill="#fff"/>
        <path id="Path_25474" data-name="Path 25474" d="M32.6,40.5a3.214,3.214,0,1,1,3.214-3.214A3.218,3.218,0,0,1,32.6,40.5Zm0-4.4a1.183,1.183,0,1,0,1.183,1.183A1.185,1.185,0,0,0,32.6,36.106Zm0,0" transform="translate(-25.123 -29.131)" fill="#fff"/>
        <path id="Path_25475" data-name="Path 25475" d="M168.729,40.932a3.214,3.214,0,1,1,3.214-3.214A3.218,3.218,0,0,1,168.729,40.932Zm0-4.4a1.183,1.183,0,1,0,1.183,1.183A1.184,1.184,0,0,0,168.729,36.535Zm0,0" transform="translate(-141.501 -29.498)" fill="#fff"/>
      </g>
      <g id="exam_3_" data-name="exam (3)" transform="translate(501.019 166.76)">
        <g id="Group_161269" data-name="Group 161269" transform="translate(9.304 13.956)">
          <g id="Group_161268" data-name="Group 161268" transform="translate(0)">
            <path id="Path_25476" data-name="Path 25476" d="M168.778,120.239a.87.87,0,0,0-.87.87v39.077a.06.06,0,0,1-.06.06h-30.7a.87.87,0,1,0,0,1.741h30.7a1.8,1.8,0,0,0,1.8-1.8V121.109A.871.871,0,0,0,168.778,120.239Z" transform="translate(-136.274 -120.239)" fill="#fff"/>
          </g>
        </g>
        <g id="Group_161271" data-name="Group 161271" transform="translate(0)">
          <g id="Group_161270" data-name="Group 161270" transform="translate(0)">
            <path id="Path_25477" data-name="Path 25477" d="M100.711,3.722H92.7L89.776.8A2.713,2.713,0,0,0,87.845,0H57.913a1.8,1.8,0,0,0-1.8,1.8V53.9a1.8,1.8,0,0,0,1.8,1.8h1.921v1.921a1.8,1.8,0,0,0,1.8,1.8h39.077a1.8,1.8,0,0,0,1.8-1.8V5.522A1.8,1.8,0,0,0,100.711,3.722ZM88.556,2.042l8.193,8.193H88.616a.06.06,0,0,1-.06-.06Zm12.215,55.583a.06.06,0,0,1-.06.06H61.634a.06.06,0,0,1-.06-.06V55.7h.99a.87.87,0,0,0,0-1.741H57.913a.06.06,0,0,1-.06-.06V1.8a.06.06,0,0,1,.06-.06h28.9v8.433a1.8,1.8,0,0,0,1.8,1.8h9.3a.871.871,0,0,0,.871-.87v-.16a2.714,2.714,0,0,0-.8-1.931L94.439,5.462h6.272a.06.06,0,0,1,.06.06Z" transform="translate(-56.112)" fill="#fff"/>
          </g>
        </g>
        <g id="Group_161273" data-name="Group 161273" transform="translate(5.582 9.689)">
          <g id="Group_161272" data-name="Group 161272">
            <path id="Path_25478" data-name="Path 25478" d="M115.929,83.737a.87.87,0,0,0-1.231,0l-4.925,4.925a.06.06,0,0,1-.085,0L107.725,86.7h1.511a.87.87,0,1,0,0-1.741h-2.3a1.787,1.787,0,0,0-.777.179l-.469-.469a.87.87,0,0,0-1.231,1.231l.684.684c-.006.058-.009.116-.009.175v5.582a1.8,1.8,0,0,0,1.8,1.8h5.582a1.8,1.8,0,0,0,1.8-1.8V86.574l1.606-1.606A.87.87,0,0,0,115.929,83.737Zm-3.347,8.6a.06.06,0,0,1-.06.06H106.94a.06.06,0,0,1-.06-.06V88.315l1.578,1.578a1.8,1.8,0,0,0,2.547,0l1.578-1.578Z" transform="translate(-104.208 -83.482)" fill="#fff"/>
          </g>
        </g>
        <g id="Group_161275" data-name="Group 161275" transform="translate(6.513 23.26)">
          <g id="Group_161274" data-name="Group 161274" transform="translate(0)">
            <path id="Path_25479" data-name="Path 25479" d="M119.608,200.4h-5.582a1.8,1.8,0,0,0-1.8,1.8v5.582a1.8,1.8,0,0,0,1.8,1.8h5.582a1.8,1.8,0,0,0,1.8-1.8V202.2A1.8,1.8,0,0,0,119.608,200.4Zm.06,7.383a.06.06,0,0,1-.06.06h-5.582a.06.06,0,0,1-.06-.06V202.2a.06.06,0,0,1,.06-.06h5.582a.06.06,0,0,1,.06.06Z" transform="translate(-112.225 -200.403)" fill="#fff"/>
          </g>
        </g>
        <g id="Group_161277" data-name="Group 161277" transform="translate(6.513 35.355)">
          <g id="Group_161276" data-name="Group 161276" transform="translate(0)">
            <path id="Path_25480" data-name="Path 25480" d="M119.608,304.613h-5.582a1.8,1.8,0,0,0-1.8,1.8V312a1.8,1.8,0,0,0,1.8,1.8h5.582a1.8,1.8,0,0,0,1.8-1.8v-5.582A1.8,1.8,0,0,0,119.608,304.613Zm.06,7.383a.06.06,0,0,1-.06.06h-5.582a.06.06,0,0,1-.06-.06v-5.582a.06.06,0,0,1,.06-.06h5.582a.06.06,0,0,1,.06.06Z" transform="translate(-112.225 -304.613)" fill="#fff"/>
          </g>
        </g>
        <g id="Group_161279" data-name="Group 161279" transform="translate(18.608 13.026)">
          <g id="Group_161278" data-name="Group 161278" transform="translate(0)">
            <path id="Path_25481" data-name="Path 25481" d="M225.679,112.226h-8.374a.87.87,0,1,0,0,1.741h8.374a.87.87,0,0,0,0-1.741Z" transform="translate(-216.435 -112.226)" fill="#fff"/>
          </g>
        </g>
        <g id="Group_161281" data-name="Group 161281" transform="translate(18.608 16.747)">
          <g id="Group_161280" data-name="Group 161280" transform="translate(0)">
            <path id="Path_25482" data-name="Path 25482" d="M233.122,144.291H217.306a.87.87,0,1,0,0,1.741h15.817a.87.87,0,0,0,0-1.741Z" transform="translate(-216.435 -144.291)" fill="#fff"/>
          </g>
        </g>
        <g id="Group_161283" data-name="Group 161283" transform="translate(18.608 25.121)">
          <g id="Group_161282" data-name="Group 161282" transform="translate(0)">
            <path id="Path_25483" data-name="Path 25483" d="M225.679,216.436h-8.374a.87.87,0,1,0,0,1.741h8.374a.87.87,0,0,0,0-1.741Z" transform="translate(-216.435 -216.436)" fill="#fff"/>
          </g>
        </g>
        <g id="Group_161285" data-name="Group 161285" transform="translate(18.608 28.842)">
          <g id="Group_161284" data-name="Group 161284" transform="translate(0)">
            <path id="Path_25484" data-name="Path 25484" d="M233.122,248.5H217.306a.87.87,0,1,0,0,1.741h15.817a.87.87,0,1,0,0-1.741Z" transform="translate(-216.435 -248.5)" fill="#fff"/>
          </g>
        </g>
        <g id="Group_161287" data-name="Group 161287" transform="translate(18.608 37.216)">
          <g id="Group_161286" data-name="Group 161286" transform="translate(0)">
            <path id="Path_25485" data-name="Path 25485" d="M225.679,320.645h-8.374a.87.87,0,1,0,0,1.741h8.374a.87.87,0,1,0,0-1.741Z" transform="translate(-216.435 -320.645)" fill="#fff"/>
          </g>
        </g>
        <g id="Group_161289" data-name="Group 161289" transform="translate(18.608 40.937)">
          <g id="Group_161288" data-name="Group 161288" transform="translate(0)">
            <path id="Path_25486" data-name="Path 25486" d="M233.122,352.709H217.306a.87.87,0,1,0,0,1.741h15.817a.87.87,0,1,0,0-1.741Z" transform="translate(-216.435 -352.709)" fill="#fff"/>
          </g>
        </g>
      </g>
      <g id="display" transform="translate(645.643 209.557)">
        <path id="Path_25487" data-name="Path 25487" d="M58.113,0H3.408A3.412,3.412,0,0,0,0,3.408V44.689a3.407,3.407,0,0,0,3.408,3.4h14.52a26.533,26.533,0,0,0,3.847,3.465c1.982,1.562,4.448,3.506,4.262,4.773-.059.4-.565,1.486-3.963,2.822a1.23,1.23,0,0,0,.45,2.376H38.986a1.23,1.23,0,0,0,.45-2.376c-3.4-1.336-3.9-2.419-3.963-2.822-.187-1.268,2.284-3.213,4.27-4.776a26.5,26.5,0,0,0,3.849-3.462H58.113a3.407,3.407,0,0,0,3.409-3.4V3.408A3.412,3.412,0,0,0,58.113,0ZM3.408,2.461h54.7a.948.948,0,0,1,.947.947V37.839H2.461V3.408a.948.948,0,0,1,.947-.947ZM38.221,49.614c-2.742,2.158-5.577,4.391-5.183,7.069a4.055,4.055,0,0,0,1.338,2.378H27.133a4.058,4.058,0,0,0,1.338-2.378c.395-2.677-2.436-4.907-5.173-7.065-.643-.507-1.293-1.022-1.89-1.532h18.7c-.6.509-1.245,1.022-1.888,1.528Zm19.892-3.989H3.408a.942.942,0,0,1-.947-.935V40.3h56.6v4.389a.942.942,0,0,1-.947.935Zm0,0" transform="translate(0 0)" fill="#fff"/>
        <path id="Path_25488" data-name="Path 25488" d="M197.966,310.1h-8.357a1.23,1.23,0,1,0,0,2.461h8.357a1.23,1.23,0,0,0,0-2.461Zm0,0" transform="translate(-163.027 -268.366)" fill="#fff"/>
        <path id="Path_25489" data-name="Path 25489" d="M46.944,53.54a1.227,1.227,0,0,0,.87-.361l5.365-5.365a1.23,1.23,0,0,0-1.74-1.74l-5.365,5.365a1.231,1.231,0,0,0,.87,2.1Zm0,0" transform="translate(-39.562 -39.562)" fill="#fff"/>
        <path id="Path_25490" data-name="Path 25490" d="M57.187,69.1a1.231,1.231,0,0,0,1.74,0L69.1,58.93a1.23,1.23,0,0,0-1.74-1.74L57.187,67.358a1.23,1.23,0,0,0,0,1.74Zm0,0" transform="translate(-49.179 -49.182)" fill="#fff"/>
      </g>
      <g id="tools" transform="translate(797.646 261.209)">
        <path id="Path_25491" data-name="Path 25491" d="M338.566,155.148a1.226,1.226,0,1,0,1.226,1.225A1.225,1.225,0,0,0,338.566,155.148Zm0,0" transform="translate(-296.051 -136.13)" fill="#fff"/>
        <path id="Path_25492" data-name="Path 25492" d="M156.871,336.84a1.226,1.226,0,1,0,1.226,1.226A1.225,1.225,0,0,0,156.871,336.84Zm0,0" transform="translate(-136.628 -295.551)" fill="#fff"/>
        <path id="Path_25493" data-name="Path 25493" d="M61.735,7.54a1.225,1.225,0,0,0-1.147.33l-5.082,5.122H53.07l-2.682-2.779V7.744L55.4,2.66A1.226,1.226,0,0,0,54.915.638,12.267,12.267,0,0,0,39.158,15.433l-9.029,9.029L15.086,9.385V6.426a1.226,1.226,0,0,0-.6-1.051L5.824.174a1.225,1.225,0,0,0-1.5.184L.86,3.825a1.227,1.227,0,0,0-.184,1.5l5.2,8.667a1.226,1.226,0,0,0,1.051.6H9.884L24.928,29.663l-8.995,8.995A12.265,12.265,0,0,0,1.139,54.414a1.226,1.226,0,0,0,2.032.472l5.081-5.121H10.7l2.791,2.791v2.45L8.371,60.087a1.226,1.226,0,0,0,.472,2.032,12.261,12.261,0,0,0,13.863-4.465A12.121,12.121,0,0,0,24.6,47.324L31.824,40.1l1.655,1.8-.759.759a1.226,1.226,0,1,0,1.734,1.734l.688-.688L50.667,60.568l.035.036A7.355,7.355,0,0,0,61.1,50.2l-.038-.036-16.891-15.5.68-.68a1.226,1.226,0,1,0-1.734-1.733l-.754.755-1.8-1.653L47.825,24.1A12.265,12.265,0,0,0,62.619,8.343a1.225,1.225,0,0,0-.884-.8ZM11.26,12.494a1.213,1.213,0,0,0-.867-.348H7.621L3.27,4.882,5.383,2.769,12.635,7.12V9.893a1.225,1.225,0,0,0,.358.866L28.4,26.2l-1.734,1.733ZM42.44,36.4,59.389,51.953a4.9,4.9,0,0,1-6.936,6.934L36.876,41.967Zm-1.808-1.659-5.418,5.417-1.655-1.8,5.272-5.272ZM51,22.063a9.8,9.8,0,0,1-3.133-.511,1.228,1.228,0,0,0-1.258.295L22.347,46.109a1.225,1.225,0,0,0-.295,1.258,9.816,9.816,0,0,1-9.3,12.939,10.041,10.041,0,0,1-1.069-.057l3.893-3.863a1.225,1.225,0,0,0,.362-.87V52.048a1.226,1.226,0,0,0-.359-.867l-3.509-3.509a1.226,1.226,0,0,0-.867-.359H7.741a1.227,1.227,0,0,0-.87.362L3.008,51.569A9.916,9.916,0,0,1,2.951,50.5,9.816,9.816,0,0,1,15.89,41.2a1.225,1.225,0,0,0,1.258-.295L41.41,16.647a1.226,1.226,0,0,0,.295-1.258A9.815,9.815,0,0,1,51,2.451a10.017,10.017,0,0,1,1.1.061L48.289,6.381a1.225,1.225,0,0,0-.352.86v3.468a1.224,1.224,0,0,0,.344.851l3.387,3.509a1.225,1.225,0,0,0,.882.374h3.468a1.225,1.225,0,0,0,.87-.362l3.863-3.893a9.917,9.917,0,0,1,.057,1.069A9.817,9.817,0,0,1,51,22.063Zm0,0" transform="translate(-0.5 0.001)" fill="#fff"/>
        <path id="Path_25494" data-name="Path 25494" d="M199.622,183.784l-15.339,15.339a1.226,1.226,0,0,0,1.734,1.733l15.339-15.339a1.226,1.226,0,1,0-1.734-1.733Zm0,0" transform="translate(-161.44 -160.941)" fill="#fff"/>
        <path id="Path_25495" data-name="Path 25495" d="M356.688,358.179a1.226,1.226,0,1,0,1.731-1.736L347.37,345.429a1.226,1.226,0,0,0-1.731,1.736Zm0,0" transform="translate(-303.017 -302.773)" fill="#fff"/>
      </g>
    </g>
    <text id="Requirements" transform="translate(-8632 17848)" fill="#fff" font-size="18" font-family="Poppins-SemiBold, Poppins" font-weight="600"><tspan x="0" y="0">Requirements</tspan></text>
    <text id="Design" transform="translate(-8448 17900)" fill="#fff" font-size="18" font-family="Poppins-SemiBold, Poppins" font-weight="600"><tspan x="0" y="0">Design</tspan></text>
    <text id="Implement" transform="translate(-8316 17941)" fill="#fff" font-size="18" font-family="Poppins-SemiBold, Poppins" font-weight="600"><tspan x="0" y="0">Implement</tspan></text>
    <text id="Test" transform="translate(-8133 17993)" fill="#fff" font-size="18" font-family="Poppins-SemiBold, Poppins" font-weight="600"><tspan x="0" y="0">Test</tspan></text>
    <text id="Deploy" transform="translate(-7994 18038)" fill="#fff" font-size="18" font-family="Poppins-SemiBold, Poppins" font-weight="600"><tspan x="0" y="0">Deploy</tspan></text>
    <text id="Maintenance" transform="translate(-7872 18087)" fill="#fff" font-size="18" font-family="Poppins-SemiBold, Poppins" font-weight="600"><tspan x="0" y="0">Maintenance</tspan></text>
  </g>
</svg>
