<svg xmlns="http://www.w3.org/2000/svg" width="856.358" height="470.382" viewBox="0 0 856.358 470.382">
  <g id="img_5" transform="translate(10622.648 -16007)">
    <g id="Group_171675" data-name="Group 171675" transform="translate(-10622.648 16007)">
      <path id="Path_88511" data-name="Path 88511" d="M400.44,298.781l9.369-10.43,9.371-10.43H408.546a62.243,62.243,0,1,1,61.98,68.005H378.921v16.189h91.605a78.525,78.525,0,1,0-78.2-84.194H381.695l9.369,10.43Z" transform="translate(81.477 -35.819)" fill="#1390c8" stroke="#1390c8" stroke-linejoin="round" stroke-width="2.037" fill-rule="evenodd"/>
      <path id="Path_88512" data-name="Path 88512" d="M230.018,309.815l-10.462-9.339-10.463-9.338v10.655H135V317.9h74.093v10.592l10.463-9.339Z" transform="translate(-39.726 6.95)" fill="#1390c8" fill-rule="evenodd"/>
      <path id="Path_88513" data-name="Path 88513" d="M362.018,309.815l-10.462-9.339-10.463-9.338v10.655H267V317.9h74.093v10.592l10.463-9.339Z" transform="translate(25.864 6.95)" fill="#1390c8" fill-rule="evenodd"/>
      <path id="Path_88514" data-name="Path 88514" d="M647.215,310.833,636.779,301.5l-10.436-9.339v10.655H492.216A83.183,83.183,0,0,1,464.5,318.92H626.343v10.592l10.436-9.338Z" transform="translate(124.001 7.456)" fill="#1390c8" fill-rule="evenodd"/>
      <path id="Path_88515" data-name="Path 88515" d="M523.5,257.645l.612-11.67.611-11.664,6.256,6.272a51.825,51.825,0,1,0-86.738-11.351c-3.642-.323-7.326-.5-11.049-.5-1.21,0-2.409.024-3.608.057a65.266,65.266,0,1,1,110.933,21.356l6.254,6.272-11.635.614Z" transform="translate(104.871 -67.163)" fill="#1390c8" fill-rule="evenodd"/>
      <path id="Path_88516" data-name="Path 88516" d="M135.463,280.218l-4.1-4.42-4.1-4.419,4.586-.079a26.845,26.845,0,1,0-35.579,28.27q-2.156,1.864-4.181,3.941c-.437.451-.863.907-1.284,1.365a33.836,33.836,0,1,1,48.038-33.7l4.585-.079-3.982,4.56Z" transform="translate(-71.352 -18.266)" fill="#473911" fill-rule="evenodd"/>
      <path id="Path_88532" data-name="Path 88532" d="M470.644,258.092v-6.88c0-3.771-9.635-5.5-14.617-5.5s-14.616,1.732-14.616,5.5V253.6" transform="translate(112.528 -15.623)" fill="none" stroke="#473911" stroke-miterlimit="10" stroke-width="2.547"/>
      <path id="Path_88533" data-name="Path 88533" d="M447.275,253.6v-2.389c0-3.771-9.32-5.5-14.138-5.5S419,247.442,419,251.213v6.88" transform="translate(101.392 -15.623)" fill="none" stroke="#473911" stroke-miterlimit="10" stroke-width="2.547"/>
      <path id="Path_88535" data-name="Path 88535" d="M457.52,262.864v-6.88c0-3.771-9-5.5-13.658-5.5s-13.658,1.732-13.658,5.5v6.88" transform="translate(106.96 -13.251)" fill="none" stroke="#473911" stroke-miterlimit="10" stroke-width="2.547"/>
      <path id="Path_88536" data-name="Path 88536" d="M449.24,245.7a6.966,6.966,0,1,1-6.961-6.666A6.818,6.818,0,0,1,449.24,245.7Z" transform="translate(109.501 -18.942)" fill="none" stroke="#473911" stroke-width="2.547"/>
      <path id="Path_88537" data-name="Path 88537" d="M460.925,240.924a6.72,6.72,0,1,1-6.72-6.667A6.692,6.692,0,0,1,460.925,240.924Z" transform="translate(115.547 -21.313)" fill="none" stroke="#473911" stroke-width="2.547"/>
      <path id="Path_88538" data-name="Path 88538" d="M436.915,240.924a6.721,6.721,0,1,1-6.72-6.667A6.692,6.692,0,0,1,436.915,240.924Z" transform="translate(103.615 -21.313)" fill="none" stroke="#473911" stroke-width="2.547"/>
      <g id="Group_171696" data-name="Group 171696">
        <path id="Path_88539" data-name="Path 88539" d="M142.177,294.727v40.35a3.827,3.827,0,0,1-3.819,3.814H104.017a3.827,3.827,0,0,1-3.819-3.814V285.528a3.826,3.826,0,0,1,3.819-3.814h25.131a3.818,3.818,0,0,1,2.7,1.117l9.216,9.2A3.826,3.826,0,0,1,142.177,294.727Z" transform="translate(-57.019 2.268)" fill="none" stroke="#473911" stroke-linecap="round" stroke-linejoin="round" stroke-miterlimit="10" stroke-width="2.547"/>
        <path id="Path_88540" data-name="Path 88540" d="M119.319,281.713v8.877a4.482,4.482,0,0,0,4.47,4.465h8.887" transform="translate(-47.518 2.268)" fill="none" stroke="#473911" stroke-linecap="round" stroke-linejoin="round" stroke-miterlimit="10" stroke-width="2.547"/>
        <path id="Path_88541" data-name="Path 88541" d="M129.469,296.994h-22.9" transform="translate(-53.851 9.86)" fill="none" stroke="#473911" stroke-linecap="round" stroke-linejoin="round" stroke-miterlimit="10" stroke-width="2.547"/>
        <path id="Path_88542" data-name="Path 88542" d="M129.469,303.358h-22.9" transform="translate(-53.851 13.022)" fill="none" stroke="#473911" stroke-linecap="round" stroke-linejoin="round" stroke-miterlimit="10" stroke-width="2.547"/>
        <path id="Path_88543" data-name="Path 88543" d="M129.469,309.722h-22.9" transform="translate(-53.851 16.185)" fill="none" stroke="#473911" stroke-linecap="round" stroke-linejoin="round" stroke-miterlimit="10" stroke-width="2.547"/>
      </g>
      <path id="Path_88544" data-name="Path 88544" d="M383.19,294.042v40.35a3.827,3.827,0,0,1-3.819,3.814H345.029a3.827,3.827,0,0,1-3.819-3.814v-49.55a3.826,3.826,0,0,1,3.819-3.813H370.16a3.824,3.824,0,0,1,2.7,1.117l9.215,9.2A3.827,3.827,0,0,1,383.19,294.042Z" transform="translate(62.739 1.928)" fill="none" stroke="#473911" stroke-linecap="round" stroke-linejoin="round" stroke-miterlimit="10" stroke-width="2.547"/>
      <path id="Path_88545" data-name="Path 88545" d="M360.331,281.03v8.875a4.481,4.481,0,0,0,4.471,4.465h8.886" transform="translate(72.24 1.928)" fill="none" stroke="#473911" stroke-linecap="round" stroke-linejoin="round" stroke-miterlimit="10" stroke-width="2.547"/>
      <path id="Path_88546" data-name="Path 88546" d="M370.483,296.311h-22.9" transform="translate(65.907 9.521)" fill="none" stroke="#473911" stroke-linecap="round" stroke-linejoin="round" stroke-miterlimit="10" stroke-width="2.547"/>
      <path id="Path_88547" data-name="Path 88547" d="M370.483,302.674h-22.9" transform="translate(65.907 12.682)" fill="none" stroke="#473911" stroke-linecap="round" stroke-linejoin="round" stroke-miterlimit="10" stroke-width="2.547"/>
      <path id="Path_88548" data-name="Path 88548" d="M370.483,309.039h-22.9" transform="translate(65.907 15.845)" fill="none" stroke="#473911" stroke-linecap="round" stroke-linejoin="round" stroke-miterlimit="10" stroke-width="2.547"/>
      <path id="Path_88549" data-name="Path 88549" d="M238.758,338.545a20.421,20.421,0,1,0-20.421-20.421A20.42,20.42,0,0,0,238.758,338.545Z" transform="translate(1.684 10.213)" fill="none" stroke="#473911" stroke-linecap="round" stroke-linejoin="round" stroke-miterlimit="10" stroke-width="2.037"/>
      <path id="Path_88550" data-name="Path 88550" d="M243.331,331.294a15.883,15.883,0,1,0-20.753-8.6A15.882,15.882,0,0,0,243.331,331.294Z" transform="translate(3.189 11.718)" fill="none" stroke="#473911" stroke-linecap="round" stroke-linejoin="round" stroke-miterlimit="10" stroke-width="2.037"/>
      <path id="Path_88551" data-name="Path 88551" d="M234.337,313.705a2.27,2.27,0,1,0-3.211,0A2.271,2.271,0,0,0,234.337,313.705Z" transform="translate(7.709 16.238)" fill="none" stroke="#473911" stroke-linecap="round" stroke-linejoin="round" stroke-miterlimit="10" stroke-width="2.037"/>
      <path id="Path_88552" data-name="Path 88552" d="M275.8,295.406H210v-7.941a3.4,3.4,0,0,1,3.4-3.4H272.4a3.4,3.4,0,0,1,3.4,3.4Z" transform="translate(-2.459 3.434)" fill="none" stroke="#473911" stroke-linecap="round" stroke-linejoin="round" stroke-miterlimit="10" stroke-width="2.037"/>
      <path id="Path_88553" data-name="Path 88553" d="M259.058,333.615h12.209a4.537,4.537,0,0,0,4.537-4.537V291.641H210v37.437a4.537,4.537,0,0,0,4.537,4.537h12.209" transform="translate(-2.459 7.2)" fill="none" stroke="#473911" stroke-linecap="round" stroke-linejoin="round" stroke-miterlimit="10" stroke-width="2.037"/>
      <path id="Path_88554" data-name="Path 88554" d="M230.464,299.334v-2.394a2.276,2.276,0,0,1,2.271-2.271A2.285,2.285,0,0,1,235,296.941v2.394" transform="translate(7.71 8.705)" fill="none" stroke="#473911" stroke-linecap="round" stroke-linejoin="round" stroke-miterlimit="10" stroke-width="2.037"/>
      <path id="Path_88555" data-name="Path 88555" d="M240.526,305.283l-7.478,7.477" transform="translate(8.994 13.979)" fill="none" stroke="#473911" stroke-linecap="round" stroke-linejoin="round" stroke-miterlimit="10" stroke-width="2.037"/>
      <path id="Path_88556" data-name="Path 88556" d="M231.979,300.736v3.4" transform="translate(8.463 11.719)" fill="none" stroke="#473911" stroke-linecap="round" stroke-linejoin="round" stroke-miterlimit="10" stroke-width="2.037"/>
      <path id="Path_88557" data-name="Path 88557" d="M224.478,303.844l2.406,2.405" transform="translate(4.735 13.264)" fill="none" stroke="#473911" stroke-linecap="round" stroke-linejoin="round" stroke-miterlimit="10" stroke-width="2.037"/>
      <path id="Path_88558" data-name="Path 88558" d="M221.368,311.346h3.4" transform="translate(3.19 16.991)" fill="none" stroke="#473911" stroke-linecap="round" stroke-linejoin="round" stroke-miterlimit="10" stroke-width="2.037"/>
      <path id="Path_88559" data-name="Path 88559" d="M224.478,319.647l2.406-2.406" transform="translate(4.735 19.921)" fill="none" stroke="#473911" stroke-linecap="round" stroke-linejoin="round" stroke-miterlimit="10" stroke-width="2.037"/>
      <path id="Path_88560" data-name="Path 88560" d="M231.979,323.086v-3.4" transform="translate(8.463 21.134)" fill="none" stroke="#473911" stroke-linecap="round" stroke-linejoin="round" stroke-miterlimit="10" stroke-width="2.037"/>
      <path id="Path_88561" data-name="Path 88561" d="M240.28,319.647l-2.406-2.406" transform="translate(11.392 19.921)" fill="none" stroke="#473911" stroke-linecap="round" stroke-linejoin="round" stroke-miterlimit="10" stroke-width="2.037"/>
      <path id="Path_88562" data-name="Path 88562" d="M243.72,311.346h-3.4" transform="translate(12.605 16.991)" fill="none" stroke="#473911" stroke-linecap="round" stroke-linejoin="round" stroke-miterlimit="10" stroke-width="2.037"/>
      <path id="Path_88563" data-name="Path 88563" d="M216.063,281.03v9.076" transform="translate(0.554 1.928)" fill="none" stroke="#473911" stroke-linecap="round" stroke-linejoin="round" stroke-miterlimit="10" stroke-width="2.037"/>
      <path id="Path_88564" data-name="Path 88564" d="M221.368,281.03v9.076" transform="translate(3.19 1.928)" fill="none" stroke="#473911" stroke-linecap="round" stroke-linejoin="round" stroke-miterlimit="10" stroke-width="2.037"/>
      <path id="Path_88565" data-name="Path 88565" d="M226.674,281.03v9.076" transform="translate(5.827 1.928)" fill="none" stroke="#473911" stroke-linecap="round" stroke-linejoin="round" stroke-miterlimit="10" stroke-width="2.037"/>
      <path id="Path_88566" data-name="Path 88566" d="M231.979,281.03v9.076" transform="translate(8.463 1.928)" fill="none" stroke="#473911" stroke-linecap="round" stroke-linejoin="round" stroke-miterlimit="10" stroke-width="2.037"/>
      <path id="Path_88567" data-name="Path 88567" d="M237.284,281.03v9.076" transform="translate(11.099 1.928)" fill="none" stroke="#473911" stroke-linecap="round" stroke-linejoin="round" stroke-miterlimit="10" stroke-width="2.037"/>
      <path id="Path_88568" data-name="Path 88568" d="M242.59,281.03v9.076" transform="translate(13.735 1.928)" fill="none" stroke="#473911" stroke-linecap="round" stroke-linejoin="round" stroke-miterlimit="10" stroke-width="2.037"/>
      <path id="Path_88569" data-name="Path 88569" d="M247.9,281.03v9.076" transform="translate(16.371 1.928)" fill="none" stroke="#473911" stroke-linecap="round" stroke-linejoin="round" stroke-miterlimit="10" stroke-width="2.037"/>
      <path id="Path_88570" data-name="Path 88570" d="M645.348,327.338a27.9,27.9,0,1,0-39.457,0A27.9,27.9,0,0,0,645.348,327.338Z" transform="translate(190.197 1.272)" fill="none" stroke="#473911" stroke-linecap="round" stroke-linejoin="round" stroke-miterlimit="10" stroke-width="2.037"/>
      <path id="Path_88571" data-name="Path 88571" d="M631.631,310.875l17.017,12.542a4.559,4.559,0,0,1-2.72,8.23,4.613,4.613,0,0,1-3.244-1.337l-15.518-15.472" transform="translate(204.828 16.757)" fill="none" stroke="#473911" stroke-linecap="round" stroke-linejoin="round" stroke-miterlimit="10" stroke-width="2.037"/>
      <path id="Path_88572" data-name="Path 88572" d="M624.077,282.817a23.249,23.249,0,1,1-6.976,1.07" transform="translate(191.74 2.816)" fill="none" stroke="#473911" stroke-linecap="round" stroke-linejoin="round" stroke-miterlimit="10" stroke-width="2.037"/>
      <path id="Path_88573" data-name="Path 88573" d="M606.263,303.785h30.225" transform="translate(194.442 13.234)" fill="none" stroke="#473911" stroke-linecap="round" stroke-linejoin="round" stroke-miterlimit="10" stroke-width="2.037"/>
      <path id="Path_88574" data-name="Path 88574" d="M624.9,302.231l2.326,2.326L624.9,306.88" transform="translate(203.703 12.462)" fill="none" stroke="#473911" stroke-linecap="round" stroke-linejoin="round" stroke-miterlimit="10" stroke-width="2.037"/>
      <path id="Path_88575" data-name="Path 88575" d="M611.91,298.28l-1.025,3.179-3.179-1.025" transform="translate(195.158 10.499)" fill="none" stroke="#473911" stroke-linecap="round" stroke-linejoin="round" stroke-miterlimit="10" stroke-width="2.037"/>
      <path id="Path_88576" data-name="Path 88576" d="M619.668,311.078a11.027,11.027,0,1,0-9.246-5.022" transform="translate(195.625 5.902)" fill="none" stroke="#473911" stroke-linecap="round" stroke-linejoin="round" stroke-miterlimit="10" stroke-width="2.037"/>
      <path id="Path_88577" data-name="Path 88577" d="M361.391,142.167a17.776,17.776,0,1,0-17.777-17.777A17.776,17.776,0,0,0,361.391,142.167Z" transform="translate(63.933 -84.738)" fill="none" stroke="#473911" stroke-linecap="round" stroke-linejoin="round" stroke-miterlimit="10" stroke-width="2.037"/>
      <path id="Path_88578" data-name="Path 88578" d="M359.06,120.03a2.735,2.735,0,1,0-3.292,2.034A2.736,2.736,0,0,0,359.06,120.03Z" transform="translate(68.926 -79.744)" fill="none" stroke="#473911" stroke-linecap="round" stroke-linejoin="round" stroke-miterlimit="10" stroke-width="2.037"/>
      <path id="Path_88579" data-name="Path 88579" d="M379.641,142.642a23.245,23.245,0,1,0-32.873,0A23.243,23.243,0,0,0,379.641,142.642Z" transform="translate(62.118 -86.554)" fill="none" stroke="#473911" stroke-linecap="round" stroke-linejoin="round" stroke-miterlimit="10" stroke-width="2.037"/>
      <path id="Path_88580" data-name="Path 88580" d="M375.209,147.4v-7.44a1.847,1.847,0,0,1,2.864-1.452l5.887,3.72a1.7,1.7,0,0,1,0,2.907l-5.887,3.72A1.849,1.849,0,0,1,375.209,147.4Z" transform="translate(79.633 -69.039)" fill="#473911"/>
      <path id="Path_88581" data-name="Path 88581" d="M358.667,101.191V93.748A1.847,1.847,0,0,0,355.8,92.3l-5.889,3.72a1.7,1.7,0,0,0,0,2.906l5.889,3.72A1.848,1.848,0,0,0,358.667,101.191Z" transform="translate(66.657 -92)" fill="#473911"/>
      <path id="Path_88582" data-name="Path 88582" d="M363.054,113.01l-6.276,6.276" transform="translate(70.474 -81.56)" fill="none" stroke="#473911" stroke-linecap="round" stroke-linejoin="round" stroke-miterlimit="10" stroke-width="2.037"/>
      <path id="Path_88583" data-name="Path 88583" d="M355.49,106.616v4.1" transform="translate(69.834 -84.737)" fill="none" stroke="#473911" stroke-linecap="round" stroke-linejoin="round" stroke-miterlimit="10" stroke-width="2.037"/>
      <path id="Path_88584" data-name="Path 88584" d="M347.093,110.092,350,113" transform="translate(65.662 -83.01)" fill="none" stroke="#473911" stroke-linecap="round" stroke-linejoin="round" stroke-miterlimit="10" stroke-width="2.037"/>
      <path id="Path_88585" data-name="Path 88585" d="M343.616,118.489h4.1" transform="translate(63.934 -78.838)" fill="none" stroke="#473911" stroke-linecap="round" stroke-linejoin="round" stroke-miterlimit="10" stroke-width="2.037"/>
      <path id="Path_88586" data-name="Path 88586" d="M347.093,127.848l2.9-2.9" transform="translate(65.662 -75.628)" fill="none" stroke="#473911" stroke-linecap="round" stroke-linejoin="round" stroke-miterlimit="10" stroke-width="2.037"/>
      <path id="Path_88587" data-name="Path 88587" d="M355.49,131.727v-4.1" transform="translate(69.834 -74.299)" fill="none" stroke="#473911" stroke-linecap="round" stroke-linejoin="round" stroke-miterlimit="10" stroke-width="2.037"/>
      <path id="Path_88588" data-name="Path 88588" d="M364.85,127.848l-2.9-2.9" transform="translate(73.044 -75.628)" fill="none" stroke="#473911" stroke-linecap="round" stroke-linejoin="round" stroke-miterlimit="10" stroke-width="2.037"/>
      <path id="Path_88589" data-name="Path 88589" d="M368.726,118.489h-4.1" transform="translate(74.374 -78.838)" fill="none" stroke="#473911" stroke-linecap="round" stroke-linejoin="round" stroke-miterlimit="10" stroke-width="2.037"/>
      <path id="Path_88590" data-name="Path 88590" d="M329,141.325h69.733" transform="translate(56.672 -67.491)" fill="none" stroke="#473911" stroke-linecap="round" stroke-linejoin="round" stroke-miterlimit="10" stroke-width="2.037"/>
      <path id="Path_88591" data-name="Path 88591" d="M355.49,95.653a34.184,34.184,0,0,1,0,68.367" transform="translate(69.834 -90.185)" fill="none" stroke="#473911" stroke-linecap="round" stroke-linejoin="round" stroke-miterlimit="10" stroke-width="2.037"/>
      <path id="Path_88592" data-name="Path 88592" d="M114,381.663v39.725H869.931v-46.4" transform="translate(-50.16 48.613)" fill="none" stroke="#6a6a6a" stroke-linecap="round" stroke-linejoin="round" stroke-width="0.764" stroke-dasharray="0.25 7.13"/>
      <path id="Path_88593" data-name="Path 88593" d="M722.841,335.769v-212.7H405.5" transform="translate(94.684 -76.563)" fill="none" stroke="#6a6a6a" stroke-linecap="round" stroke-width="0.764" stroke-dasharray="0.25 7.13"/>
      <path id="Path_88594" data-name="Path 88594" d="M352.834,125.1H233.5V337.045" transform="translate(9.218 -75.551)" fill="none" stroke="#6a6a6a" stroke-linecap="round" stroke-width="0.764" stroke-dasharray="0.25 7.13"/>
      <path id="Path_88595" data-name="Path 88595" d="M91.189,350.624V336.646h6.14a4.44,4.44,0,0,1,3.346,1.269,4.553,4.553,0,0,1-.01,6.232,4.449,4.449,0,0,1-3.336,1.259H93.645v5.218Zm2.456-7.378H97a2.423,2.423,0,0,0,1.709-.614,2.248,2.248,0,0,0,0-3.212A2.418,2.418,0,0,0,97,338.8H93.645Zm10.233,7.378V340.5h2.2v1.483a4.884,4.884,0,0,1,1.474-1.238,3.708,3.708,0,0,1,1.82-.48v2.179a3.321,3.321,0,0,0-.7-.061,3.241,3.241,0,0,0-1.483.409,2.688,2.688,0,0,0-1.115.931v6.9Zm6.641-5.076a5.671,5.671,0,0,1,.368-2.046,5.2,5.2,0,0,1,1.024-1.689,4.694,4.694,0,0,1,1.647-1.145,5.44,5.44,0,0,1,2.16-.421,5.233,5.233,0,0,1,2.772.727,4.744,4.744,0,0,1,1.822,1.924,5.6,5.6,0,0,1,.624,2.65,5.743,5.743,0,0,1-.624,2.681,4.744,4.744,0,0,1-1.822,1.923,5.233,5.233,0,0,1-2.772.727,5.465,5.465,0,0,1-2.16-.419,4.9,4.9,0,0,1-1.647-1.147,5.327,5.327,0,0,1-1.024-1.7A5.786,5.786,0,0,1,110.519,345.548Zm2.281,0a3.708,3.708,0,0,0,.789,2.395,2.818,2.818,0,0,0,4.266.01,3.724,3.724,0,0,0,.789-2.405,3.651,3.651,0,0,0-.789-2.374,2.828,2.828,0,0,0-4.266,0A3.65,3.65,0,0,0,112.8,345.548Zm9.731.021a5.729,5.729,0,0,1,1.248-3.868,4.107,4.107,0,0,1,3.254-1.453,3.92,3.92,0,0,1,1.79.43,4.252,4.252,0,0,1,1.464,1.229v-5.26h2.2v13.978h-2.2v-1.382a4.311,4.311,0,0,1-1.443,1.208,3.96,3.96,0,0,1-1.811.43,4.147,4.147,0,0,1-3.254-1.422A5.715,5.715,0,0,1,122.531,345.569Zm2.283,0a3.668,3.668,0,0,0,.777,2.415,2.579,2.579,0,0,0,2.078.942,3.249,3.249,0,0,0,1.5-.379,2.948,2.948,0,0,0,1.115-.961v-4.022a2.986,2.986,0,0,0-1.126-.971,3.116,3.116,0,0,0-1.494-.389,2.578,2.578,0,0,0-2.078.942A3.661,3.661,0,0,0,124.814,345.569Zm10.519,2.1V340.5h2.2v6.365a2.075,2.075,0,0,0,.521,1.6,2.225,2.225,0,0,0,1.515.46,3.05,3.05,0,0,0,1.483-.379,3.345,3.345,0,0,0,1.115-.942v-7.1h2.2v10.121h-2.2v-1.341a5.015,5.015,0,0,1-1.545,1.147,4.56,4.56,0,0,1-2.036.451,3.31,3.31,0,0,1-2.435-.819A3.244,3.244,0,0,1,135.333,347.666Zm11.266-2.118a5.2,5.2,0,0,1,1.464-3.8,5.055,5.055,0,0,1,3.775-1.5,4.537,4.537,0,0,1,3.878,1.8l-1.452,1.341a2.688,2.688,0,0,0-2.323-1.187,2.866,2.866,0,0,0-2.221.931,3.473,3.473,0,0,0-.838,2.414,3.525,3.525,0,0,0,.838,2.435,2.854,2.854,0,0,0,2.221.942,2.73,2.73,0,0,0,2.323-1.2l1.452,1.341a4.547,4.547,0,0,1-3.878,1.811,5.055,5.055,0,0,1-3.775-1.5A5.261,5.261,0,0,1,146.6,345.548Zm9.8-3.121V340.5h1.678v-2.772h2.2V340.5h2.057v1.924H160.28v5.3a1.4,1.4,0,0,0,.256.87.857.857,0,0,0,.717.328,1.651,1.651,0,0,0,.572-.1,1.136,1.136,0,0,0,.41-.256l.521,1.657a2.9,2.9,0,0,1-2.076.656,2.334,2.334,0,0,1-2.6-2.6v-5.853Zm-66.358,30.65V359.1H96.92a4.036,4.036,0,0,1,2.916,1.013,3.367,3.367,0,0,1,1.064,2.548,3.244,3.244,0,0,1-.706,2.129,2.944,2.944,0,0,1-1.719,1.075,2.974,2.974,0,0,1,1.913,1.166,3.552,3.552,0,0,1,.788,2.271,3.649,3.649,0,0,1-1.074,2.723,4.087,4.087,0,0,1-2.988,1.054Zm2.456-2.159h4.022a2.242,2.242,0,0,0,1.566-.512,2.027,2.027,0,0,0,.01-2.814,2.154,2.154,0,0,0-1.576-.552H92.5Zm0-6.038h3.919a1.992,1.992,0,0,0,1.443-.5,1.866,1.866,0,0,0,0-2.609,1.972,1.972,0,0,0-1.443-.512H92.5Zm10.468,5.1a3.416,3.416,0,0,1,.307-1.485,2.751,2.751,0,0,1,.829-1.033,3.87,3.87,0,0,1,1.126-.584,4.165,4.165,0,0,1,1.259-.195,4.063,4.063,0,0,1,3.263,1.3v-1.5a1.633,1.633,0,0,0-.654-1.371,2.67,2.67,0,0,0-1.709-.512,4.163,4.163,0,0,0-3,1.269l-.9-1.525a6.364,6.364,0,0,1,5.864-1.432,4.092,4.092,0,0,1,1.329.614,2.728,2.728,0,0,1,.931,1.147,4,4,0,0,1,.338,1.708v6.7h-2.2v-1.085a3.8,3.8,0,0,1-1.422.992,4.763,4.763,0,0,1-1.841.349,3.737,3.737,0,0,1-1.248-.216,4.033,4.033,0,0,1-1.136-.614,3.018,3.018,0,0,1-.829-1.064A3.4,3.4,0,0,1,102.967,369.977Zm2.22.04a1.621,1.621,0,0,0,.6,1.31,2.408,2.408,0,0,0,1.555.491,3.6,3.6,0,0,0,1.391-.267,2.386,2.386,0,0,0,1.013-.777v-1.536a2.309,2.309,0,0,0-1.013-.766,3.494,3.494,0,0,0-1.391-.277,2.38,2.38,0,0,0-1.555.5A1.615,1.615,0,0,0,105.187,370.018ZM114.182,368a5.2,5.2,0,0,1,1.464-3.8,5.055,5.055,0,0,1,3.775-1.5,4.539,4.539,0,0,1,3.878,1.8l-1.453,1.341a2.685,2.685,0,0,0-2.322-1.187,2.863,2.863,0,0,0-2.221.931,3.466,3.466,0,0,0-.838,2.414,3.518,3.518,0,0,0,.838,2.436,2.852,2.852,0,0,0,2.221.942,2.726,2.726,0,0,0,2.322-1.2l1.453,1.341a4.548,4.548,0,0,1-3.878,1.811,5.055,5.055,0,0,1-3.775-1.5A5.261,5.261,0,0,1,114.182,368Zm11.041,5.076V359.1h2.2v8.739l4.471-4.881h2.723l-4.217,4.585,4.3,5.535h-2.762l-3.1-4.175-1.412,1.453v2.721Zm11.031,0V359.1h2.2v13.978ZM140.684,368a5.671,5.671,0,0,1,.368-2.046,5.2,5.2,0,0,1,1.024-1.689,4.687,4.687,0,0,1,1.648-1.145,5.433,5.433,0,0,1,2.159-.421,5.229,5.229,0,0,1,2.772.727,4.734,4.734,0,0,1,1.822,1.924A5.6,5.6,0,0,1,151.1,368a5.744,5.744,0,0,1-.624,2.681,4.734,4.734,0,0,1-1.822,1.923,5.229,5.229,0,0,1-2.772.727,5.458,5.458,0,0,1-2.159-.419,4.89,4.89,0,0,1-1.648-1.147,5.326,5.326,0,0,1-1.024-1.7A5.785,5.785,0,0,1,140.684,368Zm2.283,0a3.707,3.707,0,0,0,.787,2.4,2.819,2.819,0,0,0,4.268.01,3.723,3.723,0,0,0,.787-2.406,3.649,3.649,0,0,0-.787-2.374,2.829,2.829,0,0,0-4.268,0A3.649,3.649,0,0,0,142.967,368Zm9.731-.1a5.478,5.478,0,0,1,1.248-3.8,4.126,4.126,0,0,1,3.233-1.4,3.9,3.9,0,0,1,1.8.43,4.3,4.3,0,0,1,1.453,1.229v-1.4h2.2v9.6a5.294,5.294,0,0,1-.307,1.873,3.606,3.606,0,0,1-.808,1.331,3.941,3.941,0,0,1-1.187.838,5.3,5.3,0,0,1-1.391.451,8.165,8.165,0,0,1-1.5.133,7.377,7.377,0,0,1-2.344-.337,5.367,5.367,0,0,1-1.892-1.168l1.022-1.6a4.022,4.022,0,0,0,3.214,1.3,3.876,3.876,0,0,0,1.073-.144,3.123,3.123,0,0,0,.952-.451,1.98,1.98,0,0,0,.707-.849,2.973,2.973,0,0,0,.266-1.3v-1.218a4.486,4.486,0,0,1-1.453,1.229,3.762,3.762,0,0,1-1.8.451,4.175,4.175,0,0,1-3.233-1.371A5.5,5.5,0,0,1,152.7,367.9Zm3.06-2.353a3.441,3.441,0,0,0-.778,2.353,3.483,3.483,0,0,0,.778,2.364,2.622,2.622,0,0,0,2.076.891,3.1,3.1,0,0,0,1.494-.4,2.944,2.944,0,0,0,1.106-.971v-3.766a2.861,2.861,0,0,0-1.106-.961,3.1,3.1,0,0,0-1.494-.4A2.617,2.617,0,0,0,155.758,365.547Z" transform="translate(-62.064 29.563)" fill="#3b3535"/>
      <path id="Path_88596" data-name="Path 88596" d="M217.265,348.718l1.362-1.883a6.39,6.39,0,0,0,1.934,1.391,5.7,5.7,0,0,0,2.5.543,3.3,3.3,0,0,0,2.1-.563,1.7,1.7,0,0,0,.707-1.352,1.242,1.242,0,0,0-.287-.817,1.968,1.968,0,0,0-.747-.563,6.652,6.652,0,0,0-1.084-.4q-.6-.175-1.28-.338t-1.361-.368a8.082,8.082,0,0,1-1.289-.512,5.561,5.561,0,0,1-1.075-.726,3.078,3.078,0,0,1-.757-1.064,3.709,3.709,0,0,1-.277-1.473,3.631,3.631,0,0,1,1.413-2.916,5.614,5.614,0,0,1,3.684-1.168,7.211,7.211,0,0,1,5.239,1.945l-1.4,1.822a5.141,5.141,0,0,0-1.852-1.187,6.01,6.01,0,0,0-2.19-.41,2.852,2.852,0,0,0-1.729.482,1.482,1.482,0,0,0-.645,1.259,1.074,1.074,0,0,0,.277.726,2.114,2.114,0,0,0,.747.512,10.333,10.333,0,0,0,1.084.368q.615.164,1.29.337c.449.117.9.245,1.34.389a7.051,7.051,0,0,1,1.289.533,5.261,5.261,0,0,1,1.085.757,3.017,3.017,0,0,1,.747,1.094,3.815,3.815,0,0,1,.277,1.494,4.165,4.165,0,0,1-.328,1.657,3.9,3.9,0,0,1-.962,1.371,4.406,4.406,0,0,1-1.7.952,7.916,7.916,0,0,1-2.425.338A7.406,7.406,0,0,1,217.265,348.718Zm13.282,5.832V340.572h2.2v1.382a4.022,4.022,0,0,1,1.422-1.2,3.966,3.966,0,0,1,1.832-.44,4.1,4.1,0,0,1,3.244,1.422,6.7,6.7,0,0,1-.01,7.778A4.068,4.068,0,0,1,236,350.948a3.99,3.99,0,0,1-1.8-.419,4.268,4.268,0,0,1-1.453-1.239v5.26Zm2.2-6.917a2.973,2.973,0,0,0,1.1.963,3.162,3.162,0,0,0,1.5.4,2.545,2.545,0,0,0,2.066-.942,3.664,3.664,0,0,0,.789-2.435,3.594,3.594,0,0,0-.789-2.4,2.545,2.545,0,0,0-2.066-.942,3.108,3.108,0,0,0-1.5.4,2.856,2.856,0,0,0-1.1.961Zm9.915,3.06V340.572h2.2v1.483a4.9,4.9,0,0,1,1.473-1.238,3.718,3.718,0,0,1,1.822-.48v2.18a3.317,3.317,0,0,0-.7-.061,3.237,3.237,0,0,0-1.483.409,2.688,2.688,0,0,0-1.115.931v6.9Zm7.4-11.758a1.357,1.357,0,0,1,0-1.924,1.334,1.334,0,0,1,.961-.4,1.294,1.294,0,0,1,.963.4,1.361,1.361,0,0,1,0,1.924,1.29,1.29,0,0,1-.963.4A1.33,1.33,0,0,1,250.062,338.934Zm-.133,11.758V340.572h2.2v10.121Zm5.055,0V340.572h2.2v1.382A4.849,4.849,0,0,1,258.7,340.8a4.418,4.418,0,0,1,2.046-.482,2.926,2.926,0,0,1,3.275,3.254v7.122h-2.2v-6.324a2.079,2.079,0,0,0-.531-1.606,2.115,2.115,0,0,0-1.5-.491,2.948,2.948,0,0,0-1.494.4,3.33,3.33,0,0,0-1.106.961v7.061Zm10.652-8.2v-1.924h1.678V337.8h2.2v2.772h2.057V342.5h-2.057v5.3a1.4,1.4,0,0,0,.256.87.856.856,0,0,0,.716.328,1.659,1.659,0,0,0,.573-.1,1.129,1.129,0,0,0,.409-.256l.522,1.657a2.9,2.9,0,0,1-2.078.656,2.332,2.332,0,0,1-2.6-2.6V342.5Zm-58.009,30.65V359.167h6.14a4.44,4.44,0,0,1,3.346,1.269,4.554,4.554,0,0,1-.01,6.232,4.449,4.449,0,0,1-3.335,1.259h-3.684v5.218Zm2.456-7.378h3.356a2.42,2.42,0,0,0,1.708-.614,2.245,2.245,0,0,0,0-3.212,2.414,2.414,0,0,0-1.708-.615h-3.356Zm10.233,7.378V359.167h2.2v13.978Zm4.45-3.1a3.432,3.432,0,0,1,.307-1.485,2.761,2.761,0,0,1,.829-1.033,3.86,3.86,0,0,1,1.126-.584,4.17,4.17,0,0,1,1.259-.195,4.061,4.061,0,0,1,3.263,1.3v-1.5a1.629,1.629,0,0,0-.654-1.371,2.67,2.67,0,0,0-1.709-.512,4.164,4.164,0,0,0-3,1.269l-.9-1.525a6.362,6.362,0,0,1,5.863-1.432,4.09,4.09,0,0,1,1.329.614,2.742,2.742,0,0,1,.933,1.147,4.025,4.025,0,0,1,.337,1.708v6.7h-2.2V372.06a3.8,3.8,0,0,1-1.422.992,4.763,4.763,0,0,1-1.841.349,3.737,3.737,0,0,1-1.248-.216,4.02,4.02,0,0,1-1.136-.614,3.029,3.029,0,0,1-.829-1.064A3.42,3.42,0,0,1,224.766,370.045Zm2.221.04a1.62,1.62,0,0,0,.6,1.31,2.408,2.408,0,0,0,1.555.491,3.6,3.6,0,0,0,1.392-.266,2.391,2.391,0,0,0,1.012-.777v-1.536a2.313,2.313,0,0,0-1.012-.766,3.5,3.5,0,0,0-1.392-.277,2.38,2.38,0,0,0-1.555.5A1.614,1.614,0,0,0,226.988,370.086Zm9.618,3.06V363.025h2.2v1.382a4.833,4.833,0,0,1,1.515-1.156,4.417,4.417,0,0,1,2.046-.482,2.924,2.924,0,0,1,3.274,3.254v7.122h-2.2v-6.324a2.079,2.079,0,0,0-.533-1.606,2.11,2.11,0,0,0-1.5-.491,2.952,2.952,0,0,0-1.494.4,3.31,3.31,0,0,0-1.1.961v7.061Zm11.891,0V363.025h2.2v1.382a4.85,4.85,0,0,1,1.515-1.156,4.417,4.417,0,0,1,2.046-.482,2.926,2.926,0,0,1,3.275,3.254v7.122h-2.2v-6.324a2.079,2.079,0,0,0-.531-1.606,2.115,2.115,0,0,0-1.5-.491,2.948,2.948,0,0,0-1.494.4,3.331,3.331,0,0,0-1.106.961v7.061Zm12.023-11.758a1.357,1.357,0,0,1,0-1.923,1.334,1.334,0,0,1,.961-.4,1.292,1.292,0,0,1,.962.4,1.357,1.357,0,0,1,0,1.923,1.287,1.287,0,0,1-.962.4A1.33,1.33,0,0,1,260.52,361.387Zm-.133,11.758V363.025h2.2v10.121Zm5.055,0V363.025h2.2v1.382a4.826,4.826,0,0,1,1.513-1.156,4.423,4.423,0,0,1,2.048-.482,2.926,2.926,0,0,1,3.274,3.254v7.122h-2.2v-6.324a2.079,2.079,0,0,0-.531-1.606,2.11,2.11,0,0,0-1.5-.491,2.952,2.952,0,0,0-1.494.4,3.31,3.31,0,0,0-1.1.961v7.061Zm11.266-5.178a5.477,5.477,0,0,1,1.248-3.8,4.127,4.127,0,0,1,3.235-1.4,3.9,3.9,0,0,1,1.8.43,4.3,4.3,0,0,1,1.452,1.229v-1.4h2.2v9.6a5.293,5.293,0,0,1-.307,1.873,3.646,3.646,0,0,1-.808,1.331,3.942,3.942,0,0,1-1.187.838,5.285,5.285,0,0,1-1.392.451,8.137,8.137,0,0,1-1.5.133,7.366,7.366,0,0,1-2.343-.337,5.372,5.372,0,0,1-1.894-1.168l1.024-1.6a4.019,4.019,0,0,0,3.212,1.3,3.88,3.88,0,0,0,1.075-.144,3.124,3.124,0,0,0,.952-.451,1.99,1.99,0,0,0,.706-.849,2.974,2.974,0,0,0,.265-1.3v-1.218a4.482,4.482,0,0,1-1.452,1.229,3.763,3.763,0,0,1-1.8.451,4.176,4.176,0,0,1-3.235-1.371A5.5,5.5,0,0,1,276.707,367.968Zm3.06-2.353a3.448,3.448,0,0,0-.777,2.353,3.489,3.489,0,0,0,.777,2.364,2.625,2.625,0,0,0,2.078.891,3.1,3.1,0,0,0,1.494-.4,2.939,2.939,0,0,0,1.1-.971v-3.766a2.856,2.856,0,0,0-1.1-.961,3.1,3.1,0,0,0-1.494-.4A2.62,2.62,0,0,0,279.767,365.615Z" transform="translate(-3.638 29.495)" fill="#3b3535"/>
      <path id="Path_88597" data-name="Path 88597" d="M339.2,348.718l1.362-1.883a6.39,6.39,0,0,0,1.934,1.391,5.7,5.7,0,0,0,2.5.543,3.3,3.3,0,0,0,2.1-.563,1.7,1.7,0,0,0,.706-1.352,1.242,1.242,0,0,0-.287-.817,1.968,1.968,0,0,0-.747-.563,6.654,6.654,0,0,0-1.084-.4q-.6-.175-1.28-.338t-1.361-.368a8.082,8.082,0,0,1-1.289-.512,5.561,5.561,0,0,1-1.075-.726,3.078,3.078,0,0,1-.757-1.064,3.709,3.709,0,0,1-.277-1.473,3.631,3.631,0,0,1,1.413-2.916,5.614,5.614,0,0,1,3.684-1.168,7.211,7.211,0,0,1,5.239,1.945l-1.4,1.822a5.141,5.141,0,0,0-1.852-1.187,6.01,6.01,0,0,0-2.19-.41,2.852,2.852,0,0,0-1.729.482,1.482,1.482,0,0,0-.645,1.259,1.074,1.074,0,0,0,.277.726,2.114,2.114,0,0,0,.747.512,10.329,10.329,0,0,0,1.084.368q.615.164,1.29.337c.449.117.9.245,1.34.389a7.05,7.05,0,0,1,1.289.533,5.261,5.261,0,0,1,1.085.757,3.017,3.017,0,0,1,.747,1.094,3.814,3.814,0,0,1,.277,1.494,4.165,4.165,0,0,1-.328,1.657,3.9,3.9,0,0,1-.963,1.371,4.405,4.405,0,0,1-1.7.952,7.916,7.916,0,0,1-2.425.338A7.406,7.406,0,0,1,339.2,348.718Zm13.282,5.832V340.572h2.2v1.382a4.022,4.022,0,0,1,1.422-1.2,3.966,3.966,0,0,1,1.832-.44,4.1,4.1,0,0,1,3.244,1.422,6.7,6.7,0,0,1-.01,7.778,4.068,4.068,0,0,1-3.233,1.432,3.99,3.99,0,0,1-1.8-.419,4.268,4.268,0,0,1-1.453-1.239v5.26Zm2.2-6.917a2.973,2.973,0,0,0,1.1.963,3.162,3.162,0,0,0,1.5.4,2.545,2.545,0,0,0,2.066-.942,3.664,3.664,0,0,0,.789-2.435,3.594,3.594,0,0,0-.789-2.4,2.545,2.545,0,0,0-2.066-.942,3.108,3.108,0,0,0-1.5.4,2.855,2.855,0,0,0-1.1.961Zm9.915,3.06V340.572h2.2v1.483a4.9,4.9,0,0,1,1.473-1.238,3.718,3.718,0,0,1,1.822-.48v2.18a3.317,3.317,0,0,0-.7-.061,3.237,3.237,0,0,0-1.483.409,2.688,2.688,0,0,0-1.115.931v6.9Zm7.4-11.758a1.357,1.357,0,0,1,0-1.924,1.334,1.334,0,0,1,.961-.4,1.294,1.294,0,0,1,.962.4,1.36,1.36,0,0,1,0,1.924,1.29,1.29,0,0,1-.962.4A1.329,1.329,0,0,1,372,338.934Zm-.133,11.758V340.572h2.2v10.121Zm5.055,0V340.572h2.2v1.382a4.849,4.849,0,0,1,1.515-1.156,4.418,4.418,0,0,1,2.046-.482,2.926,2.926,0,0,1,3.275,3.254v7.122h-2.2v-6.324a2.079,2.079,0,0,0-.531-1.606,2.115,2.115,0,0,0-1.5-.491,2.948,2.948,0,0,0-1.494.4,3.33,3.33,0,0,0-1.106.961v7.061Zm10.652-8.2v-1.924h1.678V337.8h2.2v2.772H393.5V342.5h-2.057v5.3a1.4,1.4,0,0,0,.256.87.856.856,0,0,0,.716.328,1.66,1.66,0,0,0,.573-.1,1.129,1.129,0,0,0,.409-.256l.522,1.657a2.9,2.9,0,0,1-2.078.656,2.332,2.332,0,0,1-2.6-2.6V342.5Zm-54.8,30.65V359.167h6.877a4.033,4.033,0,0,1,2.916,1.013,3.368,3.368,0,0,1,1.064,2.548,3.247,3.247,0,0,1-.705,2.129,2.945,2.945,0,0,1-1.72,1.075,2.975,2.975,0,0,1,1.915,1.166,3.56,3.56,0,0,1,.787,2.271,3.647,3.647,0,0,1-1.075,2.723,4.086,4.086,0,0,1-2.988,1.054Zm2.456-2.159h4.022a2.238,2.238,0,0,0,1.564-.512,2.027,2.027,0,0,0,.011-2.814,2.15,2.15,0,0,0-1.575-.552h-4.022Zm0-6.039h3.919a1.992,1.992,0,0,0,1.443-.5,1.863,1.863,0,0,0,0-2.609,1.972,1.972,0,0,0-1.443-.512h-3.919Zm10.468,5.1A3.432,3.432,0,0,1,346,368.56a2.761,2.761,0,0,1,.829-1.033,3.862,3.862,0,0,1,1.126-.584,4.17,4.17,0,0,1,1.259-.195,4.061,4.061,0,0,1,3.263,1.3v-1.5a1.63,1.63,0,0,0-.654-1.371,2.67,2.67,0,0,0-1.71-.512,4.164,4.164,0,0,0-3,1.269l-.9-1.525a6.362,6.362,0,0,1,5.863-1.432,4.112,4.112,0,0,1,1.331.614,2.751,2.751,0,0,1,.931,1.147,4.024,4.024,0,0,1,.337,1.708v6.7h-2.2V372.06a3.785,3.785,0,0,1-1.422.992,4.758,4.758,0,0,1-1.841.349,3.737,3.737,0,0,1-1.248-.216,4.022,4.022,0,0,1-1.136-.614,3.029,3.029,0,0,1-.829-1.064A3.42,3.42,0,0,1,345.7,370.045Zm2.221.04a1.62,1.62,0,0,0,.6,1.31,2.408,2.408,0,0,0,1.555.491,3.6,3.6,0,0,0,1.392-.266,2.391,2.391,0,0,0,1.012-.777v-1.536a2.314,2.314,0,0,0-1.012-.766,3.5,3.5,0,0,0-1.392-.277,2.38,2.38,0,0,0-1.555.5A1.614,1.614,0,0,0,347.919,370.086Zm8.993-2.016a5.2,5.2,0,0,1,1.464-3.8,5.055,5.055,0,0,1,3.775-1.5,4.537,4.537,0,0,1,3.878,1.8l-1.452,1.341a2.688,2.688,0,0,0-2.323-1.187,2.865,2.865,0,0,0-2.221.931,3.473,3.473,0,0,0-.838,2.414,3.525,3.525,0,0,0,.838,2.435,2.854,2.854,0,0,0,2.221.942,2.73,2.73,0,0,0,2.323-1.2l1.452,1.341a4.546,4.546,0,0,1-3.878,1.811,5.055,5.055,0,0,1-3.775-1.5A5.261,5.261,0,0,1,356.912,368.069Zm11.041,5.076V359.167h2.2v8.739l4.471-4.881h2.723l-4.217,4.585,4.3,5.536h-2.762l-3.1-4.175-1.412,1.453v2.721Zm11.032,0V359.167h2.2v13.978Zm4.429-5.076a5.672,5.672,0,0,1,.37-2.046,5.221,5.221,0,0,1,1.022-1.689,4.687,4.687,0,0,1,1.648-1.145,5.431,5.431,0,0,1,2.159-.421,5.238,5.238,0,0,1,2.774.727,4.741,4.741,0,0,1,1.82,1.924,5.6,5.6,0,0,1,.624,2.649,5.744,5.744,0,0,1-.624,2.681,4.741,4.741,0,0,1-1.82,1.924,5.238,5.238,0,0,1-2.774.727,5.457,5.457,0,0,1-2.159-.419,4.893,4.893,0,0,1-1.648-1.147,5.352,5.352,0,0,1-1.022-1.7A5.786,5.786,0,0,1,383.414,368.069Zm2.283,0a3.707,3.707,0,0,0,.787,2.4,2.819,2.819,0,0,0,4.268.01,3.723,3.723,0,0,0,.787-2.406,3.65,3.65,0,0,0-.787-2.374,2.829,2.829,0,0,0-4.268,0A3.649,3.649,0,0,0,385.7,368.069Zm9.731-.1a5.477,5.477,0,0,1,1.248-3.8,4.126,4.126,0,0,1,3.233-1.4,3.9,3.9,0,0,1,1.8.43,4.3,4.3,0,0,1,1.454,1.229v-1.4h2.2v9.6a5.292,5.292,0,0,1-.308,1.873,3.606,3.606,0,0,1-.808,1.331,3.923,3.923,0,0,1-1.187.838,5.292,5.292,0,0,1-1.391.451,8.16,8.16,0,0,1-1.5.133,7.375,7.375,0,0,1-2.344-.337,5.367,5.367,0,0,1-1.892-1.168l1.022-1.6a4.022,4.022,0,0,0,3.214,1.3,3.894,3.894,0,0,0,1.075-.144,3.116,3.116,0,0,0,.951-.451A1.98,1.98,0,0,0,402.9,374a2.952,2.952,0,0,0,.266-1.3v-1.218a4.488,4.488,0,0,1-1.454,1.229,3.762,3.762,0,0,1-1.8.451,4.175,4.175,0,0,1-3.233-1.371A5.5,5.5,0,0,1,395.428,367.968Zm3.06-2.353a3.441,3.441,0,0,0-.778,2.353,3.483,3.483,0,0,0,.778,2.364,2.623,2.623,0,0,0,2.078.891,3.107,3.107,0,0,0,1.494-.4,2.939,2.939,0,0,0,1.1-.971v-3.766a2.856,2.856,0,0,0-1.1-.961,3.106,3.106,0,0,0-1.494-.4A2.618,2.618,0,0,0,398.488,365.615Z" transform="translate(58.547 29.495)" fill="#3b3535"/>
      <path id="Path_88598" data-name="Path 88598" d="M601.522,346.718l1.361-1.883a6.429,6.429,0,0,0,1.934,1.391,5.711,5.711,0,0,0,2.5.543,3.3,3.3,0,0,0,2.1-.563,1.7,1.7,0,0,0,.705-1.352,1.24,1.24,0,0,0-.286-.817,1.968,1.968,0,0,0-.747-.563,6.671,6.671,0,0,0-1.085-.4q-.6-.175-1.278-.338t-1.361-.368a8.16,8.16,0,0,1-1.29-.512A5.594,5.594,0,0,1,603,341.13a3.056,3.056,0,0,1-.757-1.064,3.707,3.707,0,0,1-.277-1.473,3.631,3.631,0,0,1,1.413-2.916,5.613,5.613,0,0,1,3.682-1.168,7.206,7.206,0,0,1,5.239,1.944l-1.4,1.822a5.141,5.141,0,0,0-1.852-1.187,6.01,6.01,0,0,0-2.19-.41,2.852,2.852,0,0,0-1.729.482,1.478,1.478,0,0,0-.645,1.259,1.073,1.073,0,0,0,.275.726,2.128,2.128,0,0,0,.747.512,10.481,10.481,0,0,0,1.085.368c.409.109.84.222,1.289.337s.9.246,1.341.389a7.054,7.054,0,0,1,1.289.533,5.261,5.261,0,0,1,1.085.757,3.037,3.037,0,0,1,.747,1.094,3.815,3.815,0,0,1,.275,1.494,4.193,4.193,0,0,1-.326,1.657,3.923,3.923,0,0,1-.963,1.371,4.406,4.406,0,0,1-1.7.952,7.916,7.916,0,0,1-2.425.338A7.406,7.406,0,0,1,601.522,346.718ZM614.8,352.55V338.572H617v1.382a4.022,4.022,0,0,1,1.422-1.2,3.966,3.966,0,0,1,1.832-.44,4.1,4.1,0,0,1,3.244,1.422,6.7,6.7,0,0,1-.01,7.778,4.068,4.068,0,0,1-3.233,1.432,3.981,3.981,0,0,1-1.8-.419A4.255,4.255,0,0,1,617,347.289v5.26Zm2.2-6.917a2.974,2.974,0,0,0,1.1.963,3.161,3.161,0,0,0,1.494.4,2.545,2.545,0,0,0,2.067-.942,3.663,3.663,0,0,0,.789-2.435,3.594,3.594,0,0,0-.789-2.4,2.545,2.545,0,0,0-2.067-.942,3.1,3.1,0,0,0-1.494.4,2.857,2.857,0,0,0-1.1.961Zm9.915,3.06v-10.12h2.2v1.483a4.9,4.9,0,0,1,1.473-1.238,3.718,3.718,0,0,1,1.822-.48v2.179a3.322,3.322,0,0,0-.7-.061,3.236,3.236,0,0,0-1.483.409,2.688,2.688,0,0,0-1.115.931v6.9Zm7.4-11.758a1.361,1.361,0,0,1,0-1.924,1.34,1.34,0,0,1,.962-.4,1.3,1.3,0,0,1,.963.4,1.361,1.361,0,0,1,0,1.924,1.292,1.292,0,0,1-.963.4A1.335,1.335,0,0,1,634.317,336.934Zm-.132,11.758v-10.12h2.2v10.12Zm5.055,0v-10.12h2.2v1.382a4.833,4.833,0,0,1,1.515-1.156,4.418,4.418,0,0,1,2.046-.482,2.926,2.926,0,0,1,3.275,3.254v7.122h-2.2v-6.324a2.079,2.079,0,0,0-.533-1.606,2.108,2.108,0,0,0-1.5-.491,2.944,2.944,0,0,0-1.494.4,3.33,3.33,0,0,0-1.106.961v7.061Zm10.652-8.2v-1.924h1.678V335.8h2.2v2.772h2.057V340.5h-2.057v5.3a1.407,1.407,0,0,0,.255.87.858.858,0,0,0,.717.328,1.66,1.66,0,0,0,.573-.1,1.128,1.128,0,0,0,.409-.256l.522,1.657a2.9,2.9,0,0,1-2.078.656,2.331,2.331,0,0,1-2.6-2.6V340.5Zm-53.364,30.65V357.167h6.14a4.569,4.569,0,0,1,3.316,1.217,4.21,4.21,0,0,1,1.259,3.163,4.707,4.707,0,0,1-.277,1.647,3.555,3.555,0,0,1-.757,1.248,4.1,4.1,0,0,1-1.054.8,3.879,3.879,0,0,1-1.227.409l3.417,5.5H604.52l-3.1-5.218h-2.435v5.218Zm2.456-7.378h3.356a2.423,2.423,0,0,0,1.709-.614,2.248,2.248,0,0,0,0-3.212,2.418,2.418,0,0,0-1.709-.615h-3.356Zm9.384,2.3a5.56,5.56,0,0,1,.644-2.66,4.9,4.9,0,0,1,1.843-1.923,5.024,5.024,0,0,1,2.65-.717,4.565,4.565,0,0,1,3.612,1.555,5.741,5.741,0,0,1,1.371,3.961v.521h-7.817a3.117,3.117,0,0,0,.982,2,3.187,3.187,0,0,0,2.241.789,4.515,4.515,0,0,0,1.555-.287,3.633,3.633,0,0,0,1.32-.817l1,1.442a5.011,5.011,0,0,1-1.811,1.1,6.816,6.816,0,0,1-2.292.379,5.086,5.086,0,0,1-5.3-5.332Zm2.281-.808h5.7a2.954,2.954,0,0,0-.195-.921,3.025,3.025,0,0,0-.491-.87,2.307,2.307,0,0,0-.891-.656,3.107,3.107,0,0,0-1.269-.245,3,3,0,0,0-1.227.245,2.307,2.307,0,0,0-.88.645,3.512,3.512,0,0,0-.522.859A3.16,3.16,0,0,0,610.65,365.261Zm8.544-4.236h2.343l2.958,7.583,2.958-7.583h2.364l-4.124,10.121h-2.374Zm12.135-1.638a1.361,1.361,0,0,1,0-1.924,1.34,1.34,0,0,1,.963-.4,1.291,1.291,0,0,1,.961.4,1.357,1.357,0,0,1,0,1.924,1.287,1.287,0,0,1-.961.4A1.336,1.336,0,0,1,631.329,359.387Zm-.133,11.758V361.025h2.2v10.121Zm4.431-5.076a5.561,5.561,0,0,1,.645-2.66,4.9,4.9,0,0,1,1.843-1.923,5.024,5.024,0,0,1,2.649-.717,4.565,4.565,0,0,1,3.612,1.555,5.742,5.742,0,0,1,1.371,3.961v.521h-7.817a3.117,3.117,0,0,0,.982,2,3.187,3.187,0,0,0,2.241.789,4.515,4.515,0,0,0,1.555-.287,3.633,3.633,0,0,0,1.32-.817l1,1.442a5.011,5.011,0,0,1-1.811,1.1,6.818,6.818,0,0,1-2.293.379,5.086,5.086,0,0,1-5.3-5.332Zm2.283-.808h5.7a2.911,2.911,0,0,0-.193-.921,2.992,2.992,0,0,0-.493-.87,2.288,2.288,0,0,0-.889-.656,3.106,3.106,0,0,0-1.269-.245,3,3,0,0,0-1.227.245,2.307,2.307,0,0,0-.88.645,3.511,3.511,0,0,0-.522.859A3.158,3.158,0,0,0,637.91,365.261Zm8.688-4.236h2.281l2.139,7.357,2.415-7.357h1.923l2.414,7.357,2.139-7.357h2.283l-3.142,10.121h-2.313l-2.343-7.419-2.344,7.419h-2.313Z" transform="translate(189.605 28.501)" fill="#3b3535"/>
      <path id="Path_88599" data-name="Path 88599" d="M408.888,273.777l4.022-4.063h2.139v13.978h-2.456V272.9l-2.281,2.374Zm13.61,7.941,1.361-1.883a6.426,6.426,0,0,0,1.934,1.391,5.711,5.711,0,0,0,2.5.543,3.3,3.3,0,0,0,2.1-.563,1.7,1.7,0,0,0,.7-1.352,1.24,1.24,0,0,0-.286-.817,1.968,1.968,0,0,0-.747-.563,6.677,6.677,0,0,0-1.085-.4q-.6-.175-1.278-.338t-1.361-.368a8.156,8.156,0,0,1-1.29-.512,5.6,5.6,0,0,1-1.073-.726,3.058,3.058,0,0,1-.757-1.064,3.708,3.708,0,0,1-.277-1.473,3.632,3.632,0,0,1,1.413-2.916,5.614,5.614,0,0,1,3.684-1.168,7.211,7.211,0,0,1,5.239,1.944l-1.4,1.822a5.142,5.142,0,0,0-1.852-1.187,6.011,6.011,0,0,0-2.19-.41,2.852,2.852,0,0,0-1.729.482,1.478,1.478,0,0,0-.645,1.259,1.073,1.073,0,0,0,.275.726,2.126,2.126,0,0,0,.747.512,10.485,10.485,0,0,0,1.085.368q.615.164,1.289.337c.451.117.9.245,1.341.389a7.058,7.058,0,0,1,1.289.533,5.264,5.264,0,0,1,1.085.757,3.035,3.035,0,0,1,.747,1.094,3.814,3.814,0,0,1,.275,1.494,4.165,4.165,0,0,1-.326,1.657,3.921,3.921,0,0,1-.963,1.371,4.405,4.405,0,0,1-1.7.952,7.915,7.915,0,0,1-2.425.338A7.406,7.406,0,0,1,422.5,281.718Zm12.658-3.1a5.2,5.2,0,0,1,1.464-3.8,5.055,5.055,0,0,1,3.775-1.5,4.538,4.538,0,0,1,3.878,1.8l-1.454,1.341a2.684,2.684,0,0,0-2.322-1.187,2.866,2.866,0,0,0-2.221.931,3.473,3.473,0,0,0-.838,2.414,3.525,3.525,0,0,0,.838,2.435,2.854,2.854,0,0,0,2.221.942,2.726,2.726,0,0,0,2.322-1.2l1.454,1.341a4.547,4.547,0,0,1-3.878,1.811,5.055,5.055,0,0,1-3.775-1.5A5.261,5.261,0,0,1,435.155,278.616Zm11.041,5.076V273.572h2.2v1.483a4.895,4.895,0,0,1,1.473-1.238,3.718,3.718,0,0,1,1.822-.48v2.179a3.319,3.319,0,0,0-.7-.061,3.237,3.237,0,0,0-1.483.409,2.687,2.687,0,0,0-1.115.931v6.9Zm7.266-2.958v-7.163h2.2v6.365a2.075,2.075,0,0,0,.521,1.6,2.224,2.224,0,0,0,1.515.46,3.05,3.05,0,0,0,1.483-.379,3.36,3.36,0,0,0,1.115-.942v-7.1h2.2v10.121h-2.2v-1.341a5.015,5.015,0,0,1-1.545,1.147,4.564,4.564,0,0,1-2.036.451,3.308,3.308,0,0,1-2.435-.819A3.244,3.244,0,0,1,453.462,280.734Zm11.89,2.958V273.572h2.2v1.382a3.791,3.791,0,0,1,1.31-1.1,3.973,3.973,0,0,1,1.985-.533,2.991,2.991,0,0,1,1.79.5,2.548,2.548,0,0,1,.973,1.371,4.092,4.092,0,0,1,1.422-1.31,3.909,3.909,0,0,1,2.016-.563,2.875,2.875,0,0,1,2.159.768,3.139,3.139,0,0,1,.757,2.292v7.317h-2.2v-6.6a1.99,1.99,0,0,0-.409-1.331,1.514,1.514,0,0,0-1.248-.491,2.451,2.451,0,0,0-1.331.409,3.359,3.359,0,0,0-1.013.931v7.082h-2.209v-6.6q0-1.821-1.668-1.822a2.437,2.437,0,0,0-1.32.409,3.4,3.4,0,0,0-1.013.952v7.061Zm-44.911,10.634v-2.159h10.918v2.159h-4.226v11.819h-2.456V294.326Zm10.1,6.743a5.562,5.562,0,0,1,.645-2.66,4.9,4.9,0,0,1,1.841-1.923,5.033,5.033,0,0,1,2.651-.717,4.565,4.565,0,0,1,3.612,1.555,5.742,5.742,0,0,1,1.371,3.961v.521h-7.818a3.119,3.119,0,0,0,.983,2,3.185,3.185,0,0,0,2.241.789,4.516,4.516,0,0,0,1.555-.287,3.635,3.635,0,0,0,1.32-.817l1,1.441a5.01,5.01,0,0,1-1.811,1.1,6.818,6.818,0,0,1-2.293.379,5.086,5.086,0,0,1-5.3-5.332Zm2.283-.808h5.7a2.87,2.87,0,0,0-.195-.921,2.954,2.954,0,0,0-.491-.87,2.289,2.289,0,0,0-.889-.656,3.107,3.107,0,0,0-1.269-.246,3,3,0,0,0-1.227.246,2.306,2.306,0,0,0-.88.645,3.509,3.509,0,0,0-.522.859A3.16,3.16,0,0,0,432.823,300.261Zm9.4,2.784a3.411,3.411,0,0,1,.307-1.485,2.747,2.747,0,0,1,.829-1.033,3.86,3.86,0,0,1,1.126-.584,4.164,4.164,0,0,1,1.259-.195,4.063,4.063,0,0,1,3.263,1.3v-1.5a1.633,1.633,0,0,0-.654-1.371,2.67,2.67,0,0,0-1.709-.512,4.164,4.164,0,0,0-3,1.269l-.9-1.525a6.363,6.363,0,0,1,5.863-1.433,4.092,4.092,0,0,1,1.329.614,2.727,2.727,0,0,1,.931,1.147,4,4,0,0,1,.338,1.708v6.7h-2.2V305.06a3.8,3.8,0,0,1-1.422.992,4.763,4.763,0,0,1-1.841.349,3.738,3.738,0,0,1-1.248-.216,4.02,4.02,0,0,1-1.136-.614,3.013,3.013,0,0,1-.829-1.064A3.4,3.4,0,0,1,442.227,303.045Zm2.22.04a1.621,1.621,0,0,0,.6,1.31,2.406,2.406,0,0,0,1.555.491A3.6,3.6,0,0,0,448,304.62a2.386,2.386,0,0,0,1.013-.777v-1.536a2.31,2.31,0,0,0-1.013-.766,3.5,3.5,0,0,0-1.391-.277,2.378,2.378,0,0,0-1.555.5A1.615,1.615,0,0,0,444.447,303.086Zm9.619,3.06V296.025h2.2v1.382a3.777,3.777,0,0,1,1.31-1.1,3.973,3.973,0,0,1,1.985-.533,2.991,2.991,0,0,1,1.79.5,2.547,2.547,0,0,1,.973,1.371,4.091,4.091,0,0,1,1.422-1.31,3.909,3.909,0,0,1,2.016-.563,2.875,2.875,0,0,1,2.159.768,3.139,3.139,0,0,1,.757,2.292v7.317h-2.2v-6.6a1.99,1.99,0,0,0-.409-1.331,1.514,1.514,0,0,0-1.248-.491,2.452,2.452,0,0,0-1.331.409,3.359,3.359,0,0,0-1.013.931v7.082h-2.209v-6.6q0-1.821-1.669-1.822a2.436,2.436,0,0,0-1.319.409,3.389,3.389,0,0,0-1.013.952v7.061Z" transform="translate(96.368 -3.797)" fill="#3b3535"/>
      <path id="Path_88600" data-name="Path 88600" d="M456.406,184.658V170.68h5.2a7.969,7.969,0,0,1,3.817.891A6.333,6.333,0,0,1,468,174.057a7.588,7.588,0,0,1,0,7.245,6.356,6.356,0,0,1-2.579,2.476,8.053,8.053,0,0,1-3.817.88Zm2.455-2.159H461.6a4.957,4.957,0,0,0,2.579-.656,4.309,4.309,0,0,0,1.659-1.75,5.176,5.176,0,0,0,.563-2.414,4.891,4.891,0,0,0-1.269-3.47,4.575,4.575,0,0,0-3.531-1.371h-2.742Zm11.758-.942a3.41,3.41,0,0,1,.307-1.485,2.744,2.744,0,0,1,.829-1.033,3.86,3.86,0,0,1,1.126-.584,4.164,4.164,0,0,1,1.259-.195,4.063,4.063,0,0,1,3.263,1.3v-1.5a1.633,1.633,0,0,0-.654-1.371,2.67,2.67,0,0,0-1.709-.512,4.164,4.164,0,0,0-3,1.269l-.9-1.525a6.362,6.362,0,0,1,5.863-1.433,4.091,4.091,0,0,1,1.329.614,2.729,2.729,0,0,1,.931,1.147,4,4,0,0,1,.338,1.708v6.7h-2.2v-1.085a3.8,3.8,0,0,1-1.422.992,4.764,4.764,0,0,1-1.841.349,3.738,3.738,0,0,1-1.248-.216,4.018,4.018,0,0,1-1.136-.614,3.009,3.009,0,0,1-.829-1.064A3.4,3.4,0,0,1,470.619,181.558Zm2.22.04a1.621,1.621,0,0,0,.6,1.31A2.406,2.406,0,0,0,475,183.4a3.6,3.6,0,0,0,1.391-.266,2.386,2.386,0,0,0,1.013-.777V180.82a2.31,2.31,0,0,0-1.013-.766,3.5,3.5,0,0,0-1.391-.277,2.378,2.378,0,0,0-1.555.5A1.615,1.615,0,0,0,472.839,181.6Zm9.752-8.7a1.357,1.357,0,0,1,0-1.923,1.335,1.335,0,0,1,.963-.4,1.291,1.291,0,0,1,.961.4,1.357,1.357,0,0,1,0,1.923,1.287,1.287,0,0,1-.961.4A1.331,1.331,0,0,1,482.592,172.9Zm-.133,11.758v-10.12h2.2v10.12Zm5.055,0V170.68h2.2v13.978Zm3.593-10.12h2.343l2.958,7.583,2.956-7.583h2.364l-4.881,11.942a3.438,3.438,0,0,1-1.361,1.739,4.15,4.15,0,0,1-2.118.542,4.924,4.924,0,0,1-1.238-.144l.338-1.964a2.083,2.083,0,0,0,.838.163,1.743,1.743,0,0,0,.88-.195,1.375,1.375,0,0,0,.563-.686l.5-1.156Zm-41.955,30.6,1.361-1.883a6.408,6.408,0,0,0,1.934,1.391,5.712,5.712,0,0,0,2.5.543,3.3,3.3,0,0,0,2.1-.563,1.7,1.7,0,0,0,.705-1.352,1.24,1.24,0,0,0-.286-.817,1.968,1.968,0,0,0-.747-.563,6.669,6.669,0,0,0-1.085-.4c-.4-.117-.828-.229-1.278-.338s-.9-.238-1.361-.368a8.162,8.162,0,0,1-1.29-.512,5.551,5.551,0,0,1-1.073-.726,3.058,3.058,0,0,1-.757-1.064,3.708,3.708,0,0,1-.277-1.473A3.634,3.634,0,0,1,451,194.1a5.62,5.62,0,0,1,3.684-1.168,7.206,7.206,0,0,1,5.239,1.944l-1.4,1.822a5.14,5.14,0,0,0-1.852-1.187,6.011,6.011,0,0,0-2.19-.41,2.859,2.859,0,0,0-1.73.482,1.48,1.48,0,0,0-.644,1.259,1.072,1.072,0,0,0,.275.726,2.128,2.128,0,0,0,.747.512,10.487,10.487,0,0,0,1.085.368q.613.164,1.289.337c.451.117.9.245,1.341.389a7.06,7.06,0,0,1,1.289.533,5.263,5.263,0,0,1,1.085.757,3.035,3.035,0,0,1,.747,1.094,3.815,3.815,0,0,1,.275,1.494,4.191,4.191,0,0,1-.326,1.657,3.922,3.922,0,0,1-.962,1.371,4.417,4.417,0,0,1-1.7.952,7.915,7.915,0,0,1-2.425.338A7.4,7.4,0,0,1,449.151,205.137Zm12.658-3.1a5.2,5.2,0,0,1,1.464-3.8,5.055,5.055,0,0,1,3.775-1.5,4.539,4.539,0,0,1,3.878,1.8l-1.453,1.341a2.685,2.685,0,0,0-2.322-1.187,2.864,2.864,0,0,0-2.221.931,3.466,3.466,0,0,0-.838,2.414,3.518,3.518,0,0,0,.838,2.435,2.852,2.852,0,0,0,2.221.942,2.726,2.726,0,0,0,2.322-1.2l1.453,1.341a4.548,4.548,0,0,1-3.878,1.811,5.055,5.055,0,0,1-3.775-1.5A5.262,5.262,0,0,1,461.809,202.035Zm11.041,5.076v-10.12h2.2v1.483a4.893,4.893,0,0,1,1.473-1.238,3.718,3.718,0,0,1,1.822-.48v2.179a3.321,3.321,0,0,0-.7-.061,3.237,3.237,0,0,0-1.483.409,2.689,2.689,0,0,0-1.115.931v6.9Zm7.266-2.958v-7.163h2.2v6.365a2.075,2.075,0,0,0,.522,1.6,2.222,2.222,0,0,0,1.515.46,3.05,3.05,0,0,0,1.483-.379,3.36,3.36,0,0,0,1.115-.942v-7.1h2.2v10.12h-2.2V205.77a5.015,5.015,0,0,1-1.545,1.147,4.565,4.565,0,0,1-2.036.451,3.305,3.305,0,0,1-2.435-.819A3.244,3.244,0,0,1,480.116,204.153Zm11.89,2.958v-10.12h2.2v1.382a3.778,3.778,0,0,1,1.31-1.1,3.973,3.973,0,0,1,1.985-.533,2.991,2.991,0,0,1,1.79.5,2.547,2.547,0,0,1,.973,1.371,4.091,4.091,0,0,1,1.422-1.31,3.909,3.909,0,0,1,2.016-.563,2.878,2.878,0,0,1,2.159.768,3.139,3.139,0,0,1,.757,2.292v7.317h-2.2v-6.6a1.99,1.99,0,0,0-.409-1.331,1.514,1.514,0,0,0-1.248-.491,2.452,2.452,0,0,0-1.331.409,3.36,3.36,0,0,0-1.013.931v7.082h-2.209v-6.6q0-1.821-1.669-1.822a2.436,2.436,0,0,0-1.319.409,3.39,3.39,0,0,0-1.013.952v7.061Z" transform="translate(116.374 -52.955)" fill="#3b3535"/>
      <path id="Path_88601" data-name="Path 88601" d="M349.945,163.734l1.362-1.883a6.419,6.419,0,0,0,1.934,1.392,5.722,5.722,0,0,0,2.5.542,3.287,3.287,0,0,0,2.1-.563,1.7,1.7,0,0,0,.707-1.35,1.245,1.245,0,0,0-.287-.819,1.968,1.968,0,0,0-.747-.563,6.792,6.792,0,0,0-1.084-.4c-.4-.115-.829-.229-1.28-.338s-.9-.238-1.361-.368a8.216,8.216,0,0,1-1.289-.51,5.566,5.566,0,0,1-1.075-.728,3.078,3.078,0,0,1-.757-1.064,3.707,3.707,0,0,1-.277-1.473,3.631,3.631,0,0,1,1.413-2.916,5.615,5.615,0,0,1,3.684-1.168,7.211,7.211,0,0,1,5.239,1.944l-1.4,1.822a5.14,5.14,0,0,0-1.852-1.187,6.009,6.009,0,0,0-2.19-.409,2.851,2.851,0,0,0-1.729.48,1.484,1.484,0,0,0-.645,1.259,1.074,1.074,0,0,0,.277.726,2.114,2.114,0,0,0,.747.512,10.331,10.331,0,0,0,1.084.368q.615.164,1.29.338c.449.115.9.245,1.34.388a7.055,7.055,0,0,1,1.289.533,5.263,5.263,0,0,1,1.085.757,3.016,3.016,0,0,1,.747,1.094,3.814,3.814,0,0,1,.277,1.494,4.178,4.178,0,0,1-.328,1.659,3.929,3.929,0,0,1-.963,1.371,4.424,4.424,0,0,1-1.7.951,7.916,7.916,0,0,1-2.425.338A7.406,7.406,0,0,1,349.945,163.734Zm13.282,5.832V155.588h2.2v1.382a4.022,4.022,0,0,1,1.422-1.2,3.966,3.966,0,0,1,1.832-.44,4.092,4.092,0,0,1,3.244,1.424,6.7,6.7,0,0,1-.01,7.776,4.068,4.068,0,0,1-3.233,1.433,3.991,3.991,0,0,1-1.8-.419,4.253,4.253,0,0,1-1.453-1.239v5.26Zm2.2-6.917a2.972,2.972,0,0,0,1.1.963,3.162,3.162,0,0,0,1.5.4,2.541,2.541,0,0,0,2.066-.942,3.664,3.664,0,0,0,.789-2.435,3.594,3.594,0,0,0-.789-2.4,2.545,2.545,0,0,0-2.066-.942,3.108,3.108,0,0,0-1.5.4,2.856,2.856,0,0,0-1.1.961Zm9.915,3.06v-10.12h2.2v1.483a4.916,4.916,0,0,1,1.473-1.238,3.718,3.718,0,0,1,1.822-.481v2.179a3.322,3.322,0,0,0-.7-.061,3.222,3.222,0,0,0-1.483.41,2.677,2.677,0,0,0-1.115.931v6.9Zm7.4-11.757a1.359,1.359,0,0,1,0-1.925,1.334,1.334,0,0,1,.961-.4,1.294,1.294,0,0,1,.962.4,1.362,1.362,0,0,1,0,1.925,1.294,1.294,0,0,1-.962.4A1.334,1.334,0,0,1,382.742,153.951Zm-.133,11.757v-10.12h2.2v10.12Zm5.055,0v-10.12h2.2v1.382a4.848,4.848,0,0,1,1.515-1.156,4.418,4.418,0,0,1,2.046-.482,2.926,2.926,0,0,1,3.275,3.254v7.122h-2.2v-6.324a2.079,2.079,0,0,0-.531-1.606,2.115,2.115,0,0,0-1.5-.491,2.949,2.949,0,0,0-1.494.4,3.331,3.331,0,0,0-1.106.961v7.061Zm10.652-8.2v-1.923h1.678v-2.772h2.2v2.772h2.057v1.923h-2.057v5.3a1.4,1.4,0,0,0,.256.87.856.856,0,0,0,.715.328,1.658,1.658,0,0,0,.573-.1,1.13,1.13,0,0,0,.409-.256l.522,1.657a2.905,2.905,0,0,1-2.078.656,2.33,2.33,0,0,1-2.6-2.6v-5.854Zm-81.145,30.65V174.183h6.139a4.562,4.562,0,0,1,3.316,1.218,4.2,4.2,0,0,1,1.259,3.161,4.71,4.71,0,0,1-.275,1.647,3.555,3.555,0,0,1-.757,1.248,4.13,4.13,0,0,1-1.054.8,3.849,3.849,0,0,1-1.229.409l3.417,5.5h-2.823l-3.1-5.218h-2.434v5.218Zm2.456-7.378h3.356a2.413,2.413,0,0,0,1.708-.614,2.248,2.248,0,0,0,0-3.212,2.414,2.414,0,0,0-1.708-.615h-3.356Zm9.382,2.3a5.561,5.561,0,0,1,.645-2.66A4.893,4.893,0,0,1,331.5,178.5a5.033,5.033,0,0,1,2.651-.717,4.567,4.567,0,0,1,3.612,1.555,5.751,5.751,0,0,1,1.371,3.961v.522h-7.818a3.125,3.125,0,0,0,.982,2,3.193,3.193,0,0,0,2.241.787,4.558,4.558,0,0,0,1.557-.286,3.638,3.638,0,0,0,1.319-.819l1,1.443a4.994,4.994,0,0,1-1.811,1.094,6.772,6.772,0,0,1-2.292.379,5.084,5.084,0,0,1-5.3-5.332Zm2.281-.808h5.7a2.87,2.87,0,0,0-.195-.921,2.986,2.986,0,0,0-.491-.87,2.278,2.278,0,0,0-.891-.654,3.075,3.075,0,0,0-1.268-.247,2.983,2.983,0,0,0-1.229.247,2.3,2.3,0,0,0-.879.644,3.466,3.466,0,0,0-.522.859A3.217,3.217,0,0,0,331.291,182.277Zm8.77-2.313v-1.924h1.678v-2.772h2.2v2.772H346v1.924H343.94v5.3a1.4,1.4,0,0,0,.256.87.855.855,0,0,0,.716.328,1.658,1.658,0,0,0,.573-.1,1.129,1.129,0,0,0,.409-.256l.522,1.657a2.905,2.905,0,0,1-2.078.656,2.33,2.33,0,0,1-2.6-2.6v-5.854Zm7.931,8.2V178.041h2.2v1.483a4.9,4.9,0,0,1,1.474-1.238,3.714,3.714,0,0,1,1.822-.48v2.179a3.322,3.322,0,0,0-.7-.061,3.217,3.217,0,0,0-1.483.41,2.682,2.682,0,0,0-1.117.931v6.9Zm6.64-5.076a5.677,5.677,0,0,1,.368-2.046,5.2,5.2,0,0,1,1.024-1.689,4.686,4.686,0,0,1,1.648-1.145,5.433,5.433,0,0,1,2.159-.421,5.229,5.229,0,0,1,2.772.727,4.734,4.734,0,0,1,1.822,1.924,5.607,5.607,0,0,1,.624,2.649,5.743,5.743,0,0,1-.624,2.681,4.738,4.738,0,0,1-1.822,1.925,5.242,5.242,0,0,1-2.772.726,5.458,5.458,0,0,1-2.159-.419,4.891,4.891,0,0,1-1.648-1.147,5.327,5.327,0,0,1-1.024-1.7A5.785,5.785,0,0,1,354.632,183.085Zm2.283,0a3.708,3.708,0,0,0,.787,2.4,2.819,2.819,0,0,0,4.268.01,3.722,3.722,0,0,0,.787-2.406,3.649,3.649,0,0,0-.787-2.374,2.829,2.829,0,0,0-4.268,0A3.649,3.649,0,0,0,356.915,183.085Zm9.475,3.756,1.013-1.6a4.988,4.988,0,0,0,1.524,1.013,4.752,4.752,0,0,0,1.9.419,2.454,2.454,0,0,0,1.473-.379,1.175,1.175,0,0,0,.522-.992.819.819,0,0,0-.338-.666,2.4,2.4,0,0,0-.88-.409q-.532-.153-1.187-.286c-.437-.09-.873-.2-1.31-.338a6.109,6.109,0,0,1-1.2-.512,2.421,2.421,0,0,1-.87-.87,2.636,2.636,0,0,1-.337-1.361,2.751,2.751,0,0,1,1.064-2.19,4.41,4.41,0,0,1,2.916-.891,5.732,5.732,0,0,1,3.94,1.433l-.922,1.546a3.36,3.36,0,0,0-1.278-.88,4.351,4.351,0,0,0-1.718-.338,2.4,2.4,0,0,0-1.371.349,1.041,1.041,0,0,0-.512.889.7.7,0,0,0,.256.543,1.855,1.855,0,0,0,.695.347q.431.123.983.266c.368.088.742.174,1.126.256a5.289,5.289,0,0,1,1.126.358,4.878,4.878,0,0,1,.982.573,2.209,2.209,0,0,1,.686.87,2.9,2.9,0,0,1,.266,1.268,2.781,2.781,0,0,1-1.117,2.272,4.884,4.884,0,0,1-3.1.88,7.1,7.1,0,0,1-2.435-.41A5.259,5.259,0,0,1,366.39,186.841Zm10.764,5.178V178.041h2.2v1.382a4.022,4.022,0,0,1,1.422-1.2,3.966,3.966,0,0,1,1.832-.44,4.094,4.094,0,0,1,3.244,1.424,6.7,6.7,0,0,1-.01,7.776,4.072,4.072,0,0,1-3.233,1.433,3.981,3.981,0,0,1-1.8-.419,4.238,4.238,0,0,1-1.453-1.239v5.26Zm2.2-6.917a2.973,2.973,0,0,0,1.1.963,3.161,3.161,0,0,0,1.494.4,2.543,2.543,0,0,0,2.067-.942,3.663,3.663,0,0,0,.787-2.435,3.593,3.593,0,0,0-.787-2.4,2.548,2.548,0,0,0-2.067-.942,3.1,3.1,0,0,0-1.494.4,2.856,2.856,0,0,0-1.1.961Zm9.291-2.016a5.544,5.544,0,0,1,.645-2.66,4.883,4.883,0,0,1,1.841-1.924,5.034,5.034,0,0,1,2.651-.717,4.567,4.567,0,0,1,3.612,1.555,5.752,5.752,0,0,1,1.371,3.961v.522h-7.818a3.124,3.124,0,0,0,.982,2,3.193,3.193,0,0,0,2.241.787,4.549,4.549,0,0,0,1.555-.286,3.633,3.633,0,0,0,1.32-.819l1,1.443a5.007,5.007,0,0,1-1.811,1.094,6.772,6.772,0,0,1-2.292.379,5.084,5.084,0,0,1-5.3-5.332Zm2.281-.808h5.7a2.87,2.87,0,0,0-.195-.921,2.986,2.986,0,0,0-.491-.87,2.277,2.277,0,0,0-.891-.654,3.075,3.075,0,0,0-1.268-.247,2.979,2.979,0,0,0-1.229.247,2.312,2.312,0,0,0-.88.644,3.506,3.506,0,0,0-.521.859A3.219,3.219,0,0,0,390.927,182.277Zm9.384.808a5.207,5.207,0,0,1,1.462-3.8,5.061,5.061,0,0,1,3.777-1.5,4.539,4.539,0,0,1,3.878,1.8l-1.453,1.341a2.688,2.688,0,0,0-2.323-1.187,2.862,2.862,0,0,0-2.22.931,3.47,3.47,0,0,0-.84,2.414,3.519,3.519,0,0,0,.84,2.435,2.846,2.846,0,0,0,2.22.942,2.728,2.728,0,0,0,2.323-1.2l1.453,1.341a4.545,4.545,0,0,1-3.878,1.811,5.061,5.061,0,0,1-3.777-1.5A5.266,5.266,0,0,1,400.311,183.085Zm9.8-3.121v-1.924h1.678v-2.772h2.2v2.772h2.057v1.924h-2.057v5.3a1.407,1.407,0,0,0,.255.87.858.858,0,0,0,.717.328,1.659,1.659,0,0,0,.573-.1,1.13,1.13,0,0,0,.409-.256l.522,1.657a2.907,2.907,0,0,1-2.078.656,2.33,2.33,0,0,1-2.6-2.6v-5.854Zm8.062-3.56a1.362,1.362,0,0,1,0-1.925,1.34,1.34,0,0,1,.962-.4,1.3,1.3,0,0,1,.963.4,1.362,1.362,0,0,1,0,1.925,1.3,1.3,0,0,1-.963.4A1.34,1.34,0,0,1,418.177,176.4Zm-.132,11.757V178.041h2.2v10.121Zm3.591-10.121h2.343l2.958,7.583,2.958-7.583h2.364l-4.124,10.121H425.76Zm11.379,5.045a5.561,5.561,0,0,1,.644-2.66A4.9,4.9,0,0,1,435.5,178.5a5.025,5.025,0,0,1,2.65-.717,4.565,4.565,0,0,1,3.612,1.555,5.744,5.744,0,0,1,1.371,3.961v.522h-7.817a3.125,3.125,0,0,0,.982,2,3.193,3.193,0,0,0,2.241.787,4.549,4.549,0,0,0,1.555-.286,3.658,3.658,0,0,0,1.32-.819l1,1.443a5.007,5.007,0,0,1-1.811,1.094,6.778,6.778,0,0,1-2.292.379,5.084,5.084,0,0,1-5.3-5.332Zm2.281-.808H441a2.952,2.952,0,0,0-.195-.921,3.021,3.021,0,0,0-.491-.87,2.288,2.288,0,0,0-.891-.654,3.082,3.082,0,0,0-1.269-.247,2.972,2.972,0,0,0-1.227.247,2.289,2.289,0,0,0-.88.644,3.511,3.511,0,0,0-.522.859A3.171,3.171,0,0,0,435.3,182.277Z" transform="translate(50.794 -62.422)" fill="#3b3535"/>
      <path id="Path_88602" data-name="Path 88602" d="M117.351,383.93l-5.136.009a1.348,1.348,0,0,1-1.006-2.078l2.561-4.277a1.144,1.144,0,0,1,2.006,0l2.576,4.269A1.349,1.349,0,0,1,117.351,383.93Z" transform="translate(-51.648 49.609)" fill="#6a6a6a"/>
      <path id="Path_88603" data-name="Path 88603" d="M232.208,264.984h5.136a1.347,1.347,0,0,1,1,2.078l-2.567,4.274a1.143,1.143,0,0,1-2.006,0l-2.569-4.274A1.348,1.348,0,0,1,232.208,264.984Z" transform="translate(7.976 -6.045)" fill="#6a6a6a"/>
      <path id="Path_88604" data-name="Path 88604" d="M401.947,121.527v5.136a1.347,1.347,0,0,1-2.079,1l-4.274-2.567a1.144,1.144,0,0,1,0-2.006l4.274-2.569A1.35,1.35,0,0,1,401.947,121.527Z" transform="translate(89.467 -77.928)" fill="#6a6a6a"/>
    </g>
  </g>
</svg>
