<svg xmlns="http://www.w3.org/2000/svg" width="570" height="306.939" viewBox="0 0 570 306.939">
  <g id="Django_Development_section_1" transform="translate(-815 -967)">
    <g id="Hire_Magento_section_1" transform="translate(15 42)">
      <g id="Group_2633" data-name="Group 2633" transform="translate(906.711 992.098)">
        <path id="Path_10451" data-name="Path 10451" d="M735,415.494a5.19,5.19,0,0,1-5.454,4.872H389.829a5.19,5.19,0,0,1-5.453-4.872v-205.5a5.191,5.191,0,0,1,5.453-4.872H729.545A5.189,5.189,0,0,1,735,209.991Z" transform="translate(-368.002 -205.119)" fill="#284f63"/>
        <path id="Path_10452" data-name="Path 10452" d="M721.6,405.45a.012.012,0,0,1,0,.008.011.011,0,0,1-.008,0H391.932a.011.011,0,0,1-.011-.01V213.512H721.6Z" transform="translate(-365.075 -201.863)" fill="#dbe8f3"/>
        <path id="Path_10453" data-name="Path 10453" d="M740.147,378.776H388.39a15.81,15.81,0,0,1-15.809-15.808h0a2.808,2.808,0,0,1,2.808-2.808H753.15a2.807,2.807,0,0,1,2.807,2.808h0a15.81,15.81,0,0,1-15.809,15.809Z" transform="translate(-372.581 -144.968)" fill="#284f63"/>
        <path id="Path_10454" data-name="Path 10454" d="M542.911,360.2v.008a9.612,9.612,0,0,1-9.613,9.613H502.157a9.621,9.621,0,0,1-9.62-9.62h0" transform="translate(-326.038 -144.953)" fill="#7cb4e2"/>
      </g>
      <g id="Group_2671" data-name="Group 2671" transform="translate(893.43 925)">
        <g id="Group_2635" data-name="Group 2635">
          <path id="Path_10455" data-name="Path 10455" d="M644.686,184.858v195.38a6.466,6.466,0,0,1-6.453,6.467h-270a6.469,6.469,0,0,1-6.467-6.467V184.858a6.458,6.458,0,0,1,6.467-6.467h270a6.455,6.455,0,0,1,6.454,6.467Z" transform="translate(-361.768 -178.391)" fill="#f9fbfc"/>
          <path id="Path_10456" data-name="Path 10456" d="M644.686,184.858v25.515H361.768V184.858a6.458,6.458,0,0,1,6.467-6.467h270a6.455,6.455,0,0,1,6.454,6.467Z" transform="translate(-361.768 -178.391)" fill="#7cb4e2"/>
          <g id="Group_2634" data-name="Group 2634" transform="translate(201.262 9.183)">
            <path id="Path_10457" data-name="Path 10457" d="M560.712,191.818a6.812,6.812,0,1,1-6.812-6.811,6.812,6.812,0,0,1,6.812,6.811Z" transform="translate(-491.13 -185.007)" fill="#5390c2"/>
            <path id="Path_10458" data-name="Path 10458" d="M540.554,191.818a6.812,6.812,0,1,1-6.812-6.811,6.812,6.812,0,0,1,6.812,6.811Z" transform="translate(-498.951 -185.007)" fill="#5390c2"/>
            <path id="Path_10459" data-name="Path 10459" d="M520.4,191.818a6.812,6.812,0,1,1-6.812-6.811A6.812,6.812,0,0,1,520.4,191.818Z" transform="translate(-506.772 -185.007)" fill="#5390c2"/>
          </g>
        </g>
        <g id="Group_2636" data-name="Group 2636" transform="translate(134.439 147.615)">
          <rect id="Rectangle_712" data-name="Rectangle 712" width="39.43" height="39.43" fill="#7cb4e2"/>
          <rect id="Rectangle_713" data-name="Rectangle 713" width="33.797" height="33.797" transform="translate(2.817 2.817)" fill="#f9fbfc"/>
          <circle id="Ellipse_123" data-name="Ellipse 123" cx="3.661" cy="3.661" r="3.661" transform="translate(7.323 6.76)" fill="#7cb4e2"/>
          <path id="Path_10460" data-name="Path 10460" d="M492.652,299.671v16.087l-.158.043H461.672v-6.376l5.16-5.178,6.376,6.4,15.209-15.209Z" transform="translate(-457.447 -280.598)" fill="#7cb4e2"/>
        </g>
        <g id="Group_2637" data-name="Group 2637" transform="translate(76.489 147.615)">
          <rect id="Rectangle_714" data-name="Rectangle 714" width="39.43" height="39.43" fill="#7cb4e2"/>
          <rect id="Rectangle_715" data-name="Rectangle 715" width="33.798" height="33.797" transform="translate(2.816 2.817)" fill="#f9fbfc"/>
        </g>
        <rect id="Rectangle_716" data-name="Rectangle 716" width="65.228" height="65.228" transform="translate(197.311 126.563)" fill="#7cb4e2"/>
        <rect id="Rectangle_717" data-name="Rectangle 717" width="156.446" height="11.721" transform="translate(17.423 44.518)" fill="#7cb4e2"/>
        <g id="Group_2639" data-name="Group 2639" transform="translate(196.944 46.679)">
          <g id="Group_2638" data-name="Group 2638" transform="translate(0 0)">
            <path id="Path_10462" data-name="Path 10462" d="M569.281,278.011h-3.057v-.763h3.057Zm-6.114,0h-3.057v-.763h3.057Zm-6.114,0H554v-.763h3.057Zm-6.114,0h-3.057v-.763h3.057Zm-6.114,0h-3.057v-.763h3.057Zm-6.114,0h-3.057v-.763h3.057Zm-6.114,0h-3.057v-.763H532.6Zm-6.114,0h-3.057v-.763h3.057Zm-6.114,0h-3.057v-.763h3.057Zm-6.114,0H511.2v-.763h3.059Zm-6.114,0h-3.057v-.763h3.057Zm61.533-1.4h-.765v-3.059h.765Zm-65.227-1.022h-.765v-3.057h.765Zm65.227-5.1h-.765v-3.057h.765Zm-65.227-1.02h-.765v-3.057h.765Zm65.227-5.094h-.765v-3.059h.765Zm-65.227-1.02h-.765V260.3h.765Zm65.227-5.1h-.765v-3.057h.765Zm-65.227-1.02h-.765v-3.057h.765Zm65.227-5.1h-.765v-3.057h.765Zm-65.227-1.02h-.765v-3.057h.765Zm65.227-5.1h-.765v-3.057h.765Zm-65.227-1.02h-.765v-3.057h.765Zm65.227-5.1h-.765v-3.057h.765ZM504.451,238.9h-.765v-3.057h.765Zm65.227-5.1h-.765v-3.057h.765Zm-65.227-1.022h-.765v-3.057h.765Zm65.227-5.1h-.765V224.63h.765Zm-65.227-1.019h-.765v-3.057h.765Zm65.227-5.1h-.765v-3.057h.765Zm-65.227-1.02h-.765V217.5h.765Zm65.227-5.1h-.765V212.4h.765Zm-65.227-1.02h-.765v-2.421h1.4v.768h-.637Zm61.775-1.652h-3.057v-.765h3.057Zm-6.117,0h-3.057v-.765h3.057Zm-6.114,0h-3.057v-.765h3.057Zm-6.114,0h-3.057v-.765h3.057Zm-6.114,0H538.71v-.765h3.057Zm-6.114,0H532.6v-.765h3.057Zm-6.114,0h-3.057v-.765h3.057Zm-6.114,0h-3.057v-.765h3.057Zm-6.114,0h-3.057v-.765h3.057Zm-6.114,0h-3.057v-.765H511.2Z" transform="translate(-503.686 -212.016)" fill="#7cb4e2"/>
          </g>
        </g>
        <g id="Group_2645" data-name="Group 2645" transform="translate(17.423 102.357)">
          <rect id="Rectangle_718" data-name="Rectangle 718" width="156.446" height="32.359" fill="#7cb4e2"/>
          <rect id="Rectangle_719" data-name="Rectangle 719" width="20.83" height="20.83" transform="translate(6.911 5.765)" fill="#f9fbfc"/>
          <g id="Group_2644" data-name="Group 2644" transform="translate(36.946 5.765)">
            <g id="Group_2640" data-name="Group 2640">
              <rect id="Rectangle_720" data-name="Rectangle 720" width="112.875" height="1.911" fill="#f9fbfc"/>
            </g>
            <g id="Group_2641" data-name="Group 2641" transform="translate(0 12.146)">
              <rect id="Rectangle_721" data-name="Rectangle 721" width="112.875" height="1.911" fill="#f9fbfc"/>
            </g>
            <g id="Group_2642" data-name="Group 2642" transform="translate(0 6.073)">
              <rect id="Rectangle_722" data-name="Rectangle 722" width="112.875" height="1.911" fill="#f9fbfc"/>
            </g>
            <g id="Group_2643" data-name="Group 2643" transform="translate(0 18.218)">
              <rect id="Rectangle_723" data-name="Rectangle 723" width="112.875" height="1.911" fill="#f9fbfc"/>
            </g>
          </g>
        </g>
        <g id="Group_2659" data-name="Group 2659" transform="translate(18.155 147.234)">
          <g id="Group_2654" data-name="Group 2654" transform="translate(0)">
            <g id="Group_2646" data-name="Group 2646" transform="translate(38.283 38.283)">
              <path id="Path_10463" data-name="Path 10463" d="M404.341,313.962H402.43V313.2h1.147v-1.147h.765Z" transform="translate(-402.43 -312.051)" fill="#7cb4e2"/>
            </g>
            <g id="Group_2647" data-name="Group 2647" transform="translate(5.219 39.43)">
              <path id="Path_10464" data-name="Path 10464" d="M408.368,313.642h-3.306v-.765h3.306Zm-6.614,0h-3.306v-.765h3.306Zm-6.614,0h-3.3v-.765h3.3Zm-6.612,0h-3.306v-.765h3.306Zm-6.614,0h-3.306v-.765h3.306Z" transform="translate(-378.609 -312.877)" fill="#7cb4e2"/>
            </g>
            <g id="Group_2648" data-name="Group 2648" transform="translate(0 38.283)">
              <path id="Path_10465" data-name="Path 10465" d="M376.76,313.962h-1.911v-1.911h.765V313.2h1.147Z" transform="translate(-374.849 -312.051)" fill="#7cb4e2"/>
            </g>
            <g id="Group_2649" data-name="Group 2649" transform="translate(0.001 5.218)">
              <path id="Path_10466" data-name="Path 10466" d="M375.612,317.987h-.763v-3.306h.763Zm0-6.614h-.763v-3.3h.763Zm0-6.612h-.763v-3.306h.763Zm0-6.614h-.763v-3.306h.763Zm0-6.614h-.763v-3.3h.763Z" transform="translate(-374.849 -288.229)" fill="#7cb4e2"/>
            </g>
            <g id="Group_2650" data-name="Group 2650">
              <path id="Path_10467" data-name="Path 10467" d="M375.613,286.38h-.765v-1.911h1.911v.764h-1.147Z" transform="translate(-374.848 -284.469)" fill="#7cb4e2"/>
            </g>
            <g id="Group_2651" data-name="Group 2651" transform="translate(5.218 0)">
              <path id="Path_10468" data-name="Path 10468" d="M408.368,285.234h-3.306v-.765h3.306Zm-6.614,0h-3.306v-.765h3.306Zm-6.612,0h-3.307v-.765h3.306Zm-6.613,0h-3.306v-.765h3.306Zm-6.614,0h-3.306v-.765h3.306Z" transform="translate(-378.609 -284.469)" fill="#7cb4e2"/>
            </g>
            <g id="Group_2652" data-name="Group 2652" transform="translate(38.283)">
              <path id="Path_10469" data-name="Path 10469" d="M404.341,286.38h-.765v-1.147H402.43v-.764h1.911Z" transform="translate(-402.43 -284.469)" fill="#7cb4e2"/>
            </g>
            <g id="Group_2653" data-name="Group 2653" transform="translate(39.431 5.218)">
              <path id="Path_10470" data-name="Path 10470" d="M404.022,317.987h-.765v-3.306h.765Zm0-6.614h-.765v-3.3h.765Zm0-6.612h-.765v-3.306h.765Zm0-6.614h-.765v-3.306h.765Zm0-6.614h-.765v-3.3h.765Z" transform="translate(-403.257 -288.229)" fill="#7cb4e2"/>
            </g>
          </g>
          <g id="Group_2658" data-name="Group 2658" transform="translate(14.334 14.333)">
            <path id="Path_10471" data-name="Path 10471" d="M396.7,300.559a5.764,5.764,0,1,1-5.764-5.764,5.764,5.764,0,0,1,5.764,5.764Z" transform="translate(-385.176 -294.795)" fill="#7cb4e2"/>
            <g id="Group_2657" data-name="Group 2657" transform="translate(3.471 3.471)">
              <g id="Group_2655" data-name="Group 2655" transform="translate(1.911)">
                <rect id="Rectangle_724" data-name="Rectangle 724" width="0.765" height="4.587" fill="#f9fbfc"/>
              </g>
              <g id="Group_2656" data-name="Group 2656" transform="translate(0 1.911)">
                <rect id="Rectangle_725" data-name="Rectangle 725" width="4.587" height="0.764" fill="#f9fbfc"/>
              </g>
            </g>
          </g>
        </g>
        <g id="Group_2665" data-name="Group 2665" transform="translate(17.06 69.106)">
          <g id="Group_2660" data-name="Group 2660" transform="translate(0)">
            <path id="Path_10472" data-name="Path 10472" d="M531.281,250.092h-3.441v-.764h2.676V249.2h.763Zm-6.5,0h-3.057v-.764h3.057Zm-6.114,0h-3.057v-.764h3.057Zm-6.117,0H509.5v-.764h3.057Zm-6.114,0h-3.057v-.764h3.057Zm-6.114,0H497.27v-.764h3.057Zm-6.114,0h-3.059v-.764h3.059Zm-6.117,0h-3.057v-.764H488.1Zm-6.114,0h-3.057v-.764h3.057Zm-6.114,0h-3.057v-.764h3.057Zm-6.114,0H466.7v-.764h3.057Zm-6.114,0h-3.057v-.764h3.057Zm-6.114,0h-3.057v-.764h3.057Zm-6.114,0h-3.057v-.764h3.057Zm-6.117,0H442.24v-.764H445.3Zm-6.114,0h-3.057v-.764h3.057Zm-6.114,0h-3.057v-.764h3.057Zm-6.114,0H423.9v-.764h3.057Zm-6.117,0h-3.057v-.764h3.057Zm-6.114,0h-3.057v-.764h3.057Zm-6.114,0h-3.057v-.764h3.057Zm-6.114,0h-3.059v-.764H402.5Zm-6.117,0h-3.057v-.764h3.057Zm-6.114,0h-3.057v-.764h3.057Zm-6.114,0H381.1v-.764h3.057Zm-6.114,0h-3.057v-.764h3.057Zm-3.186-2.93h-.765v-3.057h.765Zm156.446-1.02h-.763v-3.057h.763Zm-156.446-5.094h-.765v-3.057h.765ZM531.3,240.026h-.763V236.97h.763Zm-156.446-5.094h-.765v-3.057h.765Zm156.446-1.02h-.763v-3.057h.763Zm-1.147-4.969H527.1v-.763h3.057Zm-6.114,0h-3.057v-.763h3.057Zm-6.114,0H514.87v-.763h3.057Zm-6.114,0h-3.059v-.763h3.059Zm-6.117,0h-3.057v-.763H505.7Zm-6.114,0h-3.057v-.763h3.057Zm-6.114,0h-3.057v-.763h3.057Zm-6.114,0H484.27v-.763h3.057Zm-6.114,0h-3.057v-.763h3.057Zm-6.114,0h-3.057v-.763h3.057Zm-6.114,0h-3.057v-.763h3.057Zm-6.114,0h-3.057v-.763H462.9Zm-6.114,0H453.73v-.763h3.057Zm-6.114,0h-3.057v-.763h3.057Zm-6.114,0H441.5v-.763h3.057Zm-6.117,0h-3.057v-.763h3.057Zm-6.114,0h-3.057v-.763h3.057Zm-6.114,0h-3.057v-.763h3.057Zm-6.114,0h-3.059v-.763H420.1Zm-6.117,0h-3.057v-.763h3.057Zm-6.114,0h-3.057v-.763h3.057Zm-6.114,0H398.7v-.763h3.057Zm-6.114,0h-3.1v-.763H395.6Zm-6.117,0H386.47v-.763h3.057Zm-6.114,0h-3.057v-.763h3.057Zm-6.114,0h-2.8v-.126h-.383v-.637H377.3Z" transform="translate(-374.09 -228.18)" fill="#7cb4e2"/>
          </g>
          <g id="Group_2664" data-name="Group 2664" transform="translate(72.822 5.191)">
            <circle id="Ellipse_125" data-name="Ellipse 125" cx="5.765" cy="5.765" r="5.765" transform="translate(0 0)" fill="#7cb4e2"/>
            <g id="Group_2663" data-name="Group 2663" transform="translate(3.472 3.471)">
              <g id="Group_2661" data-name="Group 2661" transform="translate(1.911)">
                <rect id="Rectangle_726" data-name="Rectangle 726" width="0.765" height="4.586" fill="#f9fbfc"/>
              </g>
              <g id="Group_2662" data-name="Group 2662" transform="translate(0 1.911)">
                <rect id="Rectangle_727" data-name="Rectangle 727" width="4.587" height="0.765" fill="#f9fbfc"/>
              </g>
            </g>
          </g>
        </g>
        <g id="Group_2669" data-name="Group 2669" transform="translate(224.16 73.915)">
          <circle id="Ellipse_126" data-name="Ellipse 126" cx="5.765" cy="5.765" r="5.765" transform="translate(0 0)" fill="#7cb4e2"/>
          <g id="Group_2668" data-name="Group 2668" transform="translate(3.472 3.471)">
            <g id="Group_2666" data-name="Group 2666" transform="translate(1.911)">
              <rect id="Rectangle_728" data-name="Rectangle 728" width="0.764" height="4.586" fill="#f9fbfc"/>
            </g>
            <g id="Group_2667" data-name="Group 2667" transform="translate(0 1.911)">
              <rect id="Rectangle_729" data-name="Rectangle 729" width="4.585" height="0.765" fill="#f9fbfc"/>
            </g>
          </g>
        </g>
        <g id="Group_2670" data-name="Group 2670" transform="translate(206.009 144.167)">
          <path id="Path_10473" data-name="Path 10473" d="M524.421,291.317l-10.364,4.353,10.364,4.289-1.494,3.412-12.736-5.621v-4.159l12.736-5.62Z" transform="translate(-510.191 -280.043)" fill="#f9fbfc"/>
          <path id="Path_10474" data-name="Path 10474" d="M534.863,283.17l-7.6,29.11-4.028-.944,7.634-29.077Z" transform="translate(-505.131 -282.26)" fill="#f9fbfc"/>
          <path id="Path_10475" data-name="Path 10475" d="M548.63,293.59v4.159l-12.736,5.621-1.494-3.412,10.364-4.289L534.4,291.317l1.494-3.347Z" transform="translate(-500.798 -280.043)" fill="#f9fbfc"/>
        </g>
      </g>
      <g id="Group_255512" data-name="Group 255512" transform="translate(-28.097 -66.581)">
        <path id="Path_10476" data-name="Path 10476" d="M632.062,290.914a5.065,5.065,0,0,1-5.265,1.253c-8.339-2.585-36.143-11.709-34.693-18,1.7-7.4,25.894,2.166,32.547,5.823C630.195,283.035,635.223,287.437,632.062,290.914Z" transform="translate(724.468 825.857)" fill="#f79a74"/>
        <path id="Path_10477" data-name="Path 10477" d="M610.456,290.479a5,5,0,0,0-1.056-4.518c-5.119-6.234-23.834-28.683-27.233-27.707-3.945,1.131,21.556,34.737,23.731,34.579C607.589,292.707,609.723,293.006,610.456,290.479Z" transform="translate(712.146 810.052)" fill="#f79a74"/>
        <path id="Path_10480" data-name="Path 10480" d="M618.775,273.3l-16.8-1.4-5.286,11.547,16.307,7.7Z" transform="translate(730.027 826.41)" fill="#fec35b"/>
        <path id="Path_10481" data-name="Path 10481" d="M602.379,295.885a28.3,28.3,0,0,1,5.928-18.782c6.908-8.519,18.641-8.194,22.738-3.534,5.105,5.806,2.346,37.582,3.31,48.027s4.982,28.12,4.179,30.527-37.5,1.147-38.943-1.426S601.094,324.165,602.379,295.885Z" transform="translate(733.029 824.531)" fill="#dec6a0"/>
        <path id="Path_10482" data-name="Path 10482" d="M604.307,268.791" transform="translate(739.137 822.699)" fill="none" stroke="#d5bb95" stroke-miterlimit="10" stroke-width="0.219"/>
        <g id="Group_2675" data-name="Group 2675" transform="translate(1333.462 1057.741)">
          <g id="Group_2674" data-name="Group 2674" transform="translate(0 0)">
            <path id="Path_10483" data-name="Path 10483" d="M615.775,268.486c-1.445-.481-4.3,6.287-5.823,4.148-.925-1.295.578-3.143-.461-5.4-1.431-3.086-7.5-1.755-7.5-1.755-4.822-3.2-.31-12.051-.31-12.051,3.684,3.855,8.022,1.138,21.366,5.784,13.345,4.668.156,21.056.156,21.056s-9.431-2.122-6.674-6.48C618.495,270.7,617.221,268.97,615.775,268.486Z" transform="translate(-599.763 -253.428)" fill="#222"/>
            <path id="Path_10484" data-name="Path 10484" d="M616.2,267.381c-2.757,4.361,6.674,6.48,6.674,6.48l1.215,9.835-11.82,4.626-.791-7.557a8.3,8.3,0,0,1-9.007-.483c-4.974-3.2-.808-21.212-.808-21.212s6.074-1.331,7.5,1.755c1.039,2.256-.463,4.107.461,5.4,1.524,2.14,4.378-4.629,5.823-4.148S618.171,264.3,616.2,267.381Z" transform="translate(-599.44 -247.018)" fill="#f79a74"/>
          </g>
        </g>
        <path id="Path_10485" data-name="Path 10485" d="M614.069,331.389c11.542-5.547,9.108,47.021,5.857,60.043s-5.549-1.4-7.48-23.215S609.529,333.571,614.069,331.389Z" transform="translate(746.936 897.123)" fill="#ffdac8"/>
        <path id="Path_10486" data-name="Path 10486" d="M603.311,329.641c11.9-4.685,5.749,47.57,1.582,60.322s-5.435-1.8-5.812-23.707S598.63,331.484,603.311,329.641Z" transform="translate(732.691 895.164)" fill="#ffdac8"/>
        <path id="Path_10487" data-name="Path 10487" d="M618.737,306.733a7.9,7.9,0,0,1,9.7,6.315,112.633,112.633,0,0,1,1.026,18.9c-.668,15.711-.437,30.247-6.226,33.3s-12.934-5.345-14.118-20.673c-1.068-13.855-4.486-30.936-.648-33.948C610.417,309.1,614.843,307.725,618.737,306.733Z" transform="translate(741.997 867.805)" fill="#dec6a0"/>
        <path id="Path_10488" data-name="Path 10488" d="M612.65,305.493c4.209-.273,7.915,3.407,8.082,7.963a118.226,118.226,0,0,1-1.408,18.6c-2.562,15.175-4.157,29.375-9.824,31.266s-11.154-7.62-10.333-22.771c.743-13.692-.259-30.965,3.62-33.185C604.751,306.243,608.969,305.728,612.65,305.493Z" transform="translate(732.887 866.604)" fill="#dec6a0"/>
        <path id="Path_10489" data-name="Path 10489" d="M601.048,309.489s-1.966,11.432-2.827,47.819c-.3,12.785,1.926,61.22,1.926,61.22l6.759-.123,25.53-113.8Z" transform="translate(731.82 865.568)" fill="#1f2c40"/>
        <path id="Path_10490" data-name="Path 10490" d="M634.088,310.557s.011,26.837-.3,53.315-3.427,53.58-3.427,53.58h-7.788L603.409,305.881Z" transform="translate(738.062 867.085)" fill="#212f47"/>
        <path id="Path_10491" data-name="Path 10491" d="M612.886,272.673a10.447,10.447,0,0,0-3.106,2.687c-2.33,2.953-6.851,9.305-7.649,15.071-1.085,7.836-1.447,24.707-2.05,32.059,0,0-2.41,27.839-.363,30.37s38.205,1.929,39.772,1.085-2.531-21.211-3.135-28.806-1.441-35.8-1.928-40.734c-.723-7.313-2.531-12.895-9.281-14.464C620.129,268.781,615.848,271.019,612.886,272.673Z" transform="translate(732.66 823.695)" fill="#fec35b"/>
        <path id="Path_10492" data-name="Path 10492" d="M599.27,307.516" transform="translate(733.11 869.042)" fill="none" stroke="#d5bb95" stroke-miterlimit="10" stroke-width="0.245"/>
        <path id="Path_10493" data-name="Path 10493" d="M623.081,310.643" transform="translate(761.604 872.784)" fill="none" stroke="#d5bb95" stroke-miterlimit="10" stroke-width="0.245"/>
        <g id="Group_2676" data-name="Group 2676" transform="translate(1321.5 1100.167)">
          <path id="Path_10494" data-name="Path 10494" d="M634.357,277.364a5.07,5.07,0,0,1-2.684,4.7c-7.585,4.323-33.243,18.391-36.848,13.033-4.238-6.3,19.271-17.429,26.488-19.788C627.325,273.344,633.977,272.681,634.357,277.364Z" transform="translate(-594.318 -271.455)" fill="#fec35b"/>
          <path id="Path_10495" data-name="Path 10495" d="M610.856,275.609s14.149-6.588,16.772.2-6.289,10.889-9.1,12.137-11.781,5.663-11.781,5.663l-6.087-12.958Z" transform="translate(-586.722 -272.741)" fill="#fec35b"/>
        </g>
        <path id="Path_10496" data-name="Path 10496" d="M610.086,270.108" transform="translate(746.053 824.275)" fill="none" stroke="#d5bb95" stroke-miterlimit="10" stroke-width="0.219"/>
        <g id="Group_2677" data-name="Group 2677" transform="translate(1283.83 1093.036)">
          <path id="Path_10497" data-name="Path 10497" d="M617.292,294.392a5.009,5.009,0,0,0-2.375-3.987c-6.766-4.394-31.4-20.124-34.343-18.167-3.418,2.274,31.057,26.584,33.082,25.776C615.232,297.384,617.361,297.021,617.292,294.392Z" transform="translate(-573.376 -266.414)" fill="#f79a74"/>
          <path id="Path_10498" data-name="Path 10498" d="M587.662,277.249c-1.336,2.669-5.683-.154-7.128-1.171-2.357-1.659-3.857-5.383-3.216-6.327s5.782,3.148,6.109,3.053-1.982-2.324-1.289-3.15,4.13,1.734,5.1,3.282S588.5,275.575,587.662,277.249Z" transform="translate(-577.169 -269.495)" fill="#f79a74"/>
        </g>
        <path id="Path_10499" data-name="Path 10499" d="M617.841,358.818a28.349,28.349,0,0,1-4.754,4.455c-3.267,2.526-4.132,1.992-4.2,2.926s13.653.015,13.653.015l-.273-7.658A32.823,32.823,0,0,0,617.841,358.818Z" transform="translate(744.618 930.122)" fill="#1f2c40"/>
        <path id="Path_10500" data-name="Path 10500" d="M604.484,358.369a28.372,28.372,0,0,1-4.85,4.351c-3.319,2.453-4.172,1.908-4.259,2.834s13.648.31,13.648.31l-.106-7.662A32.942,32.942,0,0,0,604.484,358.369Z" transform="translate(728.447 929.696)" fill="#1f2c40"/>
        <path id="Path_10501" data-name="Path 10501" d="M599.94,306.553" transform="translate(733.911 867.889)" fill="#1d2155"/>
      </g>
      <g id="Group_2683" data-name="Group 2683" transform="translate(808 991.16)">
        <path id="Path_10502" data-name="Path 10502" d="M331.658,267.262c3.932,1.087,5.745,5.1,6.465,8.791,1.169,5.973.061,12.319-.712,18.268a71.632,71.632,0,0,0-.593,9.73c.019,2.577.349,5.086.535,7.651a10.976,10.976,0,0,1-.69,5.333,5.153,5.153,0,0,1-5.014,3.189q-5.334-.1-10.671.181a30.343,30.343,0,0,0-5.9.637C312.531,321.691,327,265.972,331.658,267.262Z" transform="translate(-271.226 -265.434)" fill="#222"/>
        <path id="Path_10503" data-name="Path 10503" d="M343,270.352s-7.889-7.417-16.6-1.765-12.481,13.436-13.3,20.029c-.409,3.279,1.2,10.205.963,13.738s-8.361,11.775-4.121,18.131,21.994,3.075,24.583.367S343,270.352,343,270.352Z" transform="translate(-279.26 -266.463)" fill="#222"/>
        <rect id="Rectangle_731" data-name="Rectangle 731" width="10.46" height="11.955" transform="translate(45.963 28.746) rotate(15.843)" fill="#f79a74"/>
        <path id="Path_10504" data-name="Path 10504" d="M322.307,296.475s6.533,4.1,8.573,2.363,8.513-13.294,6.21-21.18-11.936-11.175-17.615-7.936-6.637,21.827-2.758,24A39.873,39.873,0,0,0,322.307,296.475Z" transform="translate(-271.758 -263.785)" fill="#f79a74"/>
        <path id="Path_10505" data-name="Path 10505" d="M325.27,295.3" transform="translate(-257.317 -228.243)" fill="none" stroke="#d5bb95" stroke-miterlimit="10" stroke-width="0.881"/>
        <path id="Path_10506" data-name="Path 10506" d="M314.77,283.932" transform="translate(-271.237 -243.305)" fill="#64a295"/>
        <g id="Group_2681" data-name="Group 2681" transform="translate(42.855 26.427)">
          <path id="Path_10507" data-name="Path 10507" d="M346.023,300.019c-1.07,3.573,5.3,4.721,7.491,5.033,3.565.5,8.117-1.6,8.342-3.007s-7.957-2.083-8.175-2.446,3.793-.423,3.868-1.768-5.242-1.958-7.449-1.371S346.694,297.779,346.023,300.019Z" transform="translate(-272.819 -253.422)" fill="#dec6a0"/>
          <path id="Path_10508" data-name="Path 10508" d="M314.555,288.385a5.39,5.39,0,0,0,2.33,5.261c7.549,5.393,33.153,23.048,37.544,17.771,5.163-6.2-18.487-20.513-25.859-23.79C322.426,284.893,315.467,283.476,314.555,288.385Z" transform="translate(-314.497 -268.136)" fill="#f79a74"/>
          <path id="Path_10509" data-name="Path 10509" d="M329.478,294.725a5.306,5.306,0,0,1,4.73-1.386c8.447,1.472,39,7.045,39.879,10.7,1.019,4.242-43.411-1.77-44.4-3.865C328.915,298.544,327.522,296.721,329.478,294.725Z" transform="translate(-295.914 -257.368)" fill="#f79a74"/>
          <g id="Group_2680" data-name="Group 2680" transform="translate(34.672 0)">
            <rect id="Rectangle_732" data-name="Rectangle 732" width="65.91" height="65.91" transform="translate(0 46.606) rotate(-45)" fill="#7cb4e2"/>
            <g id="Group_2679" data-name="Group 2679" transform="translate(25.843 25.832)">
              <path id="Path_10510" data-name="Path 10510" d="M345.79,298.219c-1.414,1.414-1.481,2.214-.456,3.242l4.54,4.54c1.937,1.935,1.779,3.372.73,5.154,1.731-1.051,3.193-1.277,5.133.661l4.54,4.54c1.024,1.026,1.823.958,3.214-.433l2.3,2.3c-3.856,3.854-6.114,3.649-8.554,1.209l-4.312-4.31c-1.323-1.326-2.144-1.509-3.33-.321l-2.669-2.669c1.188-1.186.981-2.028-.342-3.354l-4.31-4.31c-2.463-2.463-2.647-4.7,1.209-8.554Z" transform="translate(-340.499 -279.677)" fill="#f9fbfc"/>
              <path id="Path_10511" data-name="Path 10511" d="M348.87,291.834l15.1,25.776-3.489,2.164L345.425,294Z" transform="translate(-333.969 -285.088)" fill="#f9fbfc"/>
              <path id="Path_10512" data-name="Path 10512" d="M356.016,290.723l4.312,4.312c1.323,1.323,2.164,1.528,3.352.342l2.669,2.669c-1.186,1.186-1,2.007.321,3.331l4.31,4.312c2.442,2.44,2.669,4.675-1.186,8.531l-2.3-2.3c1.391-1.391,1.458-2.191.433-3.214l-4.54-4.54c-1.937-1.94-1.71-3.4-.684-5.112-1.756,1.026-3.217,1.209-5.154-.728l-4.54-4.54c-1.028-1.026-1.826-.96-3.219.433l-2.3-2.3C351.342,288.055,353.556,288.26,356.016,290.723Z" transform="translate(-331.235 -288.933)" fill="#f9fbfc"/>
            </g>
          </g>
        </g>
        <path id="Path_10513" data-name="Path 10513" d="M312.42,285.474" transform="translate(-274.352 -241.261)" fill="#dec6a0"/>
        <path id="Path_10514" data-name="Path 10514" d="M323.853,283.339a7.582,7.582,0,0,0-8.972,3.428,28.969,28.969,0,0,0-4.312,17.829c1.277,13.5,8.571,15.655,8.571,29.548s-4.74,23.676-4.012,25.241,32,3.328,34.367-.586-5.122-16.891-5.122-27.847,4.028-13.048,3.116-21.56-10.063-13.9-15.68-20.545A18.679,18.679,0,0,0,323.853,283.339Z" transform="translate(-276.984 -244.641)" fill="#dec6a0"/>
        <path id="Path_10515" data-name="Path 10515" d="M346.167,320.713s16.845,37.107,16.845,50.742-3.789,63.885-3.789,63.885l-5.691.065s-6.745-55.666-7.78-58.255S314.339,346.6,314.339,323.13,346.167,320.713,346.167,320.713Z" transform="translate(-271.806 -206.055)" fill="#284f63"/>
        <path id="Path_10516" data-name="Path 10516" d="M328.52,317.058s-5.005,7.594-4.314,20.366,7.936,32.449,6.04,36.071-31.288,50.572-31.288,50.572l4.033,4.012s46.586-46.647,48.484-53.55,9.667-48.5,9.667-55.75S328.52,317.058,328.52,317.058Z" transform="translate(-292.198 -202.055)" fill="#284f63"/>
        <path id="Path_10517" data-name="Path 10517" d="M314.484,317.742s-11.294,9.194.272,49.54a2.52,2.52,0,0,0,2.556,1.817l50.754-2.9a2.466,2.466,0,0,0,2.249-3.124c-2.693-9.667-11.551-40.107-17.792-45.677C345.078,310.753,314.484,317.742,314.484,317.742Z" transform="translate(-278.163 -202.739)" fill="#284f63"/>
        <path id="Path_10518" data-name="Path 10518" d="M317.833,282.884a4.882,4.882,0,0,1,3.2-.409,25.467,25.467,0,0,1,12.617,6.493c5.784,5.826,15.14,11.522,16.371,22.136s-4.445,12.815-2.6,24.464,6.721,22.717,4.384,24.466-8.556,3.235-18.28,3.042-21.11-.26-20.864-3.368,4.954-17.378,2.741-28.64-5.323-19.45-5.323-30.453C310.084,291.008,313.759,284.959,317.833,282.884Z" transform="translate(-277.451 -245.374)" fill="#7cb4e2"/>
        <path id="Path_10519" data-name="Path 10519" d="M328.025,315.764" transform="translate(-253.664 -201.105)" fill="none" stroke="#fff" stroke-miterlimit="10" stroke-width="0.111"/>
        <path id="Path_10520" data-name="Path 10520" d="M336.884,365.108a36.338,36.338,0,0,0,6.486,5.27c4.4,2.938,5.463,2.174,5.635,3.363s-17.458,1.254-17.458,1.254l-.351-9.821S336.866,364.852,336.884,365.108Z" transform="translate(-249.466 -135.821)" fill="#032e35"/>
        <path id="Path_10521" data-name="Path 10521" d="M306.845,365.937a36.335,36.335,0,0,0,.786,8.322c.993,5.2,2.279,5.424,1.551,6.377s-13.13-11.577-13.13-11.577l6.761-7.133S307.015,365.747,306.845,365.937Z" transform="translate(-296.053 -139.909)" fill="#032e35"/>
        <path id="Path_10522" data-name="Path 10522" d="M316.425,299.4a80.778,80.778,0,0,0-3.366-16.531s5.317-13.221,7.4-14.382c1.467-.821,9.326-1.049,9.326-1.049l9.04,5.042v.007a11.253,11.253,0,0,1-3.01,4.379v0a10.566,10.566,0,0,1-2.247,1.554c-4,2.058-9.6,5.144-9.261,11.089.053.967.2,2.2.361,3.6.8,7.233,1.737,19.036-9.277,22.58,0,0,.346-8.4.821-11.11A21.068,21.068,0,0,0,316.425,299.4Z" transform="translate(-273.503 -265.169)" fill="#222"/>
        <g id="Group_2682" data-name="Group 2682" transform="translate(43.235 48.461)">
          <path id="Path_10523" data-name="Path 10523" d="M342.252,307.742c-1.214,2.531,3.391,4.135,4.981,4.624,2.591.8,6.224-.232,6.556-1.256s-5.672-2.484-5.791-2.782,2.87.135,3.084-.858-3.668-2.072-5.377-1.9S343.015,306.154,342.252,307.742Z" transform="translate(-278.305 -263.099)" fill="#f79a74"/>
          <path id="Path_10524" data-name="Path 10524" d="M315.594,288.862a5.389,5.389,0,0,0-.24,5.749c4.384,8.175,19.527,35.339,25.8,32.553,7.372-3.275-7.5-26.576-12.659-32.778C324.195,289.215,318.585,284.862,315.594,288.862Z" transform="translate(-314.638 -287.3)" fill="#f79a74"/>
          <path id="Path_10525" data-name="Path 10525" d="M325.4,302.679a5.318,5.318,0,0,1,4.8-1.137c8.358,1.916,38.579,9.09,39.263,12.782.794,4.289-43.261-4.051-44.14-6.193C324.638,306.463,323.343,304.568,325.4,302.679Z" transform="translate(-301.855 -268.609)" fill="#f79a74"/>
        </g>
      </g>
      <g id="Group_2043" data-name="Group 2043" transform="translate(977.455 1111.19)">
        <g id="Group_2042" data-name="Group 2042" transform="translate(0 0)">
          <g id="Group_2033" data-name="Group 2033" transform="translate(2.223 2.209)">
            <path id="Path_8764" data-name="Path 8764" d="M374.73,422.925a8.943,8.943,0,1,0,10.931,6.363A8.943,8.943,0,0,0,374.73,422.925Zm3.485,13.194a4.7,4.7,0,1,1,3.346-5.748,4.7,4.7,0,0,1-3.346,5.748Z" transform="translate(-368.068 -422.626)" fill="#7cb4e2"/>
          </g>
          <g id="Group_2034" data-name="Group 2034" transform="translate(6.431)">
            <path id="Path_8765" data-name="Path 8765" d="M376.648,424.732l-3.9,1.031s-1.489-2.932-1-3.776c.507-.871,3.085-1.625,3.9-1.029C376.439,421.534,376.648,424.732,376.648,424.732Z" transform="translate(-371.653 -420.744)" fill="#7cb4e2"/>
          </g>
          <g id="Group_2035" data-name="Group 2035" transform="translate(10.691 17.448)">
            <path id="Path_8766" data-name="Path 8766" d="M379.184,435.618l-3.9,1.029s.154,3.283,1,3.776c.871.507,3.487-.11,3.9-1.031C380.581,438.5,379.184,435.618,379.184,435.618Z" transform="translate(-375.287 -435.618)" fill="#7cb4e2"/>
          </g>
          <g id="Group_2036" data-name="Group 2036" transform="translate(0.737 4.408)">
            <path id="Path_8767" data-name="Path 8767" d="M372.051,426.052l-1.57,3.713s-3.229-.616-3.6-1.522c-.378-.933.6-3.434,1.57-3.712C369.392,424.26,372.051,426.052,372.051,426.052Z" transform="translate(-366.801 -424.504)" fill="#7cb4e2"/>
          </g>
          <g id="Group_2037" data-name="Group 2037" transform="translate(0 11.358)">
            <path id="Path_8768" data-name="Path 8768" d="M370.462,430.5l.38,4.013s-3.136.99-3.888.368c-.775-.641-1.1-3.309-.379-4.013C367.275,430.184,370.462,430.5,370.462,430.5Z" transform="translate(-366.173 -430.426)" fill="#7cb4e2"/>
          </g>
          <g id="Group_2038" data-name="Group 2038" transform="translate(17.5 6.693)">
            <path id="Path_8769" data-name="Path 8769" d="M381.962,431.347l-.871-3.935s2.993-1.369,3.812-.843c.849.541,1.5,3.149.871,3.936C385.164,431.269,381.962,431.347,381.962,431.347Z" transform="translate(-381.091 -426.449)" fill="#7cb4e2"/>
          </g>
          <g id="Group_2039" data-name="Group 2039" transform="translate(12.997 0.85)">
            <path id="Path_8770" data-name="Path 8770" d="M377.253,424.59l3.2,2.452s2.5-2.129,2.378-3.1c-.131-1-2.218-2.69-3.2-2.454C378.683,421.72,377.253,424.59,377.253,424.59Z" transform="translate(-377.253 -421.465)" fill="#7cb4e2"/>
          </g>
          <g id="Group_2040" data-name="Group 2040" transform="translate(3.151 16.25)">
            <path id="Path_8771" data-name="Path 8771" d="M374.44,437.048l-3.2-2.454s-2.507,2.129-2.379,3.1c.133,1,2.221,2.69,3.2,2.452C373.012,439.918,374.44,437.048,374.44,437.048Z" transform="translate(-368.859 -434.594)" fill="#7cb4e2"/>
          </g>
          <g id="Group_2041" data-name="Group 2041" transform="translate(16.539 13.063)">
            <path id="Path_8772" data-name="Path 8772" d="M380.272,435.592l1.57-3.71s3.229.613,3.6,1.519c.378.933-.6,3.435-1.57,3.713C382.929,437.381,380.272,435.592,380.272,435.592Z" transform="translate(-380.272 -431.882)" fill="#7cb4e2"/>
          </g>
        </g>
      </g>
      <rect id="Rectangle_158365" data-name="Rectangle 158365" width="570" height="1.103" transform="translate(800 1230.521)" fill="#373660"/>
    </g>
    <g id="Group_268974" data-name="Group 268974" transform="translate(722.488 938.002)">
      <path id="Path_113351" data-name="Path 113351" d="M867.391,145.474l-36.475-4.383a4.6,4.6,0,0,1-4.015-5.1l6.071-50.486a4.6,4.6,0,0,1,5.1-4.015L861.2,84.274l15.687,20.591-4.4,36.594a4.6,4.6,0,0,1-5.1,4.015Z" transform="translate(-308.399 -12.602)" fill="#008dd1"/>
      <path id="Path_113352" data-name="Path 113352" d="M872.437,121.337l3.664.447-2.052,16.794a24.415,24.415,0,0,1-4.814-.086c-4.475-.551-6.56-2.835-6.091-6.675.452-3.7,3.217-5.8,7.046-5.331a5.993,5.993,0,0,1,1.571.382Zm-.917,8.573a3.717,3.717,0,0,0-1.213-.338c-1.853-.226-3.062.774-3.3,2.755a2.676,2.676,0,0,0,2.534,3.348,8.706,8.706,0,0,0,1.27.061Z" transform="translate(-329.663 -36.017)" fill="#fff"/>
      <path id="Path_113353" data-name="Path 113353" d="M894.511,129.289l-1.027,8.408c-.354,2.9-.741,4.262-1.524,5.385a5.882,5.882,0,0,1-3.323,2.32l-3.2-2.018a5.316,5.316,0,0,0,3.2-2.075c.65-.972.962-2.153,1.348-5.311l.874-7.156,3.659.447ZM891.19,123l3.664.447-.455,3.723-3.664-.447Z" transform="translate(-342.789 -36.994)" fill="#fff"/>
      <g id="Group_268961" data-name="Group 268961" transform="translate(518.7 109.872)" opacity="0.2">
        <path id="Path_113354" data-name="Path 113354" d="M829.011,180.821l45.6,5.486-1.566,13.016a5.1,5.1,0,0,1-5.669,4.451l-35.393-4.258a5.181,5.181,0,0,1-4.525-5.763l1.556-12.932Z" transform="translate(-827.424 -180.821)" opacity="0.2"/>
      </g>
      <g id="Group_268962" data-name="Group 268962" transform="translate(551.09 71.657)" opacity="0.2">
        <path id="Path_113355" data-name="Path 113355" d="M907.627,88.233l-1.7,14.208a4.275,4.275,0,0,0,3.732,4.757l13.636,1.642Z" transform="translate(-905.898 -88.233)" fill="#fff" opacity="0.2"/>
      </g>
      <path id="Path_113357" data-name="Path 113357" d="M846.443,203.943l.578-4.995,1.706.2a2.959,2.959,0,0,1,1.405.481,1.923,1.923,0,0,1,.741.968A2.918,2.918,0,0,1,851,201.94a2.97,2.97,0,0,1-.431,1.288,1.973,1.973,0,0,1-.943.773,3.018,3.018,0,0,1-1.477.14Zm1-.679.749.087a2.08,2.08,0,0,0,1.015-.085,1.185,1.185,0,0,0,.589-.525,2.815,2.815,0,0,0,.214-1.848,1.181,1.181,0,0,0-.452-.653,2.024,2.024,0,0,0-.968-.322l-.749-.087ZM853.1,204.8a1.674,1.674,0,0,1-1.123-.542,1.55,1.55,0,0,1-.3-1.221l.913.106a.939.939,0,0,0,.1.575.6.6,0,0,0,.483.266.573.573,0,0,0,.5-.137.853.853,0,0,0,.21-.5l.411-3.553.914.106-.412,3.553a1.515,1.515,0,0,1-.545,1.087A1.535,1.535,0,0,1,853.1,204.8Zm2.249.174,2.405-4.783,1.028.119,1.248,5.206-.97-.113-.266-1.2-1.948-.226-.54,1.109Zm1.829-1.682,1.448.168-.488-2.161Zm3.78,2.332.578-4.995.913.106,1.94,3.789.407-3.518.913.106-.579,4.995-.913-.106-1.941-3.782-.407,3.511Zm7.6.967a2.343,2.343,0,0,1-1.2-.464,2.2,2.2,0,0,1-.717-.987,3.242,3.242,0,0,1,.319-2.7,2.254,2.254,0,0,1,.97-.82,2.572,2.572,0,0,1,1.373-.181,2.424,2.424,0,0,1,1.407.589,1.931,1.931,0,0,1,.615,1.25l-1.02-.118a1,1,0,0,0-.351-.59,1.374,1.374,0,0,0-.747-.289,1.444,1.444,0,0,0-1.211.344,1.936,1.936,0,0,0-.557,1.251,1.9,1.9,0,0,0,.251,1.331,1.419,1.419,0,0,0,1.047.577,1.345,1.345,0,0,0,1.062-.246,1.666,1.666,0,0,0,.533-.922l-1.263-.146.08-.685,2.183.253-.318,2.747-.842-.1,0-.665a1.687,1.687,0,0,1-.67.479A1.985,1.985,0,0,1,868.555,206.591Zm5.961.691a2.577,2.577,0,0,1-1.275-.48,2.382,2.382,0,0,1-.773-1.008,2.83,2.83,0,0,1-.158-1.385,2.787,2.787,0,0,1,.469-1.305,2.365,2.365,0,0,1,.984-.811,2.793,2.793,0,0,1,2.618.3,2.3,2.3,0,0,1,.772,1.015,2.781,2.781,0,0,1,.159,1.378,2.824,2.824,0,0,1-.47,1.312,2.314,2.314,0,0,1-.982.8A2.564,2.564,0,0,1,874.516,207.281Zm.1-.821a1.456,1.456,0,0,0,1.189-.34,2.176,2.176,0,0,0,.3-2.583,1.457,1.457,0,0,0-1.08-.6,1.478,1.478,0,0,0-1.2.339,2.178,2.178,0,0,0-.3,2.583A1.48,1.48,0,0,0,874.611,206.461Z" transform="translate(-319.893 -81.593)" fill="#fff"/>
    </g>
  </g>
</svg>
