<svg xmlns="http://www.w3.org/2000/svg" width="570" height="368.016" viewBox="0 0 570 368.016">
  <g id="Django_Development_banner" transform="translate(-813 -170.001)">
    <g id="Group_268969" data-name="Group 268969" transform="translate(0 -0.164)">
      <g id="Group_268966" data-name="Group 268966">
        <g id="Group_981" data-name="Group 981" transform="translate(447.846 19.279)">
          <g id="Group_812" data-name="Group 812" transform="translate(404.153 133.72)">
            <g id="Group_771" data-name="Group 771" transform="translate(0 80.456)">
              <g id="Group_770" data-name="Group 770">
                <rect id="Rectangle_378" data-name="Rectangle 378" width="404.935" height="287.717" rx="6.928" transform="translate(11.721)" fill="#3489b4"/>
                <rect id="Rectangle_379" data-name="Rectangle 379" width="394.279" height="280.146" rx="5.491" transform="translate(17.049 3.786)" fill="#0271a6"/>
                <path id="Rectangle_380" data-name="Rectangle 380" d="M3.383,0H356.8a3.383,3.383,0,0,1,3.383,3.383V238.859a3.383,3.383,0,0,1-3.383,3.383H3.383A3.383,3.383,0,0,1,0,238.859V3.383A3.383,3.383,0,0,1,3.383,0Z" transform="translate(34.099 16.969)" fill="#c9e4f9"/>
                <path id="Path_6599" data-name="Path 6599" d="M241.593,320.08a15.017,15.017,0,0,0-1.888,7.193,15.185,15.185,0,0,0,15.184,15.185H652.9a15.186,15.186,0,0,0,15.188-15.187,15.018,15.018,0,0,0-1.891-7.191Z" transform="translate(-239.705 -47.282)" fill="#3589b1"/>
              </g>
              <path id="Path_6600" data-name="Path 6600" d="M240.427,325.582a15.125,15.125,0,0,0,13.3,7.991H651.732a15.125,15.125,0,0,0,13.3-7.991Z" transform="translate(-238.539 -38.397)" fill="#80b7d2"/>
            </g>
            <path id="Path_6601" data-name="Path 6601" d="M558.991,215.755H288.783V396.332a7.229,7.229,0,0,0,7.231,7.23H577.107V233.869a18.116,18.116,0,0,0-18.113-18.114Z" transform="translate(-160.449 -135.299)" fill="#8cb2cf" opacity="0.99"/>
            <rect id="Rectangle_381" data-name="Rectangle 381" width="316.314" height="200.633" rx="2.765" transform="translate(138.274 59.494)" fill="#96bddb"/>
            <rect id="Rectangle_382" data-name="Rectangle 382" width="316.314" height="200.634" rx="2.765" transform="translate(150.926 45.938)" fill="#c9e4f9"/>
            <rect id="Rectangle_384" data-name="Rectangle 384" width="41.121" height="42.929" rx="1.728" transform="translate(53.547 202.287)" fill="#60a6df"/>
            <rect id="Rectangle_385" data-name="Rectangle 385" width="41.121" height="42.928" rx="1.728" transform="translate(53.547 263.291)" fill="#60a6df"/>
            <g id="Group_772" data-name="Group 772" transform="translate(63.488 270.252)">
              <path id="Path_6602" data-name="Path 6602" d="M283.587,298.112a9.775,9.775,0,1,0-19.549,0s-1.378,10.353,9.775,18.584C284.965,308.464,283.587,298.112,283.587,298.112Z" transform="translate(-263.984 -288.337)" fill="#0271a6"/>
              <path id="Path_6603" data-name="Path 6603" d="M272.689,303.505a7.081,7.081,0,1,1,6.482-6.483,7.081,7.081,0,0,1-6.482,6.483Z" transform="translate(-262.286 -286.672)" fill="#f9fbfc"/>
            </g>
            <g id="Group_779" data-name="Group 779" transform="translate(59.601 209.663)">
              <g id="Group_774" data-name="Group 774">
                <g id="Group_773" data-name="Group 773">
                  <path id="Path_6604" data-name="Path 6604" d="M289.544,278.688a13.523,13.523,0,1,1-13.523-13.521,13.523,13.523,0,0,1,13.523,13.521Z" transform="translate(-262.498 -265.167)" fill="#0271a6"/>
                  <path id="Path_6605" data-name="Path 6605" d="M285.31,277.072a10.905,10.905,0,1,1-10.905-10.9,10.906,10.906,0,0,1,10.905,10.9Z" transform="translate(-260.881 -263.55)" fill="#f9fbfc"/>
                  <path id="Path_6606" data-name="Path 6606" d="M274.651,266.708a10.9,10.9,0,0,1,10.452,7.8.442.442,0,0,0,.421.316h0a.435.435,0,0,0,.418-.554,11.778,11.778,0,0,0-22.585,0,.435.435,0,0,0,.418.554h0a.442.442,0,0,0,.421-.316A10.9,10.9,0,0,1,274.651,266.708Z" transform="translate(-261.13 -264.091)" fill="#0271a6"/>
                  <path id="Path_6607" data-name="Path 6607" d="M288.05,270.471a1.3,1.3,0,0,0-1.294,1.119,10.9,10.9,0,0,1-21.607,0,1.3,1.3,0,0,0-1.294-1.119h0a1.308,1.308,0,0,0-1.3,1.472,13.52,13.52,0,0,0,26.795,0,1.307,1.307,0,0,0-1.3-1.472Z" transform="translate(-262.429 -256.602)" fill="#0271a6"/>
                  <path id="Path_6608" data-name="Path 6608" d="M285.31,277.072a11.077,11.077,0,0,1-2.256,6.644,10.746,10.746,0,0,1-8.649,4.263A10.905,10.905,0,1,1,285.31,277.07Z" transform="translate(-260.881 -263.55)" fill="#f9fbfc"/>
                  <path id="Path_6609" data-name="Path 6609" d="M285.141,271.684a.44.44,0,0,0-.411.29,10.9,10.9,0,0,1-20.436,0,.44.44,0,0,0-.411-.29h0a.437.437,0,0,0-.411.588,11.783,11.783,0,0,0,22.083,0,.437.437,0,0,0-.411-.588Z" transform="translate(-260.988 -254.643)" fill="#0271a6"/>
                </g>
                <path id="Path_6610" data-name="Path 6610" d="M267.981,276.092h0a.525.525,0,0,1-.523-.523v-7.677a.523.523,0,0,1,.523-.523h0a.524.524,0,0,1,.526.523v7.678a.525.525,0,0,1-.526.522Z" transform="translate(-254.488 -261.611)" fill="#0271a6"/>
                <path id="Path_6611" data-name="Path 6611" d="M267.59,270.509h0a.523.523,0,0,1,.737-.063l4.736,4a.522.522,0,0,1,.063.737h0a.525.525,0,0,1-.737.063l-4.736-4a.523.523,0,0,1-.063-.737Z" transform="translate(-254.474 -256.841)" fill="#0271a6"/>
              </g>
              <g id="Group_775" data-name="Group 775" transform="translate(13.218 3.358)">
                <rect id="Rectangle_386" data-name="Rectangle 386" width="0.393" height="1.047" fill="#ced6ff"/>
                <rect id="Rectangle_387" data-name="Rectangle 387" width="0.393" height="1.047" transform="translate(0 19.106)" fill="#ced6ff"/>
              </g>
              <g id="Group_776" data-name="Group 776" transform="translate(3.337 13.238)">
                <rect id="Rectangle_388" data-name="Rectangle 388" width="0.393" height="1.047" transform="translate(0 0.393) rotate(-90)" fill="#ced6ff"/>
                <rect id="Rectangle_389" data-name="Rectangle 389" width="0.393" height="1.047" transform="translate(19.106 0.393) rotate(-90)" fill="#ced6ff"/>
              </g>
              <g id="Group_777" data-name="Group 777" transform="translate(6.15 6.171)">
                <rect id="Rectangle_390" data-name="Rectangle 390" width="0.393" height="1.047" transform="matrix(0.707, -0.707, 0.707, 0.707, 0, 0.277)" fill="#ced6ff"/>
                <rect id="Rectangle_391" data-name="Rectangle 391" width="0.393" height="1.047" transform="translate(13.51 13.788) rotate(-45)" fill="#ced6ff"/>
              </g>
              <g id="Group_778" data-name="Group 778" transform="translate(6.15 6.171)">
                <rect id="Rectangle_392" data-name="Rectangle 392" width="0.393" height="1.047" transform="translate(0.278 14.528) rotate(-134.997)" fill="#ced6ff"/>
                <rect id="Rectangle_393" data-name="Rectangle 393" width="0.393" height="1.047" transform="translate(13.788 1.018) rotate(-135)" fill="#ced6ff"/>
              </g>
            </g>
            <g id="Group_786" data-name="Group 786" transform="translate(4.26 138.573)">
              <g id="Group_785" data-name="Group 785" transform="translate(0 22.593)">
                <path id="Path_6612" data-name="Path 6612" d="M260.787,262.549l3.391-2.373,1.525-5.592-1.7-.339-1.017,2.033,1.017-9.659-1.7.339-1.7,9.32-2.032,4.408,1.864,1.186" transform="translate(-213.477 -246.62)" fill="#f7d3a9"/>
                <path id="Path_6613" data-name="Path 6613" d="M267.1,262.138l.452-4.067,4.971-4.971,1.13,1.581-1.807,2.033,9.49-2.26v2.036l-8.811,3.391-1.807,3.163Z" transform="translate(-199.733 -236.155)" fill="#f7d3a9"/>
                <g id="Group_784" data-name="Group 784" transform="translate(0 12.508)">
                  <g id="Group_783" data-name="Group 783" transform="translate(0 0)">
                    <path id="Path_6614" data-name="Path 6614" d="M243.436,295.008l18.483,90.417,13.987-1.5-9.491-3.5,3.5-1-5-84.421Z" transform="translate(-237.941 -180.988)" fill="#222"/>
                    <path id="Path_6615" data-name="Path 6615" d="M269.824,297.524S293.3,319.5,289.8,345.978c-4,20.982-12.489,28.973-12.489,28.973l-2.5-.5,3.87,10.24L267.45,372.7S281.311,353.6,272.7,333.74s-27.349-26.975-27.349-26.975,16.108-14.614,17.235-14.236S269.824,297.524,269.824,297.524Z" transform="translate(-234.856 -185.002)" fill="#222"/>
                    <g id="Group_782" data-name="Group 782">
                      <path id="Path_6616" data-name="Path 6616" d="M286.293,251.4S247.7,298.23,243.21,307.6c0,0-1.875,3.371-1.875,13.114s3.373,45.706,3.373,45.706l39.339,2.249s-12.741-43.833-13.114-44.958-6.744-7.868-12.737-9.367l32.969-59.57Z" transform="translate(-241.335 -251.4)" fill="#7cb4e2"/>
                      <g id="Group_781" data-name="Group 781" transform="translate(10.12 35.523)">
                        <path id="Path_6617" data-name="Path 6617" d="M254.316,275.77s1.639,4.864,2.544,7.8c0,0-8.03-.17-10.857-3.9l3-7.181Z" transform="translate(-243.913 -252.874)" fill="#f7d3a9"/>
                        <g id="Group_780" data-name="Group 780" transform="translate(0 0)">
                          <path id="Path_6618" data-name="Path 6618" d="M261.711,272.688s2.374,13.83,0,16.973-10.517-2.2-13.911-7.23-4.069-16.346,1.7-17.287A10.669,10.669,0,0,1,261.711,272.688Z" transform="translate(-245.202 -264.989)" fill="#f7d3a9"/>
                        </g>
                      </g>
                      <path id="Path_6619" data-name="Path 6619" d="M251.09,313.011s30.937-19.463,33.431-23.455S294,255.873,294,255.873l5.988,1.5s-3.494,33.183-4.49,36.676-31.439,35.929-38.423,35.929S247.6,320.994,251.09,313.011Z" transform="translate(-228.111 -244.187)" fill="#7cb4e2"/>
                    </g>
                  </g>
                  <path id="Path_6620" data-name="Path 6620" d="M247.085,268.074a11.726,11.726,0,0,1,11.3-4.291c7.23,1.357,9.037-.228,9.037-.228s-1.582,7.907-6.553,9.717-6.325,1.354-6.325,1.354,2.712,2.712,3.391,4.743-2.261-2.484-3.391-.9,0,4.971,2.261,4.743.9,1.582,0,3.391-2.261,4.069-3.616,3.391a15.973,15.973,0,0,1-7.907-9.037C243.473,275.311,243.019,269.884,247.085,268.074Z" transform="translate(-237.113 -231.78)" fill="#2d2a30"/>
                </g>
              </g>
            </g>
            <rect id="Rectangle_395" data-name="Rectangle 395" width="94.894" height="159.964" rx="1.296" transform="translate(170.357 66.95)" fill="#e3eaff"/>
            <rect id="Rectangle_396" data-name="Rectangle 396" width="61.455" height="13.556" rx="1.037" transform="translate(186.625 79.829)" fill="#60a6df"/>
            <path id="Path_6621" data-name="Path 6621" d="M329.682,255.932h-12.2a5.2,5.2,0,0,1-5.193-5.2h0a5.193,5.193,0,0,1,5.194-5.193h12.2a5.193,5.193,0,0,1,5.2,5.193h0A5.2,5.2,0,0,1,329.682,255.932Z" transform="translate(-122.496 -87.197)" fill="#60a6df"/>
            <path id="Path_6622" data-name="Path 6622" d="M343.161,255.932h-12.2a5.2,5.2,0,0,1-5.193-5.2h0a5.193,5.193,0,0,1,5.194-5.193h12.2a5.193,5.193,0,0,1,5.2,5.193h0a5.2,5.2,0,0,1-5.2,5.2Z" transform="translate(-100.729 -87.197)" fill="#0271a6"/>
            <rect id="Rectangle_397" data-name="Rectangle 397" width="65.974" height="10.393" transform="translate(185.269 106.941)" fill="#f9fbfc"/>
            <rect id="Rectangle_398" data-name="Rectangle 398" width="65.974" height="10.393" transform="translate(185.269 124.564)" fill="#f9fbfc"/>
            <rect id="Rectangle_399" data-name="Rectangle 399" width="37.958" height="2.372" transform="translate(199.503 141.51)" fill="#cdd4ff"/>
            <g id="Group_787" data-name="Group 787" transform="translate(273.385 63.561)">
              <path id="Path_6624" data-name="Path 6624" d="M428.982,230.985H355.1a10.846,10.846,0,0,1-10.846-10.845h0A10.846,10.846,0,0,1,355.1,209.3h73.881a10.845,10.845,0,0,1,10.844,10.844v0a10.845,10.845,0,0,1-10.843,10.844Z" transform="translate(-344.255 -209.295)" fill="#e3eaff"/>
              <path id="Path_6625" data-name="Path 6625" d="M359.324,215.533a3.388,3.388,0,1,1-.992-2.4,3.391,3.391,0,0,1,.992,2.4Z" transform="translate(-330.855 -204.687)" fill="#a7d3f6"/>
              <path id="Path_6626" data-name="Path 6626" d="M368.224,215.533a3.391,3.391,0,1,1-3.391-3.391,3.391,3.391,0,0,1,3.391,3.391Z" transform="translate(-316.483 -204.687)" fill="#a7d3f6"/>
              <path id="Path_6627" data-name="Path 6627" d="M376.432,215.533a3.388,3.388,0,1,1-.992-2.4,3.391,3.391,0,0,1,.992,2.4Z" transform="translate(-303.228 -204.687)" fill="#a7d3f6"/>
            </g>
            <rect id="Rectangle_401" data-name="Rectangle 401" width="90.149" height="116.584" rx="1.814" transform="translate(390.647 33.737)" fill="#a7d3f6"/>
            <g id="Group_791" data-name="Group 791" transform="translate(404.203 47.044)">
              <path id="Path_6630" data-name="Path 6630" d="M400.867,205.3H394.86c-.319,0-.578-.52-.578-1.161h0c0-.641.257-1.161.578-1.161h6.007c.319,0,.578.52.578,1.161h0C401.444,204.78,401.185,205.3,400.867,205.3Z" transform="translate(-394.282 -202.98)" fill="#60a6df"/>
              <path id="Path_6631" data-name="Path 6631" d="M432.6,205.3H398.239c-.319,0-.578-.52-.578-1.161h0c0-.641.257-1.161.578-1.161H432.6c.319,0,.578.52.578,1.161h0C433.174,204.78,432.915,205.3,432.6,205.3Z" transform="translate(-388.825 -202.98)" fill="#60a6df"/>
              <path id="Path_6632" data-name="Path 6632" d="M409.2,207.135H398.239c-.319,0-.578-.52-.578-1.161h0c0-.643.257-1.161.578-1.161H409.2c.319,0,.578.518.578,1.161h0C409.776,206.615,409.517,207.135,409.2,207.135Z" transform="translate(-388.825 -200.014)" fill="#60a6df"/>
              <path id="Path_6633" data-name="Path 6633" d="M419.079,207.135h-15.8c-.319,0-.578-.52-.578-1.161h0c0-.643.257-1.161.578-1.161h15.8c.319,0,.578.518.578,1.161h0C419.656,206.615,419.4,207.135,419.079,207.135Z" transform="translate(-380.68 -200.014)" fill="#60a6df"/>
              <path id="Path_6634" data-name="Path 6634" d="M432.6,216.073H398.239c-.319,0-.578-.52-.578-1.161h0c0-.641.257-1.161.578-1.161H432.6c.319,0,.578.52.578,1.161h0C433.174,215.553,432.915,216.073,432.6,216.073Z" transform="translate(-388.825 -185.58)" fill="#60a6df"/>
              <path id="Path_6635" data-name="Path 6635" d="M400.867,217.909H394.86c-.319,0-.578-.52-.578-1.161h0c0-.641.257-1.161.578-1.161h6.007c.319,0,.578.52.578,1.161h0C401.444,217.389,401.185,217.909,400.867,217.909Z" transform="translate(-394.282 -182.615)" fill="#60a6df"/>
              <path id="Path_6636" data-name="Path 6636" d="M409.2,217.909H398.239c-.319,0-.578-.52-.578-1.161h0c0-.641.257-1.161.578-1.161H409.2c.319,0,.578.52.578,1.161h0C409.776,217.389,409.517,217.909,409.2,217.909Z" transform="translate(-388.825 -182.615)" fill="#60a6df"/>
              <path id="Path_6637" data-name="Path 6637" d="M419.079,217.909h-15.8c-.319,0-.578-.52-.578-1.161h0c0-.641.257-1.161.578-1.161h15.8c.319,0,.578.52.578,1.161h0C419.656,217.389,419.4,217.909,419.079,217.909Z" transform="translate(-380.68 -182.615)" fill="#60a6df"/>
              <path id="Path_6638" data-name="Path 6638" d="M441.118,208.973H398.239c-.319,0-.578-.52-.578-1.161h0c0-.643.257-1.164.578-1.164h42.879c.319,0,.578.52.578,1.164h0C441.7,208.452,441.437,208.973,441.118,208.973Z" transform="translate(-388.825 -197.05)" fill="#60a6df"/>
              <rect id="Rectangle_402" data-name="Rectangle 402" width="11.207" height="2.323" rx="0.234" transform="translate(32.711 14.399)" fill="#60a6df"/>
              <path id="Path_6639" data-name="Path 6639" d="M412.482,210.809H398.239c-.319,0-.578-.52-.578-1.164h0c0-.641.257-1.161.578-1.161h14.243c.319,0,.578.52.578,1.161h0C413.06,210.29,412.8,210.809,412.482,210.809Z" transform="translate(-388.825 -194.086)" fill="#60a6df"/>
              <path id="Path_6640" data-name="Path 6640" d="M410.073,210.809h-5.648c-.319,0-.578-.52-.578-1.164h0c0-.641.257-1.161.578-1.161h5.648c.319,0,.578.52.578,1.161h0C410.651,210.29,410.392,210.809,410.073,210.809Z" transform="translate(-378.835 -194.086)" fill="#60a6df"/>
              <path id="Path_6641" data-name="Path 6641" d="M400.867,212.581H394.86c-.319,0-.578-.52-.578-1.161h0c0-.641.257-1.161.578-1.161h6.007c.319,0,.578.52.578,1.161h0C401.444,212.061,401.185,212.581,400.867,212.581Z" transform="translate(-394.282 -191.219)" fill="#60a6df"/>
              <path id="Path_6642" data-name="Path 6642" d="M441.118,212.581H398.239c-.319,0-.578-.52-.578-1.161h0c0-.641.257-1.161.578-1.161h42.879c.319,0,.578.52.578,1.161h0C441.7,212.061,441.437,212.581,441.118,212.581Z" transform="translate(-388.825 -191.219)" fill="#60a6df"/>
              <path id="Path_6643" data-name="Path 6643" d="M400.867,219.609H394.86c-.319,0-.578-.52-.578-1.161h0c0-.641.257-1.161.578-1.161h6.007c.319,0,.578.52.578,1.161h0C401.444,219.089,401.185,219.609,400.867,219.609Z" transform="translate(-394.282 -179.869)" fill="#60a6df"/>
              <rect id="Rectangle_403" data-name="Rectangle 403" width="15.504" height="2.323" rx="0.275" transform="translate(32.711 37.417)" fill="#60a6df"/>
              <path id="Path_6644" data-name="Path 6644" d="M412.482,219.609H398.239c-.319,0-.578-.52-.578-1.161h0c0-.641.257-1.161.578-1.161h14.243c.319,0,.578.52.578,1.161h0C413.06,219.089,412.8,219.609,412.482,219.609Z" transform="translate(-388.825 -179.869)" fill="#60a6df"/>
              <path id="Path_6645" data-name="Path 6645" d="M410.073,219.609h-5.648c-.319,0-.578-.52-.578-1.161h0c0-.641.257-1.161.578-1.161h5.648c.319,0,.578.52.578,1.161h0C410.651,219.089,410.392,219.609,410.073,219.609Z" transform="translate(-378.835 -179.869)" fill="#60a6df"/>
              <path id="Path_6646" data-name="Path 6646" d="M400.867,221.384H394.86c-.319,0-.578-.52-.578-1.161h0c0-.643.257-1.161.578-1.161h6.007c.319,0,.578.518.578,1.161h0C401.444,220.864,401.185,221.384,400.867,221.384Z" transform="translate(-394.282 -177.003)" fill="#60a6df"/>
              <path id="Path_6647" data-name="Path 6647" d="M405.663,221.384h-7.424c-.319,0-.578-.52-.578-1.161h0c0-.643.257-1.161.578-1.161h7.424c.319,0,.578.518.578,1.161h0C406.241,220.864,405.982,221.384,405.663,221.384Z" transform="translate(-388.825 -177.003)" fill="#60a6df"/>
              <path id="Path_6648" data-name="Path 6648" d="M394.86,214.417c-.319,0-.578-.52-.578-1.161h0c0-.641.257-1.161.578-1.161h6.007c.319,0,.578.52.578,1.161h0c0,.641-.257,1.161-.578,1.161" transform="translate(-394.282 -188.254)" fill="#60a6df"/>
              <rect id="Rectangle_404" data-name="Rectangle 404" width="17.519" height="2.323" rx="0.292" transform="translate(32.711 23.84)" fill="#60a6df"/>
              <path id="Path_6649" data-name="Path 6649" d="M412.482,214.417H398.239c-.319,0-.578-.52-.578-1.161h0c0-.641.257-1.161.578-1.161h14.243c.319,0,.578.52.578,1.161h0C413.06,213.9,412.8,214.417,412.482,214.417Z" transform="translate(-388.825 -188.254)" fill="#60a6df"/>
              <path id="Path_6650" data-name="Path 6650" d="M410.073,214.417h-5.648c-.319,0-.578-.52-.578-1.161h0c0-.641.257-1.161.578-1.161h5.648c.319,0,.578.52.578,1.161h0C410.651,213.9,410.392,214.417,410.073,214.417Z" transform="translate(-378.835 -188.254)" fill="#60a6df"/>
              <path id="Path_6651" data-name="Path 6651" d="M432.6,223.271H398.239c-.319,0-.578-.52-.578-1.161h0c0-.641.257-1.161.578-1.161H432.6c.319,0,.578.52.578,1.161h0C433.174,222.751,432.915,223.271,432.6,223.271Z" transform="translate(-388.825 -173.955)" fill="#60a6df"/>
              <path id="Path_6652" data-name="Path 6652" d="M409.2,225.1H398.239c-.319,0-.578-.52-.578-1.161h0c0-.641.257-1.161.578-1.161H409.2c.319,0,.578.52.578,1.161h0C409.776,224.584,409.517,225.1,409.2,225.1Z" transform="translate(-388.825 -170.988)" fill="#60a6df"/>
              <path id="Path_6653" data-name="Path 6653" d="M419.079,225.1h-15.8c-.319,0-.578-.52-.578-1.161h0c0-.641.257-1.161.578-1.161h15.8c.319,0,.578.52.578,1.161h0C419.656,224.584,419.4,225.1,419.079,225.1Z" transform="translate(-380.68 -170.988)" fill="#60a6df"/>
              <path id="Path_6654" data-name="Path 6654" d="M432.6,234.045H398.239c-.319,0-.578-.518-.578-1.161h0c0-.641.257-1.161.578-1.161H432.6c.319,0,.578.52.578,1.161h0C433.174,233.527,432.915,234.045,432.6,234.045Z" transform="translate(-388.825 -156.557)" fill="#60a6df"/>
              <path id="Path_6655" data-name="Path 6655" d="M400.867,235.881H394.86c-.319,0-.578-.52-.578-1.161h0c0-.641.257-1.161.578-1.161h6.007c.319,0,.578.52.578,1.161h0C401.444,235.361,401.185,235.881,400.867,235.881Z" transform="translate(-394.282 -153.592)" fill="#60a6df"/>
              <path id="Path_6656" data-name="Path 6656" d="M409.2,235.881H398.239c-.319,0-.578-.52-.578-1.161h0c0-.641.257-1.161.578-1.161H409.2c.319,0,.578.52.578,1.161h0C409.776,235.361,409.517,235.881,409.2,235.881Z" transform="translate(-388.825 -153.592)" fill="#60a6df"/>
              <path id="Path_6657" data-name="Path 6657" d="M419.079,235.881h-15.8c-.319,0-.578-.52-.578-1.161h0c0-.641.257-1.161.578-1.161h15.8c.319,0,.578.52.578,1.161h0C419.656,235.361,419.4,235.881,419.079,235.881Z" transform="translate(-380.68 -153.592)" fill="#60a6df"/>
              <path id="Path_6658" data-name="Path 6658" d="M400.867,226.943H394.86c-.319,0-.578-.52-.578-1.161h0c0-.643.257-1.161.578-1.161h6.007c.319,0,.578.518.578,1.161h0C401.444,226.423,401.185,226.943,400.867,226.943Z" transform="translate(-394.282 -168.026)" fill="#60a6df"/>
              <rect id="Rectangle_405" data-name="Rectangle 405" width="31.949" height="2.323" rx="0.267" transform="translate(8.835 56.594)" fill="#60a6df"/>
              <path id="Path_6659" data-name="Path 6659" d="M400.867,228.781H394.86c-.319,0-.578-.52-.578-1.164h0c0-.641.257-1.161.578-1.161h6.007c.319,0,.578.52.578,1.161h0C401.444,228.26,401.185,228.781,400.867,228.781Z" transform="translate(-394.282 -165.062)" fill="#60a6df"/>
              <path id="Path_6660" data-name="Path 6660" d="M412.482,228.781H398.239c-.319,0-.578-.52-.578-1.164h0c0-.641.257-1.161.578-1.161h14.243c.319,0,.578.52.578,1.161h0C413.06,228.26,412.8,228.781,412.482,228.781Z" transform="translate(-388.825 -165.062)" fill="#60a6df"/>
              <path id="Path_6661" data-name="Path 6661" d="M410.073,228.781h-5.648c-.319,0-.578-.52-.578-1.164h0c0-.641.257-1.161.578-1.161h5.648c.319,0,.578.52.578,1.161h0C410.651,228.26,410.392,228.781,410.073,228.781Z" transform="translate(-378.835 -165.062)" fill="#60a6df"/>
              <path id="Path_6662" data-name="Path 6662" d="M400.867,230.553H394.86c-.319,0-.578-.518-.578-1.161h0c0-.641.257-1.161.578-1.161h6.007c.319,0,.578.52.578,1.161h0C401.444,230.035,401.185,230.553,400.867,230.553Z" transform="translate(-394.282 -162.196)" fill="#60a6df"/>
              <path id="Rectangle_406" data-name="Rectangle 406" d="M.154,0H40.076a.154.154,0,0,1,.154.154V2.169a.154.154,0,0,1-.154.154H.154A.154.154,0,0,1,0,2.169V.154A.154.154,0,0,1,.154,0Z" transform="translate(8.835 66.035)" fill="#60a6df"/>
              <path id="Path_6663" data-name="Path 6663" d="M400.867,237.581H394.86c-.319,0-.578-.52-.578-1.161h0c0-.641.257-1.161.578-1.161h6.007c.319,0,.578.52.578,1.161h0C401.444,237.061,401.185,237.581,400.867,237.581Z" transform="translate(-394.282 -150.847)" fill="#60a6df"/>
              <path id="Path_6664" data-name="Path 6664" d="M426.33,237.581H407.369c-.319,0-.578-.52-.578-1.161h0c0-.641.257-1.161.578-1.161H426.33c.319,0,.578.52.578,1.161h0C426.908,237.061,426.649,237.581,426.33,237.581Z" transform="translate(-374.081 -150.847)" fill="#60a6df"/>
              <path id="Path_6665" data-name="Path 6665" d="M412.482,237.581H398.239c-.319,0-.578-.52-.578-1.161h0c0-.641.257-1.161.578-1.161h14.243c.319,0,.578.52.578,1.161h0C413.06,237.061,412.8,237.581,412.482,237.581Z" transform="translate(-388.825 -150.847)" fill="#60a6df"/>
              <path id="Path_6666" data-name="Path 6666" d="M410.073,237.581h-5.648c-.319,0-.578-.52-.578-1.161h0c0-.641.257-1.161.578-1.161h5.648c.319,0,.578.52.578,1.161h0C410.651,237.061,410.392,237.581,410.073,237.581Z" transform="translate(-378.835 -150.847)" fill="#60a6df"/>
              <rect id="Rectangle_407" data-name="Rectangle 407" width="26.577" height="2.323" rx="0.243" transform="translate(8.835 89.053)" fill="#60a6df"/>
              <rect id="Rectangle_408" data-name="Rectangle 408" width="18.548" height="2.323" rx="0.301" transform="translate(32.711 70.835)" fill="#60a6df"/>
              <path id="Path_6667" data-name="Path 6667" d="M412.482,232.389H398.239c-.319,0-.578-.52-.578-1.161h0c0-.641.257-1.161.578-1.161h14.243c.319,0,.578.52.578,1.161h0C413.06,231.869,412.8,232.389,412.482,232.389Z" transform="translate(-388.825 -159.231)" fill="#60a6df"/>
              <path id="Path_6668" data-name="Path 6668" d="M410.073,232.389h-5.648c-.319,0-.578-.52-.578-1.161h0c0-.641.257-1.161.578-1.161h5.648c.319,0,.578.52.578,1.161h0C410.651,231.869,410.392,232.389,410.073,232.389Z" transform="translate(-378.835 -159.231)" fill="#60a6df"/>
            </g>
            <g id="Group_795" data-name="Group 795" transform="translate(454.549 17.166)">
              <circle id="Ellipse_74" data-name="Ellipse 74" cx="18.979" cy="18.979" r="18.979" transform="translate(0 0)" fill="#7cb4e2"/>
              <g id="Group_794" data-name="Group 794" transform="translate(6.829 14.393)">
                <g id="Group_792" data-name="Group 792" transform="translate(0 0)">
                  <path id="Path_6669" data-name="Path 6669" d="M426.923,199.861l-7.539,2.761,7.539,2.738v2.832l-10.776-4.1V201.15l10.776-4.1Z" transform="translate(-416.147 -197.055)" fill="#f9fbfc"/>
                </g>
                <g id="Group_793" data-name="Group 793" transform="translate(13.237 0.001)">
                  <path id="Path_6670" data-name="Path 6670" d="M421.209,197.056l10.776,4.1V204.1l-10.776,4.1v-2.832l7.539-2.738-7.539-2.761Z" transform="translate(-421.209 -197.056)" fill="#f9fbfc"/>
                </g>
              </g>
            </g>
            <g id="Group_802" data-name="Group 802" transform="translate(311.475 148.933)">
              <path id="Path_6675" data-name="Path 6675" d="M402.908,279.831s-2.009,5.952-3.118,9.554c0,0,9.833-.209,13.292-4.777l-3.668-8.791Z" transform="translate(-357.166 -219.511)" fill="#f7d3a9"/>
              <g id="Group_799" data-name="Group 799" transform="translate(36.085 223.944)">
                <path id="Path_6676" data-name="Path 6676" d="M400.285,326.85l.84,3.746,5.428.306-1.147-4.587Z" transform="translate(-392.105 -326.315)" fill="#f79a74"/>
                <path id="Path_6677" data-name="Path 6677" d="M406.84,327.6s-9.1,4.74-9.02,5.046,15.363-1.3,15.363-1.3l-.913-3.439Z" transform="translate(-397.82 -323.323)" fill="#544db8"/>
              </g>
              <g id="Group_800" data-name="Group 800" transform="translate(85.662 214.591)">
                <path id="Path_6678" data-name="Path 6678" d="M414.1,325.839l2.132,3.193,5.174-1.668-2.72-3.866Z" transform="translate(-409.629 -323.497)" fill="#f79a74"/>
                <path id="Path_6679" data-name="Path 6679" d="M419.358,326.333s-6.779,7.7-6.6,7.957,13.87-6.742,13.87-6.742l-2.095-2.882Z" transform="translate(-412.756 -320.798)" fill="#544db8"/>
              </g>
              <path id="Path_6680" data-name="Path 6680" d="M400.631,296.977s-15.6,50.911,9.172,99.986h7.34s-14.675-55.5,3.668-100.443Z" transform="translate(-366.458 -171.492)" fill="#284f63"/>
              <path id="Path_6681" data-name="Path 6681" d="M401.324,302.239s2.413,53.192,42.23,91.1l6.914-2.467S418,343.526,420.175,295.025Z" transform="translate(-353.61 -174.954)" fill="#284f63"/>
              <g id="Group_801" data-name="Group 801" transform="translate(0 0)">
                <path id="Path_6682" data-name="Path 6682" d="M404.851,266.289l.02-3.137a1.548,1.548,0,0,0-.053-.408l-.6-2.244-1.79.457-1.826-1.683a1.548,1.548,0,0,0-2.453.468,17.34,17.34,0,0,0-1.408,3.907,1.525,1.525,0,0,0,.4,1.285l2.788,3.054a1.552,1.552,0,0,0,1.587.442l2.224-.657A1.548,1.548,0,0,0,404.851,266.289Z" transform="translate(-364.281 -258.858)" fill="#f79a74"/>
                <path id="Path_6683" data-name="Path 6683" d="M430.545,329.676s-20.34-21.8-21.677-29.957-4.316-38.509-4.316-38.509l-6.271,1.212s-2.152,43.411-.249,48.408,14.132,30.475,22.1,32.828S433.692,338.157,430.545,329.676Z" transform="translate(-363.074 -253.394)" fill="#fec35b"/>
                <path id="Path_6684" data-name="Path 6684" d="M400.615,276.662s-4.591,15.262-1.683,19.11,13.6.362,17.757-5.8,4.986-20.008-2.075-21.163S402.275,270.5,400.615,276.662Z" transform="translate(-361.396 -236.337)" fill="#f79a74"/>
                <path id="Path_6685" data-name="Path 6685" d="M433.213,343.161s4.127-44.032,4.127-55.956c0-.545-.01-1.055-.02-1.57-3.065-7.752-10.686-7.6-13.74-6.991s-14.982,4.435-14.905,4.892l-.033-.043c-4.109,2.988-7.25,6.522-7.536,7.38,0,0-11.008,22.935-1.374,50.456Z" transform="translate(-366.474 -213.55)" fill="#fec35b"/>
                <path id="Path_6686" data-name="Path 6686" d="M395.4,266.253l-.534-3.091a1.512,1.512,0,0,0-.123-.4l-.982-2.1-1.68.764-2.095-1.338a1.551,1.551,0,0,0-2.334.893,17.347,17.347,0,0,0-.7,4.093,1.532,1.532,0,0,0,.614,1.2l3.28,2.513a1.554,1.554,0,0,0,1.64.159l2.075-1.039A1.55,1.55,0,0,0,395.4,266.253Z" transform="translate(-386.951 -256.571)" fill="#f79a74"/>
                <path id="Path_6687" data-name="Path 6687" d="M431.566,324.677s-23.852-17.887-26.6-25.685-11.008-37.154-11.008-37.154l-5.962,2.294s5.5,43.116,8.256,47.7,19.264,27.52,27.52,28.437S436.149,332.474,431.566,324.677Z" transform="translate(-384.547 -251.938)" fill="#fec35b"/>
                <path id="Path_6688" data-name="Path 6688" d="M419.212,269.49s-12.23-5.2-18.043,5.5c-3.058,6.729,6.729.309,8.565,2.447s-2.447,6.424-1.225,7.951,3.363-2.752,4.588-.305-1.836,2.752-3.979,5.5,1.836,6.726-1.222,9.172-11.619,4.283-6.421,17.431-8.565,16.509-2.752,34.551,45.254,28.131,52.59,6.726-17.123-26.6-15.593-36.082,7.031-11.925-.305-21.4-11.928-14.985-9.783-21.1S421.964,269.49,419.212,269.49Z" transform="translate(-363.023 -237.114)" fill="#2d2a30"/>
              </g>
            </g>
            <g id="Group_268964" data-name="Group 268964" transform="translate(-222.51 23.167)">
              <path id="Path_113351" data-name="Path 113351" d="M867.391,145.474l-36.475-4.383a4.6,4.6,0,0,1-4.015-5.1l6.071-50.486a4.6,4.6,0,0,1,5.1-4.015L861.2,84.274l15.687,20.591-4.4,36.594a4.6,4.6,0,0,1-5.1,4.015Z" transform="translate(-308.399 -12.602)" fill="#008dd1"/>
              <path id="Path_113352" data-name="Path 113352" d="M872.437,121.337l3.664.447-2.052,16.794a24.415,24.415,0,0,1-4.814-.086c-4.475-.551-6.56-2.835-6.091-6.675.452-3.7,3.217-5.8,7.046-5.331a5.993,5.993,0,0,1,1.571.382Zm-.917,8.573a3.717,3.717,0,0,0-1.213-.338c-1.853-.226-3.062.774-3.3,2.755a2.676,2.676,0,0,0,2.534,3.348,8.706,8.706,0,0,0,1.27.061Z" transform="translate(-329.663 -36.017)" fill="#fff"/>
              <path id="Path_113353" data-name="Path 113353" d="M894.511,129.289l-1.027,8.408c-.354,2.9-.741,4.262-1.524,5.385a5.882,5.882,0,0,1-3.323,2.32l-3.2-2.018a5.316,5.316,0,0,0,3.2-2.075c.65-.972.962-2.153,1.348-5.311l.874-7.156,3.659.447ZM891.19,123l3.664.447-.455,3.723-3.664-.447Z" transform="translate(-342.789 -36.994)" fill="#fff"/>
              <g id="Group_268961" data-name="Group 268961" transform="translate(518.7 109.872)" opacity="0.2">
                <path id="Path_113354" data-name="Path 113354" d="M829.011,180.821l45.6,5.486-1.566,13.016a5.1,5.1,0,0,1-5.669,4.451l-35.393-4.258a5.181,5.181,0,0,1-4.525-5.763l1.556-12.932Z" transform="translate(-827.424 -180.821)" opacity="0.2"/>
              </g>
              <g id="Group_268962" data-name="Group 268962" transform="translate(551.09 71.657)" opacity="0.2">
                <path id="Path_113355" data-name="Path 113355" d="M907.627,88.233l-1.7,14.208a4.275,4.275,0,0,0,3.732,4.757l13.636,1.642Z" transform="translate(-905.898 -88.233)" fill="#fff" opacity="0.2"/>
              </g>
              <path id="Path_113357" data-name="Path 113357" d="M846.443,203.943l.578-4.995,1.706.2a2.959,2.959,0,0,1,1.405.481,1.923,1.923,0,0,1,.741.968A2.918,2.918,0,0,1,851,201.94a2.97,2.97,0,0,1-.431,1.288,1.973,1.973,0,0,1-.943.773,3.018,3.018,0,0,1-1.477.14Zm1-.679.749.087a2.08,2.08,0,0,0,1.015-.085,1.185,1.185,0,0,0,.589-.525,2.815,2.815,0,0,0,.214-1.848,1.181,1.181,0,0,0-.452-.653,2.024,2.024,0,0,0-.968-.322l-.749-.087ZM853.1,204.8a1.674,1.674,0,0,1-1.123-.542,1.55,1.55,0,0,1-.3-1.221l.913.106a.939.939,0,0,0,.1.575.6.6,0,0,0,.483.266.573.573,0,0,0,.5-.137.853.853,0,0,0,.21-.5l.411-3.553.914.106-.412,3.553a1.515,1.515,0,0,1-.545,1.087A1.535,1.535,0,0,1,853.1,204.8Zm2.249.174,2.405-4.783,1.028.119,1.248,5.206-.97-.113-.266-1.2-1.948-.226-.54,1.109Zm1.829-1.682,1.448.168-.488-2.161Zm3.78,2.332.578-4.995.913.106,1.94,3.789.407-3.518.913.106-.579,4.995-.913-.106-1.941-3.782-.407,3.511Zm7.6.967a2.343,2.343,0,0,1-1.2-.464,2.2,2.2,0,0,1-.717-.987,3.242,3.242,0,0,1,.319-2.7,2.254,2.254,0,0,1,.97-.82,2.572,2.572,0,0,1,1.373-.181,2.424,2.424,0,0,1,1.407.589,1.931,1.931,0,0,1,.615,1.25l-1.02-.118a1,1,0,0,0-.351-.59,1.374,1.374,0,0,0-.747-.289,1.444,1.444,0,0,0-1.211.344,1.936,1.936,0,0,0-.557,1.251,1.9,1.9,0,0,0,.251,1.331,1.419,1.419,0,0,0,1.047.577,1.345,1.345,0,0,0,1.062-.246,1.666,1.666,0,0,0,.533-.922l-1.263-.146.08-.685,2.183.253-.318,2.747-.842-.1,0-.665a1.687,1.687,0,0,1-.67.479A1.985,1.985,0,0,1,868.555,206.591Zm5.961.691a2.577,2.577,0,0,1-1.275-.48,2.382,2.382,0,0,1-.773-1.008,2.83,2.83,0,0,1-.158-1.385,2.787,2.787,0,0,1,.469-1.305,2.365,2.365,0,0,1,.984-.811,2.793,2.793,0,0,1,2.618.3,2.3,2.3,0,0,1,.772,1.015,2.781,2.781,0,0,1,.159,1.378,2.824,2.824,0,0,1-.47,1.312,2.314,2.314,0,0,1-.982.8A2.564,2.564,0,0,1,874.516,207.281Zm.1-.821a1.456,1.456,0,0,0,1.189-.34,2.176,2.176,0,0,0,.3-2.583,1.457,1.457,0,0,0-1.08-.6,1.478,1.478,0,0,0-1.2.339,2.178,2.178,0,0,0-.3,2.583A1.48,1.48,0,0,0,874.611,206.461Z" transform="translate(-319.893 -81.593)" fill="#fff"/>
            </g>
          </g>
        </g>
        <path id="Path_108575" data-name="Path 108575" d="M725.824,1699.547H609.206l-.226.032h-2.108c-.061-.01-.119-.021-.177-.032h-3.448l-.033.032a.2.2,0,0,0-.019.021H594.24a.455.455,0,0,1-.024-.053H592l-.033.032a.235.235,0,0,0-.019.021h-8.954a.386.386,0,0,1-.024-.053H292.474c.006.014.012.029.017.043H275.831c-.011-.014-.021-.029-.031-.043H250.223c0,.014-.008.029-.012.043h-7.285l-.072-.043H157.306a.744.744,0,0,0-.741.743v.511a.744.744,0,0,0,.741.743H725.824a.744.744,0,0,0,.741-.743v-.511A.744.744,0,0,0,725.824,1699.547Z" transform="translate(656.435 -1163.547)" fill="#2e3552"/>
      </g>
      <g id="Group_268968" data-name="Group 268968" transform="matrix(0.978, 0.208, -0.208, 0.978, 883.852, 110.529)">
        <path id="Path_113346" data-name="Path 113346" d="M108.874,269.818,78.656,276.4a3.87,3.87,0,0,1-4.605-2.958l-9.125-41.812a3.874,3.874,0,0,1,2.995-4.6l19.161-4.176,18.163,12.055,6.6,30.309a3.859,3.859,0,0,1-2.974,4.6Z" transform="translate(-9.398 -67.918)" fill="#008dd1"/>
        <g id="Group_268959" data-name="Group 268959" transform="translate(77.662 154.936)" opacity="0.3">
          <path id="Path_113348" data-name="Path 113348" d="M121.641,222.854l2.566,11.77a3.6,3.6,0,0,0,4.294,2.748l11.32-2.463Z" transform="translate(-121.641 -222.854)" fill="#fff" opacity="0.3"/>
        </g>
        <g id="Group_268960" data-name="Group 268960" transform="translate(80.604 166.991)" opacity="0.2">
          <path id="Path_113349" data-name="Path 113349" d="M129.159,254.383a4,4,0,0,0,3.929,3.118h.392c1.535-.059,11.636-.446,11.588-.671s-.687-3.161-.687-3.161l-11.32,2.463S130.216,256.653,129.159,254.383Z" transform="translate(-129.159 -253.669)" opacity="0.2"/>
        </g>
        <path id="Path_113350" data-name="Path 113350" d="M99.159,328.456l-1-4.66,1.724-.37a2.077,2.077,0,0,1,.965-.012,1.273,1.273,0,0,1,.656.4,1.6,1.6,0,0,1,.316,1.443,1.327,1.327,0,0,1-.428.635,2.049,2.049,0,0,1-.9.394l-.872.187.387,1.8Zm.317-2.679.819-.175a.9.9,0,0,0,.6-.33.746.746,0,0,0,.084-.582.732.732,0,0,0-.315-.5.882.882,0,0,0-.682-.063l-.819.176Zm5.158,1.505-.355-1.658-2.208-2.667.965-.207,1.492,1.929.564-2.37.952-.2-.914,3.336.356,1.658Zm4.306-.923-.852-3.974-1.358.291-.147-.686,3.574-.766.147.686-1.365.292.852,3.974Zm3.114-.667-1-4.66.852-.182.415,1.937,2.09-.448L114,320.4l.852-.183,1,4.66-.852.183-.435-2.03-2.09.448.435,2.03Zm7.167-1.453a2.449,2.449,0,0,1-1.291-.043,2.257,2.257,0,0,1-1-.67,2.677,2.677,0,0,1-.563-1.2,2.642,2.642,0,0,1,.025-1.314,2.244,2.244,0,0,1,.636-1.028,2.65,2.65,0,0,1,2.443-.523,2.177,2.177,0,0,1,1,.676,2.636,2.636,0,0,1,.561,1.189,2.683,2.683,0,0,1-.023,1.321,2.193,2.193,0,0,1-.638,1.021A2.429,2.429,0,0,1,119.22,324.239Zm-.164-.766a1.379,1.379,0,0,0,.964-.666,2.063,2.063,0,0,0-.516-2.41,1.38,1.38,0,0,0-1.153-.212,1.4,1.4,0,0,0-.971.668,2.063,2.063,0,0,0,.516,2.41A1.4,1.4,0,0,0,119.056,323.474Zm3.5-.032-1-4.66.852-.183,2.893,2.812-.7-3.282.852-.183,1,4.66-.852.183-2.892-2.806.7,3.275Z" transform="translate(-29.683 -125.81)" fill="#fff"/>
        <path id="Path_113358" data-name="Path 113358" d="M103.891,255.979c-4.608,1.085-3.85,3.015-3.85,3.015l.493,2.069,4.4-1.036.146.622L98.933,262.1s-3.027.36-1.933,5.009,3.629,3.878,3.629,3.878l1.536-.362-.508-2.158a2.508,2.508,0,0,1,1.927-3.17l4.362-1.027a2.407,2.407,0,0,0,1.893-2.945l-.937-3.981S108.706,254.845,103.891,255.979Zm-2.1,1.963a.813.813,0,1,1-.6.977A.812.812,0,0,1,101.794,257.942Z" transform="translate(-28.832 -87.904)" fill="#fff"/>
        <path id="Path_113359" data-name="Path 113359" d="M116.792,279.092c4.608-1.085,3.85-3.015,3.85-3.015l-.493-2.069-4.4,1.035-.146-.622,6.144-1.446s3.028-.36,1.933-5.009-3.63-3.879-3.63-3.879l-1.536.361.508,2.158a2.507,2.507,0,0,1-1.927,3.17l-4.361,1.027a2.407,2.407,0,0,0-1.893,2.945l.937,3.981S111.977,280.226,116.792,279.092Zm2.1-1.963a.813.813,0,1,1,.6-.977A.812.812,0,0,1,118.889,277.129Z" transform="translate(-37.354 -92.991)" fill="#fff"/>
      </g>
    </g>
    <g id="Group_268937" data-name="Group 268937" transform="translate(1288.709 99.906)">
      <g id="Group_17428" data-name="Group 17428" transform="translate(52.721 356.524)">
        <g id="Group_17427" data-name="Group 17427" transform="translate(0 0)">
          <g id="Group_17426" data-name="Group 17426">
            <path id="Path_9202" data-name="Path 9202" d="M76.1,400.067c5.5,1.9,12.687.2,17.436-3.257s8.141-8.413,11.127-13.366a19.754,19.754,0,0,0,2.917-6.852,7.465,7.465,0,0,0-2.1-6.852c-2.985-2.51-7.531-1.221-10.855.678A37.685,37.685,0,0,0,76.1,400.067" transform="translate(-76.1 -368.347)" fill="#60a6df"/>
          </g>
        </g>
      </g>
      <g id="Group_17431" data-name="Group 17431" transform="translate(58.623 392.697)">
        <g id="Group_17430" data-name="Group 17430" transform="translate(0)">
          <g id="Group_17429" data-name="Group 17429">
            <path id="Path_9203" data-name="Path 9203" d="M84.8,430.441c3.324,4.342,9.023,6.31,14.519,6.581s10.923-1.289,16.011-3.257c1.832-.746,3.867-1.7,4.546-3.6a4.546,4.546,0,0,0-.95-4.206,9.555,9.555,0,0,0-3.731-2.51,25.279,25.279,0,0,0-16.147-.882c-5.292,1.357-9.905,4.478-14.248,7.87" transform="translate(-84.8 -421.664)" fill="#60a6df"/>
          </g>
        </g>
      </g>
      <g id="Group_17434" data-name="Group 17434" transform="translate(50.353 331.578)">
        <g id="Group_17433" data-name="Group 17433" transform="translate(0)">
          <g id="Group_17432" data-name="Group 17432">
            <path id="Path_9204" data-name="Path 9204" d="M74.91,364.566c4.546.068,8.006-3.935,10.109-8.006a29.4,29.4,0,0,0,2.714-18.454c-.407-2.307-1.289-4.817-3.392-5.97s-4.885-.407-6.649,1.221a13.52,13.52,0,0,0-3.46,6.242c-2.51,8.006-1.968,17.1.678,24.967" transform="translate(-72.61 -331.578)" fill="#60a6df"/>
          </g>
        </g>
      </g>
      <g id="Group_17437" data-name="Group 17437" transform="translate(30.304 340.403)">
        <g id="Group_17436" data-name="Group 17436" transform="translate(0 0)">
          <g id="Group_17435" data-name="Group 17435">
            <path id="Path_9205" data-name="Path 9205" d="M50.414,394.055c7.8-13.23,9.091-29.445,4.478-44.167-.746-2.375-2.171-5.088-4.613-5.292-2.782-.2-4.478,2.917-5.224,5.563-2.646,9.295-2.1,19.2-1.493,28.9.271,5.97,2.307,11.059,6.852,14.994" transform="translate(-43.06 -344.586)" fill="#60a6df"/>
          </g>
        </g>
      </g>
      <g id="Group_17440" data-name="Group 17440" transform="translate(3.391 374.589)">
        <g id="Group_17439" data-name="Group 17439">
          <g id="Group_17438" data-name="Group 17438">
            <path id="Path_9206" data-name="Path 9206" d="M29.517,415.684A31.693,31.693,0,0,0,10.589,395.67c-2.035-.746-4.681-1.221-6.242.339-1.493,1.56-1.018,4.139-.068,6.106,1.56,3.121,4.139,5.631,6.649,8.074,2.307,2.171,4.681,4.41,7.6,5.7,2.985,1.221,8.345,1.56,10.991-.2" transform="translate(-3.391 -394.974)" fill="#60a6df"/>
          </g>
        </g>
      </g>
      <g id="Group_17444" data-name="Group 17444" transform="translate(42.137 361.241)">
        <g id="Group_17443" data-name="Group 17443" transform="translate(0 0)">
          <g id="Group_17442" data-name="Group 17442">
            <g id="Group_17441" data-name="Group 17441">
              <path id="Path_9207" data-name="Path 9207" d="M96.187,375.3l-.136.136a1.8,1.8,0,0,0-.407.339q-.611.407-1.628,1.221c-.339.271-.746.543-1.153.882s-.882.678-1.357,1.086c-.95.814-2.1,1.7-3.257,2.782-.611.543-1.221,1.086-1.832,1.7l-1.9,1.9c-1.357,1.289-2.646,2.782-4,4.342a89.208,89.208,0,0,0-8.006,10.923,92.667,92.667,0,0,0-6.174,12.076c-.746,1.968-1.56,3.8-2.1,5.563-.271.882-.611,1.7-.814,2.578-.2.814-.475,1.628-.678,2.375-.475,1.493-.746,2.917-1.018,4.139-.136.611-.271,1.153-.407,1.7-.068.543-.2,1.018-.271,1.425-.136.882-.271,1.493-.339,2.035-.068.2-.068.407-.136.543a.3.3,0,0,1-.068.2v-.2c0-.136.068-.339.068-.543.068-.475.2-1.153.271-2.035l.2-1.425c.068-.543.2-1.086.339-1.7.271-1.221.543-2.646.95-4.139.2-.746.407-1.56.678-2.375.2-.814.543-1.7.814-2.578.543-1.764,1.289-3.664,2.035-5.563a93.287,93.287,0,0,1,6.174-12.144,92.3,92.3,0,0,1,8.074-10.991c1.425-1.56,2.714-3.053,4.071-4.342l1.9-1.9c.678-.543,1.289-1.153,1.832-1.628a34.62,34.62,0,0,1,3.324-2.714c.475-.407.95-.746,1.357-1.086A13.763,13.763,0,0,1,93.812,377c.678-.475,1.289-.882,1.7-1.153a4.013,4.013,0,0,0,.407-.271Z" transform="translate(-60.5 -375.3)" fill="#0e314c"/>
            </g>
          </g>
        </g>
      </g>
      <g id="Group_17448" data-name="Group 17448" transform="translate(42.408 396.551)">
        <g id="Group_17447" data-name="Group 17447">
          <g id="Group_17446" data-name="Group 17446">
            <g id="Group_17445" data-name="Group 17445">
              <path id="Path_9208" data-name="Path 9208" d="M106.628,428.807a3.074,3.074,0,0,1-.543-.068c-.339-.068-.882-.2-1.493-.339a39.78,39.78,0,0,0-5.631-.678,41,41,0,0,0-33.38,13.84,45.694,45.694,0,0,0-3.46,4.478c-.407.543-.678,1.018-.882,1.289s-.271.475-.339.475a1.877,1.877,0,0,1,.271-.475c.2-.271.407-.746.814-1.357a34.961,34.961,0,0,1,3.392-4.546,41,41,0,0,1,15.13-10.991,40.571,40.571,0,0,1,18.454-2.985,36.593,36.593,0,0,1,5.631.814,8.733,8.733,0,0,1,1.493.407,4.985,4.985,0,0,1,.543.136Z" transform="translate(-60.9 -427.345)" fill="#0e314c"/>
            </g>
          </g>
        </g>
      </g>
      <g id="Group_17452" data-name="Group 17452" transform="translate(42.069 337.495)">
        <g id="Group_17451" data-name="Group 17451">
          <g id="Group_17450" data-name="Group 17450">
            <g id="Group_17449" data-name="Group 17449">
              <path id="Path_9209" data-name="Path 9209" d="M77.7,340.3v.2a3.438,3.438,0,0,1-.136.611c-.136.543-.271,1.289-.543,2.307-.475,1.968-1.153,4.817-1.968,8.345-1.7,7.056-4.206,16.758-6.785,27.545-1.289,5.36-2.442,10.516-3.46,15.2s-1.832,8.956-2.442,12.484c-.339,1.764-.611,3.392-.814,4.817-.271,1.425-.407,2.646-.611,3.664-.136.95-.271,1.764-.339,2.307a4.322,4.322,0,0,1-.136.611.3.3,0,0,1-.068.2v-.2c0-.136.068-.339.068-.611.068-.543.136-1.357.271-2.307.136-1.018.271-2.239.543-3.664.2-1.425.475-3.053.746-4.817.611-3.6,1.425-7.8,2.375-12.551,1.018-4.681,2.171-9.838,3.46-15.265,2.578-10.787,5.156-20.489,6.92-27.545.882-3.528,1.628-6.31,2.1-8.345.271-.95.407-1.7.611-2.239a2.517,2.517,0,0,0,.136-.611.211.211,0,0,0,.068-.136Z" transform="translate(-60.4 -340.3)" fill="#0e314c"/>
            </g>
          </g>
        </g>
      </g>
      <g id="Group_17456" data-name="Group 17456" transform="translate(36.07 350.657)">
        <g id="Group_17455" data-name="Group 17455" transform="translate(0 0)">
          <g id="Group_17454" data-name="Group 17454">
            <g id="Group_17453" data-name="Group 17453">
              <path id="Path_9210" data-name="Path 9210" d="M57.014,423.746a.21.21,0,0,0-.068-.136,1.726,1.726,0,0,0-.136-.475A15.739,15.739,0,0,0,56.4,421.3c-.339-1.628-.746-3.935-1.289-6.785-1.018-5.767-2.171-13.773-2.917-22.66-.339-4.478-.543-8.684-.611-12.551s0-7.327.068-10.312c.068-1.493.136-2.782.2-3.935s.136-2.171.2-2.985.136-1.425.2-1.9c0-.2.068-.339.068-.475v.475c0,.475-.068,1.085-.136,1.9s-.136,1.832-.136,2.985c-.068,1.153-.136,2.51-.136,3.935-.068,2.917-.068,6.377,0,10.245.136,3.867.339,8.141.678,12.551.746,8.888,1.9,16.894,2.782,22.66.475,2.917.882,5.224,1.153,6.852.136.814.271,1.425.339,1.832,0,.2.068.339.068.475A.21.21,0,0,1,57.014,423.746Z" transform="translate(-51.559 -359.7)" fill="#0e314c"/>
            </g>
          </g>
        </g>
      </g>
      <g id="Group_17460" data-name="Group 17460" transform="translate(10.656 380.102)">
        <g id="Group_17459" data-name="Group 17459">
          <g id="Group_17458" data-name="Group 17458">
            <g id="Group_17457" data-name="Group 17457">
              <path id="Path_9211" data-name="Path 9211" d="M45.512,439.4s-.068-.136-.2-.475a13.923,13.923,0,0,0-.543-1.357c-.136-.271-.2-.611-.339-.95s-.339-.746-.475-1.153c-.2-.407-.339-.814-.543-1.289s-.475-.95-.678-1.425c-.271-.475-.543-1.018-.814-1.56s-.611-1.086-.95-1.628c-.611-1.153-1.425-2.307-2.239-3.528-1.7-2.375-3.664-4.953-5.835-7.463a89.515,89.515,0,0,0-6.717-6.717c-1.086-.95-2.171-1.9-3.189-2.646-.475-.407-1.018-.814-1.493-1.153l-1.425-1.018c-.882-.678-1.7-1.221-2.442-1.7s-1.357-.95-1.9-1.221c-.475-.339-.882-.543-1.221-.746a3.1,3.1,0,0,0-.407-.271s.136.068.475.2c.339.2.746.407,1.221.678a10.922,10.922,0,0,1,1.9,1.221c.746.475,1.56,1.018,2.51,1.7l1.425,1.018c.475.407.95.746,1.493,1.153,1.018.814,2.1,1.7,3.189,2.646a89.863,89.863,0,0,1,6.785,6.717c2.239,2.578,4.206,5.156,5.9,7.531.746,1.221,1.56,2.375,2.171,3.528.339.543.611,1.086.95,1.628.271.543.543,1.086.746,1.56a13.553,13.553,0,0,1,.678,1.425c.2.475.407.882.543,1.289s.339.814.475,1.153.2.678.339.95c.2.543.339,1.018.475,1.357A2.14,2.14,0,0,1,45.512,439.4Z" transform="translate(-14.1 -403.1)" fill="#0e314c"/>
            </g>
          </g>
        </g>
      </g>
      <g id="Group_17491" data-name="Group 17491" transform="translate(28.771 412.736)">
        <g id="Group_17490" data-name="Group 17490">
          <g id="Group_17489" data-name="Group 17489">
            <path id="Path_9219" data-name="Path 9219" d="M40.8,451.2,45.142,474a3.194,3.194,0,0,0,3.121,2.578H61.086a3.146,3.146,0,0,0,3.121-2.646l3.8-22.728Z" transform="translate(-40.8 -451.2)" fill="#0e314c"/>
          </g>
        </g>
      </g>
      <g id="Group_17494" data-name="Group 17494" transform="translate(28.771 412.736)">
        <g id="Group_17493" data-name="Group 17493">
          <g id="Group_17492" data-name="Group 17492">
            <path id="Path_9220" data-name="Path 9220" d="M42.225,458.6H66.717l1.289-7.4H40.8Z" transform="translate(-40.8 -451.2)" fill="#235f87"/>
          </g>
        </g>
      </g>
    </g>
  </g>
</svg>
