<svg width="47" height="47" viewBox="0 0 47 47" fill="none" xmlns="http://www.w3.org/2000/svg">
<path d="M32.7783 28.3245C24.9482 28.3172 18.6544 22.007 18.6563 14.1641C18.6581 6.3157 25.0123 -0.0091459 32.8882 9.92791e-06C40.7494 0.00916576 46.9937 6.33401 46.9809 14.274C46.9681 22.1022 40.6707 28.3318 32.7783 28.3245ZM38.4293 15.6345C38.4293 14.0176 38.4696 12.4007 38.4202 10.7856C38.3213 7.47666 35.6349 5.11263 32.5457 5.31405C29.365 5.51915 27.261 7.88135 27.2152 11.0896C27.1712 14.23 27.2188 17.3723 27.1932 20.5127C27.1877 21.1701 27.3763 21.4338 28.0722 21.4283C31.2438 21.4009 34.4154 21.4045 37.587 21.4265C38.2206 21.4302 38.4513 21.2104 38.4403 20.575C38.4128 18.9288 38.433 17.2826 38.4293 15.6345Z" fill="#008DD1"/>
<path d="M23.4716 37.8132C17.0021 37.8132 10.5325 37.815 4.06299 37.8132C2.73538 37.8132 2.72989 37.8059 2.72989 36.4966C2.72806 30.3622 2.72806 24.2296 2.72989 18.0952C2.72989 16.8464 2.73538 16.8409 4.01355 16.8409C7.79676 16.839 11.5818 16.8592 15.365 16.8244C16.1506 16.8171 16.4875 17.0624 16.6542 17.8498C17.2548 20.6863 18.5714 23.1804 20.5308 25.3118C21.0691 25.896 21.0087 26.5424 20.9721 27.1961C20.9318 27.9341 21.1625 28.2893 21.9463 28.1978C23.2006 28.0494 24.2902 28.4633 25.4292 29.0016C31.7229 31.9791 37.6706 31.2686 43.2411 27.132C43.4992 26.9397 43.7318 26.4966 44.0523 26.6486C44.424 26.8244 44.2281 27.3078 44.2299 27.6502C44.2427 30.6405 44.2061 33.6327 44.2574 36.6211C44.2738 37.5459 43.9827 37.8333 43.0616 37.8297C36.5316 37.7986 30.0016 37.8132 23.4716 37.8132ZM12.5267 34.2369C13.8305 34.2388 13.8689 34.2388 13.8689 33.0009C13.8689 32.4039 14.2022 32.1549 14.6179 31.8674C15.8411 31.0159 16.1854 29.7927 15.8759 28.4065C15.5903 27.1338 14.7333 26.3574 13.4478 26.0901C13.0614 26.0095 12.664 25.9875 12.2758 25.9143C11.9407 25.8502 11.7356 25.6341 11.7301 25.2807C11.7246 24.9236 11.9425 24.7204 12.2593 24.6215C12.7116 24.4805 13.0706 24.6764 13.4441 24.9255C13.9166 25.2404 15.6891 25.2477 15.799 24.9383C16.1048 24.0795 15.4822 23.5246 15.0079 22.9441C14.8761 22.783 14.6911 22.6475 14.5025 22.5578C13.9825 22.3106 13.8103 21.8949 13.8891 21.362C14.0228 20.4519 13.6053 20.1461 12.7519 20.2633C12.5432 20.2926 12.3234 20.2871 12.1128 20.2651C11.4738 20.1992 11.1899 20.4849 11.2833 21.1111C11.3969 21.8766 11.0782 22.3527 10.419 22.7336C9.78908 23.0961 9.44482 23.726 9.26903 24.431C8.73432 26.5698 10.0454 28.2637 12.4644 28.5475C12.8691 28.5951 13.2756 28.5969 13.4148 29.0785C13.4881 29.3349 13.4075 29.5693 13.1932 29.7286C12.8069 30.0161 12.3527 30.0509 12.0048 29.7561C11.3584 29.2086 10.6186 29.4191 9.90628 29.3862C9.31298 29.3587 9.15183 29.6956 9.30382 30.212C9.52906 30.9756 9.98502 31.5799 10.6809 31.9626C11.1442 32.2172 11.2852 32.5687 11.287 33.0796C11.2888 34.2351 11.3126 34.2351 12.5267 34.2369ZM28.9707 35.1397C31.0747 35.1397 33.1787 35.1397 35.2846 35.1397C37.1176 35.1397 37.0974 35.1397 37.0224 33.3342C36.9986 32.7537 36.7935 32.512 36.202 32.5285C35.1344 32.5559 34.0668 32.534 32.9993 32.534C29.3094 32.534 25.6196 32.5486 21.928 32.5211C21.2211 32.5156 20.8915 32.7262 20.9831 33.4569C21.0087 33.6674 21.0087 33.8854 20.9831 34.0959C20.8842 34.8907 21.2101 35.1672 22.0177 35.1525C24.3341 35.1122 26.6524 35.1397 28.9707 35.1397Z" fill="#005D89"/>
<path d="M23.4518 40.2913C30.8607 40.2913 38.2715 40.2895 45.6804 40.2913C46.9751 40.2913 47.0612 40.4085 46.7242 41.6519C45.8837 44.7466 43.0564 46.9843 39.8591 46.9879C28.9123 47.0044 17.9656 47.0044 7.01877 46.9879C3.7373 46.9824 0.92827 44.7026 0.117058 41.4761C-0.141138 40.4525 -0.0294362 40.2932 1.03814 40.2932C8.50935 40.2895 15.9806 40.2913 23.4518 40.2913Z" fill="#005D89"/>
<path d="M10.0698 8.25268C12.1409 8.25268 14.2119 8.27282 16.283 8.24169C17.0667 8.22887 17.2334 8.47242 16.9843 9.21221C16.5247 10.5728 16.3196 11.9937 16.2299 13.4239C16.1933 13.9934 16.0028 14.2406 15.4132 14.2388C11.4542 14.2259 7.49516 14.2259 3.53616 14.2388C2.94652 14.2406 2.72311 13.9952 2.72861 13.4202C2.74509 11.9883 2.75424 10.5563 2.72311 9.12614C2.70846 8.42297 3.04723 8.24169 3.67533 8.24718C5.80682 8.26366 7.93831 8.25268 10.0698 8.25268Z" fill="#005D89"/>
<path d="M32.8858 18.8063C32.1222 18.8063 31.3604 18.7916 30.5968 18.8099C30.0731 18.8228 29.8021 18.6378 29.8149 18.072C29.835 17.0648 29.8332 16.0577 29.8149 15.0524C29.8039 14.4884 30.0896 14.3016 30.6041 14.3034C32.0984 14.3089 33.5944 14.3144 35.0887 14.298C35.6563 14.2925 35.9438 14.514 35.9383 15.1C35.9292 16.076 35.9292 17.052 35.9365 18.028C35.9402 18.6177 35.649 18.8337 35.0814 18.8136C34.3507 18.788 33.6182 18.8081 32.8858 18.8063ZM34.0486 16.6052C34.0541 15.9533 33.5139 15.3655 32.8821 15.3362C32.2595 15.3069 31.6369 15.8782 31.6076 16.5045C31.5765 17.2132 32.1258 17.7882 32.8345 17.7863C33.5505 17.7827 34.0412 17.3066 34.0486 16.6052Z" fill="#008DD1"/>
<path d="M32.8808 11.8149C32.1209 11.8149 31.361 11.8076 30.601 11.8167C30.0865 11.8222 29.8429 11.6244 29.8136 11.0696C29.7166 9.25857 31.0368 7.85773 32.8845 7.86872C34.6534 7.87787 36.0744 9.41422 35.9371 11.1465C35.8968 11.6592 35.6239 11.8222 35.1607 11.8185C34.3989 11.8094 33.6389 11.8149 32.8808 11.8149Z" fill="#008DD1"/>
</svg>
