<svg xmlns="http://www.w3.org/2000/svg" xmlns:xlink="http://www.w3.org/1999/xlink" width="460" height="459.753" viewBox="0 0 460 459.753">
  <defs>
    <filter id="Path_88509" x="127.449" y="132.368" width="203.044" height="203.044" filterUnits="userSpaceOnUse">
      <feOffset dx="2.397" dy="2.397" input="SourceAlpha"/>
      <feGaussianBlur stdDeviation="2.098" result="blur"/>
      <feFlood flood-opacity="0.502"/>
      <feComposite operator="in" in2="blur"/>
      <feComposite in="SourceGraphic"/>
    </filter>
  </defs>
  <g id="img_3" transform="translate(-915 -1684)">
    <g id="Group_171664" data-name="Group 171664" transform="translate(915 1684)">
      <g id="Group_171661" data-name="Group 171661">
        <path id="Path_87859" data-name="Path 87859" d="M980.349,140.992a115.132,115.132,0,0,0-115,114.986,128.259,128.259,0,0,1,114.39,115.006c.2,0,.407.007.61.007s.407-.006.612-.007a115.014,115.014,0,0,0,114.389-114.992v-.014A115.131,115.131,0,0,0,980.349,140.992Z" transform="translate(-750.349 -140.992)" fill="#1a559b"/>
        <path id="Path_87860" data-name="Path 87860" d="M995.683,340.709A114.924,114.924,0,0,0,882.078,239.1c-.2,0-.408-.008-.612-.008a115,115,0,1,0,0,230c.226,0,.45-.008.676-.009A128.261,128.261,0,0,1,996.458,354.769c0-.221.008-.44.008-.661v-.015A115.593,115.593,0,0,0,995.683,340.709Z" transform="translate(-766.466 -125.002)" fill="#4399ff"/>
        <path id="Path_87861" data-name="Path 87861" d="M1079.231,239.663c-.2,0-.407.007-.61.007A128.257,128.257,0,0,1,964.232,354.676c0,.221.007.441.008.662a114.914,114.914,0,0,0,114.316,114.316c.226,0,.449.008.674.008a115,115,0,1,0,0-230Z" transform="translate(-734.232 -124.909)" fill="#286cbc"/>
        <path id="Path_87862" data-name="Path 87862" d="M1094.739,452.871A128.261,128.261,0,0,1,980.424,338.554c-.226,0-.449-.008-.676-.008s-.449.007-.674.008A114.916,114.916,0,0,0,864.756,452.871c0,.226-.008.45-.008.676a115,115,0,0,0,230,0C1094.748,453.321,1094.74,453.1,1094.739,452.871Z" transform="translate(-750.447 -108.792)" fill="#3581dd"/>
        <g transform="matrix(1, 0, 0, 1, 0, 0)" filter="url(#Path_88509)">
          <path id="Path_88509-2" data-name="Path 88509" d="M95.23,0A95.23,95.23,0,1,1,0,95.23,95.23,95.23,0,0,1,95.23,0Z" transform="translate(131.34 136.26)" fill="#f0f8ff"/>
        </g>
      </g>
      <text id="Engagement_Model" data-name="Engagement
Model" transform="translate(224 225)" fill="#333" font-size="22" font-family="Poppins-Bold, Poppins" font-weight="700"><tspan x="-72.853" y="0">Engagement</tspan><tspan x="-34.595" y="35">Model</tspan></text>
      <text id="Fixed_Quote" data-name="Fixed Quote" transform="translate(238 110)" fill="#fff" font-size="22" font-family="Poppins-Bold, Poppins" font-weight="700"><tspan x="-66.638" y="0">Fixed Quote</tspan></text>
      <text id="Partnership" transform="translate(230 419)" fill="#fff" font-size="22" font-family="Poppins-Bold, Poppins" font-weight="700"><tspan x="-66.671" y="0">Partnership</tspan></text>
      <text id="Time_Material" data-name="Time &amp;
Material" transform="translate(69 233)" fill="#fff" font-size="22" font-family="Poppins-Bold, Poppins" font-weight="700"><tspan x="-39.281" y="0">Time &amp;</tspan><tspan x="-47.476" y="28">Material</tspan></text>
      <text id="Offshore_Team" data-name="Offshore
Team" transform="translate(382 263)" fill="#fff" font-size="22" font-family="Poppins-Bold, Poppins" font-weight="700"><tspan x="-48.609" y="0">Offshore</tspan><tspan x="-32.395" y="28">Team</tspan></text>
    </g>
    <g id="ic_store_dev" transform="translate(1263.606 1853.023)">
      <g id="group_1_" data-name="group (1)">
        <path id="Path_19277" data-name="Path 19277" d="M62.5,87.938a13.839,13.839,0,0,0-10.135-5.98A7.453,7.453,0,0,0,54.5,77.263a3.932,3.932,0,0,0,1.43-3.685,3.28,3.28,0,0,0-1.315-2.274,6.817,6.817,0,0,0-1.479-5.127c-1.841-2.141-4.844-2.59-7.039-2.59q-.555,0-1.074.031a6.758,6.758,0,0,0-1.441-2.837c-2.072-2.409-5.47-2.914-7.956-2.914a17.64,17.64,0,0,0-2.831.209,7.211,7.211,0,0,0-1.181-1.912c-2.269-2.638-6.005-3.191-8.74-3.191-4.04,0-6.854.955-8.6,2.92a8.952,8.952,0,0,0-1.907,6.757,3.848,3.848,0,0,0-1.723,2.8,4.637,4.637,0,0,0,1.819,4.49,9.192,9.192,0,0,0,3.091,6.36c.051.045.1.087.155.13A17.494,17.494,0,0,0,2.425,83.976a14.119,14.119,0,0,0-2.425,8v5.812a6.3,6.3,0,0,0,6.292,6.292H9.343a1.259,1.259,0,0,0,1.259-1.259V92.989a1.259,1.259,0,0,0-2.517,0v8.575H6.292a3.779,3.779,0,0,1-3.775-3.775V91.977A11.614,11.614,0,0,1,4.5,85.4a14.84,14.84,0,0,1,9.488-6.217,9.535,9.535,0,0,0,1.084,2.669C16.193,83.7,18.473,85.9,23,85.9s6.805-2.2,7.921-4.053A9.536,9.536,0,0,0,32,79.18a14.43,14.43,0,0,1,10.7,8.543,11.947,11.947,0,0,1,.771,4.255v5.812a3.779,3.779,0,0,1-3.775,3.775H37.954V92.989a1.259,1.259,0,1,0-2.517,0v8.575H20.314a1.259,1.259,0,0,0,0,2.517H59.251a5.2,5.2,0,0,0,5.192-5.193V94.347A11.315,11.315,0,0,0,62.5,87.938ZM51.232,67.82a4.839,4.839,0,0,1,.8,4.011,1.259,1.259,0,0,0,.942,1.41.759.759,0,0,1,.468.665,1.45,1.45,0,0,1-.8,1.6,1.259,1.259,0,0,0-.623,1.087,4.95,4.95,0,0,1-1.676,3.826,5.432,5.432,0,0,1-1,.7,15.8,15.8,0,0,0-6.926-2.145,8.5,8.5,0,0,0,2.709-5.651,4.288,4.288,0,0,0,1.64-4.12,3.654,3.654,0,0,0-1.522-2.55c.014-.172.023-.34.029-.508,0,0,0-.01,0-.014q.4-.021.837-.021C47.466,66.106,49.949,66.328,51.232,67.82ZM33.406,60.529a15.813,15.813,0,0,1,2.225-.144c3.736,0,5.392,1.277,6.047,2.039a4.769,4.769,0,0,1,1.067,2.97c.025.652-.09,1.275-.12,1.921a1.207,1.207,0,0,0,.942,1.284,1.054,1.054,0,0,1,.693.926,1.862,1.862,0,0,1-1.014,2.026,1.258,1.258,0,0,0-.622,1.086,6.678,6.678,0,0,1-.128,1.316,6.265,6.265,0,0,1-4.7,4.705,17.387,17.387,0,0,0-7.734-2.24,9.308,9.308,0,0,0,3.228-6.479,4.76,4.76,0,0,0,1.819-4.489,4.438,4.438,0,0,0-1.679-2.794,9.7,9.7,0,0,0,.025-.974,11.367,11.367,0,0,0-.051-1.152ZM14.96,69.255a1.259,1.259,0,0,0-.622-1.086,2.2,2.2,0,0,1-1.2-2.392,1.318,1.318,0,0,1,.873-1.149,1.205,1.205,0,0,0,.936-1.366c-.3-2.546.108-4.463,1.205-5.7,1.243-1.4,3.442-2.077,6.722-2.077,3.121,0,5.547.822,6.832,2.316a4.971,4.971,0,0,1,1.075,2.247A10.63,10.63,0,0,1,30.8,63.3a1.2,1.2,0,0,0,.939,1.332,1.353,1.353,0,0,1,.872,1.149,2.146,2.146,0,0,1-.607,1.953,3.055,3.055,0,0,1-.588.439,1.271,1.271,0,0,0-.623,1.087,6.678,6.678,0,0,1-2.263,5.158A8.54,8.54,0,0,1,22.879,76.4a8.491,8.491,0,0,1-5.656-1.985,6.677,6.677,0,0,1-2.263-5.158ZM23,83.382c-2.654,0-4.578-.929-5.721-2.76a6.86,6.86,0,0,1-.751-1.7l12.943,0a6.853,6.853,0,0,1-.751,1.7c-1.142,1.832-3.067,2.76-5.72,2.76Zm21.914,17.934A6.3,6.3,0,0,0,46,97.789V91.978a14.8,14.8,0,0,0-4.52-10.524A13.072,13.072,0,0,1,53.15,88.817a10.56,10.56,0,0,1,.879,4.253V98.3a3.272,3.272,0,0,1-3.268,3.268H44.737C44.8,101.483,44.856,101.4,44.913,101.316Zm17.013-2.428a2.678,2.678,0,0,1-2.675,2.676H55.533A5.8,5.8,0,0,0,56.547,98.3V93.07A13.165,13.165,0,0,0,53.5,84.678a11.324,11.324,0,0,1,6.92,4.678,8.81,8.81,0,0,1,1.5,4.99Z" transform="translate(0 -52.973)" fill="#fff" stroke="#fff" stroke-width="0.8"/>
        <path id="Path_19278" data-name="Path 19278" d="M111.7,439.768a1.2,1.2,0,1,0-.463,1.469A1.208,1.208,0,0,0,111.7,439.768Z" transform="translate(-95.598 -390.316)" fill="#fff" stroke="#fff" stroke-width="0.8"/>
      </g>
    </g>
    <g id="ic_store_dev-2" data-name="ic_store_dev" transform="translate(1126.814 1706.465)">
      <g id="XMLID_1487_" transform="translate(0)">
        <g id="XMLID_1153_" transform="translate(0 0)">
          <path id="XMLID_1329_" d="M97.67,27.882,90.162,16.114a3.337,3.337,0,0,0-.311-6.058L92.126,2.1a.982.982,0,0,0-.25-.965,3.885,3.885,0,0,0-5.487,0,1.9,1.9,0,0,1-1.355.561,1.9,1.9,0,0,1-1.357-.564l0,0a3.887,3.887,0,0,0-5.478-.009l-.028.028a1.919,1.919,0,0,1-2.7,0l-.007-.007a3.885,3.885,0,0,0-5.487,0,.982.982,0,0,0-.25.965L72,10.054a3.337,3.337,0,0,0-.316,6.06L64.173,27.882a14.564,14.564,0,0,0,12.278,22.4h8.94a14.564,14.564,0,0,0,12.279-22.4ZM74.065,2.529l.007.007a3.888,3.888,0,0,0,5.478.009l.028-.028a1.92,1.92,0,0,1,2.707.007l0,0a3.885,3.885,0,0,0,5.487,0A1.919,1.919,0,0,1,90.055,2.2L87.877,9.817H73.972L71.789,2.2a1.919,1.919,0,0,1,2.276.325ZM96.44,41.772a12.435,12.435,0,0,1-11.048,6.543H76.452A12.6,12.6,0,0,1,65.829,28.939L73.767,16.5H76.5a.982.982,0,1,0,0-1.964H73.229a1.375,1.375,0,0,1,0-2.75H88.615a1.375,1.375,0,1,1,0,2.75H85.341a.982.982,0,0,0,0,1.964h2.735l7.938,12.443A12.436,12.436,0,0,1,96.44,41.772Z" transform="translate(-61.857 0.001)" fill="#fff" stroke="#fff" stroke-width="1"/>
          <path id="XMLID_1341_" d="M215.274,247.086c-.258-.091-.522-.186-.785-.285v-4.663a4.226,4.226,0,0,1,1.183.552,1.029,1.029,0,0,0,1.238-1.644,6.282,6.282,0,0,0-2.421-1.025V239a1.029,1.029,0,1,0-2.058,0v1.016a5.321,5.321,0,0,0-.53.129,4.12,4.12,0,0,0-2.824,3.231,3.633,3.633,0,0,0,1.19,3.581,9.9,9.9,0,0,0,2.165,1.23v5.966a4.113,4.113,0,0,1-2.256-.827,1.029,1.029,0,1,0-1.126,1.722,6.072,6.072,0,0,0,3.382,1.164v1.064a1.029,1.029,0,1,0,2.058,0v-1.171a4.959,4.959,0,0,0,3.78-4.04A4.351,4.351,0,0,0,215.274,247.086Zm-3.737-1.747a1.6,1.6,0,0,1-.438-1.58,2.1,2.1,0,0,1,1.333-1.621V245.9A6.161,6.161,0,0,1,211.537,245.338Zm4.7,6.386a2.949,2.949,0,0,1-1.751,2.229V248.99l.1.036A2.328,2.328,0,0,1,216.24,251.724Z" transform="translate(-194.395 -215.878)" fill="#fff" stroke="#fff" stroke-width="1"/>
          <path id="XMLID_1343_" d="M247.014,150.027a1.029,1.029,0,1,0-.727-.3A1.037,1.037,0,0,0,247.014,150.027Z" transform="translate(-227.949 -133.465)" fill="#fff" stroke="#fff" stroke-width="1"/>
        </g>
      </g>
    </g>
    <g id="XMLID_806_" transform="translate(972.054 1838.045)">
      <g id="XMLID_386_" transform="translate(0 0)">
        <path id="XMLID_391_" d="M436.675,425.5a.905.905,0,1,0,.64.265A.91.91,0,0,0,436.675,425.5Z" transform="translate(-392.745 -384.476)" fill="#fff" stroke="#fff" stroke-width="0.8"/>
        <g id="Group_10752" data-name="Group 10752">
          <path id="XMLID_389_" d="M49.827,36.529a19.68,19.68,0,0,0-15.3-17.257V16.794a3.315,3.315,0,0,0-.8-6.532H26.7a3.315,3.315,0,0,0-.8,6.532v2.484a19.579,19.579,0,0,0-9.6,5.282,19.792,19.792,0,0,0-1.656,1.879c-.024,0-.049,0-.074,0H7.622a.975.975,0,1,0,0,1.95h5.7a19.547,19.547,0,0,0-1.73,3.748H.975a.975.975,0,0,0,0,1.95H11.036a19.825,19.825,0,0,0-.484,3.748H6.24a.975.975,0,1,0,0,1.95h4.343a19.8,19.8,0,0,0,.609,3.748H4.875a.975.975,0,1,0,0,1.95h6.939A19.694,19.694,0,0,0,28.28,58.089q.966.1,1.932.1a19.744,19.744,0,0,0,10.749-3.177A.975.975,0,0,0,39.9,53.373a17.746,17.746,0,1,1,5.227-5.233A.975.975,0,1,0,46.76,49.2,19.759,19.759,0,0,0,49.827,36.529ZM25.337,13.577A1.367,1.367,0,0,1,26.7,12.212h7.021a1.365,1.365,0,0,1,0,2.73H26.7A1.367,1.367,0,0,1,25.337,13.577Zm2.515,5.366V16.893h4.721V18.94A19.868,19.868,0,0,0,27.852,18.943Z" transform="translate(0 -10.262)" fill="#fff" stroke="#fff" stroke-width="0.8"/>
          <path id="XMLID_394_" d="M168.91,144.609a14.038,14.038,0,1,0,14.038,14.038A14.054,14.054,0,0,0,168.91,144.609Zm0,26.266a12.228,12.228,0,1,1,12.228-12.228A12.242,12.242,0,0,1,168.91,170.875Z" transform="translate(-138.228 -129.967)" fill="#fff" stroke="#fff" stroke-width="0.8"/>
        </g>
        <path id="XMLID_397_" d="M267.553,219.676l-4.482,4.482a2.8,2.8,0,0,0-2.484,0l-2.006-2.006a.9.9,0,1,0-1.28,1.28l2.006,2.006a2.812,2.812,0,1,0,5.044,0l4.35-4.35h0l.132-.132a.9.9,0,1,0-1.28-1.28Zm-5.724,8.006a1,1,0,1,1,1-1A1,1,0,0,1,261.829,227.682Z" transform="translate(-231.339 -198.587)" fill="#fff" stroke="#fff" stroke-width="0.8"/>
        <path id="XMLID_398_" d="M399.4,289.86h-.838a.9.9,0,1,0,0,1.81h.838a.9.9,0,1,0,0-1.81Z" transform="translate(-358.712 -262.514)" fill="#fff" stroke="#fff" stroke-width="0.8"/>
        <path id="XMLID_399_" d="M194.825,289.616h-.838a.9.9,0,0,0,0,1.81h.838a.9.9,0,1,0,0-1.81Z" transform="translate(-174.173 -262.294)" fill="#fff" stroke="#fff" stroke-width="0.8"/>
        <path id="XMLID_400_" d="M301.028,185.467a.9.9,0,0,0,.9-.9v-.838a.9.9,0,1,0-1.81,0v.838A.9.9,0,0,0,301.028,185.467Z" transform="translate(-270.773 -165.917)" fill="#fff" stroke="#fff" stroke-width="0.8"/>
        <path id="XMLID_424_" d="M300.784,387.393a.905.905,0,0,0-.9.9v.838a.9.9,0,0,0,1.81,0V388.3A.9.9,0,0,0,300.784,387.393Z" transform="translate(-270.553 -350.452)" fill="#fff" stroke="#fff" stroke-width="0.8"/>
        <path id="XMLID_425_" d="M.9,351.44a.9.9,0,1,0,.64,1.545A.9.9,0,0,0,.9,351.44Z" transform="translate(0 -318.071)" fill="#fff" stroke="#fff" stroke-width="0.8"/>
      </g>
    </g>
    <g id="Group_171665" data-name="Group 171665" transform="translate(1107.176 2021.332)">
      <path id="Path_88507" data-name="Path 88507" d="M-244.392,265.617a1.293,1.293,0,0,1-1.285,1.31,1.334,1.334,0,0,1-1.362-1.318,1.351,1.351,0,0,1,1.369-1.322A1.316,1.316,0,0,1-244.392,265.617Z" transform="translate(307.409 -255.277)" fill="#669e1e"/>
      <path id="Path_88508" data-name="Path 88508" d="M-521.811,228.434a1.314,1.314,0,0,0-1.9-.608,1.329,1.329,0,0,0-.371,1.964c.51.9,1.024,1.807,1.56,2.7a.639.639,0,0,1-.272,1.032q-2.16,1.227-4.3,2.483c-.469.276-.762.167-1.024-.289q-4.6-7.982-9.214-15.954a.614.614,0,0,1,.269-.979q2.16-1.228,4.3-2.49c.5-.293.809-.167,1.075.318.468.852.957,1.692,1.455,2.527a1.344,1.344,0,0,0,1.911.594,1.344,1.344,0,0,0,.386-1.915q-.76-1.359-1.561-2.7a3.153,3.153,0,0,0-4.461-1.2c-1.52.857-3.021,1.747-4.534,2.618a2.855,2.855,0,0,0-1.3,1.369c-.165.407-.4.481-.8.479-4.141-.014-8.282.011-12.423-.017a6.829,6.829,0,0,0-5.39,2.26c-.763.853-1.524,1.337-2.663.861a1.279,1.279,0,0,0-.329-.035,50.273,50.273,0,0,0-5.442-.108c-.346,0-.55-.06-.677-.429a2.969,2.969,0,0,0-1.428-1.6c-1.436-.826-2.865-1.664-4.3-2.486a3.2,3.2,0,0,0-4.781,1.288q-3.613,6.255-7.217,12.515a38.194,38.194,0,0,0-2.475,4.516v1.2a3.709,3.709,0,0,0,1.666,2.21c1.52.856,3.026,1.737,4.538,2.608a3.087,3.087,0,0,0,1.9.459.759.759,0,0,1,.683.3c1.043,1.055,2.086,2.109,3.151,3.141a.934.934,0,0,1,.289.818,4.7,4.7,0,0,0,4.071,5.185c.358.068.392.184.4.5a4.717,4.717,0,0,0,4.364,4.81c.4.043.48.149.525.53a4.683,4.683,0,0,0,4.353,4.337c.443.05.5.218.532.6a4.718,4.718,0,0,0,6.948,3.741,10.55,10.55,0,0,0,4.052-4.188c.187-.347.28-.36.6-.182a4.733,4.733,0,0,0,6.823-2.256c.166-.372.256-.362.587-.195a4.755,4.755,0,0,0,6.121-1.52,5.2,5.2,0,0,1,2.593-1.517c.088-.007.176-.017.263-.031a4.617,4.617,0,0,0,3.919-3.238,4.621,4.621,0,0,0-1.192-4.944c-.893-.922-1.806-1.826-2.725-2.723-.235-.228-.291-.364-.024-.626,1.718-1.694,3.418-3.407,5.123-5.114a.568.568,0,0,1,.455-.223,4,4,0,0,0,2.3-.731c1.024-.611,2.049-1.225,3.1-1.779a4.924,4.924,0,0,0,2.63-2.627v-1.329A29.551,29.551,0,0,0-521.811,228.434Zm-57.461,10.051a.756.756,0,0,1-.654.493c-.093-.043-.257-.105-.408-.191-1.418-.813-2.828-1.638-4.251-2.441a.663.663,0,0,1-.292-1.074q4.585-7.91,9.141-15.837c.289-.5.6-.637,1.123-.325q2.078,1.236,4.187,2.42c.518.291.605.6.3,1.121Q-574.714,230.56-579.272,238.486Zm8.52,9.969a1.988,1.988,0,0,1-1.91-1.192,1.968,1.968,0,0,1,.259-2.236,13.214,13.214,0,0,1,1.449-1.455,2.027,2.027,0,0,1,2.237-.292,2.041,2.041,0,0,1,1.216,1.9A4.13,4.13,0,0,1-570.753,248.455Zm6.008,4.637a2.091,2.091,0,0,1-3.024.027,2.122,2.122,0,0,1,.035-3.03c.626-.654,1.263-1.3,1.927-1.915a2.015,2.015,0,0,1,2.279-.375,2.082,2.082,0,0,1,1.282,1.928,2.22,2.22,0,0,1-.623,1.492C-563.492,251.845-564.1,252.483-564.744,253.091Zm4.867,4.9a2.105,2.105,0,0,1-3.027-.008,2.082,2.082,0,0,1,.025-2.974c.641-.671,1.292-1.334,1.972-1.964a1.99,1.99,0,0,1,2.278-.353,2,2,0,0,1,1.244,1.937,2.028,2.028,0,0,1-.615,1.49C-558.621,256.748-559.237,257.382-559.877,257.99Zm6.786,2.975c-.633.648-1.264,1.3-1.922,1.92a2.119,2.119,0,0,1-2.981.009,2.1,2.1,0,0,1-.036-2.977c.633-.677,1.288-1.338,1.97-1.966a2,2,0,0,1,2.331-.372,1.99,1.99,0,0,1,1.224,1.749A2.138,2.138,0,0,1-553.091,260.966Zm20.6-11.64a2.151,2.151,0,0,1,.119,3.133,2.11,2.11,0,0,1-3.128-.138q-6.044-6.03-12.076-12.072a7.4,7.4,0,0,0-.574-.552,1.3,1.3,0,0,0-1.752.062,1.319,1.319,0,0,0-.1,1.8,7.584,7.584,0,0,0,.552.574q5.355,5.357,10.714,10.709a2.22,2.22,0,0,1,.778,1.95,2.03,2.03,0,0,1-1.438,1.744,2.107,2.107,0,0,1-2.29-.634q-6.572-6.582-13.153-13.154a5.086,5.086,0,0,0-.532-.5,1.31,1.31,0,0,0-1.75.13,1.321,1.321,0,0,0-.062,1.754,5.116,5.116,0,0,0,.409.435q5.4,5.4,10.808,10.8a2.288,2.288,0,0,1,.836,2,2,2,0,0,1-1.368,1.722,2.029,2.029,0,0,1-2.211-.457c-.754-.717-1.5-1.449-2.21-2.206a5.034,5.034,0,0,0-3.417-1.7c-.327-.021-.386-.143-.417-.435a4.654,4.654,0,0,0-4.4-4.422c-.332-.04-.423-.141-.469-.468a4.683,4.683,0,0,0-4.817-4.425c-.3-.013-.4-.072-.447-.391a4.55,4.55,0,0,0-3.24-3.909,4.625,4.625,0,0,0-4.894,1.171c-.367.351-.719.972-1.1.99-.453.021-.774-.645-1.156-1.008-.529-.5-1.027-1.041-1.559-1.541a.41.41,0,0,1-.073-.61q4.435-7.656,8.853-15.323c.108-.187.189-.372.481-.368,1.771.024,3.543.027,5.314.04a2.983,2.983,0,0,1,.425.1c-.549.505-1.016.9-1.448,1.338a4.778,4.778,0,0,0-.156,6.839,4.785,4.785,0,0,0,6.89-.065c1.011-.994,2.038-1.974,2.994-3.018.429-.468.631-.344,1.007.033q9.262,9.295,18.55,18.564C-533.493,248.322-532.987,248.818-532.492,249.326Zm1.867-11.552q-2.257,2.206-4.462,4.464c-.315.323-.468.275-.758-.017q-4.447-4.479-8.927-8.925c-.291-.288-.3-.408.026-.685a7.374,7.374,0,0,0,2.727-5.541,1.373,1.373,0,0,0-1.309-1.588c-.766-.009-1.295.587-1.344,1.5a4.948,4.948,0,0,1-1.961,3.756c-.308.245-.489.215-.762-.064-1.441-1.471-2.905-2.92-4.362-4.376-1.014-1.013-1.573-1.018-2.569-.023q-2.021,2.02-4.042,4.039a2.168,2.168,0,0,1-3.136.171,2.135,2.135,0,0,1,.141-3.175c1.64-1.648,3.291-3.287,4.931-4.935a4.376,4.376,0,0,1,3.275-1.343c2.1.017,4.208,0,6.312,0,2.215,0,4.43.012,6.644-.011a.819.819,0,0,1,.827.481q4.426,7.7,8.884,15.382A.606.606,0,0,1-530.624,237.774Z" transform="translate(587.728 -213.443)" fill="#fff"/>
    </g>
  </g>
</svg>
