<svg xmlns="http://www.w3.org/2000/svg" width="346" height="362.809" viewBox="0 0 346 362.809">
  <g id="health_and_wellbeing" data-name="health and wellbeing" transform="translate(-38.119 -22.606)">
    <circle id="Ellipse_3739" data-name="Ellipse 3739" cx="87.775" cy="87.775" r="87.775" transform="translate(84.244 205.137) rotate(-45)" fill="#fff"/>
    <ellipse id="Ellipse_3740" data-name="Ellipse 3740" cx="103.165" cy="22.567" rx="103.165" ry="22.567" transform="translate(108.752 340.28)" fill="#c6dcf2"/>
    <g id="Group_184467" data-name="Group 184467" transform="translate(74.263 65.501)">
      <circle id="Ellipse_3741" data-name="Ellipse 3741" cx="17.359" cy="17.359" r="17.359" transform="matrix(0.924, -0.383, 0.383, 0.924, 114.544, 13.286)"/>
      <path id="Path_94170" data-name="Path 94170" d="M240.031,102.223c-35.147.829-34.644,31.9-34.388,47.228s-20.786,33.663-4.875,59.286,70.57,20.851,79.809,2.01c13.8-28.136-7.185-41.45-6.159-56.523S282.63,101.219,240.031,102.223Z" transform="translate(-105.038 -81.134)"/>
      <path id="Path_94171" data-name="Path 94171" d="M127.157,354.244c26.515-3.712,44.548,5.731,58.745,7.467s57.349,3.521,58.093,3.279a147.045,147.045,0,0,1,24.241-2.907c13.915-.679,43.647-8.541,57.41-8.239,0,0-1.86,18.862-3.533,19.347s-51.139,31.36-55.05,32.848-40.2,6.266-42.424,6.295-86.438-36.8-86.438-36.8-10.518-12.658-11.044-13.21S127.157,354.244,127.157,354.244Z" transform="translate(-91.705 -130.467)" fill="#0572a8"/>
      <path id="Path_94172" data-name="Path 94172" d="M225.192,440.162A75.732,75.732,0,0,1,196.363,454.3c-16,3.72-26.225-1.86-25.853-10.6s15.066-12.834,25.853-15.252,18.414-2.232,22.319.372,2.977,7.812,2.977,7.812Z" transform="translate(-100.263 -144.874)" fill="#195088"/>
      <path id="Path_94173" data-name="Path 94173" d="M254.284,434.876s-20.46,2.418-25.481,2.79-20.645,12.276-30.5,11.717-14.322-9.671-9.114-16.181,27.155-8,31.433-9.3,26.783-9.3,28.457-9.859S254.284,434.876,254.284,434.876Z" transform="translate(-103.502 -142.378)" fill="#f6b794"/>
      <path id="Path_94174" data-name="Path 94174" d="M344.366,355.57c17.251-6.654,28.271,9.114,21.389,24.179S345.3,406.718,326.7,415.461s-54.31,9.671-58.4,9.114-8.742-18.042-8-22.506S318.327,365.613,344.366,355.57Z" transform="translate(-117.884 -130.588)" fill="#0572a8"/>
      <path id="Path_94175" data-name="Path 94175" d="M267.284,440.162a75.738,75.738,0,0,0,28.83,14.135c15.995,3.72,26.225-1.86,25.853-10.6s-15.065-12.834-25.853-15.252-18.414-2.232-22.32.372-2.976,7.812-2.976,7.812Z" transform="translate(-119.271 -144.874)" fill="#195088"/>
      <path id="Path_94176" data-name="Path 94176" d="M235.112,434.876s20.46,2.418,25.481,2.79,20.646,12.276,30.5,11.717,14.322-9.671,9.114-16.181-27.155-8-31.434-9.3-26.783-9.3-28.457-9.859S235.112,434.876,235.112,434.876Z" transform="translate(-112.953 -142.378)" fill="#f6b794"/>
      <path id="Path_94177" data-name="Path 94177" d="M135.176,355.57c-17.251-6.654-28.271,9.114-21.389,24.179s20.46,26.969,39.059,35.711,54.31,9.671,58.4,9.114,8.742-18.042,8-22.506S161.216,365.613,135.176,355.57Z" transform="translate(-88.717 -130.588)" fill="#0572a8"/>
      <path id="Path_94178" data-name="Path 94178" d="M384.685,342.184a15.86,15.86,0,0,0,7.8.685c3.109-.422,6.588-2.319,7.642-.738s-3.479,4.374-4.954,5.692-1.528,2.636,0,3.848a3.17,3.17,0,0,0,4.322,0c1.37-1.054.685-6.061.474-7.168s1.74-3.689,3.742-.791a8.818,8.818,0,0,1,1.634,5.9,13.4,13.4,0,0,1-.791,3.162s.844-.264,2.372-2.951,2.635-5.166,3.426-5.166a19.076,19.076,0,0,1,2.9,6.219s1.054.9,0,3.11a14.348,14.348,0,0,1-8.855,7.853c-5.218,1.476-10.723-.881-14.02-2.424-2.687-1.258-5.8-3.742-8.8-5.112S384.685,342.184,384.685,342.184Z" transform="translate(-141.555 -128.135)" fill="#f6b794"/>
      <path id="Path_94179" data-name="Path 94179" d="M112.132,342.184a15.86,15.86,0,0,1-7.8.685c-3.109-.422-6.588-2.319-7.642-.738s3.479,4.374,4.954,5.692,1.528,2.636,0,3.848a3.17,3.17,0,0,1-4.322,0c-1.37-1.054-.685-6.061-.474-7.168s-1.74-3.689-3.742-.791a8.817,8.817,0,0,0-1.634,5.9,13.4,13.4,0,0,0,.791,3.162s-.844-.264-2.372-2.951-2.635-5.166-3.426-5.166a2.27,2.27,0,0,0-1.792,3.11,2.287,2.287,0,0,0-1.107,3.109s-1.054.9,0,3.11a14.348,14.348,0,0,0,8.855,7.853c5.218,1.476,10.723-.881,14.02-2.424,2.687-1.258,5.8-3.742,8.8-5.112S112.132,342.184,112.132,342.184Z" transform="translate(-83.097 -128.135)" fill="#f6b794"/>
      <path id="Path_94180" data-name="Path 94180" d="M221.611,231.354c.124.372,46.747,1.488,46.747,1.488l-22.2,56.295Z" transform="translate(-110.301 -106.5)" fill="#fff"/>
      <path id="Path_94181" data-name="Path 94181" d="M265.877,334.358c-6.82-11.16-6.324-63.486-6.324-63.486s2.728,24.8,13.764,35.711c12.485,12.344,57.6,27.5,57.6,27.5,5.332-9.175,3.163-19.192,3.163-19.192-23.188-7.44-45.135-27.031-47.491-35.836-2.44-9.115-6.448-43.77-13.391-53.07s-28.271-13.763-28.271-13.763-6.448,12.9-6.2,13.639,1.364,6.448,1.364,6.448C237.357,244.088,225.33,277.2,225.33,277.2c-4.588-8.928-15.128-33.6-17.731-44.887,0,0,2.6-8.308,2.232-8.308s-7.315-11.407-7.315-11.407c-11.408,3.6-20.832,6.447-26.287,13.02-7.414,8.93-10.952,43.954-13.392,53.07-2.356,8.8-24.3,28.4-47.491,35.835,0,0-2.169,10.017,3.163,19.192,0,0,45.111-15.156,57.6-27.5C187.139,295.3,189.867,270.5,189.867,270.5s2.852,40.3-6.324,63.486C183.543,333.985,227.562,353.577,265.877,334.358Z" transform="translate(-89.345 -102.742)" fill="#61a0e0"/>
      <path id="Path_94182" data-name="Path 94182" d="M234.837,187.995s-.124,9.053-2.356,13.268-8.555,6.572-8.555,6.572,3.72,15.624,5.084,19.715c0,0,18.848,7.936,32.487,0,0,0,4.34-15.748,4.836-20.088,0,0-8.06-2.108-9.424-8.06a45.2,45.2,0,0,1-.62-11.036Z" transform="translate(-110.756 -97.984)" fill="#f6b794"/>
      <path id="Path_94183" data-name="Path 94183" d="M256.882,201.1a13.272,13.272,0,0,0,2.789-.908,7.446,7.446,0,0,1-.22-.755,45.2,45.2,0,0,1-.62-11.036l-14.27-.247-7.367,3.333c-.075.892-.178,1.894-.321,2.929a23.149,23.149,0,0,0,8.363,5.636,23.512,23.512,0,0,0,5.978,1.25A19.65,19.65,0,0,0,256.882,201.1Z" transform="translate(-113.299 -98.014)" fill="#db9174"/>
      <path id="Path_94184" data-name="Path 94184" d="M221.068,149.258c-.244,3.967,2.877,35.674,24.675,35.674s23.049-33.259,23.435-35.674-9.932-8.012-15.362-21.054c0,0-4.63,6.557-15.464,9.482C228.877,140.244,221.326,145.062,221.068,149.258Z" transform="translate(-110.192 -86.241)" fill="#f6b794"/>
      <path id="Path_94185" data-name="Path 94185" d="M94.465,357.367a8.316,8.316,0,0,1-2.78-.367,6.315,6.315,0,0,1-2.436-1.921,24.683,24.683,0,0,1-1.872-2.689,10.6,10.6,0,0,0-1.92-2.772c-.031-.025-.09-.013-.086.035a8.327,8.327,0,0,0,1.532,3.312A21.389,21.389,0,0,0,88.975,356a6.369,6.369,0,0,0,2.682,1.911,2.644,2.644,0,0,0,2.88-.37A.1.1,0,0,0,94.465,357.367Z" transform="translate(-83.543 -129.724)" fill="#db9174"/>
      <path id="Path_94186" data-name="Path 94186" d="M93.492,361a9.724,9.724,0,0,1-5.151-2.285,13.768,13.768,0,0,1-1.913-2.269c-.284-.411-.555-.833-.82-1.258-.2-.324-.414-.819-.795-.946a.134.134,0,0,0-.164.093c-.079.416.279.872.481,1.219.276.475.561.946.863,1.405a13.614,13.614,0,0,0,2.031,2.483,8.209,8.209,0,0,0,2.563,1.662,3.708,3.708,0,0,0,2.9.1C93.579,361.176,93.609,361.022,93.492,361Z" transform="translate(-83.4 -130.635)" fill="#db9174"/>
      <path id="Path_94187" data-name="Path 94187" d="M416.261,350.01c-.631.8-1.03,1.746-1.581,2.6a15.486,15.486,0,0,1-1.786,2.3,7.807,7.807,0,0,1-2.08,1.606c-.732.374-1.658.376-2.3.882a.2.2,0,0,0,0,.278c.711.605,1.8.2,2.554-.144a8.212,8.212,0,0,0,2.388-1.713,13.383,13.383,0,0,0,1.861-2.421,8.578,8.578,0,0,0,1.421-3.106C416.773,350.046,416.461,349.757,416.261,350.01Z" transform="translate(-146.998 -129.785)" fill="#db9174"/>
      <path id="Path_94188" data-name="Path 94188" d="M417.81,354.878c-.153.149-.343.239-.493.392a5.082,5.082,0,0,0-.384.467c-.267.351-.532.706-.813,1.045a13.782,13.782,0,0,1-1.832,1.83,13.024,13.024,0,0,1-2.114,1.418,12.594,12.594,0,0,1-1.173.554,1.982,1.982,0,0,1-1.348.262.1.1,0,0,0-.1.17c.65.734,1.657.457,2.423.088a14.183,14.183,0,0,0,4.648-3.635,9.3,9.3,0,0,0,.831-1.126,2.556,2.556,0,0,0,.471-1.4A.07.07,0,0,0,417.81,354.878Z" transform="translate(-147.208 -130.756)" fill="#db9174"/>
      <path id="Path_94189" data-name="Path 94189" d="M260.81,442.638c-1.612-.97-3.811-.8-5.644-.948-2-.161-4-.3-6-.411s-4-.2-6.005-.268c-1.067-.038-2.136-.083-3.2-.1a10.211,10.211,0,0,0-2.858.166.2.2,0,0,0,0,.378,10.911,10.911,0,0,0,2.858.329c.934.051,1.869.083,2.8.13q3.1.158,6.205.376,3,.21,6,.45c1.855.152,4.035.728,5.818.09A.109.109,0,0,0,260.81,442.638Z" transform="translate(-113.316 -147.654)" fill="#db9174"/>
      <path id="Path_94190" data-name="Path 94190" d="M273.537,424.859a5.989,5.989,0,0,0-2.753-1.426c-1.189-.411-2.387-.8-3.582-1.195-2.465-.814-4.933-1.62-7.4-2.443-2.416-.807-4.826-1.63-7.243-2.43-1.209-.4-2.42-.79-3.631-1.184a7.093,7.093,0,0,0-3.169-.723.07.07,0,0,0-.031.117,6.676,6.676,0,0,0,2.8,1.3c1.2.427,2.4.857,3.6,1.279,2.467.866,4.945,1.7,7.416,2.558,2.393.828,4.781,1.673,7.171,2.51,1.189.416,2.375.84,3.57,1.241a6.283,6.283,0,0,0,3.193.587A.115.115,0,0,0,273.537,424.859Z" transform="translate(-115.035 -142.652)" fill="#db9174"/>
      <g id="Group_184466" data-name="Group 184466" transform="translate(141.136 268.979)">
        <path id="Path_94210" data-name="Path 94210" d="M260.74,416.367c-.137-.718-.275-1.435-.405-2.154s-.239-1.434-.363-2.151c-.061-.355-.2-1.6-.833-1.316-.057.034-.162.092-.175.107a.793.793,0,0,0-.175.4,5.514,5.514,0,0,0-.06,1.127c0,.7.048,1.41.1,2.113.053.73.132,1.454.237,2.178.094.653.08,1.855.777,2.167a.758.758,0,0,0,.882-.114C261.312,418.124,260.877,417.091,260.74,416.367Z" transform="translate(-258.727 -410.704)" fill="#13212b"/>
        <path id="Path_94211" data-name="Path 94211" d="M259.211,410.756c.009,0,.015,0,.023-.006C259.279,410.724,259.3,410.713,259.211,410.756Z" transform="translate(-258.822 -410.708)" fill="#13212b"/>
      </g>
      <path id="Path_94212" data-name="Path 94212" d="M337.35,369.878c-1.334.464-2.7.777-4.032,1.268-1.28.473-2.532,1.068-3.759,1.662q-3.693,1.786-7.4,3.553c-5.054,2.409-10.127,4.781-15.235,7.073-10.287,4.615-20.73,8.885-31.409,12.508q-4.48,1.52-9,2.922a65.237,65.237,0,0,0-9.076,3.063.4.4,0,0,0,.2.732,40.947,40.947,0,0,0,8.181-1.872q4.068-1.192,8.095-2.514,8.11-2.68,16.059-5.816c10.366-4.079,20.529-8.657,30.6-13.423q4.238-2,8.46-4.047c1.409-.681,2.8-1.368,4.172-2.124,1.5-.826,2.8-1.881,4.228-2.8C337.521,370,337.464,369.838,337.35,369.878Z" transform="translate(-117.301 -133.705)" fill="#13212b"/>
      <path id="Path_94213" data-name="Path 94213" d="M227.361,402.2c-.748-1.218-1.984-1.365-3.284-1.765q-2.206-.677-4.4-1.38-4.213-1.345-8.4-2.772-8.461-2.889-16.784-6.154-16.393-6.437-32.225-14.239-4.341-2.142-8.554-4.546c-2.785-1.59-5.419-3.52-8.318-4.891a.21.21,0,0,0-.253.329A33.022,33.022,0,0,0,152,372.067c2.4,1.553,4.856,3,7.365,4.365,5.194,2.825,10.527,5.379,15.913,7.818q16.237,7.354,33.062,13.31,4.712,1.672,9.465,3.225,2.377.774,4.763,1.519c.854.267,1.708.566,2.572.794.129.034.237.05.35.07-.035.26-.059.513-.092.727-.183,1.207-.259,2.429-.444,3.638a57.373,57.373,0,0,1-1.517,6.991,53.539,53.539,0,0,1-2.453,6.864c-.48,1.095-.948,2.212-1.5,3.274-.377.726-.877,1.881-1.634,2.257a.116.116,0,0,0,.027.209c2.338.6,3.4-2.1,4.2-3.828a54.513,54.513,0,0,0,4.576-15.673,29.694,29.694,0,0,0,.24-4.6c.091-.036.175-.063.275-.108A.53.53,0,0,0,227.361,402.2Z" transform="translate(-95.271 -133.028)" fill="#13212b"/>
      <path id="Path_94214" data-name="Path 94214" d="M270.564,223.667c.052-1.641.073-3.285-.01-4.926a19.044,19.044,0,0,0-.546-4.414c-.383-1.276-1.581-1.757-2.7-2.289-1.083-.516-2.573-1.475-3.644-.57a.034.034,0,0,0-.016.033,1.688,1.688,0,0,0,.845,1.158,3.644,3.644,0,0,0-.853,1.9c-.289,1.139-.588,2.274-.874,3.414-.573,2.278-1.146,4.556-1.741,6.83q-1.761,6.725-3.693,13.4c-2.579,8.907-5.433,17.723-8.478,26.481-.857,2.465-1.719,4.93-2.605,7.385q-.664,1.842-1.343,3.679c-.151.411-.3.813-.438,1.217-.017-.045-.035-.089-.051-.135q-.606-1.65-1.227-3.295c-.849-2.256-1.708-4.508-2.6-6.747-1.743-4.373-3.506-8.739-5.222-13.123a208.676,208.676,0,0,1-8.852-26.8c-1.241-5.123-1.944-10.318-2.951-15.482-.136-.694-1.2-.513-1.208.164a63.293,63.293,0,0,0,1.85,14.053c.993,4.551,2.237,9.045,3.638,13.486,2.864,9.077,6.43,17.916,9.979,26.741,1.017,2.529,2.05,5.051,3.072,7.577q.763,1.888,1.511,3.782c-.446-.383-.89-.769-1.324-1.167a82.931,82.931,0,0,1-18.263-24.241c-.825-1.658-1.631-3.324-2.367-5.023q-.551-1.273-1.07-2.559a4.686,4.686,0,0,0-.688-1.334c.833.121,1.794-1.116,2.164-1.585a27.009,27.009,0,0,0,2.527-3.831,1.006,1.006,0,0,0-.86-1.5c-1.283.031-2.577.017-3.858.092l-.043-.385a6.543,6.543,0,0,0-.134-1.186q-.111-.988-.223-1.977c-.31-2.747-.644-5.493-.919-8.243a45.339,45.339,0,0,1-.229-7.945,1.742,1.742,0,0,1,.906-1.692c.5-.32,1.024-.617,1.548-.9.947-.512,2.023-.818,2.177-2a.038.038,0,0,0-.018-.033c-1.158-.853-2.615.231-3.687.833-1.1.62-2.3,1.2-2.6,2.527a19.589,19.589,0,0,0-.255,4.555c.028,1.684.162,3.365.328,5.04.325,3.279.7,6.555,1.059,9.832.123,1.127-.091,3.068,1.312,3.454a7.717,7.717,0,0,0,2.034.039l.8-.006a27.74,27.74,0,0,1-1.658,2.286c-.346.425-1.307,1.546-.939,2.228,0,0-.008,0-.01,0-.606,1.1.345,2.839.716,3.906.524,1.5,1.11,2.988,1.729,4.455a72.964,72.964,0,0,0,4.466,8.754,81.983,81.983,0,0,0,11.748,15.418q1.712,1.761,3.529,3.417.847.771,1.716,1.519a6.343,6.343,0,0,0,1.9,1.463c.931.26,1.411-.254,1.447-.892a1.036,1.036,0,0,0,1.264.247c.656-.231,1.266-1.069,1.753-1.547q.8-.784,1.572-1.59,1.66-1.729,3.213-3.555A80,80,0,0,0,263.593,258.3a71.2,71.2,0,0,0,3.777-8.81c.507-1.468.98-2.95,1.393-4.449.292-1.062,1.1-2.813.442-3.847,0,0-.008,0-.01,0,.313-.688-.7-1.716-1.061-2.107a26.885,26.885,0,0,1-1.764-2.116l.777-.046a7.52,7.52,0,0,0,1.978-.172c1.341-.467,1.006-2.341,1.052-3.447C270.308,230.092,270.463,226.88,270.564,223.667Zm-1.808-.257c-.088,2.694-.234,5.387-.356,8.08q-.045.969-.088,1.938a6.427,6.427,0,0,0-.053,1.163l-.017.379c-1.253.01-2.512.108-3.763.162a.981.981,0,0,0-.739,1.515,26.407,26.407,0,0,0,2.711,3.562c.391.432,1.408,1.572,2.211,1.4a4.567,4.567,0,0,0-.583,1.342q-.419,1.287-.875,2.561c-.605,1.7-1.282,3.376-1.977,5.043a80.84,80.84,0,0,1-16.2,24.782c-.959,1.005-1.97,1.953-2.96,2.924a41.924,41.924,0,0,0,1.635-4.37q1.2-3.312,2.366-6.639c1.548-4.436,3-8.9,4.408-13.387,2.793-8.905,5.413-17.863,7.778-26.892q.993-3.789,1.93-7.591c.313-1.268.6-2.54.893-3.814a5.708,5.708,0,0,0,.3-2.488c.174.072.35.144.522.223.53.242,1.055.5,1.566.775a1.7,1.7,0,0,1,.992,1.587A44,44,0,0,1,268.756,223.41Z" transform="translate(-109.036 -102.492)" fill="#1a3556"/>
      <path id="Path_94215" data-name="Path 94215" d="M261.152,239.047c-.022-.105-.043-.211-.066-.317-.177-.853-1.123-.755-1.533-.207a42.125,42.125,0,0,1-13.308,1.631,43.341,43.341,0,0,1-6.89-.8c-2.289-.461-4.511-1.2-6.8-1.66a.531.531,0,0,0-.585.238.917.917,0,0,0-.039.086l-.013.038a.524.524,0,0,0,.238.584,22.3,22.3,0,0,0,6.734,2.391,42.787,42.787,0,0,0,7.173.95,43.751,43.751,0,0,0,14.437-1.782A.954.954,0,0,0,261.152,239.047Z" transform="translate(-112.322 -107.742)" fill="#c6d0d9"/>
      <path id="Path_94216" data-name="Path 94216" d="M253.752,311.878a2.038,2.038,0,0,0-1.393-1.36,2.478,2.478,0,0,0-1.851.219,2,2,0,0,0-.771.735,1.769,1.769,0,0,0-.1.236,2.2,2.2,0,0,0-.305.624,2.139,2.139,0,0,0,.17,1.56,2.3,2.3,0,0,0,.918.939,2.409,2.409,0,0,0,1.568.235,2.131,2.131,0,0,0,1.568-1.243A2.879,2.879,0,0,0,253.752,311.878Z" transform="translate(-115.73 -122.03)" fill="#1a3556"/>
      <path id="Path_94217" data-name="Path 94217" d="M253.752,341.195a2.036,2.036,0,0,0-1.393-1.359,2.478,2.478,0,0,0-1.851.219,2,2,0,0,0-.771.735,1.781,1.781,0,0,0-.1.237,2.193,2.193,0,0,0-.305.623,2.139,2.139,0,0,0,.17,1.56,2.3,2.3,0,0,0,.918.939,2.409,2.409,0,0,0,1.568.235,2.132,2.132,0,0,0,1.568-1.242A2.881,2.881,0,0,0,253.752,341.195Z" transform="translate(-115.73 -127.788)" fill="#1a3556"/>
      <path id="Path_94218" data-name="Path 94218" d="M128.466,351.148c-.252-.628-.485-1.265-.7-1.905a30.906,30.906,0,0,1-1.048-3.922,33.32,33.32,0,0,1-.524-4.108c-.1-1.348-.014-2.716-.153-4.06a.541.541,0,0,0-1.058-.143c-.728,2.7-.314,5.882.179,8.589a30.841,30.841,0,0,0,1.079,4.215c.387,1.162.792,2.908,1.882,3.6a.537.537,0,0,0,.8-.458A3.621,3.621,0,0,0,128.466,351.148Z" transform="translate(-91.246 -127.175)" fill="#1a3556"/>
      <path id="Path_94219" data-name="Path 94219" d="M375.63,338.011a.212.212,0,0,0-.383-.05,13.56,13.56,0,0,0-.9,4.006,34.507,34.507,0,0,1-1.016,4.343,18.515,18.515,0,0,1-1.725,3.907,15.344,15.344,0,0,1-1.16,1.663,9.406,9.406,0,0,1-1.025,1.292.153.153,0,0,0,.031.239c1.315.894,2.674-.215,3.41-1.3a15.212,15.212,0,0,0,2-4.462,26.636,26.636,0,0,0,.834-4.727c.079-.853.127-1.7.133-2.558A7.078,7.078,0,0,0,375.63,338.011Z" transform="translate(-139.322 -127.418)" fill="#1a3556"/>
      <path id="Path_94220" data-name="Path 94220" d="M242.014,151.777a5.3,5.3,0,0,0-4.524-1.6,4.437,4.437,0,0,0-1.945,1.013,3.034,3.034,0,0,0-.725.983c.039-.085-.069.15-.067.144a1.341,1.341,0,0,0-.117.4,1.157,1.157,0,0,0,.048.549.553.553,0,0,0,.509.388,2.649,2.649,0,0,0,1.59-.765c-.032.025.252-.2.146-.119s.123-.087.121-.084c.1-.07.208-.135.317-.194.054-.03.109-.057.165-.084l.025-.013.016,0c.134-.032.264-.08.4-.111l.018,0c.059,0,.118-.009.177-.01.085,0,.172.011.256.006.01,0,.006,0,.013,0h0a4.453,4.453,0,0,1,.446.11c.064.02.127.045.191.067l.028.012a6.087,6.087,0,0,1,.82.476c.059.04.116.082.174.124l.072.052c.17.134.334.275.512.4a1.1,1.1,0,0,0,1.333-1.728Z" transform="translate(-112.857 -90.542)" fill="#1a303f"/>
      <path id="Path_94221" data-name="Path 94221" d="M242.5,159.211a1.076,1.076,0,0,0-1.173-.478c-.874.249-1.039,1.315-1.628,1.9a2.975,2.975,0,0,1-1.846.835,3.409,3.409,0,0,1-2.166-.4,4.209,4.209,0,0,1-1.418-1.647.785.785,0,0,0-1.221-.158c-.462.446-1.271,1-1.382,1.667a.576.576,0,0,0,.548.719,2.158,2.158,0,0,0,1.189-.607,5.618,5.618,0,0,0,4.527,2.553,5.3,5.3,0,0,0,3.226-1.2C241.919,161.782,243.224,160.225,242.5,159.211Z" transform="translate(-112.274 -92.229)" fill="#1a303f"/>
      <path id="Path_94222" data-name="Path 94222" d="M259.008,153.221a1.094,1.094,0,0,0,1.419.283c.178-.125.342-.265.513-.4-.011.008.032-.025.072-.052.057-.042.115-.084.174-.124a6.077,6.077,0,0,1,.82-.476l.028-.012c.064-.022.127-.047.192-.067a4.494,4.494,0,0,1,.445-.11h0c.006,0,0,0,.013,0,.084,0,.171-.008.256-.006.059,0,.118.007.177.01l.019,0c.135.031.265.079.4.111l.017,0,.025.013c.055.027.11.055.165.084.108.059.215.125.317.194,0,0,.215.162.12.084s.179.144.147.119a2.649,2.649,0,0,0,1.589.765.554.554,0,0,0,.51-.388,1.157,1.157,0,0,0,.047-.549,1.3,1.3,0,0,0-.117-.4l-.066-.144a3.039,3.039,0,0,0-.726-.983,4.433,4.433,0,0,0-1.945-1.013,5.3,5.3,0,0,0-4.524,1.6A1.1,1.1,0,0,0,259.008,153.221Z" transform="translate(-117.601 -90.542)" fill="#1a303f"/>
      <path id="Path_94223" data-name="Path 94223" d="M257.791,159.211a1.078,1.078,0,0,1,1.174-.478c.873.249,1.039,1.315,1.628,1.9a2.973,2.973,0,0,0,1.845.835,3.408,3.408,0,0,0,2.166-.4,4.2,4.2,0,0,0,1.418-1.647.785.785,0,0,1,1.221-.158c.462.446,1.271,1,1.382,1.667a.576.576,0,0,1-.548.719,2.156,2.156,0,0,1-1.189-.607,5.618,5.618,0,0,1-4.528,2.553,5.3,5.3,0,0,1-3.225-1.2C258.37,161.782,257.065,160.225,257.791,159.211Z" transform="translate(-117.365 -92.229)" fill="#1a303f"/>
      <path id="Path_94224" data-name="Path 94224" d="M253.171,179.251l-.076.008a1.215,1.215,0,0,0-.583.086c-.216.081-.43.163-.651.229a3.932,3.932,0,0,1-1.231.193,1.6,1.6,0,0,1-.457-.056,2.417,2.417,0,0,1-.443-.146c-.171-.077-.321-.167-.528-.255a1.914,1.914,0,0,0-.53-.151.284.284,0,0,0-.275.21c-.221,1.1,1.262,1.591,2.092,1.692a4.173,4.173,0,0,0,1.566-.132,2.634,2.634,0,0,0,1.475-.724l.026-.022A.55.55,0,0,0,253.171,179.251Z" transform="translate(-115.558 -96.248)" fill="#db9174"/>
      <path id="Path_94227" data-name="Path 94227" d="M253.338,169.739a1.124,1.124,0,0,0-.624.237c-.076.059-.136.1-.227.166a4.813,4.813,0,0,1-.663.391,3.96,3.96,0,0,1-1.334.32,3.715,3.715,0,0,1-1.428-.178c-.241-.071-.481-.162-.715-.252a4.467,4.467,0,0,0-.711-.284.347.347,0,0,0-.422.423,2.539,2.539,0,0,0,1.3,1.282,5.192,5.192,0,0,0,1.925.5,4.308,4.308,0,0,0,1.848-.325,5.037,5.037,0,0,0,.915-.45,1.687,1.687,0,0,0,.832-.9C254.131,170.247,253.833,169.68,253.338,169.739Z" transform="translate(-115.327 -94.398)" fill="#db9174"/>
    </g>
    <g id="Group_184469" data-name="Group 184469" transform="translate(102.779 40.51)">
      <path id="Path_94228" data-name="Path 94228" d="M152.319,44.9c-2.9.87-32.984,55.055-33.727,57.783s37.447,24.055,39.183,23.807,36.951-57.783,36.951-59.023S154.8,44.16,152.319,44.9Z" transform="translate(-118.582 -44.885)" fill="#76ace2"/>
      <path id="Path_94229" data-name="Path 94229" d="M154.932,49.861c-2.475.743-28.157,47-28.792,49.329s31.968,20.536,33.45,20.324,31.544-49.328,31.544-50.386S157.049,49.226,154.932,49.861Z" transform="translate(-120.064 -45.859)" fill="#fff"/>
      <path id="Path_94230" data-name="Path 94230" d="M173.419,48.567c-1.94-.647-3.72,4.96-4.216,6.7s18.847,10.663,20.583,11.407,4.96-4.464,4.96-5.951-6.448-5.456-6.448-5.456,3.472-5.7-1.24-7.688-6.944,3.224-6.944,3.224Z" transform="translate(-128.522 -45.325)" fill="#5691c9"/>
      <path id="Path_94231" data-name="Path 94231" d="M189.161,82.48c-.3-1.369-1.44-1.736-2.611-2.307l-3.894-1.9c-2.534-1.236-5.073-2.464-7.58-3.754-2.423-1.246-4.824-2.532-7.192-3.88-1.18-.671-2.318-1.412-3.492-2.089-.223-.129-1.621-1.106-1.824-.436l-.04.132a.49.49,0,0,0,.125.474,30.434,30.434,0,0,0,6.024,4.6c2.154,1.349,4.372,2.578,6.625,3.754,2.29,1.195,4.6,2.351,6.907,3.517l3.513,1.775c1.162.587,2.017,1.127,3.259.554A.4.4,0,0,0,189.161,82.48Z" transform="translate(-127.209 -49.402)" fill="#c6d0d9"/>
      <path id="Path_94232" data-name="Path 94232" d="M181.986,94.515c-.3-1.369-1.44-1.735-2.611-2.306l-3.894-1.9c-2.534-1.237-5.073-2.464-7.58-3.754-2.423-1.246-4.824-2.533-7.192-3.88-1.18-.671-2.318-1.412-3.492-2.09-.223-.128-1.621-1.106-1.824-.436l-.04.132a.491.491,0,0,0,.125.475,30.431,30.431,0,0,0,6.024,4.6c2.154,1.35,4.372,2.578,6.625,3.754,2.29,1.2,4.6,2.352,6.907,3.517l3.513,1.775c1.162.587,2.017,1.126,3.259.553A.4.4,0,0,0,181.986,94.515Z" transform="translate(-125.8 -51.765)" fill="#c6d0d9"/>
      <path id="Path_94233" data-name="Path 94233" d="M175.042,107.014c-.3-1.369-1.44-1.736-2.61-2.307l-3.9-1.9c-2.534-1.237-5.072-2.464-7.58-3.754-2.423-1.246-4.824-2.532-7.192-3.88-1.18-.671-2.318-1.412-3.492-2.089-.223-.129-1.621-1.106-1.824-.436l-.04.133a.49.49,0,0,0,.125.474,30.411,30.411,0,0,0,6.024,4.6c2.154,1.349,4.372,2.578,6.624,3.754,2.291,1.195,4.6,2.351,6.907,3.517L171.6,106.9c1.163.587,2.017,1.127,3.259.554A.4.4,0,0,0,175.042,107.014Z" transform="translate(-124.436 -54.22)" fill="#c6d0d9"/>
      <path id="Path_94234" data-name="Path 94234" d="M166.247,120.206c-.3-1.369-1.44-1.735-2.61-2.306l-3.9-1.9c-2.534-1.237-5.072-2.464-7.58-3.754-2.423-1.246-4.824-2.532-7.192-3.88-1.18-.671-2.318-1.412-3.492-2.089-.222-.129-1.621-1.106-1.824-.436l-.04.132a.5.5,0,0,0,.125.475,30.458,30.458,0,0,0,6.024,4.6c2.154,1.349,4.372,2.578,6.625,3.754,2.29,1.195,4.6,2.351,6.907,3.517l3.513,1.775c1.162.587,2.017,1.127,3.259.553A.4.4,0,0,0,166.247,120.206Z" transform="translate(-122.709 -56.811)" fill="#c6d0d9"/>
      <path id="Path_94235" data-name="Path 94235" d="M162.352,62.934a.345.345,0,0,0-.253-.192.892.892,0,0,0-.515-.242,2.87,2.87,0,0,0-.73-.006,10.015,10.015,0,0,0-1.329.372c-.591.171-1.189.313-1.787.456a5.678,5.678,0,0,0-.335-.79.7.7,0,0,0-1.287.349,9.192,9.192,0,0,0,.16,1.746.889.889,0,0,0,.861.656,18.478,18.478,0,0,0,2.847-.559,8.21,8.21,0,0,0,1.405-.445,2.165,2.165,0,0,0,.711-.575c-.015.059,0,.043.051-.043a.551.551,0,0,0,.129-.246.736.736,0,0,0,.023-.177A.317.317,0,0,0,162.352,62.934Z" transform="translate(-125.952 -48.284)" fill="#2b478b"/>
      <path id="Path_94236" data-name="Path 94236" d="M155.886,74.621a1.945,1.945,0,0,0-.733-.43,2.438,2.438,0,0,0-1.216.129c-.6.183-1.193.385-1.789.577-.29.093-.577.194-.864.3-.041.014-.083.026-.125.039,0-.018,0-.036,0-.055a1.438,1.438,0,0,0-.272-.886.61.61,0,0,1-.047-.088.45.45,0,0,0-.771,0c-.01.019-.024.035-.035.054a1.431,1.431,0,0,0-.362.9,1.913,1.913,0,0,0,.086,1.1,1.344,1.344,0,0,0,.953.765,2.7,2.7,0,0,0,1.217-.115c.729-.179,1.449-.4,2.171-.6a4.364,4.364,0,0,0,1.23-.46,1.471,1.471,0,0,0,.481-.511,3.61,3.61,0,0,0,.166-.505A.194.194,0,0,0,155.886,74.621Z" transform="translate(-124.679 -50.6)" fill="#2b478b"/>
      <path id="Path_94237" data-name="Path 94237" d="M147.592,86.492c-.409.076-.812.168-1.217.265l-1.209.29c-.068.017-.139.032-.209.047,0-.026,0-.051-.009-.078a3.719,3.719,0,0,0-.3-1.2.743.743,0,0,0-1.092-.209.686.686,0,0,0-.272.612l-.022-.029c-.012.334.07.618.08.98,0,.158,0,.314,0,.472,0,.067,0,.137-.011.2-.01.023-.048.165-.049.167a.917.917,0,0,0,.878,1.152,9.4,9.4,0,0,0,1.421-.246l1.171-.244c.784-.163,2.537-.319,2.381-1.471C149.033,86.475,148.169,86.384,147.592,86.492Z" transform="translate(-123.426 -52.854)" fill="#2b478b"/>
      <path id="Path_94238" data-name="Path 94238" d="M141.5,100.826a2.733,2.733,0,0,0-.558-.25,1.966,1.966,0,0,0-.994.112c-.452.147-.891.333-1.337.5-.594.217-1.2.4-1.8.593l-.028-.183a2.142,2.142,0,0,0-.3-.988.594.594,0,0,0-.728-.239.586.586,0,0,0-.339.661c0,.008,0,.016-.01.032a1.254,1.254,0,0,0-.044.25c-.028.2-.043.4-.063.595q-.053.53-.107,1.06a.9.9,0,0,0,.9.9,19.254,19.254,0,0,0,4.579-1.33,1.989,1.989,0,0,0,.744-.534,1.843,1.843,0,0,0,.284-.687A.432.432,0,0,0,141.5,100.826Z" transform="translate(-121.843 -55.772)" fill="#2b478b"/>
      <g id="Group_184468" data-name="Group 184468" transform="translate(55.643 3.856)">
        <path id="Path_94239" data-name="Path 94239" d="M190.343,50.862a1.31,1.31,0,0,0-.211-.628,1.249,1.249,0,0,0-.692-.514,1.013,1.013,0,0,0-.817.123,1.113,1.113,0,0,0-.384.432c-.022.018-.049.031-.069.049a1,1,0,0,0-.1.122.9.9,0,0,0-.1.146,1.322,1.322,0,0,0-.141.524.591.591,0,0,0,0,.084,1.586,1.586,0,0,0,.043.281,1.319,1.319,0,0,0,.363.606,1.188,1.188,0,0,0,.826.35,1.288,1.288,0,0,0,.692-.224,1.367,1.367,0,0,0,.279-.247,1.6,1.6,0,0,0,.264-.453A1.267,1.267,0,0,0,190.343,50.862Z" transform="translate(-187.824 -49.684)" fill="#fff"/>
        <path id="Path_94240" data-name="Path 94240" d="M190.956,51.1c0,.014,0,.027,0,.039,0,.039.017.078.019.118Z" transform="translate(-188.439 -49.962)" fill="#fff"/>
      </g>
    </g>
    <g id="Group_184470" data-name="Group 184470" transform="translate(61.403 136.532)">
      <path id="Path_94241" data-name="Path 94241" d="M67.85,170.8c-2.232,7.44.744,27.279,5.456,31s39.679-2.727,44.887-5.7,1.737-26.784-.248-29.264S78.266,171.3,77.522,170.8,67.85,170.8,67.85,170.8Z" transform="translate(-67.094 -164.753)" fill="#4d649b"/>
      <path id="Path_94242" data-name="Path 94242" d="M67.993,170.424c-2.392,5.468,20.832,18.352,27.527,18.352s23.559-17.36,22.567-22.32S69.729,166.456,67.993,170.424Z" transform="translate(-67.237 -164.375)" fill="#5d74ab"/>
      <path id="Path_94243" data-name="Path 94243" d="M85.147,192.275c-1.069.55-1.692,1.938-2.322,2.908-.771,1.187-1.545,2.371-2.3,3.569l-2.195,3.48-1.1,1.741c-.182.289-.383.572-.549.87a.647.647,0,0,0-.1.186c-.059.1-.043.105.047.029.01-.051.113-.08-.012.023a.5.5,0,0,0,.1.774c.429.281.845.019,1.094-.354.4-.6.77-1.238,1.154-1.856l2.377-3.821c.77-1.237,1.524-2.482,2.277-3.73.647-1.07,1.754-2.372,1.785-3.672A.173.173,0,0,0,85.147,192.275Z" transform="translate(-68.936 -169.851)" fill="#195088"/>
      <path id="Path_94244" data-name="Path 94244" d="M129.59,196.745a33.273,33.273,0,0,0-3.187-1.794c-1.091-.625-2.2-1.206-3.279-1.86-1.041-.632-2.055-1.307-3.088-1.95-.514-.321-1.019-.662-1.543-.968a8.611,8.611,0,0,0-.8-.437,5.78,5.78,0,0,0-.808-.213.045.045,0,0,0-.051.065,6.934,6.934,0,0,0,.348.628,5.91,5.91,0,0,0,.722.718c.447.4.932.772,1.406,1.145,1,.787,2.052,1.511,3.1,2.228s2.066,1.446,3.143,2.095a20.826,20.826,0,0,0,3.39,1.871v0a.788.788,0,0,0,.645-.08A.848.848,0,0,0,129.59,196.745Z" transform="translate(-76.862 -169.314)" fill="#195088"/>
    </g>
    <g id="Group_184471" data-name="Group 184471" transform="translate(55.615 207.285)">
      <path id="Path_94245" data-name="Path 94245" d="M116.611,263.855c-.72-1.44-6.7-.447-6.7-.447s-6.029-7.815-8.932-10.718S59.449,271.223,59.9,276.582s15.631,27.911,18.087,30.368,37.96-19.873,39.3-21.883-3.257-14.565-3.257-14.565S117.951,266.534,116.611,263.855Z" transform="translate(-59.891 -252.421)" fill="#76ace2"/>
      <path id="Path_94246" data-name="Path 94246" d="M93.016,301.116c-1.9-2.943-3.76-5.91-5.51-8.946a.848.848,0,0,0-1.131-.346q-2.508,1.457-5.016,2.915a.838.838,0,0,0-.338,1.1,41.663,41.663,0,0,0,5.462,9.266.821.821,0,0,0,1.143.425,49.951,49.951,0,0,0,5.212-3.372A.864.864,0,0,0,93.016,301.116Z" transform="translate(-64.025 -260.14)" fill="#fff"/>
      <path id="Path_94247" data-name="Path 94247" d="M104.45,292.9c-1.9-2.942-6.581-11.254-8.332-14.29a.848.848,0,0,0-1.131-.347q-2.508,1.459-5.016,2.916a.837.837,0,0,0-.338,1.1,101.379,101.379,0,0,0,8.283,14.609.821.821,0,0,0,1.143.425,50.014,50.014,0,0,0,5.212-3.371A.866.866,0,0,0,104.45,292.9Z" transform="translate(-65.717 -257.478)" fill="#fff"/>
      <path id="Path_94248" data-name="Path 94248" d="M117.261,283.2c-1.9-2.943-9.123-15.644-10.873-18.68a.849.849,0,0,0-1.131-.346q-2.507,1.457-5.016,2.916a.837.837,0,0,0-.338,1.1c1.408,3.312,8.617,16.159,10.826,19a.822.822,0,0,0,1.143.426,50.069,50.069,0,0,0,5.211-3.372A.863.863,0,0,0,117.261,283.2Z" transform="translate(-67.733 -254.709)" fill="#fff"/>
      <path id="Path_94249" data-name="Path 94249" d="M90.815,273.431c-.035-.086-.072-.171-.108-.256.049.108.054.1.016-.036a2.963,2.963,0,0,0-.069-.325c-.046-.218-.092-.435-.14-.651q-.3-1.354-.6-2.707a.89.89,0,0,0-.858-.653,19.683,19.683,0,0,0-2.645.475,7.277,7.277,0,0,0-1.246.468,2.109,2.109,0,0,0-1.041.71.407.407,0,0,0,.145.551,2.107,2.107,0,0,0,1.146.055c.443-.035.894-.085,1.333-.156l.364-.058-.771,1.112c-.587.847-1.168,1.7-1.75,2.55-1.123,1.64-2.523,3.326-3.112,5.251-.111.364.358.793.7.534a19.706,19.706,0,0,0,3.692-4.5c.56-.791,1.123-1.581,1.68-2.374q.432-.614.859-1.229l.194-.277c.017.082.033.164.05.246.073.362.146.725.223,1.087.037.174.064.354.115.526.009.032.026.062.038.094a.878.878,0,0,0,.853,1.013A1.054,1.054,0,0,0,90.815,273.431Z" transform="translate(-64.127 -255.638)" fill="#fff"/>
    </g>
    <g id="Group_184472" data-name="Group 184472" transform="translate(260.948 53.402)">
      <path id="Path_94250" data-name="Path 94250" d="M319.513,100.6s-5.648,10.211-3.693,11.079,9.993-3.476,9.993-3.476,21.276,19.5,39.32-4.562c16.293-21.724-8.907-48.226-30.2-41.709C312.2,68.892,315.168,95.821,319.513,100.6Z" transform="translate(-315.408 -60.928)" fill="#4d649b"/>
      <path id="Path_94251" data-name="Path 94251" d="M336.189,101.961a2.657,2.657,0,0,0-.684-1.174l-.538-.415a2.644,2.644,0,0,0-1.343-.363,2.733,2.733,0,0,0-2.659,2.66q.047.353.095.707a2.658,2.658,0,0,0,.684,1.173l.538.416a2.642,2.642,0,0,0,1.342.362,2.733,2.733,0,0,0,2.66-2.659Q336.237,102.314,336.189,101.961Z" transform="translate(-318.463 -68.603)" fill="#fff"/>
      <path id="Path_94252" data-name="Path 94252" d="M352.854,101.961a2.664,2.664,0,0,0-.684-1.174l-.538-.415a2.646,2.646,0,0,0-1.343-.363,2.733,2.733,0,0,0-2.66,2.66q.048.353.095.707a2.66,2.66,0,0,0,.685,1.173l.538.416a2.647,2.647,0,0,0,1.343.362,2.733,2.733,0,0,0,2.66-2.659C352.917,102.432,352.885,102.2,352.854,101.961Z" transform="translate(-321.736 -68.603)" fill="#fff"/>
      <path id="Path_94253" data-name="Path 94253" d="M369.518,101.961a2.657,2.657,0,0,0-.684-1.174l-.538-.415a2.643,2.643,0,0,0-1.342-.363,2.733,2.733,0,0,0-2.66,2.66c.031.235.063.471.095.707a2.659,2.659,0,0,0,.684,1.173l.538.416a2.643,2.643,0,0,0,1.343.362,2.733,2.733,0,0,0,2.66-2.659C369.581,102.432,369.55,102.2,369.518,101.961Z" transform="translate(-325.009 -68.603)" fill="#fff"/>
    </g>
    <g id="Group_184473" data-name="Group 184473" transform="translate(302.509 126.849)">
      <path id="Path_94254" data-name="Path 94254" d="M375.064,152.385c-1.68.5-7.688,27.526-7.936,30.751s26.783,10.912,28.767,9.672,10.663-31.743,10.415-33.231S377.544,151.641,375.064,152.385Z" transform="translate(-367.127 -152.326)" fill="#76ace2"/>
      <path id="Path_94255" data-name="Path 94255" d="M392.728,159.065c-2.984,1.492-1.487,6.944,1.984,5.952s4.216-3.224,2.728-4.96S394.712,158.074,392.728,159.065Z" transform="translate(-371.841 -153.536)" fill="#425f91"/>
      <path id="Path_94256" data-name="Path 94256" d="M400.032,173.766c-1.217-1.13-3.435-1.07-5.01-1.346-1.709-.3-3.406-.657-5.1-1.015s-3.386-.76-5.076-1.152a27.212,27.212,0,0,0-5.229-1.143.559.559,0,0,0-.28,1.032,19.065,19.065,0,0,0,4.981,2.026c1.7.577,3.433,1.061,5.174,1.5s3.5.79,5.267,1.116c1.577.291,3.632.984,5.118.219A.792.792,0,0,0,400.032,173.766Z" transform="translate(-369.475 -155.622)" fill="#fff"/>
      <path id="Path_94257" data-name="Path 94257" d="M397.581,182.012c-1.218-1.13-3.435-1.07-5.01-1.346-1.709-.3-3.406-.657-5.1-1.015s-3.386-.76-5.076-1.152a27.218,27.218,0,0,0-5.23-1.143.559.559,0,0,0-.28,1.032,19.07,19.07,0,0,0,4.982,2.026c1.7.577,3.432,1.061,5.174,1.5s3.5.791,5.267,1.116c1.577.291,3.632.984,5.118.219A.794.794,0,0,0,397.581,182.012Z" transform="translate(-368.993 -157.242)" fill="#fff"/>
      <path id="Path_94258" data-name="Path 94258" d="M395.129,190.258c-1.217-1.13-3.435-1.07-5.01-1.346-1.709-.3-3.406-.657-5.1-1.015s-3.386-.759-5.076-1.152a27.209,27.209,0,0,0-5.229-1.143.559.559,0,0,0-.28,1.032,19.065,19.065,0,0,0,4.981,2.026c1.7.577,3.433,1.061,5.174,1.5s3.5.791,5.267,1.116c1.577.291,3.632.984,5.118.219A.793.793,0,0,0,395.129,190.258Z" transform="translate(-368.512 -158.861)" fill="#fff"/>
    </g>
    <g id="Group_184474" data-name="Group 184474" transform="translate(300.964 192.769)">
      <path id="Path_94259" data-name="Path 94259" d="M391.5,234.362c-3.476-.579-25.792,51.583-26.287,54.311s32.735,18.6,35.959,18.351,29.015-52.822,28.519-55.055S392.985,234.61,391.5,234.362Z" transform="translate(-365.204 -234.357)" fill="#4d649b"/>
      <path id="Path_94260" data-name="Path 94260" d="M404.935,247.71c-2.529,0-5.951,10.416-5.7,12.152s16.367,10.415,19.343,9.92,6.7-8.68,7.44-11.655S406.175,247.71,404.935,247.71Z" transform="translate(-371.885 -236.98)" fill="#bacee2"/>
      <path id="Path_94261" data-name="Path 94261" d="M395.764,238.66c-1.844,3.251-3.316,6.774-4.891,10.163-1.586,3.414-3.162,6.831-4.779,10.23-3.233,6.8-6.479,13.584-9.615,20.425-1.582,3.447-2.982,7.257-5.229,10.341-.513.7.557,1.4,1.144.883,2.6-2.273,3.839-5.373,5.264-8.442,1.614-3.477,3.237-6.95,4.8-10.448,3.105-6.942,6.205-13.885,9.374-20.8,1.783-3.89,3.77-7.78,5.234-11.8C397.346,238.44,396.157,237.968,395.764,238.66Z" transform="translate(-366.365 -235.136)" fill="#bacee2"/>
      <path id="Path_94262" data-name="Path 94262" d="M417.959,257.08c-.675-.272-1.353-.54-2.029-.809l-1.968-.785a3.263,3.263,0,0,0-2.073-.4.385.385,0,0,0-.227.559,2.92,2.92,0,0,0,1.549,1.106l1.821.793,1.821.792a6.468,6.468,0,0,0,.925.387,4.636,4.636,0,0,0,.482.076.684.684,0,0,0,.36,0c-.05.015-.047.022.009.018a.482.482,0,0,0,.427-.245C419.411,257.815,418.554,257.32,417.959,257.08Z" transform="translate(-374.319 -238.417)" fill="#fff"/>
      <path id="Path_94263" data-name="Path 94263" d="M418.062,262.328c-1.362-.661-2.805-1.168-4.212-1.724-1.514-.6-3.056-1.126-4.586-1.68-1.371-.5-3.05-1.427-4.535-1.185a.222.222,0,0,0-.133.325c.844,1.1,2.445,1.528,3.679,2.062,1.446.627,2.886,1.271,4.339,1.88,1.36.57,2.758,1.057,4.1,1.663a10.349,10.349,0,0,1,1.7.927c.489.344.887.886,1.542.818l0-.019a.535.535,0,0,0,.641-.465C420.791,263.627,419.05,262.806,418.062,262.328Z" transform="translate(-372.934 -238.942)" fill="#fff"/>
      <path id="Path_94264" data-name="Path 94264" d="M418.4,268.642a2.361,2.361,0,0,0-1.519-1c-.676-.217-1.36-.406-2.034-.63-1.346-.446-2.67-.959-3.994-1.464-1.342-.513-2.641-1.111-3.951-1.7a25.3,25.3,0,0,0-3.787-1.535.208.208,0,0,0-.2.345c1.847,2.118,4.712,3.416,7.224,4.585a38.354,38.354,0,0,0,3.943,1.547q1.072.362,2.158.677a2.362,2.362,0,0,0,1.955-.05A.582.582,0,0,0,418.4,268.642Z" transform="translate(-372.601 -239.847)" fill="#fff"/>
    </g>
    <g id="Group_184480" data-name="Group 184480" transform="translate(38.119 22.606)">
      <g id="Group_184479" data-name="Group 184479">
        <path id="Path_94265" data-name="Path 94265" d="M60.3,308.058c-.217-.869-1.171-1.4-1.955-1.739a17.984,17.984,0,0,0-2.757-.91c-.722-.184-1.433-.343-2.142-.575-.1-.043-.194-.085-.291-.126A3.158,3.158,0,0,0,52,304.5h0l-.043-.008c-.114-.02-.235-.036-.357-.047a1.9,1.9,0,0,0-.185-.064c-.068-.015-.138-.019-.207-.03a1.686,1.686,0,0,1-.649-.747.31.31,0,0,0-.532,0,2.887,2.887,0,0,0-.43,1.852,1.816,1.816,0,0,0,0,.583,2,2,0,0,0,.136.485,3.591,3.591,0,0,0,1.647,2.327,7.933,7.933,0,0,0,3.071.891,12.828,12.828,0,0,0,2.615-.095,8.911,8.911,0,0,0,2.538-.263A.9.9,0,0,0,60.3,308.058Z" transform="translate(-40.367 -77.766)" fill="#fff"/>
        <path id="Path_94266" data-name="Path 94266" d="M45.565,297.146c-.039-.049-.079-.1-.117-.149a.749.749,0,0,0-.059-.223,1.125,1.125,0,0,0-.2-.692,1.233,1.233,0,0,0-.163-.473c-.106-.171-.239-.33-.353-.5-.245-.361-.461-.739-.714-1.094-.121-.17-.234-.347-.357-.516s-.249-.324-.376-.482l-.014-.02c-.256-.367-.521-.726-.759-1.107-.226-.358-.419-.739-.649-1.093a5.289,5.289,0,0,0-.524-.7,2.266,2.266,0,0,0-.229-.242c-.027-.02-.177-.1-.09-.029-.2-.167-.361-.439-.55-.63a2.818,2.818,0,0,1-.327-.391,2.63,2.63,0,0,0-.174-.244,1.269,1.269,0,0,0-.307-.215c.022,0,.006-.051-.032-.105a.907.907,0,0,0-.249-.227c-.207-.149-.442.023-.52.211a1.534,1.534,0,0,0-.089.5,2.676,2.676,0,0,0-.055.935c0,.218-.027.438-.017.657.008.152.066.305.068.457,0-.223,0,.256,0,.243s.072.556.027.2a3.147,3.147,0,0,0,.1.534,5.4,5.4,0,0,0,.346.829,11.751,11.751,0,0,0,.7,1.147,11.183,11.183,0,0,0,1.765,2.167,9.1,9.1,0,0,0,1.249.906,2.721,2.721,0,0,0,1.221.509,1.148,1.148,0,0,0,.782.072,2.435,2.435,0,0,0,.248.029.292.292,0,0,0,.145-.046c-.058.064-.025.1.1.092C45.579,297.523,45.668,297.274,45.565,297.146Z" transform="translate(-38.221 -74.721)" fill="#fff"/>
        <path id="Path_94267" data-name="Path 94267" d="M41.056,263.247a18.758,18.758,0,0,1-.5-1.86c-.031-.236-.384-.422-.516-.14-.563,1.2-1.41,2.173-1.659,3.52a22.819,22.819,0,0,0-.256,3.926,21.977,21.977,0,0,0,.2,3.9,7.529,7.529,0,0,0,.535,1.78,4.04,4.04,0,0,0,.468.861c.118.145.294.215.371.354a.219.219,0,0,0,.395-.051l.043-.137c.644-.477.723-1.852.828-2.545a32.885,32.885,0,0,0,.155-3.89c.039-1.265.21-2.537.192-3.8A9.01,9.01,0,0,0,41.056,263.247Z" transform="translate(-38.119 -69.448)" fill="#fff"/>
        <path id="Path_94268" data-name="Path 94268" d="M54.081,234.86a10.757,10.757,0,0,1-1.529,1.052,7.486,7.486,0,0,0-1.7,1.187,16.46,16.46,0,0,0-2.432,3.486,22.5,22.5,0,0,0-1.8,3.68,11.086,11.086,0,0,0-.6,1.9c-.121.676.306,1.339.072,1.97-.043.117.135.183.2.083.32-.516.965-.54,1.419-.923a9.046,9.046,0,0,0,1.274-1.521c.821-1.093,1.59-2.207,2.322-3.361a24.341,24.341,0,0,0,2.156-3.532,8.956,8.956,0,0,0,.509-1.731,9.746,9.746,0,0,1,.591-1.921A.326.326,0,0,0,54.081,234.86Z" transform="translate(-39.666 -64.283)" fill="#fff"/>
        <path id="Path_94269" data-name="Path 94269" d="M71.164,217.72a.264.264,0,0,0-.437-.255c-.243.256-.5.5-.755.743a4.16,4.16,0,0,1-.8.5c-.08.045-.166.085-.243.133-.056.035-.127.069-.149.088l-.272.115a4.164,4.164,0,0,0-.435.33c-.282.233-.538.494-.808.739-.541.489-1.064.995-1.566,1.523-.236.248-.5.471-.733.722a2.769,2.769,0,0,0-.694.955l-.084.1c-.312.363-.142,1.1.436,1.051l.238-.024a2.915,2.915,0,0,0,1.842-.387,7.374,7.374,0,0,0,1.39-.759,8.472,8.472,0,0,0,1.4-1.235,7.863,7.863,0,0,0,.663-.833,2.7,2.7,0,0,0,.2-.339,1.342,1.342,0,0,0,.184-.681l0-.01a5.593,5.593,0,0,0,.27-1.082C70.866,218.649,71.058,218.182,71.164,217.72Z" transform="translate(-43.208 -60.861)" fill="#fff"/>
        <path id="Path_94270" data-name="Path 94270" d="M149.306,163.159a2.319,2.319,0,0,0-.456-.192c.025.011-.371-.248-.3-.2a1.953,1.953,0,0,0-1.407-.227c.46-.043-.292.01-.481.059-.721.189-1.414.51-2.12.752-.808.276-1.577.612-2.363.942.305-.129-.176.072-.19.077a6.741,6.741,0,0,0-.8.387c-.329.187-.668.417-.914.572a1.179,1.179,0,0,0-.527,1.3,1.2,1.2,0,0,0,1.107.842c.3.035.755.092,1.173.1a8.8,8.8,0,0,0,1.463-.153,12.646,12.646,0,0,0,2.192-.513,14.37,14.37,0,0,0,2.4-.93,1.629,1.629,0,0,0,.514-.358q-.381.217.219-.2a1.711,1.711,0,0,0,.463-.856,2.947,2.947,0,0,1,.116-.509,1.785,1.785,0,0,0,.143-.489A.461.461,0,0,0,149.306,163.159Z" transform="translate(-58.071 -50.083)" fill="#fff"/>
        <path id="Path_94271" data-name="Path 94271" d="M161.472,154.819c-.007-.084-.022-.167-.036-.25.011.059.02.052.025-.035a.53.53,0,0,0-.02-.271c.008-.055.018-.11.023-.166a.811.811,0,0,0-.117-.4c.012-.244-.007-.5-.267-.608a.536.536,0,0,0-.586.182.766.766,0,0,0-.3.1,1.235,1.235,0,0,0-.194.16.572.572,0,0,0-.166.072c-.046.03-.061.043-.055.045a1.481,1.481,0,0,0-.207.082c.007,0-.068.05-.154.113-.106.054-.231.122-.289.16a6.669,6.669,0,0,0-1.088,1.083c-.134.141-.62.742-.215.254-.054.064-.1.131-.158.2-.136.167-.268.339-.4.511l-.018.025c-.121.147-.242.295-.369.438a3.412,3.412,0,0,0-.379.46,1.531,1.531,0,0,0-.117.258c-.04.048-.082.1-.121.145a1.139,1.139,0,0,0-.238.7c-.02.036-.042.072-.061.108a.77.77,0,0,0-.067.523l-.022.018c-.074.061.006.178.09.154l.027-.007a.718.718,0,0,0,.491.218,1.368,1.368,0,0,0,.152-.008,1.166,1.166,0,0,0,.845.048c.079-.027.154-.064.231-.1a1.25,1.25,0,0,0,.328-.055,2.4,2.4,0,0,0,.538-.261q.28-.168.548-.352a5.834,5.834,0,0,0,1.411-1.29,4.234,4.234,0,0,0,.806-1.359,2.452,2.452,0,0,0,.08-.585A1.911,1.911,0,0,0,161.472,154.819Z" transform="translate(-61.241 -48.226)" fill="#fff"/>
        <path id="Path_94272" data-name="Path 94272" d="M217.013,38.646a3.682,3.682,0,0,1,0-.432c.025-.3.078-.591.1-.89.023-.33-.414-.383-.574-.155a3.838,3.838,0,0,1-.53.619.813.813,0,0,1-.093.071c-.081.048-.165.095-.248.141a5.419,5.419,0,0,0-2.7,1.915c-.758.793-1.558,1.545-2.326,2.328-.862.88-1.823,1.644-2.6,2.6a8.3,8.3,0,0,0-1.08,1.6,9.372,9.372,0,0,0-.768,1.67l.01,0a.881.881,0,0,0-.044.261,1,1,0,0,0,1.234.941c1.3-.223,2.142-1.782,3.068-2.587,1.06-.92,2.128-1.809,3.154-2.769.458-.428.921-.851,1.374-1.285a7.92,7.92,0,0,0,1.471-1.611,3.5,3.5,0,0,0,.534-2.145q-.039-.268,0-.052Z" transform="translate(-71.121 -25.439)" fill="#fff"/>
        <path id="Path_94273" data-name="Path 94273" d="M238.154,25.525c-.479-.026-.946-.071-1.425-.113a4.822,4.822,0,0,0-1.684.039,17.991,17.991,0,0,0-3.218,1.387c-.951.451-1.864.948-2.784,1.462a6.813,6.813,0,0,0-2.565,2.169,1.038,1.038,0,0,0,.614,1.511,6.634,6.634,0,0,0,3.378-.581c1.054-.415,2.1-.837,3.12-1.322a18.758,18.758,0,0,0,2.8-1.439,5.145,5.145,0,0,0,1.226-1.351c.288-.415.548-.825.846-1.229C238.63,25.826,238.395,25.538,238.154,25.525Z" transform="translate(-75.088 -23.147)" fill="#fff"/>
        <path id="Path_94274" data-name="Path 94274" d="M263.108,24.251c-1.166-.4-2.142-1.253-3.365-1.428a31.218,31.218,0,0,0-3.886-.2,33.741,33.741,0,0,0-3.728.075,10.607,10.607,0,0,0-1.746.339,6.088,6.088,0,0,0-.786.243c-.38.159-.865.646-1.225.714a.109.109,0,0,0,0,.208c.321.08.769.585,1.119.756a7.4,7.4,0,0,0,.893.342,9.1,9.1,0,0,0,1.746.428c1.245.164,2.473.25,3.728.3a26.744,26.744,0,0,0,3.729.051c1.269-.123,2.3-.9,3.523-1.238A.311.311,0,0,0,263.108,24.251Z" transform="translate(-79.398 -22.606)" fill="#fff"/>
        <path id="Path_94275" data-name="Path 94275" d="M290.373,28.71a4.3,4.3,0,0,1-.671-1.033,2.992,2.992,0,0,0-.559-.757,3.67,3.67,0,0,0-.494-.4q-.272-.215-.125-.057a4.36,4.36,0,0,0-1.042-.576c-.264-.106-.528-.2-.8-.278q-.709-.216-1.425-.406a11.88,11.88,0,0,0-3.194-.415,10.315,10.315,0,0,0-1.606.127,5.308,5.308,0,0,0-.751.178c-.359.125-.615.648-.988.664a.155.155,0,0,0-.041.3c.321.092.44.613.681.821a3.388,3.388,0,0,0,.529.328c.375.22.762.395,1.158.579a25.33,25.33,0,0,0,2.67,1.015c.83.277,1.69.529,2.534.762a5.186,5.186,0,0,0,1.52.207,2.661,2.661,0,0,0,1.149-.221,5.346,5.346,0,0,1,1.215-.258A.343.343,0,0,0,290.373,28.71Z" transform="translate(-85.344 -23.034)" fill="#fff"/>
        <path id="Path_94276" data-name="Path 94276" d="M312.414,39.309a1.86,1.86,0,0,0-.172-.575.9.9,0,0,0-.149-.284,2.9,2.9,0,0,0-.65-.974c-.159-.167-.348-.317-.522-.468a20.671,20.671,0,0,0-2.483-1.943,13.224,13.224,0,0,0-2.707-1.282,4.983,4.983,0,0,0-.9-.206c.029,0,.035,0-.062-.016s-.2-.039-.3-.057a1.939,1.939,0,0,0-1.456.188,5.836,5.836,0,0,1-.627,0,.171.171,0,0,0-.12.289,3.854,3.854,0,0,1,.407.449,1.8,1.8,0,0,0,.479,1.054c.134.147.28.283.416.428,0,.014.23.293.233.3.068.072.153.133.227.2.323.284.638.576.947.874a6.012,6.012,0,0,0,.534.444l0,0,0,0,.013.01.01.008c.171.137.344.274.513.414.229.19.464.371.7.552l.031.026c.1.082.2.161.3.243q.515.417,1.008.858a5.687,5.687,0,0,0,1.639,1.152c-.137-.056-.257-.1-.059.007a2.889,2.889,0,0,0,.559.231,1.735,1.735,0,0,0,.792.035.809.809,0,0,0,.3-.065.874.874,0,0,0,.992-.908c.033-.094.063-.19.067-.2A1.618,1.618,0,0,0,312.414,39.309Z" transform="translate(-89.99 -24.736)" fill="#fff"/>
        <path id="Path_94277" data-name="Path 94277" d="M326.108,49.423a3.578,3.578,0,0,0-.346-1,2.694,2.694,0,0,0-.734-1.021,6.083,6.083,0,0,0-.932-.7,2.272,2.272,0,0,0-1.594-.256.839.839,0,0,0-.639.247.114.114,0,0,0-.116.162.892.892,0,0,0-.125.431,1.176,1.176,0,0,0-.086.452c0,.047.014.093.019.141a4.184,4.184,0,0,0,.154.916c.076.21.137.423.2.638a4.014,4.014,0,0,0,.493.994,2.462,2.462,0,0,0,1.163,1.115,1.627,1.627,0,0,0,.4.185,1.643,1.643,0,0,0,1.056-.039,1.785,1.785,0,0,0,.786-.7,1.5,1.5,0,0,0,.169-.41A2.156,2.156,0,0,0,326.108,49.423Z" transform="translate(-93.782 -27.278)" fill="#fff"/>
        <path id="Path_94278" data-name="Path 94278" d="M350.9,134.368a2.4,2.4,0,0,0-2.813,1.451,12.289,12.289,0,0,0-.2,1.341c-.066.448-.125.9-.186,1.345a23.717,23.717,0,0,0-.313,3,1.693,1.693,0,0,0,.052.621c.025.118.035.161.035.144a7.267,7.267,0,0,0,.131.791q.09.234.191.463l.1.128a1.015,1.015,0,0,0,.247.425l.227.9a.342.342,0,0,0,.619.081l.433-.825a1.156,1.156,0,0,0,.179-.143c.155-.172.2-.232.129-.19l.14-.108a3.7,3.7,0,0,0,.647-1.2c-.055.1-.058.1-.008.006a3.77,3.77,0,0,0,.206-.475c.043-.159.063-.336.094-.5.082-.435.164-.866.215-1.306.032-.284.058-.569.088-.853a2.191,2.191,0,0,0,2.116-1.567A2.915,2.915,0,0,0,350.9,134.368Z" transform="translate(-98.857 -44.547)" fill="#fff"/>
        <g id="Group_184475" data-name="Group 184475" transform="translate(249.094 103.337)">
          <path id="Path_94279" data-name="Path 94279" d="M352.089,156.916c-.028-.235-.055-.471-.1-.7-.1-.477-.209-.948-.3-1.426a13.453,13.453,0,0,0-1.018-2.975,1.27,1.27,0,0,0-2.308.3c-.034.147-.024.157-.007.133l-.046.105a2.466,2.466,0,0,0-.141.708c-.027.252-.062.509-.072.762a9.283,9.283,0,0,0,.13,1.84c.078.479.165.96.272,1.434a2.855,2.855,0,0,0,.473,1.112q.253.328.043.057l.255.331a1.64,1.64,0,0,0,.332.284,1.484,1.484,0,0,0,.284.292,1.436,1.436,0,0,0,.421.417c.157.092.343.166.5.251a.39.39,0,0,0,.526-.137c.1-.192.141-.249.261-.452a1.371,1.371,0,0,0,.158-.6,1.555,1.555,0,0,0,.088-.353,2.072,2.072,0,0,0,.145-.359,2.95,2.95,0,0,0,.059-.411C352.043,157.333,352.114,157.116,352.089,156.916Z" transform="translate(-348.092 -151.199)" fill="#fff"/>
          <path id="Path_94280" data-name="Path 94280" d="M353.02,159.133c0-.056.006-.113.01-.17,0,.031-.01.059-.013.089A.667.667,0,0,0,353.02,159.133Z" transform="translate(-349.059 -152.724)" fill="#fff"/>
        </g>
        <g id="Group_184476" data-name="Group 184476" transform="translate(253.124 114.168)">
          <path id="Path_94281" data-name="Path 94281" d="M359.858,169.455c.07.088.137.174.2.26l.094.119Z" transform="translate(-354.433 -165.616)" fill="#fff"/>
          <path id="Path_94282" data-name="Path 94282" d="M359.28,170.348a.768.768,0,0,0-.126-.17,2.373,2.373,0,0,0-.025-.5,1.932,1.932,0,0,0-.4-.906,3.232,3.232,0,0,0-.464-.485c-.162-.126-.321-.257-.473-.4-.265-.244-.555-.454-.84-.673l.4.309c-.361-.284-.737-.542-1.1-.821l.369.285c-.223-.174-.443-.354-.677-.514l-.131-.092c-.094-.078-.188-.156-.28-.237a2.1,2.1,0,0,0-.341-.248l-.092-.087a1.354,1.354,0,0,0-.481-.3,1.105,1.105,0,0,0-.361-.219,1.887,1.887,0,0,0-.142-.162.741.741,0,0,1-.212-.332.185.185,0,0,0-.362.049,4.182,4.182,0,0,1-.136.707,1.027,1.027,0,0,0-.176.527,1.107,1.107,0,0,0-.122.551,2.346,2.346,0,0,0,.029.249,1.4,1.4,0,0,0-.025.186,2.7,2.7,0,0,0,.106.639c.05.214.109.425.178.633a5.417,5.417,0,0,0,1.056,1.854,5.176,5.176,0,0,0,1.394,1.078,3.16,3.16,0,0,0,1.429.451,2.076,2.076,0,0,0,1.578-.726.819.819,0,0,0,.284-.11A.412.412,0,0,0,359.28,170.348Z" transform="translate(-353.107 -164.678)" fill="#fff"/>
        </g>
        <path id="Path_94283" data-name="Path 94283" d="M429,192.514a2.122,2.122,0,0,0-.417-1c-.762-1.726-3.312-2.667-4.92-3.2a11.857,11.857,0,0,0-2.931-.478,6.551,6.551,0,0,0-2.859.5,1.2,1.2,0,0,0,0,2.286c1.46.573,3.1,1.036,4.624,1.59.166.06.33.125.5.183l.14.056c.061.027.123.053.183.081.374.171.736.366,1.1.548.472.232.931.476,1.42.673l.088.035.093.04a2.5,2.5,0,0,0,.819.222,1.939,1.939,0,0,0,.717.1c.517.122,1.036.254,1.54.417a.373.373,0,0,0,.454-.455A10.646,10.646,0,0,0,429,192.514Z" transform="translate(-112.537 -55.057)" fill="#fff"/>
        <path id="Path_94284" data-name="Path 94284" d="M445.24,206.776c-.018-.17.01-.344,0-.518a4.446,4.446,0,0,0-.117-.7l0-.018a1.108,1.108,0,0,0-.055-.375,3.89,3.89,0,0,0-.956-2.109,10.787,10.787,0,0,0-1.827-1.928c-.376-.295-.755-.588-1.143-.866a6.211,6.211,0,0,0-1.283-.693,4,4,0,0,0-1.238-.385c-.092-.007-.189,0-.282,0h-.023l-.009,0a1.468,1.468,0,0,0-1.206.3c-.152-.074-.3-.147-.457-.218-.265-.122-.494.246-.233.4q.218.129.434.263a1.411,1.411,0,0,0,.182,1.013c.037.062.288.521.125.174a5.835,5.835,0,0,0,.92,1.277c.46.551,1.011,1.02,1.519,1.529s1.025,1.021,1.549,1.515a4.943,4.943,0,0,0,1.889,1.343c.041.022.08.043.125.063a.708.708,0,0,0,.182.074,2.86,2.86,0,0,0,.749.4c.268.1.447.3.721.409s.48-.155.506-.387A2.434,2.434,0,0,0,445.24,206.776Z" transform="translate(-116.321 -57.282)" fill="#fff"/>
        <path id="Path_94285" data-name="Path 94285" d="M457.29,218.225a9.145,9.145,0,0,0-1.851-2.784,5.133,5.133,0,0,0-2.637-1.772,2.675,2.675,0,0,0-.894-.272c-.357-.029-.683-.1-1.036-.14a.156.156,0,0,0-.149.2,3.616,3.616,0,0,1,.217.845,2.714,2.714,0,0,0,.185.785,3.442,3.442,0,0,0,.433,1.508c.109.224.218.448.322.675l.039.088c.037.092.073.186.11.278.137.347.285.685.444,1.023.067.141.317.759.148.321.139.36.292.714.455,1.064.053.113.108.225.16.339.015.034.091.214.126.3l.041.107q.146.363.3.721c.05.113.1.227.153.337s.051.113,0-.01q-.113-.272.072.17a7.136,7.136,0,0,0,1.03,1.619c-.037-.043,0,0,.117.154.016.02.225.26.226.261.088.108.254.365.384.514a1.312,1.312,0,0,0,.36.287c-.019.006-.035.019-.033.055a2.821,2.821,0,0,0,.317.684c.133.308.554.167.647-.084a7.031,7.031,0,0,1,.32-.908,2.8,2.8,0,0,0,.445-.885c.087-.24.174-.475.237-.722a4.016,4.016,0,0,0,.1-.489c.111-.826-.074.526.044-.347A7.4,7.4,0,0,0,457.29,218.225Z" transform="translate(-119.154 -60.05)" fill="#fff"/>
        <path id="Path_94286" data-name="Path 94286" d="M464.572,241.831a10.644,10.644,0,0,0-.342-2.584c-.339-1.655-1.468-4.346-3.517-4.008-.031-.062-.063-.125-.095-.186a.216.216,0,0,0-.394.166c.022.063.043.125.063.188a2,2,0,0,0-.68.628q-.31.708-.09.235a1.473,1.473,0,0,0-.234.733,5.392,5.392,0,0,0-.007,1.457c.01.078.017.131.023.179.01.082.021.164.031.247.02.182.034.365.055.546.062.526.171,1.041.26,1.562a4.364,4.364,0,0,1,.087.555c-.039-.306-.047-.366-.025-.182q.046.37.1.739c.04.178.091.362.148.534a2.769,2.769,0,0,0,.286.636c.162.449.211.53.133.2.067.158.133.317.2.476a2.169,2.169,0,0,0,.616.736c.009.014.011.021.023.039a.808.808,0,0,0,.257.305,1.377,1.377,0,0,0,.158.117,1.883,1.883,0,0,0,.4.523.43.43,0,0,0,.5.065,2,2,0,0,0,.516-.594,1.7,1.7,0,0,0,.478-.58l.125-.085.3-.385c.063-.1.378-.942.178-.434A5.5,5.5,0,0,0,464.572,241.831Z" transform="translate(-120.826 -64.311)" fill="#fff"/>
        <g id="Group_184477" data-name="Group 184477" transform="translate(340.616 183.848)">
          <path id="Path_94287" data-name="Path 94287" d="M467.365,256.695a7.135,7.135,0,0,0-.444-2.471l-.065-.155c-.008-.016-.023-.049-.059-.132-.121-.277-.207-.455-.339-.7a2.907,2.907,0,0,0-.659-.857,1.656,1.656,0,0,0-.658-.53c-.015-.051-.03-.1-.045-.153a.448.448,0,0,0-.877.119c0,.053,0,.106,0,.16a1.754,1.754,0,0,0-.46.563,3.46,3.46,0,0,0-.53.946q-.066.19,0-.019c-.066.156-.132.311-.2.467s-.072.231,0,.026a13.19,13.19,0,0,0-.624,2.163c-.08.461-.156.913-.212,1.38-.008.061-.011.1-.014.125-.018.1-.038.2-.053.3a6.115,6.115,0,0,0-.055,2.326,3.478,3.478,0,0,0,.066.432c.031.233.034.234.008,0a3.5,3.5,0,0,0,.21.83,2.233,2.233,0,0,0,.23.629c.031.136.066.272.095.415a6.556,6.556,0,0,0,.117.716.407.407,0,0,0,.588.239,3.948,3.948,0,0,0,.611-.43c.143-.1.283-.194.419-.293a1.872,1.872,0,0,0,.655-.432,3.43,3.43,0,0,0,.716-.689c-.109.171-.1.166.035-.016a2.819,2.819,0,0,0,.331-.462,4.572,4.572,0,0,0,.926-2.008A11.191,11.191,0,0,0,467.365,256.695Z" transform="translate(-461.983 -251.387)" fill="#fff"/>
          <path id="Path_94288" data-name="Path 94288" d="M468.036,254.7c.03.065-.12-.284,0,0Z" transform="translate(-463.162 -252.015)" fill="#fff"/>
        </g>
        <g id="Group_184478" data-name="Group 184478" transform="translate(335.541 202.652)">
          <path id="Path_94289" data-name="Path 94289" d="M455.8,285.495c0-.008,0-.015,0-.023C455.8,285.486,455.8,285.494,455.8,285.495Z" transform="translate(-455.694 -276.885)" fill="#fff"/>
          <path id="Path_94290" data-name="Path 94290" d="M463.135,276.517q-.31-.753-.121-.27-.093-.253-.2-.5a1.443,1.443,0,0,0-.331-.376.939.939,0,0,0-.353-.335v0a.2.2,0,0,0-.387-.106l0,.008a.954.954,0,0,0-.4.08,1.36,1.36,0,0,0-.232.039l-.359.152c-.145.081-.147.095,0,.043q.387-.118-.338.157l-.376.29q-.23.187-.039.024.341-.29-.35.262a12.675,12.675,0,0,0-.858,1.038l-.023.03c.018-.021.032-.038.055-.062-.018.019-.039.045-.058.067-.119.155-.13.157-.063.073-.185.219-.4.5-.5.66a18.746,18.746,0,0,0-1.009,1.65q-.206.389-.427.771a5.039,5.039,0,0,0-.5,1.127,5.667,5.667,0,0,0-.394,1.61c.092-.951-.072.46-.089.45a2.235,2.235,0,0,0,.108.713c0,.017,0,.035,0,.052a2.17,2.17,0,0,0,0,.83c-.046.161-.163.339-.211.557a.389.389,0,0,0,.473.473c.185-.047.387-.223.566-.272a1.909,1.909,0,0,0,.9-.126c.066-.006.13-.017.193-.028a2.242,2.242,0,0,0,.765-.088,1.907,1.907,0,0,0,.664-.314q-.735.26.288-.146a4.505,4.505,0,0,0,.406-.255,3.172,3.172,0,0,0,.656-.536q-.72.547.273-.215a9.568,9.568,0,0,0,1.827-3.133,8.492,8.492,0,0,0,.638-2.907A4.763,4.763,0,0,0,463.135,276.517Z" transform="translate(-455.668 -274.787)" fill="#fff"/>
          <path id="Path_94291" data-name="Path 94291" d="M459.5,277.605c-.025.029-.05.057-.066.078.022-.026.042-.05.063-.073Z" transform="translate(-456.408 -275.34)" fill="#fff"/>
        </g>
        <path id="Path_94292" data-name="Path 94292" d="M449.018,295.644a3.792,3.792,0,0,0-1.045-.271,1.888,1.888,0,0,0-.732.144,1.753,1.753,0,0,0-.2.082l-.273.036a2.865,2.865,0,0,0-.669.3,14.1,14.1,0,0,0-1.347.81c-.587.411-1.112.9-1.671,1.35a4.617,4.617,0,0,0-1.453,1.666,7.444,7.444,0,0,0-.52.954c.275-.594-.015-.088-.089.04a2.134,2.134,0,0,0-.236.633c-.017.035-.029.072-.044.107a4.332,4.332,0,0,0-.309.612,2.688,2.688,0,0,0-.219.54.428.428,0,0,0,.19.469,1.16,1.16,0,0,0,.563.107,1.361,1.361,0,0,0,.69.114h0c.064.008.155.019.3.035.027,0,.053,0,.08-.006a2.033,2.033,0,0,0,.518.064,3.5,3.5,0,0,0,.492-.058,2.125,2.125,0,0,0,.657-.062.731.731,0,0,0,.125-.033,3.531,3.531,0,0,0,.428-.087,2.314,2.314,0,0,0,.664-.167c.23-.1.456-.2.681-.3a4.091,4.091,0,0,0,.7-.452,12.129,12.129,0,0,0,1.861-1.552,5.586,5.586,0,0,0,1.487-2.549q.081-.647.006.069l.072-.233a2.383,2.383,0,0,0,.138-.738C449.867,296.765,449.579,295.829,449.018,295.644Z" transform="translate(-117.089 -76.178)" fill="#fff"/>
        <path id="Path_94293" data-name="Path 94293" d="M433.743,307.9a1.047,1.047,0,0,1-.23.016.778.778,0,0,0-.322-.243,1.1,1.1,0,0,0-.238-.179c-.076-.04-.1-.05-.1-.046a4.993,4.993,0,0,0-.755-.322,4.886,4.886,0,0,0-1.37-.117c-1.229-.016-2.711.163-3.4,1.331a1.9,1.9,0,0,0,.673,2.564c1.193.682,2.564.1,3.637-.534a4.946,4.946,0,0,0,1.113-.77,2.2,2.2,0,0,0,.49-.673c-.006.019,0,.019.046-.035a.835.835,0,0,0,.148-.316.777.777,0,0,0,.158-.367,1.067,1.067,0,0,1,.209-.1A.108.108,0,0,0,433.743,307.9Z" transform="translate(-114.511 -78.464)" fill="#fff"/>
      </g>
    </g>
    <path id="Path_94294" data-name="Path 94294" d="M110.719,229.75a1.5,1.5,0,0,0-.354-.673,1.971,1.971,0,0,0-1.026-.708c-.05-.014-.1-.031-.147-.05l.1.041a2.04,2.04,0,0,0-.8-.169,2.794,2.794,0,0,0-.513.059c-.363.033-.724.058-1.094.111l.686-.092a8.208,8.208,0,0,1-.943.032c-.221,0-.437,0-.654-.01a6.934,6.934,0,0,0-1.2-.21l-.722.1a2.057,2.057,0,0,0-.925.486,2.593,2.593,0,0,0-.974,1.412,3.251,3.251,0,0,0,0,1.446,2.834,2.834,0,0,0,1.25,1.625,5.369,5.369,0,0,0,2.42.6,5.035,5.035,0,0,0,1.824-.175,9.821,9.821,0,0,0,1.092-.432,4.177,4.177,0,0,0,.95-.658,3.659,3.659,0,0,0,.416-.4,2.284,2.284,0,0,0,.587-1.007,4.274,4.274,0,0,0,.084-.644c.006-.054.011-.108.018-.162Z" transform="translate(-12.559 -40.356)" fill="#5691c9"/>
    <g id="Group_184481" data-name="Group 184481" transform="translate(105.816 114.745)">
      <path id="Path_94295" data-name="Path 94295" d="M131.136,140.794l0,0,.073.056Z" transform="translate(-124.085 -137.957)" fill="#5691c9"/>
      <path id="Path_94296" data-name="Path 94296" d="M130.506,141.759a1.688,1.688,0,0,0-.351-.747,2.9,2.9,0,0,0-.444-.64,2.764,2.764,0,0,0-.3-.269c-.239-.186-.48-.37-.72-.554-.188-.148-.368-.3-.546-.464a8.231,8.231,0,0,0-.759-.586c-.1-.087-.208-.173-.309-.263a3.153,3.153,0,0,0-1.32-.776,2.129,2.129,0,0,0-.347-.057,2.43,2.43,0,0,0-.722-.092,2.693,2.693,0,0,0-.55.03c-.019,0-.038,0-.057,0s-.026-.006-.039-.006-.018,0-.027,0a1.575,1.575,0,0,0-.317-.067.788.788,0,0,0-.777.611,1.05,1.05,0,0,0-.07.167c-.008.013-.016.025-.023.038a1.6,1.6,0,0,0-.183.37,2.42,2.42,0,0,0-.23.77,1.8,1.8,0,0,0-.055.484,4.172,4.172,0,0,0,.09.639,3.077,3.077,0,0,0,.758,1.639,5.96,5.96,0,0,0,.419.424,5.661,5.661,0,0,0,1.485,1.086,7.1,7.1,0,0,0,1.662.622,3.574,3.574,0,0,0,2.59-.253,1.726,1.726,0,0,0,.64-.408,2.849,2.849,0,0,0,.335-.441A1.774,1.774,0,0,0,130.506,141.759Z" transform="translate(-122.361 -137.264)" fill="#5691c9"/>
      <path id="Path_94297" data-name="Path 94297" d="M131.036,140.717c-.134-.108-.272-.211-.41-.316Z" transform="translate(-123.985 -137.88)" fill="#5691c9"/>
    </g>
    <path id="Path_94298" data-name="Path 94298" d="M236.93,56.178a3.829,3.829,0,0,0-.214-1.434c-.1-.322-.182-.657-.3-.971a10.48,10.48,0,0,1-.518-1.693,4.013,4.013,0,0,0-.391-1.929,2.578,2.578,0,0,0-3.268-1.263,3.083,3.083,0,0,0-1.8,2.911,9.934,9.934,0,0,0,.19,1.744,5.875,5.875,0,0,0,1.431,2.978,3.831,3.831,0,0,0,3.512,1.315A1.583,1.583,0,0,0,236.93,56.178Z" transform="translate(-37.77 -5.122)" fill="#5691c9"/>
    <path id="Path_94299" data-name="Path 94299" d="M278.693,47.114a2.157,2.157,0,0,0-2.027-.38,2.807,2.807,0,0,0-1.806,1.494l.056-.072a6.913,6.913,0,0,0-.644,1.489c-.114.322-.239.64-.37.955-.179.416-.36.833-.535,1.25q.137-.323.273-.648a7.623,7.623,0,0,0-.948,3.3l-.013-.095c0,.079,0,.157,0,.235a2.127,2.127,0,0,0,1.053,1.835,2.2,2.2,0,0,0,2.133,0l-.037.018q-.527.24.4-.163a4.392,4.392,0,0,0,.683-.554c.166-.153.337-.3.491-.468a7.376,7.376,0,0,0,1.156-1.8,19.842,19.842,0,0,0,.8-1.955c.086-.243.168-.487.243-.733.041-.132.088-.268.12-.4a3.051,3.051,0,0,0,.055-.987l.018.133A2.71,2.71,0,0,0,278.693,47.114Z" transform="translate(-46.067 -4.717)" fill="#5691c9"/>
    <path id="Path_94300" data-name="Path 94300" d="M311.546,72.346a1.626,1.626,0,0,0-.173-.777.541.541,0,0,0-.154-.624.551.551,0,0,0-.55-.059,1.643,1.643,0,0,0-.654-.141,2.586,2.586,0,0,0-2.047.344l-.039.015a3.25,3.25,0,0,0-.873.583c-.147.126-.293.255-.44.38a7.382,7.382,0,0,0-.759.793c-.24.272-.5.526-.741.8-.207.239-.37.507-.555.761a1.828,1.828,0,0,0-.292.663c-.012.027-.026.054-.038.082l-.027.064c.021-.056.026-.084-.037.032a1.465,1.465,0,0,0-.17.591.873.873,0,0,0-.038.8l.009.018a.688.688,0,0,0,.6.346.428.428,0,0,0,.17.059c.041.018.077.04.121.056a.894.894,0,0,0,.419.076l.1-.01q-.388-.065,0-.009a1.02,1.02,0,0,0,.3.026q-.386-.016.059.03a1.347,1.347,0,0,0,.711-.032,6.155,6.155,0,0,0,.654-.13,9.192,9.192,0,0,0,1.028-.434q.319-.141.636-.29a4.844,4.844,0,0,0,1.012-.634,4.156,4.156,0,0,0,1.265-1.3,2.966,2.966,0,0,0,.346-.593A2.507,2.507,0,0,0,311.546,72.346Z" transform="translate(-52.195 -9.438)" fill="#5691c9"/>
    <path id="Path_94301" data-name="Path 94301" d="M381.692,134.1l-.07-.031a3.5,3.5,0,0,0-2.779-.354,10.232,10.232,0,0,0-2.06.73,8.347,8.347,0,0,0-1.685,1l-.059.033c-.123.073-.249.153-.366.235a3.168,3.168,0,0,0-.849.835,1.934,1.934,0,0,0-.542.841,1.023,1.023,0,0,0,.577,1.566h0a1.951,1.951,0,0,0,.972.3,2.425,2.425,0,0,0,.834.13c.28,0,.554-.063.835-.063a10.345,10.345,0,0,0,2.115-.334,4.59,4.59,0,0,0,.771-.251c.418-.17.873-.317,1.27-.524a3.4,3.4,0,0,0,1.682-1.782A1.747,1.747,0,0,0,381.692,134.1Z" transform="translate(-65.795 -21.796)" fill="#5691c9"/>
    <path id="Path_94302" data-name="Path 94302" d="M410.473,219.692a1.972,1.972,0,0,0-1-1.532q.641.517-.2-.145l-.1-.068a3.075,3.075,0,0,0-1.487-.353,6.241,6.241,0,0,0-1.49.246,16.854,16.854,0,0,0-2.015.5,19.149,19.149,0,0,0-2.192.926c-.14.071-.288.134-.422.215-.153.092-.732.581-.373.3a2.8,2.8,0,0,0-.871.955,1.138,1.138,0,0,0,.333,1.674,3.383,3.383,0,0,0,.409.286,1.626,1.626,0,0,0,.535.2l-.162-.1a3.115,3.115,0,0,0,1.594.329,14.544,14.544,0,0,0,2.041,0,23.486,23.486,0,0,0,2.469-.395,3.463,3.463,0,0,0,2.558-1.53A2.05,2.05,0,0,0,410.473,219.692Z" transform="translate(-71.092 -38.295)" fill="#5691c9"/>
    <path id="Path_94303" data-name="Path 94303" d="M118.524,317.464l-.012-.029a1.245,1.245,0,0,0-.082-.517,1.625,1.625,0,0,0-.452-.91c-.019-.019-.038-.031-.056-.047a1.61,1.61,0,0,0-.944-.592,3.051,3.051,0,0,0-2.608.293,4.494,4.494,0,0,0-.939.613,6.5,6.5,0,0,1-.544.36c-.194.112-.4.239-.6.332l.111-.047a2.262,2.262,0,0,0-.667.456,1.471,1.471,0,0,0-.5.528,1.9,1.9,0,0,0-.248.933,1.77,1.77,0,0,0,.035.2,2.56,2.56,0,0,0,.694,1.646,2.693,2.693,0,0,0,1.263.69,3.391,3.391,0,0,0,2.54-.4,6.243,6.243,0,0,0,1.159-.941,6.557,6.557,0,0,0,.647-.777,2.081,2.081,0,0,1,.183-.2,2.6,2.6,0,0,0,.477-.583c.029-.035.053-.076.08-.115a.728.728,0,0,0,.121-.045A.747.747,0,0,0,118.524,317.464Z" transform="translate(-14.31 -57.461)" fill="#5691c9"/>
    <path id="Path_94304" data-name="Path 94304" d="M390.129,326.761A5.152,5.152,0,0,0,387.351,324a18.118,18.118,0,0,0-2.486-1.163,6.829,6.829,0,0,0-2.5-.573,5.369,5.369,0,0,0-1.389.209,2.12,2.12,0,0,0-1.608,1.875,2.882,2.882,0,0,0,.27,1.414l-.065-.155c.074.183.147.358.223.53l.04.095-.039-.091a3.886,3.886,0,0,0,.7,1.119c.19.2.392.4.589.593a16.421,16.421,0,0,0,1.783,1.475c1.389,1.045,3.089,2.186,4.826,1.733a3.3,3.3,0,0,0,.633-.189,3.125,3.125,0,0,0,1.563-1.337,3.881,3.881,0,0,0,.446-1.65A2.638,2.638,0,0,0,390.129,326.761Z" transform="translate(-67.02 -58.853)" fill="#5691c9"/>
  </g>
</svg>
