<svg xmlns="http://www.w3.org/2000/svg" width="570" height="330.527" viewBox="0 0 570 330.527">
  <g id="Hybrid_App_section_1" transform="translate(-815 -928.663)">
    <g id="Group_303825" data-name="Group 303825" transform="translate(62)">
      <g id="Group_303824" data-name="Group 303824" transform="translate(795.194 842.27)">
        <g id="Background_Complete" data-name="Background Complete" transform="translate(0 86.731)">
          <g id="Group_303727" data-name="Group 303727" transform="translate(0 303.962)">
            <rect id="Rectangle_163051" data-name="Rectangle 163051" width="8.937" height="0.257" transform="translate(331.575 19.337)" fill="#ebebeb"/>
            <rect id="Rectangle_163054" data-name="Rectangle 163054" width="6.511" height="0.257" transform="translate(107.489 8.728)" fill="#ebebeb"/>
          </g>
          <g id="Group_303738" data-name="Group 303738" transform="translate(-27.194 230.908)">
            <g id="Group_303734" data-name="Group 303734" transform="translate(0 0)">
              <path id="Path_136107" data-name="Path 136107" d="M77.849,301.144c-.088.1.4.774-1.574.478-4.855-.73-13.308-2.7-15.662-7.692-3.361-7.132,7.059-4.529,6.7-8.174S55.1,282.747,53.837,277.4s6.783-2.8,6.89-5.407-9.159-.988-11-6.757,5.164-1.522,4.359-3.921-8.644-13.248-4.378-14.508,11.45,9.874,14.223,11.452,5.236-7.51,8.541-3.673-1.937,17.261,2.279,19.866c3.139,1.94,2.252-3.4,6.4-2.407C86.778,273.4,84.885,293.275,77.849,301.144Z" transform="translate(-48.447 -246.707)" fill="#60a6df"/>
              <path id="Path_136108" data-name="Path 136108" d="M68.374,277.015a16.639,16.639,0,0,1,4.2.861,31.65,31.65,0,0,0-2.986-3.835.36.36,0,0,1,.512-.506,42.335,42.335,0,0,1,5.98,8.675,32.032,32.032,0,0,0-2.367-17.323.27.27,0,0,1,.485-.237,32.456,32.456,0,0,1,2.291,18.321c.5.947,1,1.959,1.491,3.047a67.978,67.978,0,0,1,4.1,12.023,24.7,24.7,0,0,0,2.866-10.98.27.27,0,0,1,.539.017A24.821,24.821,0,0,1,82.263,298.8a83.837,83.837,0,0,1,1.827,24.788.361.361,0,0,1-.384.335l-.045-.006a.358.358,0,0,1-.289-.377,79.278,79.278,0,0,0-3.719-31.19,9.882,9.882,0,0,0-5.74-3.275.283.283,0,0,1-.224-.309.27.27,0,0,1,.308-.225,10.153,10.153,0,0,1,5.236,2.6A60.135,60.135,0,0,0,73.1,278.672a14.845,14.845,0,0,0-4.771-1.119.275.275,0,0,1-.246-.292A.269.269,0,0,1,68.374,277.015Z" transform="translate(-53.956 -251.7)" fill="#1978a7"/>
            </g>
            <g id="Group_303737" data-name="Group 303737" transform="translate(32.738 14.061)">
              <g id="Group_303736" data-name="Group 303736" transform="translate(0.042)">
                <path id="Path_136109" data-name="Path 136109" d="M96.855,309.383c4.034.076,10.925-3.67,13.63-7.315,2.745-3.7-4.977-1.4-4.183-4.308s10.313-.758,12.07-4.918-5.112-3.2-4.839-5.329,7.389-1.695,9.673-6.116-3.975-1.945-2.993-3.778,8.828-9.546,5.545-11.154-10.639,6.426-13.1,7.322-3.04-4.652-6.247-2-.806,14.254-4.581,15.785c-2.811,1.14-1.615-4.172-4.852-2.831C91.31,287.09,95.217,309.352,96.855,309.383Z" transform="translate(-94.013 -266.253)" fill="#3890d8"/>
                <g id="Group_303735" data-name="Group 303735" opacity="0.3">
                  <path id="Path_136110" data-name="Path 136110" d="M96.855,309.383c4.034.076,10.925-3.67,13.63-7.315,2.745-3.7-4.977-1.4-4.183-4.308s10.313-.758,12.07-4.918-5.112-3.2-4.839-5.329,7.389-1.695,9.673-6.116-3.975-1.945-2.993-3.778,8.828-9.546,5.545-11.154-10.639,6.426-13.1,7.322-3.04-4.652-6.247-2-.806,14.254-4.581,15.785c-2.811,1.14-1.615-4.172-4.852-2.831C91.31,287.09,95.217,309.352,96.855,309.383Z" transform="translate(-94.013 -266.253)" fill="#3890d8"/>
                </g>
              </g>
              <path id="Path_136111" data-name="Path 136111" d="M98.171,307.945a.255.255,0,0,1-.142-.118,21.223,21.223,0,0,1-1.81-10.815.27.27,0,1,1,.538.042,21.562,21.562,0,0,0,1.633,10.278,82.769,82.769,0,0,1,6.144-13,28.41,28.41,0,0,1,3.77-15.828.27.27,0,1,1,.455.29,28.024,28.024,0,0,0-3.739,14.7,75.593,75.593,0,0,1,10.318-13.792.36.36,0,0,1,.5.514,70.1,70.1,0,0,0-7.874,9.956,21.123,21.123,0,0,1,7.628-1.343.27.27,0,0,1-.006.54h-.005a20.7,20.7,0,0,0-8.135,1.584,85.863,85.863,0,0,0-4.391,7.549,9.122,9.122,0,0,1,7.526-1.326.27.27,0,0,1,.192.33.267.267,0,0,1-.329.192,8.7,8.7,0,0,0-7.955,1.924,73.058,73.058,0,0,0-7.82,29.577.359.359,0,0,1-.359.346H94.3a.36.36,0,0,1-.345-.374A70.988,70.988,0,0,1,98.171,307.945Z" transform="translate(-93.955 -269.657)" fill="#1978a7"/>
            </g>
            <path id="Path_136112" data-name="Path 136112" d="M79.7,368.471c-3.851-7.241-6.38-17.7-6.38-22.288a12.8,12.8,0,0,1,4.7-9.791h19.72a12.806,12.806,0,0,1,4.7,9.791c0,4.585-2.53,15.048-6.381,22.288Z" transform="translate(-55.427 -271.872)" fill="#284f63"/>
          </g>
          <g id="Group_304537" data-name="Group 304537" transform="translate(458.806 232.91)">
            <g id="Group_303734-2" data-name="Group 303734" transform="translate(0 0)">
              <path id="Path_136107-2" data-name="Path 136107" d="M77.849,301.144c-.088.1.4.774-1.574.478-4.855-.73-13.308-2.7-15.662-7.692-3.361-7.132,7.059-4.529,6.7-8.174S55.1,282.747,53.837,277.4s6.783-2.8,6.89-5.407-9.159-.988-11-6.757,5.164-1.522,4.359-3.921-8.644-13.248-4.378-14.508,11.45,9.874,14.223,11.452,5.236-7.51,8.541-3.673-1.937,17.261,2.279,19.866c3.139,1.94,2.252-3.4,6.4-2.407C86.778,273.4,84.885,293.275,77.849,301.144Z" transform="translate(-48.447 -246.707)" fill="#60a6df"/>
              <path id="Path_136108-2" data-name="Path 136108" d="M68.374,277.015a16.639,16.639,0,0,1,4.2.861,31.65,31.65,0,0,0-2.986-3.835.36.36,0,0,1,.512-.506,42.335,42.335,0,0,1,5.98,8.675,32.032,32.032,0,0,0-2.367-17.323.27.27,0,0,1,.485-.237,32.456,32.456,0,0,1,2.291,18.321c.5.947,1,1.959,1.491,3.047a67.978,67.978,0,0,1,4.1,12.023,24.7,24.7,0,0,0,2.866-10.98.27.27,0,0,1,.539.017A24.821,24.821,0,0,1,82.263,298.8a83.837,83.837,0,0,1,1.827,24.788.361.361,0,0,1-.384.335l-.045-.006a.358.358,0,0,1-.289-.377,79.278,79.278,0,0,0-3.719-31.19,9.882,9.882,0,0,0-5.74-3.275.283.283,0,0,1-.224-.309.27.27,0,0,1,.308-.225,10.153,10.153,0,0,1,5.236,2.6A60.135,60.135,0,0,0,73.1,278.672a14.845,14.845,0,0,0-4.771-1.119.275.275,0,0,1-.246-.292A.269.269,0,0,1,68.374,277.015Z" transform="translate(-53.956 -251.7)" fill="#1978a7"/>
            </g>
            <g id="Group_303737-2" data-name="Group 303737" transform="translate(32.738 14.061)">
              <g id="Group_303736-2" data-name="Group 303736" transform="translate(0.042)">
                <path id="Path_136109-2" data-name="Path 136109" d="M96.855,309.383c4.034.076,10.925-3.67,13.63-7.315,2.745-3.7-4.977-1.4-4.183-4.308s10.313-.758,12.07-4.918-5.112-3.2-4.839-5.329,7.389-1.695,9.673-6.116-3.975-1.945-2.993-3.778,8.828-9.546,5.545-11.154-10.639,6.426-13.1,7.322-3.04-4.652-6.247-2-.806,14.254-4.581,15.785c-2.811,1.14-1.615-4.172-4.852-2.831C91.31,287.09,95.217,309.352,96.855,309.383Z" transform="translate(-94.013 -266.253)" fill="#3890d8"/>
                <g id="Group_303735-2" data-name="Group 303735" opacity="0.3">
                  <path id="Path_136110-2" data-name="Path 136110" d="M96.855,309.383c4.034.076,10.925-3.67,13.63-7.315,2.745-3.7-4.977-1.4-4.183-4.308s10.313-.758,12.07-4.918-5.112-3.2-4.839-5.329,7.389-1.695,9.673-6.116-3.975-1.945-2.993-3.778,8.828-9.546,5.545-11.154-10.639,6.426-13.1,7.322-3.04-4.652-6.247-2-.806,14.254-4.581,15.785c-2.811,1.14-1.615-4.172-4.852-2.831C91.31,287.09,95.217,309.352,96.855,309.383Z" transform="translate(-94.013 -266.253)" fill="#3890d8"/>
                </g>
              </g>
              <path id="Path_136111-2" data-name="Path 136111" d="M98.171,307.945a.255.255,0,0,1-.142-.118,21.223,21.223,0,0,1-1.81-10.815.27.27,0,1,1,.538.042,21.562,21.562,0,0,0,1.633,10.278,82.769,82.769,0,0,1,6.144-13,28.41,28.41,0,0,1,3.77-15.828.27.27,0,1,1,.455.29,28.024,28.024,0,0,0-3.739,14.7,75.593,75.593,0,0,1,10.318-13.792.36.36,0,0,1,.5.514,70.1,70.1,0,0,0-7.874,9.956,21.123,21.123,0,0,1,7.628-1.343.27.27,0,0,1-.006.54h-.005a20.7,20.7,0,0,0-8.135,1.584,85.863,85.863,0,0,0-4.391,7.549,9.122,9.122,0,0,1,7.526-1.326.27.27,0,0,1,.192.33.267.267,0,0,1-.329.192,8.7,8.7,0,0,0-7.955,1.924,73.058,73.058,0,0,0-7.82,29.577.359.359,0,0,1-.359.346H94.3a.36.36,0,0,1-.345-.374A70.988,70.988,0,0,1,98.171,307.945Z" transform="translate(-93.955 -269.657)" fill="#1978a7"/>
            </g>
            <path id="Path_136112-2" data-name="Path 136112" d="M79.7,368.471c-3.851-7.241-6.38-17.7-6.38-22.288a12.8,12.8,0,0,1,4.7-9.791h19.72a12.806,12.806,0,0,1,4.7,9.791c0,4.585-2.53,15.048-6.381,22.288Z" transform="translate(-55.427 -271.872)" fill="#284f63"/>
          </g>
        </g>
        <g id="Screen" transform="translate(169.918 120.564)">
          <g id="Group_303760" data-name="Group 303760">
            <g id="Group_303739" data-name="Group 303739">
              <path id="Path_136113" data-name="Path 136113" d="M296.225,119.641H271.569a3.578,3.578,0,0,0-3.428,2.8l-.167.772a8.74,8.74,0,0,1-8.37,6.843H236.164a7.039,7.039,0,0,1-7.174-6.843l-.031-.772a2.881,2.881,0,0,0-2.937-2.8H201.367a16.576,16.576,0,0,0-16.192,14.889L165.339,361.255a13.425,13.425,0,0,0,13.587,14.889h94.86a16.576,16.576,0,0,0,16.192-14.889L309.812,134.53A13.425,13.425,0,0,0,296.225,119.641Z" transform="translate(-165.281 -119.641)" fill="#407bff"/>
              <path id="Path_136114" data-name="Path 136114" d="M296.225,119.641H271.569a3.578,3.578,0,0,0-3.428,2.8l-.167.772a8.74,8.74,0,0,1-8.37,6.843H236.164a7.039,7.039,0,0,1-7.174-6.843l-.031-.772a2.881,2.881,0,0,0-2.937-2.8H201.367a16.576,16.576,0,0,0-16.192,14.889L165.339,361.255a13.425,13.425,0,0,0,13.587,14.889h94.86a16.576,16.576,0,0,0,16.192-14.889L309.812,134.53A13.425,13.425,0,0,0,296.225,119.641Z" transform="translate(-165.281 -119.641)" fill="#c9e4f9"/>
            </g>
            <path id="Path_136115" data-name="Path 136115" d="M284.757,222.439h-50.37a2.984,2.984,0,0,1-3.019-3.308l3.795-43.373a3.684,3.684,0,0,1,3.6-3.308h50.37a2.983,2.983,0,0,1,3.019,3.308l-3.795,43.373A3.684,3.684,0,0,1,284.757,222.439Z" transform="translate(-163.427 -118.159)" fill="#fff"/>
            <path id="Path_136116" data-name="Path 136116" d="M269.491,353.443H185.2a7.409,7.409,0,0,1-7.5-8.217h0a9.146,9.146,0,0,1,8.935-8.216h84.287a7.409,7.409,0,0,1,7.5,8.216h0A9.147,9.147,0,0,1,269.491,353.443Z" transform="translate(-164.933 -113.543)" fill="#fff"/>
            <g id="Group_303741" data-name="Group 303741" transform="translate(29.722 25.934)">
              <path id="Path_136117" data-name="Path 136117" d="M275.76,161.3H198.418a4.159,4.159,0,0,1-4.209-4.613l.63-7.207a5.136,5.136,0,0,1,5.017-4.613H277.2a4.159,4.159,0,0,1,4.21,4.613l-.63,7.207A5.136,5.136,0,0,1,275.76,161.3Z" transform="translate(-194.192 -144.867)" fill="#fff"/>
              <g id="Group_303740" data-name="Group 303740" transform="translate(94.049 3.093)">
                <path id="Path_136118" data-name="Path 136118" d="M288.9,149.16a1.429,1.429,0,0,1-1.4,1.283,1.156,1.156,0,0,1-1.171-1.283,1.429,1.429,0,0,1,1.4-1.284A1.157,1.157,0,0,1,288.9,149.16Z" transform="translate(-285.656 -147.876)" fill="#fff"/>
                <path id="Path_136119" data-name="Path 136119" d="M288.574,152.894a1.43,1.43,0,0,1-1.4,1.284,1.157,1.157,0,0,1-1.172-1.284,1.429,1.429,0,0,1,1.4-1.284A1.158,1.158,0,0,1,288.574,152.894Z" transform="translate(-285.665 -147.771)" fill="#fff"/>
                <path id="Path_136120" data-name="Path 136120" d="M288.247,156.629a1.429,1.429,0,0,1-1.4,1.284,1.158,1.158,0,0,1-1.172-1.284,1.429,1.429,0,0,1,1.4-1.284A1.158,1.158,0,0,1,288.247,156.629Z" transform="translate(-285.674 -147.666)" fill="#fff"/>
              </g>
            </g>
            <path id="Path_136121" data-name="Path 136121" d="M279.861,292.212h-94.1a2.983,2.983,0,0,1-3.019-3.308l4.331-49.506a3.684,3.684,0,0,1,3.6-3.309h94.1a2.983,2.983,0,0,1,3.019,3.309L283.459,288.9A3.683,3.683,0,0,1,279.861,292.212Z" transform="translate(-164.791 -116.374)" fill="#fff"/>
            <g id="Group_303752" data-name="Group 303752" transform="translate(14.323 184.567)">
              <g id="Group_303742" data-name="Group 303742" transform="translate(2.498)">
                <path id="Path_136122" data-name="Path 136122" d="M211.679,300.787h-29.3a.729.729,0,0,1-.737-.808h0a.9.9,0,0,1,.879-.808h29.3a.729.729,0,0,1,.737.808h0A.9.9,0,0,1,211.679,300.787Z" transform="translate(-181.643 -299.171)" fill="#fff"/>
              </g>
              <g id="Group_303743" data-name="Group 303743" transform="translate(36.961)">
                <path id="Path_136123" data-name="Path 136123" d="M247.356,300.787h-31.45a.729.729,0,0,1-.738-.808h0a.9.9,0,0,1,.879-.808H247.5a.729.729,0,0,1,.737.808h0A.9.9,0,0,1,247.356,300.787Z" transform="translate(-215.165 -299.171)" fill="#fff"/>
              </g>
              <g id="Group_303744" data-name="Group 303744" transform="translate(1.873 7.139)">
                <path id="Path_136124" data-name="Path 136124" d="M201.594,307.731H181.776a.729.729,0,0,1-.738-.808h0a.9.9,0,0,1,.879-.808h19.819a.729.729,0,0,1,.737.808h0A.9.9,0,0,1,201.594,307.731Z" transform="translate(-181.035 -306.115)" fill="#fff"/>
              </g>
              <g id="Group_303745" data-name="Group 303745" transform="translate(26.858 7.139)">
                <path id="Path_136125" data-name="Path 136125" d="M238.543,307.731H206.079a.729.729,0,0,1-.738-.808h0a.9.9,0,0,1,.879-.808h32.464a.729.729,0,0,1,.738.808h0A.9.9,0,0,1,238.543,307.731Z" transform="translate(-205.338 -306.115)" fill="#fff"/>
              </g>
              <g id="Group_303746" data-name="Group 303746" transform="translate(1.249 14.278)">
                <path id="Path_136126" data-name="Path 136126" d="M234,314.675H181.168a.728.728,0,0,1-.737-.808h0a.9.9,0,0,1,.879-.808h52.834a.729.729,0,0,1,.737.808h0A.9.9,0,0,1,234,314.675Z" transform="translate(-180.428 -313.059)" fill="#fff"/>
              </g>
              <g id="Group_303747" data-name="Group 303747" transform="translate(59.25 14.278)">
                <path id="Path_136127" data-name="Path 136127" d="M241.075,314.675h-3.488a.728.728,0,0,1-.738-.808h0a.9.9,0,0,1,.879-.808h3.488a.729.729,0,0,1,.738.808h0A.9.9,0,0,1,241.075,314.675Z" transform="translate(-236.846 -313.059)" fill="#fff"/>
              </g>
              <g id="Group_303748" data-name="Group 303748" transform="translate(0.624 21.417)">
                <path id="Path_136128" data-name="Path 136128" d="M205.228,321.62H180.561a.728.728,0,0,1-.738-.808h0A.9.9,0,0,1,180.7,320h24.667a.729.729,0,0,1,.738.808h0A.9.9,0,0,1,205.228,321.62Z" transform="translate(-179.82 -320.004)" fill="#fff"/>
              </g>
              <g id="Group_303749" data-name="Group 303749" transform="translate(30.458 21.417)">
                <path id="Path_136129" data-name="Path 136129" d="M240.293,321.62H209.581a.728.728,0,0,1-.738-.808h0a.9.9,0,0,1,.879-.808h30.713a.729.729,0,0,1,.737.808h0A.9.9,0,0,1,240.293,321.62Z" transform="translate(-208.84 -320.004)" fill="#fff"/>
              </g>
              <g id="Group_303750" data-name="Group 303750" transform="translate(0 28.556)">
                <path id="Path_136130" data-name="Path 136130" d="M210.326,328.565H179.953a.729.729,0,0,1-.737-.808h0a.9.9,0,0,1,.879-.809h30.373a.729.729,0,0,1,.737.809h0A.9.9,0,0,1,210.326,328.565Z" transform="translate(-179.213 -326.948)" fill="#fff"/>
              </g>
              <g id="Group_303751" data-name="Group 303751" transform="translate(35.54 28.556)">
                <path id="Path_136131" data-name="Path 136131" d="M238.992,328.565H214.524a.729.729,0,0,1-.738-.808h0a.9.9,0,0,1,.879-.809h24.468a.73.73,0,0,1,.738.809h0A.9.9,0,0,1,238.992,328.565Z" transform="translate(-213.783 -326.948)" fill="#fff"/>
              </g>
            </g>
            <g id="Group_303759" data-name="Group 303759" transform="translate(72.676 58.184)">
              <g id="Group_303753" data-name="Group 303753" transform="translate(3.639 0.128)">
                <path id="Path_136132" data-name="Path 136132" d="M283.332,218.224a1.04,1.04,0,0,1-1.459.093L239.8,178.162a1.023,1.023,0,0,1,.035-1.452h0a1.041,1.041,0,0,1,1.459-.092l42.074,40.154a1.024,1.024,0,0,1-.035,1.452Z" transform="translate(-239.513 -176.362)" fill="#407bff"/>
              </g>
              <g id="Group_303754" data-name="Group 303754" transform="translate(0 22.715)">
                <path id="Path_136133" data-name="Path 136133" d="M236.174,217.592h0a1.05,1.05,0,0,1,.219-1.451l21.462-17.552a1.014,1.014,0,0,1,1.443.093h0a1.049,1.049,0,0,1-.219,1.451l-21.462,17.552A1.014,1.014,0,0,1,236.174,217.592Z" transform="translate(-235.973 -198.332)" fill="#407bff"/>
              </g>
              <g id="Group_303755" data-name="Group 303755" transform="translate(27.736)">
                <path id="Path_136134" data-name="Path 136134" d="M263.154,195.529h0a1.049,1.049,0,0,1,.219-1.451l21.5-17.585a1.014,1.014,0,0,1,1.443.093h0a1.05,1.05,0,0,1-.219,1.451l-21.5,17.585A1.014,1.014,0,0,1,263.154,195.529Z" transform="translate(-262.952 -176.237)" fill="#407bff"/>
              </g>
              <g id="Group_303756" data-name="Group 303756" transform="translate(3.639 0.128)" opacity="0.7">
                <path id="Path_136135" data-name="Path 136135" d="M283.332,218.224a1.04,1.04,0,0,1-1.459.093L239.8,178.162a1.023,1.023,0,0,1,.035-1.452h0a1.041,1.041,0,0,1,1.459-.092l42.074,40.154a1.024,1.024,0,0,1-.035,1.452Z" transform="translate(-239.513 -176.362)" fill="#fff"/>
              </g>
              <g id="Group_303757" data-name="Group 303757" transform="translate(0 22.715)" opacity="0.7">
                <path id="Path_136136" data-name="Path 136136" d="M236.174,217.592h0a1.05,1.05,0,0,1,.219-1.451l21.462-17.552a1.014,1.014,0,0,1,1.443.093h0a1.049,1.049,0,0,1-.219,1.451l-21.462,17.552A1.014,1.014,0,0,1,236.174,217.592Z" transform="translate(-235.973 -198.332)" fill="#fff"/>
              </g>
              <g id="Group_303758" data-name="Group 303758" transform="translate(27.736)" opacity="0.7">
                <path id="Path_136137" data-name="Path 136137" d="M263.154,195.529h0a1.049,1.049,0,0,1,.219-1.451l21.5-17.585a1.014,1.014,0,0,1,1.443.093h0a1.05,1.05,0,0,1-.219,1.451l-21.5,17.585A1.014,1.014,0,0,1,263.154,195.529Z" transform="translate(-262.952 -176.237)" fill="#fff"/>
              </g>
            </g>
          </g>
        </g>
        <g id="Icons" transform="translate(106.311 115.634)">
          <g id="Group_303764" data-name="Group 303764" transform="translate(-33 -1.234)">
            <g id="Group_303762" data-name="Group 303762">
              <path id="Path_136140" data-name="Path 136140" d="M120.114,168.117H110a6.586,6.586,0,0,0-6.586,6.586v10.118A6.586,6.586,0,0,0,110,191.407h10.118a6.586,6.586,0,0,0,6.587-6.586V174.7A6.586,6.586,0,0,0,120.114,168.117Zm-5.059,17.166s-4.156-4.521-4.156-6.817a4.157,4.157,0,1,1,8.314,0C119.212,180.762,115.055,185.283,115.055,185.283Z" transform="translate(-103.41 -168.117)" fill="#a7d3f6"/>
              <path id="Path_136141" data-name="Path 136141" d="M114.789,176.339a1.9,1.9,0,1,0,1.9,1.9A1.9,1.9,0,0,0,114.789,176.339Z" transform="translate(-103.144 -167.886)" fill="#a7d3f6"/>
            </g>
            <g id="Group_303763" data-name="Group 303763" opacity="0.7">
              <path id="Path_136142" data-name="Path 136142" d="M120.114,168.117H110a6.586,6.586,0,0,0-6.586,6.586v10.118A6.586,6.586,0,0,0,110,191.407h10.118a6.586,6.586,0,0,0,6.587-6.586V174.7A6.586,6.586,0,0,0,120.114,168.117Zm-5.059,17.166s-4.156-4.521-4.156-6.817a4.157,4.157,0,1,1,8.314,0C119.212,180.762,115.055,185.283,115.055,185.283Z" transform="translate(-103.41 -168.117)" fill="#a7d3f6"/>
              <path id="Path_136143" data-name="Path 136143" d="M114.789,176.339a1.9,1.9,0,1,0,1.9,1.9A1.9,1.9,0,0,0,114.789,176.339Z" transform="translate(-103.144 -167.886)" fill="#a7d3f6"/>
            </g>
          </g>
          <g id="Group_303767" data-name="Group 303767" transform="translate(228.125 -29.241)">
            <g id="Group_303765" data-name="Group 303765">
              <path id="Path_136144" data-name="Path 136144" d="M335.7,140.473l6.776-4.386L335.7,131.7Z" transform="translate(-326.019 -124.131)" fill="#a7d3f6"/>
              <path id="Path_136145" data-name="Path 136145" d="M344.693,124.338H331.784a5.5,5.5,0,0,0-5.5,5.5v12.909a5.5,5.5,0,0,0,5.5,5.5h12.909a5.5,5.5,0,0,0,5.5-5.5V129.839A5.5,5.5,0,0,0,344.693,124.338Zm-6.454,20.555a8.6,8.6,0,1,1,8.6-8.6A8.6,8.6,0,0,1,338.239,144.893Z" transform="translate(-326.283 -124.338)" fill="#a7d3f6"/>
            </g>
            <g id="Group_303766" data-name="Group 303766" opacity="0.7">
              <path id="Path_136146" data-name="Path 136146" d="M335.7,140.473l6.776-4.386L335.7,131.7Z" transform="translate(-326.019 -124.131)" fill="#a7d3f6"/>
              <path id="Path_136147" data-name="Path 136147" d="M344.693,124.338H331.784a5.5,5.5,0,0,0-5.5,5.5v12.909a5.5,5.5,0,0,0,5.5,5.5h12.909a5.5,5.5,0,0,0,5.5-5.5V129.839A5.5,5.5,0,0,0,344.693,124.338Zm-6.454,20.555a8.6,8.6,0,1,1,8.6-8.6A8.6,8.6,0,0,1,338.239,144.893Z" transform="translate(-326.283 -124.338)" fill="#a7d3f6"/>
            </g>
          </g>
        </g>
        <g id="Gears" transform="translate(314.027 164.443)">
          <g id="Group_303768" data-name="Group 303768" transform="translate(67.059 -36)">
            <path id="Path_136148" data-name="Path 136148" d="M357.048,172.8c0-.267-.014-.53-.037-.792l1.551-.863a10.488,10.488,0,0,0-.577-2.152l-1.772.03a8.891,8.891,0,0,0-.794-1.371l.912-1.519a10.625,10.625,0,0,0-1.576-1.576l-1.521.911a8.964,8.964,0,0,0-1.37-.793l.029-1.772a10.518,10.518,0,0,0-2.152-.578l-.862,1.552c-.261-.024-.524-.037-.792-.037s-.53.013-.792.037l-.861-1.552a10.519,10.519,0,0,0-2.152.578l.029,1.772a8.965,8.965,0,0,0-1.37.793l-1.52-.911a10.625,10.625,0,0,0-1.576,1.576l.912,1.519a8.9,8.9,0,0,0-.794,1.371l-1.772-.03a10.49,10.49,0,0,0-.577,2.152l1.551.863c-.023.261-.037.524-.037.792s.014.53.037.792l-1.551.862a10.455,10.455,0,0,0,.577,2.152l1.772-.029a8.937,8.937,0,0,0,.794,1.37l-.912,1.521a10.674,10.674,0,0,0,1.576,1.576l1.52-.912a8.885,8.885,0,0,0,1.37.794l-.029,1.772a10.453,10.453,0,0,0,2.152.577l.861-1.551c.261.023.524.037.792.037s.53-.014.792-.037l.862,1.551a10.452,10.452,0,0,0,2.152-.577l-.029-1.772a8.885,8.885,0,0,0,1.37-.794l1.521.912a10.674,10.674,0,0,0,1.576-1.576l-.912-1.521a8.93,8.93,0,0,0,.794-1.37l1.772.029a10.453,10.453,0,0,0,.577-2.152l-1.551-.862C357.034,173.327,357.048,173.063,357.048,172.8Zm-8.96,6.082a6.082,6.082,0,1,1,6.082-6.082A6.082,6.082,0,0,1,348.089,178.879Z" transform="translate(-337.615 -162.322)" fill="#a7d3f6"/>
            <path id="Path_136149" data-name="Path 136149" d="M357.048,172.8c0-.267-.014-.53-.037-.792l1.551-.863a10.488,10.488,0,0,0-.577-2.152l-1.772.03a8.891,8.891,0,0,0-.794-1.371l.912-1.519a10.625,10.625,0,0,0-1.576-1.576l-1.521.911a8.964,8.964,0,0,0-1.37-.793l.029-1.772a10.518,10.518,0,0,0-2.152-.578l-.862,1.552c-.261-.024-.524-.037-.792-.037s-.53.013-.792.037l-.861-1.552a10.519,10.519,0,0,0-2.152.578l.029,1.772a8.965,8.965,0,0,0-1.37.793l-1.52-.911a10.625,10.625,0,0,0-1.576,1.576l.912,1.519a8.9,8.9,0,0,0-.794,1.371l-1.772-.03a10.49,10.49,0,0,0-.577,2.152l1.551.863c-.023.261-.037.524-.037.792s.014.53.037.792l-1.551.862a10.455,10.455,0,0,0,.577,2.152l1.772-.029a8.937,8.937,0,0,0,.794,1.37l-.912,1.521a10.674,10.674,0,0,0,1.576,1.576l1.52-.912a8.885,8.885,0,0,0,1.37.794l-.029,1.772a10.453,10.453,0,0,0,2.152.577l.861-1.551c.261.023.524.037.792.037s.53-.014.792-.037l.862,1.551a10.452,10.452,0,0,0,2.152-.577l-.029-1.772a8.885,8.885,0,0,0,1.37-.794l1.521.912a10.674,10.674,0,0,0,1.576-1.576l-.912-1.521a8.93,8.93,0,0,0,.794-1.37l1.772.029a10.453,10.453,0,0,0,.577-2.152l-1.551-.862C357.034,173.327,357.048,173.063,357.048,172.8Zm-8.96,6.082a6.082,6.082,0,1,1,6.082-6.082A6.082,6.082,0,0,1,348.089,178.879Z" transform="translate(-337.615 -162.322)" fill="#a7d3f6" opacity="0.7"/>
          </g>
        </g>
        <g id="Speech_bubbles" data-name="Speech bubbles" transform="translate(198.224 114.682)">
          <g id="Group_303771" data-name="Group 303771" transform="translate(103.283 54.017)">
            <path id="Path_136152" data-name="Path 136152" d="M297.125,145.492v28.3a3.349,3.349,0,0,0,3.35,3.348h28.3a3.349,3.349,0,0,0,3.35-3.348v-28.3a3.35,3.35,0,0,0-3.35-3.348h-28.3A3.35,3.35,0,0,0,297.125,145.492Z" transform="translate(-268.334 -154.144)" fill="#0271a6"/>
          </g>
          <g id="Group_304538" data-name="Group 304538" transform="translate(-83.717 3.017)">
            <path id="Path_136152-2" data-name="Path 136152" d="M297.125,145.492v28.3a3.349,3.349,0,0,0,3.35,3.348h28.3a3.349,3.349,0,0,0,3.35-3.348v-28.3a3.35,3.35,0,0,0-3.35-3.348h-28.3A3.35,3.35,0,0,0,297.125,145.492Z" transform="translate(-268.334 -154.144)" fill="#0271a6"/>
          </g>
          <g id="Group_303773" data-name="Group 303773" transform="translate(33.284 252.349)">
            <path id="Path_136158" data-name="Path 136158" d="M244.322,364.942h-3.954l-2.524-4.786a1.451,1.451,0,0,0-2.567,0l-2.524,4.786H228.8a3.608,3.608,0,0,0-3.608,3.608v15.522a3.608,3.608,0,0,0,3.608,3.608h15.523a3.608,3.608,0,0,0,3.608-3.608V368.55A3.608,3.608,0,0,0,244.322,364.942Z" transform="translate(-225.191 -359.382)" fill="#176a92"/>
            <path id="Path_136159" data-name="Path 136159" d="M238.648,370.6a5.615,5.615,0,1,0-.793,8.595,1.256,1.256,0,0,0,.35.684l3.487,3.487a1.259,1.259,0,0,0,1.781-1.781l-3.487-3.487a1.247,1.247,0,0,0-.685-.349A5.621,5.621,0,0,0,238.648,370.6Zm-1.187,6.753a3.936,3.936,0,1,1,0-5.567A3.941,3.941,0,0,1,237.46,377.354Z" transform="translate(-225.082 -359.113)" fill="#fff" opacity="0.9"/>
          </g>
        </g>
        <g id="Character_2" data-name="Character 2" transform="translate(282.575 200.564)">
          <path id="Path_136160" data-name="Path 136160" d="M406.654,264.307s-8.384,20.767-16.583,23.013-20.575.421-20.575.421l-3.824,1.046-3.748-.557a1.074,1.074,0,0,0-.13-.011l-4.235-.1a.807.807,0,0,1-.72-1.272l1.521-2.1a.994.994,0,0,1,.5-.355l4.027-1.3a1.061,1.061,0,0,1,.49-.039l6.156.977s17.118-2.8,18.86-4.393,6.9-18.188,6.9-18.188Z" transform="translate(-269.568 -196.662)" fill="#eec1bb"/>
          <path id="Path_136161" data-name="Path 136161" d="M369.927,283.382l-.395.066-6.156-.977a1.061,1.061,0,0,0-.49.039l-4.026,1.3a1,1,0,0,0-.5.356l-1.521,2.1a.807.807,0,0,0,.72,1.272l4.236.1a1.075,1.075,0,0,1,.129.011l2.521.374A16.1,16.1,0,0,0,369.927,283.382Z" transform="translate(-269.568 -196.073)" opacity="0.1"/>
          <path id="Path_136162" data-name="Path 136162" d="M410.7,244.236c-6.086-2-14.651,2.575-17.93,21.741l12.638,3.688S419.4,247.092,410.7,244.236Z" transform="translate(-268.556 -197.157)" fill="#407bff"/>
          <g id="Group_303774" data-name="Group 303774" transform="translate(106.239 0)">
            <path id="Path_136163" data-name="Path 136163" d="M375.768,219.9c.007.629.339,1.138.751,1.134s.768-.545.743-1.156-.339-1.138-.753-1.128S375.767,219.268,375.768,219.9Z" transform="translate(-375.271 -197.86)" fill="#263238"/>
            <path id="Path_136164" data-name="Path 136164" d="M378.276,220.47l-2.991,4.946s1.034,1.171,3.278.306Z" transform="translate(-375.285 -197.812)" fill="#d4827d"/>
            <path id="Path_136165" data-name="Path 136165" d="M378.826,216.042a.341.341,0,0,1-.294.109,2.59,2.59,0,0,0-2.256.7.33.33,0,0,1-.462.034.336.336,0,0,1-.031-.467,3.214,3.214,0,0,1,2.838-.925.33.33,0,0,1,.283.372h0A.36.36,0,0,1,378.826,216.042Z" transform="translate(-375.273 -197.953)" fill="#263238"/>
            <path id="Path_136166" data-name="Path 136166" d="M399.935,215.8c.469,8.357.848,11.89-2.841,16.642-5.893,5.091-15.93,5.9-18.884-2.153-2.663-7.248-2.979-19.667,4.756-23.973a11.426,11.426,0,0,1,16.969,9.484Z" transform="translate(-375.251 -198.25)" fill="#eec1bb"/>
            <path id="Path_136167" data-name="Path 136167" d="M387.968,233.367l2.117,12.379,10.324-2.385L396.8,230.724Z" transform="translate(-374.929 -197.524)" fill="#eec1bb"/>
            <path id="Path_136168" data-name="Path 136168" d="M380.851,216.6c.525-5.432-1.339.839-3.855-6.325s9.346-12.987,11.243-11.652.808,3.389,7.081,4.544a7.125,7.125,0,0,1,6.007,7.246s3.608,1.674,2.325,9.425a31.82,31.82,0,0,1-6.181,13.615s-2.374-2.448-6.129-.186a12.271,12.271,0,0,1-3.667-3.75c-1.693-2.529-2.213-4.928-4.53-5.137C378.284,223.94,380.678,218.381,380.851,216.6Z" transform="translate(-375.247 -198.43)" fill="#263238"/>
            <path id="Path_136169" data-name="Path 136169" d="M399.993,211.214s5.12-3.149,2.854-6.45S401.675,208.39,399.993,211.214Z" transform="translate(-374.592 -198.277)" fill="#263238"/>
            <path id="Path_136170" data-name="Path 136170" d="M382.217,219.2a6.431,6.431,0,0,0-1.633,4.656c.145,2.264,2.36,2.667,4.111,1.43,1.586-1.121,3.4-3.642,2.391-5.628A2.913,2.913,0,0,0,382.217,219.2Z" transform="translate(-375.137 -197.879)" fill="#ffc3bd"/>
            <path id="Path_136171" data-name="Path 136171" d="M388.162,234.479l.84,4.914a9.287,9.287,0,0,1,2.322-6.714A4.147,4.147,0,0,0,388.162,234.479Z" transform="translate(-374.924 -197.47)" opacity="0.1"/>
          </g>
          <g id="Group_303775" data-name="Group 303775" transform="translate(43.952 68.965)">
            <rect id="Rectangle_163066" data-name="Rectangle 163066" width="2.951" height="17.409" fill="#407bff"/>
            <rect id="Rectangle_163067" data-name="Rectangle 163067" width="2.951" height="17.409" fill="#fff" opacity="0.7"/>
          </g>
          <g id="Group_303777" data-name="Group 303777" transform="translate(14.29 34.402)">
            <path id="Path_136172" data-name="Path 136172" d="M298.182,231.894h-7.35a4.987,4.987,0,0,0-4.987,4.987V270.93a4.987,4.987,0,0,0,4.987,4.987h7.35Z" transform="translate(-285.845 -231.894)" fill="#284f63"/>
            <g id="Group_303776" data-name="Group 303776" transform="translate(2.57 0)">
              <rect id="Rectangle_163068" data-name="Rectangle 163068" width="59.705" height="44.023" rx="4.851" fill="#407bff"/>
              <rect id="Rectangle_163069" data-name="Rectangle 163069" width="59.705" height="44.023" rx="4.851" fill="#176a92"/>
            </g>
            <rect id="Rectangle_163070" data-name="Rectangle 163070" width="55.593" height="39.91" rx="2.851" transform="translate(4.627 2.057)" fill="#4e95cf"/>
          </g>
          <path id="Path_136173" data-name="Path 136173" d="M305.689,289.833a10.738,10.738,0,0,1,21.475,0Z" transform="translate(-270.999 -196.167)" fill="#60a6df"/>
          <g id="Group_303778" data-name="Group 303778" transform="translate(38.562 90.002)">
            <path id="Path_136174" data-name="Path 136174" d="M330.93,285.976H309.455v3.491H352.4v-1.435Z" transform="translate(-309.455 -285.976)" fill="#407bff"/>
            <path id="Path_136175" data-name="Path 136175" d="M330.93,285.976H309.455v3.491H352.4v-1.435Z" transform="translate(-309.455 -285.976)" fill="#fff" opacity="0.8"/>
            <path id="Path_136176" data-name="Path 136176" d="M330.93,289.467H309.455v-3.491l21.475,2.056Z" transform="translate(-309.455 -285.976)" fill="#407bff"/>
            <path id="Path_136177" data-name="Path 136177" d="M330.93,289.467H309.455v-3.491l21.475,2.056Z" transform="translate(-309.455 -285.976)" fill="#fff" opacity="0.6"/>
          </g>
          <g id="Group_303781" data-name="Group 303781" transform="translate(56.35 98.165)">
            <g id="Group_303779" data-name="Group 303779">
              <path id="Path_136178" data-name="Path 136178" d="M377.8,409.23H333.489a6.73,6.73,0,0,1-6.731-6.731V300.648a6.73,6.73,0,0,1,6.731-6.731H377.8a1.8,1.8,0,0,1,1.8,1.8h0a1.8,1.8,0,0,1-1.8,1.8H333.489a3.132,3.132,0,0,0-3.132,3.132V402.5a3.132,3.132,0,0,0,3.132,3.132H377.8a1.8,1.8,0,0,1,1.8,1.8h0A1.8,1.8,0,0,1,377.8,409.23Z" transform="translate(-326.758 -293.917)" fill="#263238"/>
            </g>
            <g id="Group_303780" data-name="Group 303780">
              <path id="Path_136179" data-name="Path 136179" d="M377.8,409.23H333.489a6.73,6.73,0,0,1-6.731-6.731V300.648a6.73,6.73,0,0,1,6.731-6.731H377.8a1.8,1.8,0,0,1,1.8,1.8h0a1.8,1.8,0,0,1-1.8,1.8H333.489a3.132,3.132,0,0,0-3.132,3.132V402.5a3.132,3.132,0,0,0,3.132,3.132H377.8a1.8,1.8,0,0,1,1.8,1.8h0A1.8,1.8,0,0,1,377.8,409.23Z" transform="translate(-326.758 -293.917)" fill="#284f63"/>
            </g>
          </g>
          <g id="Group_303782" data-name="Group 303782" transform="translate(0 93.493)">
            <rect id="Rectangle_163071" data-name="Rectangle 163071" width="62.902" height="5.272" fill="#0271a6"/>
            <rect id="Rectangle_163072" data-name="Rectangle 163072" width="62.902" height="5.272" fill="#0271a6" opacity="0.2"/>
            <rect id="Rectangle_163073" data-name="Rectangle 163073" width="53.649" height="5.272" transform="translate(60.037)" fill="#0271a6"/>
            <rect id="Rectangle_163074" data-name="Rectangle 163074" width="53.649" height="5.272" transform="translate(60.037)" fill="#0271a6" opacity="0.5"/>
          </g>
          <g id="Group_303785" data-name="Group 303785" transform="translate(73.967 106.849)">
            <g id="Group_303784" data-name="Group 303784" transform="translate(3.426 69.259)">
              <path id="Path_136180" data-name="Path 136180" d="M364.533,369.733l2.977,30.034h-7.12l-7.12-29.257Z" transform="translate(-347.057 -369.733)" fill="#eec1bb"/>
              <g id="Group_303783" data-name="Group 303783" transform="translate(0 28.069)">
                <path id="Path_136181" data-name="Path 136181" d="M359.894,397.04l9.079.155a.731.731,0,0,1,.7.583l1.515,7.414a1.216,1.216,0,0,1-.938,1.441,1.257,1.257,0,0,1-.256.027c-3.272-.113-6.18-.342-10.254-.406-4.809-.08-3.6.515-9.254.5-3.407-.013-3.964-3.9-2.517-4.062,6.625-.719,7.344-2.7,9.935-5.026A2.931,2.931,0,0,1,359.894,397.04Z" transform="translate(-347.226 -397.035)" fill="#263238"/>
              </g>
              <path id="Path_136182" data-name="Path 136182" d="M366.734,391.927l-2.2-22.194-11.263.777,5.212,21.418Z" transform="translate(-347.057 -369.733)" opacity="0.1"/>
            </g>
            <path id="Path_136183" data-name="Path 136183" d="M413.515,302.364l-29.183,1.047s-39.265,13.727-40.369,24.327c-1.131,10.874,12.073,60.844,12.073,60.844h11.725s-3.233-36.67-4.476-47.9,40.908-7.508,48.226-17.088C418.247,314.776,413.515,302.364,413.515,302.364Z" transform="translate(-343.894 -302.364)" fill="#263238"/>
            <path id="Path_136184" data-name="Path 136184" d="M413.515,302.364l-29.183,1.047s-39.265,13.727-40.369,24.327c-1.131,10.874,12.073,60.844,12.073,60.844h11.725s-3.233-36.67-4.476-47.9,40.908-7.508,48.226-17.088C418.247,314.776,413.515,302.364,413.515,302.364Z" transform="translate(-343.894 -302.364)" opacity="0.2"/>
            <path id="Path_136185" data-name="Path 136185" d="M369.48,384.592l.259,4.143h-14.5l-1.424-4.143Z" transform="translate(-343.616 -300.057)" fill="#0271a6"/>
          </g>
          <g id="Group_303788" data-name="Group 303788" transform="translate(47.877 106.849)">
            <g id="Group_303787" data-name="Group 303787" transform="translate(0 70.683)">
              <path id="Path_136186" data-name="Path 136186" d="M338.107,371.118l.777,28.61h-6.991l-4.143-28.61Z" transform="translate(-318.257 -371.118)" fill="#eec1bb"/>
              <g id="Group_303786" data-name="Group 303786" transform="translate(0 26.645)">
                <path id="Path_136187" data-name="Path 136187" d="M331.183,397.04l9.08.155a.73.73,0,0,1,.7.583l1.515,7.414a1.215,1.215,0,0,1-.937,1.441,1.267,1.267,0,0,1-.257.027c-3.271-.113-6.179-.342-10.254-.406-4.808-.08-3.6.515-9.252.5-3.407-.013-3.964-3.9-2.518-4.062,6.625-.719,7.345-2.7,9.936-5.026A2.927,2.927,0,0,1,331.183,397.04Z" transform="translate(-318.516 -397.035)" fill="#263238"/>
              </g>
              <path id="Path_136188" data-name="Path 136188" d="M338.67,391.864l-.563-20.746H327.75l3.007,20.768C333.01,391.894,336.112,391.88,338.67,391.864Z" transform="translate(-318.257 -371.118)" opacity="0.1"/>
            </g>
            <path id="Path_136189" data-name="Path 136189" d="M401.493,304.78s2.423,22.18-20.149,23.217-40.177,3.624-40.7,11.651,0,48.934,0,48.934H328.382s-4.772-25.861-6.634-41.9c-1.806-15.577-5.106-26.871,10.875-32.147,16.99-5.61,47.2-10.8,47.2-10.8l21.751-1.373Z" transform="translate(-318.469 -302.364)" fill="#263238"/>
            <path id="Path_136190" data-name="Path 136190" d="M342.281,384.592l-.777,4.143H328.04l-1.424-4.143Z" transform="translate(-318.289 -300.057)" fill="#0271a6"/>
          </g>
          <g id="Group_303789" data-name="Group 303789" transform="translate(116.833 41.146)">
            <path id="Path_136191" data-name="Path 136191" d="M404.556,242.927s0-5.007-10.108-4.427c-10.727.615-8.707,5.411-8.707,5.411Z" transform="translate(-385.59 -238.454)" fill="#407bff"/>
            <path id="Path_136192" data-name="Path 136192" d="M404.556,242.927s0-5.007-10.108-4.427c-10.727.615-8.707,5.411-8.707,5.411Z" transform="translate(-385.59 -238.454)" fill="#e5a940"/>
          </g>
          <path id="Path_136193" data-name="Path 136193" d="M414.28,265.258c-.679,9.878-.445,39.6-.445,39.6s-21.561,1.417-38.531.866l-1.967-57.175a5.008,5.008,0,0,1,3.229-4.652c4.792-1.863,16.037-3.971,33.629-1.662C416.263,243.03,415.081,253.579,414.28,265.258Z" transform="translate(-269.101 -197.23)" fill="#fec35b"/>
          <path id="Path_136194" data-name="Path 136194" d="M378.071,264.307s-8.383,20.767-16.581,23.013-20.576.421-20.576.421l-3.824,1.046-3.748-.557a1.111,1.111,0,0,0-.13-.011l-4.235-.1a.806.806,0,0,1-.72-1.272l1.521-2.1a.99.99,0,0,1,.5-.355l4.027-1.3a1.06,1.06,0,0,1,.49-.039l6.155.977s17.119-2.8,18.861-4.393,6.9-18.188,6.9-18.188Z" transform="translate(-270.37 -196.662)" fill="#eec1bb"/>
          <path id="Path_136195" data-name="Path 136195" d="M376.575,254.876s-1.3,1.545-2.889,3.789l.57,16.55c6.3-2.78,8.8-19.007,8.8-19.007l-4.09-2.9Z" transform="translate(-269.091 -196.891)" opacity="0.1"/>
          <path id="Path_136196" data-name="Path 136196" d="M382.115,244.236c-6.087-2-14.652,2.575-17.931,21.741l12.638,3.688S390.817,247.092,382.115,244.236Z" transform="translate(-269.358 -197.157)" fill="#fec35b"/>
          <g id="Group_303795" data-name="Group 303795" transform="translate(61.74 80.076)">
            <g id="Group_303792" data-name="Group 303792" transform="translate(15.554 63.173)">
              <rect id="Rectangle_163075" data-name="Rectangle 163075" width="9.51" height="27.874" transform="translate(34.003)" fill="#263238"/>
              <rect id="Rectangle_163076" data-name="Rectangle 163076" width="9.51" height="27.874" transform="translate(34.003)" fill="#284f63"/>
              <g id="Group_303790" data-name="Group 303790" transform="translate(4.162 17.708)">
                <path id="Path_136197" data-name="Path 136197" d="M392.006,390.41V354.995H379.545V390.41l-28.366,3.935v3.935l34.6-2.951,34.6,2.951v-3.935Z" transform="translate(-351.179 -354.995)" fill="#284f63"/>
              </g>
              <g id="Group_303791" data-name="Group 303791" transform="translate(0 63.146)">
                <circle id="Ellipse_4691" data-name="Ellipse 4691" cx="3.751" cy="3.751" r="3.751" fill="#60a6df"/>
                <circle id="Ellipse_4692" data-name="Ellipse 4692" cx="3.751" cy="3.751" r="3.751" transform="translate(69.603)" fill="#60a6df"/>
              </g>
              <circle id="Ellipse_4693" data-name="Ellipse 4693" cx="3.751" cy="3.751" r="3.751" transform="translate(35.007 63.146)" fill="#407bff"/>
              <rect id="Rectangle_163077" data-name="Rectangle 163077" width="9.51" height="6.886" transform="translate(34.003)" opacity="0.3"/>
            </g>
            <g id="Group_303794" data-name="Group 303794">
              <path id="Path_136198" data-name="Path 136198" d="M423.909,276.321H392.923a9.776,9.776,0,0,0-9.734,8.867l-2.616,28a12.892,12.892,0,0,1-12.182,11.675l-29.9,1.514A6.834,6.834,0,0,0,332,333.2v.631a5.661,5.661,0,0,0,5.661,5.661h91.076l4.9-52.487A9.776,9.776,0,0,0,423.909,276.321Z" transform="translate(-332.001 -276.321)" fill="#407bff"/>
              <path id="Path_136199" data-name="Path 136199" d="M423.909,276.321H392.923a9.776,9.776,0,0,0-9.734,8.867l-2.616,28a12.892,12.892,0,0,1-12.182,11.675l-29.9,1.514A6.834,6.834,0,0,0,332,333.2v.631a5.661,5.661,0,0,0,5.661,5.661h91.076l4.9-52.487A9.776,9.776,0,0,0,423.909,276.321Z" transform="translate(-332.001 -276.321)" fill="#60a6df"/>
              <path id="Rectangle_163078" data-name="Rectangle 163078" d="M0,0H4.263a0,0,0,0,1,0,0V22.374a2,2,0,0,1-2,2H2a2,2,0,0,1-2-2V0A0,0,0,0,1,0,0Z" transform="translate(20.782 31.587)" fill="#263238"/>
              <path id="Rectangle_163079" data-name="Rectangle 163079" d="M0,0H4.263a0,0,0,0,1,0,0V22.374a2,2,0,0,1-2,2H2a2,2,0,0,1-2-2V0A0,0,0,0,1,0,0Z" transform="translate(20.782 31.587)" fill="#fff" opacity="0.2"/>
              <g id="Group_303793" data-name="Group 303793" transform="translate(0.533 25.134)">
                <path id="Path_136200" data-name="Path 136200" d="M372.492,300.769h-9.511v7.87h9.511a3.935,3.935,0,0,0,0-7.87Z" transform="translate(-331.665 -300.769)" fill="#407bff"/>
                <path id="Path_136201" data-name="Path 136201" d="M372.492,300.769h-9.511v7.87h9.511a3.935,3.935,0,0,0,0-7.87Z" transform="translate(-331.665 -300.769)" fill="#a7d3f6"/>
                <rect id="Rectangle_163080" data-name="Rectangle 163080" width="40.826" height="7.87" rx="3.688" fill="#407bff"/>
                <path id="Path_136413" data-name="Path 136413" d="M3.688,0h33.45a3.688,3.688,0,0,1,3.688,3.688v.494A3.688,3.688,0,0,1,37.138,7.87H3.688A3.688,3.688,0,0,1,0,4.182V3.688A3.688,3.688,0,0,1,3.688,0Z" fill="#60a6df"/>
              </g>
              <path id="Path_136202" data-name="Path 136202" d="M429.425,339.494H383.874l5.074-54.306a9.776,9.776,0,0,1,9.734-8.867h30.986a9.775,9.775,0,0,1,9.734,10.686l-4.432,47.438A5.568,5.568,0,0,1,429.425,339.494Z" transform="translate(-330.546 -276.321)" fill="#407bff"/>
              <path id="Path_136203" data-name="Path 136203" d="M429.425,339.494H383.874l5.074-54.306a9.776,9.776,0,0,1,9.734-8.867h30.986a9.775,9.775,0,0,1,9.734,10.686l-4.432,47.438A5.568,5.568,0,0,1,429.425,339.494Z" transform="translate(-330.546 -276.321)" fill="#a7d3f6"/>
            </g>
          </g>
          <g id="Group_303798" data-name="Group 303798" transform="translate(3.17 98.165)">
            <g id="Group_303796" data-name="Group 303796">
              <path id="Path_136204" data-name="Path 136204" d="M326.067,409.23H281.76a6.73,6.73,0,0,1-6.731-6.731V300.648a6.73,6.73,0,0,1,6.731-6.731h44.307a1.8,1.8,0,0,1,1.8,1.8h0a1.8,1.8,0,0,1-1.8,1.8H281.76a3.132,3.132,0,0,0-3.132,3.132V402.5a3.132,3.132,0,0,0,3.132,3.132h44.307a1.8,1.8,0,0,1,1.8,1.8h0A1.8,1.8,0,0,1,326.067,409.23Z" transform="translate(-275.029 -293.917)" fill="#263238"/>
            </g>
            <g id="Group_303797" data-name="Group 303797">
              <path id="Path_136205" data-name="Path 136205" d="M326.067,409.23H281.76a6.73,6.73,0,0,1-6.731-6.731V300.648a6.73,6.73,0,0,1,6.731-6.731h44.307a1.8,1.8,0,0,1,1.8,1.8h0a1.8,1.8,0,0,1-1.8,1.8H281.76a3.132,3.132,0,0,0-3.132,3.132V402.5a3.132,3.132,0,0,0,3.132,3.132h44.307a1.8,1.8,0,0,1,1.8,1.8h0A1.8,1.8,0,0,1,326.067,409.23Z" transform="translate(-275.029 -293.917)" fill="#284f63"/>
            </g>
          </g>
          <g id="Group_303799" data-name="Group 303799" transform="translate(21.558 39.412)">
            <path id="Path_136206" data-name="Path 136206" d="M296.286,241.927l-3.12-2.07a.561.561,0,0,1,0-.934l3.12-2.071a.506.506,0,0,1,.7.142h0a.506.506,0,0,1-.142.7l-2.553,1.694,2.553,1.694a.508.508,0,0,1,.142.7h0A.506.506,0,0,1,296.286,241.927Z" transform="translate(-292.915 -236.767)" fill="#fff"/>
          </g>
          <g id="Group_303800" data-name="Group 303800" transform="translate(31.663 39.412)">
            <path id="Path_136207" data-name="Path 136207" d="M302.828,241.785h0a.508.508,0,0,1,.142-.7l2.554-1.694-2.554-1.694a.506.506,0,0,1-.142-.7h0a.507.507,0,0,1,.7-.142l3.12,2.071a.561.561,0,0,1,0,.934l-3.12,2.07A.507.507,0,0,1,302.828,241.785Z" transform="translate(-302.744 -236.767)" fill="#fff"/>
          </g>
          <g id="Group_303801" data-name="Group 303801" transform="translate(27.173 38.061)">
            <path id="Path_136208" data-name="Path 136208" d="M298.731,243.169h0a.506.506,0,0,1-.33-.634l2.124-6.728a.506.506,0,0,1,.634-.33h0a.507.507,0,0,1,.33.635l-2.124,6.727A.506.506,0,0,1,298.731,243.169Z" transform="translate(-298.377 -235.453)" fill="#fff"/>
          </g>
          <g id="Group_303812" data-name="Group 303812" transform="translate(21.558 49.893)">
            <g id="Group_303802" data-name="Group 303802">
              <path id="Path_136209" data-name="Path 136209" d="M316.339,248.029H293.449a.534.534,0,0,1-.534-.534h0a.534.534,0,0,1,.534-.534h22.891a.534.534,0,0,1,.534.534h0A.533.533,0,0,1,316.339,248.029Z" transform="translate(-292.915 -246.962)" fill="#fff"/>
            </g>
            <g id="Group_303803" data-name="Group 303803" transform="translate(26.302)">
              <path id="Path_136210" data-name="Path 136210" d="M341.923,248.029H319.033a.533.533,0,0,1-.534-.534h0a.534.534,0,0,1,.534-.534h22.891a.534.534,0,0,1,.534.534h0A.533.533,0,0,1,341.923,248.029Z" transform="translate(-318.499 -246.962)" fill="#fff"/>
            </g>
            <g id="Group_303804" data-name="Group 303804" transform="translate(0 4.713)">
              <path id="Path_136211" data-name="Path 136211" d="M306.529,252.612h-13.08a.534.534,0,0,1-.534-.534h0a.534.534,0,0,1,.534-.533h13.08a.533.533,0,0,1,.534.533h0A.533.533,0,0,1,306.529,252.612Z" transform="translate(-292.915 -251.546)" fill="#fff"/>
            </g>
            <g id="Group_303805" data-name="Group 303805" transform="translate(16.49 4.713)">
              <path id="Path_136212" data-name="Path 136212" d="M330.914,252.612H309.489a.533.533,0,0,1-.534-.534h0a.533.533,0,0,1,.534-.533h21.426a.533.533,0,0,1,.534.533h0A.533.533,0,0,1,330.914,252.612Z" transform="translate(-308.955 -251.546)" fill="#fff"/>
            </g>
            <g id="Group_303806" data-name="Group 303806" transform="translate(0 9.424)">
              <path id="Path_136213" data-name="Path 136213" d="M328.319,257.2H293.449a.533.533,0,0,1-.534-.533h0a.534.534,0,0,1,.534-.534h34.871a.534.534,0,0,1,.534.534h0A.534.534,0,0,1,328.319,257.2Z" transform="translate(-292.915 -256.129)" fill="#fff"/>
            </g>
            <g id="Group_303807" data-name="Group 303807" transform="translate(38.281 9.424)">
              <path id="Path_136214" data-name="Path 136214" d="M337.965,257.2h-7.281a.533.533,0,0,1-.534-.533h0a.533.533,0,0,1,.534-.534h7.281a.533.533,0,0,1,.534.534h0A.533.533,0,0,1,337.965,257.2Z" transform="translate(-330.151 -256.129)" fill="#fff"/>
            </g>
            <g id="Group_303808" data-name="Group 303808" transform="translate(0 14.136)">
              <path id="Path_136215" data-name="Path 136215" d="M309.729,261.779h-16.28a.534.534,0,0,1-.534-.534h0a.534.534,0,0,1,.534-.534h16.28a.534.534,0,0,1,.534.534h0A.533.533,0,0,1,309.729,261.779Z" transform="translate(-292.915 -260.712)" fill="#fff"/>
            </g>
            <g id="Group_303809" data-name="Group 303809" transform="translate(19.69 14.136)">
              <path id="Path_136216" data-name="Path 136216" d="M332.872,261.779H312.6a.534.534,0,0,1-.534-.534h0a.534.534,0,0,1,.534-.534h20.27a.534.534,0,0,1,.534.534h0A.533.533,0,0,1,332.872,261.779Z" transform="translate(-312.068 -260.712)" fill="#fff"/>
            </g>
            <g id="Group_303810" data-name="Group 303810" transform="translate(0 18.848)">
              <path id="Path_136217" data-name="Path 136217" d="M316.339,266.362H293.449a.534.534,0,0,1-.534-.533h0a.534.534,0,0,1,.534-.534h22.891a.533.533,0,0,1,.534.534h0A.533.533,0,0,1,316.339,266.362Z" transform="translate(-292.915 -265.296)" fill="#fff"/>
            </g>
            <g id="Group_303811" data-name="Group 303811" transform="translate(26.302 18.848)">
              <path id="Path_136218" data-name="Path 136218" d="M335.181,266.362H319.033a.533.533,0,0,1-.534-.533h0a.533.533,0,0,1,.534-.534h16.149a.534.534,0,0,1,.534.534h0A.534.534,0,0,1,335.181,266.362Z" transform="translate(-318.499 -265.296)" fill="#fff"/>
            </g>
          </g>
        </g>
        <g id="Character_1" data-name="Character 1" transform="translate(43.197 151.82)">
          <g id="Group_303823" data-name="Group 303823">
            <path id="Path_136219" data-name="Path 136219" d="M141.591,176.82c.416,4.841-.631,13.613-4.284,16.418,5.96,2.146,12.263,5.852,16.3,10.731,4-5.819-.554-9.136-.554-9.136-5.15-1.833-4.589-5.724-3.265-9.313Z" transform="translate(-79.345 -151.292)" fill="#b97964"/>
            <path id="Path_136220" data-name="Path 136220" d="M160.4,172.789c-.059.6.226,1.13.624,1.169s.767-.431.826-1.035-.226-1.136-.625-1.175S160.473,172.178,160.4,172.789Z" transform="translate(-78.697 -151.435)" fill="#263238"/>
            <path id="Path_136221" data-name="Path 136221" d="M161.045,171.774l1.5-.287S161.692,172.593,161.045,171.774Z" transform="translate(-78.679 -151.442)" fill="#263238"/>
            <path id="Path_136222" data-name="Path 136222" d="M160.611,173.391a16.5,16.5,0,0,0,1.819,4.1,2.644,2.644,0,0,1-2.215.209Z" transform="translate(-78.702 -151.389)" fill="#a24e3f"/>
            <path id="Path_136223" data-name="Path 136223" d="M162.165,169.69a.389.389,0,0,0,.243-.126.366.366,0,0,0-.037-.509,3.572,3.572,0,0,0-3.172-.847.361.361,0,0,0,.192.668,2.883,2.883,0,0,1,2.506.7A.346.346,0,0,0,162.165,169.69Z" transform="translate(-78.736 -151.536)" fill="#263238"/>
            <path id="Path_136224" data-name="Path 136224" d="M140.976,169.283c-.237,7.52-.5,10.717,2.858,14.908,5.049,6.3,14.184,4.923,16.626-2.4,2.2-6.586,2.225-17.808-4.691-21.452S141.219,161.742,140.976,169.283Z" transform="translate(-79.246 -151.789)" fill="#b97964"/>
            <path id="Path_136225" data-name="Path 136225" d="M141.585,183.675c-7.4-1.259-5.272-5.921-5.272-5.921-7.283-1.474-1.66-5.03-1.66-5.03-6.057-2.609,0-4.949,0-4.949-5.839-4.844,2.529-6.491,2.529-6.491-2.064-7.556,5.108-4.457,5.108-4.457,3.913-6.491,7.279-.291,7.279-.291,6.852-9.3,8.518-1.453,8.518-1.453,6.992-1.841,4.311,5.519,4.311,5.519,5.761,1.547,1.239,4.46,1.239,4.46,2.218,2.81-5.813,3.295-5.813,3.295s3.821,6.124-.034,7.864l-9.723,7.454S143.6,181.814,141.585,183.675Z" transform="translate(-79.495 -151.989)" fill="#263238"/>
            <path id="Path_136226" data-name="Path 136226" d="M148.388,177.565s5.091-12.308,1.123-22.866l3.4-1.163S157.337,168.846,148.388,177.565Z" transform="translate(-79.034 -151.946)" fill="#407bff"/>
            <path id="Path_136227" data-name="Path 136227" d="M153.384,175.7c.852,1.766,1.174,2.534,2.389,3.12a2.211,2.211,0,0,0,3.233-2.445c-.32-1.771-1.683-4.373-3.562-4.427A2.473,2.473,0,0,0,153.384,175.7Z" transform="translate(-78.903 -151.429)" fill="#b97964"/>
            <g id="Group_303813" data-name="Group 303813" transform="translate(48.798 40.09)">
              <path id="Path_136228" data-name="Path 136228" d="M148.354,200.841s6.955,5.108,9.783,7.162l20.137-9.5h0a5.561,5.561,0,0,1,3.4-5.26l1.432-.6,3.038-1.351a3.526,3.526,0,0,1,3.506.37h0a3.524,3.524,0,0,1,1.308,3.844h0a8.735,8.735,0,0,1-6.165,5.987l-2.937.77s-17.275,13.109-23.421,13.452-15.2-5.745-15.2-5.745Z" transform="translate(-127.977 -190.985)" fill="#b97964"/>
              <path id="Path_136229" data-name="Path 136229" d="M132.029,192.14c5.316-.023,11.255,3.313,20.609,9.374a25.56,25.56,0,0,1-7.208,11.395s-5.132-1.381-11.961-7.809C125.207,197.321,128.769,192.153,132.029,192.14Z" transform="translate(-128.393 -190.953)" fill="#60a6df"/>
            </g>
            <g id="Group_303817" data-name="Group 303817" transform="translate(99.99 6.691)">
              <g id="Group_303814" data-name="Group 303814">
                <path id="Path_136230" data-name="Path 136230" d="M231.59,208.487H181.221a2.984,2.984,0,0,1-3.019-3.309L182,161.806a3.684,3.684,0,0,1,3.6-3.309h50.369a2.983,2.983,0,0,1,3.019,3.309l-3.795,43.372A3.684,3.684,0,0,1,231.59,208.487Z" transform="translate(-178.189 -158.497)" fill="#407bff"/>
                <path id="Path_136231" data-name="Path 136231" d="M231.59,208.487H181.221a2.984,2.984,0,0,1-3.019-3.309L182,161.806a3.684,3.684,0,0,1,3.6-3.309h50.369a2.983,2.983,0,0,1,3.019,3.309l-3.795,43.372A3.684,3.684,0,0,1,231.59,208.487Z" transform="translate(-178.189 -158.497)" fill="#fff" opacity="0.4"/>
              </g>
              <path id="Path_136232" data-name="Path 136232" d="M231.714,206.374a1.4,1.4,0,0,0,1.362-1.252l3.795-43.372a1.131,1.131,0,0,0-1.143-1.253h-50.37A1.4,1.4,0,0,0,184,161.75L180.2,205.122a1.13,1.13,0,0,0,1.143,1.252Z" transform="translate(-178.132 -158.441)" fill="#fff" opacity="0.7"/>
              <g id="Group_303815" data-name="Group 303815" transform="translate(2.064 22.431)">
                <path id="Path_136233" data-name="Path 136233" d="M196.708,180.316l-16.468,23.818-.038.432a1.13,1.13,0,0,0,1.143,1.252h28.534Z" transform="translate(-180.196 -180.316)" fill="#60a6df"/>
                <path id="Path_136234" data-name="Path 136234" d="M196.708,180.316l-16.468,23.818-.038.432a1.13,1.13,0,0,0,1.143,1.252h28.534Z" transform="translate(-180.196 -180.316)" fill="#60a6df" opacity="0.3"/>
              </g>
              <path id="Path_136235" data-name="Path 136235" d="M232.708,203l-13.79-26.184-20.417,29.1h32.7a1.4,1.4,0,0,0,1.362-1.252Z" transform="translate(-177.619 -157.983)" fill="#4e95cf"/>
              <g id="Group_303816" data-name="Group 303816" transform="translate(26.701 9.577)">
                <path id="Path_136236" data-name="Path 136236" d="M213.436,172.441a5.153,5.153,0,0,1-5.033,4.628,4.172,4.172,0,0,1-4.223-4.628,5.152,5.152,0,0,1,5.033-4.628A4.174,4.174,0,0,1,213.436,172.441Z" transform="translate(-204.161 -167.813)" fill="#60a6df"/>
                <path id="Path_136237" data-name="Path 136237" d="M213.436,172.441a5.153,5.153,0,0,1-5.033,4.628,4.172,4.172,0,0,1-4.223-4.628,5.152,5.152,0,0,1,5.033-4.628A4.174,4.174,0,0,1,213.436,172.441Z" transform="translate(-204.161 -167.813)" fill="#60a6df" opacity="0.4"/>
              </g>
            </g>
            <g id="Group_303819" data-name="Group 303819" transform="translate(0 231.705)">
              <path id="Path_136238" data-name="Path 136238" d="M91.035,377.371l-5.114,15.176,7.843,3.2,6.138-14Z" transform="translate(-80.787 -377.371)" fill="#b97964"/>
              <g id="Group_303818" data-name="Group 303818" transform="translate(0 13.37)">
                <path id="Path_136239" data-name="Path 136239" d="M96.292,394.9a.235.235,0,0,1-.118-.229.221.221,0,0,1,.172-.19c.163-.037,3.868-.864,5.247.016a1.171,1.171,0,0,1,.519.708.842.842,0,0,1-.271.935c-.52.367-1.744.215-2.866-.132A16.627,16.627,0,0,1,96.292,394.9Zm.781-.073c1.615.726,3.9,1.415,4.5.956.083-.053.179-.165.1-.48a.618.618,0,0,0-.327-.429,1.459,1.459,0,0,0-.393-.179A10.324,10.324,0,0,0,97.074,394.826Z" transform="translate(-80.499 -390.271)" fill="#407bff"/>
                <path id="Path_136240" data-name="Path 136240" d="M96.184,394.924a.223.223,0,0,1-.037-.223c.047-.11,1.04-2.47,2.482-3.061a1.661,1.661,0,0,1,1.3,0c.571.242.663.6.61.847-.121,1.075-2.895,2.362-4.121,2.508a.13.13,0,0,1-.093-.021A.209.209,0,0,1,96.184,394.924ZM99.663,392a1.167,1.167,0,0,0-.821.041,5.253,5.253,0,0,0-2.053,2.4c1.323-.316,3.218-1.407,3.351-2.038,0-.06.024-.222-.351-.373L99.663,392Z" transform="translate(-80.5 -390.344)" fill="#407bff"/>
                <path id="Path_136241" data-name="Path 136241" d="M96.188,393.455l-9.854-3.042a.829.829,0,0,0-.965.38l-4.256,7.467a1.381,1.381,0,0,0,.5,1.886,1.516,1.516,0,0,0,.267.119c3.571,1.034,6.79,1.814,11.211,3.186,5.217,1.613,3.7,1.828,9.81,3.81,3.681,1.189,5.655-2.8,4.151-3.494-6.9-3.117-6.971-5.513-8.946-8.936A3.32,3.32,0,0,0,96.188,393.455Z" transform="translate(-80.927 -390.376)" fill="#263238"/>
              </g>
              <path id="Path_136242" data-name="Path 136242" d="M88.511,384.647l8.225,4.157,3.094-7.059-8.867-4.374Z" transform="translate(-80.714 -377.371)" fill="#263238" opacity="0.2"/>
            </g>
            <path id="Path_136243" data-name="Path 136243" d="M125.739,240.85s-11.053,8.444-8.686,34.882c.219,2.446,1.011,5.007,1.021,7.807.008,1.858-.51,3.163-1.119,7.344-.887,6.091-2.513,28.782-4.223,31.733-1.693,2.921-2.416,2.433-7.24,10.573C100.3,341.945,93.672,357.3,88.5,383.343a29.057,29.057,0,0,0,11.549,4.835S128.3,343.645,134.3,327.066c5.372-14.835,11.773-62.177,11.773-62.177l.517-20.526Z" transform="translate(-80.714 -149.496)" fill="#222"/>
            <path id="Path_136244" data-name="Path 136244" d="M136.713,274.78h-8s-2.63,25.162,6.064,46.162c.91-3.371,1.827-7.416,2.72-11.779L140.952,287c-.491-3.745-.877-6.6-.934-6.79C139.844,279.624,136.713,274.78,136.713,274.78Z" transform="translate(-79.597 -148.544)" opacity="0.1"/>
            <g id="Group_303821" data-name="Group 303821" transform="translate(52.304 237.811)">
              <path id="Path_136245" data-name="Path 136245" d="M135.2,383.31l.053,16.129,9.1-.609,1.4-15.52Z" transform="translate(-131.708 -383.31)" fill="#b97964"/>
              <g id="Group_303820" data-name="Group 303820" transform="translate(0 10.907)">
                <path id="Path_136246" data-name="Path 136246" d="M145.127,398.2a.235.235,0,0,1-.187-.177.223.223,0,0,1,.1-.237c.142-.088,3.368-2.087,4.96-1.71a1.17,1.17,0,0,1,.723.5.842.842,0,0,1,.051.973c-.37.518-1.576.776-2.749.818A16.659,16.659,0,0,1,145.127,398.2Zm.713-.326c1.764.154,4.145.055,4.561-.576.061-.078.114-.215-.062-.487a.622.622,0,0,0-.45-.3,1.51,1.51,0,0,0-.43-.04A10.349,10.349,0,0,0,145.841,397.877Z" transform="translate(-131.435 -393.86)" fill="#407bff"/>
                <path id="Path_136247" data-name="Path 136247" d="M145.009,398.253a.221.221,0,0,1-.107-.2c.008-.119.169-2.674,1.336-3.706a1.66,1.66,0,0,1,1.231-.426c.619.039.821.343.854.6.239,1.055-1.956,3.183-3.068,3.724a.127.127,0,0,1-.093.011A.205.205,0,0,1,145.009,398.253Zm2.325-3.9a1.166,1.166,0,0,0-.762.309,5.255,5.255,0,0,0-1.15,2.939c1.145-.734,2.575-2.389,2.5-3.027-.02-.057-.051-.218-.454-.237l-.129.015Z" transform="translate(-131.436 -393.919)" fill="#407bff"/>
                <path id="Path_136248" data-name="Path 136248" d="M144.484,396.892l-10.305.368a.831.831,0,0,0-.787.677l-1.563,8.451A1.379,1.379,0,0,0,132.923,408a1.4,1.4,0,0,0,.292.025c3.712-.2,7.009-.519,11.634-.677,5.458-.193,4.1.509,10.517.37,3.868-.086,4.419-4.507,2.772-4.664-7.537-.676-8.4-2.915-11.388-5.5A3.321,3.321,0,0,0,144.484,396.892Z" transform="translate(-131.803 -393.836)" fill="#263238"/>
              </g>
              <path id="Path_136249" data-name="Path 136249" d="M135.227,391.653l9.789-.2.732-8.138H135.2Z" transform="translate(-131.708 -383.31)" fill="#263238" opacity="0.2"/>
            </g>
            <path id="Path_136250" data-name="Path 136250" d="M130.867,237.971s-11.026,14.608-2.858,43.212L137.23,322.9s-8.777,18.982-4.143,69.047a42.354,42.354,0,0,0,13.617-.3s10.267-52.876,11.83-70.738c1.72-19.671.689-78.982.689-78.982Z" transform="translate(-79.69 -149.577)" fill="#222"/>
            <g id="Group_303822" data-name="Group 303822" transform="translate(57.747 36.157)">
              <path id="Path_136251" data-name="Path 136251" d="M137.195,192.076s-1.709-7.3,9.246-4.108,10.042,9.433,10.042,9.433Z" transform="translate(-137.098 -187.159)" fill="#263238"/>
              <path id="Path_136252" data-name="Path 136252" d="M137.195,192.076s-1.709-7.3,9.246-4.108,10.042,9.433,10.042,9.433Z" transform="translate(-137.098 -187.159)" fill="#0271a6"/>
            </g>
            <path id="Path_136253" data-name="Path 136253" d="M164.74,210.225c0,2.56-1.079,6.261-2.047,10.4-.472,1.964-.9,4.009-1.192,6.086-1.553,11.319-2.056,23.224-2.056,23.224a45.1,45.1,0,0,1-35.3-7s4.309-3.65,3.423-28.929c-.4-11.391-4.512-24.93,14.311-22.8,15.895,1.8,21.241,6.734,22.526,14.454.009.093.031.2.051.3.031.236.062.473.093.72A30.125,30.125,0,0,1,164.74,210.225Z" transform="translate(-79.714 -150.895)" fill="#60a6df"/>
            <path id="Path_136254" data-name="Path 136254" d="M163.923,209.964c0,2.56-1.079,6.261-2.047,10.4-4.3-5.171-8.6-14.855-8.6-14.855l3.547-5.223,6.252,2.909a18.76,18.76,0,0,1,.514,2.2c.009.093.031.2.051.3.031.236.062.473.093.72A30.125,30.125,0,0,1,163.923,209.964Z" transform="translate(-78.897 -150.634)" opacity="0.4"/>
            <path id="Path_136255" data-name="Path 136255" d="M170.123,205.464s6.116,6.086,8.607,8.54l21.327-6.394h0a5.564,5.564,0,0,1,4.144-4.7l1.506-.383,3.205-.884a3.526,3.526,0,0,1,3.411.888h0a3.525,3.525,0,0,1,.721,4h0a8.735,8.735,0,0,1-6.989,5l-3.018.324S184,222.247,177.874,221.67s-14.177-7.945-14.177-7.945Z" transform="translate(-78.605 -150.599)" fill="#b97964"/>
            <path id="Path_136256" data-name="Path 136256" d="M155.218,194.593c5.262.77,10.637,4.953,18.984,12.34a25.554,25.554,0,0,1-8.826,10.194s-4.869-2.13-10.663-9.5C147.7,198.7,151.993,194.121,155.218,194.593Z" transform="translate(-78.963 -150.795)" fill="#60a6df"/>
          </g>
        </g>
      </g>
      <rect id="Rectangle_161226" data-name="Rectangle 161226" width="570" height="2.189" transform="translate(753 1257)" fill="#345870"/>
    </g>
    <path id="Icon_awesome-android" data-name="Icon awesome-android" d="M5.252,11.24v6.036a1.428,1.428,0,0,1-1.433,1.444A1.556,1.556,0,0,1,2.25,17.275V11.24A1.555,1.555,0,0,1,3.819,9.806,1.439,1.439,0,0,1,5.252,11.24Zm.563,8.183a1.539,1.539,0,0,0,1.543,1.543H8.4l.016,3.185a1.439,1.439,0,0,0,2.877,0V20.966h1.939V24.15a1.446,1.446,0,0,0,2.893,0V20.966h1.053A1.537,1.537,0,0,0,18.7,19.423V10.072H5.815v9.351ZM18.741,9.567H5.758A5.858,5.858,0,0,1,9.073,4.386l-1-1.84a.2.2,0,1,1,.349-.2L9.438,4.2a7.042,7.042,0,0,1,5.645,0l1.006-1.85a.2.2,0,1,1,.349.2l-1,1.835a5.871,5.871,0,0,1,3.3,5.181Zm-8.9-2.893A.547.547,0,0,0,9.3,6.127a.548.548,0,0,0,0,1.095A.547.547,0,0,0,9.844,6.674Zm5.911,0a.54.54,0,1,0-.532.547A.544.544,0,0,0,15.755,6.674ZM20.7,9.806a1.429,1.429,0,0,0-1.433,1.433v6.036A1.438,1.438,0,0,0,20.7,18.719a1.552,1.552,0,0,0,1.569-1.444V11.24A1.543,1.543,0,0,0,20.7,9.806Z" transform="translate(1005.75 951.756)" fill="#fff"/>
    <path id="Icon_metro-apple" data-name="Icon metro-apple" d="M22.641,15.37a5.724,5.724,0,0,1,2.731-4.817,5.908,5.908,0,0,0-4.626-2.507c-1.97-.2-3.844,1.16-4.844,1.16s-2.54-1.13-4.174-1.1a6.19,6.19,0,0,0-5.233,3.172c-2.231,3.871-.571,9.607,1.6,12.746,1.063,1.537,2.33,3.263,3.993,3.2,1.6-.064,2.208-1.037,4.145-1.037s2.481,1.037,4.176,1c1.724-.032,2.816-1.566,3.871-3.108a13.945,13.945,0,0,0,1.752-3.6,5.587,5.587,0,0,1-3.395-5.117Zm-3.185-9.4a5.575,5.575,0,0,0,1.316-4.04,5.671,5.671,0,0,0-3.726,1.916A5.3,5.3,0,0,0,15.7,7.758,4.692,4.692,0,0,0,19.455,5.968Z" transform="translate(1189.077 1001.523)" fill="#fff"/>
  </g>
</svg>
