<svg width="632" height="429" viewBox="0 0 632 429" fill="none" xmlns="http://www.w3.org/2000/svg">
<path d="M544.482 200.964V184.44C544.482 183.636 544.163 182.865 543.595 182.297C543.027 181.729 542.256 181.41 541.452 181.41H535.847C535.085 178.877 534.067 176.428 532.809 174.102L537.869 169.045C538.437 168.476 538.756 167.706 538.756 166.902C538.756 166.099 538.437 165.328 537.869 164.759L526.184 153.074C525.615 152.506 524.845 152.188 524.041 152.188C523.238 152.188 522.467 152.506 521.898 153.074L516.802 158.194C514.769 157.104 512.642 156.2 510.446 155.492V149.637C510.445 148.834 510.126 148.064 509.558 147.496C508.99 146.928 508.22 146.608 507.416 146.607H490.888C490.084 146.607 489.314 146.927 488.746 147.495C488.177 148.063 487.858 148.834 487.858 149.637V155.026C485.615 155.648 483.432 156.47 481.336 157.483L476.398 152.541C475.83 151.973 475.059 151.654 474.255 151.654C473.452 151.654 472.681 151.973 472.112 152.541L460.431 164.226C460.149 164.507 459.926 164.841 459.774 165.209C459.621 165.577 459.543 165.971 459.543 166.369C459.543 166.767 459.621 167.161 459.774 167.529C459.926 167.897 460.149 168.231 460.431 168.512L464.701 172.782C463.09 175.499 461.815 178.401 460.905 181.426H455.295C454.492 181.426 453.721 181.745 453.153 182.313C452.585 182.881 452.266 183.652 452.266 184.455V200.964C452.265 201.362 452.343 201.756 452.495 202.124C452.647 202.492 452.87 202.826 453.152 203.108C453.433 203.389 453.768 203.612 454.135 203.764C454.503 203.916 454.897 203.994 455.295 203.994H460.905C461.646 206.464 462.632 208.854 463.848 211.128L460.976 213.996C460.409 214.565 460.09 215.336 460.09 216.139C460.09 216.943 460.409 217.713 460.976 218.282L472.661 229.967C473.23 230.535 474.001 230.854 474.804 230.854C475.608 230.854 476.378 230.535 476.947 229.967L479.776 227.139C482.339 228.524 485.05 229.616 487.858 230.394V235.782C487.858 236.18 487.937 236.574 488.089 236.942C488.241 237.309 488.464 237.643 488.746 237.925C489.027 238.206 489.361 238.429 489.729 238.581C490.096 238.734 490.49 238.812 490.888 238.812H507.412C508.216 238.811 508.985 238.491 509.553 237.923C510.121 237.355 510.441 236.585 510.442 235.782V229.932C513.187 229.039 515.824 227.847 518.307 226.376L521.353 229.418C521.634 229.7 521.968 229.923 522.336 230.075C522.704 230.228 523.098 230.306 523.496 230.306C523.894 230.306 524.288 230.228 524.656 230.075C525.024 229.923 525.358 229.7 525.639 229.418L537.32 217.733C537.602 217.452 537.826 217.119 537.978 216.751C538.131 216.384 538.21 215.99 538.21 215.592C538.21 215.194 538.131 214.8 537.978 214.433C537.826 214.065 537.602 213.732 537.32 213.451L533.611 209.738C534.505 207.885 535.253 205.964 535.847 203.994H541.452C541.85 203.994 542.245 203.916 542.612 203.764C542.98 203.612 543.314 203.389 543.596 203.108C543.877 202.826 544.1 202.492 544.253 202.124C544.405 201.756 544.483 201.362 544.482 200.964Z" fill="#CCE5FF"/>
<path d="M515.171 209.519C524.45 200.239 524.45 185.194 515.171 175.915C505.891 166.636 490.847 166.636 481.567 175.915C472.288 185.194 472.288 200.239 481.567 209.519C490.847 218.798 505.891 218.798 515.171 209.519Z" fill="white"/>
<path d="M98.3125 416.453C128.861 416.453 153.625 414.223 153.625 411.472C153.625 408.72 128.861 406.49 98.3125 406.49C67.7643 406.49 43 408.72 43 411.472C43 414.223 67.7643 416.453 98.3125 416.453Z" fill="#B1D3F4"/>
<path d="M278.253 401.908C369.83 401.908 444.068 398.192 444.068 393.608C444.068 389.024 369.83 385.309 278.253 385.309C186.675 385.309 112.438 389.024 112.438 393.608C112.438 398.192 186.675 401.908 278.253 401.908Z" fill="#B1D3F4"/>
<path d="M384.369 84.7298V64.3184C384.369 63.3252 383.975 62.3726 383.272 61.6703C382.57 60.968 381.617 60.5735 380.624 60.5735H373.695C372.756 57.4436 371.5 54.4178 369.946 51.543L376.196 45.2936C376.897 44.5914 377.291 43.6395 377.291 42.6469C377.291 41.6543 376.897 40.7024 376.196 40.0002L361.761 25.5696C361.059 24.8681 360.107 24.4741 359.115 24.4741C358.122 24.4741 357.17 24.8681 356.468 25.5696L350.147 31.8902C347.634 30.5456 345.006 29.4285 342.294 28.5522V21.323C342.295 20.8311 342.198 20.3439 342.01 19.8893C341.822 19.4347 341.546 19.0217 341.198 18.6738C340.85 18.326 340.438 18.0501 339.983 17.8621C339.528 17.6741 339.041 17.5776 338.549 17.5781H318.138C317.145 17.5781 316.192 17.9727 315.49 18.675C314.787 19.3773 314.393 20.3298 314.393 21.323V27.9793C311.623 28.7477 308.928 29.7617 306.338 31.0092L300.239 24.9099C299.536 24.2082 298.583 23.8141 297.59 23.8141C296.597 23.8141 295.644 24.2082 294.941 24.9099L280.507 39.3444C279.805 40.0466 279.412 40.9986 279.412 41.9911C279.412 42.9837 279.805 43.9357 280.507 44.6379L285.789 49.9155C283.795 53.2663 282.219 56.8481 281.096 60.5814H274.167C273.675 60.5809 273.188 60.6774 272.733 60.8654C272.278 61.0534 271.865 61.3292 271.517 61.6771C271.17 62.0249 270.894 62.438 270.706 62.8926C270.518 63.3472 270.421 63.8344 270.422 64.3263V84.7377C270.421 85.2296 270.518 85.7168 270.706 86.1714C270.894 86.626 271.17 87.039 271.517 87.3869C271.865 87.7347 272.278 88.0105 272.733 88.1985C273.188 88.3866 273.675 88.4831 274.167 88.4826H281.096C282.013 91.5326 283.231 94.4837 284.734 97.2918L281.179 100.847C280.477 101.549 280.083 102.501 280.083 103.494C280.083 104.486 280.477 105.438 281.179 106.141L295.613 120.575C295.96 120.923 296.373 121.2 296.827 121.388C297.281 121.577 297.768 121.674 298.26 121.674C298.751 121.674 299.239 121.577 299.693 121.388C300.147 121.2 300.559 120.923 300.907 120.575L304.399 117.083C307.566 118.794 310.916 120.143 314.385 121.104V127.761C314.386 128.754 314.781 129.706 315.483 130.408C316.185 131.11 317.137 131.505 318.13 131.506H338.541C339.535 131.506 340.487 131.111 341.189 130.409C341.892 129.706 342.286 128.754 342.286 127.761V120.532C345.68 119.432 348.94 117.959 352.008 116.139L355.769 119.9C356.471 120.601 357.423 120.995 358.415 120.995C359.408 120.995 360.36 120.601 361.062 119.9L375.497 105.465C376.198 104.763 376.592 103.811 376.592 102.818C376.592 101.826 376.198 100.874 375.497 100.172L370.91 95.5892C372.02 93.2963 372.944 90.9186 373.676 88.4786H380.604C381.098 88.4812 381.588 88.3862 382.044 88.1989C382.501 88.0116 382.917 87.7358 383.267 87.3873C383.617 87.0389 383.894 86.6247 384.083 86.1686C384.273 85.7125 384.369 85.2235 384.369 84.7298Z" fill="#CCE5FF"/>
<path d="M348.162 95.2806C359.625 83.8168 359.625 65.2303 348.162 53.7665C336.698 42.3027 318.111 42.3027 306.648 53.7665C295.184 65.2303 295.184 83.8167 306.648 95.2805C318.111 106.744 336.698 106.744 348.162 95.2806Z" fill="white"/>
<path d="M320.017 312.773H238.344V378.467H320.017V312.773Z" fill="#8EBEED"/>
<path d="M351.305 394.351H207.047V388.121C207.048 385.562 208.065 383.107 209.876 381.297C211.686 379.487 214.142 378.471 216.701 378.471H341.65C344.21 378.471 346.665 379.487 348.476 381.297C350.286 383.107 351.304 385.562 351.305 388.121V394.351Z" fill="#6BA5DE"/>
<path d="M111.547 293.061V157.276C111.547 146.116 115.98 135.412 123.871 127.521C131.762 119.629 142.465 115.194 153.626 115.193H404.74C415.901 115.194 426.604 119.628 434.496 127.52C442.388 135.412 446.822 146.115 446.823 157.276V293.061C446.822 304.221 442.388 314.924 434.496 322.815C426.604 330.707 415.901 335.14 404.74 335.14H153.626C142.466 335.14 131.763 330.706 123.871 322.815C115.98 314.924 111.547 304.221 111.547 293.061Z" fill="#6BA5DE"/>
<path d="M409.691 326.849H148.666C141.017 326.849 133.682 323.811 128.274 318.403C122.866 312.995 119.828 305.66 119.828 298.012V152.316C119.828 144.668 122.866 137.333 128.274 131.925C133.682 126.517 141.017 123.479 148.666 123.479H409.691C417.339 123.479 424.674 126.517 430.082 131.925C435.49 137.333 438.529 144.668 438.529 152.316V298.012C438.529 305.66 435.49 312.995 430.082 318.403C424.674 323.811 417.339 326.849 409.691 326.849Z" fill="white"/>
<path opacity="0.19" d="M457.861 299.965H167.322C164.585 299.965 161.874 299.426 159.344 298.378C156.815 297.33 154.517 295.794 152.581 293.858C150.645 291.922 149.11 289.624 148.062 287.094C147.015 284.564 146.476 281.853 146.477 279.115V118.641C146.477 110.504 149.709 102.7 155.463 96.9456C161.217 91.1916 169.021 87.959 177.159 87.959H457.861C463.39 87.959 468.693 90.1551 472.603 94.0644C476.513 97.9736 478.71 103.276 478.711 108.805V279.115C478.711 284.645 476.514 289.948 472.604 293.858C468.694 297.769 463.391 299.965 457.861 299.965Z" fill="#216CB5"/>
<path d="M465.295 293.102H174.756C169.227 293.102 163.924 290.906 160.014 286.996C156.104 283.087 153.907 277.785 153.906 272.256V111.782C153.906 103.643 157.139 95.8382 162.894 90.0834C168.649 84.3287 176.454 81.0957 184.592 81.0957H465.295C470.824 81.0968 476.126 83.2939 480.035 87.2039C483.945 91.1138 486.141 96.4165 486.141 101.945V272.256C486.14 277.784 483.943 283.086 480.034 286.995C476.125 290.904 470.823 293.101 465.295 293.102Z" fill="#B1D3F4"/>
<path d="M486.141 112.521V104.644C486.141 91.608 477.138 81.0605 466.03 81.0605H174.021C162.913 81.0605 153.906 91.6198 153.906 104.644V112.521H486.141Z" fill="#8EBEED"/>
<path d="M174.781 103.794C178.625 103.794 181.741 100.678 181.741 96.8335C181.741 92.9894 178.625 89.873 174.781 89.873C170.937 89.873 167.82 92.9894 167.82 96.8335C167.82 100.678 170.937 103.794 174.781 103.794Z" fill="white"/>
<path d="M202.164 103.794C206.008 103.794 209.124 100.678 209.124 96.8335C209.124 92.9894 206.008 89.873 202.164 89.873C198.319 89.873 195.203 92.9894 195.203 96.8335C195.203 100.678 198.319 103.794 202.164 103.794Z" fill="white"/>
<path d="M228.14 103.794C231.984 103.794 235.101 100.678 235.101 96.8335C235.101 92.9894 231.984 89.873 228.14 89.873C224.296 89.873 221.18 92.9894 221.18 96.8335C221.18 100.678 224.296 103.794 228.14 103.794Z" fill="white"/>
<path d="M412.761 138.152L417.639 161.783L387.992 163.719L389.774 139.63L412.761 138.152Z" fill="#3E3E5D"/>
<path d="M402.208 137.41L397.716 167.701C397.631 168.279 397.432 168.835 397.131 169.337C396.831 169.839 396.435 170.276 395.965 170.625C395.496 170.973 394.962 171.226 394.395 171.368C393.828 171.51 393.238 171.539 392.66 171.454L380.71 169.684C375.842 168.96 371.461 166.333 368.53 162.381C365.598 158.428 364.355 153.473 365.075 148.605L365.43 146.235C366.154 141.368 368.78 136.988 372.732 134.056C376.684 131.124 381.637 129.881 386.505 130.599L398.455 132.369C399.619 132.544 400.667 133.172 401.37 134.116C402.073 135.06 402.374 136.244 402.208 137.41Z" fill="white"/>
<path d="M388.444 162.27C395.421 159.572 398.891 151.728 396.192 144.75C393.494 137.773 385.651 134.303 378.673 137.001C371.696 139.7 368.226 147.543 370.924 154.521C373.622 161.498 381.466 164.968 388.444 162.27Z" fill="#3E3E5D"/>
<path d="M430.73 134.585L436.406 158.064L464.494 151.275L458.818 127.795L430.73 134.585Z" fill="#3E3E5D"/>
<path d="M441.491 129.263L406.727 135.455L411.753 163.671L446.517 157.478L441.491 129.263Z" fill="white"/>
<path d="M478.215 126.885L480.664 147.229C480.757 148.03 480.687 148.841 480.455 149.614C480.224 150.386 479.838 151.103 479.321 151.721C478.803 152.339 478.164 152.845 477.445 153.207C476.725 153.57 475.938 153.782 475.134 153.83L453.498 155.087L450.898 124.428L471.578 121.734C472.353 121.634 473.139 121.689 473.892 121.894C474.645 122.099 475.351 122.451 475.967 122.93C476.584 123.409 477.1 124.005 477.486 124.683C477.872 125.362 478.119 126.11 478.215 126.885Z" fill="white"/>
<path d="M467.159 115.682L466.483 114.67C466.239 114.305 465.859 114.052 465.428 113.966C464.997 113.88 464.55 113.968 464.184 114.212L454.288 120.833C453.924 121.077 453.671 121.456 453.586 121.886C453.501 122.317 453.59 122.763 453.834 123.128L454.51 124.139C454.753 124.504 455.132 124.758 455.562 124.844C455.993 124.93 456.44 124.841 456.805 124.597L466.681 117.981C466.863 117.862 467.021 117.707 467.144 117.527C467.267 117.347 467.353 117.144 467.398 116.931C467.442 116.717 467.444 116.497 467.403 116.282C467.362 116.068 467.279 115.864 467.159 115.682Z" fill="#3E3E5D"/>
<path d="M455.748 117.51L459.994 125.41L454.985 128.105C454.606 128.308 454.191 128.436 453.763 128.479C453.336 128.523 452.903 128.481 452.491 128.358C452.079 128.234 451.696 128.031 451.363 127.759C451.029 127.487 450.753 127.152 450.549 126.773L449.407 124.652C448.995 123.887 448.904 122.989 449.154 122.156C449.403 121.324 449.973 120.624 450.739 120.212L455.748 117.51Z" fill="white"/>
<path d="M460.75 116.506L463.962 116.68L463.44 120.156" stroke="white" stroke-width="1.4" stroke-miterlimit="10"/>
<path d="M491.593 123.47L491.281 122.285C491.171 121.86 490.896 121.497 490.517 121.275C490.139 121.052 489.687 120.99 489.262 121.1L477.747 124.126C477.536 124.181 477.339 124.277 477.165 124.408C476.991 124.539 476.845 124.704 476.735 124.891C476.625 125.079 476.553 125.287 476.523 125.503C476.494 125.719 476.507 125.938 476.562 126.149L476.87 127.334C476.925 127.545 477.021 127.743 477.152 127.916C477.283 128.09 477.448 128.236 477.635 128.346C477.823 128.456 478.031 128.528 478.247 128.558C478.463 128.587 478.682 128.574 478.893 128.519L490.408 125.493C490.619 125.438 490.817 125.343 490.99 125.211C491.164 125.08 491.31 124.916 491.42 124.728C491.53 124.54 491.602 124.332 491.632 124.116C491.662 123.9 491.648 123.681 491.593 123.47Z" fill="#3E3E5D"/>
<path d="M480.222 121.48L481.66 130.325L476.046 131.234C475.622 131.303 475.188 131.288 474.769 131.19C474.351 131.091 473.956 130.911 473.607 130.66C473.258 130.409 472.962 130.091 472.736 129.725C472.51 129.359 472.358 128.952 472.289 128.528L471.894 126.158C471.825 125.733 471.84 125.299 471.938 124.88C472.037 124.461 472.217 124.066 472.468 123.717C472.719 123.367 473.037 123.071 473.403 122.845C473.769 122.618 474.176 122.466 474.6 122.397L480.222 121.48Z" fill="white"/>
<path d="M485.273 122.162L488.252 123.371L486.624 126.492" stroke="white" stroke-width="1.4" stroke-miterlimit="10"/>
<path d="M493.148 132.753L492.84 131.568C492.785 131.357 492.689 131.159 492.558 130.985C492.426 130.811 492.262 130.665 492.074 130.555C491.887 130.445 491.679 130.373 491.463 130.344C491.247 130.314 491.028 130.327 490.817 130.382L479.302 133.408C479.091 133.463 478.893 133.559 478.719 133.69C478.546 133.822 478.4 133.986 478.29 134.174C478.179 134.362 478.108 134.569 478.078 134.785C478.048 135.001 478.061 135.22 478.117 135.431L478.429 136.616C478.483 136.827 478.579 137.024 478.709 137.198C478.84 137.372 479.004 137.518 479.192 137.628C479.379 137.738 479.587 137.81 479.802 137.84C480.018 137.87 480.237 137.856 480.448 137.801L491.963 134.775C492.174 134.72 492.371 134.625 492.545 134.493C492.719 134.362 492.865 134.198 492.975 134.01C493.085 133.822 493.157 133.614 493.187 133.398C493.216 133.183 493.203 132.963 493.148 132.753Z" fill="#3E3E5D"/>
<path d="M481.776 130.758L483.214 139.603L477.6 140.515C477.176 140.584 476.742 140.57 476.323 140.471C475.905 140.373 475.51 140.193 475.161 139.941C474.812 139.69 474.516 139.372 474.29 139.006C474.064 138.64 473.912 138.234 473.843 137.809L473.448 135.439C473.38 135.014 473.395 134.58 473.494 134.162C473.593 133.743 473.773 133.348 474.025 132.999C474.277 132.65 474.595 132.354 474.961 132.128C475.327 131.902 475.734 131.751 476.158 131.682L481.776 130.758Z" fill="white"/>
<path d="M486.82 131.441L489.803 132.654L488.171 135.771" stroke="white" stroke-width="1.4" stroke-miterlimit="10"/>
<path d="M493.843 142.276L493.531 141.091C493.477 140.88 493.381 140.682 493.251 140.509C493.12 140.335 492.956 140.189 492.768 140.079C492.58 139.969 492.373 139.897 492.157 139.867C491.942 139.837 491.723 139.85 491.512 139.906L479.997 142.932C479.786 142.986 479.588 143.082 479.415 143.214C479.241 143.345 479.095 143.509 478.985 143.697C478.875 143.885 478.803 144.093 478.773 144.308C478.744 144.524 478.757 144.744 478.812 144.954L479.12 146.139C479.175 146.35 479.271 146.548 479.402 146.722C479.533 146.896 479.698 147.042 479.886 147.152C480.073 147.262 480.281 147.334 480.497 147.363C480.713 147.393 480.932 147.38 481.143 147.324L492.658 144.299C492.869 144.244 493.067 144.148 493.241 144.017C493.414 143.885 493.56 143.721 493.67 143.533C493.78 143.345 493.852 143.138 493.882 142.922C493.912 142.706 493.898 142.487 493.843 142.276Z" fill="#3E3E5D"/>
<path d="M482.464 140.281L483.902 149.126L478.288 150.039C477.864 150.108 477.43 150.093 477.011 149.994C476.593 149.896 476.198 149.716 475.849 149.465C475.5 149.213 475.204 148.896 474.978 148.53C474.752 148.164 474.6 147.757 474.532 147.333L474.137 144.962C474.067 144.538 474.082 144.104 474.181 143.685C474.279 143.267 474.459 142.872 474.71 142.523C474.962 142.174 475.28 141.878 475.645 141.652C476.011 141.426 476.418 141.274 476.842 141.206L482.464 140.281Z" fill="white"/>
<path d="M487.516 140.965L490.494 142.178L488.867 145.294" stroke="white" stroke-width="1.4" stroke-miterlimit="10"/>
<path d="M335.596 116.182H319.656V128.033H335.596V116.182Z" fill="#3E3E5D"/>
<path d="M375.901 226.865C341.427 232.139 308.532 232.333 277.206 226.865C276.855 226.864 276.518 226.724 276.27 226.475C276.022 226.227 275.883 225.889 275.883 225.538V155.736C275.883 147.624 279.105 139.845 284.84 134.109C290.576 128.373 298.355 125.149 306.466 125.148H343.935C353.216 125.148 362.116 128.835 368.678 135.397C375.241 141.96 378.927 150.86 378.927 160.14V223.84C378.927 224.642 378.608 225.412 378.041 225.979C377.473 226.547 376.704 226.865 375.901 226.865Z" fill="white"/>
<path d="M286.604 91.8381H287.367C288.133 91.8392 288.893 91.6892 289.601 91.3967C290.31 91.1043 290.954 90.6751 291.497 90.1336C292.04 89.5922 292.471 88.9492 292.766 88.2412C293.06 87.5332 293.212 86.7742 293.213 86.0075V73.6982C293.216 72.9288 293.067 72.1664 292.775 71.4548C292.482 70.7432 292.052 70.0964 291.508 69.5516C290.965 69.0068 290.32 68.5748 289.609 68.2804C288.898 67.9859 288.136 67.8349 287.367 67.8359H286.604C285.056 67.8359 283.571 68.4511 282.476 69.546C281.381 70.641 280.766 72.1261 280.766 73.6745V86.0075C280.768 87.5546 281.384 89.0376 282.478 90.1308C283.573 91.2241 285.057 91.8381 286.604 91.8381Z" fill="#3E3E5D"/>
<path d="M367.878 91.8381H368.668C370.216 91.8381 371.701 91.223 372.796 90.128C373.891 89.0331 374.506 87.548 374.506 85.9995V73.6903C374.508 72.9222 374.359 72.1613 374.066 71.4511C373.774 70.7409 373.344 70.0955 372.802 69.5516C372.259 69.0078 371.615 68.5763 370.906 68.2819C370.196 67.9875 369.436 67.8359 368.668 67.8359H367.878C366.329 67.8359 364.844 68.4511 363.749 69.546C362.654 70.641 362.039 72.126 362.039 73.6745V86.0074C362.041 87.5546 362.657 89.0376 363.752 90.1308C364.847 91.2241 366.33 91.8381 367.878 91.8381Z" fill="#3E3E5D"/>
<path d="M327.401 120.261C349.969 120.261 368.263 101.967 368.263 79.3993C368.263 56.8317 349.969 38.5371 327.401 38.5371C304.834 38.5371 286.539 56.8317 286.539 79.3993C286.539 101.967 304.834 120.261 327.401 120.261Z" fill="white"/>
<path d="M346.543 87.841H308.225C305.291 87.841 302.478 86.6757 300.404 84.6013C298.329 82.527 297.164 79.7136 297.164 76.7801V75.3422C297.164 72.4086 298.329 69.5953 300.404 67.5209C302.478 65.4466 305.291 64.2813 308.225 64.2813H346.543C349.477 64.2812 352.29 65.4466 354.364 67.5209C356.439 69.5953 357.604 72.4086 357.604 75.3422V76.7801C357.604 79.7136 356.439 82.527 354.364 84.6013C352.29 86.6757 349.477 87.841 346.543 87.841Z" fill="#3E3E5D"/>
<path d="M320.378 77.3027C321.054 74.4383 319.28 71.5682 316.416 70.8922C313.552 70.2161 310.681 71.99 310.005 74.8544C309.329 77.7189 311.103 80.5891 313.968 81.2651C316.832 81.9412 319.702 80.1671 320.378 77.3027Z" fill="white"/>
<path d="M351.469 79.8384C353.55 77.7573 353.55 74.3832 351.469 72.3021C349.387 70.221 346.013 70.221 343.932 72.3021C341.851 74.3832 341.851 77.7574 343.932 79.8385C346.013 81.9196 349.388 81.9195 351.469 79.8384Z" fill="white"/>
<path d="M332.001 134.922H323.255C320.822 134.922 318.488 133.955 316.767 132.235C315.047 130.515 314.079 128.182 314.078 125.749V125.148H341.174V125.749C341.173 128.181 340.206 130.514 338.486 132.234C336.766 133.954 334.433 134.92 332.001 134.922Z" fill="#3E3E5D"/>
<path d="M319.041 143.475H324.591L331.03 163.989H326.123L323.441 153.599C322.868 151.549 322.323 149.124 321.774 146.983H321.66C321.166 149.147 320.617 151.549 320.048 153.599L317.35 163.989H312.609L319.041 143.475ZM316.844 155.495H326.72V159.102H316.844V155.495Z" fill="#3E3E5D"/>
<path d="M332.992 143.475H337.63V163.989H332.992V143.475Z" fill="#3E3E5D"/>
<path d="M268.501 153.296L258.242 131.426L236.526 141.612L246.785 163.482L268.501 153.296Z" fill="#3E3E5D"/>
<path d="M262.214 162.882L249.213 135.155C248.964 134.625 248.821 134.052 248.794 133.467C248.767 132.882 248.855 132.298 249.054 131.748C249.253 131.197 249.558 130.691 249.953 130.259C250.348 129.827 250.824 129.477 251.354 129.229L262.289 124.094C266.744 122.007 271.846 121.775 276.473 123.447C281.1 125.12 284.874 128.561 286.966 133.014L287.993 135.202C290.08 139.658 290.312 144.76 288.64 149.387C286.967 154.014 283.527 157.788 279.074 159.88L268.139 165.015C267.07 165.517 265.846 165.575 264.735 165.175C263.624 164.775 262.717 163.95 262.214 162.882Z" fill="white"/>
<path d="M280.657 151.996C285.947 146.706 285.947 138.13 280.657 132.84C275.367 127.55 266.79 127.55 261.5 132.84C256.21 138.13 256.21 146.706 261.5 151.996C266.79 157.286 275.367 157.286 280.657 151.996Z" fill="#3E3E5D"/>
<path d="M240.897 168.497L223.219 152.035L206.872 169.589L224.551 186.051L240.897 168.497Z" fill="#3E3E5D"/>
<path d="M201.391 210.971L185.258 196.41L200.06 176.959L217.737 193.42L201.391 210.971Z" fill="#3E3E5D"/>
<path d="M238.046 136.932L218.078 154.395L236.945 175.968L256.913 158.506L238.046 136.932Z" fill="white"/>
<path d="M212.705 159.326L188.641 185.168L209.615 204.699L233.679 178.857L212.705 159.326Z" fill="white"/>
<path d="M192.088 222.973L178.088 215.637C177.537 215.348 177.052 214.949 176.661 214.466C176.27 213.982 175.983 213.423 175.816 212.824C175.649 212.225 175.606 211.598 175.691 210.982C175.775 210.366 175.985 209.774 176.306 209.242L184.966 194.941L205.586 206.694L198.258 221.01C197.984 221.546 197.607 222.022 197.147 222.411C196.688 222.8 196.156 223.095 195.582 223.277C195.009 223.46 194.405 223.527 193.805 223.475C193.205 223.422 192.622 223.252 192.088 222.973Z" fill="white"/>
<path d="M204.44 220.838H204.622C205.06 220.843 205.483 220.675 205.797 220.369C206.111 220.063 206.291 219.645 206.297 219.207L206.408 210.781C206.413 210.342 206.244 209.92 205.938 209.606C205.632 209.292 205.214 209.112 204.776 209.106H204.594C204.377 209.103 204.161 209.142 203.958 209.223C203.756 209.303 203.571 209.423 203.415 209.575C203.26 209.727 203.135 209.908 203.049 210.108C202.964 210.308 202.918 210.523 202.915 210.741L202.805 219.163C202.802 219.381 202.842 219.596 202.923 219.798C203.004 220 203.124 220.184 203.276 220.339C203.428 220.495 203.609 220.619 203.808 220.705C204.008 220.79 204.223 220.836 204.44 220.838Z" fill="#3E3E5D"/>
<path d="M207.881 212.786L201.008 212.035L201.403 208.421C201.498 207.557 201.932 206.767 202.61 206.223C203.288 205.68 204.154 205.427 205.017 205.521L205.377 205.561C206.24 205.656 207.029 206.09 207.573 206.767C208.116 207.444 208.369 208.308 208.276 209.171L207.881 212.786Z" fill="white"/>
<path d="M206.34 216.4L204.827 218.368L202.844 216.515" stroke="white" stroke-width="1.4" stroke-miterlimit="10"/>
<path d="M188.783 233.086L188.953 233.145C189.158 233.219 189.374 233.252 189.592 233.242C189.809 233.232 190.022 233.18 190.219 233.087C190.415 232.995 190.592 232.864 190.738 232.703C190.884 232.542 190.997 232.354 191.071 232.15L193.927 224.221C194 224.017 194.033 223.8 194.022 223.582C194.012 223.365 193.958 223.152 193.866 222.956C193.773 222.759 193.642 222.582 193.481 222.436C193.32 222.29 193.132 222.177 192.927 222.104L192.757 222.041C192.553 221.967 192.336 221.935 192.118 221.945C191.901 221.956 191.688 222.009 191.492 222.102C191.295 222.195 191.119 222.325 190.972 222.486C190.826 222.647 190.713 222.835 190.64 223.04L187.784 230.964C187.636 231.378 187.659 231.834 187.846 232.231C188.033 232.629 188.37 232.936 188.783 233.086Z" fill="#3E3E5D"/>
<path d="M194.664 226.601L188.414 223.65L189.967 220.364C190.334 219.579 190.998 218.972 191.813 218.676C192.627 218.379 193.526 218.418 194.312 218.784L194.636 218.938C195.42 219.306 196.026 219.97 196.322 220.784C196.618 221.599 196.58 222.497 196.216 223.283L194.664 226.601Z" fill="white"/>
<path d="M192.029 229.512L189.956 230.878L188.688 228.477" stroke="white" stroke-width="1.4" stroke-miterlimit="10"/>
<path d="M182.212 230.017L182.381 230.08C182.795 230.228 183.251 230.205 183.648 230.018C184.046 229.831 184.353 229.494 184.503 229.081L187.355 221.156C187.429 220.952 187.462 220.735 187.452 220.517C187.442 220.3 187.39 220.086 187.297 219.889C187.205 219.692 187.074 219.515 186.913 219.369C186.752 219.222 186.564 219.109 186.359 219.035L186.186 218.976C185.981 218.902 185.764 218.869 185.547 218.879C185.33 218.889 185.117 218.941 184.92 219.034C184.723 219.126 184.547 219.257 184.401 219.418C184.255 219.579 184.141 219.767 184.068 219.971L181.216 227.9C181.142 228.104 181.109 228.321 181.119 228.538C181.129 228.755 181.182 228.968 181.274 229.165C181.367 229.362 181.497 229.538 181.658 229.685C181.819 229.831 182.007 229.944 182.212 230.017Z" fill="#3E3E5D"/>
<path d="M188.085 223.536L181.836 220.581L183.388 217.295C183.76 216.513 184.425 215.911 185.239 215.618C186.053 215.326 186.95 215.368 187.734 215.734L188.062 215.888C188.846 216.256 189.453 216.92 189.75 217.735C190.046 218.549 190.007 219.448 189.642 220.234L188.085 223.536Z" fill="white"/>
<path d="M185.44 226.443L183.37 227.81L182.102 225.412" stroke="white" stroke-width="1.4" stroke-miterlimit="10"/>
<path d="M175.852 226.293L176.022 226.352C176.227 226.426 176.444 226.459 176.662 226.449C176.879 226.44 177.092 226.387 177.289 226.294C177.486 226.202 177.663 226.071 177.81 225.911C177.956 225.75 178.07 225.561 178.144 225.357L180.996 217.428C181.07 217.224 181.103 217.007 181.093 216.79C181.083 216.573 181.03 216.36 180.938 216.163C180.845 215.966 180.715 215.79 180.554 215.643C180.393 215.497 180.205 215.384 180 215.311L179.826 215.248C179.622 215.174 179.405 215.142 179.187 215.152C178.97 215.163 178.757 215.216 178.561 215.309C178.364 215.402 178.188 215.532 178.042 215.693C177.895 215.854 177.782 216.042 177.709 216.247L174.857 224.172C174.783 224.376 174.75 224.593 174.76 224.811C174.769 225.028 174.822 225.242 174.915 225.439C175.007 225.636 175.138 225.813 175.298 225.959C175.459 226.106 175.648 226.219 175.852 226.293Z" fill="#3E3E5D"/>
<path d="M181.726 219.807L175.477 216.856L177.029 213.569C177.398 212.785 178.062 212.179 178.876 211.883C179.69 211.587 180.588 211.625 181.374 211.989L181.702 212.143C182.484 212.515 183.086 213.18 183.379 213.994C183.671 214.808 183.629 215.705 183.263 216.489L181.726 219.807Z" fill="white"/>
<path d="M179.096 222.717L177.026 224.083L175.758 221.686" stroke="white" stroke-width="1.4" stroke-miterlimit="10"/>
<path d="M481.567 151.277L474.378 153.315C473.875 153.459 473.348 153.502 472.829 153.441C472.309 153.381 471.807 153.219 471.35 152.965C470.893 152.71 470.491 152.368 470.167 151.957C469.842 151.547 469.602 151.077 469.459 150.574L459.106 114.105C458.962 113.602 458.919 113.075 458.98 112.556C459.04 112.036 459.202 111.534 459.456 111.077C459.711 110.62 460.053 110.218 460.463 109.894C460.874 109.569 461.344 109.329 461.847 109.186L469.037 107.144C469.541 107.002 470.069 106.96 470.59 107.022C471.111 107.084 471.615 107.248 472.072 107.505C472.529 107.762 472.931 108.107 473.255 108.519C473.579 108.932 473.818 109.404 473.959 109.909L484.313 146.375C484.595 147.389 484.465 148.473 483.951 149.392C483.436 150.31 482.579 150.988 481.567 151.277Z" fill="#216CB5"/>
<path d="M473.61 109.109L458.994 113.261C458.73 113.336 458.455 113.359 458.182 113.327C457.91 113.295 457.647 113.21 457.407 113.077C457.168 112.943 456.957 112.764 456.788 112.548C456.618 112.333 456.492 112.087 456.418 111.823L455.182 107.477C455.106 107.214 455.084 106.938 455.115 106.665C455.147 106.393 455.232 106.129 455.366 105.889C455.499 105.65 455.679 105.439 455.894 105.269C456.109 105.099 456.356 104.973 456.62 104.898L471.236 100.746C471.5 100.671 471.776 100.648 472.048 100.68C472.321 100.711 472.584 100.796 472.824 100.93C473.064 101.063 473.275 101.243 473.445 101.458C473.615 101.673 473.741 101.92 473.815 102.184L475.048 106.529C475.123 106.793 475.146 107.069 475.114 107.342C475.083 107.614 474.998 107.878 474.864 108.117C474.731 108.357 474.551 108.568 474.336 108.738C474.121 108.908 473.874 109.034 473.61 109.109Z" fill="#3E3E5D"/>
<path d="M478.688 99.8344L442.559 110.188C434.52 112.491 426.109 107.241 424.059 98.6414L420.504 83.6895C418.576 75.5952 423.024 67.4931 430.589 65.3323L467.927 54.6348L478.688 99.8344Z" fill="#216CB5"/>
<path d="M456.811 57.777C456.811 57.777 507.975 16.425 508.082 17.5824C508.189 18.7399 534.375 105.13 534.375 105.13L469.254 102.443C457.304 90.6358 453.875 75.518 456.811 57.777Z" fill="#B1D3F4"/>
<path d="M536.456 104.627C545.212 102.141 546.645 80.1739 539.658 55.5618C532.67 30.9496 519.907 13.0128 511.151 15.4988C502.395 17.9848 500.962 39.9521 507.949 64.5642C514.937 89.1763 527.7 107.113 536.456 104.627Z" fill="#3E3E5D"/>
<path d="M534.816 98.9564C534.385 99.0789 531.162 98.2414 526.232 91.3086C521.223 84.2691 516.699 74.18 513.496 62.9018C510.292 51.6236 508.838 40.6575 509.399 32.0379C509.952 23.5486 512.255 21.1429 512.686 21.0204C513.116 20.8979 516.34 21.7354 521.27 28.6682C526.279 35.7077 530.802 45.7969 534.006 57.0751C537.209 68.3532 538.663 79.3194 538.102 87.939C537.549 96.4282 535.246 98.834 534.816 98.9564Z" fill="#B1D3F4"/>
<path d="M527.868 45.7168L509.625 46.1118C511.639 57.3703 514.762 68.402 518.948 79.0457L534.24 69.7545" fill="#216CB5"/>
<path d="M534.547 56.8961C532.789 50.2596 529.806 45.2505 527.859 45.7088C525.911 46.167 525.781 51.9187 527.543 58.5592C529.305 65.1997 532.283 70.2048 534.231 69.7465C536.178 69.2883 536.305 63.5366 534.547 56.8961Z" fill="white"/>
<path d="M551.086 56.901L589.479 45.8164" stroke="#3E3E5D" stroke-width="5.59" stroke-miterlimit="10" stroke-linecap="round"/>
<path d="M543.953 34.887L556.231 25.7578" stroke="#3E3E5D" stroke-width="5.59" stroke-miterlimit="10" stroke-linecap="round"/>
<path d="M552.719 77.8711L569.757 78.914" stroke="#3E3E5D" stroke-width="5.59" stroke-miterlimit="10" stroke-linecap="round"/>
<path opacity="0.19" d="M256.285 261.322H132.802C130.36 261.322 128.018 260.352 126.291 258.625C124.564 256.898 123.594 254.556 123.594 252.114V176.228C123.594 173.786 124.564 171.443 126.291 169.717C128.018 167.99 130.36 167.02 132.802 167.02H256.285C258.727 167.02 261.07 167.99 262.796 169.717C264.523 171.443 265.493 173.786 265.493 176.228V252.114C265.493 254.556 264.523 256.898 262.796 258.625C261.07 260.352 258.727 261.322 256.285 261.322Z" fill="#216CB5"/>
<path d="M261.02 257.849H137.536C135.094 257.848 132.752 256.877 131.025 255.149C129.298 253.422 128.328 251.079 128.328 248.637V175.247C128.328 172.805 129.298 170.462 131.025 168.735C132.752 167.007 135.094 166.036 137.536 166.035H261.02C263.462 166.036 265.804 167.007 267.531 168.735C269.258 170.462 270.228 172.805 270.228 175.247V248.648C270.225 251.089 269.253 253.428 267.527 255.153C265.801 256.878 263.46 257.848 261.02 257.849Z" fill="white"/>
<path d="M270.228 179.633V176.219C270.228 170.578 266.384 166.004 261.636 166.004H136.92C132.18 166.004 128.328 170.578 128.328 176.219V179.633H270.228Z" fill="#83B9EF"/>
<path d="M137.24 175.866C138.883 175.866 140.215 174.517 140.215 172.852C140.215 171.187 138.883 169.838 137.24 169.838C135.597 169.838 134.266 171.187 134.266 172.852C134.266 174.517 135.597 175.866 137.24 175.866Z" fill="white"/>
<path d="M148.932 175.866C150.572 175.866 151.902 174.517 151.902 172.852C151.902 171.187 150.572 169.838 148.932 169.838C147.291 169.838 145.961 171.187 145.961 172.852C145.961 174.517 147.291 175.866 148.932 175.866Z" fill="white"/>
<path d="M160.029 175.866C161.672 175.866 163.004 174.517 163.004 172.852C163.004 171.187 161.672 169.838 160.029 169.838C158.386 169.838 157.055 171.187 157.055 172.852C157.055 174.517 158.386 175.866 160.029 175.866Z" fill="white"/>
<path d="M176.654 193.774L171.681 185.158L166.703 193.774H176.654Z" fill="#EAEFF4"/>
<path d="M182.687 204.23L177.161 194.658H166.191L160.664 204.23H182.687Z" fill="#B1D3F4"/>
<path d="M190.091 217.057L188.894 214.983L183.197 205.115H160.151L154.455 214.983L153.258 217.057H190.091Z" fill="#6BA5DE"/>
<path d="M198.789 232.111L190.607 217.941H152.751L144.57 232.111H198.789Z" fill="#6FA1D2"/>
<path d="M144.068 232.996L137.25 244.808H206.128L199.31 232.996H144.068Z" fill="#216CB5"/>
<path d="M221.791 189.463H217.047V194.207H221.791V189.463Z" fill="#B1D3F4"/>
<path d="M227.633 191.838H261.787" stroke="#B1D3F4" stroke-width="8.38" stroke-miterlimit="10" stroke-linecap="round"/>
<path d="M221.791 199.445H217.047V204.19H221.791V199.445Z" fill="#B1D3F4"/>
<path d="M227.633 201.818H261.787" stroke="#B1D3F4" stroke-width="8.38" stroke-miterlimit="10" stroke-linecap="round"/>
<path d="M221.791 209.424H217.047V214.168H221.791V209.424Z" fill="#B1D3F4"/>
<path d="M227.633 211.795H261.787" stroke="#B1D3F4" stroke-width="8.38" stroke-miterlimit="10" stroke-linecap="round"/>
<path d="M221.791 219.402H217.047V224.147H221.791V219.402Z" fill="#B1D3F4"/>
<path d="M227.633 221.777H261.787" stroke="#B1D3F4" stroke-width="8.38" stroke-miterlimit="10" stroke-linecap="round"/>
<path d="M221.791 229.381H217.047V234.125H221.791V229.381Z" fill="#B1D3F4"/>
<path d="M227.633 231.756H261.787" stroke="#B1D3F4" stroke-width="8.38" stroke-miterlimit="10" stroke-linecap="round"/>
<path d="M188.377 174.955H188.559C188.996 174.919 189.402 174.71 189.686 174.375C189.97 174.041 190.11 173.607 190.076 173.169L189.384 164.771C189.367 164.554 189.307 164.343 189.208 164.149C189.108 163.956 188.972 163.784 188.806 163.643C188.64 163.503 188.448 163.396 188.241 163.33C188.034 163.264 187.815 163.239 187.599 163.258H187.417C186.98 163.294 186.575 163.503 186.291 163.837C186.007 164.172 185.868 164.606 185.904 165.043L186.591 173.442C186.628 173.879 186.836 174.284 187.171 174.568C187.506 174.852 187.94 174.991 188.377 174.955Z" fill="#3E3E5D"/>
<path d="M191.03 166.615L184.117 166.52L184.168 162.886C184.181 162.017 184.538 161.189 185.161 160.583C185.784 159.977 186.622 159.643 187.491 159.655H187.85C188.719 159.667 189.548 160.024 190.153 160.647C190.759 161.27 191.093 162.108 191.082 162.977L191.03 166.615Z" fill="white"/>
<path d="M189.843 170.361L188.524 172.463L186.375 170.808" stroke="white" stroke-width="1.4" stroke-miterlimit="10"/>
<path d="M181.812 174.393H181.994C182.213 174.384 182.427 174.331 182.625 174.238C182.823 174.145 183.001 174.014 183.147 173.852C183.294 173.69 183.408 173.5 183.481 173.294C183.554 173.088 183.586 172.87 183.574 172.651L183.108 164.237C183.099 164.018 183.047 163.804 182.954 163.605C182.861 163.407 182.73 163.229 182.568 163.082C182.406 162.935 182.216 162.822 182.01 162.749C181.803 162.676 181.585 162.645 181.366 162.657H181.184C180.966 162.666 180.751 162.718 180.553 162.811C180.355 162.904 180.177 163.035 180.03 163.197C179.883 163.359 179.769 163.549 179.696 163.755C179.623 163.962 179.592 164.18 179.604 164.399L180.07 172.813C180.079 173.032 180.132 173.246 180.225 173.445C180.317 173.643 180.449 173.821 180.611 173.968C180.773 174.115 180.963 174.228 181.169 174.301C181.375 174.374 181.594 174.406 181.812 174.393Z" fill="#3E3E5D"/>
<path d="M184.71 166.13L177.805 165.85L177.951 162.216C177.966 161.784 178.067 161.36 178.246 160.967C178.426 160.574 178.682 160.221 178.999 159.927C179.315 159.633 179.687 159.405 180.092 159.256C180.497 159.106 180.928 159.038 181.36 159.055H181.719C182.587 159.092 183.404 159.471 183.993 160.11C184.581 160.748 184.893 161.593 184.86 162.461L184.71 166.13Z" fill="white"/>
<path d="M183.41 169.838L182.031 171.904L179.93 170.189" stroke="white" stroke-width="1.4" stroke-miterlimit="10"/>
<path d="M176.004 174.497H176.186C176.403 174.485 176.616 174.43 176.811 174.336C177.007 174.241 177.183 174.109 177.328 173.947C177.473 173.785 177.584 173.596 177.656 173.391C177.728 173.185 177.758 172.968 177.746 172.751L177.284 164.341C177.274 164.122 177.221 163.907 177.128 163.709C177.035 163.51 176.903 163.333 176.741 163.186C176.579 163.039 176.389 162.925 176.182 162.852C175.976 162.779 175.757 162.748 175.538 162.76H175.356C175.137 162.769 174.923 162.822 174.725 162.915C174.526 163.007 174.349 163.139 174.202 163.301C174.055 163.463 173.941 163.653 173.868 163.859C173.795 164.065 173.764 164.284 173.776 164.502L174.238 172.917C174.248 173.137 174.301 173.354 174.396 173.553C174.49 173.753 174.624 173.932 174.788 174.079C174.953 174.226 175.145 174.339 175.354 174.411C175.563 174.483 175.784 174.512 176.004 174.497Z" fill="#3E3E5D"/>
<path d="M178.897 166.249L171.992 165.969L172.138 162.335C172.154 161.903 172.255 161.479 172.434 161.087C172.614 160.695 172.87 160.342 173.186 160.048C173.502 159.755 173.873 159.527 174.278 159.377C174.682 159.227 175.112 159.158 175.544 159.174H175.903C176.333 159.192 176.755 159.293 177.145 159.474C177.536 159.654 177.887 159.91 178.179 160.226C178.47 160.542 178.697 160.913 178.845 161.317C178.994 161.721 179.061 162.15 179.043 162.579L178.897 166.249Z" fill="white"/>
<path d="M177.586 169.957L176.211 172.023L174.109 170.309" stroke="white" stroke-width="1.4" stroke-miterlimit="10"/>
<path d="M169.977 174.497H170.158C170.375 174.485 170.588 174.43 170.784 174.336C170.98 174.241 171.155 174.109 171.3 173.947C171.445 173.785 171.557 173.596 171.628 173.391C171.7 173.185 171.731 172.968 171.719 172.751L171.256 164.341C171.247 164.122 171.194 163.907 171.101 163.709C171.007 163.51 170.876 163.333 170.713 163.186C170.551 163.039 170.361 162.925 170.155 162.852C169.948 162.779 169.729 162.748 169.51 162.76H169.329C169.112 162.772 168.899 162.826 168.703 162.92C168.507 163.014 168.332 163.146 168.187 163.308C168.042 163.469 167.93 163.658 167.859 163.863C167.787 164.068 167.756 164.286 167.768 164.502L168.23 172.917C168.24 173.136 168.293 173.35 168.386 173.548C168.479 173.747 168.611 173.924 168.773 174.071C168.936 174.218 169.126 174.332 169.332 174.405C169.539 174.478 169.758 174.509 169.977 174.497Z" fill="#3E3E5D"/>
<path d="M172.87 166.241L165.961 165.961L166.111 162.327C166.127 161.896 166.227 161.472 166.407 161.079C166.587 160.687 166.842 160.334 167.158 160.041C167.475 159.747 167.846 159.519 168.25 159.369C168.655 159.219 169.085 159.15 169.516 159.166H169.876C170.306 159.184 170.728 159.286 171.118 159.466C171.509 159.647 171.86 159.902 172.151 160.218C172.443 160.535 172.669 160.905 172.818 161.309C172.966 161.713 173.034 162.142 173.016 162.572L172.87 166.241Z" fill="white"/>
<path d="M171.578 169.949L170.203 172.015L168.102 170.301" stroke="white" stroke-width="1.4" stroke-miterlimit="10"/>
<path opacity="0.19" d="M463.216 276.892H346.981C345.824 276.893 344.678 276.665 343.609 276.223C342.54 275.78 341.569 275.131 340.751 274.313C339.933 273.495 339.284 272.524 338.841 271.455C338.399 270.386 338.171 269.24 338.172 268.083V199.091C338.171 197.933 338.399 196.787 338.841 195.718C339.284 194.649 339.933 193.677 340.751 192.859C341.569 192.041 342.54 191.391 343.609 190.948C344.678 190.505 345.824 190.277 346.981 190.277H463.216C464.373 190.277 465.519 190.505 466.588 190.948C467.657 191.391 468.628 192.041 469.446 192.859C470.264 193.677 470.913 194.649 471.355 195.718C471.798 196.787 472.025 197.933 472.025 199.091V268.083C472.025 269.24 471.798 270.386 471.355 271.455C470.913 272.524 470.264 273.495 469.446 274.313C468.628 275.131 467.656 275.78 466.587 276.223C465.518 276.665 464.373 276.893 463.216 276.892Z" fill="#216CB5"/>
<path d="M468.239 272.045H352.009C350.851 272.045 349.705 271.817 348.636 271.374C347.567 270.931 346.595 270.282 345.777 269.463C344.958 268.645 344.309 267.673 343.866 266.604C343.423 265.535 343.195 264.389 343.195 263.231V194.247C343.195 193.089 343.423 191.943 343.866 190.874C344.309 189.805 344.958 188.833 345.777 188.015C346.595 187.197 347.567 186.547 348.636 186.105C349.705 185.662 350.851 185.434 352.009 185.434H468.239C469.396 185.434 470.543 185.662 471.612 186.105C472.681 186.547 473.653 187.197 474.471 188.015C475.289 188.833 475.938 189.805 476.381 190.874C476.824 191.943 477.052 193.089 477.052 194.247V263.239C477.05 265.575 476.121 267.815 474.468 269.466C472.816 271.117 470.575 272.045 468.239 272.045Z" fill="#EAEFF4"/>
<path d="M477.052 198.263V195.035C477.052 189.714 473.422 185.4 468.946 185.4H351.301C346.826 185.4 343.195 189.714 343.195 195.035V198.255L477.052 198.263Z" fill="#83B9EF"/>
<path d="M351.609 194.702C353.158 194.702 354.414 193.429 354.414 191.858C354.414 190.287 353.158 189.014 351.609 189.014C350.06 189.014 348.805 190.287 348.805 191.858C348.805 193.429 350.06 194.702 351.609 194.702Z" fill="white"/>
<path d="M362.633 194.702C364.182 194.702 365.438 193.429 365.438 191.858C365.438 190.287 364.182 189.014 362.633 189.014C361.084 189.014 359.828 190.287 359.828 191.858C359.828 193.429 361.084 194.702 362.633 194.702Z" fill="white"/>
<path d="M373.102 194.702C374.651 194.702 375.906 193.429 375.906 191.858C375.906 190.287 374.651 189.014 373.102 189.014C371.553 189.014 370.297 190.287 370.297 191.858C370.297 193.429 371.553 194.702 373.102 194.702Z" fill="white"/>
<path d="M359.828 205.115V247.024V263.446" stroke="#83B9EF" stroke-width="2" stroke-miterlimit="10" stroke-linecap="round"/>
<path d="M380.586 205.115V257.939" stroke="white" stroke-width="2" stroke-miterlimit="10" stroke-linecap="round"/>
<path d="M403.023 205.115V257.939" stroke="white" stroke-width="2" stroke-miterlimit="10" stroke-linecap="round"/>
<path d="M425.75 205.344V258.168" stroke="white" stroke-width="2" stroke-miterlimit="10" stroke-linecap="round"/>
<path d="M354.414 257.941H443.364" stroke="#83B9EF" stroke-width="2" stroke-miterlimit="10" stroke-linecap="round"/>
<path d="M359.828 218.932H438.523" stroke="white" stroke-width="2" stroke-miterlimit="10" stroke-linecap="round"/>
<path d="M359.555 239.605H438.249" stroke="white" stroke-width="2" stroke-miterlimit="10" stroke-linecap="round"/>
<path d="M364.578 245.001C371.475 236.188 379.091 228.971 384.977 230.693C392.878 233.012 392.803 250.082 397.425 250.299C404.299 250.619 409.209 213.122 417.031 213.209C422.656 213.272 424.35 232.72 431.335 233.356C436.683 233.834 442.032 222.99 445.639 213.999" stroke="#3479BE" stroke-width="2" stroke-miterlimit="10" stroke-linecap="round"/>
<path d="M124.863 384.562C126.643 384.562 128.086 386.005 128.086 387.785C128.086 389.565 126.643 391.009 124.863 391.009C123.083 391.009 121.641 389.565 121.641 387.785C121.641 386.005 123.084 384.563 124.863 384.562Z" fill="#458CCA" stroke="#458CCA" stroke-width="2"/>
<path d="M139.617 368.16C141.374 367.875 143.029 369.068 143.315 370.825C143.6 372.582 142.407 374.238 140.65 374.523C138.893 374.808 137.238 373.614 136.953 371.857C136.668 370.101 137.861 368.445 139.617 368.16Z" fill="#458CCA" stroke="#458CCA" stroke-width="2"/>
<path d="M155.887 384.998C157.667 384.998 159.11 386.441 159.11 388.221C159.11 390.001 157.667 391.444 155.887 391.444C154.107 391.444 152.664 390.001 152.664 388.221C152.664 386.441 154.107 384.998 155.887 384.998Z" fill="#458CCA" stroke="#458CCA" stroke-width="2"/>
<path d="M174.341 361.661C176.104 361.376 177.765 362.575 178.05 364.339C178.335 366.102 177.136 367.763 175.373 368.048C173.609 368.333 171.948 367.135 171.663 365.371C171.378 363.607 172.577 361.946 174.341 361.661Z" fill="#458CCA" stroke="#458CCA" stroke-width="2"/>
<path d="M191.473 384.998C193.253 384.998 194.695 386.441 194.695 388.221C194.695 390.001 193.253 391.444 191.473 391.444C189.693 391.444 188.25 390.001 188.25 388.221C188.25 386.441 189.693 384.998 191.473 384.998Z" fill="#458CCA" stroke="#458CCA" stroke-width="2"/>
<path d="M128.492 384L136.555 375.953" stroke="#458CCA" stroke-width="2" stroke-miterlimit="10" stroke-linecap="round"/>
<path d="M143.602 375.439L151.648 383.506" stroke="#458CCA" stroke-width="2" stroke-miterlimit="10" stroke-linecap="round"/>
<path d="M159.32 383.211L171.63 366.047" stroke="#458CCA" stroke-width="2" stroke-miterlimit="10" stroke-linecap="round"/>
<path d="M177.672 365.475L188.725 383.472" stroke="#458CCA" stroke-width="2" stroke-miterlimit="10" stroke-linecap="round"/>
<path d="M193.234 382.835L208.803 354.539" stroke="#458CCA" stroke-width="2" stroke-miterlimit="10" stroke-linecap="round"/>
<path d="M215.373 349.562L215.259 355.165L210.45 352.267L205.654 349.371L210.566 346.667L215.482 343.958L215.373 349.562Z" fill="#458CCA" stroke="#458CCA" stroke-width="2"/>
<path d="M111.75 97.5207V88.9288C111.75 88.5097 111.584 88.1077 111.287 87.8114C110.991 87.5151 110.589 87.3486 110.17 87.3486H107.251C106.855 86.0301 106.325 84.7555 105.67 83.5445L108.301 80.9135C108.596 80.6175 108.761 80.217 108.761 79.7995C108.761 79.3821 108.596 78.9816 108.301 78.6855L102.222 72.606C101.926 72.3117 101.525 72.1465 101.108 72.1465C100.69 72.1465 100.29 72.3117 99.9938 72.606L97.3392 75.2606C96.2801 74.6964 95.1738 74.2258 94.0328 73.8543V70.8126C94.0328 70.3935 93.8663 69.9915 93.57 69.6952C93.2736 69.3989 92.8717 69.2324 92.4527 69.2324H83.8567C83.4377 69.2324 83.0358 69.3989 82.7395 69.6952C82.4431 69.9915 82.2766 70.3935 82.2766 70.8126V73.6133C81.1106 73.937 79.9761 74.3654 78.8872 74.8932L76.3155 72.3216C76.0195 72.0273 75.6191 71.8621 75.2016 71.8621C74.7842 71.8621 74.3837 72.0273 74.0876 72.3216L68.0436 78.4051C67.7493 78.7011 67.5841 79.1016 67.5841 79.519C67.5841 79.9365 67.7493 80.337 68.0436 80.6331L70.2637 82.8571C69.4248 84.2696 68.7615 85.7793 68.2885 87.3526H65.3692C64.9501 87.3526 64.5482 87.519 64.2519 87.8154C63.9556 88.1117 63.7891 88.5136 63.7891 88.9327V97.5247C63.7891 97.9437 63.9556 98.3456 64.2519 98.642C64.5482 98.9383 64.9501 99.1048 65.3692 99.1048H68.2885C68.6746 100.39 69.188 101.634 69.8212 102.818L68.328 104.311C68.0337 104.607 67.8685 105.008 67.8685 105.425C67.8685 105.843 68.0337 106.243 68.328 106.539L74.4036 112.619C74.6999 112.914 75.1012 113.08 75.5196 113.08C75.938 113.08 76.3393 112.914 76.6355 112.619L78.105 111.145C79.4381 111.866 80.8481 112.435 82.3083 112.84V115.641C82.3083 116.06 82.4747 116.462 82.771 116.758C83.0673 117.055 83.4693 117.221 83.8884 117.221H92.4843C92.9034 117.221 93.3053 117.055 93.6016 116.758C93.8979 116.462 94.0644 116.06 94.0644 115.641V112.599C95.4929 112.137 96.8655 111.516 98.1569 110.75L99.737 112.33C100.033 112.625 100.434 112.79 100.851 112.79C101.269 112.79 101.669 112.625 101.965 112.33L108.045 106.255C108.339 105.959 108.504 105.558 108.504 105.141C108.504 104.723 108.339 104.323 108.045 104.027L106.113 102.095C106.581 101.132 106.97 100.132 107.274 99.1048H110.194C110.609 99.0986 111.006 98.9288 111.297 98.6323C111.588 98.3358 111.751 97.9364 111.75 97.5207Z" fill="#CCE5FF"/>
<path d="M99.7276 96.0744C101.296 89.4304 97.1809 82.7731 90.5369 81.205C83.8929 79.6369 77.2356 83.7517 75.6675 90.3957C74.0993 97.0397 78.2142 103.697 84.8582 105.265C91.5022 106.833 98.1595 102.718 99.7276 96.0744Z" fill="white"/>
<path d="M92.7472 98.2146C95.5009 95.4609 95.5009 90.9962 92.7472 88.2425C89.9935 85.4888 85.5288 85.4888 82.7751 88.2425C80.0214 90.9962 80.0214 95.4608 82.7751 98.2146C85.5288 100.968 89.9934 100.968 92.7472 98.2146Z" fill="#B1D3F4"/>
<path opacity="0.19" d="M240.03 128.916H135.651C133.555 128.916 131.546 128.084 130.064 126.602C128.582 125.121 127.75 123.111 127.75 121.016V59.0589C127.75 56.9635 128.582 54.9539 130.064 53.4722C131.546 51.9906 133.555 51.1582 135.651 51.1582H240.03C242.126 51.1582 244.135 51.9906 245.617 53.4722C247.099 54.9539 247.931 56.9635 247.931 59.0589V121.016C247.931 123.111 247.099 125.121 245.617 126.602C244.135 128.084 242.126 128.916 240.03 128.916Z" fill="#216CB5"/>
<path d="M244.542 124.559H140.158C138.063 124.559 136.054 123.727 134.572 122.245C133.09 120.763 132.258 118.754 132.258 116.658V54.7014C132.258 52.6061 133.09 50.5965 134.572 49.1148C136.054 47.6332 138.063 46.8008 140.158 46.8008H244.542C246.637 46.8008 248.647 47.6332 250.129 49.1148C251.61 50.5965 252.443 52.6061 252.443 54.7014V116.658C252.443 118.754 251.61 120.763 250.129 122.245C248.647 123.727 246.637 124.559 244.542 124.559Z" fill="#EAEFF4"/>
<path d="M252.45 58.3085V55.4169C252.45 50.637 249.191 46.7617 245.17 46.7617H139.542C135.521 46.7617 132.266 50.637 132.266 55.4169V58.3085H252.45Z" fill="#83B9EF"/>
<path d="M142.314 52.5559C142.317 52.8888 142.254 53.2189 142.128 53.5273C142.003 53.8358 141.819 54.1165 141.585 54.3536C141.351 54.5906 141.073 54.7792 140.766 54.9086C140.46 55.0381 140.131 55.1057 139.798 55.1078C139.465 55.1057 139.136 55.0381 138.829 54.9086C138.522 54.7792 138.244 54.5906 138.01 54.3536C137.777 54.1165 137.592 53.8358 137.467 53.5273C137.342 53.2189 137.279 52.8888 137.281 52.5559C137.279 52.2228 137.342 51.8925 137.467 51.5838C137.592 51.2752 137.776 50.9941 138.01 50.7567C138.244 50.5194 138.522 50.3304 138.829 50.2006C139.135 50.0708 139.465 50.0026 139.798 50C140.131 50.0026 140.46 50.0708 140.767 50.2006C141.073 50.3304 141.352 50.5194 141.585 50.7567C141.819 50.9941 142.004 51.2752 142.129 51.5838C142.254 51.8925 142.317 52.2228 142.314 52.5559Z" fill="white"/>
<path d="M152.224 52.5559C152.226 52.8889 152.163 53.2191 152.037 53.5276C151.912 53.8361 151.727 54.1168 151.493 54.3538C151.259 54.5908 150.98 54.7793 150.673 54.9087C150.366 55.0381 150.037 55.1057 149.704 55.1078C149.371 55.1057 149.042 55.0381 148.735 54.9086C148.428 54.7792 148.15 54.5906 147.917 54.3536C147.683 54.1165 147.498 53.8358 147.373 53.5273C147.248 53.2189 147.185 52.8888 147.188 52.5559C147.185 52.2228 147.248 51.8925 147.373 51.5838C147.498 51.2752 147.683 50.9941 147.916 50.7567C148.15 50.5194 148.428 50.3304 148.735 50.2006C149.042 50.0708 149.371 50.0026 149.704 50C150.377 50.0052 151.02 50.2773 151.493 50.7565C151.965 51.2357 152.228 51.8829 152.224 52.5559Z" fill="white"/>
<path d="M161.619 52.5559C161.621 52.8888 161.558 53.2189 161.433 53.5273C161.308 53.8358 161.123 54.1165 160.89 54.3536C160.656 54.5906 160.378 54.7792 160.071 54.9086C159.765 55.0381 159.435 55.1057 159.102 55.1078C158.77 55.1057 158.44 55.0381 158.134 54.9086C157.827 54.7792 157.549 54.5906 157.315 54.3536C157.081 54.1165 156.897 53.8358 156.772 53.5273C156.646 53.2189 156.583 52.8888 156.586 52.5559C156.583 52.2228 156.647 51.8925 156.772 51.5838C156.897 51.2752 157.081 50.9941 157.315 50.7567C157.549 50.5194 157.827 50.3304 158.133 50.2006C158.44 50.0708 158.769 50.0026 159.102 50C159.435 50.0026 159.765 50.0708 160.071 50.2006C160.378 50.3304 160.656 50.5194 160.89 50.7567C161.124 50.9941 161.308 51.2752 161.433 51.5838C161.558 51.8925 161.621 52.2228 161.619 52.5559Z" fill="white"/>
<path d="M164.524 89.8747L140.305 86.4735C141.099 80.623 143.995 75.2612 148.451 71.388C152.907 67.5147 158.62 65.3943 164.524 65.4221V89.8747Z" fill="#6BA5DE"/>
<path d="M164.515 89.8719L146.055 105.918C141.228 100.36 139.272 93.7591 140.295 86.4707L164.515 89.8719Z" fill="#B1D3F4"/>
<path d="M164.522 89.873L183.255 105.595C179.085 110.563 173.113 113.671 166.652 114.236C160.19 114.802 153.769 112.778 148.8 108.609C147.822 107.782 146.907 106.882 146.062 105.919L164.522 89.873Z" fill="white"/>
<path d="M164.523 89.8724L182.979 73.8301C191.034 83.0936 191.149 96.1889 183.256 105.595L164.523 89.8724Z" fill="#6BA5DE"/>
<path d="M164.523 89.8744V65.4219C171.883 65.4219 178.148 68.278 182.979 73.8321L164.523 89.8744Z" fill="#216CB5"/>
<path d="M245.317 78.544H198.257C197.447 78.543 196.67 78.2204 196.097 77.6471C195.525 77.0738 195.203 76.2967 195.203 75.4865V75.2021C195.203 74.3919 195.525 73.6147 196.097 73.0415C196.67 72.4682 197.447 72.1456 198.257 72.1445H245.317C246.128 72.1445 246.906 72.4667 247.479 73.0401C248.052 73.6135 248.375 74.3912 248.375 75.2021V75.4865C248.375 76.2974 248.052 77.0751 247.479 77.6485C246.906 78.2219 246.128 78.544 245.317 78.544Z" fill="white"/>
<path d="M245.317 93.2257H198.257C197.447 93.2247 196.67 92.9021 196.097 92.3288C195.525 91.7555 195.203 90.9784 195.203 90.1682V89.8838C195.203 89.0735 195.525 88.2964 196.097 87.7231C196.67 87.1499 197.447 86.8272 198.257 86.8262H245.317C246.128 86.8262 246.906 87.1483 247.479 87.7217C248.052 88.2951 248.375 89.0729 248.375 89.8838V90.1682C248.375 90.9791 248.052 91.7568 247.479 92.3302C246.906 92.9036 246.128 93.2257 245.317 93.2257Z" fill="white"/>
<path d="M245.317 107.901H198.257C197.447 107.901 196.67 107.58 196.098 107.007C195.525 106.434 195.203 105.658 195.203 104.848V104.563C195.203 104.162 195.281 103.765 195.434 103.394C195.588 103.023 195.813 102.686 196.096 102.402C196.38 102.118 196.717 101.892 197.087 101.739C197.458 101.585 197.855 101.506 198.257 101.506H245.317C245.719 101.505 246.117 101.584 246.488 101.738C246.859 101.891 247.196 102.116 247.48 102.4C247.764 102.684 247.989 103.022 248.143 103.393C248.296 103.764 248.375 104.162 248.375 104.563V104.848C248.375 105.249 248.295 105.647 248.142 106.017C247.988 106.388 247.763 106.725 247.479 107.008C247.195 107.292 246.858 107.517 246.487 107.67C246.116 107.823 245.718 107.902 245.317 107.901Z" fill="white"/>
<path d="M406.056 31.457H397.914V53.9186H406.056V31.457Z" fill="#CCE5FF"/>
<path d="M433.678 31.3297H430.624L420.353 30.6147C420.353 30.6147 420.847 24.8591 421.689 21.2801C422.084 19.6249 421.341 17.8828 420.44 16.4844C420.284 16.2478 420.058 16.0654 419.793 15.962C419.529 15.8585 419.239 15.8392 418.964 15.9066C418.688 15.9741 418.44 16.1249 418.253 16.3386C418.066 16.5523 417.95 16.8184 417.92 17.1007C417.588 20.0239 416.692 24.0216 414.27 25.6294C413.01 26.5238 411.857 27.5618 410.837 28.7225L408.281 31.4561V53.9177H432.078C432.523 53.9177 432.95 53.7408 433.265 53.426C433.58 53.1111 433.757 52.6841 433.757 52.2388V49.4736C433.757 49.0283 433.58 48.6013 433.265 48.2864C432.95 47.9716 432.523 47.7947 432.078 47.7947H432.868C433.313 47.7947 433.74 47.6178 434.055 47.303C434.37 46.9881 434.547 46.5611 434.547 46.1158V43.3506C434.547 42.9053 434.37 42.4783 434.055 42.1634C433.74 41.8485 433.313 41.6717 432.868 41.6717H433.066C433.286 41.6717 433.505 41.6281 433.709 41.5435C433.913 41.4589 434.098 41.3349 434.254 41.1786C434.41 41.0222 434.534 40.8367 434.618 40.6326C434.702 40.4284 434.745 40.2096 434.744 39.9888V37.2236C434.744 36.7783 434.568 36.3513 434.253 36.0364C433.938 35.7216 433.511 35.5447 433.066 35.5447H433.658C433.879 35.5452 434.098 35.5022 434.302 35.418C434.506 35.3339 434.691 35.2104 434.848 35.0544C435.004 34.8984 435.128 34.7132 435.213 34.5092C435.297 34.3053 435.341 34.0866 435.341 33.8658V33.0007C435.339 32.5596 435.163 32.1369 434.852 31.8242C434.541 31.5115 434.119 31.3338 433.678 31.3297Z" fill="#CCE5FF"/>
<path d="M88.9091 146.691C87.6517 146.72 86.4243 147.082 85.3517 147.739C84.2791 148.396 83.3995 149.325 82.802 150.432C82.1608 149.35 81.2442 148.458 80.1456 147.845C79.0471 147.233 77.8059 146.924 76.5485 146.948C75.6085 146.967 74.6814 147.172 73.8204 147.55C72.9595 147.927 72.1814 148.471 71.5306 149.15C70.8798 149.829 70.369 150.629 70.0276 151.505C69.6862 152.381 69.5207 153.316 69.5407 154.256C69.6197 158.206 75.5017 163.342 83.2404 171.542C90.2364 163.748 96.2765 157.653 96.2133 153.699C96.1729 151.801 95.3808 149.997 94.0113 148.683C92.6418 147.369 90.8067 146.653 88.9091 146.691Z" fill="#CCE5FF"/>
<path d="M101.888 233.653C102.943 233.472 120.194 255.495 109.204 269.566C98.6052 283.135 98.6328 242.17 98.6328 242.17L101.888 233.653Z" fill="white"/>
<path d="M119.591 269.632C120.907 270.252 120.132 280.238 111.849 277.354C105.133 275.016 103.687 265.314 104.063 264.946C104.438 264.579 114.333 263.615 114.333 263.615L119.591 269.632Z" fill="#AED1F0"/>
<path d="M101.428 233.612C101.601 234.177 108.143 259.57 108.143 259.57L75.4977 268.118C71.9661 255.477 75.4778 239.719 72.5625 234.252L80.4632 232.672L101.428 233.612Z" fill="#AED1F0"/>
<path d="M100.469 212.248L103.63 222.558C103.766 223.012 103.798 223.49 103.725 223.957C103.652 224.425 103.474 224.87 103.206 225.26C102.937 225.65 102.585 225.974 102.174 226.21C101.763 226.445 101.305 226.585 100.833 226.619L86.7656 227.556" fill="black"/>
<path d="M76.1141 212.248L72.9538 222.558C72.8177 223.012 72.7852 223.49 72.8585 223.957C72.9319 224.425 73.1094 224.87 73.3779 225.26C73.6464 225.65 73.9989 225.974 74.4096 226.21C74.8203 226.445 75.2786 226.585 75.7507 226.619L89.8179 227.556" fill="black"/>
<path d="M90.1549 221.263C98.7879 221.263 105.786 214.264 105.786 205.631C105.786 196.998 98.7879 190 90.1549 190C81.5219 190 74.5234 196.998 74.5234 205.631C74.5234 214.264 81.5219 221.263 90.1549 221.263Z" fill="black"/>
<path d="M83.0523 229.974H83.1748L83.2894 229.95V221.279H93.0901V229.729L101.876 236.899L96.6375 240.178C94.0086 241.819 90.9639 242.672 87.8648 242.635C84.7656 242.598 81.7421 241.672 79.1533 239.968L74.5078 236.899L83.0523 229.974Z" fill="#EEA7AD"/>
<path d="M93.1035 228.107C87.0634 229.529 85.6492 225.709 85.2266 223.683L86.4552 223.07L93.1035 225.267V228.107Z" fill="#DE9CA2"/>
<path d="M76.8009 210.076C78.2981 218.372 83.39 226.391 90.153 226.32C96.6987 226.253 102.103 218.502 103.505 210.076C105.267 199.493 97.9391 193.485 90.153 193.833C82.4657 194.157 74.9758 199.987 76.8009 210.076Z" fill="#EEA7AD"/>
<path d="M103.517 210.075L90.1571 200.318C90.1571 200.318 82.367 210.051 77.0104 211.074C75.0036 208.108 75.2011 204.939 76.8129 201.649L83.884 193.819L93.7993 192.863L100.226 196.103C104.177 195.419 104.69 203.948 104.473 207.685L103.517 210.075Z" fill="black"/>
<path d="M90.3604 199.242C90.9371 200.107 86.4377 212.413 78.0156 209.56Z" fill="black"/>
<path d="M90.3604 199.242C90.9371 200.107 86.4377 212.413 78.0156 209.56" stroke="black" stroke-width="4.62" stroke-miterlimit="10"/>
<path d="M79.7793 213.089C79.7793 213.089 78.2426 216.482 76.5084 213.555C75.9997 212.746 75.6693 211.839 75.5392 210.893C75.4091 209.947 75.4823 208.983 75.7539 208.068C75.7539 208.068 77.2155 207.278 79.4593 209.091C81.7031 210.904 79.7793 213.089 79.7793 213.089Z" fill="#EEA7AD"/>
<path d="M119.583 273.651C118.71 275.164 115.839 274.895 113.164 273.047C110.49 271.198 109.028 268.476 109.901 266.963C110.774 265.45 114.535 263.89 117.205 265.735C119.876 267.579 120.456 272.13 119.583 273.651Z" fill="#3B3B3B"/>
<path d="M110.931 267.198C110.991 267.016 115.055 249.098 116.624 244.361L123.102 245.827L119.685 270.548C119.619 271.06 119.44 271.551 119.161 271.985C118.882 272.419 118.51 272.786 118.072 273.059C117.634 273.332 117.141 273.504 116.628 273.563C116.115 273.622 115.595 273.567 115.107 273.4C112.377 272.417 110.003 269.418 110.931 267.198Z" fill="#EEA7AD"/>
<path d="M102.227 400.262C102.302 400.578 102.425 400.882 102.527 401.194C101.831 401.832 101.311 402.639 101.018 403.537V403.79C101.018 403.79 110.227 411.197 115.903 411.647C116.535 411.694 117.234 411.761 117.969 411.837H129.275C129.279 410.52 128.786 409.251 127.896 408.281C127.658 408.019 127.393 407.783 127.106 407.574L126.909 407.436L123.354 405.121L112.652 398.141L115.153 340.261L94.8203 331.965L98.9919 348.789C98.9247 366.36 98.1109 383.785 102.227 400.262Z" fill="#EEA7AD"/>
<path d="M72.5343 403.483C74.6675 405.118 82.0151 410.49 86.8187 410.87C87.4508 410.921 88.15 410.988 88.8887 411.063C91.9818 411.375 95.7741 411.853 98.4129 411.853H100.783C100.783 411.782 100.783 411.707 100.783 411.632C100.749 410.799 100.516 409.986 100.104 409.261C99.6914 408.536 99.1116 407.92 98.4129 407.464L94.036 404.612L84.1602 398.169L86.6607 340.289L71.6929 332.756L70.5078 348.806C72.483 366.665 71.0055 383.83 73.6246 399.915C73.7294 400.358 73.8695 400.791 74.0433 401.211C73.3586 401.83 72.8398 402.611 72.5343 403.483Z" fill="#EEA7AD"/>
<path d="M99.4025 233.523L103.957 246.586L81.4403 248.929L75.7282 233.254L72.5679 234.253C72.5679 234.253 74.867 237.923 77.1779 248.633C78.5349 255.152 77.9526 261.927 75.503 268.12L79.7575 285.501C63.5927 302.606 64.9004 353.968 64.9004 353.968C82.4359 359.001 106.292 360.94 121.678 355.734C123.033 331.637 114.054 296.21 114.054 296.21L109.981 283.269C107.809 276.368 108.401 270.675 109.456 266.863C110.901 261.607 110.694 256.034 108.864 250.9C105.846 242.533 101.895 233.633 101.895 233.633" fill="#025CAC"/>
<path d="M66.8604 281.726C66.8604 281.94 71.1702 295.983 71.1702 301.478L65.7345 304.891L61.5156 279.573C64.032 274.987 67.1449 277.642 66.8604 281.726Z" fill="#EEA7AD"/>
<path d="M126.726 235.868C126.726 235.868 126.422 234.241 125.146 234.391C125.146 234.391 121.547 235.102 120.073 236.042C118.789 236.864 117.008 240.826 116.913 241.801C116.573 245.088 114.898 250.887 114.898 250.887L122.171 249.659L122.207 248.201C122.483 248.15 128.322 239.739 128.42 237.966C128.519 236.192 127.385 235.493 126.726 235.868Z" fill="#EEA7AD"/>
<path d="M72.812 234.785C72.812 234.785 62.9125 238.767 61.2138 259.605C60.4259 269.906 60.2517 280.246 60.6924 290.568C60.7319 291.52 61.1467 292.488 60.8188 293.214C59.0767 297.058 60.1828 299.262 61.2138 299.227C65.5592 298.508 69.6123 298.437 73.2229 299.227C74.7122 297.165 74.6174 295.277 73.2229 293.546V290.99L74.7516 251.377C73.6653 245.767 75.0558 238.886 72.812 234.785Z" fill="#AED1F0"/>
<path d="M79.3594 280.298C79.3594 280.298 92.3955 280.223 97.8667 278.762" stroke="white" stroke-width="2.36" stroke-miterlimit="10" stroke-linecap="round"/>
<path d="M106.038 346.854C106.038 346.854 103.944 303.558 101.977 296.23" stroke="white" stroke-width="2.36" stroke-miterlimit="10" stroke-linecap="round"/>
<path d="M83.0781 346.11C83.0781 346.11 83.6272 308.072 87.147 295.98" stroke="white" stroke-width="2.36" stroke-miterlimit="10" stroke-linecap="round"/>
<path d="M75.8035 262.273C75.8035 262.273 74.1405 250.074 74.9779 245.547" stroke="white" stroke-width="2.36" stroke-miterlimit="10" stroke-linecap="round"/>
<path d="M65.6094 291.481C65.6094 291.481 70.326 290.469 71.7007 291.481" stroke="white" stroke-width="2.36" stroke-miterlimit="10" stroke-linecap="round"/>
<path d="M100.798 400.182L101.019 403.536V403.788C101.019 403.788 110.227 411.195 115.904 411.646C116.536 411.693 117.235 411.76 117.97 411.835C123.856 412.436 132.286 413.566 130.445 411.045C129.685 410.052 128.83 409.136 127.893 408.308C127.629 408.067 127.36 407.834 127.103 407.601C125.294 406.02 123.591 404.835 123.591 404.835C123.517 404.939 123.436 405.037 123.35 405.132C122.509 406.068 119.499 408.833 114.178 407.431C109.611 406.246 104.646 402.347 102.22 400.261C102.007 400.079 101.825 399.913 101.643 399.759C101.567 399.694 101.472 399.653 101.372 399.64C101.272 399.628 101.171 399.646 101.081 399.691C100.991 399.736 100.916 399.807 100.866 399.894C100.815 399.981 100.792 400.081 100.798 400.182Z" fill="#00498B"/>
<path d="M71.7034 399.409L71.9247 402.762V403.011L72.5251 403.481C74.6583 405.117 82.0059 410.489 86.8095 410.869C87.4415 410.92 88.1408 410.987 88.8795 411.062C91.9726 411.374 95.7649 411.852 98.4037 411.852C99.2 411.878 99.9963 411.804 100.774 411.631C101.564 411.402 101.872 410.979 101.355 410.276C100.597 409.282 99.7435 408.365 98.8067 407.538C98.542 407.297 98.2734 407.06 98.0166 406.831C96.2074 405.251 94.5087 404.066 94.5087 404.066C94.5087 404.066 94.4258 404.177 94.2638 404.362C94.2006 404.429 94.1295 404.508 94.0386 404.599C92.9641 405.686 90.0171 407.957 85.0911 406.661C80.8129 405.532 76.1792 402.051 73.6154 399.902L73.1334 399.507C72.9201 399.326 72.7384 399.16 72.5567 399.006C72.4814 398.939 72.3884 398.896 72.289 398.882C72.1895 398.868 72.0882 398.883 71.9974 398.926C71.9066 398.969 71.8303 399.038 71.7781 399.123C71.7258 399.209 71.6999 399.308 71.7034 399.409Z" fill="#00498B"/>
<path d="M75.6271 403.012H71.9375V409.198H75.6271V403.012Z" fill="#00498B"/>
<path d="M104.721 403.672H101.031V409.858H104.721V403.672Z" fill="#00498B"/>
<path opacity="0.35" d="M163.004 224.99C173.848 214.146 173.848 196.565 163.004 185.721C152.16 174.878 134.579 174.878 123.736 185.721C112.892 196.565 112.892 214.146 123.736 224.99C134.579 235.833 152.16 235.833 163.004 224.99Z" fill="white"/>
<path d="M103.53 266.619C103.132 266.358 102.789 266.022 102.52 265.628C102.252 265.235 102.064 264.792 101.967 264.326C101.87 263.86 101.865 263.379 101.954 262.911C102.043 262.443 102.222 261.997 102.483 261.599L122.915 230.359L128.982 234.31L108.551 265.549C108.027 266.357 107.204 266.923 106.262 267.124C105.321 267.325 104.338 267.143 103.53 266.619Z" fill="#3B3B3B"/>
<path d="M123.478 227.651L121.609 230.508L129.464 235.646L131.333 232.79L123.478 227.651Z" fill="#96A0D0"/>
<path d="M127.114 230.559C120.447 226.184 115.788 219.344 114.159 211.538C112.53 203.732 114.063 195.599 118.423 188.923C122.798 182.257 129.638 177.599 137.442 175.969C145.247 174.34 153.379 175.873 160.055 180.232C166.721 184.607 171.379 191.446 173.009 199.251C174.638 207.056 173.105 215.188 168.746 221.864C164.372 228.531 157.533 233.19 149.728 234.82C141.923 236.45 133.79 234.917 127.114 230.559ZM158.211 183.013C152.275 179.14 145.045 177.779 138.107 179.23C131.169 180.681 125.091 184.824 121.204 190.752C117.331 196.688 115.97 203.919 117.421 210.857C118.872 217.795 123.015 223.875 128.943 227.762C134.879 231.634 142.109 232.993 149.047 231.542C155.984 230.09 162.063 225.947 165.949 220.02C169.823 214.084 171.183 206.854 169.732 199.916C168.282 192.978 164.138 186.899 158.211 183.013Z" fill="#3B3B3B"/>
<path d="M129.666 240.325C129.764 240.25 129.857 240.17 129.946 240.084C130.456 239.578 130.586 239.069 130.234 238.946C128.993 238.523 127.777 238.028 126.592 237.465L125.494 236.86C125.19 236.695 124.506 236.955 123.965 237.449C123.424 237.943 123.23 238.476 123.535 238.634L124.633 239.239C125.851 239.823 127.103 240.333 128.382 240.767C128.666 240.862 129.195 240.68 129.666 240.325Z" fill="#EBA4AA"/>
<path d="M128.096 241.782C128.195 241.707 128.289 241.625 128.377 241.537C128.89 241.031 129.02 240.522 128.669 240.399C127.427 239.977 126.211 239.484 125.027 238.922L123.928 238.317C123.624 238.148 122.941 238.408 122.396 238.906C121.851 239.404 121.661 239.929 121.965 240.091L123.063 240.696C124.283 241.276 125.534 241.787 126.812 242.224C127.105 242.331 127.634 242.137 128.096 241.782Z" fill="#EBA4AA"/>
<path d="M126.627 243.21C126.726 243.134 126.82 243.053 126.908 242.965C127.421 242.459 127.552 241.949 127.2 241.827C125.959 241.404 124.743 240.911 123.558 240.35L122.46 239.745C122.156 239.575 121.472 239.836 120.927 240.334C120.382 240.832 120.192 241.357 120.496 241.519L121.595 242.123C122.814 242.703 124.066 243.214 125.343 243.652C125.636 243.759 126.165 243.565 126.627 243.21Z" fill="#EBA4AA"/>
<path d="M125.073 244.851C125.172 244.775 125.265 244.694 125.353 244.606C125.867 244.1 125.997 243.594 125.645 243.472C124.405 243.046 123.189 242.552 122.003 241.991L120.905 241.386C120.601 241.22 119.917 241.477 119.372 241.975C118.827 242.473 118.638 243.002 118.942 243.16L120.04 243.764C121.259 244.345 122.511 244.856 123.789 245.293C124.081 245.4 124.61 245.206 125.073 244.851Z" fill="#EBA4AA"/>
<path d="M128.634 238.321L125.541 236.844C125.541 236.844 124.193 236.994 123.617 237.879C123.617 237.879 122.59 238.305 122.313 238.902C122.178 239.166 122.065 239.441 121.973 239.724C121.476 239.929 121.018 240.22 120.622 240.585C120.298 241.003 120.456 241.284 120.456 241.284C119.902 241.393 119.408 241.704 119.07 242.157C118.541 242.9 119.465 243.247 119.465 243.247L123.49 244.989" stroke="#CB8E92" stroke-width="1.01" stroke-miterlimit="10" stroke-linecap="round"/>
<path d="M123.18 238.232C124.63 239.145 126.168 239.911 127.77 240.52" stroke="#CB8E92" stroke-width="1.01" stroke-miterlimit="10" stroke-linecap="round"/>
<path d="M121.742 239.814C121.742 239.814 124.871 241.608 125.965 241.873" stroke="#CB8E92" stroke-width="1.01" stroke-miterlimit="10" stroke-linecap="round"/>
<path d="M120.461 241.225C121.742 241.979 123.061 242.669 124.411 243.291" stroke="#CB8E92" stroke-width="1.01" stroke-miterlimit="10" stroke-linecap="round"/>
<path d="M67.6484 310.879C67.8025 310.93 74.4746 314.64 74.7234 315.663C74.9723 316.686 74.4667 317.037 73.8781 316.962C73.2895 316.887 68.5925 314.118 68.5925 314.118L67.6484 310.879Z" fill="#DD9BA2"/>
<path d="M67.8047 309.621C67.9232 309.661 73.6947 312.588 73.8883 313.378C74.0818 314.168 73.6867 314.433 73.2364 314.377C72.7861 314.322 67.8403 312.062 67.8403 312.062L67.8047 309.621Z" fill="#DD9BA2"/>
<path d="M67.9453 308.658C68.0441 308.69 72.9504 311.179 73.1124 311.846C73.2743 312.514 72.9425 312.747 72.5593 312.695C72.1761 312.644 67.973 310.72 67.973 310.72L67.9453 308.658Z" fill="#DD9BA2"/>
<path d="M65.8537 300.077C65.8537 300.077 65.0162 307.922 66.4423 311.928C67.8684 315.933 72.269 318.248 72.269 318.248C72.269 318.248 73.6635 317.62 71.0326 315.123C68.4017 312.627 67.6314 309.905 68.4768 308.558C69.3221 307.211 71.1511 305.702 71.9767 308.08C72.8023 310.458 73.4463 312.275 74.0823 310.087C74.7183 307.898 73.6477 305.212 72.4113 304.078C71.1748 302.945 70.9022 300.029 70.9022 300.029" fill="#EDA6AC"/>
<path d="M458.98 418.823C505.555 418.823 543.312 416.529 543.312 413.7C543.312 410.87 505.555 408.576 458.98 408.576C412.405 408.576 374.648 410.87 374.648 413.7C374.648 416.529 412.405 418.823 458.98 418.823Z" fill="#CFD5EC"/>
<path d="M461.408 300.41L454.289 342.624L471.623 331.468V296.891L461.408 300.41Z" fill="#3E90D8"/>
<path d="M472.392 265.01L469.832 266.163C467.857 266.302 466.407 267.98 466.059 269.347C464.479 275.506 458.471 287.452 460.166 293.978C462.864 304.387 473.15 285.01 473.15 285.01L472.392 265.01Z" fill="#3E90D8"/>
<path d="M465.548 286.834L441.68 302.762L448.281 310.828L472.796 299.91L465.548 286.834Z" fill="#3E90D8"/>
<path d="M468.852 304.576C481.339 321.132 472.134 265.705 472.134 265.705Z" fill="#403E5D"/>
<path d="M405.4 319.637H399.344V412.683H405.4V319.637Z" fill="#4A4A4D"/>
<path d="M467.428 315H406.312V321.858H467.428V315Z" fill="#4A4A4D"/>
<path d="M406.315 314.812H341.68V321.67H406.315V314.812Z" fill="#4A4A4D"/>
<path d="M467.144 408.013L464.375 405.548L483.392 383.067V363.082H492.873V382.956L511.064 405.457L508.002 408.013L490.329 390.734H484.502L467.144 408.013Z" fill="#4691D4"/>
<path d="M514.179 412.446C516.174 410.451 516.174 407.217 514.179 405.222C512.184 403.227 508.95 403.227 506.956 405.222C504.961 407.217 504.961 410.451 506.955 412.446C508.95 414.44 512.184 414.44 514.179 412.446Z" fill="#403E5D"/>
<path d="M467.687 412.446C469.682 410.451 469.682 407.217 467.687 405.222C465.692 403.227 462.458 403.227 460.463 405.222C458.469 407.217 458.469 410.451 460.463 412.446C462.458 414.44 465.692 414.44 467.687 412.446Z" fill="#403E5D"/>
<path d="M515.247 351.238H459.461V355.994H515.247V351.238Z" fill="#403E5D"/>
<path d="M480.437 360.969H494.133V355.201H480.437V360.969Z" fill="#403E5D"/>
<path d="M501.789 353.613C501.789 353.613 523.267 357.323 524.274 336.963C525.325 315.793 524.274 296.891 524.274 296.891" stroke="#403E5D" stroke-width="12.04" stroke-miterlimit="10"/>
<path d="M518.273 278.943H526.569C527.116 278.943 527.657 279.05 528.163 279.259C528.668 279.468 529.127 279.775 529.514 280.162C529.901 280.548 530.207 281.008 530.416 281.513C530.625 282.018 530.733 282.56 530.732 283.107V323.503C530.733 324.05 530.625 324.592 530.416 325.097C530.207 325.602 529.901 326.062 529.514 326.448C529.127 326.835 528.668 327.142 528.163 327.351C527.657 327.56 527.116 327.667 526.569 327.667H518.273C517.726 327.667 517.184 327.56 516.679 327.351C516.174 327.142 515.714 326.835 515.328 326.448C514.941 326.062 514.634 325.602 514.425 325.097C514.216 324.592 514.109 324.05 514.109 323.503V283.107C514.109 282.003 514.548 280.944 515.329 280.163C516.11 279.382 517.169 278.943 518.273 278.943Z" fill="#4691D4"/>
<path d="M454.727 378.957L446.258 383.881L454.731 398.455L463.201 393.531L454.727 378.957Z" fill="#EDA6AC"/>
<path d="M505.998 330.386C505.998 330.386 510.13 345.504 501.017 350.185C491.904 354.866 454.261 352.03 454.261 352.03C460.629 358.054 465.183 366.895 469.055 376.794C469.655 378.319 470.24 379.875 470.805 381.444L456.67 386.311C452.614 387.014 414.56 339.649 430.717 334.439C434.324 333.254 459.448 325.428 469.402 326.348C473.309 326.727 477.185 327.379 481.001 328.3C485.476 329.406 489.889 330.844 493.981 331.038C501.345 331.393 505.505 330.006 505.505 330.006" fill="#003A58"/>
<path d="M450.812 381.625L468.194 374.613C469.13 376.983 470.169 379.678 470.789 381.408L456.679 386.31C455.675 386.433 453.21 384.149 450.812 381.625Z" fill="#054465"/>
<path d="M422.541 389.613L421.055 406.494L430.865 407.358L432.351 390.476L422.541 389.613Z" fill="#EDA6AC"/>
<path d="M434.105 393.646L419.358 391.67C419.358 391.67 416.565 343.145 422.001 339.068C425.518 336.519 429.473 334.638 433.67 333.518L439.667 352.578C439.517 368.284 438.3 382.735 434.105 393.661L433.753 393.523" fill="#003A58"/>
<path d="M436.705 384.915L419.023 384.438C419.162 387.021 419.3 389.834 419.331 391.667L434.106 393.642C435.089 393.413 435.82 387.886 436.705 384.915Z" fill="#054465"/>
<path d="M432.509 413.581H403.77C403.77 413.581 402.502 408.406 406.01 407.3C407.843 406.699 409.713 406.218 411.608 405.858L420.117 399.834L418.627 391.984C418.605 391.9 418.604 391.811 418.622 391.726C418.641 391.641 418.68 391.561 418.735 391.494C418.791 391.426 418.862 391.373 418.942 391.338C419.022 391.303 419.109 391.288 419.196 391.293C421.325 390.749 423.58 391.023 425.517 392.059C425.734 392.184 425.91 392.369 426.023 392.592C426.137 392.815 426.183 393.067 426.157 393.316L425.548 401.192L430.549 402.378C430.549 402.378 431.339 398.897 432.667 399.439C432.667 399.439 433.635 398.957 432.517 402.378L432.509 413.581Z" fill="#265E91"/>
<path d="M452.541 407.533C454.263 406.977 456.014 406.516 457.787 406.155C458.028 405.76 458.182 405.558 458.182 405.558L459.762 393.893L452.138 389.077C452.051 389.032 451.975 388.966 451.918 388.885C451.861 388.804 451.825 388.71 451.812 388.612C451.798 388.514 451.809 388.415 451.842 388.322C451.876 388.229 451.931 388.145 452.004 388.078C453.194 385.894 455.161 384.238 457.515 383.436C457.784 383.352 458.073 383.349 458.345 383.427C458.616 383.505 458.859 383.661 459.043 383.875L465.052 390.44L469.883 387.229C469.883 387.229 467.624 383.891 469.093 383.215C469.093 383.215 469.441 382.03 471.404 385.585L480.632 394.236L463.227 413.7C463.227 413.7 459.948 414.13 457.487 413.795H450.301C450.301 413.795 449.033 408.635 452.541 407.533Z" fill="#265E91"/>
<path d="M413.305 404.972L415.552 406.762C415.671 406.857 415.823 406.902 415.974 406.888C416.126 406.874 416.267 406.802 416.366 406.687L416.414 406.639C416.516 406.522 416.569 406.369 416.56 406.214C416.552 406.058 416.484 405.912 416.37 405.806L414.739 404.304C414.629 404.209 414.489 404.156 414.344 404.156C414.198 404.156 414.058 404.209 413.949 404.304L413.316 404.869" fill="#E8EDF1"/>
<path d="M415.203 403.613L417.447 405.403C417.566 405.498 417.718 405.544 417.87 405.53C418.022 405.517 418.163 405.446 418.265 405.332L418.308 405.28C418.41 405.164 418.463 405.012 418.455 404.857C418.447 404.702 418.378 404.556 418.265 404.451L416.633 402.95C416.525 402.853 416.384 402.799 416.238 402.799C416.092 402.799 415.952 402.853 415.843 402.95L415.211 403.515" fill="#E8EDF1"/>
<path d="M417 402.389L419.244 404.178C419.363 404.273 419.515 404.319 419.667 404.306C419.819 404.293 419.96 404.221 420.062 404.107L420.105 404.056C420.208 403.939 420.261 403.787 420.253 403.632C420.245 403.477 420.176 403.331 420.062 403.226L418.43 401.721C418.321 401.624 418.181 401.57 418.035 401.57C417.889 401.57 417.749 401.624 417.64 401.721L417.008 402.286" fill="#E8EDF1"/>
<path d="M418.523 401.186L420.767 402.975C420.887 403.07 421.038 403.116 421.19 403.103C421.342 403.089 421.484 403.018 421.585 402.904L421.628 402.853C421.73 402.736 421.783 402.584 421.775 402.429C421.767 402.274 421.699 402.129 421.585 402.023L419.954 400.522C419.845 400.425 419.704 400.371 419.558 400.371C419.413 400.371 419.272 400.425 419.163 400.522L418.531 401.087" fill="#E8EDF1"/>
<path d="M404.368 408.471L410.344 408.309C410.401 408.307 410.457 408.291 410.506 408.262C410.555 408.232 410.596 408.191 410.624 408.141C410.652 408.091 410.667 408.035 410.667 407.978C410.667 407.921 410.653 407.865 410.625 407.815L409.756 406.259C409.724 406.164 404.312 407.511 404.368 408.471Z" fill="#E8EDF1"/>
<path d="M458.735 403.486L461.943 403.012C462.114 402.987 462.268 402.896 462.374 402.76C462.479 402.624 462.529 402.453 462.512 402.281V402.206C462.495 402.032 462.41 401.871 462.275 401.759C462.141 401.646 461.968 401.591 461.793 401.606L459.296 401.795C459.13 401.807 458.975 401.881 458.86 402.001C458.745 402.122 458.68 402.281 458.676 402.447L458.656 403.403" fill="#E8EDF1"/>
<path d="M459.071 400.875L462.279 400.4C462.449 400.375 462.604 400.285 462.71 400.149C462.815 400.013 462.865 399.841 462.848 399.67V399.595C462.831 399.42 462.746 399.259 462.612 399.146C462.477 399.033 462.304 398.977 462.129 398.99L459.632 399.18C459.466 399.193 459.311 399.268 459.196 399.389C459.082 399.51 459.016 399.669 459.012 399.836L458.992 400.792" fill="#E8EDF1"/>
<path d="M459.45 398.437L462.654 397.963C462.825 397.938 462.98 397.849 463.086 397.712C463.192 397.576 463.241 397.404 463.223 397.232V397.157C463.206 396.982 463.121 396.821 462.987 396.708C462.852 396.595 462.679 396.539 462.504 396.553L460.007 396.742C459.841 396.755 459.686 396.829 459.572 396.951C459.458 397.072 459.393 397.232 459.391 397.398L459.367 398.354" fill="#E8EDF1"/>
<path d="M459.626 396.257L462.833 395.783C463.004 395.757 463.157 395.667 463.263 395.531C463.369 395.395 463.418 395.224 463.402 395.052V394.977C463.385 394.803 463.301 394.642 463.166 394.529C463.032 394.416 462.858 394.36 462.683 394.373L460.187 394.563C460.021 394.575 459.865 394.65 459.75 394.771C459.636 394.892 459.57 395.052 459.567 395.218L459.547 396.174" fill="#E8EDF1"/>
<path d="M462.682 410.195L478.965 392.684L480.15 393.794L463.653 411.515C463.316 411.877 462.908 412.167 462.454 412.365C462 412.562 461.51 412.664 461.015 412.664H450.124C450.079 412.219 450.067 411.772 450.088 411.325H460.043C460.537 411.331 461.027 411.233 461.481 411.038C461.936 410.844 462.345 410.557 462.682 410.195Z" fill="#E8EDF1"/>
<path d="M440.174 368.542C440.174 368.542 423.662 345.48 428.379 335.383" stroke="white" stroke-miterlimit="10" stroke-linecap="round"/>
<path d="M403.618 412.702L432.483 412.682V411.402H403.547C403.544 411.837 403.567 412.271 403.618 412.702Z" fill="#E8EDF1"/>
<path d="M471.573 227.334C469.392 225.947 457.64 235.076 465.671 238.643C470.878 240.954 476.298 231.592 474.662 230.976C473.027 230.359 471.573 227.334 471.573 227.334Z" fill="black"/>
<path d="M492.607 267.57L494.487 266.78L501.815 269.624C498.327 291.931 502.822 319.311 498.73 334.18C498.398 335.365 480.993 336.096 468.613 326.279C467.032 306.607 466.965 287.527 468.771 269.185C468.827 268.62 468.992 268.072 469.257 267.57C469.658 266.802 470.278 266.171 471.038 265.756L472.591 264.907C473.191 259.515 488.218 263.414 492.662 266.136" fill="#D7ECFF"/>
<path d="M488.12 267.491C482.854 271.872 478.995 274.684 473.836 268.715L475.234 266.392L475.602 256.805L487.848 253.277L486.663 266.586L488.12 267.491Z" fill="#EDA6AC"/>
<path d="M475.989 272.543C473.464 285.295 471.817 299.638 470.703 314.938L473.863 318.979L477.814 315.131C477.566 300.936 478.14 286.739 479.532 272.61" fill="#403E5D"/>
<path d="M475.355 270.973C475.338 271.295 475.385 271.618 475.493 271.922C475.602 272.226 475.769 272.506 475.986 272.745C476.203 272.984 476.466 273.178 476.758 273.315C477.05 273.452 477.367 273.53 477.69 273.544C478.342 273.598 478.99 273.392 479.491 272.971C479.993 272.55 480.308 271.949 480.368 271.297C480.385 270.974 480.338 270.652 480.23 270.347C480.122 270.043 479.955 269.763 479.738 269.524C479.522 269.285 479.26 269.091 478.968 268.953C478.676 268.815 478.36 268.736 478.037 268.721C477.384 268.668 476.736 268.875 476.234 269.296C475.732 269.718 475.416 270.32 475.355 270.973Z" fill="#403E5D"/>
<path d="M475.328 263.114C482.853 266.12 484.627 258.931 485.563 256.398L483.794 256.904L475.498 259.405L475.328 263.114Z" fill="#DD9BA2"/>
<path d="M466.141 238.545C463.972 248.124 465.351 258.814 471.849 261.322C478.142 263.756 486.683 257.396 491.692 248.76C497.981 237.925 493.576 228.614 485.98 225.983C478.494 223.395 468.784 226.868 466.141 238.545Z" fill="#EDA6AC"/>
<path d="M463.953 312.608C463.953 312.608 452.311 316.764 447.361 310.759C447.206 310.569 447.008 310.419 446.784 310.32C446.559 310.221 446.314 310.177 446.069 310.19L440.195 310.585L446.121 305.138C446.698 304.635 447.408 304.307 448.165 304.195C448.923 304.083 449.697 304.191 450.395 304.506L455.894 306.987L461.871 305.011L463.953 312.608Z" fill="#EDA6AC"/>
<path d="M483.395 294.508L478.837 343.465C478.831 343.648 478.862 343.831 478.928 344.002C478.994 344.173 479.094 344.329 479.221 344.461C479.349 344.593 479.501 344.698 479.67 344.769C479.839 344.841 480.02 344.878 480.203 344.879H507.82C508.131 344.879 508.439 344.813 508.723 344.685C509.006 344.558 509.26 344.372 509.467 344.139C509.673 343.907 509.829 343.633 509.922 343.337C510.015 343.04 510.045 342.727 510.009 342.418L504.312 281.697" fill="#3E90D8"/>
<path d="M486.883 256.207C487.108 256.369 490.418 257.128 495.257 245.992C500.097 234.856 494.546 229.795 494.546 229.795C494.546 229.795 488.325 221.745 481.309 222.874C474.293 224.004 468.091 228.286 466.258 232.442C464.425 236.598 475.13 236.392 475.13 236.392L482.636 238.838C485.749 244.972 491.165 249.547 487.108 254.765" fill="black"/>
<path d="M485.237 248.802C485.237 248.802 487.248 253.1 489.413 249.339C491.578 245.579 490.29 242.335 490.29 242.335C490.29 242.335 488.414 241.364 485.581 243.698C482.749 246.033 485.237 248.802 485.237 248.802Z" fill="#EDA6AC"/>
<path d="M476.906 236.046C476.906 236.046 479.122 245.243 485.202 242.489C491.281 239.736 484.914 231.622 483.966 231.792C483.017 231.962 476.906 236.046 476.906 236.046Z" fill="black"/>
<path d="M484.807 297.998C481.769 292.353 480.39 272.467 490.302 265.21L490.969 265.037C491.696 265.388 490.448 264.187 495.512 266.423C497.673 267.375 500.648 270.516 501.833 272.554C503.689 275.932 504.541 279.769 504.29 283.615C503.144 290.504 504.938 298.907 503.954 304.346C503.306 308.104 501.373 311.521 498.487 314.013C498.064 314.372 497.859 311.844 497.44 312.113L486.904 310.841L486.063 302.189L483.163 301.356C484.451 301.277 485.419 299.144 484.807 297.998Z" fill="#3E90D8"/>
<path d="M485.893 263.496C487.951 264.286 488.907 263.836 491.293 265.076L482.255 275.908L478.305 268.402L485.893 263.496Z" fill="white"/>
<path d="M486.082 263.627L478.016 268.367L482.254 275.897C482.254 275.897 489.626 266.953 490.945 264.899" stroke="#403E5D" stroke-width="1.22" stroke-miterlimit="10"/>
<path d="M473.515 264.348L477.651 268.409L471.117 274.702C471.015 270.538 471.39 266.774 472.891 263.945L473.515 264.348Z" fill="white"/>
<path d="M473.236 264.017L478.012 268.362L469.961 274.683C469.961 274.683 471.268 264.716 472.884 263.926" stroke="#403E5D" stroke-width="1.22" stroke-miterlimit="10"/>
<path d="M484.634 275.902C484.634 275.902 474.363 286.861 480.98 324.353C487.596 361.846 496.062 305.862 495.833 305.158C495.604 304.455 484.634 275.902 484.634 275.902Z" fill="#3E90D8"/>
<path d="M494.421 294.243C494.46 295.365 486.093 316.59 463.644 313.015L461.273 304.597L481.301 293.322L494.421 294.243Z" fill="#3E90D8"/>
<path d="M466.848 287.318C466.848 287.318 468.159 279.445 468.858 274.704C469.314 272.022 470.049 269.395 471.051 266.867C471.41 265.95 471.402 265.535 471.288 265.512C467.622 266.807 466.235 272.385 464.742 278.785" fill="#3E90D8"/>
<path d="M452.227 312.098H409.903L405.648 283H447.972L452.227 312.098Z" fill="#42455E"/>
<path d="M463.351 314.906H409.875V312.098H463.639L463.351 314.906Z" fill="#42455E"/>
<path d="M429.654 299.327C429.653 300.084 429.351 300.809 428.816 301.344C428.28 301.879 427.554 302.179 426.798 302.179C426.041 302.179 425.316 301.878 424.781 301.344C424.246 300.809 423.945 300.083 423.945 299.327C423.945 298.57 424.246 297.844 424.781 297.309C425.315 296.773 426.041 296.472 426.798 296.471C427.555 296.471 428.281 296.772 428.817 297.307C429.353 297.843 429.654 298.569 429.654 299.327Z" fill="white"/>
<path d="M461.828 304.598L470.191 299.881" stroke="#3B3B3B" stroke-width="2.36" stroke-miterlimit="10" stroke-linecap="round"/>
<path d="M479.492 311.01C479.492 311.01 486.492 307.779 487.349 306.021C487.349 306.021 495.084 290.496 495.179 287.688" stroke="#3B3B3B" stroke-width="2.36" stroke-miterlimit="10" stroke-linecap="round"/>
</svg>
