<svg xmlns="http://www.w3.org/2000/svg" width="463.599" height="281.872" viewBox="0 0 463.599 281.872">
  <g id="inspiring_workspaces" data-name="inspiring workspaces" transform="translate(-65 -45.244)">
    <path id="Path_94781" data-name="Path 94781" d="M505.421,319.721q-1.081,2-2.216,3.967H103.567q-1.847-1.95-3.633-3.967a133.144,133.144,0,0,1-13.318-17.8,122.6,122.6,0,0,1-6.281-11.4c-19.455-40.266-16.627-90.447-11.8-136.819,1.128-10.85,2.378-21.886,6.179-31.794,19.016-49.556,76.714-9.75,108.838-16.076,19.978-3.934,36.532-20.263,52.931-34.744s35.372-28.164,55.488-25.51C318.6,49.089,338.08,79.893,364.344,86.3c25.831,6.305,51.567-12.308,77.909-11.8,23.069.454,44.878,16.1,59.325,38.059s22.127,49.651,25.333,77.554C532.033,234.734,525.674,282.253,505.421,319.721Z" transform="translate(0 0)" fill="#ebf3fa"/>
    <g id="Group_184484" data-name="Group 184484" transform="translate(91.104 74.423)">
      <rect id="Rectangle_152132" data-name="Rectangle 152132" width="163.629" height="115.008" transform="translate(0 0)" fill="none" stroke="#8cb6e1" stroke-miterlimit="10" stroke-width="2"/>
      <line id="Line_1" data-name="Line 1" x2="163.629" transform="translate(0 29.891)" fill="none" stroke="#8cb6e1" stroke-miterlimit="10" stroke-width="2"/>
      <line id="Line_2" data-name="Line 2" y2="84.519" transform="translate(81.099 29.891)" fill="none" stroke="#8cb6e1" stroke-miterlimit="10" stroke-width="2"/>
    </g>
    <g id="Group_184485" data-name="Group 184485" transform="translate(351.148 74.423)">
      <rect id="Rectangle_152133" data-name="Rectangle 152133" width="163.629" height="115.008" transform="translate(0 0)" fill="none" stroke="#8cb6e1" stroke-miterlimit="10" stroke-width="2"/>
      <line id="Line_3" data-name="Line 3" x2="163.629" transform="translate(0 29.891)" fill="none" stroke="#8cb6e1" stroke-miterlimit="10" stroke-width="2"/>
      <line id="Line_4" data-name="Line 4" y2="84.519" transform="translate(81.099 29.891)" fill="none" stroke="#77ace3" stroke-miterlimit="10" stroke-width="2"/>
    </g>
    <g id="Group_184486" data-name="Group 184486" transform="translate(102.366 205.134)">
      <rect id="Rectangle_152134" data-name="Rectangle 152134" width="2.98" height="24.895" transform="translate(26.387 59.125) rotate(180)" fill="#91b8df"/>
      <path id="Path_94782" data-name="Path 94782" d="M116.23,406.989h2.121l20.523-50.639h-2.121Z" transform="translate(-116.23 -289.328)" fill="#91b8df"/>
      <path id="Path_94783" data-name="Path 94783" d="M156.308,408.243l2.058-.515,7.587-54.111-2.058.515Z" transform="translate(-127.076 -288.588)" fill="#91b8df"/>
      <path id="Path_94784" data-name="Path 94784" d="M232.9,406.989h-2.121L210.256,356.35h2.121Z" transform="translate(-141.676 -289.328)" fill="#91b8df"/>
      <rect id="Rectangle_152135" data-name="Rectangle 152135" width="2.98" height="24.895" transform="translate(52.941 59.125) rotate(180)" fill="#91b8df"/>
      <rect id="Rectangle_152136" data-name="Rectangle 152136" width="55.508" height="43.215" rx="16.962" transform="translate(64.739 43.215) rotate(180)" fill="#91b8df"/>
      <path id="Path_94785" data-name="Path 94785" d="M139.215,356.1h59.6a5.29,5.29,0,0,0,5.29-5.29h0a5.29,5.29,0,0,0-5.29-5.29h-59.6a5.29,5.29,0,0,0-5.29,5.29h0A5.29,5.29,0,0,0,139.215,356.1Z" transform="translate(-121.019 -286.398)" fill="#91b8df"/>
    </g>
    <g id="Group_184509" data-name="Group 184509" transform="translate(103.034 156.318)">
      <g id="Group_184508" data-name="Group 184508">
        <g id="Group_184487" data-name="Group 184487" transform="translate(1.181 31.624)">
          <path id="Path_94786" data-name="Path 94786" d="M129.808,283.908a5.577,5.577,0,1,1-4.351-6.578A5.576,5.576,0,0,1,129.808,283.908Z" transform="translate(-118.766 -250.72)" fill="#fdd2d0"/>
          <circle id="Ellipse_3742" data-name="Ellipse 3742" cx="6.459" cy="6.459" r="6.459" transform="translate(7.84 12.771) rotate(-81.352)" fill="#fdd2d0"/>
          <path id="Path_94787" data-name="Path 94787" d="M127.675,249.208,118.921,274.1l10.928,2.226,10.484-24.541Z" transform="translate(-118.808 -243.14)" fill="#fdd2d0"/>
        </g>
        <g id="Group_184490" data-name="Group 184490" transform="translate(43.796 36.119)">
          <g id="Group_184488" data-name="Group 184488" transform="translate(5.624 25.721)">
            <path id="Path_94788" data-name="Path 94788" d="M196.05,289.549a5.577,5.577,0,1,1-5.338-5.806A5.577,5.577,0,0,1,196.05,289.549Z" transform="translate(-184.902 -282.701)" fill="#fdd2d0"/>
            <path id="Path_94789" data-name="Path 94789" d="M232.743,285.705a3.253,3.253,0,1,1-3.113-3.386A3.253,3.253,0,0,1,232.743,285.705Z" transform="translate(-196.09 -282.316)" fill="#fdd2d0"/>
            <path id="Path_94790" data-name="Path 94790" d="M192.7,283.36l27.73-1.04-.273,6.5L192.227,294.5Z" transform="translate(-186.884 -282.317)" fill="#fdd2d0"/>
          </g>
          <g id="Group_184489" data-name="Group 184489">
            <path id="Path_94791" data-name="Path 94791" d="M195.692,287.715a5.576,5.576,0,1,1-7.147-3.332A5.577,5.577,0,0,1,195.692,287.715Z" transform="translate(-179.271 -257.063)" fill="#fdd2d0"/>
            <path id="Path_94792" data-name="Path 94792" d="M189.722,251.3a6.459,6.459,0,1,1-8.278-3.86A6.458,6.458,0,0,1,189.722,251.3Z" transform="translate(-177.192 -247.051)" fill="#fdd2d0"/>
            <path id="Path_94793" data-name="Path 94793" d="M177.729,257.3l5.55,25.8,10.48-3.815-3.891-26.4Z" transform="translate(-177.337 -248.629)" fill="#fdd2d0"/>
          </g>
        </g>
        <g id="Group_184491" data-name="Group 184491" transform="translate(43.271 28.148)">
          <path id="Path_94794" data-name="Path 94794" d="M188.916,240.143a6.411,6.411,0,0,1,.48,2.561l2.051,10.994L180.5,258.9l-3.546-13.872a6.46,6.46,0,0,1,11.962-4.884Z" transform="translate(-176.473 -236.123)" fill="#87b7e6"/>
          <path id="Path_94795" data-name="Path 94795" d="M180.521,263.2l.628,2.72,12.236-6.18-.627-2.719Z" transform="translate(-177.569 -241.779)" fill="#87b7e6"/>
        </g>
        <g id="Group_184492" data-name="Group 184492" transform="translate(59.093 137.701)">
          <path id="Path_94796" data-name="Path 94796" d="M212.118,403.554s-5.689-1.681-10.39-.765c0,0,.95,1.021,5.049,1.539S212.118,403.554,212.118,403.554Z" transform="translate(-199.13 -390.706)" fill="#683b1c"/>
          <path id="Path_94797" data-name="Path 94797" d="M201.364,401.482l1.68-15.158,11.126,1.406-2.78,15.444Z" transform="translate(-199.032 -386.325)" fill="#fdd2d0"/>
          <path id="Path_94798" data-name="Path 94798" d="M226.1,417.5l-18.2-2.3c-1.139-.144-1.791-1.625-3.535-1.845-.578-.073-1.018,1.271-1.018,1.271l-5.113-.646c.047-.376.14-.887.251-1.47.675-3.421,2.306-9.612,2.306-9.612s.461.487,4.279.969a16.14,16.14,0,0,0,6.106-.208,8.657,8.657,0,0,0,1.651,2.289c2.372,2.78,6.566,3.982,10.051,4.963,2.323.657,2.982,3.342,3.154,5.08A9.9,9.9,0,0,1,226.1,417.5Z" transform="translate(-198.183 -390.809)" fill="#ce9882"/>
          <path id="Path_94799" data-name="Path 94799" d="M231.813,418.776l-8.019-1.013c-2.994-.379-3.478,1.131-3.478,1.131" transform="translate(-204.16 -394.816)" fill="none" stroke="#a9693c" stroke-miterlimit="10" stroke-width="0.15"/>
          <path id="Path_94800" data-name="Path 94800" d="M200.4,408.113s3.233,1.967,2.341,6.646" transform="translate(-198.772 -392.221)" fill="none" stroke="#a9693c" stroke-miterlimit="10" stroke-width="0.15"/>
          <path id="Path_94801" data-name="Path 94801" d="M214.065,405.134s2.524,4,5.726,5.29a12.238,12.238,0,0,1-.258,2.994s-4.944-.778-7.5-.853a3.16,3.16,0,0,0-2.7,1.914" transform="translate(-201.187 -391.415)" fill="none" stroke="#a9693c" stroke-miterlimit="10" stroke-width="0.15"/>
          <path id="Path_94802" data-name="Path 94802" d="M216.8,405.057a2.187,2.187,0,0,1,.4,2.157" transform="translate(-203.209 -391.394)" fill="none" stroke="#3f220e" stroke-linecap="round" stroke-miterlimit="10" stroke-width="0.45"/>
          <path id="Path_94803" data-name="Path 94803" d="M217.435,406.424a1.3,1.3,0,0,0-1.718-.5" transform="translate(-202.916 -391.591)" fill="none" stroke="#3f220e" stroke-linecap="round" stroke-miterlimit="10" stroke-width="0.45"/>
          <path id="Path_94804" data-name="Path 94804" d="M218.926,407.564a2.189,2.189,0,0,1,.4,2.157" transform="translate(-203.784 -392.073)" fill="none" stroke="#3f220e" stroke-linecap="round" stroke-miterlimit="10" stroke-width="0.45"/>
          <path id="Path_94805" data-name="Path 94805" d="M219.584,408.623a2.206,2.206,0,0,0-2.238-.655" transform="translate(-203.357 -392.149)" fill="none" stroke="#3f220e" stroke-linecap="round" stroke-miterlimit="10" stroke-width="0.45"/>
          <path id="Path_94806" data-name="Path 94806" d="M221.216,409.439s.941.382.533,1.74" transform="translate(-204.404 -392.58)" fill="none" stroke="#3f220e" stroke-linecap="round" stroke-miterlimit="10" stroke-width="0.45"/>
          <path id="Path_94807" data-name="Path 94807" d="M221.838,410.332a3.709,3.709,0,0,0-2.365.1" transform="translate(-203.932 -392.781)" fill="none" stroke="#3f220e" stroke-linecap="round" stroke-miterlimit="10" stroke-width="0.45"/>
          <path id="Path_94808" data-name="Path 94808" d="M222.345,411.73a2.322,2.322,0,0,1,.751-.872" transform="translate(-204.71 -392.964)" fill="none" stroke="#3f220e" stroke-linecap="round" stroke-miterlimit="10" stroke-width="0.45"/>
          <path id="Path_94809" data-name="Path 94809" d="M226.312,419.587l-.187,1.478-19.392-2.45a3.608,3.608,0,0,0-2.055-1.379c-.876-.111-1.308.955-1.308.955l-5.2-.658.187-1.478Z" transform="translate(-198.166 -394.371)" fill="#53514c"/>
          <path id="Path_94810" data-name="Path 94810" d="M201.424,404.087a16.222,16.222,0,0,0,6.624,1.181" transform="translate(-199.048 -391.132)" fill="none" stroke="#a9693c" stroke-miterlimit="10" stroke-width="0.15"/>
        </g>
        <g id="Group_184493" data-name="Group 184493" transform="translate(83.068 125.919)">
          <path id="Path_94811" data-name="Path 94811" d="M243.523,386.1s-5.929-.217-10.255,1.837c0,0,1.174.753,5.273.238S243.523,386.1,243.523,386.1Z" transform="translate(-231.64 -374.48)" fill="#683b1c"/>
          <path id="Path_94812" data-name="Path 94812" d="M233.17,386.672l-2.134-15.1,11.127-1.4,1.141,15.651Z" transform="translate(-231.036 -370.172)" fill="#fdd2d0"/>
          <path id="Path_94813" data-name="Path 94813" d="M261.417,395.8l-18.2,2.29c-1.138.143-2.137-1.13-3.882-.91-.578.073-.671,1.483-.671,1.483l-5.114.643c-.047-.376-.084-.893-.121-1.486-.2-3.482-.152-9.884-.152-9.884s.567.358,4.386-.123a16.149,16.149,0,0,0,5.864-1.717,8.644,8.644,0,0,0,2.167,1.807c2.988,2.1,7.348,2.228,10.968,2.314,2.413.06,3.718,2.5,4.316,4.138A9.962,9.962,0,0,1,261.417,395.8Z" transform="translate(-231.64 -374.483)" fill="#ce9882"/>
          <path id="Path_94814" data-name="Path 94814" d="M266.464,395.868l-8.02,1.009c-2.994.376-3.088,1.958-3.088,1.958" transform="translate(-237.617 -377.126)" fill="none" stroke="#a9693c" stroke-miterlimit="10" stroke-width="0.15"/>
          <path id="Path_94815" data-name="Path 94815" d="M233.282,394.007s3.619,1.1,3.917,5.858" transform="translate(-231.644 -376.622)" fill="none" stroke="#a9693c" stroke-miterlimit="10" stroke-width="0.15"/>
          <path id="Path_94816" data-name="Path 94816" d="M246.637,387.295s3.438,3.247,6.86,3.7a12.264,12.264,0,0,1,.493,2.965s-4.982.473-7.477,1.036a3.16,3.16,0,0,0-2.144,2.525" transform="translate(-234.644 -374.806)" fill="none" stroke="#a9693c" stroke-miterlimit="10" stroke-width="0.15"/>
          <path id="Path_94817" data-name="Path 94817" d="M248.4,386.978a2.189,2.189,0,0,1,.922,1.99" transform="translate(-235.736 -374.72)" fill="none" stroke="#3f220e" stroke-linecap="round" stroke-miterlimit="10" stroke-width="0.45"/>
          <path id="Path_94818" data-name="Path 94818" d="M249.374,388.072a1.3,1.3,0,0,0-1.791-.062" transform="translate(-235.514 -374.911)" fill="none" stroke="#3f220e" stroke-linecap="round" stroke-miterlimit="10" stroke-width="0.45"/>
          <path id="Path_94819" data-name="Path 94819" d="M251.088,388.879a2.189,2.189,0,0,1,.922,1.99" transform="translate(-236.462 -375.235)" fill="none" stroke="#3f220e" stroke-linecap="round" stroke-miterlimit="10" stroke-width="0.45"/>
          <path id="Path_94820" data-name="Path 94820" d="M252,389.665a2.2,2.2,0,0,0-2.33-.078" transform="translate(-236.078 -375.339)" fill="none" stroke="#3f220e" stroke-linecap="round" stroke-miterlimit="10" stroke-width="0.45"/>
          <path id="Path_94821" data-name="Path 94821" d="M253.771,390.126s1.007.137.948,1.553" transform="translate(-237.188 -375.572)" fill="none" stroke="#3f220e" stroke-linecap="round" stroke-miterlimit="10" stroke-width="0.45"/>
          <path id="Path_94822" data-name="Path 94822" d="M254.618,390.673a3.71,3.71,0,0,0-2.266.681" transform="translate(-236.804 -375.719)" fill="none" stroke="#3f220e" stroke-linecap="round" stroke-miterlimit="10" stroke-width="0.45"/>
          <path id="Path_94823" data-name="Path 94823" d="M255.514,392a2.324,2.324,0,0,1,.511-1.032" transform="translate(-237.66 -375.799)" fill="none" stroke="#3f220e" stroke-linecap="round" stroke-miterlimit="10" stroke-width="0.45"/>
          <path id="Path_94824" data-name="Path 94824" d="M261.294,397.37l.186,1.478-19.393,2.439a3.606,3.606,0,0,0-2.332-.826c-.877.11-1.031,1.249-1.031,1.249l-5.2.655-.186-1.478Z" transform="translate(-231.657 -377.533)" fill="#53514c"/>
          <path id="Path_94825" data-name="Path 94825" d="M233.27,389.668a16.217,16.217,0,0,0,6.71-.5" transform="translate(-231.64 -375.313)" fill="none" stroke="#a9693c" stroke-miterlimit="10" stroke-width="0.15"/>
        </g>
        <path id="Path_94826" data-name="Path 94826" d="M140.784,284.39l34.408-3.606L171.4,236.7l-31.7,3.726Z" transform="translate(-123.251 -208.133)" fill="#61a0e0"/>
        <g id="Group_184494" data-name="Group 184494" transform="translate(23.895 76.546)">
          <path id="Path_94827" data-name="Path 94827" d="M215.144,321.556l-1.87-18.119-44.64,3.1,3.169,22.921Z" transform="translate(-154.975 -302.739)" fill="#0572a8"/>
          <circle id="Ellipse_3743" data-name="Ellipse 3743" cx="11.582" cy="11.582" r="11.582" transform="translate(0 9.243) rotate(-23.517)" fill="#0572a8"/>
          <path id="Path_94828" data-name="Path 94828" d="M232.266,305.4a9.145,9.145,0,1,1-12.843,1.523A9.145,9.145,0,0,1,232.266,305.4Z" transform="translate(-168.189 -302.738)" fill="#0572a8"/>
        </g>
        <g id="Group_184495" data-name="Group 184495" transform="translate(61.328 92.569)">
          <path id="Path_94829" data-name="Path 94829" d="M201.229,379.152l13.579,1.274,8.036-40.933-18.129-2.411Z" transform="translate(-201.229 -327.866)" fill="#0572a8"/>
          <circle id="Ellipse_3744" data-name="Ellipse 3744" cx="9.145" cy="9.145" r="9.145" transform="translate(2.197 18.101) rotate(-81.751)" fill="#0572a8"/>
        </g>
        <path id="Path_94830" data-name="Path 94830" d="M177.271,311.286l-2.365-14.147L140.5,300.745l-1.853,16.7c.015,1.19,2.8-1.535,3.934-1.162l13.961,4.592a10.947,10.947,0,0,0,8.716-.818l10.614-5.869A2.789,2.789,0,0,0,177.271,311.286Z" transform="translate(-122.965 -224.488)" fill="#0572a8"/>
        <g id="Group_184496" data-name="Group 184496" transform="translate(26.711 21.953)">
          <circle id="Ellipse_3745" data-name="Ellipse 3745" cx="5.757" cy="5.757" r="5.757" transform="translate(0 12.348) rotate(-73.578)" fill="#f6caca"/>
          <path id="Path_94831" data-name="Path 94831" d="M155.711,235.561l.722-7.931,11.09.936-.346,8.04Z" transform="translate(-154.295 -227.63)" fill="#f6caca"/>
        </g>
        <g id="Group_184498" data-name="Group 184498" transform="translate(23.51 18.113)">
          <path id="Path_94832" data-name="Path 94832" d="M152.3,222.385s-3.465-.481-2.846,3.246S154.377,228,154.377,228Z" transform="translate(-149.38 -222.365)" fill="#fdd2d0"/>
          <g id="Group_184497" data-name="Group 184497" transform="translate(0.987 1.544)">
            <path id="Path_94833" data-name="Path 94833" d="M152.135,224.486a1.226,1.226,0,0,0-1.272.612,1.655,1.655,0,0,0-.109.384,1.81,1.81,0,0,0,.086.889,1.472,1.472,0,0,0,.532.726,1.132,1.132,0,0,0,.926.174" transform="translate(-150.733 -224.482)" fill="none" stroke="#fc9eaa" stroke-linecap="round" stroke-miterlimit="10" stroke-width="0.5"/>
            <path id="Path_94834" data-name="Path 94834" d="M152.359,226.391c.188-.451-.805-1.124-1.578-.311" transform="translate(-150.746 -224.811)" fill="none" stroke="#fc9eaa" stroke-linecap="round" stroke-miterlimit="10" stroke-width="0.5"/>
          </g>
        </g>
        <path id="Path_94835" data-name="Path 94835" d="M167.844,236.632l.049-1.092a7.69,7.69,0,0,1-9.981-1.821C157.943,234.217,160.971,240,167.844,236.632Z" transform="translate(-128.178 -207.325)" fill="#dca7a7" opacity="0.4"/>
        <path id="Path_94836" data-name="Path 94836" d="M154.11,223.874s2.709,6.016,6.191,6.757,7.787-.736,7.514-4.9l-.59-8.966a6.071,6.071,0,0,0-3.743-5.265,9.71,9.71,0,0,0-7.622.39C148.382,215.072,154.11,223.874,154.11,223.874Z" transform="translate(-126.582 -201.15)" fill="#fdd2d0"/>
        <path id="Path_94837" data-name="Path 94837" d="M163.581,223.541c.023.337-.152.623-.389.639s-.448-.245-.47-.582.152-.623.389-.639S163.56,223.2,163.581,223.541Z" transform="translate(-129.48 -204.412)" fill="#2e1124"/>
        <path id="Path_94838" data-name="Path 94838" d="M169.826,223.131c.022.337-.152.623-.389.638s-.448-.245-.47-.582.152-.623.39-.638S169.8,222.793,169.826,223.131Z" transform="translate(-131.17 -204.302)" fill="#2e1124"/>
        <path id="Path_94839" data-name="Path 94839" d="M168,220.962a1.534,1.534,0,0,1,1.969-.129" transform="translate(-130.908 -203.756)" fill="none" stroke="#2e1124" stroke-linecap="round" stroke-miterlimit="10" stroke-width="0.5"/>
        <path id="Path_94840" data-name="Path 94840" d="M161.807,221.369a1.535,1.535,0,0,1,1.969-.129" transform="translate(-129.233 -203.867)" fill="none" stroke="#2e1124" stroke-linecap="round" stroke-miterlimit="10" stroke-width="0.5"/>
        <path id="Path_94841" data-name="Path 94841" d="M168.144,232.258a2.427,2.427,0,0,1-2.922-.035" transform="translate(-130.157 -206.92)" fill="none" stroke="#fc9eaa" stroke-linecap="round" stroke-miterlimit="10" stroke-width="0.5"/>
        <path id="Path_94842" data-name="Path 94842" d="M167.02,224.536s1.73,2.76,1.551,3.163-1.009.253-1.009.253" transform="translate(-130.644 -204.84)" fill="none" stroke="#fc9eaa" stroke-linecap="round" stroke-miterlimit="10" stroke-width="0.5"/>
        <line id="Line_5" data-name="Line 5" x2="1.558" y2="30.346" transform="translate(35.003 41.114)" fill="none" stroke="#fff" stroke-linecap="round" stroke-miterlimit="10" stroke-width="1"/>
        <g id="Group_184499" data-name="Group 184499" transform="translate(20.94)">
          <path id="Path_94845" data-name="Path 94845" d="M148.471,218.473s-.257-1.171.272-1.718c1.818-1.886,3.478-.322,3.926,2.964,0,0,.379.308.358-.224a23.056,23.056,0,0,1-.331-4.2,5.471,5.471,0,0,0-.5-2.61s8.448,1.3,12.233-2.182c1.477.971,1.147,5.055,1.382,6.477.928-1.9,3.354-5.074,1.336-6.74,1.788-1.719,4.02-8.79.354-11.628-2.451-1.9-4.948-1.694-9.834,3.791-2.6,2.922-5.175-1.128-7.022,4.093-2.093-1.717-5.287,1.246-4.723,5.062C146.652,216.5,148.471,218.473,148.471,218.473Z" transform="translate(-145.856 -197.531)"/>
        </g>
        <g id="Group_184501" data-name="Group 184501" transform="translate(11.439 82.547)">
          <path id="Path_94855" data-name="Path 94855" d="M197.2,337,198,318.8l-44.614-3.453-.21,23.138Z" transform="translate(-138.336 -311.964)" fill="#0572a8"/>
          <circle id="Ellipse_3747" data-name="Ellipse 3747" cx="11.582" cy="11.582" r="11.582" transform="translate(0 8.24) rotate(-20.837)" fill="#0572a8"/>
          <path id="Path_94856" data-name="Path 94856" d="M216.215,322.838a9.145,9.145,0,1,1-12.927-.368A9.145,9.145,0,0,1,216.215,322.838Z" transform="translate(-151.122 -313.215)" fill="#0572a8"/>
        </g>
        <g id="Group_184502" data-name="Group 184502" transform="translate(74.663 79.485)">
          <path id="Path_94857" data-name="Path 94857" d="M240.6,360.475l-13.609.9-6.9-41.14,18.188-1.907Z" transform="translate(-219.67 -309.707)" fill="#0572a8"/>
          <circle id="Ellipse_3748" data-name="Ellipse 3748" cx="9.145" cy="9.145" r="9.145" transform="translate(0 0.751) rotate(-2.354)" fill="#0572a8"/>
        </g>
        <path id="Path_94858" data-name="Path 94858" d="M200.8,391.3l14.892,1.257-.456,2.593-14.6-1.2Z" transform="translate(-139.739 -249.972)" fill="#030b48"/>
        <path id="Path_94859" data-name="Path 94859" d="M228.359,373.94l14.886-1.325,0,2.633L228.65,376.58Z" transform="translate(-147.244 -244.914)" fill="#030b48"/>
        <path id="Path_94860" data-name="Path 94860" d="M140.863,300.753l34.846-3.677.648,3.2-35.438,3.3Z" transform="translate(-123.565 -224.471)" fill="#030b48"/>
        <path id="Path_94861" data-name="Path 94861" d="M145.7,308.587s1.409,8.938-2.66,11.742" transform="translate(-124.155 -227.586)" fill="none" stroke="#030b48" stroke-linecap="round" stroke-miterlimit="10" stroke-width="1"/>
        <path id="Path_94862" data-name="Path 94862" d="M171.686,255.213a14.64,14.64,0,0,0,7.221-.737" transform="translate(-131.906 -212.942)" fill="#fff" stroke="#fff" stroke-linecap="round" stroke-miterlimit="10" stroke-width="1"/>
        <g id="Group_184503" data-name="Group 184503" transform="translate(36.43 45.257)">
          <path id="Path_94863" data-name="Path 94863" d="M168.384,260.184a.645.645,0,1,1-.686-.6A.645.645,0,0,1,168.384,260.184Z" transform="translate(-167.094 -259.581)" fill="#fff" stroke="#fff" stroke-width="1"/>
          <path id="Path_94864" data-name="Path 94864" d="M168.709,265.119a.645.645,0,1,1-.686-.6A.646.646,0,0,1,168.709,265.119Z" transform="translate(-167.182 -260.917)" fill="#fff" stroke="#fff" stroke-width="1"/>
          <path id="Path_94865" data-name="Path 94865" d="M169.033,270.054a.645.645,0,1,1-.686-.6A.646.646,0,0,1,169.033,270.054Z" transform="translate(-167.27 -262.252)" fill="#fff" stroke="#fff" stroke-width="1"/>
        </g>
        <line id="Line_6" data-name="Line 6" y1="4.483" x2="0.62" transform="translate(21.131 43.793)" fill="none" stroke="#fff" stroke-linecap="round" stroke-miterlimit="10" stroke-width="1"/>
        <line id="Line_7" data-name="Line 7" x1="0.433" y1="4.505" transform="translate(49.254 40.82)" fill="none" stroke="#fff" stroke-linecap="round" stroke-miterlimit="10" stroke-width="1"/>
        <g id="Group_184504" data-name="Group 184504" transform="translate(0 59.486)">
          <path id="Path_94866" data-name="Path 94866" d="M128.125,283.523a5.576,5.576,0,1,0-4.012,6.789A5.577,5.577,0,0,0,128.125,283.523Z" transform="translate(-117.146 -279.156)" fill="#fdd2d0"/>
          <path id="Path_94867" data-name="Path 94867" d="M165.013,281.533a3.253,3.253,0,1,0-2.341,3.96A3.253,3.253,0,0,0,165.013,281.533Z" transform="translate(-128.367 -279.09)" fill="#fdd2d0"/>
          <path id="Path_94868" data-name="Path 94868" d="M125.667,290.284l27.339-4.753-1.62-6.3-28.5.252Z" transform="translate(-118.701 -279.128)" fill="#fdd2d0"/>
        </g>
        <g id="Group_184505" data-name="Group 184505" transform="translate(3.803 32.331)">
          <path id="Path_94869" data-name="Path 94869" d="M141.644,249.779a6.415,6.415,0,0,1-1.087,2.368l-4.672,10.161-11.941-2.072,5.113-13.374a6.46,6.46,0,0,1,12.587,2.918Z" transform="translate(-122.789 -241.858)" fill="#87b7e6"/>
          <path id="Path_94870" data-name="Path 94870" d="M123.419,264.69l-1.058,2.583,13.559,2.017,1.057-2.583Z" transform="translate(-122.361 -248.037)" fill="#87b7e6"/>
        </g>
        <g id="Group_184506" data-name="Group 184506" transform="translate(30.592 54.923)">
          <path id="Path_94871" data-name="Path 94871" d="M164.947,278.74s3.117-4.017,3.971-4.734,1.992,1.446,1.992,1.446Z" transform="translate(-160.675 -273.111)" fill="#ffd5ce"/>
          <path id="Path_94872" data-name="Path 94872" d="M168.679,275.2l-8.657,5.6c-3.258,2.109,2.936,3.72,4.645,3.1,0,0,4.23-.811,5.872-2.356S171.047,273.344,168.679,275.2Z" transform="translate(-159.09 -273.385)" fill="#ffd5ce"/>
          <path id="Path_94873" data-name="Path 94873" d="M172.288,274.29s8.022-1.343,9.012-1.453.594,1.738-1.265,2.146-6.486,2.075-8.379,2.636S169.307,275.424,172.288,274.29Z" transform="translate(-162.081 -272.832)" fill="#ffd5ce"/>
          <path id="Path_94874" data-name="Path 94874" d="M169.3,278.753s5.768-.278,7.407.187c.885.251,2.482,3.375,2.85,3.944s-.651,1.957-2.033.306c-.657-.786-2.015-2.578-2.015-2.578l-6.222,1.109S166.775,279.446,169.3,278.753Z" transform="translate(-161.548 -274.413)" fill="#ffd5ce"/>
          <path id="Path_94875" data-name="Path 94875" d="M165.588,281.734s5.768-.277,7.407.187c.885.251,2.482,3.376,2.85,3.944s-.651,1.958-2.033.306c-.657-.786-2.015-2.578-2.015-2.578l-6.221,1.109S163.063,282.426,165.588,281.734Z" transform="translate(-160.544 -275.219)" fill="#ffd5ce"/>
          <path id="Path_94876" data-name="Path 94876" d="M163.8,283.658s5.353-.257,6.874.174c.821.233,2.3,3.132,2.645,3.66s-.6,1.817-1.886.284c-.61-.729-1.87-2.392-1.87-2.392l-5.387.494S161.461,284.3,163.8,283.658Z" transform="translate(-160.108 -275.742)" fill="#ffd5ce"/>
          <path id="Path_94877" data-name="Path 94877" d="M173.476,275.571c-.04-.17-.4-.5-.664-.436" transform="translate(-162.803 -273.453)" fill="none" stroke="#e38c72" stroke-linecap="round" stroke-miterlimit="10" stroke-width="0.5"/>
          <path id="Path_94878" data-name="Path 94878" d="M174.976,280.221a.71.71,0,0,0-.017-.794" transform="translate(-163.384 -274.617)" fill="none" stroke="#e38c72" stroke-linecap="round" stroke-miterlimit="10" stroke-width="0.5"/>
          <path id="Path_94879" data-name="Path 94879" d="M174.225,283.12c.169-.046.491-.414.414-.678" transform="translate(-163.186 -275.433)" fill="none" stroke="#e38c72" stroke-linecap="round" stroke-miterlimit="10" stroke-width="0.5"/>
          <path id="Path_94880" data-name="Path 94880" d="M172.1,284.905c.171.036.625-.144.678-.414" transform="translate(-162.612 -275.988)" fill="none" stroke="#e38c72" stroke-linecap="round" stroke-miterlimit="10" stroke-width="0.5"/>
        </g>
        <g id="Group_184507" data-name="Group 184507" transform="translate(78.938 56.721)">
          <path id="Path_94881" data-name="Path 94881" d="M231.231,281.205s3.117-4.016,3.971-4.734,1.993,1.446,1.993,1.446Z" transform="translate(-226.959 -275.576)" fill="#ffd5ce"/>
          <path id="Path_94882" data-name="Path 94882" d="M234.964,277.661l-8.658,5.6c-3.258,2.109,2.936,3.72,4.645,3.1,0,0,4.23-.811,5.871-2.355S237.331,275.809,234.964,277.661Z" transform="translate(-225.374 -275.85)" fill="#ffd5ce"/>
          <path id="Path_94883" data-name="Path 94883" d="M238.572,276.756s8.022-1.344,9.012-1.454.594,1.739-1.265,2.146-6.487,2.075-8.38,2.636S235.591,277.889,238.572,276.756Z" transform="translate(-228.365 -275.297)" fill="#ffd5ce"/>
          <path id="Path_94884" data-name="Path 94884" d="M235.584,281.219s5.768-.277,7.408.187c.884.251,2.481,3.375,2.85,3.944s-.651,1.958-2.032.306c-.658-.786-2.015-2.578-2.015-2.578l-6.221,1.109S233.059,281.911,235.584,281.219Z" transform="translate(-227.833 -276.878)" fill="#ffd5ce"/>
          <path id="Path_94885" data-name="Path 94885" d="M231.872,284.2s5.768-.278,7.407.187c.885.252,2.482,3.376,2.85,3.944s-.651,1.958-2.033.306c-.657-.786-2.015-2.578-2.015-2.578l-6.222,1.109S229.347,284.892,231.872,284.2Z" transform="translate(-226.828 -277.684)" fill="#ffd5ce"/>
          <path id="Path_94886" data-name="Path 94886" d="M230.089,286.124s5.353-.258,6.874.174c.821.233,2.3,3.132,2.645,3.66s-.6,1.817-1.886.284c-.61-.729-1.87-2.392-1.87-2.392l-5.387.494S227.745,286.765,230.089,286.124Z" transform="translate(-226.392 -278.207)" fill="#ffd5ce"/>
          <path id="Path_94887" data-name="Path 94887" d="M239.76,278.037c-.04-.171-.4-.5-.664-.437" transform="translate(-229.087 -275.918)" fill="none" stroke="#e38c72" stroke-linecap="round" stroke-miterlimit="10" stroke-width="0.5"/>
          <path id="Path_94888" data-name="Path 94888" d="M241.26,282.686a.707.707,0,0,0-.017-.794" transform="translate(-229.668 -277.082)" fill="none" stroke="#e38c72" stroke-linecap="round" stroke-miterlimit="10" stroke-width="0.5"/>
          <path id="Path_94889" data-name="Path 94889" d="M240.509,285.585c.169-.046.491-.414.414-.678" transform="translate(-229.47 -277.898)" fill="none" stroke="#e38c72" stroke-linecap="round" stroke-miterlimit="10" stroke-width="0.5"/>
          <path id="Path_94890" data-name="Path 94890" d="M238.387,287.37c.171.036.625-.144.678-.414" transform="translate(-228.896 -278.453)" fill="none" stroke="#e38c72" stroke-linecap="round" stroke-miterlimit="10" stroke-width="0.5"/>
        </g>
      </g>
    </g>
    <g id="Group_184510" data-name="Group 184510" transform="translate(249.917 218.237)">
      <rect id="Rectangle_152137" data-name="Rectangle 152137" width="62.649" height="100.248" transform="translate(4.694 5.36)" fill="#61a0e0"/>
      <rect id="Rectangle_152138" data-name="Rectangle 152138" width="49.873" height="24.216" transform="translate(10.81 12.519)" fill="#fff"/>
      <rect id="Rectangle_152139" data-name="Rectangle 152139" width="49.873" height="24.216" transform="translate(10.81 42.409)" fill="#fff"/>
      <rect id="Rectangle_152140" data-name="Rectangle 152140" width="49.873" height="24.216" transform="translate(10.81 72.3)" fill="#fff"/>
      <path id="Path_94891" data-name="Path 94891" d="M387.345,288.868H321.751a3.221,3.221,0,0,1-3.222-3.221h0a3.222,3.222,0,0,1,3.222-3.222h65.594a3.221,3.221,0,0,1,3.221,3.222h0A3.221,3.221,0,0,1,387.345,288.868Z" transform="translate(-318.529 -282.425)" fill="#61a0e0"/>
      <circle id="Ellipse_3749" data-name="Ellipse 3749" cx="1.837" cy="1.837" r="1.837" transform="translate(34.181 16.521)" fill="#61a0e0"/>
      <circle id="Ellipse_3750" data-name="Ellipse 3750" cx="1.837" cy="1.837" r="1.837" transform="translate(34.181 44.555)" fill="#61a0e0"/>
      <path id="Path_94892" data-name="Path 94892" d="M369.068,386.3a1.837,1.837,0,1,1-1.837-1.837A1.837,1.837,0,0,1,369.068,386.3Z" transform="translate(-331.212 -310.04)" fill="#61a0e0"/>
    </g>
    <g id="Group_184511" data-name="Group 184511" transform="translate(164.921 171.271)">
      <rect id="Rectangle_152141" data-name="Rectangle 152141" width="74.203" height="42.279" rx="10.766" transform="translate(74.203 42.279) rotate(180)" fill="#90bbe8"/>
      <path id="Path_94893" data-name="Path 94893" d="M257.949,280.394h9.06l-5.824-20.34h-9.06Z" transform="translate(-215.563 -229.404)" fill="#90bbe8"/>
      <path id="Path_94894" data-name="Path 94894" d="M263.348,290.964H239.205a1.512,1.512,0,0,1-1.511-1.512h0a1.512,1.512,0,0,1,1.511-1.511h24.143a1.512,1.512,0,0,1,1.512,1.511h0A1.512,1.512,0,0,1,263.348,290.964Z" transform="translate(-211.657 -236.952)" fill="#90bbe8"/>
    </g>
    <g id="Group_184512" data-name="Group 184512" transform="translate(76.585 223.55)">
      <path id="Path_94895" data-name="Path 94895" d="M294.851,394.09h0a2.728,2.728,0,0,0,2.589-3.379l-21.821-95.87a2.679,2.679,0,0,0-2.589-2.12h0a2.729,2.729,0,0,0-2.589,3.379l21.821,95.871A2.68,2.68,0,0,0,294.851,394.09Z" transform="translate(-132.163 -290.524)" fill="#acc6df"/>
      <path id="Path_94896" data-name="Path 94896" d="M273.031,394.09h0a2.729,2.729,0,0,1-2.589-3.379l21.821-95.87a2.68,2.68,0,0,1,2.589-2.12h0a2.728,2.728,0,0,1,2.589,3.379L275.619,391.97A2.679,2.679,0,0,1,273.031,394.09Z" transform="translate(-132.163 -290.524)" fill="#acc6df"/>
      <path id="Path_94897" data-name="Path 94897" d="M118.991,394.09h0a2.729,2.729,0,0,0,2.589-3.379L99.76,294.84a2.68,2.68,0,0,0-2.589-2.12h0a2.728,2.728,0,0,0-2.589,3.379L116.4,391.97A2.679,2.679,0,0,0,118.991,394.09Z" transform="translate(-84.571 -290.524)" fill="#acc6df"/>
      <path id="Path_94898" data-name="Path 94898" d="M97.172,394.09h0a2.728,2.728,0,0,1-2.589-3.379L116.4,294.84a2.679,2.679,0,0,1,2.589-2.12h0a2.729,2.729,0,0,1,2.589,3.379L99.76,391.97A2.68,2.68,0,0,1,97.172,394.09Z" transform="translate(-84.571 -290.524)" fill="#acc6df"/>
      <path id="Path_94899" data-name="Path 94899" d="M87,301.948H248.1a6.119,6.119,0,0,0,6.119-6.119h0a6.119,6.119,0,0,0-6.119-6.119H87a6.12,6.12,0,0,0-6.12,6.119h0A6.12,6.12,0,0,0,87,301.948Z" transform="translate(-80.883 -289.709)" fill="#91b8df"/>
    </g>
    <g id="Group_184513" data-name="Group 184513" transform="translate(378.654 206.111)">
      <rect id="Rectangle_152142" data-name="Rectangle 152142" width="2.956" height="24.691" transform="translate(64.307 33.951)" fill="#91b8df"/>
      <path id="Path_94900" data-name="Path 94900" d="M610.75,407.165h-2.1L588.291,356.94h2.1Z" transform="translate(-520.271 -290.465)" fill="#91b8df"/>
      <path id="Path_94901" data-name="Path 94901" d="M575.783,408.409l-2.041-.511-7.525-53.669,2.041.511Z" transform="translate(-514.297 -289.731)" fill="#91b8df"/>
      <path id="Path_94902" data-name="Path 94902" d="M495.033,407.165h2.1l20.355-50.226h-2.1Z" transform="translate(-495.033 -290.465)" fill="#91b8df"/>
      <rect id="Rectangle_152143" data-name="Rectangle 152143" width="2.956" height="24.691" transform="translate(37.97 33.951)" fill="#91b8df"/>
      <rect id="Rectangle_152144" data-name="Rectangle 152144" width="55.054" height="42.861" rx="16.962" transform="translate(26.269)" fill="#91b8df"/>
      <path id="Path_94903" data-name="Path 94903" d="M570.458,356.694H511.347a5.247,5.247,0,0,1-5.247-5.246h0a5.247,5.247,0,0,1,5.247-5.247h59.111a5.247,5.247,0,0,1,5.247,5.247h0A5.247,5.247,0,0,1,570.458,356.694Z" transform="translate(-498.028 -287.559)" fill="#91b8df"/>
    </g>
    <g id="Group_184534" data-name="Group 184534" transform="translate(361.936 164.747)">
      <path id="Path_94904" data-name="Path 94904" d="M575.277,212.055a3.24,3.24,0,1,0,3.5-2.955A3.24,3.24,0,0,0,575.277,212.055Z" transform="translate(-500.028 -209.088)"/>
      <path id="Path_94905" data-name="Path 94905" d="M574.588,237.082l-16.849-2.8s-7.071-21.6,9.375-21.775C579.072,212.381,583.781,223.018,574.588,237.082Z" transform="translate(-494.876 -210.013)"/>
      <g id="Group_184514" data-name="Group 184514" transform="translate(0 124.236)">
        <path id="Path_94906" data-name="Path 94906" d="M479.613,403.316c4.75-.886,8.3-1.482,11.484-2.1l2.645,4.607-6.665.785-7.659-.984Z" transform="translate(-474.089 -385.318)" fill="#ffb89b"/>
        <path id="Path_94907" data-name="Path 94907" d="M503.8,398.6l1.556-18.382-9.4-.794-1.231,18.511Z" transform="translate(-478.233 -379.421)" fill="#ffb89b"/>
        <path id="Path_94908" data-name="Path 94908" d="M472.347,406.74l22.4,1.893,1.35-1.891.216,2.023,1.125.1.805-1.993s1.287-3.546-.155-5.739c-6.323,1.9-12.852,3.31-20.458,2.165l-5.284,1.885C472.1,405.575,471.976,406.423,472.347,406.74Z" transform="translate(-472.112 -385.296)" fill="#3a3735"/>
      </g>
      <g id="Group_184517" data-name="Group 184517" transform="translate(21.262 26.339)">
        <g id="Group_184515" data-name="Group 184515" transform="translate(0 24.056)">
          <path id="Path_94909" data-name="Path 94909" d="M535.219,283.152a5.391,5.391,0,1,1,4.955,5.794A5.39,5.39,0,0,1,535.219,283.152Z" transform="translate(-510.448 -278.181)" fill="#ffd5ce"/>
          <path id="Path_94910" data-name="Path 94910" d="M501.272,287.291a3.144,3.144,0,1,1,2.891,3.38A3.144,3.144,0,0,1,501.272,287.291Z" transform="translate(-501.263 -279.862)" fill="#ffd5ce"/>
          <path id="Path_94911" data-name="Path 94911" d="M532.065,288.953,505.239,289l.489-6.27L532.9,278.2Z" transform="translate(-502.339 -278.187)" fill="#ffd5ce"/>
        </g>
        <g id="Group_184516" data-name="Group 184516" transform="translate(25.411)">
          <circle id="Ellipse_3751" data-name="Ellipse 3751" cx="5.391" cy="5.391" r="5.391" transform="translate(0 25.536)" fill="#ffd5ce"/>
          <circle id="Ellipse_3752" data-name="Ellipse 3752" cx="6.244" cy="6.244" r="6.244" transform="translate(6.947 0.789) rotate(-3.622)" fill="#ffd5ce"/>
          <path id="Path_94912" data-name="Path 94912" d="M543.53,252.966,536.191,277.4l10.653,1.66,9.026-24.169Z" transform="translate(-536.127 -247.301)" fill="#ffd5ce"/>
        </g>
      </g>
      <path id="Path_94913" data-name="Path 94913" d="M555.827,250.927A6.188,6.188,0,0,1,555,253.3l-3.569,10.206-11.681-.9,3.7-13.339a6.245,6.245,0,0,1,12.38,1.659Z" transform="translate(-490.416 -218.496)" fill="#87b7e6"/>
      <path id="Path_94914" data-name="Path 94914" d="M539.114,267.3l-.782,2.583,13.234.7.782-2.582Z" transform="translate(-490.033 -224.842)" fill="#61a0e0"/>
      <g id="Group_184518" data-name="Group 184518" transform="translate(55.72 25.398)">
        <path id="Path_94915" data-name="Path 94915" d="M575.539,290.094l-27.033-2.285,2.828-43.9,29.109,3.974Z" transform="translate(-548.507 -243.91)" fill="#61a0e0"/>
      </g>
      <g id="Group_184519" data-name="Group 184519" transform="translate(18.134 70.354)">
        <path id="Path_94916" data-name="Path 94916" d="M506.109,313.215l1.838,16.479,40.612-3.154L545.5,305.7Z" transform="translate(-499.446 -305.588)" fill="#0572a8"/>
        <path id="Path_94917" data-name="Path 94917" d="M551.847,324.425a10.544,10.544,0,1,1,14.792-1.879A10.544,10.544,0,0,1,551.847,324.425Z" transform="translate(-510.718 -305.546)" fill="#0572a8"/>
        <path id="Path_94918" data-name="Path 94918" d="M500.2,330.679A8.325,8.325,0,1,1,511.88,329.2,8.325,8.325,0,0,1,500.2,330.679Z" transform="translate(-496.974 -308.313)" fill="#0572a8"/>
      </g>
      <g id="Group_184520" data-name="Group 184520" transform="translate(16.98 77.997)">
        <path id="Path_94919" data-name="Path 94919" d="M504.585,377.6l-9.191-.547.381-50.423,16.6,1.294Z" transform="translate(-495.393 -318.894)" fill="#0572a8"/>
        <path id="Path_94920" data-name="Path 94920" d="M497.954,329.842a8.325,8.325,0,1,0,.764-11.748A8.325,8.325,0,0,0,497.954,329.842Z" transform="translate(-495.526 -316.025)" fill="#0572a8"/>
      </g>
      <path id="Path_94921" data-name="Path 94921" d="M540.763,316.168,546.4,304.1l27.033,2.284,5.173,16.165a2.7,2.7,0,0,1-1.9,2.491l-16.076.769a10.585,10.585,0,0,1-8.41-.948L542.065,319A2.7,2.7,0,0,1,540.763,316.168Z" transform="translate(-490.679 -234.8)" fill="#0572a8"/>
      <path id="Path_94922" data-name="Path 94922" d="M560.022,246.515a6.719,6.719,0,0,0,6.158,6.243,7,7,0,0,0,1.064.007,6.769,6.769,0,0,0,6.228-5.974l-13.385-1.825A6.788,6.788,0,0,0,560.022,246.515Z" transform="translate(-495.898 -218.798)" fill="#fff"/>
      <g id="Group_184521" data-name="Group 184521" transform="translate(65.122 19.149)">
        <circle id="Ellipse_3753" data-name="Ellipse 3753" cx="5.565" cy="5.565" r="5.565" transform="translate(0.175 2.515)" fill="#ffd5ce"/>
        <path id="Path_94923" data-name="Path 94923" d="M572.689,243.021l-.555-7.679-10.736.7.19,7.778Z" transform="translate(-561.398 -235.342)" fill="#ffd5ce"/>
      </g>
      <g id="Group_184523" data-name="Group 184523" transform="translate(76.158 15.487)">
        <path id="Path_94924" data-name="Path 94924" d="M578.637,230.335s3.357-.4,2.693,3.19-4.8,2.2-4.8,2.2Z" transform="translate(-576.528 -230.321)" fill="#ffd5ce"/>
        <g id="Group_184522" data-name="Group 184522" transform="translate(2.341 1.498)">
          <path id="Path_94925" data-name="Path 94925" d="M580.007,232.377a1.185,1.185,0,0,1,1.219.614,1.65,1.65,0,0,1,.1.373,1.75,1.75,0,0,1-.1.858,1.423,1.423,0,0,1-.526.693,1.1,1.1,0,0,1-.9.15" transform="translate(-579.755 -232.375)" fill="none" stroke="#bf736a" stroke-linecap="round" stroke-miterlimit="10" stroke-width="0.5"/>
          <path id="Path_94926" data-name="Path 94926" d="M579.758,234.218c-.174-.44.8-1.072,1.531-.273" transform="translate(-579.738 -232.696)" fill="none" stroke="#bf736a" stroke-linecap="round" stroke-miterlimit="10" stroke-width="0.5"/>
        </g>
      </g>
      <path id="Path_94927" data-name="Path 94927" d="M561.615,243.948l-.049-1.84c1.461.33,7.55-.188,10.327-3.411C571.853,239.178,566.145,247.625,561.615,243.948Z" transform="translate(-496.321 -217.101)" opacity="0.1" style="mix-blend-mode: multiply;isolation: isolate"/>
      <path id="Path_94928" data-name="Path 94928" d="M572.913,231.7s-4.911,5.78-8.289,6.433-5.276-1.5-4.99-4.882l.732-8.656a5.87,5.87,0,0,1,3.713-5.021,9.387,9.387,0,0,1,7.36.514C578.609,223.3,572.913,231.7,572.913,231.7Z" transform="translate(-495.79 -211.785)" fill="#ffd5ce"/>
      <path id="Path_94929" data-name="Path 94929" d="M564.611,228.686a1.483,1.483,0,0,0-1.9-.16" transform="translate(-496.63 -214.274)" fill="none" stroke="#bf736a" stroke-linecap="round" stroke-miterlimit="10" stroke-width="0.75"/>
      <path id="Path_94930" data-name="Path 94930" d="M570.588,229.192a1.482,1.482,0,0,0-1.9-.161" transform="translate(-498.248 -214.411)" fill="none" stroke="#bf736a" stroke-linecap="round" stroke-miterlimit="10" stroke-width="0.75"/>
      <line id="Line_8" data-name="Line 8" x1="0.519" y1="4.344" transform="translate(82.327 40.387)" fill="none" stroke="#fff" stroke-linecap="round" stroke-miterlimit="10" stroke-width="1"/>
      <line id="Line_9" data-name="Line 9" y1="4.347" x2="0.499" transform="translate(55.297 37.018)" fill="none" stroke="#fff" stroke-linecap="round" stroke-miterlimit="10" stroke-width="1"/>
      <path id="Path_94933" data-name="Path 94933" d="M504.638,396.23l-9.441-.493-.012,1.619,9.191.547Z" transform="translate(-478.356 -259.6)" fill="#030b48"/>
      <g id="Group_184527" data-name="Group 184527" transform="translate(20.507 77.516)">
        <g id="Group_184524" data-name="Group 184524" transform="translate(0 48.799)">
          <path id="Path_94934" data-name="Path 94934" d="M507.668,406.408c4.731-.98,8.27-1.645,11.441-2.331l2.736,4.553-6.648.917-7.677-.832Z" transform="translate(-502.201 -388.172)" fill="#ffb89b"/>
          <path id="Path_94935" data-name="Path 94935" d="M531.862,401.288l-.8-18.537-7.421-.479-.864,18.532Z" transform="translate(-506.331 -382.271)" fill="#ffb89b"/>
          <path id="Path_94936" data-name="Path 94936" d="M500.476,409.87l22.438,1.449,1.313-1.917.255,2.018,1.127.073.767-2.009s1.216-3.57-.269-5.734c-6.284,2.023-12.783,3.564-20.411,2.569l-5.244,1.99C500.2,408.711,500.1,409.561,500.476,409.87Z" transform="translate(-500.228 -388.084)" fill="#3a3735"/>
        </g>
        <g id="Group_184525" data-name="Group 184525" transform="translate(10.232 0.996)">
          <path id="Path_94937" data-name="Path 94937" d="M525.148,319.794,523.562,336.3l40.394,5.257,1.289-21.024Z" transform="translate(-516.775 -317.561)" fill="#0572a8"/>
          <circle id="Ellipse_3754" data-name="Ellipse 3754" cx="10.544" cy="10.544" r="10.544" transform="translate(34.33 7.151) rotate(-19.823)" fill="#0572a8"/>
          <path id="Path_94938" data-name="Path 94938" d="M516.24,333.512a8.325,8.325,0,1,1,11.735.947A8.325,8.325,0,0,1,516.24,333.512Z" transform="translate(-514.256 -317.561)" fill="#0572a8"/>
        </g>
        <g id="Group_184526" data-name="Group 184526" transform="translate(5.015)">
          <path id="Path_94939" data-name="Path 94939" d="M519.472,381.326l9.19-.572-.523-50.422-16.594,1.34Z" transform="translate(-508.305 -319.416)" fill="#0572a8"/>
          <circle id="Ellipse_3755" data-name="Ellipse 3755" cx="8.325" cy="8.325" r="8.325" transform="matrix(0.55, -0.835, 0.835, 0.55, 0, 13.901)" fill="#0572a8"/>
        </g>
        <path id="Path_94940" data-name="Path 94940" d="M522.047,397.762l9.44-.52.017,1.619-9.19.572Z" transform="translate(-506.132 -337.524)" fill="#030b48"/>
      </g>
      <path id="Path_94941" data-name="Path 94941" d="M584.226,313.774s-1.523,8.613,2.359,11.4" transform="translate(-502.374 -237.419)" fill="none" stroke="#030b48" stroke-linecap="round" stroke-miterlimit="10" stroke-width="1"/>
      <path id="Path_94942" data-name="Path 94942" d="M575.234,306.383,548.2,304.1l-.822,1.761,28.185,2.1Z" transform="translate(-492.482 -234.8)" fill="#030b48"/>
      <path id="Path_94943" data-name="Path 94943" d="M570.013,221.258s-4.913,5.632-10.641,2.64c0,0-.467-7.8,11.316-5.881C570.688,218.017,571.084,220.242,570.013,221.258Z" transform="translate(-495.727 -211.422)"/>
      <path id="Path_94944" data-name="Path 94944" d="M578.946,226.21s.335-6.069-4.7-7.576c0,0-6.391,5.417,1.562,10.984C575.809,229.618,578.993,227.409,578.946,226.21Z" transform="translate(-499.095 -211.671)"/>
      <path id="Path_94945" data-name="Path 94945" d="M563.413,239.779a1.5,1.5,0,0,0,1.807.012" transform="translate(-496.821 -217.394)" fill="none" stroke="#292929" stroke-linecap="round" stroke-miterlimit="10" stroke-width="1"/>
      <path id="Path_94946" data-name="Path 94946" d="M565.511,233.307s-1.443,1.613-1.326,1.891.912.435.912.435" transform="translate(-497.028 -215.642)" fill="none" stroke="#bf736a" stroke-linecap="round" stroke-miterlimit="10" stroke-width="0.5"/>
      <g id="Group_184528" data-name="Group 184528" transform="translate(66.12 15.359)">
        <path id="Path_94947" data-name="Path 94947" d="M562.894,230.728c-.028.325.136.6.365.624s.438-.229.465-.554-.136-.6-.365-.624S562.921,230.4,562.894,230.728Z" transform="translate(-562.8 -230.153)" fill="#2e1124"/>
        <path id="Path_94948" data-name="Path 94948" d="M563.029,230.393a.413.413,0,0,1-.263-.247" transform="translate(-562.766 -230.146)" fill="none" stroke="#2e1124" stroke-linecap="round" stroke-miterlimit="10" stroke-width="0.5"/>
      </g>
      <g id="Group_184529" data-name="Group 184529" transform="translate(70.608 15.75)">
        <path id="Path_94949" data-name="Path 94949" d="M568.922,231.237c-.027.325.136.605.365.624s.437-.228.465-.554-.136-.605-.365-.624S568.95,230.912,568.922,231.237Z" transform="translate(-568.919 -230.682)" fill="#2e1124"/>
        <path id="Path_94950" data-name="Path 94950" d="M570.152,231.01a.41.41,0,0,1-.316.174" transform="translate(-569.167 -230.771)" fill="none" stroke="#2e1124" stroke-linecap="round" stroke-miterlimit="10" stroke-width="0.5"/>
      </g>
      <path id="Path_94951" data-name="Path 94951" d="M549.561,309.087s-1.184,4.17-5.321,3.026" transform="translate(-491.632 -236.151)" fill="none" stroke="#030b48" stroke-linecap="round" stroke-miterlimit="10" stroke-width="1"/>
      <g id="Group_184530" data-name="Group 184530" transform="translate(62.596 55.654)">
        <path id="Path_94952" data-name="Path 94952" d="M589.428,291.971a5.391,5.391,0,1,1,6.445,4.071A5.39,5.39,0,0,1,589.428,291.971Z" transform="translate(-566.421 -285.392)" fill="#ffd5ce"/>
        <path id="Path_94953" data-name="Path 94953" d="M558.012,306.24a3.144,3.144,0,1,1,3.76,2.374A3.144,3.144,0,0,1,558.012,306.24Z" transform="translate(-557.934 -289.995)" fill="#ffd5ce"/>
        <path id="Path_94954" data-name="Path 94954" d="M588.3,296.092l-25.615,7.969-1.385-6.134,24.626-12.351Z" transform="translate(-558.844 -285.441)" fill="#ffd5ce"/>
      </g>
      <g id="Group_184531" data-name="Group 184531" transform="translate(82.417 29.254)">
        <circle id="Ellipse_3756" data-name="Ellipse 3756" cx="5.391" cy="5.391" r="5.391" transform="translate(1.643 35.235) rotate(-71.854)" fill="#ffd5ce"/>
        <path id="Path_94955" data-name="Path 94955" d="M585.132,254.916a6.244,6.244,0,1,0,6.748-5.7A6.245,6.245,0,0,0,585.132,254.916Z" transform="translate(-585.109 -249.197)" fill="#ffd5ce"/>
        <path id="Path_94956" data-name="Path 94956" d="M597.584,258.09l1.35,25.475-10.744-.908-3.05-25.618Z" transform="translate(-585.118 -251.319)" fill="#ffd5ce"/>
      </g>
      <g id="Group_184532" data-name="Group 184532" transform="translate(49.289 62.277)">
        <path id="Path_94957" data-name="Path 94957" d="M557.773,302.557s-2.6-4.335-3.362-5.146-2.138,1.193-2.138,1.193Z" transform="translate(-543.095 -295.215)" fill="#ffd5ce"/>
        <path id="Path_94958" data-name="Path 94958" d="M552.087,298.35l7.887,6.557c2.968,2.467-3.339,3.326-4.953,2.508,0,0-4.082-1.3-5.521-3.021S549.968,296.24,552.087,298.35Z" transform="translate(-542.209 -295.408)" fill="#ffd5ce"/>
        <path id="Path_94959" data-name="Path 94959" d="M549,296.992s-7.763-2.276-8.728-2.5-.793,1.646,1,2.268,6.161,2.816,7.963,3.6S551.81,298.464,549,296.992Z" transform="translate(-539.689 -294.472)" fill="#ffd5ce"/>
        <path id="Path_94960" data-name="Path 94960" d="M551.329,301.954s-5.664-.956-7.337-.691c-.9.143-2.85,3.04-3.281,3.559s.412,2.009,1.972.542c.742-.7,2.295-2.307,2.295-2.307l6.013,1.831S553.741,302.937,551.329,301.954Z" transform="translate(-539.935 -296.298)" fill="#ffd5ce"/>
        <path id="Path_94961" data-name="Path 94961" d="M554.643,305.337s-5.664-.956-7.337-.691c-.9.144-2.85,3.04-3.281,3.559s.411,2.01,1.971.542c.742-.7,2.3-2.307,2.3-2.307l6.012,1.831S557.055,306.32,554.643,305.337Z" transform="translate(-540.832 -297.213)" fill="#ffd5ce"/>
        <path id="Path_94962" data-name="Path 94962" d="M556.526,307.474s-5.255-.888-6.809-.642c-.838.133-2.645,2.821-3.044,3.3s.381,1.866,1.829.5c.689-.648,2.13-2.141,2.13-2.141l5.262,1.125S558.766,308.385,556.526,307.474Z" transform="translate(-541.551 -297.805)" fill="#ffd5ce"/>
        <path id="Path_94963" data-name="Path 94963" d="M551.717,298.607c.06-.163.451-.451.707-.352" transform="translate(-542.944 -295.49)" fill="none" stroke="#e38c72" stroke-linecap="round" stroke-miterlimit="10" stroke-width="0.5"/>
        <path id="Path_94964" data-name="Path 94964" d="M549.881,303.026a.7.7,0,0,1,.111-.782" transform="translate(-542.429 -296.575)" fill="none" stroke="#e38c72" stroke-linecap="round" stroke-miterlimit="10" stroke-width="0.5"/>
        <path id="Path_94965" data-name="Path 94965" d="M550.186,305.959c-.161-.065-.436-.467-.328-.718" transform="translate(-542.435 -297.387)" fill="none" stroke="#e38c72" stroke-linecap="round" stroke-miterlimit="10" stroke-width="0.5"/>
        <path id="Path_94966" data-name="Path 94966" d="M551.983,307.962c-.173.015-.6-.217-.62-.49" transform="translate(-542.849 -297.99)" fill="none" stroke="#e38c72" stroke-linecap="round" stroke-miterlimit="10" stroke-width="0.5"/>
      </g>
      <g id="Group_184533" data-name="Group 184533" transform="translate(6.668 49.121)">
        <path id="Path_94967" data-name="Path 94967" d="M500.044,282.662s-3.025-4.052-3.862-4.783-2.007,1.4-2.007,1.4Z" transform="translate(-484.751 -276.784)" fill="#ffd5ce"/>
        <path id="Path_94968" data-name="Path 94968" d="M494.071,279.027l8.505,5.732c3.2,2.157-2.988,3.645-4.676,2.992,0,0-4.192-.885-5.8-2.451S491.752,277.14,494.071,279.027Z" transform="translate(-483.996 -277.045)" fill="#ffd5ce"/>
        <path id="Path_94969" data-name="Path 94969" d="M490.723,278.053s-7.952-1.484-8.935-1.613-.624,1.718,1.218,2.158,6.412,2.184,8.284,2.777S493.667,279.236,490.723,278.053Z" transform="translate(-481.255 -276.434)" fill="#ffd5ce"/>
        <path id="Path_94970" data-name="Path 94970" d="M493.667,282.589s-5.731-.383-7.37.049c-.884.233-2.53,3.311-2.907,3.87s.611,1.958,2.016.341c.668-.77,2.052-2.526,2.052-2.526l6.165,1.218S496.166,283.324,493.667,282.589Z" transform="translate(-481.811 -278.058)" fill="#ffd5ce"/>
        <path id="Path_94971" data-name="Path 94971" d="M497.3,285.622s-5.731-.383-7.37.049c-.885.233-2.531,3.31-2.908,3.869s.611,1.958,2.016.342c.668-.77,2.052-2.526,2.052-2.526l6.166,1.218S499.8,286.357,497.3,285.622Z" transform="translate(-482.795 -278.878)" fill="#ffd5ce"/>
        <path id="Path_94972" data-name="Path 94972" d="M499.382,287.571s-5.318-.355-6.839.046c-.821.216-2.349,3.071-2.7,3.591s.567,1.818,1.87.317c.621-.714,1.9-2.344,1.9-2.344l5.348.591S501.7,288.254,499.382,287.571Z" transform="translate(-483.559 -279.409)" fill="#ffd5ce"/>
        <path id="Path_94973" data-name="Path 94973" d="M493.585,279.381c.043-.168.4-.495.668-.422" transform="translate(-484.592 -277.115)" fill="none" stroke="#e38c72" stroke-linecap="round" stroke-miterlimit="10" stroke-width="0.5"/>
        <path id="Path_94974" data-name="Path 94974" d="M492.2,283.979a.706.706,0,0,1,.031-.79" transform="translate(-484.189 -278.262)" fill="none" stroke="#e38c72" stroke-linecap="round" stroke-miterlimit="10" stroke-width="0.5"/>
        <path id="Path_94975" data-name="Path 94975" d="M492.79,286.873c-.167-.049-.48-.421-.4-.683" transform="translate(-484.265 -279.074)" fill="none" stroke="#e38c72" stroke-linecap="round" stroke-miterlimit="10" stroke-width="0.5"/>
        <path id="Path_94976" data-name="Path 94976" d="M494.775,288.685c-.171.034-.619-.155-.666-.424" transform="translate(-484.734 -279.635)" fill="none" stroke="#e38c72" stroke-linecap="round" stroke-miterlimit="10" stroke-width="0.5"/>
      </g>
      <path id="Path_94977" data-name="Path 94977" d="M585.065,254.914a6.186,6.186,0,0,0,.3,2.5l1.281,10.736,11.6,1.638-.733-13.823a6.246,6.246,0,0,0-12.447-1.052Z" transform="translate(-502.674 -219.942)" fill="#87b7e6"/>
      <path id="Path_94978" data-name="Path 94978" d="M599.117,274.489l.206,2.691-13.074-2.17-.206-2.69Z" transform="translate(-502.945 -226.2)" fill="#61a0e0"/>
    </g>
    <g id="Group_184535" data-name="Group 184535" transform="translate(321.954 223.55)">
      <path id="Path_94979" data-name="Path 94979" d="M430.9,394.09h0a2.728,2.728,0,0,1-2.589-3.379l21.82-95.87a2.681,2.681,0,0,1,2.589-2.12h0a2.728,2.728,0,0,1,2.589,3.379L433.49,391.97A2.679,2.679,0,0,1,430.9,394.09Z" transform="translate(-420.257 -290.524)" fill="#91b8df"/>
      <path id="Path_94980" data-name="Path 94980" d="M452.722,394.09h0a2.728,2.728,0,0,0,2.589-3.379L433.49,294.84a2.679,2.679,0,0,0-2.589-2.12h0a2.728,2.728,0,0,0-2.589,3.379l21.82,95.871A2.681,2.681,0,0,0,452.722,394.09Z" transform="translate(-420.257 -290.524)" fill="#91b8df"/>
      <path id="Path_94981" data-name="Path 94981" d="M606.761,394.09h0a2.728,2.728,0,0,1-2.589-3.379l21.821-95.87a2.679,2.679,0,0,1,2.589-2.12h0a2.729,2.729,0,0,1,2.589,3.379L609.35,391.97A2.68,2.68,0,0,1,606.761,394.09Z" transform="translate(-467.849 -290.524)" fill="#91b8df"/>
      <path id="Path_94982" data-name="Path 94982" d="M628.581,394.09h0a2.729,2.729,0,0,0,2.589-3.379L609.35,294.84a2.68,2.68,0,0,0-2.589-2.12h0a2.728,2.728,0,0,0-2.589,3.379l21.821,95.871A2.679,2.679,0,0,0,628.581,394.09Z" transform="translate(-467.849 -290.524)" fill="#91b8df"/>
      <path id="Path_94983" data-name="Path 94983" d="M584.507,301.948H423.414a6.12,6.12,0,0,1-6.12-6.119h0a6.12,6.12,0,0,1,6.12-6.119H584.507a6.119,6.119,0,0,1,6.119,6.119h0A6.119,6.119,0,0,1,584.507,301.948Z" transform="translate(-417.294 -289.709)" fill="#91b8df"/>
    </g>
    <path id="Path_94984" data-name="Path 94984" d="M523.672,428.031a2.155,2.155,0,0,1-.594,1.5,1.936,1.936,0,0,1-1.4.605H86.35a2.045,2.045,0,0,1-1.995-2.108,2.156,2.156,0,0,1,.589-1.488,1.926,1.926,0,0,1,1.406-.613H521.677A2.052,2.052,0,0,1,523.672,428.031Z" transform="translate(-5.238 -103.024)" fill="#81b2e4"/>
    <g id="Group_184536" data-name="Group 184536" transform="translate(278.169 76.257)">
      <path id="Path_94985" data-name="Path 94985" d="M382.036,137.307a24.772,24.772,0,1,1,24.771-24.772A24.8,24.8,0,0,1,382.036,137.307Z" transform="translate(-357.264 -87.764)" fill="#61a0e0"/>
      <circle id="Ellipse_3757" data-name="Ellipse 3757" cx="20.395" cy="20.395" r="20.395" transform="translate(1.349 41.603) rotate(-80.701)" fill="#fff"/>
      <path id="Path_94986" data-name="Path 94986" d="M391.227,102.938v13.625l7.977,2.946" transform="translate(-366.455 -91.871)" fill="none" stroke="#0572a8" stroke-miterlimit="10" stroke-width="1"/>
    </g>
    <g id="Group_184537" data-name="Group 184537" transform="translate(152.288 137.706)">
      <path id="Path_94987" data-name="Path 94987" d="M213.075,175.458v4.977a3.445,3.445,0,0,1-3.445,3.445H189.017l-3.95,5.869v-7.724a3.4,3.4,0,0,1-.391-1.589v-4.977a3.445,3.445,0,0,1,3.445-3.445H209.63A3.445,3.445,0,0,1,213.075,175.458Z" transform="translate(-184.676 -172.013)" fill="#5b9de1"/>
      <path id="Path_94988" data-name="Path 94988" d="M193.233,179.538a1.275,1.275,0,1,1-1.275-1.274A1.274,1.274,0,0,1,193.233,179.538Z" transform="translate(-186.302 -173.705)" fill="#fff"/>
      <path id="Path_94989" data-name="Path 94989" d="M204.946,179.538a1.275,1.275,0,1,1-1.275-1.274A1.274,1.274,0,0,1,204.946,179.538Z" transform="translate(-189.472 -173.705)" fill="#fff"/>
      <path id="Path_94990" data-name="Path 94990" d="M216.659,179.538a1.275,1.275,0,1,1-1.275-1.274A1.275,1.275,0,0,1,216.659,179.538Z" transform="translate(-192.642 -173.705)" fill="#fff"/>
    </g>
    <g id="Group_184538" data-name="Group 184538" transform="translate(339.682 112.253)">
      <path id="Rectangle_152145" data-name="Rectangle 152145" d="M5.371,0h48.7a5.371,5.371,0,0,1,5.371,5.371V8.326a0,0,0,0,1,0,0H0a0,0,0,0,1,0,0V5.371A5.371,5.371,0,0,1,5.371,0Z" fill="#0572a8"/>
      <path id="Rectangle_152146" data-name="Rectangle 152146" d="M0,0H59.441a0,0,0,0,1,0,0V30.845a6.42,6.42,0,0,1-6.42,6.42H6.42A6.42,6.42,0,0,1,0,30.845V0A0,0,0,0,1,0,0Z" transform="translate(0 8.313)" fill="#fff"/>
      <path id="Path_94991" data-name="Path 94991" d="M449.35,141.774a1.487,1.487,0,1,1-1.487-1.486A1.487,1.487,0,0,1,449.35,141.774Z" transform="translate(-442.893 -137.974)" fill="#fff"/>
      <path id="Path_94992" data-name="Path 94992" d="M461.138,141.774a1.487,1.487,0,1,1-1.487-1.486A1.487,1.487,0,0,1,461.138,141.774Z" transform="translate(-446.083 -137.974)" fill="#fff"/>
      <path id="Path_94993" data-name="Path 94993" d="M472.926,141.774a1.487,1.487,0,1,1-1.486-1.486A1.486,1.486,0,0,1,472.926,141.774Z" transform="translate(-449.273 -137.974)" fill="#fff"/>
      <rect id="Rectangle_152147" data-name="Rectangle 152147" width="5.949" height="30.548" transform="translate(40.591 12.369)" fill="#c5dffb"/>
      <rect id="Rectangle_152148" data-name="Rectangle 152148" width="5.949" height="25.732" transform="translate(32.801 17.185)" fill="#61a0e0"/>
      <rect id="Rectangle_152149" data-name="Rectangle 152149" width="5.949" height="21.2" transform="translate(25.012 21.717)" fill="#c5dffb"/>
      <rect id="Rectangle_152150" data-name="Rectangle 152150" width="5.949" height="13.113" transform="translate(17.222 29.803)" fill="#61a0e0"/>
      <rect id="Rectangle_152151" data-name="Rectangle 152151" width="5.949" height="7.986" transform="translate(9.432 34.931)" fill="#c5dffb"/>
    </g>
  </g>
</svg>
