<svg xmlns="http://www.w3.org/2000/svg" xmlns:xlink="http://www.w3.org/1999/xlink" width="570.476" height="394.189" viewBox="0 0 570.476 394.189">
  <defs>
    <radialGradient id="radial-gradient" cx="-345.355" cy="0.5" r="0.531" gradientTransform="translate(256.963 -804.138) rotate(180) scale(0.891 1)" gradientUnits="objectBoundingBox">
      <stop offset="0" stop-color="#ffc8af"/>
      <stop offset="1" stop-color="#ffbb9c"/>
    </radialGradient>
    <radialGradient id="radial-gradient-2" cx="-419.278" r="0.511" gradientTransform="translate(296.795 -853.357) rotate(180) scale(0.958 1)" xlink:href="#radial-gradient"/>
  </defs>
  <g id="IPad_app_services_banner" transform="translate(-813.524 -167)">
    <g id="Group_244032" data-name="Group 244032" transform="translate(2801 9731)">
      <path id="Path_104964" data-name="Path 104964" d="M870.771,608.338c-35.955,0-522.055-1.048-522.055-1.106-.2-.471-61.709-75.749,15.742-154.453,38.376-39-35.241-89.52,0-132.9,60.367-74.307,120.1-32.459,169.858-53.357,8.792-3.689,17.614-9.626,26.446-18.738a98.291,98.291,0,0,1,16.252-13.473q1.342-.893,2.71-1.742a108.3,108.3,0,0,1,10.843-5.877q3.758-1.769,7.658-3.273h0a125.413,125.413,0,0,1,12.692-4.126,143.763,143.763,0,0,1,18.93-3.708q4.222-.548,8.513-.867c55.6-4.174,118.171,19.3,150.461,53.616,6.5,6.91,36.063,42.661,12.76,91.8-14.713,31.026,46.923,60.658,68.825,96.087C926.093,546.3,871.276,607.163,870.771,608.338Z" transform="translate(-2312.365 -9778.239)" fill="#d6ecfb"/>
      <g id="Group_58569" data-name="Group 58569" transform="translate(-3254.575 -9743.635)">
        <g id="Group_57985" data-name="Group 57985" transform="translate(1397.37 249.151)">
          <circle id="Ellipse_262" data-name="Ellipse 262" cx="31.151" cy="31.151" r="31.151" fill="#9ccae9"/>
          <g id="Group_58411" data-name="Group 58411" transform="translate(15.828 12.266)">
            <path id="Path_57344" data-name="Path 57344" d="M1459.425,253.76c-5.621.1-10.547-11.258-10.689-17.1-.23-9.546,6.879-11.808,9.639-11.874a11.407,11.407,0,0,1,3.765.829,8.387,8.387,0,0,0,2.152.561,6.672,6.672,0,0,0,1.521-.534,12.284,12.284,0,0,1,4.594-1.229h.011a9.474,9.474,0,0,1,8.023,3.811l.6.855-.817.648a7,7,0,0,0-3.218,5.854,6.52,6.52,0,0,0,3.782,5.936c.528.3,1.075.611,1.092,1.317.011.461-3.432,10.457-8.78,10.586a7.267,7.267,0,0,1-3.067-.666,6.177,6.177,0,0,0-2.73-.588,6.988,6.988,0,0,0-2.135.633,10.525,10.525,0,0,1-3.706.959Z" transform="translate(-1448.73 -215.699)" fill="#008dd1"/>
            <path id="Path_57345" data-name="Path 57345" d="M1479.365,210.743c.261,5.018-3.246,8.588-6.839,8.456C1471.84,215.206,1475.914,210.826,1479.365,210.743Z" transform="translate(-1457.333 -210.743)" fill="#008dd1"/>
          </g>
        </g>
        <g id="Group_57987" data-name="Group 57987" transform="translate(1476.436 249.151)">
          <g id="Group_55030" data-name="Group 55030" transform="translate(0 0)">
            <path id="Path_55-2" data-name="Path 55-2" d="M1742.008,336.19h-.235V279.211c0-11.122-9.807-20.139-21.905-20.139H1561.222c-12.1,0-21.9,9.016-21.905,20.137v25.212a1.1,1.1,0,0,0-.431-.088h-.4a1.065,1.065,0,0,0-.72.273.9.9,0,0,0-.3.661v11.639a.979.979,0,0,0,1.017.936h.4a1.112,1.112,0,0,0,.432-.087v10.338a1.1,1.1,0,0,0-.432-.088h-.4a.98.98,0,0,0-1.019.936v23.675a.981.981,0,0,0,1.019.937h.4a1.1,1.1,0,0,0,.431-.088v5.877a1.1,1.1,0,0,0-.432-.088h-.4a.981.981,0,0,0-1.019.936V383.4a.981.981,0,0,0,1.019.937h.4a1.116,1.116,0,0,0,.432-.088V563.112c0,11.122,9.806,20.138,21.9,20.139h158.646c12.1,0,21.9-9.016,21.906-20.138V379.431h.235a.982.982,0,0,0,1.02-.936V337.131a.98.98,0,0,0-1.018-.936Z" transform="translate(-1537.471 -259.072)" fill="#008dd1"/>
          </g>
          <g id="Group_57986" data-name="Group 57986" transform="translate(78.608 7.749)">
            <rect id="Rectangle_6-2" data-name="Rectangle 6-2" width="17.944" height="2.285" rx="1.142" transform="translate(21.494 1.601)" opacity="0.2"/>
            <ellipse id="Ellipse_1" data-name="Ellipse 1" cx="2.772" cy="2.772" rx="2.772" ry="2.772" opacity="0.2"/>
            <ellipse id="Ellipse_2" data-name="Ellipse 2" cx="2.772" cy="2.772" rx="2.772" ry="2.772" transform="translate(12.671)" opacity="0.2"/>
          </g>
          <path id="Screen-2" d="M1719.705,577.917H1564.471c-9.5,0-17.2-6.959-17.2-15.545V282.38c-.014-8.586,7.672-15.558,17.168-15.571h30.252v4.338c0,3.9,3.5,7.07,7.816,7.075h73.385c4.318,0,7.817-3.171,7.817-7.075v-4.338h36c9.5,0,17.2,6.961,17.2,15.547V562.342c.015,8.586-7.671,15.557-17.167,15.571h-.031Z" transform="translate(-1539.26 -260.484)" fill="#fff"/>
          <rect id="Rectangle_157290" data-name="Rectangle 157290" width="96" height="12" transform="translate(51.139 6.483)" fill="#fff"/>
        </g>
        <g id="Group_54947" data-name="Group 54947" transform="translate(1508.307 218.009)">
          <path id="Line_16" data-name="Line 16" d="M0,0V16.388" transform="translate(8.195)" fill="none" stroke="#9ccae9" stroke-linecap="round" stroke-linejoin="round" stroke-width="1.884"/>
          <path id="Line_17" data-name="Line 17" d="M16.389,0H0" transform="translate(0 8.195)" fill="none" stroke="#9ccae9" stroke-linecap="round" stroke-linejoin="round" stroke-width="1.884"/>
        </g>
        <g id="Group_54949" data-name="Group 54949" transform="translate(1726.66 451.691)">
          <path id="Line_20" data-name="Line 20" d="M0,0,.305,16.385" transform="translate(8.04 0)" fill="none" stroke="#e2e2e2" stroke-linecap="round" stroke-linejoin="round" stroke-width="1.884"/>
          <path id="Line_21" data-name="Line 21" d="M16.385,0,0,.305" transform="translate(0 8.04)" fill="none" stroke="#e2e2e2" stroke-linecap="round" stroke-linejoin="round" stroke-width="1.884"/>
        </g>
        <g id="Group_54950" data-name="Group 54950" transform="translate(1681.608 234.639)">
          <path id="Line_22" data-name="Line 22" d="M0,0,.305,16.385" transform="translate(8.04)" fill="none" stroke="#9ccae9" stroke-linecap="round" stroke-linejoin="round" stroke-width="1.884"/>
          <path id="Line_23" data-name="Line 23" d="M16.386,0,0,.305" transform="translate(0 8.04)" fill="none" stroke="#9ccae9" stroke-linecap="round" stroke-linejoin="round" stroke-width="1.884"/>
        </g>
        <g id="Group_57989" data-name="Group 57989" transform="translate(1399.144 332.414)">
          <g id="Group_57988" data-name="Group 57988">
            <path id="Path_56859" data-name="Path 56859" d="M1468.644,336.365l-1.964,6.958q-2.193,7.776-4.377,15.554c-.107.381-.25.519-.658.51-1.4-.028-2.805-.011-4.281-.011.348-1.254.672-2.438,1.005-3.619q2.648-9.387,5.289-18.774c.127-.456.291-.646.8-.633C1465.823,336.39,1467.192,336.365,1468.644,336.365Z" transform="translate(-1442.519 -336.35)" fill="#9ccae9"/>
            <path id="Path_56860" data-name="Path 56860" d="M1478.975,348.574l-6.358-5.4,2.988-3.529,10.518,8.931-10.516,8.933-2.993-3.521Z" transform="translate(-1445.452 -336.983)" fill="#9ccae9"/>
            <path id="Path_56861" data-name="Path 56861" d="M1446.137,348.573l6.355,5.407-2.988,3.526-10.519-8.932,10.519-8.936,2.988,3.527Z" transform="translate(-1438.985 -336.982)" fill="#9ccae9"/>
          </g>
        </g>
        <g id="Group_57996" data-name="Group 57996" transform="translate(1494.841 274.761)">
          <path id="Rectangle_27037" data-name="Rectangle 27037" d="M0,0H59.239V85.156H0Z" transform="translate(0.057 0.758)" fill="#d6ecfb"/>
          <g id="Group_57990" data-name="Group 57990" transform="translate(78.551 0)">
            <path id="Rectangle_27038" data-name="Rectangle 27038" d="M0,0H72.037V9.074H0Z" fill="#d6ecfb"/>
            <path id="Rectangle_27039" data-name="Rectangle 27039" d="M0,0H72.037V3.43H0Z" transform="translate(0 16.468)" fill="#d6ecfb"/>
            <path id="Rectangle_27040" data-name="Rectangle 27040" d="M0,0H72.037V3.43H0Z" transform="translate(0 28.61)" fill="#d6ecfb"/>
            <path id="Path_56862" data-name="Path 56862" d="M1715.5,330.978v3.43h-72.037v-3.43" transform="translate(-1643.463 -291.073)" fill="#d6ecfb"/>
          </g>
          <g id="Group_57991" data-name="Group 57991" transform="translate(80.551 127.576)">
            <path id="Rectangle_27041" data-name="Rectangle 27041" d="M0,0H86.581V9.8H0Z" fill="#d6ecfb"/>
            <path id="Rectangle_27042" data-name="Rectangle 27042" d="M0,0H86.581V3.706H0Z" transform="translate(0 17.792)" fill="#d6ecfb"/>
            <path id="Rectangle_27043" data-name="Rectangle 27043" d="M0,0H86.581V3.706H0Z" transform="translate(0 56.41)" fill="#d6ecfb"/>
            <path id="Rectangle_27044" data-name="Rectangle 27044" d="M0,0H86.581V3.706H0Z" transform="translate(0 42.552)" fill="#d6ecfb"/>
            <path id="Rectangle_27045" data-name="Rectangle 27045" d="M0,0H86.581V3.706H0Z" transform="translate(0 30.91)" fill="#d6ecfb"/>
          </g>
          <g id="Group_57992" data-name="Group 57992" transform="translate(0 119.338)">
            <path id="Rectangle_27046" data-name="Rectangle 27046" d="M0,0H66.79V8.413H0Z" fill="#d6ecfb"/>
            <path id="Rectangle_27047" data-name="Rectangle 27047" d="M0,0H66.79V3.18H0Z" transform="translate(0 15.269)" fill="#d6ecfb"/>
            <path id="Rectangle_27048" data-name="Rectangle 27048" d="M0,0H66.79V3.18H0Z" transform="translate(0 48.409)" fill="#d6ecfb"/>
            <path id="Rectangle_27049" data-name="Rectangle 27049" d="M0,0H66.79V3.18H0Z" transform="translate(0 36.516)" fill="#d6ecfb"/>
            <path id="Rectangle_27050" data-name="Rectangle 27050" d="M0,0H66.79V3.18H0Z" transform="translate(0 26.526)" fill="#d6ecfb"/>
            <path id="Rectangle_27051" data-name="Rectangle 27051" d="M0,0H66.79V3.18H0Z" transform="translate(0 58.888)" fill="#d6ecfb"/>
          </g>
          <g id="Group_57993" data-name="Group 57993" transform="translate(5.143 203.266)">
            <ellipse id="Ellipse_263" data-name="Ellipse 263" cx="15.44" cy="15.44" rx="15.44" ry="15.44" transform="translate(0 0)" fill="#d6ecfb"/>
            <ellipse id="Ellipse_264" data-name="Ellipse 264" cx="15.44" cy="15.44" rx="15.44" ry="15.44" transform="translate(43.365 0)" fill="#d6ecfb"/>
            <ellipse id="Ellipse_265" data-name="Ellipse 265" cx="15.44" cy="15.44" rx="15.44" ry="15.44" transform="translate(87.339 0)" fill="#d6ecfb"/>
            <ellipse id="Ellipse_266" data-name="Ellipse 266" cx="15.44" cy="15.44" rx="15.44" ry="15.44" transform="translate(131.11 0)" fill="#d6ecfb"/>
          </g>
          <g id="Group_57995" data-name="Group 57995" transform="translate(80.551 54.954)">
            <path id="Rectangle_27052" data-name="Rectangle 27052" d="M0,0H106.6V59.8H0Z" fill="#d6ecfb"/>
            <g id="Group_57994" data-name="Group 57994" transform="translate(5.64 7.717)">
              <path id="Rectangle_27053" data-name="Rectangle 27053" d="M0,0H94.137V11.279H0Z" transform="translate(0.296)" fill="#b8dbec"/>
              <path id="Rectangle_27054" data-name="Rectangle 27054" d="M0,0H25.079V25.079H0Z" transform="translate(0 16.62)" fill="#b8dbec"/>
              <path id="Rectangle_27055" data-name="Rectangle 27055" d="M0,0H25.079V25.079H0Z" transform="translate(34.594 16.62)" fill="#008dd1"/>
              <path id="Rectangle_27056" data-name="Rectangle 27056" d="M0,0H25.079V25.079H0Z" transform="translate(69.204 16.62)" fill="#b8dbec"/>
            </g>
          </g>
          <path id="Rectangle_27057" data-name="Rectangle 27057" d="M0,0H162.075V31.081H0Z" transform="translate(5.057 245.688)" fill="#d6ecfb"/>
        </g>
        <g id="Group_58001" data-name="Group 58001" transform="translate(1646.897 319.924)">
          <g id="Group_57997" data-name="Group 57997" transform="translate(83.902 62.187)">
            <path id="Path_56863" data-name="Path 56863" d="M1817.856,444.478a2.723,2.723,0,0,0,.161-1.968c-1.79-6.211-7.169-18.438-7.169-18.438l8.044-2.085,2.276-.586s4.281,14.9,5.757,21.3a6.153,6.153,0,0,1-.688,4.476c-6.256,10.812-9.456,14.2-13.2,17.966-2.561,2.58-3.019,5.8-3.716,7.4-4.194-3.459-4.3-3.12-4.3-3.12s8.934-16.96,12.83-24.944Z" transform="translate(-1805.026 -421.402)" fill="#fcd2b1"/>
          </g>
          <g id="Group_57998" data-name="Group 57998" transform="translate(72.939 93.225)">
            <path id="Path_56864" data-name="Path 56864" d="M1793.122,475.2l19.124-15.369s4.485,10.813.927,22.15c-1.75,5.573.111,9.538-.834,12.18-.881,2.468-7.366,37.559-7.005,40.143s3.216,9.863,4.192,17.469c1.174,9.146.228,38.833,1.12,46.732s-6.412,9.058-6.749,6.381c-2.874-22.847-11.052-58.538-12.043-69.948S1791.872,502.7,1793.122,475.2Z" transform="translate(-1791.453 -459.829)" fill="#38385c"/>
            <path id="Path_56865" data-name="Path 56865" d="M1803.263,629.963s1.548,8.3,1.05,9.344-2.257,4.061-4.013,5.126c-1.843,1.118-5.9,2.4-6.228,2.9a1.25,1.25,0,0,0,.191,1.7,8.337,8.337,0,0,0,5.7,1.589c5.47-.769,6.093-3.165,9.277-3.473.549-.053,1.545.781,3.081.041a3.6,3.6,0,0,0,2.2-3.446c-.169-2.281-1.4-4.186-2.273-5.891s-1.32-9.421-1.32-9.421" transform="translate(-1791.909 -492.248)" fill="#fcd2b1"/>
            <path id="Path_56866" data-name="Path 56866" d="M1793.762,651.968c-.381-.689-.458-1.72-.081-1.962a31.764,31.764,0,0,1,3.441-1.961c1.069-.461,2.755-.85,2.156-.545s.46,1.523,1.454,1.486c3.421-.128,5.994-2.337,7.951-2.778,2.827-.634,4.081-3.922,4.216-4.456.523.35,1.7,3.048,1.925,3.894a6.71,6.71,0,0,1,.346,2.946,6.851,6.851,0,0,0-.379,2.792,5.374,5.374,0,0,1-2.035.68,7.961,7.961,0,0,1-2.174-.021l-.2-1.77a8.024,8.024,0,0,0-1.742.129,9.486,9.486,0,0,0-2.683,1.175c-.4.456-.733,1.3-1.256,1.546a10.863,10.863,0,0,1-4.507,1.01c-3.671.131-5.783-.984-6.434-2.166Z" transform="translate(-1791.834 -494.811)" fill="#6daece"/>
          </g>
          <g id="Group_57999" data-name="Group 57999" transform="translate(46.392 89.977)">
            <path id="Path_56867" data-name="Path 56867" d="M1759.385,614.459c.4-.441,4.757-1.1,6.8-1.939a11.713,11.713,0,0,0,4.8-4.476c.468-1.1.42-6.71.385-9.063-.242-16.219-2.837-55.871-3.175-65.364-.587-16.5,1.726-33.5,8.339-59.914l23.812-17.895s6.492,12.369,4.158,24.109c-1.354,6.811-7.027,7.8-8.009,10.445s-15.712,45.26-15.712,45.26a80.456,80.456,0,0,1,2.746,19.4c.05,8.647-4.135,34.686-4.962,44.616-.106,1.938-.485,6.584.07,8.07.683,1.82,2.448,3.968,2.335,6.253a3.519,3.519,0,0,1-2.717,3.084c-1.679.5-2.6-.475-3.178-.5-3.329-.171-4.275,2.11-10.026,2.05a9.1,9.1,0,0,1-5.685-2.431,1.216,1.216,0,0,1,.019-1.7Z" transform="translate(-1758.671 -455.808)" fill="#38385c"/>
          </g>
          <g id="Group_58000" data-name="Group 58000" transform="translate(0 27.189)">
            <path id="Path_56869" data-name="Path 56869" d="M1710.245,390.595c-1.181.343-5.046-1-6.044-2.592a2.692,2.692,0,0,1-.451-1.716c-.583-.686-1.587-3.111.161-2.6-1.8-1.2-2.253-3.03-2.74-5.075-.162-.685.631-.888,1.461.468a7.733,7.733,0,0,0,5.212,3.48c.146-.376-.357-.5-.732-1.292-.415-.882-.142-1.5.252-1.644.3-.111.976.9,1.211,1.093l2.638,2.239a5.507,5.507,0,0,1,1.912,2.6c.073.2.534,2.224-.334,1.939" transform="translate(-1701.15 -378.073)" fill="#ffe1bd"/>
            <path id="Path_56870" data-name="Path 56870" d="M1769.693,411.2c-8.869-.1-24.755-1.621-26.938-2.049-8.6-1.688-30.581-16.755-30.581-16.755a4.186,4.186,0,0,1,2.933-4.491c5.573,4.523,25.533,10.258,28.189,11.873,1.723,1.05,29.627-.094,29.627-.094" transform="translate(-1703.266 -379.963)" fill="#ffe1bd"/>
          </g>
          <path id="Path_56871" data-name="Path 56871" d="M1818.989,403.249s3.769,10.158,5,18.195l-9.119,1.434V409.963" transform="translate(-1723.017 -355.725)" fill="#f2cd53"/>
          <path id="Path_56872" data-name="Path 56872" d="M1804.057,455.482c6.573,5.673,9.1,15.084,7.773,25.127-.35,2.658-3.034,9.963-3.449,12.62-.942,6.045-2.877,14.943-2.764,21.836-8.822,6.4-26.735,5.838-34.844,1.063-.9-8.331-.733-14.955-.095-26.5.963-17.421,8.734-33.664,8.89-35.114" transform="translate(-1714.418 -365.582)" fill="#38385c"/>
          <path id="Path_56873" data-name="Path 56873" d="M1780,425.3c.334,3.11,0,7.893-.433,13.207a26.406,26.406,0,0,0-.433,3.484,1.981,1.981,0,0,0,.689,1.358c.944.925,2.775,1.5,4.783,1.85,6.533,1.181,16.867.393,19.779.964,2.736.551,5.55-.374,5.55-2.048,0-1.161-1.062-1.81-1.161-4.093-.216-5-.059-16.376.866-21.453,1.929-10.648,2.46-16.962,1.122-28.873l-19.957-5.668c-1.535.256-.867,4.94-2.4,5.2-1.121.178-7.44,6.181-9.23,13.266a27.566,27.566,0,0,0-2.3,4.6,8.12,8.12,0,0,0,.02,6.3A44.414,44.414,0,0,1,1780,425.3Z" transform="translate(-1715.589 -352.028)" fill="#f2cd53"/>
          <path id="Path_56874" data-name="Path 56874" d="M1781.216,430.791c.334,3.11,0,7.893-.433,13.207a26.429,26.429,0,0,0-.433,3.484,1.986,1.986,0,0,0,.689,1.358v-.019c-.591-1.319.826-7.873,1.437-11.55a41.655,41.655,0,0,0-.866-15.332c-1.3-4.507-1.791-6.652-1.791-6.652s-1.023-1.535-1.732-2.7a8.114,8.114,0,0,0,.019,6.3A44.516,44.516,0,0,1,1781.216,430.791Z" transform="translate(-1715.823 -357.521)" fill="#f2cd53"/>
          <path id="Path_56875" data-name="Path 56875" d="M1780.476,396.167a8.741,8.741,0,0,0-5.882,1.009c-3.848,2.273-11.881,3.61-11.881,3.61s-.617,9.177.374,12.7c0,0,2.666-.42,10.581.439,8.179.888,19.1,6.307,19.1,6.307" transform="translate(-1712.951 -354.336)" fill="#f2cd53"/>
          <path id="Path_56876" data-name="Path 56876" d="M1783.752,355.79c1.955-3.746,5.057-9.046,12.473-8.31s13.767,5.412,13.678,10.968-3.854,12.251-5.3,16.1-.835,9.561-.835,9.561l-16.44-.591s.427-5.024-.576-6.923c-.561-1.062-2.764-3.053-5.318-5.116-1.116-.9-2.019-2.783-1.349-5.717,1-4.388,1.358-6.316,2-7.6.46-.924,1.246-1.546,1.673-2.366Z" transform="translate(-1716.283 -344.988)" fill="#ffe1bd"/>
          <path id="Path_56877" data-name="Path 56877" d="M1784.673,385.144c1-1.181,2.524-1.77,3.406-3.04a6.862,6.862,0,0,0,1.173-4.45,8.275,8.275,0,0,0-.983-2.518c-1.788-3.6-1.9-5.935.652-8.849a10.168,10.168,0,0,0,2.087-3.15c.386-1.081.686-2.262-.363-2.913a1.4,1.4,0,0,0-1.894.019c-.4.365-1.578,3.807-1.785,1.445-.2-2.262-1.055-2.832.929-6.89.235-.485,1.333-2.372,1.17-2.8-2.55.485-3.421,1.157-4.464,2.785-1.141-1.277,2.188-10.617,12.445-10.362a17.581,17.581,0,0,1,7.573,1.4c2.305,1.17,4.872,3.235,4.717,5.305,3.635.7,4.143,4.4,4.426,5.783a18.177,18.177,0,0,1,.216,6c-.384,2.947-1.48,5.761-2.063,8.679a12.719,12.719,0,0,0,.333,7.264c.9,2.173,3.056,3.355,4.149,5.474a9.544,9.544,0,0,1-.122,8.714c-1.416,2.683-3.19,4.446-2.725,7.743a10.536,10.536,0,0,1-3.473,10.054,10.852,10.852,0,0,1-7.835,2.124,18.132,18.132,0,0,1-6.426-2.028c-3.832-2.081-7.247-3.424-9.724-8.952-1.4-3.13.651-3.566-.6-6.774-.7-1.8-2.2-3.288-2.39-5.284a6.7,6.7,0,0,1,1.459-4.641C1784.6,385.237,1784.633,385.191,1784.673,385.144Z" transform="translate(-1716.906 -344.411)" fill="#0b4870"/>
          <path id="Path_56865-2" data-name="Path 56865" d="M1805.055,630.021s-.244,8.244-.742,9.286-2.257,4.061-4.013,5.126c-1.843,1.118-5.9,2.4-6.228,2.9a1.25,1.25,0,0,0,.191,1.7,8.337,8.337,0,0,0,5.7,1.589c5.47-.769,6.093-3.165,9.277-3.473.549-.053,1.545.781,3.081.041a3.6,3.6,0,0,0,2.2-3.446c-.169-2.281-1.4-4.186-2.273-5.891s.589-8.375.589-8.375" transform="translate(-1745.97 -398.022)" fill="#fcd2b1"/>
          <path id="Path_56868" data-name="Path 56868" d="M1758.794,653.407c-.323-.781-.269-1.875.171-2.065a34.764,34.764,0,0,1,4.014-1.5c1.227-.313,3.118-.453,2.425-.228s.3,1.666,1.383,1.784c3.749.409,6.848-1.494,9.04-1.643,3.165-.216,4.359-3.46,4.579-4a14.536,14.536,0,0,1,2.194,4.382,6.9,6.9,0,0,1-.016,3.136,6.85,6.85,0,0,0-.786,2.859,5.975,5.975,0,0,1-2.311.388,9.215,9.215,0,0,1-2.369-.366l.02-1.882a9.132,9.132,0,0,0-1.916-.141,6.346,6.346,0,0,0-3.1,1.062c-.518.382-1.068,1.03-1.677,1.178a12.726,12.726,0,0,1-4.928.322c-4.014-.45-6.168-1.951-6.72-3.285Z" transform="translate(-1712.194 -402.931)" fill="#6daece"/>
        </g>
        <g id="Group_58025" data-name="Group 58025" transform="translate(1361.575 379.517)">
          <g id="Group_58005" data-name="Group 58005" transform="translate(52.175)">
            <path id="Path_56878" data-name="Path 56878" d="M1415.2,462.39c.081.808,1.187,9.269,9.885,9.269,9.132,0,7.6-9.041,7.6-9.041l.011-.057a9.077,9.077,0,0,0-2.865-.136v-4.281l-10.365-5.8h-.376v9.988A18.776,18.776,0,0,0,1415.2,462.39Z" transform="translate(-1414.385 -424.758)" fill="#fcd2b1"/>
            <g id="Group_58004" data-name="Group 58004">
              <g id="Group_58003" data-name="Group 58003" transform="translate(2.314 4.718)">
                <g id="Group_58002" data-name="Group 58002">
                  <path id="Path_56879" data-name="Path 56879" d="M1420.589,427.792a11.848,11.848,0,0,0-3.115,5.776c-1,4.392-.058,9.037,1.211,13.269a6.689,6.689,0,0,0,.912,2.064,7.456,7.456,0,0,0,1.137,1.147q2.765,2.409,5.527,4.822c1.247,1.091,8.923,2,10.388.953,5.645-4.039,6.731-15.731,5.6-21.71-1.871-9.919-14.619-13.465-21.661-6.321Z" transform="translate(-1417.056 -424.032)" fill="#fcd2b1"/>
                </g>
              </g>
              <path id="Path_56880" data-name="Path 56880" d="M1424.7,444.027c-.075-.955-1.057-2-2.042-1.381-1.02.642-.78,2.337-.358,3.27.332.732,1.441,1.535,2.191.852.629-.57-.349-1.243-.38-1.764-.029-.468.908-.8.524-1.306" transform="translate(-1415.681 -422.857)" fill="#f7b094"/>
              <path id="Path_56881" data-name="Path 56881" d="M1424.189,448.682a2.918,2.918,0,0,1-3.213-1.909,10.967,10.967,0,0,1-.393-3.069,7.356,7.356,0,0,0-.252,3.385c.267,2.087,1,4.076,2.637,4.1S1424.189,448.682,1424.189,448.682Z" transform="translate(-1415.354 -423.097)" fill="#f7b094"/>
              <path id="Path_56882" data-name="Path 56882" d="M1424.295,442.291a.406.406,0,0,0,.114.035c.637.089.889-.682.987-1.165a21.286,21.286,0,0,0,.225-3.406,2.594,2.594,0,0,1,.1-.91c.359-.82,1.312-1.352,1.6-2.2.339-.985-.616-1.968-.238-3.045.581-1.651,2.7-2.031,4.234-2.013a48.073,48.073,0,0,1,6.815.808c2.4.372,5.461.727,7.573-.791,2.546-1.827,3.609-6.589,1.71-9.2a6.168,6.168,0,0,0-4.721-2.218c-1.823-.041-3.365,1.05-5.037,1.593-1.332.435-2.622-.839-3.868-1.088-1.565-.313-2.23,1.4-3.615,1.443-1.345.045-2.666-1.006-3.974-1.245-2.608-.476-2.453,2.144-4.2,3.039-1.087.556-2.493.22-3.593.784-.836.43-.953,1.184-1.136,2.039a19.753,19.753,0,0,1-.409,2.295,5.2,5.2,0,0,1-1.163,1.524,5.583,5.583,0,0,0-.969,1.844,11.509,11.509,0,0,0-.484,4.685,31.864,31.864,0,0,0,1.96,7.707,27.142,27.142,0,0,0,1.661,4.808c.236.409,1.283,1.6,1.673.715a1.32,1.32,0,0,0,.056-.616c-.115-1.659-1.661-12.351,2.389-11.066a2.876,2.876,0,0,1,1.738,1.784,6.948,6.948,0,0,1,.357,2.958q-.012.219,0,.439a.5.5,0,0,0,.214.457Z" transform="translate(-1414.191 -418.191)" fill="#0b4870"/>
            </g>
          </g>
          <path id="Path_56883" data-name="Path 56883" d="M1431.5,462.569a13.952,13.952,0,0,1-7.644-4.379,8.394,8.394,0,0,0,7.921,6.456Z" transform="translate(-1363.875 -425.882)" fill="#f7b094"/>
          <g id="Group_58007" data-name="Group 58007" transform="translate(22.56 120.258)">
            <path id="Rectangle_27058" data-name="Rectangle 27058" d="M1415.8,567.078h6.592v63.1a1.313,1.313,0,0,1-1.313,1.313h-3.966a1.313,1.313,0,0,1-1.313-1.313Z" transform="translate(-1384.885 -567.078)" fill="#96a5bc"/>
            <path id="Rectangle_27059" data-name="Rectangle 27059" d="M1397.439,568.2h36.254v.4a5.1,5.1,0,0,1-5.1,5.1H1402.54a5.1,5.1,0,0,1-5.1-5.1v-.4Z" transform="translate(-1381.355 -567.294)" fill="#96a5bc"/>
            <g id="Group_58006" data-name="Group 58006" transform="translate(0 51.998)">
              <path id="Rectangle_27060" data-name="Rectangle 27060" d="M1415.8,637.537h6.592v14.5a1.313,1.313,0,0,1-1.313,1.313h-3.966a1.313,1.313,0,0,1-1.313-1.313Z" transform="translate(-1384.885 -632.625)" fill="#96a5bc"/>
              <path id="Path_56884" data-name="Path 56884" d="M1460.393,651.425a3.858,3.858,0,1,1-3.858-3.858,3.858,3.858,0,0,1,3.858,3.858Z" transform="translate(-1391.977 -634.553)" fill="#96a5bc"/>
              <path id="Path_56885" data-name="Path 56885" d="M1385.243,651.425a3.858,3.858,0,1,1-3.858-3.858A3.858,3.858,0,0,1,1385.243,651.425Z" transform="translate(-1377.526 -634.553)" fill="#96a5bc"/>
              <path id="Rectangle_27061" data-name="Rectangle 27061" d="M0,0H13.262V11.589H0Z" transform="translate(27.576)" fill="#96a5bc"/>
              <path id="Rectangle_27062" data-name="Rectangle 27062" d="M1382.174,642.427H1441.3a4.645,4.645,0,0,1,4.644,4.645v.808h-68.413v-.808a4.645,4.645,0,0,1,4.645-4.645Z" transform="translate(-1377.526 -633.565)" fill="#96a5bc"/>
            </g>
          </g>
          <path id="Path_56886" data-name="Path 56886" d="M1386.993,510.318a2.686,2.686,0,0,1,2.778,2.594v.242c-.452,7.852,1.212,27.007,8.525,33.543,8.942,7.99,34.287,6.9,34.287,6.9s4.186,5.137-4.186,6.278-31.962.38-37.67-4.947c-5.525-5.156-8.8-18.666-6.333-42.181a2.706,2.706,0,0,1,2.6-2.434Z" transform="translate(-1356.126 -435.905)" fill="#96a5bc"/>
          <g id="Group_58009" data-name="Group 58009" transform="translate(33.914 44.801)">
            <g id="Group_58008" data-name="Group 58008">
              <path id="Path_56887" data-name="Path 56887" d="M1445.883,630.175l-3.014,6.872,9.233,4.052,3.025-6.895Z" transform="translate(-1401.444 -503.754)" fill="url(#radial-gradient)"/>
              <path id="Path_56888" data-name="Path 56888" d="M1392.526,535.614c.57,1.141,41.6.023,45.474.376,0,0,25.113,11.986,28.72,23.207a12.294,12.294,0,0,1,.354,4.406c-1,15.8-18.995,53.628-18.995,53.628l-2.762-1.211-9.246-4.03-1.313-.57s14.269-42.521,11.415-44.8-35.193-7.991-46.413-11.027S1392.526,535.614,1392.526,535.614Z" transform="translate(-1391.631 -485.571)" fill="#0b4870"/>
              <path id="Path_56889" data-name="Path 56889" d="M1490.018,632.359l-.721,10.324h10.079l.721-10.347Z" transform="translate(-1410.372 -504.169)" fill="url(#radial-gradient-2)"/>
              <path id="Path_56890" data-name="Path 56890" d="M1449.192,535.642l.366.162s42.041,5.9,48.891,17.694c4.452,7.673-4.165,63.722-4.165,63.722l-14.874.034s2.224-46.691,1.483-49.293c-.835-2.968-2.262-4.038-2.828-4.349a12.292,12.292,0,0,0-.354-4.406c-3.607-11.222-28.72-23.207-28.72-23.207a.729.729,0,0,0,.2-.355Z" transform="translate(-1402.621 -485.576)" fill="#0b4870"/>
              <path id="Path_56891" data-name="Path 56891" d="M1392.663,539.271c.3.628,6.829-4.044,18.477-8.319,13.431-4.927,25.853-3.424,26.807-4.2a.728.728,0,0,0,.206-.354,25.27,25.27,0,0,0,.581-5.89c.024-.48.024-.993.035-1.518l-.434.034-.48-2.545-35.123-13.336a138.041,138.041,0,0,1-2.363-15.205l-2.82-.388C1395.666,501.795,1389,531.661,1392.663,539.271Z" transform="translate(-1391.582 -476.328)" fill="#008dd1"/>
              <path id="Path_56892" data-name="Path 56892" d="M1403.274,505.061c.935,4.5,3.356,13.447,8.1,14.646,6.2,1.576,18.185,1.5,29.416.888.023-.48.023-.994.035-1.519l-.434.034-.48-2.545-35.123-13.327a138.04,138.04,0,0,1-2.363-15.205.872.872,0,0,1-.011.126c-.07,1.173-.549,10.259.855,16.9Z" transform="translate(-1393.64 -476.421)" fill="#008dd1"/>
              <path id="Path_56893" data-name="Path 56893" d="M1447.1,473.657c.628,1.141,1.53,13.356,2.019,25.479l7.18-6.7C1453.25,486.534,1447.1,473.657,1447.1,473.657Z" transform="translate(-1402.258 -473.657)" fill="#008dd1"/>
              <path id="Path_56894" data-name="Path 56894" d="M1451.876,510.677c6.058,1.05,11.631,1.952,11.631,1.952l.011.3c6.747-5.388,17.009-20.65,17.009-20.65s-3.069-3.687-3.836-4.657c-.114-.149-16.848,11.369-17.7,11.266-.217-.023-1.073-1.529-2.215-3.766l-7.18,6.7c.114,2.888.205,5.764.263,8.492C1450.53,510.438,1451.2,510.552,1451.876,510.677Z" transform="translate(-1402.737 -476.342)" fill="#fcd2b1"/>
              <path id="Path_56895" data-name="Path 56895" d="M1466.82,518.076l.148,5h18.264s-1.815-7.135-6.757-7.135-6.849,2.615-6.849,2.615Z" transform="translate(-1406.05 -481.788)" fill="#fcd2b1"/>
              <path id="Path_56896" data-name="Path 56896" d="M1483.287,486.254l-.137.115c.765.969,3.835,4.657,3.835,4.657l1.906-1.347a4.741,4.741,0,0,0,4.543-.057c2.546-1.381.969-4.679.839-5.07.494.139,3.544,2.6,4.023,2.342s.833-1.131-2.58-4.5-8.036.959-8.173.959Z" transform="translate(-1409.19 -475.091)" fill="#fcd2b1"/>
              <path id="Path_56897" data-name="Path 56897" d="M1493.609,490.5a1.393,1.393,0,0,1-.46,1.916c-.036.022-.074.042-.111.061a13.051,13.051,0,0,1-4.947.926c-1.094-.105-1.963-1.636-1.963-1.636l3.312-3.106h2.648Z" transform="translate(-1409.762 -476.542)" fill="#fcd2b1"/>
              <path id="Path_56898" data-name="Path 56898" d="M1494.47,491.162c-.2-.677-2.077-.316-3.242-.288-.859.02-1.329-.2-1.594-.859s.981-1.7,1.227-1.373-.45.787-.47,1.221,1.227.578,2.188.578a23.3,23.3,0,0,1,2.618.25Z" transform="translate(-1410.429 -476.527)" fill="#e8987c"/>
            </g>
          </g>
          <path id="Path_56899" data-name="Path 56899" d="M1407.584,513.373l17.887-6.335c1.3,2.431,2.694,4.257,4.076,4.622,2.089.548,7.135,1.5,12.226,2.386.673.126,1.346.242,2.019.365,6.058,1.05,11.631,1.952,11.631,1.952l.011.3v.194l.137,4.509v1.144a126.221,126.221,0,0,0-13.731.225c-10.718.765-24.542,1.221-29.12-.936-2.146-1.016-3.858-4.349-5.2-8.458Z" transform="translate(-1360.733 -435.275)" fill="#fcd2b1"/>
          <path id="Path_56900" data-name="Path 56900" d="M1425.481,507.038l-17.887,6.336.807,2.39,17.7-7.592Z" transform="translate(-1360.748 -435.275)" fill="#008dd1"/>
          <path id="Path_56901" data-name="Path 56901" d="M1423.824,498.912c1.3,2.431,2.695,4.257,4.076,4.623,2.089.548,7.135,1.5,12.226,2.386q-.093-4.247-.263-8.492c-.491-12.123-1.393-24.337-2.019-25.478-1.027-1.907-3.835-6.051-8.264-7l-.011.057s1.53,9.041-7.6,9.041c-8.7,0-9.806-8.458-9.885-9.269-4.475.5-11.336,2.74-12.283,11.735-.194,1.777-.468,4.064-.821,6.655l2.819.388s1.142,12.671,4.075,21.655l.069.034Z" transform="translate(-1359.09 -427.149)" fill="#008dd1"/>
          <path id="Path_56903" data-name="Path 56903" d="M1414.846,464.781h3.893s5.539,6.082,9.1,6.082,1.642-6.047,1.642-6.047h1.737a9.819,9.819,0,0,1,9.755,8.7c.065.567.124,1.109.174,1.6.381,3.679-14.524,6.357-14.524,6.357l-7.674-.429-4.66-9.093-.929-3.724Z" transform="translate(-1361.856 -427.149)" fill="#008dd1"/>
          <g id="Group_58013" data-name="Group 58013" transform="translate(70.723 177.48)">
            <g id="Group_58012" data-name="Group 58012">
              <g id="Group_58011" data-name="Group 58011">
                <g id="Group_58010" data-name="Group 58010">
                  <path id="Path_56904" data-name="Path 56904" d="M1466.39,652.222c-.347,1.858-1.636,3.182-3.5,2.835l-24.8-4.624a1.157,1.157,0,0,1-.924-1.347l.41-2.2s26.074,4.563,28.814,5.322Z" transform="translate(-1437.155 -639.646)" fill="#0b4870"/>
                  <path id="Path_56905" data-name="Path 56905" d="M1459.12,644.256c-.26-.225-.508-.447-.766-.671-.5-.445-.987-.879-1.454-1.3-.248-.223-.5-.445-.727-.654l-1.262-1.131c-.275-.248-.531-.485-.762-.691l-1.013-.907a.56.56,0,0,0-.737-.015c-1.019.857-4.313,2.817-10.28-.875a.573.573,0,0,0-.791.174l-.022.037-3.607,6.934s26.075,4.563,28.813,5.322c-.906-.557-4.234-3.438-7.393-6.224Z" transform="translate(-1437.26 -637.922)" fill="#0b4870"/>
                </g>
              </g>
            </g>
          </g>
          <g id="Group_58017" data-name="Group 58017" transform="translate(109.66 180.404)">
            <g id="Group_58016" data-name="Group 58016">
              <g id="Group_58015" data-name="Group 58015">
                <g id="Group_58014" data-name="Group 58014">
                  <path id="Path_56906" data-name="Path 56906" d="M1514.7,653.029c-.046,1.892-1.108,3.4-3,3.356l-25.213-.616a1.156,1.156,0,0,1-1.131-1.179v0l.055-2.237s26.469.351,29.294.664Z" transform="translate(-1485.362 -643.621)" fill="#0b4870"/>
                  <path id="Path_56907" data-name="Path 56907" d="M1506.449,645.964c-.292-.18-.573-.36-.864-.54l-1.646-1.05c-.281-.18-.565-.36-.822-.53l-1.426-.911q-.433-.28-.862-.565l-1.144-.734a.566.566,0,0,0-.731.1c-.87,1.008-3.809,3.468-10.287.773a.574.574,0,0,0-.754.3l-.016.039-2.457,7.421s26.469.35,29.294.664C1513.756,650.525,1510.011,648.212,1506.449,645.964Z" transform="translate(-1485.377 -641.543)" fill="#0b4870"/>
                </g>
              </g>
            </g>
          </g>
          <g id="Group_58019" data-name="Group 58019" transform="translate(91.655 51.321)">
            <path id="Path_56908" data-name="Path 56908" d="M1534.774,517.642l13.464-35.912h-38.333l-13.465,35.912Z" transform="translate(-1469.486 -481.73)" fill="#6daece"/>
            <path id="Path_56909" data-name="Path 56909" d="M1493.51,517.642h2.37l13.465-35.912-2.152.1-12.454,32.5Z" transform="translate(-1468.924 -481.73)" fill="#6daece"/>
            <path id="Path_56910" data-name="Path 56910" d="M1546.53,521.386h-48.263" transform="translate(-1469.838 -489.355)" fill="none"/>
            <g id="Group_58018" data-name="Group 58018" transform="translate(0 33.65)">
              <path id="Path_56911" data-name="Path 56911" d="M1488.4,525.653h-25.33l.069-2.262h25.78" transform="translate(-1463.07 -523.391)" fill="#6daece"/>
            </g>
            <ellipse id="Ellipse_267" data-name="Ellipse 267" cx="3.026" cy="2.201" rx="3.026" ry="2.201" transform="translate(50.333 20.75) rotate(-77.213)" fill="#fff"/>
          </g>
          <g id="Group_58024" data-name="Group 58024" transform="translate(0 87.232)">
            <g id="Group_58020" data-name="Group 58020" transform="translate(9.067 6.849)">
              <path id="Rectangle_27063" data-name="Rectangle 27063" d="M0,0H6.1V100.192H0Z" fill="#96a5bc"/>
            </g>
            <g id="Group_58021" data-name="Group 58021" transform="translate(42.171 6.849)">
              <path id="Rectangle_27064" data-name="Rectangle 27064" d="M0,0H6.1V100.192H0Z" fill="#96a5bc"/>
            </g>
            <g id="Group_58022" data-name="Group 58022" transform="translate(148.224 6.849)">
              <path id="Rectangle_27065" data-name="Rectangle 27065" d="M0,0H6.1V100.192H0Z" fill="#96a5bc"/>
            </g>
            <g id="Group_58023" data-name="Group 58023" transform="translate(181.328 6.849)">
              <path id="Rectangle_27066" data-name="Rectangle 27066" d="M0,0H6.1V100.192H0Z" fill="#96a5bc"/>
            </g>
            <rect id="Rectangle_27067" data-name="Rectangle 27067" width="196.233" height="7.23" rx="3.615" fill="#96a5bc"/>
          </g>
          <path id="Path_56912" data-name="Path 56912" d="M1456.781,496.9l.547,1.059-7.726,7.987V503.6Z" transform="translate(-1368.825 -433.326)" fill="#008dd1"/>
        </g>
      </g>
    </g>
    <rect id="Rectangle_157244" data-name="Rectangle 157244" width="570" height="2.189" transform="translate(813.524 559)" fill="#345870"/>
  </g>
</svg>
