<svg xmlns="http://www.w3.org/2000/svg" width="570" height="418" viewBox="0 0 570 418">
  <g id="IT_Consulting_about" transform="translate(-184.766 -390.619)">
    <g id="Group_311210" data-name="Group 311210" transform="translate(314.7 390.619)">
      <g id="Group_311188" data-name="Group 311188" transform="translate(23.246 58.182)">
        <g id="Group_311187" data-name="Group 311187">
          <g id="Group_311181" data-name="Group 311181">
            <path id="Path_138200" data-name="Path 138200" d="M857.337,579.184a7.568,7.568,0,0,0-7.568-7.568H597.882a7.568,7.568,0,0,0-7.568,7.568v6.2H857.337Z" transform="translate(-589.914 -571.216)" fill="#fff"/>
            <path id="Path_138201" data-name="Path 138201" d="M856.9,584.952H589.077v-6.6a7.977,7.977,0,0,1,7.968-7.968H848.932a7.977,7.977,0,0,1,7.968,7.968Zm-267.023-.8H856.1v-5.8a7.176,7.176,0,0,0-7.167-7.167H597.045a7.176,7.176,0,0,0-7.168,7.167Z" transform="translate(-589.077 -570.379)" fill="#60a6df"/>
          </g>
          <g id="Group_311182" data-name="Group 311182" transform="translate(0 13.772)">
            <path id="Path_138202" data-name="Path 138202" d="M590.314,614.167V774.858a7.568,7.568,0,0,0,7.568,7.568H849.769a7.568,7.568,0,0,0,7.568-7.568V614.167Z" transform="translate(-589.914 -613.767)" fill="#fff"/>
            <path id="Path_138203" data-name="Path 138203" d="M848.932,781.989H597.045a7.977,7.977,0,0,1-7.968-7.968V612.93H856.9V774.022A7.977,7.977,0,0,1,848.932,781.989ZM589.877,613.73V774.022a7.176,7.176,0,0,0,7.168,7.167H848.932a7.175,7.175,0,0,0,7.167-7.167V613.73Z" transform="translate(-589.077 -612.93)" fill="#60a6df"/>
          </g>
          <g id="Group_311186" data-name="Group 311186" transform="translate(10.245 4.185)">
            <g id="Group_311183" data-name="Group 311183">
              <circle id="Ellipse_4718" data-name="Ellipse 4718" cx="2.697" cy="2.697" r="2.697" transform="translate(0.173 0.658) rotate(-5.152)" fill="#60a6df"/>
              <path id="Path_138204" data-name="Path 138204" d="M623.832,589.512a3.1,3.1,0,1,1,3.1-3.1A3.105,3.105,0,0,1,623.832,589.512Zm0-5.394a2.293,2.293,0,1,0,2.292,2.293A2.3,2.3,0,0,0,623.832,584.117Z" transform="translate(-620.73 -583.308)" fill="#60a6df"/>
            </g>
            <g id="Group_311184" data-name="Group 311184" transform="translate(10.519)">
              <circle id="Ellipse_4719" data-name="Ellipse 4719" cx="2.697" cy="2.697" r="2.697" transform="translate(0.173 0.658) rotate(-5.152)" fill="#60a6df"/>
              <path id="Path_138205" data-name="Path 138205" d="M656.332,589.512a3.1,3.1,0,1,1,3.1-3.1A3.105,3.105,0,0,1,656.332,589.512Zm0-5.394a2.293,2.293,0,1,0,2.292,2.293A2.3,2.3,0,0,0,656.332,584.117Z" transform="translate(-653.23 -583.308)" fill="#60a6df"/>
            </g>
            <g id="Group_311185" data-name="Group 311185" transform="translate(21.038)">
              <circle id="Ellipse_4720" data-name="Ellipse 4720" cx="2.697" cy="2.697" r="2.697" transform="translate(0.173 0.658) rotate(-5.152)" fill="#60a6df"/>
              <path id="Path_138206" data-name="Path 138206" d="M688.832,589.512a3.1,3.1,0,1,1,3.1-3.1A3.105,3.105,0,0,1,688.832,589.512Zm0-5.394a2.293,2.293,0,1,0,2.292,2.293A2.3,2.3,0,0,0,688.832,584.117Z" transform="translate(-685.73 -583.308)" fill="#60a6df"/>
            </g>
          </g>
        </g>
        <rect id="Rectangle_163340" data-name="Rectangle 163340" width="211.362" height="126.881" transform="translate(28.231 31.694)" fill="#e0e0ff" opacity="0.4"/>
      </g>
      <g id="Group_311196" data-name="Group 311196" transform="translate(83.25 34.085)">
        <path id="Path_138207" data-name="Path 138207" d="M972.47,975.419H903.465c-2.549-23.83-3.2-45.192-.922-59.392a47.957,47.957,0,0,1,2.533-9.912l29.057-5.915,33.782,3.026C973.595,917.921,974.485,944.34,972.47,975.419Z" transform="translate(-860.143 -769.352)" fill="#284f63"/>
        <rect id="Rectangle_163341" data-name="Rectangle 163341" width="0.809" height="27.511" transform="translate(75.728 137.459)" fill="#1b1b43"/>
        <path id="Path_138208" data-name="Path 138208" d="M970.836,903.226s-27.2,19.08-65.372,12.8A47.961,47.961,0,0,1,908,906.115l29.057-5.915Z" transform="translate(-863.065 -769.352)" fill="#1b1b43" opacity="0.2"/>
        <path id="Path_138209" data-name="Path 138209" d="M938.926,573.906s-13.1,16.711-9.949,30.909l46.036-1.921s.394-27.8-9.663-30.171Z" transform="translate(-878.635 -547.867)" fill="#1b1b43"/>
        <path id="Path_138210" data-name="Path 138210" d="M1061.543,603.831h-.809c0-18.214-9.473-26.583-9.569-26.665l.528-.613C1051.792,576.638,1061.543,585.25,1061.543,603.831Z" transform="translate(-961.608 -550.457)" fill="#1b1b43"/>
        <g id="Group_311191" data-name="Group 311191" transform="translate(0 45.837)">
          <path id="Path_138211" data-name="Path 138211" d="M823.549,811.214a17.249,17.249,0,0,1-10.737,15.423,16.082,16.082,0,0,1-3.431.971,45.416,45.416,0,0,1-7.663.583c-14.889,0-25.7-11.308-26.977-14.755s2.326-2.225,2.326-2.225c1.315-2.933,4.244-.571,4.244-.571.882-3.059,3.649-.2,3.649-.2s.1-1.675,1.675-1.578c.971.065,4.151,2,6.449,3.471A7.286,7.286,0,0,0,797,813.471a7.052,7.052,0,0,0,1.643-.186,7.274,7.274,0,0,0,5.518-5.769l4.458-24.291h10.551l3.382,4.337C823.881,792.911,823.8,803.867,823.549,811.214Z" transform="translate(-774.466 -736.074)" fill="#ffbc96"/>
          <path id="Path_138212" data-name="Path 138212" d="M901.391,885.494a17.1,17.1,0,0,1-9.669,9.977,7.563,7.563,0,0,1,9.669-9.977Z" transform="translate(-853.376 -804.908)" fill="#fe5b52" opacity="0.4"/>
          <path id="Path_138213" data-name="Path 138213" d="M905.633,639.445l-21.7,4.422a20.437,20.437,0,0,0-15.914,15.8l-5.9,27.9,19.72,2.761Z" transform="translate(-833.749 -638.831)" fill="#008dd1"/>
          <path id="Path_138214" data-name="Path 138214" d="M1019.917,639.445l21.7,4.422a20.438,20.438,0,0,1,15.915,15.8l2.681,19.812-19.128,3.353Z" transform="translate(-940.474 -638.831)" fill="#008dd1"/>
          <path id="Path_138215" data-name="Path 138215" d="M916.452,690.321S915.4,722.135,913.3,729.76c0,0,29.448,10.254,62.84-2.892l-2.63-58.633-25.7-28.79h-7.559l-25.635,33.26Z" transform="translate(-868.363 -638.831)" fill="#008dd1"/>
          <path id="Path_138216" data-name="Path 138216" d="M1127.112,638.948c.121,2.08-3.3,8.375-5.931,12.882a27.975,27.975,0,0,0-3.625,10.8c-3.39,28.482-5.632,52.312-15.544,58.988a11.386,11.386,0,0,1-8.221,1.732,10.474,10.474,0,0,1-5.672-2.6c-10.438-9.289-5.373-39.212-5.373-39.212l12.947-2.233s2.9-24.453,4.734-32.868,4.734-3.941,4.734-3.941c1.052-2.63,3.941-1.052,3.941-1.052,2.1-3.415,4.734-.793,4.734-.793,1.578-3.148,6.053,2.371,6.053,2.371C1122.776,641.707,1126.854,634.578,1127.112,638.948Z" transform="translate(-982.136 -637.547)" fill="#ffbc96"/>
          <rect id="Rectangle_163342" data-name="Rectangle 163342" width="26.722" height="0.809" transform="translate(47.685 51.471) rotate(-87.267)" fill="#1b1b43"/>
          <path id="Path_138217" data-name="Path 138217" d="M1080.719,730.392l-1.652-21.259.807-.062,1.583,20.373,12.511-2.159.138.8Z" transform="translate(-980.479 -685.921)" fill="#1b1b43"/>
          <rect id="Rectangle_163343" data-name="Rectangle 163343" width="45.165" height="0.809" transform="translate(110.326 63.856) rotate(-82.457)" fill="#d28572"/>
          <path id="Path_138218" data-name="Path 138218" d="M1115.807,886.732a11.386,11.386,0,0,1-8.221,1.732,10.474,10.474,0,0,1-5.672-2.6,7.554,7.554,0,0,1,13.893.866Z" transform="translate(-995.931 -802.66)" fill="#fe5b52" opacity="0.4"/>
          <g id="Group_311189" data-name="Group 311189" transform="translate(122.624 2.592)">
            <rect id="Rectangle_163344" data-name="Rectangle 163344" width="0.809" height="4.9" transform="matrix(0.988, -0.153, 0.153, 0.988, 0, 2.423)" fill="#d28572"/>
            <rect id="Rectangle_163345" data-name="Rectangle 163345" width="0.809" height="4.991" transform="translate(4.061 1.476) rotate(-18.185)" fill="#d28572"/>
            <rect id="Rectangle_163346" data-name="Rectangle 163346" width="0.809" height="5.248" transform="matrix(0.942, -0.335, 0.335, 0.942, 8.717, 0.271)" fill="#d28572"/>
          </g>
          <rect id="Rectangle_163347" data-name="Rectangle 163347" width="9.406" height="2.933" rx="1.467" transform="translate(83.517 21.529)" fill="#cbcbff"/>
          <path id="Path_138219" data-name="Path 138219" d="M986.435,676.4a15.422,15.422,0,0,1-9.459-3.441l.542-.6c.332.3,8.239,7.233,17.826-.022l.488.645A15.368,15.368,0,0,1,986.435,676.4Z" transform="translate(-911.431 -661.077)" fill="#1b1b43"/>
          <g id="Group_311190" data-name="Group 311190" transform="translate(1.956 73.956)">
            <path id="Path_138220" data-name="Path 138220" d="M810.732,870.736a15.068,15.068,0,0,1-5.415-4.154l.6-.538a14.281,14.281,0,0,0,5.1,3.938Z" transform="translate(-797.288 -866.044)" fill="#d28572"/>
            <path id="Path_138221" data-name="Path 138221" d="M798.395,872.489a13.878,13.878,0,0,1-4.487-5.2l.708-.393a13.108,13.108,0,0,0,4.211,4.912Z" transform="translate(-789.572 -866.618)" fill="#d28572"/>
            <path id="Path_138222" data-name="Path 138222" d="M786.072,874.788a23.318,23.318,0,0,1-5.561-6.276l.681-.437a22.541,22.541,0,0,0,5.363,6.064Z" transform="translate(-780.511 -867.418)" fill="#d28572"/>
          </g>
        </g>
        <g id="Group_311195" data-name="Group 311195" transform="translate(56.182)">
          <path id="Rectangle_163348" data-name="Rectangle 163348" d="M0,0H16.433a0,0,0,0,1,0,0V13.869a8.216,8.216,0,0,1-8.216,8.216h0A8.216,8.216,0,0,1,0,13.869V0A0,0,0,0,1,0,0Z" transform="translate(10.58 33.831)" fill="#ffbc96"/>
          <path id="Path_138223" data-name="Path 138223" d="M980.73,604.792c5.08,8.537,10.532,9.238,16.453.067Z" transform="translate(-970.152 -569.557)" fill="#d28572"/>
          <path id="Rectangle_163349" data-name="Rectangle 163349" d="M0,0H22.8a0,0,0,0,1,0,0V19.228a11.4,11.4,0,0,1-11.4,11.4h0A11.4,11.4,0,0,1,0,19.228V0A0,0,0,0,1,0,0Z" transform="translate(7.398 8.134)" fill="#ffbc96"/>
          <path id="Path_138224" data-name="Path 138224" d="M1002.073,567.547c-1.333-1.259-1.834-2.253-1.532-3.041a2.117,2.117,0,0,1,1.763-1.073l-.029-2.485.809-.009.037,3.258-.4.01c-.4.011-1.266.171-1.426.59-.076.2-.1.811,1.333,2.163Z" transform="translate(-983.494 -539.896)" fill="#1b1b43"/>
          <g id="Group_311192" data-name="Group 311192" transform="translate(14.979 28.704)">
            <path id="Path_138225" data-name="Path 138225" d="M1002.2,586.039a7.852,7.852,0,0,0,.743-1.428c-2.761.23-8.611.23-8.611.23a5.374,5.374,0,0,0,.655,1.441A44.2,44.2,0,0,0,1002.2,586.039Z" transform="translate(-994.329 -584.611)" fill="#fff"/>
            <path id="Path_138226" data-name="Path 138226" d="M996.353,589.266a4.2,4.2,0,0,0,3.518,2.043,4.388,4.388,0,0,0,3.694-2.286A44.212,44.212,0,0,1,996.353,589.266Z" transform="translate(-995.698 -587.594)" fill="#1b1b43"/>
          </g>
          <path id="Path_138227" data-name="Path 138227" d="M984.054,516.16c.01.438.4-9.1-14.464-11.126,0,0-8.395,4.8-7.434,11.733l-4.559-.861c-1.762-4.8-1.155-17.648,9.162-16.738a8.038,8.038,0,0,1,5.866-3.237c18.51-.3,15.586,20.221,15.143,20.813Z" transform="translate(-953.989 -495.928)" fill="#1b1b43"/>
          <g id="Group_311193" data-name="Group 311193" transform="translate(26.429 17.247)">
            <ellipse id="Ellipse_4721" data-name="Ellipse 4721" cx="5.037" cy="4.177" rx="5.037" ry="4.177" transform="translate(0 9.566) rotate(-71.747)" fill="#ffbc96"/>
            <path id="Path_138228" data-name="Path 138228" d="M1043.343,565.213l-.8-.1c.14-1.116.941-3.257,2.974-3.377l.048.808C1043.684,562.653,1043.346,565.187,1043.343,565.213Z" transform="translate(-1038.386 -557.683)" fill="#1b1b43"/>
          </g>
          <g id="Group_311194" data-name="Group 311194" transform="translate(0 17.247)">
            <ellipse id="Ellipse_4722" data-name="Ellipse 4722" cx="4.177" cy="5.037" rx="4.177" ry="5.037" transform="matrix(0.95, -0.313, 0.313, 0.95, 0, 2.616)" fill="#ffbc96"/>
            <path id="Path_138229" data-name="Path 138229" d="M962.356,565.213c-.013-.1-.35-2.561-2.219-2.67l.047-.808c2.034.12,2.835,2.261,2.974,3.377Z" transform="translate(-956.225 -557.683)" fill="#1b1b43"/>
          </g>
          <path id="Path_138230" data-name="Path 138230" d="M1019.151,550.86a1.231,1.231,0,1,1-1.228-1.321A1.277,1.277,0,0,1,1019.151,550.86Z" transform="translate(-994.477 -532.187)" fill="#1b1b43"/>
          <rect id="Rectangle_163350" data-name="Rectangle 163350" width="5.127" height="1.491" rx="0.745" transform="matrix(0.993, 0.119, -0.119, 0.993, 21.384, 13.767)" fill="#1b1b43"/>
          <path id="Path_138231" data-name="Path 138231" d="M987.728,550.86a1.231,1.231,0,1,0,1.228-1.321A1.277,1.277,0,0,0,987.728,550.86Z" transform="translate(-974.885 -532.187)" fill="#1b1b43"/>
          <rect id="Rectangle_163351" data-name="Rectangle 163351" width="5.127" height="1.491" rx="0.745" transform="translate(16.311 15.247) rotate(173.137)" fill="#1b1b43"/>
          <circle id="Ellipse_4723" data-name="Ellipse 4723" cx="2.648" cy="2.648" r="2.648" transform="translate(23.093 21.243)" fill="#fe5b52" opacity="0.4"/>
          <circle id="Ellipse_4724" data-name="Ellipse 4724" cx="2.648" cy="2.648" r="2.648" transform="translate(9.129 21.243)" fill="#fe5b52" opacity="0.4"/>
        </g>
      </g>
      <g id="Group_311199" data-name="Group 311199" transform="translate(0 101.453)">
        <g id="Group_311197" data-name="Group 311197">
          <rect id="Rectangle_163352" data-name="Rectangle 163352" width="87.162" height="40.639" rx="8" transform="translate(0.389 0.389)" fill="#fff"/>
          <path id="Path_138232" data-name="Path 138232" d="M600.732,745.489H521.719a4.469,4.469,0,0,1-4.464-4.463V708.534a4.469,4.469,0,0,1,4.464-4.463h79.013a4.468,4.468,0,0,1,4.463,4.463v32.491A4.468,4.468,0,0,1,600.732,745.489Zm-79.013-40.639a3.689,3.689,0,0,0-3.685,3.685v32.491a3.689,3.689,0,0,0,3.685,3.685h79.013a3.689,3.689,0,0,0,3.685-3.685V708.534a3.689,3.689,0,0,0-3.685-3.685Z" transform="translate(-517.255 -704.071)" fill="#60a6df"/>
        </g>
        <g id="Group_311198" data-name="Group 311198" transform="translate(10.087 10.392)">
          <rect id="Rectangle_163353" data-name="Rectangle 163353" width="67.767" height="0.809" fill="#e0e0ff"/>
          <rect id="Rectangle_163354" data-name="Rectangle 163354" width="67.767" height="0.809" transform="translate(0 9.912)" fill="#e0e0ff"/>
          <rect id="Rectangle_163355" data-name="Rectangle 163355" width="67.767" height="0.809" transform="translate(0 19.824)" fill="#e0e0ff"/>
        </g>
        <path id="Path_138233" data-name="Path 138233" d="M550.593,748l-.634-.5,4.83-6.09,8.315,2.839,7.158-7.771,7.278,5.863,8.546-9.564,7.75,8.942,6.924-17.921,7.183,11.288,8.351-12.042.665.461-9.045,13.042-6.977-10.964-6.832,17.682L586.077,734l-8.446,9.451-7.287-5.87-7,7.6-8.273-2.825Z" transform="translate(-539.374 -716.899)" fill="#60a6df"/>
      </g>
      <g id="Group_311202" data-name="Group 311202" transform="translate(197.481)">
        <g id="Group_311200" data-name="Group 311200" transform="translate(0 0.2)">
          <path id="Path_138234" data-name="Path 138234" d="M1160.441,424.178l-3.9-31.547a31.791,31.791,0,1,0,35.7,31.547c0-.93-.049-1.847-.126-2.757Z" transform="translate(-1128.242 -392.18)" fill="#fff"/>
          <path id="Path_138235" data-name="Path 138235" d="M1159.595,455.435a32.2,32.2,0,0,1-3.95-64.148l.4-.049,3.9,31.562,31.683-2.759.035.4c.086,1,.128,1.916.128,2.792A32.235,32.235,0,0,1,1159.595,455.435Zm-4.252-63.293a31.387,31.387,0,1,0,35.642,31.094c0-.734-.03-1.5-.092-2.318l-31.651,2.755Z" transform="translate(-1127.396 -391.238)" fill="#60a6df"/>
        </g>
        <path id="Path_138236" data-name="Path 138236" d="M1278.129,431l31.668-2.757a31.618,31.618,0,0,0-5.967-15.953Z" transform="translate(-1229.342 -405.279)" fill="#60a6df"/>
        <g id="Group_311201" data-name="Group 311201" transform="translate(27.847)">
          <path id="Path_138237" data-name="Path 138237" d="M1244.428,404.953a31.693,31.693,0,0,0-29.6-12.837l3.9,31.547Z" transform="translate(-1214.376 -391.464)" fill="#c9e4f9"/>
          <path id="Path_138238" data-name="Path 138238" d="M1217.467,423.549l-4.034-32.631.4-.049a32.1,32.1,0,0,1,29.978,13l.238.327Zm-3.132-31.924,3.766,30.461,24.816-18.066a31.513,31.513,0,0,0-25.133-12.592A30.971,30.971,0,0,0,1214.336,391.625Z" transform="translate(-1213.433 -390.619)" fill="#60a6df"/>
        </g>
      </g>
      <g id="Group_311206" data-name="Group 311206" transform="translate(245.979 122.552)">
        <g id="Group_311203" data-name="Group 311203">
          <rect id="Rectangle_163356" data-name="Rectangle 163356" width="68.121" height="73.761" rx="6" transform="translate(0.389 0.388)" fill="#fff"/>
          <path id="Path_138239" data-name="Path 138239" d="M1340.727,843.8h-58.079a5.415,5.415,0,0,1-5.409-5.409V774.669a5.415,5.415,0,0,1,5.409-5.409h58.079a5.415,5.415,0,0,1,5.409,5.409v63.719A5.415,5.415,0,0,1,1340.727,843.8Zm-58.079-73.761a4.637,4.637,0,0,0-4.632,4.632v63.719a4.637,4.637,0,0,0,4.632,4.632h58.079a4.637,4.637,0,0,0,4.632-4.632V774.669a4.637,4.637,0,0,0-4.632-4.632Z" transform="translate(-1277.238 -769.26)" fill="#60a6df"/>
        </g>
        <g id="Group_311204" data-name="Group 311204" transform="translate(8.151 10.95)">
          <rect id="Rectangle_163357" data-name="Rectangle 163357" width="52.595" height="0.852" fill="#e0e0ff"/>
          <rect id="Rectangle_163358" data-name="Rectangle 163358" width="52.595" height="0.852" transform="translate(0 12.947)" fill="#e0e0ff"/>
          <rect id="Rectangle_163359" data-name="Rectangle 163359" width="52.595" height="0.852" transform="translate(0 25.893)" fill="#e0e0ff"/>
          <rect id="Rectangle_163360" data-name="Rectangle 163360" width="52.595" height="0.852" transform="translate(0 38.84)" fill="#e0e0ff"/>
          <rect id="Rectangle_163361" data-name="Rectangle 163361" width="52.595" height="0.852" transform="translate(0 51.786)" fill="#e0e0ff"/>
        </g>
        <g id="Group_311205" data-name="Group 311205" transform="translate(8.151 14.215)">
          <rect id="Rectangle_163362" data-name="Rectangle 163362" width="4.479" height="35.239" transform="translate(0 14.134)" fill="#cbcbff"/>
          <rect id="Rectangle_163363" data-name="Rectangle 163363" width="4.48" height="22.145" transform="translate(9.739 27.229)" fill="#e0e0ff"/>
          <rect id="Rectangle_163364" data-name="Rectangle 163364" width="4.479" height="30.28" transform="translate(19.478 19.093)" fill="#cbcbff"/>
          <rect id="Rectangle_163365" data-name="Rectangle 163365" width="4.479" height="35.747" transform="translate(29.217 13.626)" fill="#e0e0ff"/>
          <rect id="Rectangle_163366" data-name="Rectangle 163366" width="4.479" height="42.346" transform="translate(38.956 7.027)" fill="#cbcbff"/>
          <rect id="Rectangle_163367" data-name="Rectangle 163367" width="4.48" height="49.373" transform="translate(48.695)" fill="#e0e0ff"/>
        </g>
      </g>
      <g id="Group_311209" data-name="Group 311209" transform="translate(71.22 4.634)">
        <g id="Group_311207" data-name="Group 311207">
          <path id="Path_138240" data-name="Path 138240" d="M783,406.25H743.326a4.715,4.715,0,0,0-4.715,4.715v16.059a4.715,4.715,0,0,0,4.715,4.715h27.092l10.416,8.9v-8.9H783a4.715,4.715,0,0,0,4.715-4.715V410.965A4.715,4.715,0,0,0,783,406.25Z" transform="translate(-738.186 -405.825)" fill="#fff"/>
          <path id="Path_138241" data-name="Path 138241" d="M780.37,440.673l-11-9.4H742.438a5.145,5.145,0,0,1-5.14-5.14V410.077a5.146,5.146,0,0,1,5.14-5.14h39.671a5.145,5.145,0,0,1,5.139,5.14v16.059a5.145,5.145,0,0,1-5.139,5.14H780.37Zm-37.933-34.886a4.3,4.3,0,0,0-4.29,4.29v16.059a4.3,4.3,0,0,0,4.29,4.29h27.249l9.834,8.4v-8.4h2.588a4.294,4.294,0,0,0,4.29-4.29V410.077a4.3,4.3,0,0,0-4.29-4.29Z" transform="translate(-737.298 -404.937)" fill="#60a6df"/>
        </g>
        <g id="Group_311208" data-name="Group 311208" transform="translate(6.438 6.898)">
          <rect id="Rectangle_163368" data-name="Rectangle 163368" width="31.76" height="0.809" fill="#60a6df"/>
          <rect id="Rectangle_163369" data-name="Rectangle 163369" width="36.008" height="0.809" transform="translate(0 5.462)" fill="#60a6df"/>
          <rect id="Rectangle_163370" data-name="Rectangle 163370" width="25.286" height="0.809" transform="translate(0 10.924)" fill="#60a6df"/>
        </g>
      </g>
    </g>
    <g id="Group_311211" data-name="Group 311211" transform="translate(344.929 665.938)">
      <rect id="Rectangle_163371" data-name="Rectangle 163371" width="11.328" height="137.557" transform="translate(63.892 4.69)" fill="#60a6df"/>
      <rect id="Rectangle_163372" data-name="Rectangle 163372" width="11.328" height="137.557" transform="translate(179.197 4.69)" fill="#60a6df"/>
      <rect id="Rectangle_163373" data-name="Rectangle 163373" width="11.328" height="24.247" transform="translate(63.892 4.313)" fill="#60a6df" opacity="0.3"/>
      <rect id="Rectangle_163374" data-name="Rectangle 163374" width="11.328" height="24.247" transform="translate(179.197 4.313)" fill="#60a6df" opacity="0.3"/>
      <rect id="Rectangle_163375" data-name="Rectangle 163375" width="254.418" height="11.399" fill="#60a6df"/>
    </g>
    <g id="Group_311212" data-name="Group 311212" transform="translate(522.464 617.375)">
      <rect id="Rectangle_163376" data-name="Rectangle 163376" width="29.462" height="3.907" transform="translate(17.499 44.669)" fill="#176a92"/>
      <path id="Path_138242" data-name="Path 138242" d="M1181.027,1139.785h-4.359L1159.3,1093.97a2.038,2.038,0,0,1,1.905-2.76h0a2.037,2.037,0,0,1,1.906,1.316Z" transform="translate(-1159.169 -1091.21)" fill="#176a92"/>
    </g>
    <g id="Group_311213" data-name="Group 311213" transform="translate(381.565 617.375)">
      <rect id="Rectangle_163377" data-name="Rectangle 163377" width="29.462" height="3.907" transform="translate(29.462 48.575) rotate(180)" fill="#176a92"/>
      <path id="Path_138243" data-name="Path 138243" d="M801.4,1139.785h4.359l17.366-45.815a2.038,2.038,0,0,0-1.906-2.76h0a2.037,2.037,0,0,0-1.906,1.316Z" transform="translate(-776.3 -1091.21)" fill="#176a92"/>
    </g>
    <g id="Group_311220" data-name="Group 311220" transform="translate(246.354 569.699)">
      <g id="Group_311217" data-name="Group 311217" transform="translate(31.272)">
        <g id="Group_311214" data-name="Group 311214" transform="translate(31.906)">
          <path id="Path_138244" data-name="Path 138244" d="M544.891,1026.929l16.073,2.583.177-8.807.169-8.767.147-7.5-4.457-2.1-7.637,8.948Z" transform="translate(-530.778 -983.427)" fill="#d28572"/>
          <path id="Path_138245" data-name="Path 138245" d="M574.81,1031.714a37.635,37.635,0,0,0,6.566,8.859l.169-8.767Z" transform="translate(-551.013 -1003.295)" fill="#925d4f"/>
          <path id="Path_138246" data-name="Path 138246" d="M625.639,998.224c.187.105,5.089,7.612,2.886,8.291a15.106,15.106,0,0,1-4.984.418Z" transform="translate(-583.972 -980.645)" fill="#925d4f"/>
          <path id="Path_138247" data-name="Path 138247" d="M591.031,972.04,589,990.7a4.267,4.267,0,0,1-2.695,3.516h0a4.266,4.266,0,0,1-3.214-.049l-11.55-4.9-1.558-10.521,9.35-9.794Z" transform="translate(-547.751 -960.847)" fill="#d28572"/>
          <path id="Path_138248" data-name="Path 138248" d="M537.613,1046.667l-5.529,12.272,21.443,3.372,1.483-9.575Z" transform="translate(-522.116 -1013.408)" fill="#4e95cf"/>
          <path id="Path_138249" data-name="Path 138249" d="M530.868,961.784s9.48-1.6,13.7-6.681c0,0,1.564-9.826-12.892-11.129-15.683-1.412-30.388,20.778-30.388,20.778l19.159,16.734Z" transform="translate(-501.287 -943.91)" fill="#1b1b43"/>
          <ellipse id="Ellipse_4725" data-name="Ellipse 4725" cx="3.276" cy="4.271" rx="3.276" ry="4.271" transform="translate(24.102 16.421) rotate(-27.211)" fill="#d28572"/>
          <path id="Path_138250" data-name="Path 138250" d="M588.3,999.767a3.692,3.692,0,0,0-1.081-2.189,1.1,1.1,0,0,0-.908-.155l-.178-.79a1.893,1.893,0,0,1,1.545.279,4.534,4.534,0,0,1,1.422,2.738Z" transform="translate(-558.671 -979.531)" fill="#1b1b43"/>
          <circle id="Ellipse_4726" data-name="Ellipse 4726" cx="3.135" cy="3.135" r="3.135" transform="translate(33.315 19.419)" fill="#be443d" opacity="0.3"/>
        </g>
        <g id="Group_311215" data-name="Group 311215" transform="translate(4.787 41.09)">
          <path id="Path_138251" data-name="Path 138251" d="M483.026,1102.82a15.8,15.8,0,0,1-9.16,10.559c-.275.113-.55.219-.833.324s-.542.2-.809.3a30.539,30.539,0,0,0-18.125,19.436c-.154.518-.283,1.011-.388,1.473a62.969,62.969,0,0,1-36.21-7.485s10.034-35.595,32.18-52.531a19.78,19.78,0,0,1,18-3.1,26.475,26.475,0,0,1,13.408,9.653l.4.55,1.958,14.29A16.514,16.514,0,0,1,483.026,1102.82Z" transform="translate(-417.5 -1070.862)" fill="#60a6df"/>
          <path id="Path_138252" data-name="Path 138252" d="M586.725,1155.786a15.8,15.8,0,0,1-9.16,10.56c-.275.113-.55.218-.833.324s-.542.2-.809.3c-2.8-6.87-5.1-17.794-5.1-17.794l13.489,1.788Z" transform="translate(-521.199 -1123.828)" fill="#5095ce"/>
          <path id="Path_138253" data-name="Path 138253" d="M710,1097.88s11.848-12.665,15.576-11.733c1.618.4-3.237,5.462-3.237,5.462s4.63.089,12.053-3.743a1.564,1.564,0,0,1,2.163.782h0a1.562,1.562,0,0,1-.227,1.584c-1.571,1.947-6.254,7.187-12.775,9.469l-2.767,3.577-6.943,3.3Z" transform="translate(-615.328 -1081.167)" fill="#d28572"/>
          <path id="Path_138254" data-name="Path 138254" d="M626.657,1116.247l-15.5,27.625a10.857,10.857,0,0,1-17.688,1.788l-22.648-26.176,14.355-14.209,15.722,21.556,14.969-15.981Z" transform="translate(-521.199 -1094.137)" fill="#60a6df"/>
          <path id="Path_138255" data-name="Path 138255" d="M619.636,1119c-9.089-14.19-21.16-30.987-27.636-36.525l.526-.615c7.472,6.389,20.985,26.078,27.791,36.7Z" transform="translate(-535.521 -1078.302)" fill="#1b1b43"/>
          <path id="Path_138256" data-name="Path 138256" d="M601.435,1172.7a10.761,10.761,0,0,1-5.111-1.4c-4.958-2.678-25.591-27.977-26.468-29.052l.627-.511c.214.262,21.407,26.249,26.225,28.851,5.48,2.96,9.2.269,10.928-1.6,2.755-2.975,17.859-30.157,18.012-30.431l.708.393c-.624,1.123-15.3,27.541-18.125,30.588A9.137,9.137,0,0,1,601.435,1172.7Z" transform="translate(-520.544 -1116.654)" fill="#1b1b43"/>
        </g>
        <g id="Group_311216" data-name="Group 311216" transform="translate(0 97.654)">
          <path id="Path_138257" data-name="Path 138257" d="M559.59,1579.44l-13.954,27.517,3.048.432,5.059-7.183,15.861,11.2,9.3-.039s1.887-1.872-2.943-6.892a30.582,30.582,0,0,1-8.777-21.718l.013-.7-3.8-3.88Z" transform="translate(-499.376 -1470.541)" fill="#1b1b43"/>
          <path id="Path_138258" data-name="Path 138258" d="M584.12,1592.62l-3.078,23.315h3.078l4-7.822,14.777,7.521h11.7s1.606-2.118-3.88-6.412a30.578,30.578,0,0,1-11.735-20.273l-.085-.691-4.31-3.309Z" transform="translate(-523.322 -1475.122)" fill="#393a8f"/>
          <path id="Path_138259" data-name="Path 138259" d="M628.834,1406.549l21.658-76.157a13.122,13.122,0,0,0-6.934-15.414l-19.5-9.381-1.162,90.416Z" transform="translate(-551.628 -1286.186)" fill="#196387"/>
          <path id="Path_138260" data-name="Path 138260" d="M407.5,1245.625l-4.363,20.771a19.518,19.518,0,0,0,19.1,23.53h40.824c-4.084,19.957-1.43,47.409,0,75.656l16.857.4,11.629-72.6a25.935,25.935,0,0,0-16.408-28.351l-31.43-11.926Z" transform="translate(-402.71 -1245.625)" fill="#0271a6"/>
          <path id="Path_138261" data-name="Path 138261" d="M528.926,1376.029l-.8-.1c.089-.684,8.865-68.589,6.477-81.057-2.467-12.883-27.3-16.6-40.647-18.6-1.187-.178-2.28-.341-3.253-.5-3.342-.532-5.72-1.975-7.067-4.289-2.657-4.564-.36-10.823-.261-11.087l.758.284c-.023.061-2.26,6.169.2,10.4,1.219,2.093,3.4,3.4,6.494,3.894.971.155,2.061.318,3.246.495,13.541,2.028,38.747,5.8,41.322,19.248,1.014,5.3.233,20.593-2.321,45.464C531.174,1358.682,528.948,1375.858,528.926,1376.029Z" transform="translate(-456.578 -1255.615)" fill="#fff" opacity="0.4"/>
        </g>
      </g>
      <g id="Group_311219" data-name="Group 311219" transform="translate(0 83.443)">
        <g id="Group_311218" data-name="Group 311218" transform="translate(23.565 61.798)">
          <path id="Path_138262" data-name="Path 138262" d="M400.666,1392.65l-2.792,16.135L384.516,1486H378.9l13.359-77.218,2.792-16.135Z" transform="translate(-378.9 -1392.65)" fill="#4e95cf"/>
          <path id="Path_138263" data-name="Path 138263" d="M515.666,1486h-5.616l-13.359-77.218L493.9,1392.65h5.616l2.792,16.135Z" transform="translate(-456.679 -1392.65)" fill="#4e95cf"/>
          <path id="Path_138264" data-name="Path 138264" d="M428.582,1392.65l-2.792,16.135h-5.616l2.792-16.135Z" transform="translate(-406.816 -1392.65)" fill="#1b1b43" opacity="0.3"/>
          <path id="Path_138265" data-name="Path 138265" d="M502.307,1408.785h-5.616L493.9,1392.65h5.616Z" transform="translate(-456.679 -1392.65)" fill="#1b1b43" opacity="0.3"/>
        </g>
        <path id="Path_138266" data-name="Path 138266" d="M436.845,1390.187H384.3V1382.5h52.55a3.844,3.844,0,0,1,3.843,3.844h0A3.844,3.844,0,0,1,436.845,1390.187Z" transform="translate(-358.984 -1323.988)" fill="#4e95cf"/>
        <path id="Path_138267" data-name="Path 138267" d="M338.821,1267.918H331.4L306.35,1206.5a3.473,3.473,0,0,1,1.736-4.454h0a3.473,3.473,0,0,1,4.7,1.834Z" transform="translate(-306.092 -1201.718)" fill="#4e95cf"/>
      </g>
    </g>
    <g id="Group_311228" data-name="Group 311228" transform="translate(530.526 570.413)">
      <g id="Group_311224" data-name="Group 311224">
        <g id="Group_311221" data-name="Group 311221" transform="translate(82.179)">
          <path id="Path_138268" data-name="Path 138268" d="M1453.932,996.588c-.19.1-5.388,7.342-3.229,8.113a15.029,15.029,0,0,0,4.934.632Z" transform="translate(-1446.23 -980.252)" fill="#d28572"/>
          <path id="Path_138269" data-name="Path 138269" d="M1506.7,1027.882l-17.311,2.05.32-8.775.327-8.736.276-7.468,4.881-1.95,7.636,9.159Z" transform="translate(-1472.751 -984.59)" fill="#ffbc96"/>
          <path id="Path_138270" data-name="Path 138270" d="M1497.905,1032.229a39.193,39.193,0,0,1-7.523,8.608l.326-8.736Z" transform="translate(-1473.421 -1004.271)" fill="#d28572"/>
          <path id="Path_138271" data-name="Path 138271" d="M1457.678,971.417l1.2,18.629a4.244,4.244,0,0,0,2.524,3.611h0a4.245,4.245,0,0,0,3.2.092l11.689-4.367L1478.3,979l-8.864-10.139Z" transform="translate(-1451.302 -961.496)" fill="#ffbc96"/>
          <path id="Path_138272" data-name="Path 138272" d="M1457.883,963.609s-2.871-5.573-5.86-6.426c0,0-11.51,3.751-14.044-5.076a22.931,22.931,0,0,0,12.043-3.829c5.558-3.891,11.356-2.023,15.371,1.608,0,0,13.115.647,2.774,23.788,0,0-2.6.862-9.217-8.382Z" transform="translate(-1437.978 -946.116)" fill="#1b1b43"/>
          <path id="Path_138273" data-name="Path 138273" d="M1496.242,994.3c-1.163,2.037-3.362,2.972-4.912,2.088s-1.863-3.253-.7-5.291,3.362-2.972,4.912-2.087S1497.4,992.259,1496.242,994.3Z" transform="translate(-1473.113 -974.898)" fill="#ffbc96"/>
          <path id="Path_138274" data-name="Path 138274" d="M1497.751,997.48a3.38,3.38,0,0,1,2.362-3.838l.223.778a2.606,2.606,0,0,0-1.784,2.939Z" transform="translate(-1478.38 -978.259)" fill="#1b1b43"/>
        </g>
        <path id="Path_138275" data-name="Path 138275" d="M1489.391,1059.181l.2-9.021,15.239-3.911,4.45,11.193Z" transform="translate(-1390.572 -1013.84)" fill="#e5a940"/>
        <path id="Path_138276" data-name="Path 138276" d="M1390.5,1075c-7.649,7.445-13.216,18.611-20.229,29.939,0,0-23.769,6.136-30.58,12.947l12.239,6.2,41.807-11.6Z" transform="translate(-1289.321 -1033.285)" fill="#fec35b"/>
        <g id="Group_311222" data-name="Group 311222" transform="translate(0 96.466)">
          <path id="Path_138277" data-name="Path 138277" d="M1223.444,1584.8l-9.534,27.072-29.833-7.443s4.641-6.348,18.641-4.523l7.444-20.922Z" transform="translate(-1184.076 -1470.612)" fill="#1b1b43"/>
          <path id="Path_138278" data-name="Path 138278" d="M1320.916,1266.25l-43.088,14a31.02,31.02,0,0,0-20.471,21.839L1240,1373.868l23.466,6.069a495.838,495.838,0,0,0,24.275-73.094Z" transform="translate(-1221.899 -1259.1)" fill="#284f63"/>
          <path id="Path_138279" data-name="Path 138279" d="M1380.8,1603.286l3.506,25.084h-32.636s2.967-7.282,16.992-8.9l-.809-15.1Z" transform="translate(-1297.424 -1487.05)" fill="#1b1b43"/>
          <path id="Path_138280" data-name="Path 138280" d="M1434.371,1244.159l4.363,20.771c2.547,12.129-6.554,24.208-18.948,24.208h-39.244c2.205,20.164,4.329,46.733,2.9,74.98l-21.49.4-11.629-72.6a25.935,25.935,0,0,1,16.408-28.351l28.578-12.261Z" transform="translate(-1296.292 -1244.159)" fill="#284f63"/>
        </g>
        <path id="Path_138281" data-name="Path 138281" d="M1522.638,1130.844c-3.533-33.761-8.59-65.618-34.021-64.152a6.182,6.182,0,0,0-3.993,1.831h0a21.12,21.12,0,0,0-6.12,16.613l3.675,46.113S1502,1134.89,1522.638,1130.844Z" transform="translate(-1383.163 -1027.632)" fill="#fec35b"/>
        <g id="Group_311223" data-name="Group 311223" transform="translate(32.969 46.469)">
          <path id="Path_138282" data-name="Path 138282" d="M1303.334,1206.563s-14.969,2.832-17.4,11.328h21.24l4.046-2.832Z" transform="translate(-1285.937 -1168.735)" fill="#ffbc96"/>
          <path id="Path_138283" data-name="Path 138283" d="M1394.912,1089.688l-19.42,30.141-35.805,7.687,3.844,11.328,30.021-.154c8.061-.157,14.958-4.371,19.439-11.073l16.689-23.971Z" transform="translate(-1322.29 -1089.688)" fill="#fec35b"/>
        </g>
        <path id="Path_138284" data-name="Path 138284" d="M1339.595,1116.615l-.17-.791,35.584-7.64c.948-2.675,1.89-5.447,2.8-8.129,3.738-11,7.27-21.394,11.649-27.07l.64.495c-4.3,5.57-7.807,15.9-11.522,26.836-.936,2.756-1.9,5.606-2.88,8.351l-.075.213-.221.047Z" transform="translate(-1289.144 -1031.923)" fill="#e5a940"/>
        <path id="Path_138285" data-name="Path 138285" d="M1369.164,1186.639c-8.326,0-16.972-.146-17.623-.158l.014-.809c.292,0,29.224.5,32.777-.294l.109-.024a26.97,26.97,0,0,0,19.06-16.075l4.01-9.755.748.308-4.01,9.755a27.781,27.781,0,0,1-19.632,16.557l-.108.024C1382.849,1186.537,1376.118,1186.639,1369.164,1186.639Z" transform="translate(-1297.339 -1090.451)" fill="#e5a940"/>
      </g>
      <g id="Group_311227" data-name="Group 311227" transform="translate(93.354 82.729)">
        <g id="Group_311226" data-name="Group 311226" transform="translate(0 61.796)">
          <path id="Path_138286" data-name="Path 138286" d="M1603.656,1486h5.617l-16.152-93.352H1587.5Z" transform="translate(-1550.283 -1392.644)" fill="#4e95cf"/>
          <path id="Path_138287" data-name="Path 138287" d="M1478.121,1486H1472.5l16.151-93.352h5.617Z" transform="translate(-1472.504 -1392.644)" fill="#4e95cf"/>
          <g id="Group_311225" data-name="Group 311225" transform="translate(13.351)">
            <path id="Path_138288" data-name="Path 138288" d="M1522.161,1392.644l-2.792,16.135h-5.616l2.792-16.135Z" transform="translate(-1513.754 -1392.644)" fill="#1b1b43" opacity="0.3"/>
            <path id="Path_138289" data-name="Path 138289" d="M1595.886,1408.779h-5.616l-2.792-16.135h5.616Z" transform="translate(-1563.617 -1392.644)" fill="#1b1b43" opacity="0.3"/>
          </g>
        </g>
        <path id="Path_138290" data-name="Path 138290" d="M1478.971,1390.187h52.549V1382.5h-52.549a3.844,3.844,0,0,0-3.844,3.844h0A3.844,3.844,0,0,0,1478.971,1390.187Z" transform="translate(-1474.279 -1323.988)" fill="#4e95cf"/>
        <path id="Path_138291" data-name="Path 138291" d="M1626.445,1267.918h7.417l25.053-61.413a3.473,3.473,0,0,0-1.735-4.454h0a3.474,3.474,0,0,0-4.7,1.834Z" transform="translate(-1576.62 -1201.718)" fill="#4e95cf"/>
      </g>
    </g>
    <rect id="Rectangle_163378" data-name="Rectangle 163378" width="570" height="0.809" transform="translate(184.766 807.81)" fill="#1b1b43"/>
  </g>
</svg>
