<svg width="501" height="331" viewBox="0 0 501 331" fill="none" xmlns="http://www.w3.org/2000/svg">
<g clip-path="url(#clip0_684_346)">
<path d="M399.668 11.4953C402.014 10.0818 404.538 8.9856 407.173 8.23522L408.718 0.803436L421.278 0.587128L423.086 7.95711C425.749 8.61051 428.312 9.61868 430.707 10.9545L437.052 6.79058L446.041 15.5125L442.107 22.0018C443.522 24.3491 444.619 26.8743 445.368 29.5108L452.795 31.0559L453.02 43.6096L445.646 45.4173C444.991 48.0763 443.983 50.6355 442.648 53.0268L446.806 59.377L438.088 68.4079L431.596 64.4757C429.249 65.8937 426.722 66.9902 424.083 67.7358L422.537 75.1676L409.978 75.3839L408.17 68.0139C405.508 67.3579 402.945 66.3498 400.549 65.0165L394.258 69.1804L385.223 60.4585L389.157 53.9692C387.737 51.6258 386.638 49.1029 385.888 46.4679L378.46 44.9229L378.236 32.3692L385.61 30.5615C386.268 27.9036 387.276 25.3447 388.608 22.952L384.45 16.6018L393.176 7.57084L399.668 11.503V11.4953ZM406.361 28.2207C404.511 30.1366 403.27 32.5578 402.796 35.1784C402.323 37.7989 402.637 40.5011 403.699 42.9431C404.762 45.3852 406.525 47.4575 408.766 48.898C411.006 50.3386 413.624 51.0826 416.288 51.0362C418.952 50.9897 421.542 50.1548 423.731 48.6371C425.92 47.1193 427.61 44.9868 428.586 42.5092C429.563 40.0316 429.783 37.3201 429.218 34.7177C428.653 32.1153 427.329 29.7387 425.413 27.8885C424.139 26.6538 422.634 25.6827 420.984 25.0309C419.335 24.3792 417.572 24.0595 415.798 24.0904C414.025 24.1213 412.275 24.502 410.648 25.2108C409.022 25.9196 407.552 26.9425 406.323 28.2207H406.361Z" fill="#C9E4F9"/>
<path d="M272.067 10.6764C273.223 9.36835 274.549 8.22006 276.008 7.26181L275.568 2.44119L283.181 -0.0309143L285.654 4.12532C287.398 4.03087 289.147 4.16856 290.855 4.53476L293.947 0.818872L301.073 4.44978L299.968 9.16224C301.267 10.3297 302.406 11.665 303.353 13.1331L308.168 12.6927L310.649 20.3022L306.491 22.7743C306.585 24.5204 306.447 26.2713 306.081 27.9812L309.799 31.0713L306.151 38.2018L301.459 37.0121C300.296 38.313 298.962 39.4512 297.494 40.3958L297.935 45.2164L290.322 47.6885L287.826 43.5709C286.079 43.6654 284.327 43.5277 282.617 43.1615L279.525 46.8774L272.391 43.2465L273.582 38.5649C272.282 37.3975 271.143 36.0621 270.196 34.5941L265.374 35.0344L262.87 27.3863L267.028 24.9142C266.933 23.1707 267.071 21.4223 267.437 19.7151L263.712 16.6249L267.352 9.49443L272.036 10.6841L272.067 10.6764ZM279.27 19.6224C278.498 21.1346 278.192 22.8418 278.391 24.5278C278.59 26.2139 279.285 27.8031 280.387 29.0945C281.49 30.3859 282.951 31.3215 284.585 31.7829C286.22 32.2442 287.954 32.2107 289.57 31.6865C291.185 31.1623 292.609 30.171 293.661 28.8379C294.713 27.5048 295.345 25.8899 295.479 24.1975C295.612 22.505 295.24 20.8109 294.411 19.3296C293.581 17.8483 292.33 16.6463 290.817 15.8756C288.788 14.8426 286.433 14.6569 284.267 15.3595C282.102 16.0621 280.305 17.5954 279.27 19.6224Z" fill="#C9E4F9"/>
<path d="M501.008 329.741C501.008 329.849 388.841 329.942 250.519 329.942C112.198 329.942 0 329.849 0 329.741C0 329.633 112.144 329.54 250.519 329.54C388.895 329.54 501.008 329.625 501.008 329.741Z" fill="#263238"/>
<path d="M405.45 19.6224H79.7605C77.0643 19.6244 74.4793 20.6964 72.5735 22.6028C70.6677 24.5092 69.5972 27.0939 69.5972 29.7889V259.734C69.5941 261.07 69.8547 262.394 70.364 263.63C70.8733 264.865 71.6213 265.988 72.5653 266.935C73.5092 267.881 74.6306 268.632 75.8652 269.145C77.0999 269.658 78.4235 269.922 79.7605 269.923H204.757L198.435 331.031L289.48 330.459L284.271 269.923H405.45C408.147 269.923 410.734 268.852 412.642 266.946C414.549 265.039 415.621 262.453 415.621 259.757V29.7966C415.622 28.4609 415.359 27.1381 414.849 25.9037C414.338 24.6694 413.589 23.5477 412.644 22.6028C411.7 21.6579 410.578 20.9084 409.344 20.397C408.109 19.8856 406.786 19.6224 405.45 19.6224Z" fill="#173953"/>
<path d="M246.956 245.712C251.385 252.047 244.452 258.977 238.115 254.55C237.905 254.399 237.722 254.213 237.574 254.002C233.153 247.675 240.078 240.753 246.408 245.171C246.62 245.32 246.805 245.503 246.956 245.712Z" fill="#263238"/>
<path d="M82.6976 23.8404H402.513C404.501 23.8404 406.408 24.6299 407.814 26.0352C409.22 27.4406 410.01 29.3466 410.01 31.334V227.828H75.2007V31.334C75.2007 30.3499 75.3946 29.3755 75.7713 28.4663C76.1481 27.5572 76.7003 26.7311 77.3965 26.0352C78.0926 25.3394 78.9191 24.7874 79.8286 24.4108C80.7382 24.0342 81.7131 23.8404 82.6976 23.8404Z" fill="white"/>
<path d="M82.2725 23.8404H404.213C405.755 23.8404 407.233 24.4525 408.323 25.542C409.413 26.6315 410.025 28.1091 410.025 29.6499V40.7898H75.2007V30.9014C75.2027 29.028 75.9487 27.232 77.2747 25.9081C78.6007 24.5841 80.3983 23.8404 82.2725 23.8404Z" fill="#F5F5F5"/>
<path d="M88.2004 32.6782C88.1928 33.1348 88.0504 33.5791 87.791 33.9551C87.5316 34.3311 87.1669 34.6221 86.7426 34.7916C86.3183 34.9611 85.8534 35.0016 85.4062 34.9078C84.959 34.8141 84.5495 34.5904 84.2291 34.2648C83.9087 33.9392 83.6917 33.5262 83.6053 33.0777C83.5189 32.6292 83.567 32.1652 83.7436 31.744C83.9202 31.3227 84.2173 30.963 84.5977 30.71C84.9781 30.457 85.4249 30.322 85.8818 30.322C86.1895 30.3219 86.4942 30.3831 86.7781 30.502C87.062 30.6209 87.3193 30.7951 87.5351 31.0144C87.7509 31.2337 87.9209 31.4938 88.0351 31.7794C88.1493 32.0651 88.2055 32.3706 88.2004 32.6782Z" fill="#E0E0E0"/>
<path d="M95.2258 32.6782C95.2182 33.1348 95.0757 33.5791 94.8164 33.9551C94.557 34.3311 94.1923 34.6221 93.768 34.7916C93.3437 34.9611 92.8788 35.0016 92.4316 34.9078C91.9844 34.8141 91.5749 34.5904 91.2545 34.2648C90.9341 33.9392 90.7171 33.5262 90.6307 33.0777C90.5443 32.6292 90.5924 32.1652 90.769 31.744C90.9456 31.3227 91.2427 30.963 91.6231 30.71C92.0035 30.457 92.4502 30.322 92.9072 30.322C93.2149 30.3219 93.5196 30.3831 93.8035 30.502C94.0873 30.6209 94.3447 30.7951 94.5605 31.0144C94.7763 31.2337 94.9463 31.4938 95.0605 31.7794C95.1747 32.0651 95.2309 32.3706 95.2258 32.6782Z" fill="#E0E0E0"/>
<path d="M101.896 32.6782C101.888 33.1348 101.746 33.5791 101.486 33.9551C101.227 34.3311 100.862 34.6221 100.438 34.7916C100.014 34.9611 99.5487 35.0016 99.1015 34.9078C98.6543 34.8141 98.2448 34.5904 97.9244 34.2648C97.604 33.9392 97.387 33.5262 97.3006 33.0777C97.2142 32.6292 97.2623 32.1652 97.4389 31.744C97.6155 31.3227 97.9126 30.963 98.293 30.71C98.6735 30.457 99.1202 30.322 99.5771 30.322C99.8849 30.3219 100.19 30.3831 100.473 30.502C100.757 30.6209 101.015 30.7951 101.23 31.0144C101.446 31.2337 101.616 31.4938 101.73 31.7794C101.845 32.0651 101.901 32.3706 101.896 32.6782Z" fill="#E0E0E0"/>
<path d="M317.875 269.923C317.875 270.039 290.569 270.124 256.895 270.124C223.221 270.124 195.916 270.039 195.916 269.923C195.916 269.808 223.213 269.723 256.895 269.723C290.577 269.723 317.875 269.792 317.875 269.923Z" fill="#263238"/>
<path d="M130.229 40.7898H75.2007V227.828H130.229V40.7898Z" fill="white"/>
<path d="M99.384 44.7915C99.6722 44.6209 99.9813 44.4885 100.304 44.3976L100.489 43.486H102.035L102.251 44.3821C102.578 44.4644 102.892 44.5891 103.187 44.7529L103.959 44.243L105.057 45.3091L104.578 46.0817C104.752 46.3686 104.888 46.6779 104.98 47.001L105.884 47.1864V48.7315L104.98 48.9555C104.9 49.2792 104.778 49.5909 104.616 49.8825L105.126 50.6551L104.06 51.7598L103.287 51.2808C103.004 51.4562 102.697 51.5889 102.375 51.6748L102.182 52.5864H100.636L100.42 51.6903C100.092 51.6113 99.7771 51.4865 99.4844 51.3195L98.7116 51.8293L97.6064 50.7632L98.0933 49.9907C97.9172 49.7044 97.7819 49.395 97.6914 49.0714L96.7871 48.886V47.3409L97.6914 47.1169C97.7711 46.7932 97.8932 46.4815 98.0546 46.1898L97.5445 45.4173L98.5956 44.3435L99.3685 44.8224L99.384 44.7915ZM100.203 46.831C99.9716 47.0606 99.8135 47.3538 99.7489 47.6734C99.6843 47.9929 99.7161 48.3245 99.8403 48.6259C99.9645 48.9274 100.176 49.1851 100.447 49.3666C100.718 49.548 101.036 49.6448 101.363 49.6448C101.689 49.6448 102.007 49.548 102.279 49.3666C102.55 49.1851 102.761 48.9274 102.885 48.6259C103.009 48.3245 103.041 47.9929 102.976 47.6734C102.912 47.3538 102.753 47.0606 102.522 46.831C102.213 46.5272 101.796 46.3569 101.363 46.3569C100.929 46.3569 100.513 46.5272 100.203 46.831Z" fill="#E0E0E0"/>
<path d="M112.098 87.7135H88.1386C87.4873 87.7197 86.8601 87.4681 86.3938 87.0136C85.9275 86.5591 85.6601 85.9387 85.6499 85.2878C85.6499 84.6342 85.9097 84.0073 86.372 83.5452C86.8344 83.083 87.4615 82.8234 88.1154 82.8234H112.074C112.728 82.8234 113.355 83.083 113.818 83.5452C114.28 84.0073 114.54 84.6342 114.54 85.2878C114.53 85.9306 114.269 86.5441 113.813 86.9973C113.356 87.4505 112.741 87.7075 112.098 87.7135Z" fill="#E0E0E0"/>
<path d="M112.097 75.1599H88.1383C87.4844 75.1599 86.8573 74.9002 86.395 74.4381C85.9326 73.9759 85.6729 73.3491 85.6729 72.6955C85.6729 72.0419 85.9326 71.4151 86.395 70.9529C86.8573 70.4907 87.4844 70.2311 88.1383 70.2311H112.097C112.751 70.2311 113.378 70.4907 113.841 70.9529C114.303 71.4151 114.563 72.0419 114.563 72.6955C114.563 73.3491 114.303 73.9759 113.841 74.4381C113.378 74.9002 112.751 75.1599 112.097 75.1599Z" fill="#E0E0E0"/>
<path d="M112.097 63.6568H88.1383C87.4844 63.6568 86.8573 63.3972 86.395 62.935C85.9326 62.4728 85.6729 61.846 85.6729 61.1924C85.6729 60.5388 85.9326 59.912 86.395 59.4498C86.8573 58.9877 87.4844 58.728 88.1383 58.728H112.097C112.751 58.728 113.378 58.9877 113.841 59.4498C114.303 59.912 114.563 60.5388 114.563 61.1924C114.563 61.846 114.303 62.4728 113.841 62.935C113.378 63.3972 112.751 63.6568 112.097 63.6568Z" fill="#E0E0E0"/>
<path d="M176.555 62.2585H153.833C153.179 62.2585 152.552 61.9989 152.089 61.5367C151.627 61.0746 151.367 60.4478 151.367 59.7942C151.367 59.1406 151.627 58.5137 152.089 58.0516C152.552 57.5894 153.179 57.3298 153.833 57.3298H176.555C177.209 57.3298 177.836 57.5894 178.299 58.0516C178.761 58.5137 179.021 59.1406 179.021 59.7942C179.021 60.4478 178.761 61.0746 178.299 61.5367C177.836 61.9989 177.209 62.2585 176.555 62.2585Z" fill="#263238"/>
<path d="M176.555 75.1599H153.833C153.179 75.1599 152.552 74.9002 152.089 74.4381C151.627 73.9759 151.367 73.3491 151.367 72.6955C151.367 72.0419 151.627 71.4151 152.089 70.9529C152.552 70.4907 153.179 70.2311 153.833 70.2311H176.555C177.209 70.2311 177.836 70.4907 178.299 70.9529C178.761 71.4151 179.021 72.0419 179.021 72.6955C179.021 73.3491 178.761 73.9759 178.299 74.4381C177.836 74.9002 177.209 75.1599 176.555 75.1599Z" fill="#E0E0E0"/>
<path d="M176.555 88.4861H153.833C153.179 88.4861 152.552 88.2264 152.089 87.7643C151.627 87.3021 151.367 86.6753 151.367 86.0217C151.367 85.3681 151.627 84.7413 152.089 84.2791C152.552 83.817 153.179 83.5573 153.833 83.5573H176.555C177.209 83.5573 177.836 83.817 178.299 84.2791C178.761 84.7413 179.021 85.3681 179.021 86.0217C179.021 86.6753 178.761 87.3021 178.299 87.7643C177.836 88.2264 177.209 88.4861 176.555 88.4861Z" fill="#4E95CF"/>
<path d="M166.863 114.258H153.833C153.179 114.258 152.552 113.998 152.089 113.536C151.627 113.074 151.367 112.447 151.367 111.793C151.367 111.14 151.627 110.513 152.089 110.051C152.552 109.589 153.179 109.329 153.833 109.329H166.863C167.517 109.329 168.144 109.589 168.607 110.051C169.069 110.513 169.329 111.14 169.329 111.793C169.329 112.447 169.069 113.074 168.607 113.536C168.144 113.998 167.517 114.258 166.863 114.258Z" fill="#173953"/>
<path d="M166.863 127.623H153.833C153.179 127.623 152.552 127.363 152.089 126.901C151.627 126.439 151.367 125.812 151.367 125.158C151.367 124.505 151.627 123.878 152.089 123.416C152.552 122.954 153.179 122.694 153.833 122.694H166.863C167.517 122.694 168.144 122.954 168.607 123.416C169.069 123.878 169.329 124.505 169.329 125.158C169.329 125.812 169.069 126.439 168.607 126.901C168.144 127.363 167.517 127.623 166.863 127.623Z" fill="#263238"/>
<path d="M205.584 127.623H181.718C181.064 127.623 180.437 127.363 179.975 126.901C179.512 126.439 179.252 125.812 179.252 125.158C179.252 124.505 179.512 123.878 179.975 123.416C180.437 122.954 181.064 122.694 181.718 122.694H205.607C206.261 122.694 206.888 122.954 207.351 123.416C207.813 123.878 208.073 124.505 208.073 125.158C208.073 125.484 208.008 125.806 207.883 126.107C207.758 126.407 207.574 126.68 207.343 126.909C207.111 127.138 206.837 127.319 206.535 127.442C206.233 127.564 205.91 127.626 205.584 127.623Z" fill="#E0E0E0"/>
<path d="M192.075 139.497H168.177C167.524 139.497 166.896 139.237 166.434 138.775C165.972 138.313 165.712 137.686 165.712 137.032C165.712 136.379 165.972 135.752 166.434 135.29C166.896 134.827 167.524 134.568 168.177 134.568H192.075C192.729 134.568 193.356 134.827 193.818 135.29C194.28 135.752 194.54 136.379 194.54 137.032C194.54 137.686 194.28 138.313 193.818 138.775C193.356 139.237 192.729 139.497 192.075 139.497Z" fill="#4E95CF"/>
<path d="M196.642 148.118H181.672C180.344 148.118 179.268 149.194 179.268 150.521V150.644C179.268 151.971 180.344 153.047 181.672 153.047H196.642C197.97 153.047 199.046 151.971 199.046 150.644V150.521C199.046 149.194 197.97 148.118 196.642 148.118Z" fill="#3A6F9C"/>
<path d="M196.58 179.607H181.718C181.064 179.607 180.437 179.347 179.975 178.885C179.512 178.423 179.252 177.796 179.252 177.142C179.252 176.489 179.512 175.862 179.975 175.4C180.437 174.937 181.064 174.678 181.718 174.678H196.565C197.219 174.678 197.846 174.937 198.308 175.4C198.771 175.862 199.03 176.489 199.03 177.142C199.03 177.793 198.773 178.418 198.314 178.879C197.855 179.341 197.231 179.602 196.58 179.607Z" fill="#FF725E"/>
<path d="M196.58 207.657H181.718C181.064 207.657 180.437 207.398 179.975 206.935C179.512 206.473 179.252 205.846 179.252 205.193C179.25 204.868 179.313 204.546 179.436 204.245C179.559 203.944 179.74 203.671 179.969 203.44C180.198 203.21 180.471 203.027 180.771 202.902C181.071 202.777 181.393 202.713 181.718 202.713H196.565C197.219 202.713 197.846 202.973 198.308 203.435C198.771 203.897 199.03 204.524 199.03 205.177C199.032 205.501 198.971 205.822 198.849 206.122C198.727 206.421 198.547 206.694 198.319 206.925C198.092 207.155 197.821 207.338 197.523 207.464C197.224 207.589 196.904 207.655 196.58 207.657Z" fill="#FF725E"/>
<path d="M233.076 207.657H207.053C206.399 207.657 205.772 207.398 205.31 206.935C204.847 206.473 204.587 205.846 204.587 205.193C204.587 204.539 204.847 203.912 205.31 203.45C205.772 202.988 206.399 202.728 207.053 202.728H233.076C233.729 202.728 234.357 202.988 234.819 203.45C235.281 203.912 235.541 204.539 235.541 205.193C235.541 205.846 235.281 206.473 234.819 206.935C234.357 207.398 233.729 207.657 233.076 207.657Z" fill="#455A64"/>
<path d="M251.276 207.657H247.528C246.874 207.657 246.247 207.398 245.785 206.935C245.322 206.473 245.062 205.846 245.062 205.193C245.062 204.539 245.322 203.912 245.785 203.45C246.247 202.988 246.874 202.728 247.528 202.728H251.276C251.93 202.728 252.557 202.988 253.02 203.45C253.482 203.912 253.742 204.539 253.742 205.193C253.742 205.846 253.482 206.473 253.02 206.935C252.557 207.398 251.93 207.657 251.276 207.657Z" fill="#E0E0E0"/>
<path d="M231.514 179.607H209.542C208.888 179.607 208.261 179.347 207.798 178.885C207.336 178.423 207.076 177.796 207.076 177.142C207.076 176.489 207.336 175.862 207.798 175.4C208.261 174.937 208.888 174.678 209.542 174.678H231.53C232.184 174.678 232.811 174.937 233.273 175.4C233.736 175.862 233.995 176.489 233.995 177.142C233.995 177.467 233.931 177.789 233.806 178.089C233.681 178.389 233.498 178.661 233.268 178.89C233.037 179.119 232.764 179.3 232.463 179.423C232.162 179.546 231.84 179.609 231.514 179.607Z" fill="#E0E0E0"/>
<path d="M279.749 191.898H209.542C208.888 191.898 208.261 191.638 207.798 191.176C207.336 190.714 207.076 190.087 207.076 189.433C207.076 188.78 207.336 188.153 207.798 187.691C208.261 187.228 208.888 186.969 209.542 186.969H279.765C280.419 186.969 281.046 187.228 281.508 187.691C281.971 188.153 282.23 188.78 282.23 189.433C282.23 189.758 282.166 190.08 282.041 190.38C281.916 190.68 281.733 190.952 281.503 191.181C281.272 191.41 280.999 191.591 280.698 191.714C280.397 191.837 280.075 191.9 279.749 191.898Z" fill="#E0E0E0"/>
<path d="M287.857 179.607H243.03C242.376 179.607 241.749 179.347 241.287 178.885C240.824 178.423 240.564 177.796 240.564 177.142C240.564 176.489 240.824 175.862 241.287 175.4C241.749 174.937 242.376 174.678 243.03 174.678H287.857C288.51 174.678 289.138 174.937 289.6 175.4C290.062 175.862 290.322 176.489 290.322 177.142C290.322 177.796 290.062 178.423 289.6 178.885C289.138 179.347 288.51 179.607 287.857 179.607Z" fill="#455A64"/>
<path d="M226.599 148.118H207.903C206.576 148.118 205.5 149.194 205.5 150.521V150.644C205.5 151.971 206.576 153.047 207.903 153.047H226.599C227.926 153.047 229.003 151.971 229.003 150.644V150.521C229.003 149.194 227.926 148.118 226.599 148.118Z" fill="#455A64"/>
<path d="M242.682 148.118H237.945C236.617 148.118 235.541 149.194 235.541 150.521V150.644C235.541 151.971 236.617 153.047 237.945 153.047H242.682C244.01 153.047 245.086 151.971 245.086 150.644V150.521C245.086 149.194 244.01 148.118 242.682 148.118Z" fill="#E0E0E0"/>
<path d="M278.095 148.118H254.747C253.419 148.118 252.343 149.194 252.343 150.521V150.644C252.343 151.971 253.419 153.047 254.747 153.047H278.095C279.423 153.047 280.499 151.971 280.499 150.644V150.521C280.499 149.194 279.423 148.118 278.095 148.118Z" fill="#E0E0E0"/>
<path d="M208.258 139.497H202.933C202.279 139.497 201.652 139.237 201.19 138.775C200.728 138.313 200.468 137.686 200.468 137.032C200.468 136.379 200.728 135.752 201.19 135.29C201.652 134.827 202.279 134.568 202.933 134.568H208.258C208.582 134.568 208.902 134.632 209.201 134.755C209.499 134.879 209.771 135.061 209.999 135.29C210.227 135.519 210.408 135.791 210.531 136.09C210.654 136.389 210.717 136.709 210.716 137.032C210.717 137.355 210.654 137.676 210.531 137.975C210.408 138.274 210.227 138.545 209.999 138.774C209.771 139.003 209.499 139.185 209.201 139.309C208.902 139.433 208.582 139.497 208.258 139.497Z" fill="#263238"/>
<path d="M253.356 139.497H219.458C218.804 139.497 218.177 139.237 217.714 138.775C217.252 138.313 216.992 137.686 216.992 137.032C216.992 136.379 217.252 135.752 217.714 135.29C218.177 134.827 218.804 134.568 219.458 134.568H253.356C254.01 134.568 254.637 134.827 255.099 135.29C255.562 135.752 255.821 136.379 255.821 137.032C255.821 137.686 255.562 138.313 255.099 138.775C254.637 139.237 254.01 139.497 253.356 139.497Z" fill="#E0E0E0"/>
<path d="M212.957 62.2585H190.219C189.565 62.2585 188.938 61.9989 188.476 61.5367C188.014 61.0746 187.754 60.4478 187.754 59.7942C187.754 59.1406 188.014 58.5137 188.476 58.0516C188.938 57.5894 189.565 57.3298 190.219 57.3298H212.942C213.596 57.3298 214.223 57.5894 214.685 58.0516C215.148 58.5137 215.407 59.1406 215.407 59.7942C215.407 60.4451 215.15 61.0696 214.691 61.5313C214.232 61.993 213.609 62.2545 212.957 62.2585Z" fill="#455A64"/>
<path d="M242.234 75.1599H190.219C189.565 75.1599 188.938 74.9002 188.476 74.4381C188.014 73.9759 187.754 73.3491 187.754 72.6955C187.754 72.0419 188.014 71.4151 188.476 70.9529C188.938 70.4907 189.565 70.2311 190.219 70.2311H242.234C242.888 70.2311 243.515 70.4907 243.977 70.9529C244.439 71.4151 244.699 72.0419 244.699 72.6955C244.699 73.3491 244.439 73.9759 243.977 74.4381C243.515 74.9002 242.888 75.1599 242.234 75.1599Z" fill="#173953"/>
<path d="M298.221 88.4861H190.219C189.565 88.4861 188.938 88.2264 188.476 87.7643C188.014 87.3021 187.754 86.6753 187.754 86.0217C187.754 85.3681 188.014 84.7413 188.476 84.2791C188.938 83.817 189.565 83.5573 190.219 83.5573H298.221C298.875 83.5573 299.502 83.817 299.964 84.2791C300.426 84.7413 300.686 85.3681 300.686 86.0217C300.686 86.6753 300.426 87.3021 299.964 87.7643C299.502 88.2264 298.875 88.4861 298.221 88.4861Z" fill="#E0E0E0"/>
<path d="M241.152 97.8801H190.219C189.565 97.8801 188.938 97.6204 188.476 97.1583C188.014 96.6961 187.754 96.0693 187.754 95.4157C187.754 94.7621 188.014 94.1353 188.476 93.6731C188.938 93.2109 189.565 92.9513 190.219 92.9513H241.152C241.806 92.9513 242.433 93.2109 242.895 93.6731C243.357 94.1353 243.617 94.7621 243.617 95.4157C243.617 96.0693 243.357 96.6961 242.895 97.1583C242.433 97.6204 241.806 97.8801 241.152 97.8801Z" fill="#E0E0E0"/>
<path d="M230.733 114.258H179.817C179.163 114.258 178.536 113.998 178.073 113.536C177.611 113.074 177.351 112.447 177.351 111.793C177.351 111.14 177.611 110.513 178.073 110.051C178.536 109.589 179.163 109.329 179.817 109.329H230.733C231.387 109.329 232.014 109.589 232.477 110.051C232.939 110.513 233.199 111.14 233.199 111.793C233.199 112.447 232.939 113.074 232.477 113.536C232.014 113.998 231.387 114.258 230.733 114.258Z" fill="#455A64"/>
<path d="M259.237 114.258H242.172C241.518 114.258 240.891 113.998 240.429 113.536C239.966 113.074 239.707 112.447 239.707 111.793C239.707 111.14 239.966 110.513 240.429 110.051C240.891 109.589 241.518 109.329 242.172 109.329H259.237C259.891 109.329 260.518 109.589 260.98 110.051C261.443 110.513 261.703 111.14 261.703 111.793C261.703 112.447 261.443 113.074 260.98 113.536C260.518 113.998 259.891 114.258 259.237 114.258Z" fill="#4E95CF"/>
<path d="M302.874 114.181H270.637C269.983 114.181 269.356 113.921 268.894 113.459C268.432 112.997 268.172 112.37 268.172 111.716C268.172 111.063 268.432 110.436 268.894 109.974C269.356 109.511 269.983 109.252 270.637 109.252H302.874C303.528 109.252 304.155 109.511 304.617 109.974C305.08 110.436 305.339 111.063 305.339 111.716C305.339 112.37 305.08 112.997 304.617 113.459C304.155 113.921 303.528 114.181 302.874 114.181Z" fill="#173953"/>
<path d="M346.742 114.181H314.506C313.852 114.181 313.225 113.921 312.762 113.459C312.3 112.997 312.04 112.37 312.04 111.716C312.04 111.063 312.3 110.436 312.762 109.974C313.225 109.511 313.852 109.252 314.506 109.252H346.742C347.396 109.252 348.023 109.511 348.485 109.974C348.948 110.436 349.208 111.063 349.208 111.716C349.208 112.37 348.948 112.997 348.485 113.459C348.023 113.921 347.396 114.181 346.742 114.181Z" fill="#E0E0E0"/>
<path d="M101.71 101.001H88.1154C87.4615 101.001 86.8344 100.742 86.372 100.279C85.9097 99.8172 85.6499 99.1904 85.6499 98.5368C85.6499 97.8832 85.9097 97.2563 86.372 96.7942C86.8344 96.332 87.4615 96.0724 88.1154 96.0724H101.71C102.364 96.0724 102.991 96.332 103.454 96.7942C103.916 97.2563 104.176 97.8832 104.176 98.5368C104.176 99.1904 103.916 99.8172 103.454 100.279C102.991 100.742 102.364 101.001 101.71 101.001Z" fill="#E0E0E0"/>
<path d="M97.6372 140.91H88.1154C87.4615 140.91 86.8344 140.651 86.372 140.188C85.9097 139.726 85.6499 139.099 85.6499 138.446C85.6489 138.122 85.712 137.801 85.8355 137.502C85.9591 137.202 86.1406 136.93 86.3698 136.701C86.5989 136.472 86.8711 136.29 87.1707 136.167C87.4703 136.043 87.7913 135.98 88.1154 135.981H97.6372C97.9613 135.98 98.2823 136.043 98.5819 136.167C98.8815 136.29 99.1537 136.472 99.3828 136.701C99.612 136.93 99.7935 137.202 99.9171 137.502C100.041 137.801 100.104 138.122 100.103 138.446C100.103 139.099 99.8429 139.726 99.3805 140.188C98.9182 140.651 98.2911 140.91 97.6372 140.91Z" fill="#E0E0E0"/>
<path d="M114.563 114.289H88.1154C87.4615 114.289 86.8344 114.029 86.372 113.567C85.9097 113.105 85.6499 112.478 85.6499 111.824C85.6499 111.171 85.9097 110.544 86.372 110.082C86.8344 109.62 87.4615 109.36 88.1154 109.36H114.563C115.217 109.36 115.844 109.62 116.306 110.082C116.769 110.544 117.029 111.171 117.029 111.824C117.029 112.478 116.769 113.105 116.306 113.567C115.844 114.029 115.217 114.289 114.563 114.289Z" fill="#E0E0E0"/>
<path d="M109.926 127.576H88.1154C87.7913 127.577 87.4703 127.514 87.1707 127.391C86.8711 127.267 86.5989 127.086 86.3698 126.857C86.1406 126.628 85.9591 126.356 85.8355 126.056C85.712 125.757 85.6489 125.436 85.6499 125.112C85.6499 124.458 85.9097 123.831 86.372 123.369C86.8344 122.907 87.4615 122.648 88.1154 122.648H109.926C110.58 122.648 111.207 122.907 111.669 123.369C112.132 123.831 112.391 124.458 112.391 125.112C112.391 125.766 112.132 126.392 111.669 126.854C111.207 127.317 110.58 127.576 109.926 127.576Z" fill="#E0E0E0"/>
<path d="M142.696 59.7941C142.696 60.2892 142.549 60.7731 142.274 61.1847C141.999 61.5964 141.607 61.9172 141.15 62.1066C140.692 62.2961 140.189 62.3456 139.703 62.2491C139.217 62.1525 138.771 61.9141 138.421 61.564C138.071 61.214 137.832 60.768 137.736 60.2825C137.639 59.7969 137.689 59.2937 137.878 58.8363C138.068 58.3789 138.389 57.988 138.8 57.713C139.212 57.4379 139.696 57.2911 140.192 57.2911C140.856 57.2911 141.493 57.5548 141.962 58.0243C142.432 58.4937 142.696 59.1303 142.696 59.7941Z" fill="#455A64"/>
<path d="M142.696 72.6569C142.696 73.1519 142.549 73.6359 142.274 74.0475C141.999 74.4591 141.607 74.7799 141.15 74.9694C140.692 75.1588 140.189 75.2084 139.703 75.1118C139.217 75.0152 138.771 74.7768 138.421 74.4268C138.071 74.0767 137.832 73.6307 137.736 73.1452C137.639 72.6597 137.689 72.1564 137.878 71.699C138.068 71.2417 138.389 70.8507 138.8 70.5757C139.212 70.3007 139.696 70.1539 140.192 70.1539C140.856 70.1539 141.493 70.4176 141.962 70.887C142.432 71.3564 142.696 71.993 142.696 72.6569Z" fill="#455A64"/>
<path d="M142.696 86.0603C142.696 86.5554 142.549 87.0393 142.274 87.4509C141.999 87.8625 141.607 88.1834 141.15 88.3728C140.692 88.5622 140.189 88.6118 139.703 88.5152C139.217 88.4187 138.771 88.1803 138.421 87.8302C138.071 87.4802 137.832 87.0342 137.736 86.5486C137.639 86.0631 137.689 85.5598 137.878 85.1025C138.068 84.6451 138.389 84.2542 138.8 83.9792C139.212 83.7041 139.696 83.5573 140.192 83.5573C140.856 83.5573 141.493 83.821 141.962 84.2904C142.432 84.7598 142.696 85.3965 142.696 86.0603Z" fill="#455A64"/>
<path d="M142.696 99.3942C142.696 99.8893 142.549 100.373 142.274 100.785C141.999 101.196 141.607 101.517 141.15 101.707C140.692 101.896 140.189 101.946 139.703 101.849C139.217 101.753 138.771 101.514 138.421 101.164C138.071 100.814 137.832 100.368 137.736 99.8826C137.639 99.397 137.689 98.8938 137.878 98.4364C138.068 97.979 138.389 97.5881 138.8 97.3131C139.212 97.038 139.696 96.8912 140.192 96.8912C140.856 96.8912 141.493 97.1549 141.962 97.6244C142.432 98.0938 142.696 98.7304 142.696 99.3942Z" fill="#455A64"/>
<path d="M142.696 112.759C142.696 113.254 142.549 113.738 142.274 114.15C141.999 114.561 141.607 114.882 141.15 115.072C140.692 115.261 140.189 115.311 139.703 115.214C139.217 115.117 138.771 114.879 138.421 114.529C138.071 114.179 137.832 113.733 137.736 113.247C137.639 112.762 137.689 112.259 137.878 111.801C138.068 111.344 138.389 110.953 138.8 110.678C139.212 110.403 139.696 110.256 140.192 110.256C140.856 110.256 141.493 110.52 141.962 110.989C142.432 111.459 142.696 112.095 142.696 112.759Z" fill="#455A64"/>
<path d="M142.696 126.132C142.696 126.627 142.549 127.111 142.274 127.522C141.999 127.934 141.607 128.255 141.15 128.444C140.692 128.634 140.189 128.683 139.703 128.587C139.217 128.49 138.771 128.252 138.421 127.902C138.071 127.552 137.832 127.106 137.736 126.62C137.639 126.134 137.689 125.631 137.878 125.174C138.068 124.716 138.389 124.326 138.8 124.05C139.212 123.775 139.696 123.629 140.192 123.629C140.856 123.629 141.493 123.892 141.962 124.362C142.432 124.831 142.696 125.468 142.696 126.132Z" fill="#455A64"/>
<path d="M142.696 139.496C142.696 139.992 142.549 140.475 142.274 140.887C141.999 141.299 141.607 141.62 141.15 141.809C140.692 141.998 140.189 142.048 139.703 141.951C139.217 141.855 138.771 141.616 138.421 141.266C138.071 140.916 137.832 140.47 137.736 139.985C137.639 139.499 137.689 138.996 137.878 138.539C138.068 138.081 138.389 137.69 138.8 137.415C139.212 137.14 139.696 136.993 140.192 136.993C140.52 136.993 140.846 137.058 141.15 137.184C141.454 137.31 141.73 137.494 141.962 137.727C142.195 137.959 142.379 138.235 142.505 138.539C142.631 138.842 142.696 139.168 142.696 139.496Z" fill="#455A64"/>
<path d="M142.696 152.869C142.696 153.364 142.549 153.848 142.274 154.26C141.999 154.671 141.607 154.992 141.15 155.182C140.692 155.371 140.189 155.421 139.703 155.324C139.217 155.227 138.771 154.989 138.421 154.639C138.071 154.289 137.832 153.843 137.736 153.357C137.639 152.872 137.689 152.369 137.878 151.911C138.068 151.454 138.389 151.063 138.8 150.788C139.212 150.513 139.696 150.366 140.192 150.366C140.856 150.366 141.493 150.63 141.962 151.099C142.432 151.569 142.696 152.205 142.696 152.869Z" fill="#455A64"/>
<path d="M142.696 166.234C142.696 166.729 142.549 167.213 142.274 167.625C141.999 168.036 141.607 168.357 141.15 168.546C140.692 168.736 140.189 168.785 139.703 168.689C139.217 168.592 138.771 168.354 138.421 168.004C138.071 167.654 137.832 167.208 137.736 166.722C137.639 166.237 137.689 165.733 137.878 165.276C138.068 164.819 138.389 164.428 138.8 164.153C139.212 163.878 139.696 163.731 140.192 163.731C140.52 163.731 140.846 163.796 141.15 163.921C141.454 164.047 141.73 164.232 141.962 164.464C142.195 164.696 142.379 164.972 142.505 165.276C142.631 165.58 142.696 165.905 142.696 166.234Z" fill="#455A64"/>
<path d="M142.696 179.607C142.696 180.102 142.549 180.585 142.274 180.997C141.999 181.409 141.607 181.73 141.15 181.919C140.692 182.108 140.189 182.158 139.703 182.061C139.217 181.965 138.771 181.726 138.421 181.376C138.071 181.026 137.832 180.58 137.736 180.095C137.639 179.609 137.689 179.106 137.878 178.649C138.068 178.191 138.389 177.8 138.8 177.525C139.212 177.25 139.696 177.104 140.192 177.104C140.856 177.104 141.493 177.367 141.962 177.837C142.432 178.306 142.696 178.943 142.696 179.607Z" fill="#455A64"/>
<path d="M142.696 192.979C142.694 193.474 142.546 193.957 142.27 194.368C141.994 194.778 141.602 195.098 141.145 195.286C140.687 195.474 140.184 195.523 139.698 195.425C139.213 195.328 138.768 195.089 138.418 194.739C138.069 194.388 137.831 193.942 137.735 193.457C137.639 192.971 137.689 192.469 137.879 192.012C138.069 191.555 138.39 191.164 138.801 190.89C139.213 190.615 139.697 190.468 140.192 190.468C140.856 190.47 141.493 190.736 141.963 191.206C142.432 191.677 142.696 192.315 142.696 192.979Z" fill="#455A64"/>
<path d="M142.696 206.344C142.696 206.839 142.549 207.323 142.274 207.735C141.999 208.146 141.607 208.467 141.15 208.656C140.692 208.846 140.189 208.895 139.703 208.799C139.217 208.702 138.771 208.464 138.421 208.114C138.071 207.764 137.832 207.318 137.736 206.832C137.639 206.347 137.689 205.843 137.878 205.386C138.068 204.929 138.389 204.538 138.8 204.263C139.212 203.988 139.696 203.841 140.192 203.841C140.856 203.841 141.493 204.105 141.962 204.574C142.432 205.043 142.696 205.68 142.696 206.344Z" fill="#455A64"/>
<path d="M82.4886 68.1143H25.3578C21.1448 68.1143 17.7295 71.5281 17.7295 75.7392V132.845C17.7295 137.056 21.1448 140.47 25.3578 140.47H82.4886C86.7016 140.47 90.1169 137.056 90.1169 132.845V75.7392C90.1169 71.5281 86.7016 68.1143 82.4886 68.1143Z" fill="#4E95CF"/>
<path d="M111.765 111.353L115.63 142.594C116.178 147.94 117.028 155.859 125.445 154.6C132.671 152.954 133.808 145.808 133.29 140.817C133.042 138.446 132.841 136.476 132.834 136.229C132.834 136.229 140.763 134.645 140.562 126.665C140.447 122.802 139.558 114.876 138.669 107.714C138.208 104.004 136.367 100.603 133.511 98.188C130.656 95.773 126.995 94.5213 123.258 94.6818H122.485C114.169 95.5547 110.699 103.095 111.765 111.353Z" fill="#FFCEB3"/>
<path d="M132.857 136.229C129.169 136.374 125.516 135.459 122.331 133.594C122.331 133.594 125.113 139.319 133.05 138.23L132.857 136.229Z" fill="#FF9C65"/>
<path d="M126.025 112.944C125.855 113.014 124.997 112.504 123.706 112.319C122.415 112.133 121.349 112.365 121.225 112.257C121.101 112.149 121.349 112.072 121.805 111.956C122.466 111.819 123.146 111.8 123.814 111.902C124.463 111.985 125.09 112.192 125.661 112.512C126.001 112.736 126.071 112.921 126.025 112.944Z" fill="#263238"/>
<path d="M125.785 115.841C125.8 116.123 125.704 116.4 125.518 116.612C125.331 116.824 125.07 116.955 124.788 116.977C124.651 116.992 124.513 116.98 124.381 116.941C124.25 116.903 124.127 116.839 124.02 116.753C123.913 116.667 123.824 116.56 123.758 116.44C123.692 116.319 123.651 116.187 123.636 116.05C123.623 115.769 123.72 115.493 123.906 115.281C124.092 115.07 124.353 114.938 124.633 114.914C124.77 114.898 124.909 114.91 125.041 114.948C125.173 114.986 125.297 115.05 125.404 115.136C125.511 115.223 125.6 115.329 125.665 115.451C125.731 115.572 125.772 115.705 125.785 115.841Z" fill="#263238"/>
<path d="M130.09 121.326C130.729 121.098 131.393 120.947 132.069 120.878C132.378 120.832 132.672 120.763 132.718 120.546C132.728 120.222 132.642 119.902 132.471 119.627C132.138 118.854 131.798 118.082 131.443 117.309C130.005 113.972 128.954 111.222 129.124 111.129C129.294 111.036 130.531 113.74 131.96 117.078L132.95 119.441C133.162 119.811 133.239 120.242 133.166 120.662C133.126 120.775 133.061 120.877 132.975 120.96C132.889 121.043 132.785 121.105 132.671 121.141C132.498 121.194 132.319 121.225 132.138 121.234C131.462 121.354 130.774 121.385 130.09 121.326Z" fill="#263238"/>
<path d="M124.525 107.583C124.433 107.892 123.351 107.792 122.083 108C120.816 108.209 119.811 108.618 119.633 108.348C119.548 108.224 119.718 107.931 120.12 107.622C120.642 107.215 121.259 106.949 121.913 106.849C122.56 106.741 123.224 106.794 123.845 107.004C124.355 107.205 124.595 107.436 124.525 107.583Z" fill="#263238"/>
<path d="M137.433 108.58C137.317 108.835 136.25 108.688 134.998 108.796C133.746 108.904 132.679 109.182 132.556 108.943C132.486 108.835 132.664 108.595 133.081 108.356C133.641 108.049 134.261 107.87 134.898 107.83C135.538 107.778 136.183 107.86 136.791 108.07C137.247 108.247 137.479 108.464 137.433 108.58Z" fill="#263238"/>
<path d="M112.685 117.34C112.538 117.294 106.819 116.035 107.391 121.744C107.963 127.453 113.574 125.691 113.574 125.529C113.574 125.367 112.685 117.34 112.685 117.34Z" fill="#FFCEB3"/>
<path d="M111.61 123.544C111.61 123.544 111.518 123.621 111.363 123.721C111.127 123.851 110.849 123.881 110.59 123.806C110.197 123.61 109.863 123.312 109.623 122.944C109.383 122.577 109.244 122.152 109.222 121.713C109.16 121.227 109.208 120.733 109.361 120.268C109.396 120.083 109.475 119.91 109.592 119.763C109.709 119.616 109.861 119.5 110.034 119.426C110.145 119.384 110.267 119.383 110.379 119.423C110.49 119.462 110.585 119.54 110.644 119.642C110.737 119.789 110.714 119.913 110.745 119.913C110.776 119.913 110.861 119.805 110.791 119.581C110.744 119.441 110.652 119.321 110.528 119.241C110.358 119.141 110.156 119.111 109.964 119.156C109.733 119.224 109.524 119.351 109.358 119.524C109.191 119.697 109.072 119.911 109.014 120.144C108.821 120.662 108.757 121.219 108.828 121.767C108.983 122.91 109.678 123.93 110.528 124.084C110.686 124.111 110.848 124.104 111.003 124.063C111.158 124.021 111.302 123.947 111.425 123.845C111.618 123.683 111.634 123.551 111.61 123.544Z" fill="#FF9C65"/>
<path d="M130.709 125.073C130.709 124.919 129.596 125.035 128.521 124.393C128.061 124.109 127.643 123.764 127.277 123.366C126.976 123.065 126.767 122.879 126.72 122.918C126.674 122.957 126.79 123.196 127.037 123.559C127.364 124.05 127.794 124.464 128.297 124.772C128.813 125.073 129.401 125.228 129.997 125.22C130.469 125.22 130.709 125.12 130.709 125.073Z" fill="#263238"/>
<path d="M137.564 111.307C137.456 111.446 136.466 111.469 135.245 112.002C134.024 112.535 133.244 113.246 133.081 113.223C132.919 113.199 133.081 113.006 133.429 112.682C133.931 112.23 134.506 111.867 135.129 111.608C135.725 111.344 136.364 111.189 137.015 111.152C137.448 111.144 137.664 111.237 137.564 111.307Z" fill="#263238"/>
<path d="M136.729 114.884C136.742 115.165 136.646 115.44 136.46 115.652C136.274 115.864 136.013 115.995 135.732 116.019C135.595 116.035 135.457 116.024 135.325 115.986C135.192 115.948 135.069 115.884 134.962 115.797C134.855 115.711 134.766 115.604 134.7 115.483C134.635 115.362 134.594 115.229 134.581 115.092C134.566 114.812 134.661 114.538 134.846 114.327C135.03 114.116 135.29 113.986 135.57 113.964C135.707 113.947 135.845 113.957 135.978 113.994C136.111 114.031 136.235 114.095 136.343 114.18C136.451 114.266 136.541 114.372 136.607 114.493C136.673 114.614 136.715 114.747 136.729 114.884Z" fill="#263238"/>
<path d="M148.531 99.371C148.397 99.0652 148.151 98.8221 147.843 98.6912C147.175 98.4793 146.464 98.4474 145.78 98.5985C144.053 98.7605 142.313 98.5335 140.686 97.9341C141.193 97.6115 141.644 97.2099 142.023 96.7444C142.43 96.2724 142.699 95.6983 142.803 95.0842C142.906 94.4701 142.84 93.8394 142.611 93.2603C142.571 93.1499 142.506 93.0501 142.422 92.9685C142.337 92.8868 142.235 92.8255 142.124 92.7891C141.761 92.7195 141.498 93.1058 141.281 93.4071C141.018 93.8648 140.637 94.2438 140.177 94.5046C139.718 94.7654 139.197 94.8986 138.669 94.8903C137.942 94.9256 137.216 94.7989 136.544 94.5195L136.466 94.45L135.539 93.6775C133.274 91.9006 131.358 90.7032 129.48 90.1856C126.207 89.4061 122.784 89.5344 119.579 90.5564C116.913 91.5916 114.702 94.1101 114.64 96.9762C112.948 95.8483 110.629 96.1341 108.836 97.1075H108.79C106.78 98.0964 105.853 100.445 105.482 102.647C105.482 102.77 105.443 102.894 105.428 103.01C104.854 104.224 103.998 105.283 102.931 106.1C102.738 106.239 102.522 106.409 102.529 106.641C102.537 106.872 102.746 107.042 102.947 107.158C103.495 107.457 104.102 107.631 104.724 107.668C104.593 108.196 104.42 108.713 104.207 109.213C104.013 109.638 103.789 110.148 104.044 110.542C104.156 110.684 104.308 110.788 104.481 110.841C104.654 110.893 104.839 110.891 105.01 110.835C105.356 110.719 105.672 110.529 105.938 110.279L105.428 112.041C106.205 112.081 106.981 111.938 107.692 111.623C108.3 113.569 109.015 115.48 109.833 117.348C110.714 117.247 111.518 116.946 112.113 117.348C112.925 117.92 113.396 119.117 114.555 118.507C115.151 118.198 115.568 116.83 115.699 116.189C116.588 111.821 116.527 107.314 115.522 102.971C116.291 101.951 117.248 101.089 118.343 100.429L118.257 100.522C120.383 99.5024 122.794 98.4595 125.012 99.2552C126.736 99.8655 127.887 101.441 129.255 102.647C130.461 103.76 131.886 104.611 133.439 105.143C134.992 105.675 136.639 105.877 138.275 105.737C138.862 108.054 138.955 111.144 139.326 113.354L140.972 109.53C141.096 109.252 141.196 108.974 141.289 108.696V108.611C141.425 108.154 141.585 107.706 141.768 107.266C142.052 107.458 142.396 107.539 142.736 107.494C143.075 107.449 143.386 107.281 143.61 107.022C143.834 106.763 143.955 106.431 143.95 106.089C143.945 105.746 143.815 105.418 143.585 105.165C143.358 104.93 143.097 104.729 142.812 104.57C143.115 104.801 143.473 104.951 143.85 105.003C144.228 105.056 144.613 105.011 144.968 104.871C145.319 104.718 145.61 104.453 145.796 104.118C145.981 103.783 146.052 103.396 145.996 103.017C145.934 102.766 145.808 102.535 145.631 102.347C145.454 102.159 145.231 102.02 144.983 101.944C145.975 101.908 146.933 101.577 147.735 100.993C148.032 100.854 148.273 100.617 148.418 100.322C148.563 100.027 148.603 99.6916 148.531 99.371Z" fill="#263238"/>
<path d="M117.237 97.6483C116.979 97.902 116.741 98.1758 116.526 98.4672C115.992 99.296 115.681 100.249 115.622 101.233C115.553 101.908 115.553 102.589 115.622 103.265C115.699 103.999 115.846 104.771 116.001 105.582C116.173 106.437 116.294 107.301 116.364 108.17C116.399 108.633 116.399 109.098 116.364 109.561C116.352 110.051 116.213 110.53 115.962 110.951C115.841 111.121 115.679 111.257 115.491 111.346C115.303 111.435 115.096 111.475 114.888 111.461C114.49 111.428 114.114 111.268 113.814 111.005C113.319 110.463 112.978 109.799 112.824 109.082H112.987C112.817 109.706 112.556 110.302 112.214 110.851C111.882 111.364 111.364 111.73 110.768 111.871C110.491 111.932 110.202 111.916 109.934 111.824C109.683 111.728 109.468 111.558 109.315 111.338C109.175 111.137 109.09 110.902 109.068 110.658C109.052 110.429 109.118 110.201 109.254 110.017L109.346 110.078C108.938 110.671 108.412 111.174 107.801 111.554C107.584 111.678 107.414 111.763 107.298 111.817C107.241 111.85 107.178 111.874 107.113 111.886C107.165 111.846 107.222 111.812 107.283 111.786C107.45 111.699 107.613 111.604 107.77 111.5C108.359 111.108 108.866 110.604 109.261 110.017L109.354 110.078C109.242 110.259 109.19 110.47 109.203 110.682C109.217 110.894 109.297 111.096 109.431 111.26C109.572 111.455 109.769 111.604 109.996 111.685C110.244 111.773 110.513 111.786 110.768 111.724C111.321 111.584 111.799 111.239 112.106 110.758C112.446 110.222 112.707 109.639 112.878 109.028L112.956 108.765L113.041 109.035C113.193 109.718 113.52 110.349 113.991 110.866C114.257 111.104 114.594 111.248 114.95 111.276C115.126 111.29 115.303 111.257 115.464 111.181C115.624 111.105 115.761 110.989 115.862 110.843C116.095 110.45 116.223 110.003 116.233 109.545C116.267 109.093 116.267 108.638 116.233 108.186C116.171 107.322 116.055 106.462 115.885 105.613C115.738 104.802 115.599 104.022 115.522 103.296C115.448 102.61 115.448 101.918 115.522 101.233C115.59 100.229 115.929 99.2628 116.503 98.4363C116.701 98.1338 116.95 97.8673 117.237 97.6483Z" fill="#455A64"/>
<path d="M142.611 102.484L142.557 102.546L142.371 102.716C142.275 102.807 142.172 102.89 142.062 102.963C141.919 103.079 141.766 103.182 141.606 103.272C140.603 103.881 139.463 104.227 138.29 104.277C136.55 104.363 134.821 103.944 133.313 103.071C131.496 101.979 129.919 100.531 128.676 98.8148C127.988 97.9264 127.408 96.9994 126.782 96.1496C126.206 95.3256 125.52 94.5847 124.742 93.9479C124.034 93.3771 123.194 92.992 122.3 92.8277C121.895 92.7619 121.483 92.7619 121.078 92.8277C120.707 92.8904 120.346 93.0021 120.004 93.1599C119.409 93.4403 118.882 93.8462 118.458 94.3496C118.136 94.7258 117.875 95.1508 117.686 95.6088C117.547 96.0086 117.456 96.4236 117.415 96.8449V96.7599C117.415 96.6904 117.415 96.6131 117.415 96.5127C117.444 96.1974 117.509 95.8864 117.608 95.5856C117.791 95.1101 118.052 94.6688 118.381 94.28C118.804 93.7638 119.33 93.3426 119.927 93.044C120.281 92.8759 120.655 92.7539 121.04 92.6809C121.459 92.6112 121.888 92.6112 122.307 92.6809C123.231 92.835 124.1 93.2263 124.827 93.8165C125.629 94.4502 126.333 95.2001 126.914 96.0414C127.547 96.8989 128.127 97.826 128.807 98.7067C130.04 100.403 131.601 101.835 133.398 102.917C134.876 103.789 136.575 104.215 138.29 104.145C139.445 104.108 140.573 103.787 141.575 103.211C141.935 102.99 142.281 102.748 142.611 102.484Z" fill="#455A64"/>
<path d="M142.928 98.923C142.928 98.923 142.843 99.0157 142.665 99.1547C142.423 99.3515 142.164 99.5273 141.892 99.6801C141.482 99.914 141.053 100.113 140.609 100.275C140.066 100.462 139.507 100.602 138.94 100.692C138.367 100.776 137.787 100.805 137.208 100.777C136.74 100.753 136.274 100.688 135.817 100.584C135.507 100.516 135.202 100.426 134.905 100.314C134.696 100.229 134.581 100.182 134.588 100.167C134.596 100.151 135.06 100.306 135.84 100.453C136.294 100.538 136.754 100.59 137.216 100.607C137.782 100.618 138.348 100.584 138.909 100.507C139.468 100.424 140.019 100.292 140.555 100.113C140.992 99.9601 141.418 99.7768 141.83 99.5642C142.51 99.1934 142.904 98.8998 142.928 98.923Z" fill="#455A64"/>
<path d="M137.409 153.178L87.52 153.796C86.3349 153.81 85.2026 154.288 84.366 155.127C83.5293 155.966 83.0551 157.1 83.0451 158.284L82.3418 246.353L149.582 247.273L142 157.365C141.913 156.214 141.39 155.139 140.536 154.36C139.683 153.582 138.564 153.159 137.409 153.178Z" fill="#455A64"/>
<path d="M194.648 303.505L194.378 320.501C194.378 320.501 211.566 326.496 211.821 329.64L178.827 330.289L178.17 303.784L194.648 303.505Z" fill="#3A6F9C"/>
<path d="M184.145 319.281C183.831 319.382 183.565 319.596 183.398 319.881C183.231 320.166 183.175 320.502 183.24 320.826C183.333 321.146 183.545 321.418 183.833 321.587C184.12 321.755 184.462 321.806 184.786 321.73C185.12 321.619 185.401 321.389 185.575 321.084C185.749 320.779 185.804 320.42 185.729 320.076C185.601 319.753 185.352 319.491 185.035 319.347C184.718 319.203 184.357 319.187 184.029 319.304" fill="#E0E0E0"/>
<path d="M178.827 330.289L178.719 327.616L210.492 327.995C210.492 327.995 211.968 328.605 211.821 329.64L178.827 330.289Z" fill="#E0E0E0"/>
<path d="M194.903 320.324C194.903 320.486 194.13 320.578 193.319 321.096C192.507 321.614 192.129 322.317 191.974 322.255C191.82 322.193 192.051 321.258 193.01 320.625C193.968 319.991 194.934 320.177 194.903 320.324Z" fill="#263238"/>
<path d="M198.396 321.683C198.435 321.838 197.74 322.124 197.206 322.819C196.673 323.514 196.534 324.233 196.372 324.225C196.209 324.217 196.086 323.313 196.766 322.471C197.446 321.629 198.389 321.536 198.396 321.683Z" fill="#263238"/>
<path d="M200.445 325.793C200.298 325.793 200.058 325.021 200.445 324.14C200.831 323.259 201.588 322.881 201.658 323.012C201.728 323.143 201.272 323.63 200.955 324.364C200.638 325.098 200.599 325.77 200.445 325.793Z" fill="#263238"/>
<path d="M194.54 316.445C194.471 316.592 193.767 316.384 192.824 316.445C191.881 316.507 191.209 316.824 191.124 316.685C191.039 316.546 191.704 315.959 192.778 315.912C193.852 315.866 194.617 316.314 194.54 316.445Z" fill="#263238"/>
<path d="M145.076 216.109C145.076 216.109 154.845 217.576 164.916 219.446C176.98 221.686 189.825 224.491 191.549 225.843C194.71 228.322 195.413 235.113 196.735 243.433C198.056 251.753 198.396 313.85 198.396 313.85L175.983 314.499L171.547 249.374C171.547 249.374 138.823 249.374 132.13 249.32C126.72 249.281 112.09 249.892 106.54 247.002C97.8147 242.367 99.4454 224.9 99.4454 224.9C101.625 223.031 138.947 211.983 138.947 211.983L145.076 216.109Z" fill="#0E314C"/>
<path d="M200.267 262.669L203.49 279.812C203.49 279.812 222 282.284 222.904 285.397L189.887 292.837L183.766 266.347L200.267 262.669Z" fill="#3A6F9C"/>
<path d="M192.956 280.677C192.661 280.848 192.439 281.12 192.331 281.443C192.223 281.766 192.236 282.117 192.368 282.431C192.522 282.733 192.784 282.966 193.103 283.082C193.421 283.198 193.772 283.189 194.084 283.056C194.397 282.877 194.632 282.589 194.745 282.246C194.858 281.904 194.84 281.532 194.695 281.202C194.5 280.904 194.197 280.693 193.849 280.614C193.502 280.535 193.137 280.593 192.832 280.777" fill="#E0E0E0"/>
<path d="M190.019 293.54L189.424 290.975L221.22 284.022C221.22 284.022 222.835 284.331 222.905 285.405L190.019 293.54Z" fill="#E0E0E0"/>
<path d="M203.985 279.518C203.985 279.68 203.212 279.935 202.555 280.631C201.898 281.326 201.604 282.106 201.442 282.075C201.28 282.044 201.31 281.056 202.145 280.229C202.98 279.402 203.992 279.364 203.985 279.518Z" fill="#263238"/>
<path d="M207.772 280.175C207.849 280.322 207.208 280.747 206.813 281.558C206.419 282.369 206.427 283.103 206.265 283.149C206.102 283.196 205.793 282.284 206.303 281.295C206.813 280.306 207.733 280.02 207.772 280.175Z" fill="#263238"/>
<path d="M210.677 283.868C210.538 283.937 210.129 283.18 210.345 282.207C210.562 281.233 211.234 280.708 211.334 280.832C211.435 280.955 211.072 281.527 210.909 282.33C210.747 283.134 210.832 283.829 210.677 283.868Z" fill="#263238"/>
<path d="M202.818 275.694C202.818 275.856 201.991 275.802 201.094 276.073C200.198 276.343 199.548 276.784 199.44 276.668C199.332 276.552 199.881 275.818 200.94 275.517C201.998 275.215 202.872 275.555 202.818 275.694Z" fill="#263238"/>
<path d="M184.215 203.408C184.215 203.408 191.943 202.86 193.597 209.465C195.916 218.619 206.025 273.346 206.025 273.346L183.21 277.757L171.176 224.344L149.536 220.821L140.625 217.26C140.625 217.26 145.664 211.898 156.082 208.576C163.216 206.328 184.215 203.408 184.215 203.408Z" fill="#0E314C"/>
<path d="M171.253 225.727C172.687 223.214 174.933 221.264 177.622 220.195C176.17 220.454 174.826 221.134 173.758 222.15C172.968 222.831 172.299 223.641 171.779 224.545C171.525 224.899 171.346 225.301 171.253 225.727Z" fill="#455A64"/>
<path d="M176.223 214.896C176.223 214.896 176.061 214.973 175.798 215.174C175.431 215.458 175.087 215.77 174.77 216.109C172.645 218.349 171.373 221.263 171.176 224.344C171.139 224.804 171.139 225.267 171.176 225.727C171.176 226.051 171.23 226.229 171.261 226.229C171.292 226.229 171.261 225.503 171.416 224.359C171.748 221.368 172.979 218.548 174.948 216.271C175.721 215.413 176.262 214.942 176.223 214.896Z" fill="#455A64"/>
<path d="M194.633 214.896C194.661 214.987 194.684 215.08 194.702 215.174C194.741 215.375 194.803 215.645 194.88 216.008C195.035 216.781 195.251 217.839 195.537 219.245C196.109 222.08 196.928 226.198 197.956 231.374C199.997 241.749 202.864 256.358 206.195 273.315L206.234 273.485H206.064L183.264 277.935L183.094 277.973L183.055 277.796C182.932 277.263 182.8 276.691 182.677 276.111C178.248 256.412 174.175 238.327 171.083 224.352L171.199 224.46L148.485 220.736L142.302 219.686L140.679 219.4L140.13 219.292C140.13 219.292 140.323 219.292 140.686 219.361L142.317 219.601L148.539 220.574L171.254 224.205H171.346V224.305C174.5 238.211 178.588 256.327 183.04 276.019C183.171 276.598 183.295 277.17 183.419 277.703L183.202 277.564L206.025 273.16L205.886 273.361C202.609 256.365 199.78 241.78 197.771 231.397C196.782 226.221 196.001 222.127 195.452 219.245C195.197 217.839 194.988 216.75 194.849 216.001L194.702 215.166C194.641 214.989 194.633 214.896 194.633 214.896Z" fill="#455A64"/>
<path d="M144.999 146.627C144.999 146.627 149.234 149.431 151.097 157.736C152.596 164.395 154.961 177.049 154.961 177.049L163.826 182.867C164.249 183.143 164.551 183.57 164.67 184.061C164.79 184.551 164.717 185.069 164.468 185.509C162.389 189.194 157.149 197.939 153.732 198.989C149.381 200.334 145.185 196.919 145.185 196.919L144.999 146.627Z" fill="#4E95CF"/>
<path d="M144.999 146.627L134.789 142.517L133.05 139.118L131.481 146.156L114.849 136.275L113.705 140.4C113.705 140.4 97.8613 147.044 95.8054 148.898C93.2781 151.216 100.18 189.549 100.18 189.549C100.18 189.549 97.6758 220.327 98.5955 226.453C105.255 224.573 112.023 223.094 118.86 222.026C128.073 220.767 139.202 217.237 139.202 217.237L149.25 211.018L144.999 146.627Z" fill="#4E95CF"/>
<path d="M146.521 163.314C146.558 163.481 146.576 163.652 146.575 163.824C146.575 164.202 146.614 164.689 146.645 165.299C146.707 166.628 146.792 168.467 146.892 170.707C147.101 175.296 147.425 181.623 147.827 188.614C148.229 195.606 148.647 201.933 148.994 206.506C149.172 208.77 149.319 210.608 149.427 211.914C149.474 212.524 149.512 213.011 149.543 213.382C149.562 213.554 149.562 213.727 149.543 213.899C149.503 213.731 149.475 213.561 149.458 213.389C149.404 213.019 149.342 212.532 149.265 211.929C149.118 210.647 148.925 208.801 148.724 206.522C148.306 201.948 147.858 195.621 147.449 188.63C147.039 181.638 146.761 175.296 146.614 170.707C146.544 168.389 146.506 166.558 146.49 165.299C146.49 164.681 146.49 164.194 146.49 163.816C146.491 163.648 146.501 163.48 146.521 163.314Z" fill="#263238"/>
<path d="M104.863 160.224C104.802 160.224 104.863 159.405 104.709 158.115C104.495 156.424 103.862 154.813 102.869 153.428C101.876 152.043 100.553 150.927 99.0205 150.181C97.8535 149.609 97.0497 149.408 97.0652 149.408C97.2585 149.395 97.4525 149.419 97.6371 149.478C98.1479 149.601 98.647 149.769 99.1287 149.98C100.735 150.681 102.124 151.8 103.152 153.22C104.179 154.639 104.808 156.308 104.972 158.053C105.02 158.567 105.02 159.084 104.972 159.598C104.979 159.812 104.942 160.025 104.863 160.224Z" fill="#263238"/>
<path d="M148.322 200.395L143.453 195.459L133.406 193.033C133.406 193.033 124.232 195.66 124.015 195.652C123.799 195.644 115.916 193.033 115.916 193.033L113.319 203.146L127.3 204.057L143.268 203.447C143.268 203.447 144.095 202.674 143.6 202.203C143.105 201.732 146.274 203.061 146.645 203.076C147.016 203.091 147.743 203.362 148.23 202.79C148.608 202.396 149.064 201.168 148.322 200.395Z" fill="#FFCEB3"/>
<path d="M95.6587 148.921C95.6587 148.921 92.1112 151.146 90.3568 158.06C88.6023 164.975 83.1149 193.543 84.6761 197.769C86.2374 201.994 120.854 207.433 120.854 207.433L124.804 194.918L100.775 186.961C100.775 186.961 104.292 173.225 104.485 167.648C104.678 162.07 95.6587 148.921 95.6587 148.921Z" fill="#4E95CF"/>
<path d="M143.638 202.195C143.111 202.097 142.594 201.952 142.093 201.763C141.119 201.461 139.774 201.067 138.275 200.704C136.775 200.341 135.4 200.063 134.41 199.87C133.862 199.803 133.321 199.684 132.795 199.515C133.349 199.486 133.904 199.524 134.449 199.631C135.771 199.817 137.081 200.075 138.375 200.403C139.666 200.718 140.938 201.105 142.185 201.562C142.694 201.711 143.183 201.924 143.638 202.195Z" fill="#FF9C65"/>
<path d="M148.322 200.395C147.567 200.213 146.824 199.986 146.096 199.716C144.736 199.275 142.835 198.734 140.686 198.17C138.928 197.572 137.116 197.142 135.276 196.888C134.502 196.854 133.727 196.882 132.958 196.973C133.147 196.877 133.35 196.812 133.56 196.78C134.124 196.661 134.701 196.617 135.276 196.649C137.153 196.829 139.003 197.228 140.787 197.838C142.904 198.402 144.813 198.982 146.197 199.484C146.877 199.731 147.41 199.955 147.743 200.11C147.947 200.18 148.142 200.276 148.322 200.395Z" fill="#FF9C65"/>
<path d="M93.8657 189.58C94.7291 188.595 95.8241 187.841 97.052 187.385C98.2798 186.93 99.6018 186.786 100.899 186.969C99.6359 187.094 98.3898 187.353 97.1813 187.741C96.0135 188.234 94.902 188.85 93.8657 189.58Z" fill="#263238"/>
<path d="M90.0396 201.021H90.1941L90.6269 201.137C90.9979 201.253 91.5698 201.392 92.3041 201.57C93.7803 201.925 95.9443 202.404 98.6726 202.968C104.137 204.088 111.866 205.579 120.885 207.232L120.692 207.356C121.913 203.493 123.242 199.229 124.626 194.833L124.742 195.065L123.381 194.609L100.728 187.085L100.597 187.038V186.907C101.834 180.371 102.869 174.933 103.596 171.101C103.959 169.224 104.253 167.733 104.454 166.69C104.554 166.203 104.631 165.817 104.693 165.531C104.709 165.396 104.743 165.263 104.794 165.137C104.783 165.272 104.765 165.406 104.74 165.539C104.693 165.824 104.631 166.211 104.546 166.705C104.361 167.756 104.106 169.247 103.774 171.139C103.078 175.002 102.089 180.41 100.906 186.961L100.806 186.783L123.474 194.261L124.834 194.717L125.004 194.771L124.95 194.941C123.567 199.337 122.23 203.57 121.001 207.456L120.955 207.603H120.8C111.78 205.919 104.059 204.382 98.6107 203.2C95.8825 202.613 93.7262 202.095 92.2577 201.701C91.5235 201.508 90.9593 201.346 90.5806 201.214L90.1555 201.067L90.0396 201.021Z" fill="#263238"/>
<path d="M157.28 187.734C157.041 187.686 156.811 187.6 156.6 187.479C156.002 187.184 155.437 186.827 154.915 186.412C153.165 185.046 151.851 183.199 151.136 181.097C150.732 179.939 150.551 178.715 150.602 177.49C150.618 176.972 150.763 176.467 151.025 176.02C151.287 175.573 151.657 175.199 152.102 174.933C152.411 174.765 152.759 174.684 153.111 174.699C153.462 174.714 153.802 174.824 154.096 175.018C154.498 175.311 154.567 175.605 154.552 175.605C154.536 175.605 154.397 175.373 154.011 175.149C153.74 174.997 153.436 174.918 153.126 174.918C152.816 174.918 152.511 174.997 152.241 175.149C151.858 175.404 151.543 175.749 151.322 176.152C151.102 176.556 150.982 177.007 150.973 177.467C150.946 178.638 151.13 179.805 151.514 180.912C152.216 182.945 153.452 184.751 155.093 186.142C156.353 187.262 157.319 187.664 157.28 187.734Z" fill="#263238"/>
<path d="M149.103 182.017C149.216 181.382 149.452 180.776 149.799 180.232C150.036 179.63 150.393 179.084 150.85 178.625C150.746 179.265 150.509 179.875 150.154 180.418C149.675 181.352 149.204 182.071 149.103 182.017Z" fill="#263238"/>
<path d="M134.874 142.247C134.914 142.828 134.878 143.413 134.766 143.985C134.643 145.051 134.449 146.519 134.21 148.141C134.168 148.404 134.13 148.661 134.094 148.914L134.009 149.493L133.723 148.983C133.227 148.097 132.67 147.248 132.053 146.442L132.324 146.349C132.326 147.045 132.253 147.739 132.108 148.419C132.002 147.732 131.974 147.035 132.022 146.341V145.932L132.293 146.248C132.964 147.038 133.56 147.889 134.071 148.79L133.7 148.86L133.816 148.087C134.055 146.472 134.287 144.997 134.48 143.946C134.546 143.367 134.678 142.796 134.874 142.247Z" fill="#263238"/>
<path d="M131.728 148.836C131.525 148.629 131.344 148.401 131.187 148.157L129.804 146.21L130.044 146.171C129.727 147.4 129.34 148.867 128.915 150.505L128.853 150.745L128.645 150.621C127.269 149.848 125.746 148.89 124.162 147.894C121.132 145.978 118.458 144.132 116.557 142.749C115.606 142.054 114.849 141.482 114.331 141.072C114.05 140.879 113.791 140.657 113.558 140.408C113.869 140.554 114.162 140.735 114.431 140.949L116.75 142.494C118.69 143.823 121.387 145.63 124.409 147.539C125.955 148.535 127.501 149.462 128.861 150.289L128.59 150.397L129.819 146.086L129.904 145.8L130.059 146.048L131.342 148.064C131.503 148.304 131.633 148.563 131.728 148.836Z" fill="#263238"/>
<path d="M135.292 193.381C135.241 193.242 135.213 193.096 135.207 192.948C135.16 192.608 135.106 192.176 135.037 191.681C134.905 190.576 134.727 188.977 134.527 187.007C134.125 183.06 133.63 177.598 133.197 171.557C132.764 165.515 132.478 160.046 132.316 156.106C132.239 154.128 132.185 152.521 132.162 151.409C132.162 150.891 132.162 150.474 132.162 150.134C132.141 149.986 132.141 149.835 132.162 149.686C132.197 149.833 132.216 149.983 132.216 150.134C132.247 150.469 132.277 150.894 132.308 151.409C132.386 152.568 132.478 154.159 132.594 156.098C132.826 160.054 133.159 165.523 133.591 171.549C134.024 177.575 134.472 183.044 134.805 187C134.959 188.939 135.091 190.522 135.183 191.681C135.183 192.199 135.253 192.624 135.276 192.964C135.292 193.102 135.297 193.242 135.292 193.381Z" fill="#263238"/>
<path d="M113.574 211.273C113.574 211.373 107.731 211.458 100.52 211.458C93.3092 211.458 87.4585 211.373 87.4585 211.273C87.4585 211.172 93.3092 211.087 100.52 211.087C107.731 211.087 113.574 211.211 113.574 211.273Z" fill="#263238"/>
<path d="M102.336 204.528C102.336 204.629 98.8505 204.714 94.5534 204.714C90.2562 204.714 86.7705 204.629 86.7705 204.528C86.7705 204.428 90.2484 204.351 94.5534 204.351C98.8583 204.351 102.336 204.428 102.336 204.528Z" fill="#263238"/>
<path d="M171.563 175.01L156.584 201.508L121.929 202.28L121.844 203.887L156.229 203.632L157.319 203.594L193.644 203.663L200.978 191.017L210.06 176.339C210.198 176.139 210.279 175.906 210.294 175.665C210.309 175.423 210.258 175.181 210.145 174.966C210.033 174.752 209.864 174.572 209.657 174.446C209.45 174.32 209.212 174.253 208.97 174.253L172.73 174.392C172.498 174.384 172.269 174.437 172.064 174.546C171.859 174.654 171.687 174.814 171.563 175.01Z" fill="#3A6F9C"/>
<path d="M183.171 188.668C183.004 188.913 182.911 189.201 182.902 189.497C182.894 189.793 182.972 190.085 183.125 190.339C183.278 190.592 183.502 190.797 183.768 190.927C184.034 191.057 184.332 191.108 184.627 191.074C184.921 191.04 185.2 190.921 185.429 190.733C185.658 190.545 185.828 190.295 185.919 190.013C186.01 189.731 186.018 189.429 185.941 189.142C185.865 188.856 185.708 188.598 185.489 188.398C185.321 188.261 185.126 188.159 184.917 188.098C184.708 188.038 184.489 188.02 184.273 188.045C184.057 188.07 183.848 188.138 183.659 188.245C183.47 188.352 183.304 188.496 183.171 188.668Z" fill="white"/>
<path d="M175.535 174.338C175.62 174.392 171.964 180.974 167.366 189.016C162.767 197.058 158.972 203.586 158.864 203.54C158.756 203.493 162.435 196.904 167.033 188.861C171.632 180.819 175.427 174.291 175.535 174.338Z" fill="#263238"/>
<path d="M154.018 255.886C154.018 255.886 137.517 263.411 121.465 263.411C106.595 263.411 89.9702 255.933 89.9702 255.933L154.018 255.886Z" fill="#E0E0E0"/>
<path d="M119.772 323.251H126.141L126.141 256.597H119.772L119.772 323.251Z" fill="#E0E0E0"/>
<path d="M94.422 324.403H150.927V320.494H94.422V324.403Z" fill="#E0E0E0"/>
<path d="M144.303 326.087C144.303 326.939 144.556 327.773 145.03 328.482C145.504 329.19 146.177 329.743 146.965 330.069C147.754 330.396 148.621 330.481 149.457 330.315C150.294 330.148 151.062 329.738 151.665 329.135C152.268 328.532 152.679 327.764 152.846 326.928C153.012 326.091 152.927 325.225 152.6 324.437C152.274 323.649 151.721 322.976 151.012 322.502C150.303 322.029 149.469 321.776 148.616 321.776C147.472 321.776 146.375 322.23 145.566 323.038C144.758 323.847 144.303 324.943 144.303 326.087Z" fill="#263238"/>
<path d="M119.2 326.087C119.2 326.939 119.453 327.773 119.927 328.482C120.401 329.19 121.074 329.743 121.862 330.069C122.65 330.396 123.518 330.481 124.354 330.315C125.191 330.148 125.959 329.738 126.562 329.135C127.165 328.532 127.576 327.764 127.743 326.928C127.909 326.091 127.824 325.225 127.497 324.437C127.171 323.649 126.618 322.976 125.909 322.502C125.2 322.029 124.366 321.776 123.513 321.776C122.369 321.776 121.272 322.23 120.463 323.038C119.655 323.847 119.2 324.943 119.2 326.087Z" fill="#263238"/>
<path d="M90.1172 326.087C90.1172 326.939 90.3701 327.773 90.844 328.482C91.3179 329.19 91.9914 329.743 92.7794 330.069C93.5675 330.396 94.4346 330.481 95.2712 330.315C96.1078 330.148 96.8762 329.738 97.4793 329.135C98.0825 328.532 98.4932 327.764 98.6596 326.928C98.826 326.091 98.7406 325.225 98.4142 324.437C98.0878 323.649 97.535 322.976 96.8258 322.502C96.1166 322.029 95.2828 321.776 94.4298 321.776C93.286 321.776 92.1891 322.23 91.3803 323.038C90.5716 323.847 90.1172 324.943 90.1172 326.087Z" fill="#263238"/>
<path d="M121.465 284.169H130.121V280.584H121.465V284.169Z" fill="#E0E0E0"/>
<path d="M128.544 286.68H131.698V278.081H128.544V286.68Z" fill="#E0E0E0"/>
<path d="M88.9731 255.886H164.351C167.172 255.886 169.46 254.341 169.46 251.097C169.416 249.786 168.853 248.546 167.895 247.65C166.937 246.753 165.663 246.273 164.351 246.315H82.3418V249.683C82.3983 251.385 83.1286 252.994 84.3722 254.157C85.6158 255.321 87.2707 255.943 88.9731 255.886Z" fill="#455A64"/>
<path d="M92.5825 211.126C92.6829 211.126 92.768 219.438 92.768 229.667C92.768 239.895 92.6829 248.207 92.5825 248.207C92.482 248.207 92.397 239.895 92.397 229.667C92.397 219.438 92.482 211.126 92.5825 211.126Z" fill="#263238"/>
<path d="M167.281 245.117C167.674 245.553 168.017 246.033 168.301 246.547C169.133 248.023 169.555 249.696 169.522 251.39C169.562 252.007 169.471 252.626 169.257 253.206C169.043 253.786 168.709 254.315 168.278 254.759C167.769 255.257 167.141 255.616 166.454 255.801C165.715 255.974 164.955 256.042 164.197 256.002H153.671L92.6986 256.103C91.2599 256.142 89.8201 256.101 88.386 255.979C86.9364 255.762 85.5878 255.107 84.5216 254.102C83.5168 253.077 82.8113 251.798 82.4812 250.401C82.1371 249.05 82.0222 247.65 82.1412 246.261C82.3421 226.484 82.5199 209.14 82.6513 196.726C82.7286 190.546 82.7981 185.578 82.8367 182.148C82.8367 180.448 82.8908 179.135 82.9063 178.231C82.9063 177.791 82.9063 177.459 82.9063 177.212C82.9063 176.964 82.9063 176.872 82.9063 176.872C82.913 176.985 82.913 177.098 82.9063 177.212C82.9063 177.459 82.9063 177.791 82.9063 178.231V182.148C82.9063 185.578 82.8677 190.538 82.8367 196.726C82.744 209.14 82.6126 226.484 82.4658 246.261C82.3529 247.604 82.4652 248.956 82.7981 250.262C83.112 251.585 83.7799 252.797 84.7303 253.77C85.7344 254.716 87.0052 255.331 88.3705 255.531C89.7841 255.65 91.2032 255.692 92.6213 255.655H153.593H164.12C164.859 255.695 165.6 255.636 166.323 255.477C166.978 255.303 167.579 254.965 168.069 254.496C168.485 254.093 168.814 253.608 169.034 253.072C169.255 252.537 169.363 251.962 169.352 251.383C169.404 249.71 169.015 248.052 168.224 246.577C168.015 246.197 167.783 245.831 167.528 245.48C167.358 245.249 167.281 245.117 167.281 245.117Z" fill="#263238"/>
<path d="M83.486 211.018L118.265 211.435C118.391 211.44 118.515 211.472 118.628 211.527C118.741 211.583 118.841 211.662 118.922 211.759C119.003 211.856 119.062 211.968 119.097 212.089C119.132 212.21 119.141 212.338 119.123 212.462L113.906 255.902H122.076L126.288 208.121C126.336 207.735 126.304 207.343 126.193 206.971C126.081 206.598 125.893 206.253 125.641 205.957C125.389 205.661 125.077 205.421 124.727 205.252C124.376 205.084 123.995 204.99 123.606 204.976L82.9604 204.737L83.486 211.018Z" fill="#455A64"/>
<path d="M83.4857 211.018C83.4857 211.018 83.4857 210.894 83.4394 210.631C83.393 210.369 83.3698 209.967 83.3234 209.449C83.223 208.376 83.0838 206.792 82.8906 204.714V204.629H82.9679L116.665 204.729H122.531C123.047 204.712 123.564 204.732 124.077 204.791C124.613 204.889 125.112 205.135 125.515 205.502C125.926 205.871 126.225 206.347 126.38 206.877C126.512 207.408 126.533 207.96 126.442 208.499C126.079 212.679 125.669 217.043 125.306 221.555C124.533 230.578 123.667 240.204 122.794 250.193C122.624 252.109 122.457 254.007 122.292 255.886V256.072H113.705V255.848C115.065 244.592 116.341 234.001 117.5 224.437C117.786 222.049 118.072 219.724 118.342 217.484C118.481 216.356 118.613 215.251 118.744 214.154C118.814 213.613 118.883 213.073 118.945 212.532C118.971 212.424 118.973 212.311 118.952 212.202C118.93 212.092 118.885 211.989 118.82 211.899C118.754 211.808 118.67 211.733 118.573 211.679C118.476 211.624 118.368 211.591 118.257 211.582L106.456 211.404L89.5605 211.134L85.0315 211.049H83.8644C83.6017 211.049 83.478 211.049 83.478 211.049H85.1088H89.6765L106.556 211.188L118.304 211.296C118.456 211.308 118.604 211.353 118.737 211.428C118.871 211.503 118.986 211.605 119.077 211.728C119.166 211.855 119.228 211.998 119.26 212.15C119.292 212.301 119.293 212.457 119.262 212.609C119.2 213.142 119.131 213.683 119.069 214.231C118.937 215.321 118.806 216.433 118.675 217.561C118.404 219.817 118.134 222.142 117.848 224.514C116.704 234.078 115.444 244.669 114.099 255.925L113.898 255.701H122.068L121.867 255.886C122.026 254.007 122.194 252.109 122.369 250.193C123.25 240.196 124.1 230.571 124.904 221.547C125.306 217.036 125.692 212.684 126.063 208.492C126.149 207.999 126.134 207.494 126.017 207.008C125.874 206.541 125.607 206.122 125.244 205.795C124.889 205.471 124.45 205.252 123.977 205.162C123.484 205.112 122.988 205.094 122.493 205.108L116.627 205.069L82.937 204.776L83.0143 204.698C83.1585 206.758 83.2719 208.327 83.3543 209.403C83.393 209.928 83.4162 210.322 83.4394 210.608L83.4857 211.018Z" fill="#263238"/>
<path d="M118.482 252.789C119.066 252.789 119.541 252.315 119.541 251.73C119.541 251.146 119.066 250.672 118.482 250.672C117.897 250.672 117.423 251.146 117.423 251.73C117.423 252.315 117.897 252.789 118.482 252.789Z" fill="#263238"/>
<path d="M163.826 164.998L153.717 177.42C154.166 179.741 155.353 181.855 157.102 183.446C157.934 184.175 158.946 184.668 160.033 184.876C161.12 185.084 162.242 184.998 163.285 184.628C163.285 184.628 163.95 183.515 165.797 180.541C169.352 174.902 171.671 164.233 171.671 164.233L163.826 164.998Z" fill="#FFCEB3"/>
<path d="M179.724 140.995C179.585 140.867 179.416 140.775 179.232 140.73C179.048 140.684 178.856 140.685 178.673 140.733L172.065 142.278C171.493 142.411 170.996 142.763 170.681 143.259L157.682 163.932L158.764 164.357L166.098 163.368L179.94 141.204L179.724 140.995Z" fill="#263238"/>
<path d="M175.118 144C175.215 144.044 175.324 144.051 175.426 144.021C175.527 143.992 175.616 143.927 175.674 143.838C175.829 143.653 175.844 143.421 175.674 143.321C175.577 143.28 175.468 143.275 175.367 143.304C175.266 143.333 175.178 143.397 175.118 143.483C174.986 143.66 174.978 143.892 175.118 144Z" fill="white"/>
<path d="M179.94 141.204C179.524 141.356 179.098 141.479 178.665 141.575L175.164 142.455L172.745 143.035C172.542 143.072 172.349 143.149 172.176 143.262C172.004 143.374 171.855 143.52 171.74 143.691L170.967 144.881L167.683 150.181C165.318 153.935 163.154 157.319 161.577 159.768L159.683 162.657C159.463 163.019 159.218 163.365 158.949 163.692C159.121 163.309 159.322 162.939 159.552 162.588L161.33 159.652C162.875 157.18 164.97 153.773 167.335 150.018C168.525 148.149 169.654 146.364 170.681 144.734L171.454 143.545C171.748 143.134 172.193 142.856 172.691 142.772L175.125 142.231L178.65 141.459C179.074 141.345 179.505 141.26 179.94 141.204Z" fill="#455A64"/>
<path d="M174.43 146.542C174.43 146.542 173.765 146.496 173.479 148.211C173.193 149.926 172.258 154.839 172.258 154.839L168.703 153.487L164.375 154.445C164.375 154.445 163.471 155.349 164.182 155.712C165.322 156.024 166.494 156.207 167.675 156.26L169.831 158.748L163.888 156.747C163.888 156.747 161.963 157.404 162.59 158.439C163.216 159.474 167.304 162.503 167.304 162.503L164.375 162.588L160.851 160.996C160.851 160.996 159.792 161.151 160.232 161.946C160.673 162.742 164.421 165.4 164.421 165.4L168.888 166.945C168.888 166.945 171.261 166.535 171.462 165.863C171.589 165.339 171.659 164.803 171.671 164.264C171.671 164.264 172.923 163.824 173.132 163.236C173.243 162.751 173.243 162.246 173.132 161.761C173.132 161.761 175.133 161.885 175.334 160.842C175.447 159.561 175.33 158.271 174.986 157.033C174.747 156.26 175.442 148.852 175.35 148.636C175.257 148.419 175.659 145.932 174.43 146.542Z" fill="#FFCEB3"/>
<path d="M171.578 165.824C171.241 166.056 170.855 166.206 170.45 166.265C169.506 166.492 168.53 166.549 167.567 166.435C166.626 166.33 165.714 166.049 164.877 165.608C164.259 165.268 163.95 164.975 163.981 164.928C165.155 165.443 166.388 165.812 167.652 166.025C168.964 166.11 170.281 166.042 171.578 165.824Z" fill="#FF9C65"/>
<path d="M170.473 164.48C169.846 164.391 169.254 164.138 168.757 163.746C167.899 163.198 167.319 162.626 167.397 162.541C167.474 162.456 168.169 162.866 169.027 163.399C169.885 163.932 170.534 164.38 170.473 164.48Z" fill="#FF9A6C"/>
<path d="M172.598 160.772C172.536 160.872 171.756 160.587 170.944 160C170.132 159.412 169.646 158.787 169.738 158.709C169.831 158.632 170.457 159.103 171.238 159.667C172.018 160.231 172.668 160.672 172.598 160.772Z" fill="#FF9A6C"/>
<path d="M174.886 157.728C174.77 157.79 174.291 157.072 173.556 156.322C172.822 155.573 172.127 155.04 172.196 154.939C172.871 155.107 173.471 155.493 173.904 156.036C174.677 156.832 174.994 157.682 174.886 157.728Z" fill="#FF9C65"/>
<path d="M241.175 329.494H238.03L239.599 213.15H246.346L241.175 329.494Z" fill="black"/>
<path d="M241.183 329.494C241.183 329.494 241.183 329.285 241.183 328.883C241.183 328.482 241.229 327.864 241.229 327.091C241.291 325.546 241.376 323.228 241.5 320.339C241.739 314.468 242.095 305.993 242.535 295.494C243.447 274.505 244.707 245.45 246.114 213.111L246.315 213.32H239.606L239.807 213.127C239.034 270.163 238.323 317.612 238.076 329.463L238.03 329.416H240.395H241.167C241.167 329.416 240.92 329.416 240.395 329.416H238.006H237.96V329.37C238.037 317.519 238.609 270.063 239.382 213.026V212.825H246.531V213.042C245.063 245.426 243.741 274.535 242.783 295.556C242.296 306.032 241.902 314.491 241.623 320.347C241.484 323.251 241.376 325.515 241.299 327.052C241.258 327.809 241.227 328.389 241.206 328.791C241.229 329.3 241.183 329.494 241.183 329.494Z" fill="black"/>
<path d="M46.0558 329.741H42.9102L41.1094 212.818H47.8488L46.0558 329.741Z" fill="black"/>
<path d="M46.0634 329.741C46.0634 329.741 46.0634 329.524 46.0634 329.13C46.0634 328.736 46.0634 328.126 46.0634 327.354C46.0634 325.809 46.102 323.491 46.1329 320.571C46.2102 314.676 46.3184 306.155 46.4575 295.602C46.7589 274.512 47.1763 245.31 47.6477 212.818L47.8487 213.019H41.1092L41.3102 212.818C42.1835 270.14 42.8559 317.882 42.9487 329.741L42.9023 329.694H45.2209H42.8327H42.7864V329.648C42.6009 317.821 41.828 270.147 40.916 212.818V212.617H48.0651V212.818C47.5318 245.38 47.0526 274.62 46.7048 295.757C46.5193 306.287 46.3725 314.784 46.2643 320.671C46.2102 323.591 46.1638 325.863 46.1329 327.415V329.154L46.0634 329.741Z" fill="black"/>
<path d="M252.058 203.872H25.6519V213.567H252.058V203.872Z" fill="#EBEBEB"/>
<path d="M25.6594 203.872H26.8032H30.1884H43.2655L91.5392 203.81L252.065 203.725H252.266V213.822H252.05L25.6439 213.675H25.5976V213.621C25.5976 210.292 25.5976 207.866 25.5976 206.259V204.498C25.5976 204.111 25.5976 203.926 25.5976 203.926C25.5976 203.926 25.5976 204.127 25.5976 204.513V206.29C25.5976 207.889 25.5976 210.299 25.5976 213.621L25.5435 213.567L252.05 213.366L251.849 213.567V203.872L252.05 204.073L91.6706 203.988L43.3737 203.934H30.2348H26.8264L25.6594 203.872Z" fill="#263238"/>
<path d="M81.9688 90.2177C81.9888 90.2897 82 90.3639 82 90.4404V102.028C82 102.331 81.8372 102.613 81.5784 102.761L71.9359 108.363V119.465C71.9359 119.768 71.7753 120.045 71.5166 120.198L51.3817 131.886C51.3349 131.913 51.2858 131.931 51.2345 131.947C51.2167 131.952 51.1988 131.965 51.181 131.97C51.0404 132.01 50.891 132.01 50.7527 131.97C50.7282 131.965 50.7081 131.952 50.688 131.943C50.6412 131.925 50.5921 131.911 50.5475 131.886L30.4216 120.198C30.1606 120.045 30 119.768 30 119.465V84.6919C30 84.6176 30.0112 84.5434 30.0312 84.4714C30.0379 84.4444 30.0535 84.4241 30.0625 84.3994C30.0758 84.3544 30.0937 84.3094 30.1138 84.2689C30.1227 84.2396 30.1472 84.2194 30.1651 84.1946C30.1918 84.1586 30.2119 84.1249 30.2387 84.0934C30.2654 84.0709 30.2944 84.0529 30.3212 84.0326C30.3524 84.0056 30.3814 83.9786 30.4126 83.9561H30.4149L40.4812 78.1131C40.7377 77.9623 41.0589 77.9623 41.3176 78.1131L51.3817 83.9561H51.3862C51.4196 83.9786 51.4464 84.0034 51.4776 84.0304C51.5044 84.0506 51.5334 84.0709 51.5602 84.0911C51.5892 84.1226 51.607 84.1564 51.6338 84.1924C51.6516 84.2171 51.6784 84.2396 51.6895 84.2666C51.7141 84.3094 51.7274 84.3521 51.7431 84.3971C51.7498 84.4219 51.7676 84.4444 51.7721 84.4691C51.7944 84.5389 51.8033 84.6131 51.8033 84.6896V106.406L60.19 101.537V90.4359C60.19 90.3617 60.2012 90.2874 60.2212 90.2154C60.2279 90.1907 60.2413 90.1682 60.2502 90.1434C60.2659 90.0984 60.2815 90.0557 60.3038 90.0107C60.3194 89.9837 60.3439 89.9634 60.3595 89.9364C60.3863 89.9027 60.4064 89.8689 60.4331 89.8397C60.4599 89.8127 60.4889 89.7947 60.5157 89.7767C60.5469 89.7519 60.5737 89.7249 60.6071 89.7047L70.6757 83.8594C70.9344 83.7086 71.2534 83.7086 71.5121 83.8594L81.5784 89.7047C81.6141 89.7272 81.6387 89.7519 81.6721 89.7744C81.6989 89.7969 81.7279 89.8149 81.7524 89.8374C81.7814 89.8689 81.8015 89.9027 81.8282 89.9364C81.8461 89.9634 81.8706 89.9837 81.8818 90.0107C81.9063 90.0557 81.9219 90.0984 81.9353 90.1434C81.9487 90.1682 81.9621 90.1929 81.9688 90.2177ZM80.3182 101.539V91.9029L76.7984 93.9458L71.9315 96.7717V106.408L80.3182 101.539ZM70.2563 118.976V109.331L65.4696 112.087L51.8033 119.957V129.69L70.2563 118.976ZM31.6729 86.1543V118.976L50.1259 129.69V119.957L40.4857 114.456L40.4812 114.449H40.4767C40.4455 114.427 40.421 114.402 40.3875 114.38C40.363 114.357 40.334 114.339 40.3094 114.319L40.3072 114.314C40.2782 114.287 40.2604 114.258 40.2381 114.227C40.2158 114.2 40.1912 114.175 40.1756 114.143H40.1711C40.1533 114.112 40.1422 114.074 40.1265 114.038C40.1132 114.002 40.0953 113.977 40.0864 113.941C40.0775 113.9 40.073 113.858 40.0685 113.813C40.0641 113.781 40.0552 113.752 40.0552 113.72V91.0254L35.1926 88.1972L31.6729 86.1543ZM40.8983 79.823L32.5116 84.6919L40.8983 89.5607L49.2806 84.6919L40.8983 79.823ZM45.2612 110.208L50.1282 107.382V86.1543L46.604 88.1995L41.737 91.0254V112.253L45.2612 110.208ZM71.095 85.5693L62.7083 90.4382L71.095 95.3048L79.4795 90.4359L71.095 85.5693ZM70.2563 96.7717L65.3894 93.9458L61.8674 91.9029V101.539L66.7344 104.365L70.2563 106.408V96.7717ZM50.9624 118.493L63.2614 111.41L69.4087 107.873L61.0287 103.006L51.3839 108.606L42.5935 113.714L50.9624 118.493Z" fill="white"/>
</g>
<defs>
<clipPath id="clip0_684_346">
<rect width="501" height="331" fill="white"/>
</clipPath>
</defs>
</svg>
