<svg xmlns="http://www.w3.org/2000/svg" width="514.863" height="306.638" viewBox="0 0 514.863 306.638">
  <g id="learn_to_grow" data-name="learn to grow" transform="translate(2376.734 708.537)">
    <path id="Path_93952" data-name="Path 93952" d="M317.082,0c-21.227-.1-40.817,2.891-55.514,9.871C237.454,21.326,235.118,41.441,204.6,47.3c-51.177,9.821-100-2.051-143.832,26.451-51.2,33.29,31.585,75.78,25.217,110.977C78.878,224-2.43,224.382.056,272.471c.221,4.254,4.133,11.962,9.587,21.077h465.8c-3.758-4.017-6.512-8.4-7.464-13.334C463.3,255.994,497.851,239.4,496,215.05c-2.332-30.6-43.2-43.716-56.039-70.327C423.99,111.631,486.279,81.2,457.7,46.652,436.287,20.763,371.331.267,317.082,0Z" transform="matrix(1, 0.017, -0.017, 1, -2371.611, -708.537)" fill="#e4f2ff"/>
    <path id="Path_93953" data-name="Path 93953" d="M1254.756,1039.2a1,1,0,0,1,1,1v7.993a1,1,0,1,1-1.995,0V1040.2a1,1,0,0,1,1-1Z" transform="translate(-3157.048 -1526.723)" fill="#e4f2ff"/>
    <path id="Path_93954" data-name="Path 93954" d="M1257.595,1230.634a1,1,0,0,0,1-1v-7.993a1,1,0,1,0-1.995,0v7.993a1,1,0,0,0,1,1Z" transform="translate(-3159.495 -1683.046)" fill="#e4f2ff"/>
    <path id="Path_93955" data-name="Path 93955" d="M1100.213,216.315a12.653,12.653,0,1,0,12.651,12.651,12.654,12.654,0,0,0-12.651-12.651Zm0,5.832a6.818,6.818,0,1,1-6.818,6.819,6.818,6.818,0,0,1,6.818-6.819Z" transform="translate(-3013.855 -817.744)" fill="#e4f2ff"/>
    <path id="Path_93956" data-name="Path 93956" d="M-2441.871,1528.439c0-5.309,115.256-9.614,257.432-9.614s257.432,4.3,257.432,9.614-115.256,9.613-257.432,9.613-257.432-4.3-257.432-9.613Z" transform="translate(65.137 -1939.95)" fill="#d1dfed"/>
    <path id="Path_93957" data-name="Path 93957" d="M1325.912,1580.795c-.156.406-.284.729-.4,1.035h-.188c.2-.343.389-.691.584-1.035Z" transform="translate(-3218.711 -1993.341)" fill="#a0662c"/>
    <g id="Group_184418" data-name="Group 184418">
      <path id="Path_93958" data-name="Path 93958" d="M-2191.25,358.825a4.855,4.855,0,0,0-3.446,1.425l-47.822,47.821a4.876,4.876,0,0,0,0,6.893,4.876,4.876,0,0,0,6.893,0l47.821-47.821a4.875,4.875,0,0,0,0-6.892,4.857,4.857,0,0,0-3.446-1.425Z" transform="translate(-52.291 -956.863)" fill="#61a0e0"/>
      <path id="Path_93959" data-name="Path 93959" d="M-1725.45,358.825a4.872,4.872,0,0,0-4.872,4.871,4.873,4.873,0,0,0,4.872,4.872h95.642a4.872,4.872,0,0,0,4.871-4.872,4.871,4.871,0,0,0-4.871-4.871Z" transform="translate(-518.092 -956.863)" fill="#61a0e0"/>
      <path id="Path_93960" data-name="Path 93960" d="M-650.408-154.795a4.861,4.861,0,0,0-3.446,1.425l-47.82,47.821a4.873,4.873,0,0,0,0,6.892,4.873,4.873,0,0,0,6.892,0l47.821-47.821a4.876,4.876,0,0,0,0-6.893,4.861,4.861,0,0,0-3.447-1.425Z" transform="translate(-1449.67 -491.064)" fill="#61a0e0"/>
      <path id="Path_93961" data-name="Path 93961" d="M-184.6-154.795a4.872,4.872,0,0,0-4.871,4.872,4.872,4.872,0,0,0,4.871,4.871h47.821a4.872,4.872,0,0,0,4.872-4.871,4.872,4.872,0,0,0-4.872-4.872Z" transform="translate(-1915.478 -491.064)" fill="#61a0e0"/>
      <path id="Path_93962" data-name="Path 93962" d="M376.823-668.405a4.859,4.859,0,0,0-3.447,1.425l-47.821,47.821a4.874,4.874,0,0,0,0,6.893,4.875,4.875,0,0,0,6.892,0l47.821-47.821a4.875,4.875,0,0,0,0-6.892,4.857,4.857,0,0,0-3.446-1.425Z" transform="translate(-2381.259 -25.275)" fill="#61a0e0"/>
      <path id="Path_93963" data-name="Path 93963" d="M700.115-740.906l-16.879-3.858c-1.378-1.427-.934-2.973.992-3.452l14.067-3.5,14.067-3.5c1.925-.479,3.043.678,2.5,2.585l-4,13.933-4,13.934c-.547,1.907-2.108,2.3-3.486.868l-3.254-17.006Z" transform="translate(-2706.204 53.555)" fill="#61a0e0"/>
    </g>
    <path id="Path_93964" data-name="Path 93964" d="M-1620.3,909.865h65.5v94.1h-65.5v-94.1Z" transform="translate(-680.84 -1415.287)" fill="#94bce5"/>
    <path id="Path_93965" data-name="Path 93965" d="M-1331.782,909.865h25.557v94.094h-25.557V909.865Z" transform="translate(-929.421 -1415.287)" fill="#769fca"/>
    <path id="Path_93966" data-name="Path 93966" d="M-1015.161,596.955h65.5V734.366h-65.5V596.955Z" transform="translate(-1202.212 -1145.693)" fill="#94bce5"/>
    <path id="Path_93967" data-name="Path 93967" d="M-384.922,454.745h65.5v157.1h-65.5v-157.1Z" transform="translate(-1745.209 -1023.169)" fill="#94bce5"/>
    <path id="Path_93968" data-name="Path 93968" d="M247.058-10.825h65.5V210.72h-65.5V-10.825Z" transform="translate(-2289.705 -622.047)" fill="#94bce5"/>
    <path id="Path_93969" data-name="Path 93969" d="M903.578-308h65.5V-45.313h-65.5V-308Z" transform="translate(-2855.343 -366.014)" fill="#94bce5"/>
    <path id="Path_93970" data-name="Path 93970" d="M-726.642,596.955h25.557v137.41h-25.557V596.955Z" transform="translate(-1450.792 -1145.693)" fill="#769fca"/>
    <path id="Path_93971" data-name="Path 93971" d="M-96.392,596.955h25.555v137.41H-96.392V596.955Z" transform="translate(-1993.798 -1145.693)" fill="#446f9d"/>
    <path id="Path_93972" data-name="Path 93972" d="M-96.392,454.745h25.555v157.1H-96.392v-157.1Z" transform="translate(-1993.798 -1023.169)" fill="#769fca"/>
    <path id="Path_93973" data-name="Path 93973" d="M535.578-10.825h25.557V210.719H535.578V-10.825Z" transform="translate(-2538.285 -622.047)" fill="#769fca"/>
    <path id="Path_93974" data-name="Path 93974" d="M1192.1-308h25.557V-45.315H1192.1V-308Z" transform="translate(-3103.924 -366.014)" fill="#769fca"/>
    <path id="Path_93975" data-name="Path 93975" d="M-1115.329,611.535a.832.832,0,0,1-1.173.1l-.019-.015a.832.832,0,0,1-.1-1.174l9.6-11.47a.834.834,0,0,1,1.174-.1l.019.015a.834.834,0,0,1,.1,1.174l-9.6,11.47Z" transform="translate(-1114.626 -1147.181)" fill="#7d9dc7"/>
    <path id="Path_93976" data-name="Path 93976" d="M-1074.408,366.722a20.062,20.062,0,0,0-26.917,8.963,20.062,20.062,0,0,0,8.965,26.917,20.06,20.06,0,0,0,26.916-8.965,20.061,20.061,0,0,0-8.963-26.916Zm-.99,1.977a17.851,17.851,0,0,1,7.976,23.951,17.851,17.851,0,0,1-23.951,7.975,17.849,17.849,0,0,1-7.975-23.95,17.85,17.85,0,0,1,23.95-7.976Z" transform="translate(-1126.146 -945.5)" fill="#7d9dc7"/>
    <path id="Path_93977" data-name="Path 93977" d="M-1061.631,382.46a17.85,17.85,0,0,0-23.95,7.976,17.849,17.849,0,0,0,7.975,23.95,17.851,17.851,0,0,0,23.951-7.975,17.851,17.851,0,0,0-7.976-23.951Z" transform="translate(-1139.912 -959.262)" fill="#d5eaff"/>
    <path id="Path_93978" data-name="Path 93978" d="M-960.5,395.888a.457.457,0,0,0-.166-.082l-.123-.03c-.1-.024-.206-.047-.334-.073-.357-.072-.767-.141-1.221-.2a20.387,20.387,0,0,0-4.14-.112.467.467,0,0,0-.43.5.468.468,0,0,0,.5.432,19.545,19.545,0,0,1,3.951.105c.43.057.817.122,1.153.19.118.025.219.047.306.068l.1.024a.468.468,0,0,0,.572-.332.468.468,0,0,0-.165-.49Z" transform="translate(-1243.783 -971.982)" fill="#f2f8ff"/>
    <path id="Path_93979" data-name="Path 93979" d="M-1056.41,397.385a.467.467,0,0,0-.273-.03,17.467,17.467,0,0,0-5.15,1.789,18.937,18.937,0,0,0-5.714,4.666,15.668,15.668,0,0,0-1.375,1.968,10.816,10.816,0,0,0-.613,1.195c-.022.05-.04.094-.055.132l-.019.053a.469.469,0,0,0,.278.6.468.468,0,0,0,.6-.278s.008-.019.012-.03c.012-.029.026-.065.044-.108a10.275,10.275,0,0,1,.561-1.089,14.793,14.793,0,0,1,1.293-1.851,17.981,17.981,0,0,1,5.435-4.434,16.541,16.541,0,0,1,4.875-1.693.469.469,0,0,0,.374-.547.468.468,0,0,0-.272-.342Z" transform="translate(-1155.276 -973.716)" fill="#f2f8ff"/>
    <path id="Path_93980" data-name="Path 93980" d="M-1369.909,659.621a2.119,2.119,0,0,1,2.99-.165l.075.068a2.117,2.117,0,0,1,.165,2.99l-41.185,45.986a2.116,2.116,0,0,1-2.99.165l-.075-.066a2.118,2.118,0,0,1-.165-2.99l41.185-45.987Z" transform="translate(-860.622 -1199.077)" fill="#303030"/>
    <path id="Path_93981" data-name="Path 93981" d="M-1229.282,707.654l8.612-7.061.986-.807,2.53-.731-.629.716a4.271,4.271,0,0,0,1.13.788,16.991,16.991,0,0,0,2.259,1.29,2.929,2.929,0,0,0,.865-.233s.421,1.052.286,1.229a.927.927,0,0,1-.458.251,1.245,1.245,0,0,1-.047.759,1.062,1.062,0,0,1-.606.392.812.812,0,0,1-.129.669,1.3,1.3,0,0,1-.625.277s.064.465-.15.658a1.283,1.283,0,0,1-.731.17l-2.313.822-3.307-1.351-3.447,6.052-4.226-3.888Z" transform="translate(-1017.732 -1233.659)" fill="#ffe1c2"/>
    <path id="Path_93982" data-name="Path 93982" d="M-1124.938,724.433l-.172.055.058.215s-1.366-.753-1.405-.814,1.519.544,1.519.544Z" transform="translate(-1106.323 -1255.052)" fill="#e8caab"/>
    <path id="Path_93983" data-name="Path 93983" d="M-1128.388,732.222l-.179.06.022.2-1.167-.889,1.323.627Z" transform="translate(-1103.519 -1261.695)" fill="#e8caab"/>
    <path id="Path_93984" data-name="Path 93984" d="M-1133.544,739.739l-.249.062.005.252-1.114-.828,1.358.514Z" transform="translate(-1099.047 -1268.269)" fill="#e8caab"/>
    <path id="Path_93985" data-name="Path 93985" d="M-1411.079,879.155s.725,8.559,1.081,15.091.341,11.043.341,11.043l-7.5-2.427,6.082-23.707Z" transform="translate(-855.86 -1388.828)" fill="#ddd"/>
    <path id="Path_93986" data-name="Path 93986" d="M-1576.233,1070.469l-1.711,27.29s-1.261,3.421-1.939,13.555-.889,20.356-.889,20.356l7.28-.613s1.412-19.689,1.757-21.474c3.148-16.3,14.377-40.926,14.377-40.926l-18.875,1.813Z" transform="translate(-714.898 -1552.096)" fill="#001b35"/>
    <path id="Path_93987" data-name="Path 93987" d="M-1489.632,1053.542l2.377,16.6.152,19.588.072,24.806,3.889,1.833,3.411-2.251,2.251-25.677s4.326-23.029,4.688-28.136.7-11.009.7-11.009l-9.263-3-8.272,7.237Z" transform="translate(-793.422 -1532.84)" fill="#001b35"/>
    <path id="Path_93988" data-name="Path 93988" d="M-1583.305,864.225s-1.827,17.734-1.513,20.357c.3,2.512,4.365,4.282,4.365,4.282l1.329-5.24-4.18-19.4Z" transform="translate(-711.381 -1375.965)" fill="#205a92"/>
    <path id="Path_93989" data-name="Path 93989" d="M-1574.352,870.945l3.176,20.029-.511,10.562,2.667-10.026-5.332-20.565Z" transform="translate(-720.43 -1381.755)" fill="#123c65"/>
    <path id="Path_93990" data-name="Path 93990" d="M-1486.982,760.21l.455,1.314,7.748,2.539.539-2.11-2.694-2.168-6.048.425Z" transform="translate(-795.705 -1285.983)" fill="#ffe1c2"/>
    <path id="Path_93991" data-name="Path 93991" d="M-1563.788,785.257l1.726-2.432,6.042.523,2.432,2.511,5.349,1.739a87.059,87.059,0,0,1,3.713,17.236c1.011,9.444-2.7,9.931-2.348,16.7s-3.04,10.143-3.641,10.518c-1.555.969-9.171-1.024-9.171-1.024l-1.912-1.243-2.568,1.127s-8.478,1.833-8.214.17c.15-.943,3.365-13.63,3.088-16.189-.374-3.476-3.979-15.76-4.4-20.8-.268-3.177,9.906-8.836,9.906-8.836Z" transform="translate(-720.991 -1305.833)" fill="#205a92"/>
    <path id="Path_93992" data-name="Path 93992" d="M-1489.632,773.4l.822-1.451s3.557-.406,5.826.832a8.229,8.229,0,0,1,3.252,4.117l-1.426-.464-2.432-2.511-6.042-.523Z" transform="translate(-793.422 -1296.408)" fill="#ddd"/>
    <path id="Path_93993" data-name="Path 93993" d="M-1425.406,765.757c-10.569,2.5-8.4-7.334-5.287-9.484,1.865-1.292,17.172-1.163,17.172-1.163l11.012-8.765,4.437,4.038s-10.317,11.412-12.211,12.5c-2.55,1.46-10.86,1.869-15.123,2.877Z" transform="translate(-842.001 -1274.403)" fill="#205a92"/>
    <path id="Path_93994" data-name="Path 93994" d="M-1209.348,735.415l-1.844,1.513,4.125,3.754,1.4-1.469-3.685-3.8Z" transform="translate(-1033.318 -1264.986)" fill="#ddd"/>
    <path id="Path_93995" data-name="Path 93995" d="M-1442.559,756.975l-.073.642a1.657,1.657,0,0,0,.367,1.422,8.58,8.58,0,0,0,1.937,1.541l.267-1.048-2.5-2.557Z" transform="translate(-833.884 -1283.562)" fill="#edd0b2"/>
    <path id="Path_93996" data-name="Path 93996" d="M-1453.764,679.813c-.462-3.94.6-7.3,2.377-7.511s3.589,2.817,4.052,6.757-.6,7.3-2.378,7.513-3.588-2.817-4.05-6.758Z" transform="translate(-824.231 -1210.6)" fill="#ffe1c2"/>
    <path id="Path_93997" data-name="Path 93997" d="M-1463,1529.1l4.74,4.653s3.32-1.216,3.83.7-.234,1.668-.234,1.668l-15.9.132.031-5.922s2.7,1.4,4.169,1.024A10.167,10.167,0,0,0-1463,1529.1Z" transform="translate(-809.852 -1948.807)" fill="#303030"/>
    <path id="Path_93998" data-name="Path 93998" d="M-1470.328,1578.194l-.014,1.221,16.238.222.005-1.6-13.447.2-2.782-.037Z" transform="translate(-810.042 -1990.963)"/>
    <path id="Path_93999" data-name="Path 93999" d="M-1583.8,1524.38l.186-3.238.234-4.621a7.2,7.2,0,0,1,3.469-1.177,28.544,28.544,0,0,1,3.811.563l.89,3.947,1.406,3.256.561,1.674-10.557-.4Z" transform="translate(-712.288 -1936.949)" fill="#303030"/>
    <path id="Path_94000" data-name="Path 94000" d="M-1584.852,1579.042a13.621,13.621,0,0,1,.172-1.7h10.242s.288,0,.353,1.7" transform="translate(-711.383 -1990.369)"/>
    <path id="Path_94001" data-name="Path 94001" d="M-1498.148,659.815a2.643,2.643,0,0,1-.091,2.778,2.159,2.159,0,0,0-.318,2.027c.385,1.653-.761,3.912-.761,3.912a4.058,4.058,0,0,0-.493-1.883,3.007,3.007,0,0,0-.909-.663,2.279,2.279,0,0,0-1.146,1.478,6.024,6.024,0,0,0,.547,2.975l-.965,1.913h-5.833s-4.085-4.743-3.295-8.757c1.715-8.706,12.481-5.451,13.266-3.781Z" transform="translate(-774.568 -1198.125)" fill="#000d19"/>
    <path id="Path_94002" data-name="Path 94002" d="M-1424.022,729.735l.24,4.308.112,1.944,2.161,1.1-.761-2.6-.905-.169-.846-4.585Z" transform="translate(-849.95 -1260.092)" fill="#000d19"/>
    <path id="Path_94003" data-name="Path 94003" d="M-1530.026,1157.525l-1.48,12.652a94.694,94.694,0,0,0-4.1,15.637c-1.66,9.262-1.567,21.569-1.567,21.569l1.243.241s1.412-19.687,1.757-21.473a130.525,130.525,0,0,1,4.9-17.19l1.057-2.99-1.806-8.446Z" transform="translate(-752.457 -1628.664)" fill="#000d19"/>
    <path id="Path_94004" data-name="Path 94004" d="M-1401.645,879.155l-4.567.126a22.175,22.175,0,0,1,3.482,10.127c.354,3.862-.208,9.143-.278,12.317a6.527,6.527,0,0,0,.439,2.8c-.33-6.278,2.829-7.165,2.486-14.788-.037-.628-.066-1.249-.138-1.914-.115-1.073-.26-2.117-.413-3.138-.034-.234-.068-.468-.1-.7-.075-.469-.159-.912-.24-1.366-.208-1.182-.426-2.339-.655-3.4l-.012-.065Z" transform="translate(-865.294 -1388.828)" fill="#1a4d7f"/>
    <path id="Path_94005" data-name="Path 94005" d="M299.251,1403.349s.883,2.287,1.411,3.409.98,1.055,1.519,1.79c.6.819-.68,1.771-2.456,1.074s-4.644-3.861-4.644-3.861l.111-2.337-6.532-16.178,5.865-2.262,4.727,18.364Z" transform="translate(-2325.546 -1824.637)" fill="#efcbab"/>
    <path id="Path_94006" data-name="Path 94006" d="M327.588,1533.715s-1.964,2.479-.667,4.012a2.089,2.089,0,0,0,.285.278.76.76,0,0,1,.184.415l1.427.4c.166-.4.383-.695.682-.644,2.309.5,4.028,3.09,4.722,3.236.735.155,5.3-.138,5.4-.836.136-1.009-4.914-4.109-4.914-4.109a1.794,1.794,0,0,1-2.432.919c-1.78-.688-4.684-3.671-4.683-3.671Z" transform="translate(-2358.13 -1952.779)" fill="#413f3f"/>
    <path id="Path_94007" data-name="Path 94007" d="M291.7,1403.424l-.107,2.229,1.323,1.258-.412-3.5v0l-7.9-18.421,7.093,18.439Z" transform="translate(-2322.057 -1824.637)" fill="#ddbb9c"/>
    <path id="Path_94008" data-name="Path 94008" d="M115.308,1383.6a106.762,106.762,0,0,1,1.669,11.106c.271,4.253-.332,3.876-.4,6.416s-.415,4.619,2.489,4.524c2.233-.073,1.876-1.636,1.771-3.91s-.419-5.863-.419-5.863c-.257-3.157.934-16.551.934-16.551l-6.047,4.277Z" transform="translate(-2176.192 -1819.76)" fill="#efcbab"/>
    <path id="Path_94009" data-name="Path 94009" d="M121.979,1513.1l.2,4.4a3.929,3.929,0,0,0,1.791.969,2.223,2.223,0,0,0,1.856-.468c.821-.49.069-7.726.069-7.726s1.186,5.462.752,8.2-.462,2.681-2.205,2.773c-1.286.068-2.929-.179-2.929-2.4,0-2.1.461-5.743.461-5.743Z" transform="translate(-2181.542 -1932.583)" fill="#413f3f"/>
    <path id="Path_94010" data-name="Path 94010" d="M334.5,1567.447l.04,2.633h-.626l-.842-3.032a1.869,1.869,0,0,1,.882-.075,1,1,0,0,1,.545.473Z" transform="translate(-2363.808 -1981.406)" fill="#413f3f"/>
    <path id="Path_94011" data-name="Path 94011" d="M70.007,1057.265s-1.394,1.294-.635,8.785,3.671,21.181,3.671,21.181l2.853,26.29,5.914-.831-1.236-26.029,2.136-29.4Z" transform="translate(-2136.419 -1542.283)" fill="#0e2c48"/>
    <path id="Path_94012" data-name="Path 94012" d="M163.1,1057.265l-.646,8.9,11.012,24.488,8.727,21.913,6.224-1.387-8.3-26.995s-1.372-7.407-2.719-14.02a128.921,128.921,0,0,0-3.422-12.895Z" transform="translate(-2216.815 -1542.283)" fill="#0e2c48"/>
    <path id="Path_94013" data-name="Path 94013" d="M66.575,767.526l-.465,1.937-6.872,3.278,3.223,23.408-.99,10.527H85.047l-1.279-12.359,2.5-25.219-8.846-1.253L75.6,766.415l-9.027,1.111Z" transform="translate(-2127.884 -1291.695)" fill="#d8eafc"/>
    <path id="Path_94014" data-name="Path 94014" d="M54.651,788.435s5.2,5.116,6.645,15.689.181,23.813-1.188,27.126c-1.071,2.594-14.17,2.082-14.17,2.082L51,815.121l-3.223-23.408,6.872-3.278Z" transform="translate(-2116.425 -1310.667)" fill="#3f71a1"/>
    <path id="Path_94015" data-name="Path 94015" d="M186.411,776.755s-1.012,41.166-.557,43.743c.514,2.911,11.6,1.588,11.6,1.588l-4.7-18.86,2.5-25.219-8.846-1.253Z" transform="translate(-2236.872 -1300.604)" fill="#3f71a1"/>
    <path id="Path_94016" data-name="Path 94016" d="M109.344,774.445l-.465,1.937,2.775,3.873,1.92-.886,2.216,1.052-6.447-5.976Z" transform="translate(-2170.653 -1298.613)" fill="#b1bcc7"/>
    <path id="Path_94017" data-name="Path 94017" d="M161.388,766.415l-2.58,7.088,2.028-1.967,1.094,1.507,1.28-5.2-1.822-1.431Z" transform="translate(-2213.671 -1291.695)" fill="#b1bcc7"/>
    <path id="Path_94018" data-name="Path 94018" d="M94.568,789.379l2.209,4.907,2.261.951-1.53,1.188s1.834.908,3.392,4.363a60.024,60.024,0,0,1,2.838,9.46,58.649,58.649,0,0,0-2.154-12.924,25.972,25.972,0,0,0-5.035-8.89l-1.981.944Z" transform="translate(-2158.323 -1310.667)" fill="#203e5b"/>
    <path id="Path_94019" data-name="Path 94019" d="M187.472,776.755l1.73.245,1.692,7.357-1.166.728.844,1.834-3.6,13.837.5-24Z" transform="translate(-2237.932 -1300.604)" fill="#203e5b"/>
    <path id="Path_94020" data-name="Path 94020" d="M76.748,986.449l2.946-2.544,2.669.239-5.615,2.3Z" transform="translate(-2142.97 -1479.078)" fill="#30587f"/>
    <path id="Path_94021" data-name="Path 94021" d="M40.7,812.115s-4.048,18.351-2.706,24.413,7.957-.09,7.957-.09l-2.675-5.615L42.263,813.4" transform="translate(-2109.344 -1331.069)" fill="#3f71a1"/>
    <path id="Path_94022" data-name="Path 94022" d="M48.287,940.455l.292,1.249a2.675,2.675,0,0,0-2.267.73,16.612,16.612,0,0,0-2.614,3.328,16.742,16.742,0,0,1,2.151-3.88,3.944,3.944,0,0,1,2.438-1.426Z" transform="translate(-2114.495 -1441.643)" fill="#30587f"/>
    <path id="Path_94023" data-name="Path 94023" d="M71.186,953.829c-.85-1.392-.871-2.93-.044-3.434s2.184.216,3.034,1.609.871,2.931.046,3.434-2.185-.216-3.036-1.609Z" transform="translate(-2137.617 -1450.068)" fill="#203e5b"/>
    <path id="Path_94024" data-name="Path 94024" d="M241.36,785.805s4.532,15.723,4.143,22.749c-.274,4.932-5.929,5.343-5.929,5.343l-.327-6.791.4-4.009.114-10.723,1.6-6.57Z" transform="translate(-2282.975 -1308.401)" fill="#3f71a1"/>
    <path id="Path_94025" data-name="Path 94025" d="M240.518,847.265l-1.27,12.794,3.037-.856s-1.091-.014-1.532-3a68.659,68.659,0,0,1-.235-8.94Z" transform="translate(-2282.975 -1361.353)" fill="#30587f"/>
    <path id="Path_94026" data-name="Path 94026" d="M228.068,941.992c0-1.92.832-3.477,1.859-3.477s2.453,1.427,2.453,3.347-1.427,3.606-2.453,3.606-1.859-1.556-1.859-3.476Z" transform="translate(-2273.343 -1439.971)" fill="#203e5b"/>
    <path id="Path_94027" data-name="Path 94027" d="M98.028,833.265h18v21.523h-18V833.265Z" transform="translate(-2161.304 -1349.291)" fill="#303030"/>
    <path id="Path_94028" data-name="Path 94028" d="M78.966,910.666s.27,1.632-.478,2.088a1.3,1.3,0,0,1-2-.9,7.481,7.481,0,0,1,.01-2.954l-.21-.734-.111-.761a2.489,2.489,0,0,1-.084-.677,3.9,3.9,0,0,1,.114-.772l1.262-3.224,2.7-.473a1.894,1.894,0,0,1-.462,1.268,2.555,2.555,0,0,1-1.431.415l.3,1.11,2.562.27,2.421,1.118s.169.943-.563,1a7.067,7.067,0,0,1-2.366-.768l-1.5.644,2.943.386,2.331.933a.7.7,0,0,1-.716.707,7.9,7.9,0,0,1-2.238-.454l-2.32.231,3.592.352s.314.313.277.508-.431.271-.431.271l-3.271.078-.332.342Z" transform="translate(-2142.407 -1408.731)" fill="#eed2b6"/>
    <path id="Path_94029" data-name="Path 94029" d="M194.972,921.177l.255-2.973-2.052-1.779-3.354.313s-.352.811.281,1.092a5.956,5.956,0,0,0,2.247.03l.631.821-3.073-.015-2.436.37s-.284.61.586.871a5.956,5.956,0,0,0,2.243,0l1.938.627-2.553-.012-2.749.572s-.107.5.638.651a10.488,10.488,0,0,0,2.338-.039l2.582.245-4.636.12s-.449.273-.418.484.541.36.541.36l4.194.415a3.2,3.2,0,0,0,1.366,1.289c.829.321,1.426.876,1.95,0s-.519-3.437-.519-3.437Z" transform="translate(-2237.9 -1420.939)" fill="#eed2b6"/>
    <path id="Path_94030" data-name="Path 94030" d="M124.128,732.875l-.339,7.237,4.848,4.493,2.58-7.088.3-1.86-7.392-2.782Z" transform="translate(-2183.499 -1262.798)" fill="#eed2b6"/>
    <path id="Path_94031" data-name="Path 94031" d="M125.888,753.235l7.755.064s-1.472,4.107-3.891,3.934c-3.463-.246-3.864-4-3.864-4Z" transform="translate(-2185.308 -1280.339)" fill="#dac0a5"/>
    <path id="Path_94032" data-name="Path 94032" d="M117.228,672.169c0-4.194,2.267-7.594,5.062-7.594s5.064,3.4,5.064,7.594-2.267,7.594-5.064,7.594-5.062-3.4-5.062-7.594Z" transform="translate(-2177.846 -1203.952)" fill="#eed2b6"/>
    <path id="Path_94033" data-name="Path 94033" d="M84.55,647.431l1.52,3.833a10.821,10.821,0,0,0-3.882,6.923c-.757,4.74.454,13.145.454,13.145s-1.776.891-3.144-1.364c-1.167-1.927-4.621-.781-4.621-.781s2.381-3.232,2.726-5.934c.523-4.093-1.836-6.855-.213-10.4,2.694-5.887,7.16-5.421,7.16-5.421Z" transform="translate(-2141.359 -1189.174)"/>
    <path id="Path_94034" data-name="Path 94034" d="M144.748,646.7l1.52,3.833s3.764.511,4.534,3.707-1.527,8.923-1.527,8.923l2.266,5.174,4.121-3.1s-1.455-.035-2.443-4.206,2.467-5.871-.889-10.689-7.582-3.646-7.582-3.646Z" transform="translate(-2201.557 -1188.446)"/>
    <path id="Path_94035" data-name="Path 94035" d="M72.758,953.9l.815-.821a4.249,4.249,0,0,0,.728,2.29,1.855,1.855,0,0,0,1.8.287s.091,1.3-.529,1.506-1.157.216-1.953-.678a4.848,4.848,0,0,1-.858-2.583Z" transform="translate(-2139.532 -1452.516)" fill="#b1bcc7"/>
    <path id="Path_94036" data-name="Path 94036" d="M233.3,953.775l1.154.808a5.653,5.653,0,0,1-.314,2.45,1.574,1.574,0,0,1-1.3.755l-1.606-1.258a5.893,5.893,0,0,0,1.718-1.39,1.755,1.755,0,0,0,.349-1.365Z" transform="translate(-2276.074 -1453.119)" fill="#b1bcc7"/>
  </g>
</svg>
