<svg width="476" height="331" viewBox="0 0 476 331" fill="none" xmlns="http://www.w3.org/2000/svg">
<path d="M172.546 2.81738H362.186C364.642 2.81942 366.996 3.79787 368.732 5.53776C370.468 7.27765 371.443 9.63666 371.444 12.0966V147.445H171.378C169.233 147.445 167.175 146.592 165.658 145.072C164.141 143.552 163.288 141.491 163.288 139.341V12.0966C163.289 9.63666 164.264 7.27765 166 5.53776C167.736 3.79787 170.091 2.81942 172.546 2.81738Z" fill="#4E95CF"/>
<path d="M364.637 12.8439V137.43C364.63 138.682 364.129 139.88 363.244 140.764C362.358 141.647 361.16 142.144 359.911 142.147H174.81C173.562 142.143 172.367 141.645 171.485 140.762C170.602 139.878 170.105 138.68 170.102 137.43V12.8439C170.101 11.5911 170.596 10.3892 171.479 9.50168C172.362 8.61415 173.56 8.11345 174.81 8.10938H359.911C361.163 8.11276 362.363 8.61266 363.249 9.49983C364.135 10.387 364.634 11.5893 364.637 12.8439Z" fill="#FEFEFE"/>
<path d="M163.28 147.444H371.443V165.076C371.443 167.699 370.403 170.213 368.552 172.068C366.701 173.922 364.19 174.964 361.573 174.964H164.135C164.023 174.964 163.912 174.942 163.809 174.899C163.705 174.856 163.611 174.793 163.532 174.713C163.453 174.634 163.39 174.54 163.347 174.436C163.304 174.332 163.282 174.221 163.282 174.109V147.444H163.28Z" fill="#4E95CF"/>
<path d="M311.867 189.023H222.868C222.713 189.023 222.588 189.149 222.588 189.303V194.728C222.588 194.882 222.713 195.008 222.868 195.008H311.867C312.022 195.008 312.147 194.882 312.147 194.728V189.303C312.147 189.149 312.022 189.023 311.867 189.023Z" fill="#4E95CF"/>
<path d="M289.179 174.964H268.258H266.478H245.554L236.652 189.229H266.478H268.258H298.083L289.179 174.964Z" fill="#0E314C"/>
<path d="M267.366 153.87C265.918 153.87 264.502 154.3 263.298 155.106C262.094 155.912 261.156 157.057 260.602 158.398C260.048 159.738 259.903 161.212 260.185 162.635C260.468 164.058 261.165 165.364 262.189 166.39C263.213 167.416 264.517 168.114 265.938 168.397C267.358 168.68 268.83 168.535 270.168 167.98C271.505 167.425 272.649 166.485 273.453 165.279C274.258 164.073 274.687 162.655 274.687 161.204C274.686 159.259 273.915 157.394 272.542 156.019C271.169 154.644 269.307 153.871 267.366 153.87ZM267.366 167.271C266.168 167.27 264.997 166.914 264.001 166.246C263.005 165.579 262.228 164.631 261.77 163.522C261.312 162.413 261.193 161.192 261.427 160.015C261.661 158.838 262.239 157.757 263.086 156.908C263.934 156.06 265.014 155.482 266.189 155.249C267.364 155.015 268.582 155.136 269.689 155.596C270.796 156.055 271.742 156.834 272.407 157.832C273.073 158.83 273.427 160.004 273.427 161.204C273.427 162.003 273.27 162.793 272.965 163.531C272.659 164.268 272.211 164.938 271.647 165.502C271.082 166.065 270.412 166.512 269.675 166.815C268.937 167.119 268.148 167.274 267.351 167.271H267.366Z" fill="#FEFFFF"/>
<path d="M364.637 12.8439V21.1326H170.102V12.8439C170.101 11.5911 170.596 10.3892 171.479 9.50168C172.362 8.61415 173.56 8.11345 174.81 8.10938H359.911C361.163 8.11276 362.363 8.61266 363.249 9.49983C364.135 10.387 364.634 11.5893 364.637 12.8439Z" fill="#3A6F9C"/>
<path d="M293.987 10.5957H196.636C196.45 10.5957 196.298 10.7474 196.298 10.9344V17.5243C196.298 17.7114 196.45 17.863 196.636 17.863H293.987C294.174 17.863 294.325 17.7114 294.325 17.5243V10.9344C294.325 10.7474 294.174 10.5957 293.987 10.5957Z" fill="#FEFEFE"/>
<path d="M301.779 17.5442C303.598 16.8624 304.522 14.8323 303.841 13.0098C303.16 11.1872 301.134 10.2625 299.314 10.9442C297.495 11.626 296.572 13.6562 297.253 15.4787C297.933 17.3012 299.96 18.226 301.779 17.5442Z" fill="#FEFEFE"/>
<path d="M310.256 12.6006H130.694C126.733 12.6006 123.521 15.8175 123.521 19.7858V159.587C123.521 163.555 126.733 166.772 130.694 166.772H310.256C314.218 166.772 317.429 163.555 317.429 159.587V19.7858C317.429 15.8175 314.218 12.6006 310.256 12.6006Z" fill="#3A6F9C"/>
<path d="M165.818 64.3682H152.277C152.243 64.3682 152.216 64.3957 152.216 64.4297V66.1106C152.216 66.1446 152.243 66.1721 152.277 66.1721H165.818C165.852 66.1721 165.88 66.1446 165.88 66.1106V64.4297C165.88 64.3957 165.852 64.3682 165.818 64.3682Z" fill="#C7CDE5"/>
<path d="M165.818 70.0771H152.277C152.243 70.0771 152.216 70.1047 152.216 70.1387V71.8195C152.216 71.8536 152.243 71.8811 152.277 71.8811H165.818C165.852 71.8811 165.88 71.8536 165.88 71.8195V70.1387C165.88 70.1047 165.852 70.0771 165.818 70.0771Z" fill="#C7CDE5"/>
<path d="M165.818 84.7197H152.277C152.243 84.7197 152.216 84.7473 152.216 84.7813V86.4621C152.216 86.4962 152.243 86.5237 152.277 86.5237H165.818C165.852 86.5237 165.88 86.4962 165.88 86.4621V84.7813C165.88 84.7473 165.852 84.7197 165.818 84.7197Z" fill="#C7CDE5"/>
<path d="M172.65 89.2314H159.109C159.075 89.2314 159.048 89.259 159.048 89.2931V90.9739C159.048 91.0079 159.075 91.0355 159.109 91.0355H172.65C172.684 91.0355 172.712 91.0079 172.712 90.9739V89.2931C172.712 89.259 172.684 89.2314 172.65 89.2314Z" fill="#C7CDE5"/>
<path d="M190.025 89.2314H176.484C176.45 89.2314 176.422 89.259 176.422 89.2931V90.9739C176.422 91.0079 176.45 91.0355 176.484 91.0355H190.025C190.059 91.0355 190.086 91.0079 190.086 90.9739V89.2931C190.086 89.259 190.059 89.2314 190.025 89.2314Z" fill="#C7CDE5"/>
<path d="M183.193 84.7197H169.652C169.618 84.7197 169.59 84.7473 169.59 84.7813V86.4621C169.59 86.4962 169.618 86.5237 169.652 86.5237H183.193C183.226 86.5237 183.254 86.4962 183.254 86.4621V84.7813C183.254 84.7473 183.226 84.7197 183.193 84.7197Z" fill="url(#paint0_linear_680_229)"/>
<path d="M229.693 98.249H216.152C216.118 98.249 216.091 98.2766 216.091 98.3106V99.9914C216.091 100.025 216.118 100.053 216.152 100.053H229.693C229.727 100.053 229.754 100.025 229.754 99.9914V98.3106C229.754 98.2766 229.727 98.249 229.693 98.249Z" fill="url(#paint1_linear_680_229)"/>
<path d="M203.689 102.762H190.148C190.114 102.762 190.086 102.789 190.086 102.823V104.504C190.086 104.538 190.114 104.566 190.148 104.566H203.689C203.723 104.566 203.75 104.538 203.75 104.504V102.823C203.75 102.789 203.723 102.762 203.689 102.762Z" fill="url(#paint2_linear_680_229)"/>
<path d="M183.193 106.632H169.652C169.618 106.632 169.59 106.659 169.59 106.693V108.374C169.59 108.408 169.618 108.436 169.652 108.436H183.193C183.226 108.436 183.254 108.408 183.254 108.374V106.693C183.254 106.659 183.226 106.632 183.193 106.632Z" fill="url(#paint3_linear_680_229)"/>
<path d="M183.193 112.839H169.652C169.618 112.839 169.59 112.866 169.59 112.9V114.581C169.59 114.615 169.618 114.643 169.652 114.643H183.193C183.226 114.643 183.254 114.615 183.254 114.581V112.9C183.254 112.866 183.226 112.839 183.193 112.839Z" fill="url(#paint4_linear_680_229)"/>
<path d="M201.252 112.839H187.711C187.677 112.839 187.65 112.866 187.65 112.9V114.581C187.65 114.615 187.677 114.643 187.711 114.643H201.252C201.286 114.643 201.314 114.615 201.314 114.581V112.9C201.314 112.866 201.286 112.839 201.252 112.839Z" fill="url(#paint5_linear_680_229)"/>
<path d="M213.329 84.7197H199.788C199.754 84.7197 199.726 84.7473 199.726 84.7813V86.4621C199.726 86.4962 199.754 86.5237 199.788 86.5237H213.329C213.362 86.5237 213.39 86.4962 213.39 86.4621V84.7813C213.39 84.7473 213.362 84.7197 213.329 84.7197Z" fill="url(#paint6_linear_680_229)"/>
<path d="M198.816 84.7197H185.275C185.241 84.7197 185.214 84.7473 185.214 84.7813V86.4621C185.214 86.4962 185.241 86.5237 185.275 86.5237H198.816C198.85 86.5237 198.878 86.4962 198.878 86.4621V84.7813C198.878 84.7473 198.85 84.7197 198.816 84.7197Z" fill="#C7CDE5"/>
<path d="M220.74 89.2314H207.199C207.165 89.2314 207.138 89.259 207.138 89.2931V90.9739C207.138 91.0079 207.165 91.0355 207.199 91.0355H220.74C220.774 91.0355 220.802 91.0079 220.802 90.9739V89.2931C220.802 89.259 220.774 89.2314 220.74 89.2314Z" fill="#C7CDE5"/>
<path d="M230.408 84.7197H216.867C216.833 84.7197 216.806 84.7473 216.806 84.7813V86.4621C216.806 86.4962 216.833 86.5237 216.867 86.5237H230.408C230.442 86.5237 230.47 86.4962 230.47 86.4621V84.7813C230.47 84.7473 230.442 84.7197 230.408 84.7197Z" fill="url(#paint7_linear_680_229)"/>
<path d="M205.991 89.2314H192.45C192.416 89.2314 192.388 89.259 192.388 89.2931V90.9739C192.388 91.0079 192.416 91.0355 192.45 91.0355H205.991C206.025 91.0355 206.052 91.0079 206.052 90.9739V89.2931C206.052 89.259 206.025 89.2314 205.991 89.2314Z" fill="url(#paint8_linear_680_229)"/>
<path d="M246.032 84.7197H232.491C232.457 84.7197 232.429 84.7473 232.429 84.7813V86.4621C232.429 86.4962 232.457 86.5237 232.491 86.5237H246.032C246.066 86.5237 246.093 86.4962 246.093 86.4621V84.7813C246.093 84.7473 246.066 84.7197 246.032 84.7197Z" fill="#C7CDE5"/>
<path d="M165.818 79.5205H152.277C152.243 79.5205 152.216 79.5481 152.216 79.5821V81.2629C152.216 81.2969 152.243 81.3245 152.277 81.3245H165.818C165.852 81.3245 165.88 81.2969 165.88 81.2629V79.5821C165.88 79.5481 165.852 79.5205 165.818 79.5205Z" fill="#C7CDE5"/>
<path d="M178.849 93.7412H165.308C165.274 93.7412 165.246 93.7688 165.246 93.8028V95.4836C165.246 95.5176 165.274 95.5452 165.308 95.5452H178.849C178.883 95.5452 178.91 95.5176 178.91 95.4836V93.8028C178.91 93.7688 178.883 93.7412 178.849 93.7412Z" fill="#C7CDE5"/>
<path d="M187.588 102.762H174.047C174.013 102.762 173.986 102.789 173.986 102.823V104.504C173.986 104.538 174.013 104.566 174.047 104.566H187.588C187.622 104.566 187.65 104.538 187.65 104.504V102.823C187.65 102.789 187.622 102.762 187.588 102.762Z" fill="#C7CDE5"/>
<path d="M177.631 119.047H164.09C164.056 119.047 164.028 119.074 164.028 119.108V120.789C164.028 120.823 164.056 120.851 164.09 120.851H177.631C177.664 120.851 177.692 120.823 177.692 120.789V119.108C177.692 119.074 177.664 119.047 177.631 119.047Z" fill="#C7CDE5"/>
<path d="M212.324 98.251H186.123C186.09 98.251 186.062 98.2785 186.062 98.3126V99.9934C186.062 100.027 186.09 100.055 186.123 100.055H212.324C212.358 100.055 212.386 100.027 212.386 99.9934V98.3126C212.386 98.2785 212.358 98.251 212.324 98.251Z" fill="#C7CDE5"/>
<path d="M259.194 98.251H232.994C232.96 98.251 232.932 98.2785 232.932 98.3126V99.9934C232.932 100.027 232.96 100.055 232.994 100.055H259.194C259.228 100.055 259.256 100.027 259.256 99.9934V98.3126C259.256 98.2785 259.228 98.251 259.194 98.251Z" fill="#C7CDE5"/>
<path d="M209.993 123.691H166.739C166.705 123.691 166.678 123.719 166.678 123.753V125.434C166.678 125.468 166.705 125.495 166.739 125.495H209.993C210.027 125.495 210.054 125.468 210.054 125.434V123.753C210.054 123.719 210.027 123.691 209.993 123.691Z" fill="#C7CDE5"/>
<path d="M251.384 112.731H208.13C208.096 112.731 208.069 112.759 208.069 112.793V114.474C208.069 114.508 208.096 114.535 208.13 114.535H251.384C251.418 114.535 251.445 114.508 251.445 114.474V112.793C251.445 112.759 251.418 112.731 251.384 112.731Z" fill="#C9E4F9"/>
<path d="M222.942 132.157H179.688C179.654 132.157 179.627 132.185 179.627 132.219V133.9C179.627 133.934 179.654 133.961 179.688 133.961H222.942C222.976 133.961 223.004 133.934 223.004 133.9V132.219C223.004 132.185 222.976 132.157 222.942 132.157Z" fill="#C9E4F9"/>
<path d="M213.912 106.632H187.711C187.677 106.632 187.65 106.659 187.65 106.693V108.374C187.65 108.408 187.677 108.436 187.711 108.436H213.912C213.946 108.436 213.974 108.408 213.974 108.374V106.693C213.974 106.659 213.946 106.632 213.912 106.632Z" fill="#C7CDE5"/>
<path d="M273.588 106.632H247.388C247.354 106.632 247.326 106.659 247.326 106.693V108.374C247.326 108.408 247.354 108.436 247.388 108.436H273.588C273.622 108.436 273.65 108.408 273.65 108.374V106.693C273.65 106.659 273.622 106.632 273.588 106.632Z" fill="#C7CDE5"/>
<path d="M243.571 106.632H217.37C217.336 106.632 217.309 106.659 217.309 106.693V108.374C217.309 108.408 217.336 108.436 217.37 108.436H243.571C243.605 108.436 243.632 108.408 243.632 108.374V106.693C243.632 106.659 243.605 106.632 243.571 106.632Z" fill="#C9E4F9"/>
<path d="M193.918 127.583H167.717C167.683 127.583 167.656 127.611 167.656 127.645V129.325C167.656 129.359 167.683 129.387 167.717 129.387H193.918C193.952 129.387 193.979 129.359 193.979 129.325V127.645C193.979 127.611 193.952 127.583 193.918 127.583Z" fill="#C9E4F9"/>
<path d="M238.644 123.691H212.443C212.409 123.691 212.382 123.719 212.382 123.753V125.434C212.382 125.468 212.409 125.495 212.443 125.495H238.644C238.678 125.495 238.705 125.468 238.705 125.434V123.753C238.705 123.719 238.678 123.691 238.644 123.691Z" fill="#C9E4F9"/>
<path d="M162.325 139.279H148.784C148.75 139.279 148.723 139.307 148.723 139.341V141.022C148.723 141.056 148.75 141.083 148.784 141.083H162.325C162.359 141.083 162.387 141.056 162.387 141.022V139.341C162.387 139.307 162.359 139.279 162.325 139.279Z" fill="#C7CDE5"/>
<path d="M194.684 143.923H151.43C151.396 143.923 151.369 143.95 151.369 143.984V145.665C151.369 145.699 151.396 145.727 151.43 145.727H194.684C194.718 145.727 194.746 145.699 194.746 145.665V143.984C194.746 143.95 194.718 143.923 194.684 143.923Z" fill="#C7CDE5"/>
<path d="M207.635 152.39H164.382C164.348 152.39 164.32 152.417 164.32 152.451V154.132C164.32 154.166 164.348 154.194 164.382 154.194H207.635C207.669 154.194 207.697 154.166 207.697 154.132V152.451C207.697 152.417 207.669 152.39 207.635 152.39Z" fill="#C9E4F9"/>
<path d="M178.611 147.814H152.411C152.377 147.814 152.349 147.842 152.349 147.876V149.557C152.349 149.591 152.377 149.618 152.411 149.618H178.611C178.645 149.618 178.673 149.591 178.673 149.557V147.876C178.673 147.842 178.645 147.814 178.611 147.814Z" fill="#C9E4F9"/>
<path d="M223.339 143.923H197.138C197.104 143.923 197.076 143.95 197.076 143.984V145.665C197.076 145.699 197.104 145.727 197.138 145.727H223.339C223.373 145.727 223.4 145.699 223.4 145.665V143.984C223.4 143.95 223.373 143.923 223.339 143.923Z" fill="#C9E4F9"/>
<path d="M224.716 74.3223H198.515C198.481 74.3223 198.454 74.3498 198.454 74.3839V76.0647C198.454 76.0987 198.481 76.1263 198.515 76.1263H224.716C224.75 76.1263 224.777 76.0987 224.777 76.0647V74.3839C224.777 74.3498 224.75 74.3223 224.716 74.3223Z" fill="#C9E4F9"/>
<path d="M165.818 74.3223H152.277C152.243 74.3223 152.216 74.3498 152.216 74.3839V76.0647C152.216 76.0987 152.243 76.1263 152.277 76.1263H165.818C165.852 76.1263 165.88 76.0987 165.88 76.0647V74.3839C165.88 74.3498 165.852 74.3223 165.818 74.3223Z" fill="url(#paint9_linear_680_229)"/>
<path d="M193.89 74.3223H167.743C167.709 74.3223 167.681 74.3498 167.681 74.3839V76.0647C167.681 76.0987 167.709 76.1263 167.743 76.1263H193.89C193.924 76.1263 193.951 76.0987 193.951 76.0647V74.3839C193.951 74.3498 193.924 74.3223 193.89 74.3223Z" fill="#C7CDE5"/>
<path d="M143.406 12.6047V166.774H130.69C128.788 166.774 126.964 166.017 125.618 164.669C124.273 163.322 123.518 161.494 123.518 159.588V19.7848C123.518 17.8792 124.273 16.0516 125.618 14.7041C126.964 13.3566 128.788 12.5996 130.69 12.5996L143.406 12.6047Z" fill="#4E95CF"/>
<path d="M317.426 19.7858V28.7186H123.508V19.7858C123.508 17.8802 124.264 16.0526 125.609 14.7051C126.954 13.3576 128.778 12.6006 130.68 12.6006H310.253C312.155 12.6006 313.98 13.3576 315.325 14.7051C316.67 16.0526 317.426 17.8802 317.426 19.7858Z" fill="#4E95CF"/>
<path d="M136.772 25.2446C139.538 25.2446 141.78 22.9985 141.78 20.2277C141.78 17.457 139.538 15.2109 136.772 15.2109C134.006 15.2109 131.764 17.457 131.764 20.2277C131.764 22.9985 134.006 25.2446 136.772 25.2446Z" fill="white"/>
<g opacity="0.32">
<path d="M138.513 30.1963H127.779C127.74 30.1963 127.708 30.2285 127.708 30.2681V32.2646C127.708 32.3043 127.74 32.3364 127.779 32.3364H138.513C138.552 32.3364 138.585 32.3043 138.585 32.2646V30.2681C138.585 30.2285 138.552 30.1963 138.513 30.1963Z" fill="white"/>
<path d="M138.513 34.7725H127.779C127.74 34.7725 127.708 34.8046 127.708 34.8443V36.8408C127.708 36.8805 127.74 36.9126 127.779 36.9126H138.513C138.552 36.9126 138.585 36.8805 138.585 36.8408V34.8443C138.585 34.8046 138.552 34.7725 138.513 34.7725Z" fill="white"/>
<path d="M138.513 39.3467H127.779C127.74 39.3467 127.708 39.3788 127.708 39.4185V41.415C127.708 41.4547 127.74 41.4868 127.779 41.4868H138.513C138.552 41.4868 138.585 41.4547 138.585 41.415V39.4185C138.585 39.3788 138.552 39.3467 138.513 39.3467Z" fill="white"/>
<path d="M138.513 43.9238H127.779C127.74 43.9238 127.708 43.956 127.708 43.9957V45.9921C127.708 46.0318 127.74 46.064 127.779 46.064H138.513C138.552 46.064 138.585 46.0318 138.585 45.9921V43.9957C138.585 43.956 138.552 43.9238 138.513 43.9238Z" fill="white"/>
<path d="M138.513 48.498H127.779C127.74 48.498 127.708 48.5302 127.708 48.5699V50.5664C127.708 50.6061 127.74 50.6382 127.779 50.6382H138.513C138.552 50.6382 138.585 50.6061 138.585 50.5664V48.5699C138.585 48.5302 138.552 48.498 138.513 48.498Z" fill="white"/>
<path d="M138.513 53.0762H127.779C127.74 53.0762 127.708 53.1083 127.708 53.148V55.1445C127.708 55.1842 127.74 55.2163 127.779 55.2163H138.513C138.552 55.2163 138.585 55.1842 138.585 55.1445V53.148C138.585 53.1083 138.552 53.0762 138.513 53.0762Z" fill="white"/>
<path d="M138.513 57.6514H127.779C127.74 57.6514 127.708 57.6835 127.708 57.7232V59.7197C127.708 59.7593 127.74 59.7915 127.779 59.7915H138.513C138.552 59.7915 138.585 59.7593 138.585 59.7197V57.7232C138.585 57.6835 138.552 57.6514 138.513 57.6514Z" fill="white"/>
<path d="M138.513 62.2275H127.779C127.74 62.2275 127.708 62.2597 127.708 62.2994V64.2959C127.708 64.3356 127.74 64.3677 127.779 64.3677H138.513C138.552 64.3677 138.585 64.3356 138.585 64.2959V62.2994C138.585 62.2597 138.552 62.2275 138.513 62.2275Z" fill="white"/>
<path d="M138.513 66.8018H127.779C127.74 66.8018 127.708 66.8339 127.708 66.8736V68.8701C127.708 68.9097 127.74 68.9419 127.779 68.9419H138.513C138.552 68.9419 138.585 68.9097 138.585 68.8701V66.8736C138.585 66.8339 138.552 66.8018 138.513 66.8018Z" fill="white"/>
<path d="M138.513 71.3799H127.779C127.74 71.3799 127.708 71.4121 127.708 71.4517V73.4482C127.708 73.4879 127.74 73.52 127.779 73.52H138.513C138.552 73.52 138.585 73.4879 138.585 73.4482V71.4517C138.585 71.4121 138.552 71.3799 138.513 71.3799Z" fill="white"/>
<path d="M138.513 75.9561H127.779C127.74 75.9561 127.708 75.9882 127.708 76.0279V78.0244C127.708 78.0641 127.74 78.0962 127.779 78.0962H138.513C138.552 78.0962 138.585 78.0641 138.585 78.0244V76.0279C138.585 75.9882 138.552 75.9561 138.513 75.9561Z" fill="white"/>
<path d="M138.513 80.5312H127.779C127.74 80.5312 127.708 80.5634 127.708 80.6031V82.5995C127.708 82.6392 127.74 82.6714 127.779 82.6714H138.513C138.552 82.6714 138.585 82.6392 138.585 82.5995V80.6031C138.585 80.5634 138.552 80.5312 138.513 80.5312Z" fill="white"/>
<path d="M138.513 85.1074H127.779C127.74 85.1074 127.708 85.1396 127.708 85.1793V87.1758C127.708 87.2154 127.74 87.2476 127.779 87.2476H138.513C138.552 87.2476 138.585 87.2154 138.585 87.1758V85.1793C138.585 85.1396 138.552 85.1074 138.513 85.1074Z" fill="white"/>
<path d="M138.513 89.6816H127.779C127.74 89.6816 127.708 89.7138 127.708 89.7535V91.75C127.708 91.7897 127.74 91.8218 127.779 91.8218H138.513C138.552 91.8218 138.585 91.7897 138.585 91.75V89.7535C138.585 89.7138 138.552 89.6816 138.513 89.6816Z" fill="white"/>
<path d="M138.513 94.2607H127.779C127.74 94.2607 127.708 94.2929 127.708 94.3326V96.329C127.708 96.3687 127.74 96.4009 127.779 96.4009H138.513C138.552 96.4009 138.585 96.3687 138.585 96.329V94.3326C138.585 94.2929 138.552 94.2607 138.513 94.2607Z" fill="white"/>
<path d="M138.513 98.835H127.779C127.74 98.835 127.708 98.8671 127.708 98.9068V100.903C127.708 100.943 127.74 100.975 127.779 100.975H138.513C138.552 100.975 138.585 100.943 138.585 100.903V98.9068C138.585 98.8671 138.552 98.835 138.513 98.835Z" fill="white"/>
<path d="M138.513 103.411H127.779C127.74 103.411 127.708 103.443 127.708 103.483V105.479C127.708 105.519 127.74 105.551 127.779 105.551H138.513C138.552 105.551 138.585 105.519 138.585 105.479V103.483C138.585 103.443 138.552 103.411 138.513 103.411Z" fill="white"/>
<path d="M138.513 107.985H127.779C127.74 107.985 127.708 108.018 127.708 108.057V110.054C127.708 110.093 127.74 110.126 127.779 110.126H138.513C138.552 110.126 138.585 110.093 138.585 110.054V108.057C138.585 108.018 138.552 107.985 138.513 107.985Z" fill="white"/>
<path d="M138.513 112.562H127.779C127.74 112.562 127.708 112.595 127.708 112.634V114.631C127.708 114.671 127.74 114.703 127.779 114.703H138.513C138.552 114.703 138.585 114.671 138.585 114.631V112.634C138.585 112.595 138.552 112.562 138.513 112.562Z" fill="white"/>
<path d="M138.513 117.141H127.779C127.74 117.141 127.708 117.173 127.708 117.212V119.209C127.708 119.249 127.74 119.281 127.779 119.281H138.513C138.552 119.281 138.585 119.249 138.585 119.209V117.212C138.585 117.173 138.552 117.141 138.513 117.141Z" fill="white"/>
<path d="M138.513 121.716H127.779C127.74 121.716 127.708 121.748 127.708 121.788V123.784C127.708 123.824 127.74 123.856 127.779 123.856H138.513C138.552 123.856 138.585 123.824 138.585 123.784V121.788C138.585 121.748 138.552 121.716 138.513 121.716Z" fill="white"/>
<path d="M138.513 126.291H127.779C127.74 126.291 127.708 126.323 127.708 126.363V128.359C127.708 128.399 127.74 128.431 127.779 128.431H138.513C138.552 128.431 138.585 128.399 138.585 128.359V126.363C138.585 126.323 138.552 126.291 138.513 126.291Z" fill="white"/>
<path d="M138.513 130.866H127.779C127.74 130.866 127.708 130.898 127.708 130.938V132.935C127.708 132.974 127.74 133.006 127.779 133.006H138.513C138.552 133.006 138.585 132.974 138.585 132.935V130.938C138.585 130.898 138.552 130.866 138.513 130.866Z" fill="white"/>
<path d="M138.513 135.44H127.779C127.74 135.44 127.708 135.473 127.708 135.512V137.509C127.708 137.548 127.74 137.581 127.779 137.581H138.513C138.552 137.581 138.585 137.548 138.585 137.509V135.512C138.585 135.473 138.552 135.44 138.513 135.44Z" fill="white"/>
<path d="M138.513 140.019H127.779C127.74 140.019 127.708 140.051 127.708 140.09V142.087C127.708 142.127 127.74 142.159 127.779 142.159H138.513C138.552 142.159 138.585 142.127 138.585 142.087V140.09C138.585 140.051 138.552 140.019 138.513 140.019Z" fill="white"/>
<path d="M138.513 144.595H127.779C127.74 144.595 127.708 144.627 127.708 144.667V146.663C127.708 146.703 127.74 146.735 127.779 146.735H138.513C138.552 146.735 138.585 146.703 138.585 146.663V144.667C138.585 144.627 138.552 144.595 138.513 144.595Z" fill="white"/>
<path d="M138.513 149.17H127.779C127.74 149.17 127.708 149.202 127.708 149.242V151.238C127.708 151.278 127.74 151.31 127.779 151.31H138.513C138.552 151.31 138.585 151.278 138.585 151.238V149.242C138.585 149.202 138.552 149.17 138.513 149.17Z" fill="white"/>
<path d="M138.513 153.746H127.779C127.74 153.746 127.708 153.778 127.708 153.818V155.814C127.708 155.854 127.74 155.886 127.779 155.886H138.513C138.552 155.886 138.585 155.854 138.585 155.814V153.818C138.585 153.778 138.552 153.746 138.513 153.746Z" fill="white"/>
<path d="M138.513 158.324H127.779C127.74 158.324 127.708 158.356 127.708 158.396V160.393C127.708 160.432 127.74 160.464 127.779 160.464H138.513C138.552 160.464 138.585 160.432 138.585 160.393V158.396C138.585 158.356 138.552 158.324 138.513 158.324Z" fill="white"/>
</g>
<path d="M282.206 15.9678H150.265C150.122 15.9678 150.006 16.0838 150.006 16.227V23.3403C150.006 23.4834 150.122 23.5995 150.265 23.5995H282.206C282.349 23.5995 282.465 23.4834 282.465 23.3403V16.227C282.465 16.0838 282.349 15.9678 282.206 15.9678Z" fill="white"/>
<path d="M6.14799 0.604492H95.0736C96.7041 0.604492 98.2679 1.25335 99.4209 2.40834C100.574 3.56333 101.222 5.12984 101.222 6.76324V56.8339C101.222 58.4673 100.574 60.0338 99.4209 61.1888C98.2679 62.3437 96.7041 62.9926 95.0736 62.9926H90.5958V91.1586L72.1364 62.9926H6.14799C4.51744 62.9926 2.95368 62.3437 1.80071 61.1888C0.647736 60.0338 0 58.4673 0 56.8339V6.76324C0 5.12984 0.647736 3.56333 1.80071 2.40834C2.95368 1.25335 4.51744 0.604492 6.14799 0.604492Z" fill="#3C82B8"/>
<path d="M68.0218 16.6602L16.599 16.6602C16.5085 16.6602 16.4351 16.5866 16.4351 16.4959V12.8341C16.4351 12.7434 16.5085 12.6698 16.599 12.6698L68.0218 12.6698C68.1124 12.6698 68.1858 12.7434 68.1858 12.8341V16.4959C68.1858 16.5866 68.1124 16.6602 68.0218 16.6602Z" fill="white"/>
<path d="M84.6188 25.8379L16.599 25.8379C16.5085 25.8379 16.4351 25.7644 16.4351 25.6737V22.0118C16.4351 21.9211 16.5085 21.8476 16.599 21.8476L84.6188 21.8476C84.7094 21.8476 84.7828 21.9211 84.7828 22.0118V25.6737C84.7828 25.7644 84.7094 25.8379 84.6188 25.8379Z" fill="white"/>
<path d="M84.6188 35.0166L16.599 35.0166C16.5085 35.0166 16.4351 34.9431 16.4351 34.8524V31.1905C16.4351 31.0998 16.5085 31.0263 16.599 31.0263L84.6188 31.0263C84.7094 31.0263 84.7828 31.0998 84.7828 31.1905V34.8524C84.7828 34.9431 84.7094 35.0166 84.6188 35.0166Z" fill="white"/>
<path d="M57.1348 44.1934L16.599 44.1934C16.5085 44.1934 16.4351 44.1199 16.4351 44.0292V40.3673C16.4351 40.2766 16.5085 40.203 16.599 40.203L57.1348 40.203C57.2253 40.203 57.2987 40.2766 57.2987 40.3673V44.0292C57.2987 44.1199 57.2253 44.1934 57.1348 44.1934Z" fill="white"/>
<path d="M331.305 304.543C331.305 304.543 324.696 311.025 324.696 311.441C324.696 311.857 331.167 316.193 334.472 316.573C337.776 316.953 342.856 314.264 342.856 314.264L343.699 310.566L331.305 304.543Z" fill="url(#paint10_linear_680_229)"/>
<path d="M428.343 127.146C428.343 127.146 437.017 166.218 435.687 167.991C427.196 179.323 381.608 154.545 381.608 154.545L385.059 143.662C385.059 143.662 416.352 151.981 417.205 150.077C418.058 148.173 419.088 126.212 421.962 124.416C424.836 122.619 428.343 127.146 428.343 127.146Z" fill="#4E95CF"/>
<path d="M395.841 91.7666C395.841 91.7666 394.619 98.1255 395.026 99.1032C395.434 100.081 396.981 100.407 396.492 101.631C396.002 102.855 394.793 104.623 395.764 108.344C396.735 112.065 396.643 115.373 398.887 116.083C401.131 116.794 403.979 116.083 403.979 116.083V121.113H416.672C416.672 121.113 418.302 102.609 415.86 98.4514C413.419 94.2943 395.841 91.7666 395.841 91.7666Z" fill="url(#paint11_linear_680_229)"/>
<path d="M390.446 84.1047C390.307 90.2172 393.55 93.5609 398.899 94.2948C404.248 95.0287 401.942 98.4546 402.762 99.4733C403.267 100.094 403.843 100.654 404.478 101.141C404.478 101.141 404.396 105.247 404.071 106.44C403.746 107.634 401.63 112.412 399.678 112.117C397.726 111.822 398.044 108.344 396.911 108.344H395.776C395.776 108.344 395.282 115.432 397.073 116.79C398.863 118.147 404.478 116.084 404.478 116.084C404.478 116.084 406.92 107.38 408.792 107.236C410.665 107.092 413.757 111.167 418.068 109.62C422.379 108.072 427.103 97.9618 426.206 93.8868C425.31 89.8118 422.464 88.9957 422.464 88.9957C422.464 88.9957 422.72 81.6566 415.804 80.761C408.887 79.8654 390.446 84.1047 390.446 84.1047Z" fill="black"/>
<path d="M384.378 145.809C384.378 145.809 376.859 139.65 375.781 139.032C374.702 138.413 362.716 136.602 362.716 136.602C362.716 136.602 361.638 138.762 366.018 139.64C370.399 140.518 371.344 140.338 371.344 141.205C371.344 142.073 370.739 151.213 372.02 152.584C373.301 153.954 381.885 153.715 381.885 153.715L384.378 145.809Z" fill="url(#paint12_linear_680_229)"/>
<path d="M429.271 196.764C429.271 196.764 426.143 214.653 414.639 222.356C403.134 230.06 378.143 257.271 378.143 257.271L346.593 311.206C346.593 311.206 345.548 314.096 338.767 311.206C331.986 308.317 330.314 304.706 330.314 304.706L365.355 234.394L389.383 195.581C389.383 195.581 419.593 199.104 429.271 196.764Z" fill="#0E314C"/>
<path d="M401.967 119.553C401.967 119.553 415.059 115.521 417.703 117.243C420.347 118.965 419.944 120.448 419.944 120.448C419.944 120.448 427.993 121.524 429.2 130.395C430.406 139.266 430.409 196.512 430.409 196.512C430.409 196.512 416.455 199.737 404.92 198.662C393.385 197.587 387.493 194.861 387.493 194.861C387.493 194.861 398.091 125.591 399.566 123.43C401.042 121.27 401.967 119.553 401.967 119.553Z" fill="#4E95CF"/>
<path d="M417.208 125.656C410.924 124.373 407.573 125.864 406.077 136.886C404.581 147.907 402.668 164.98 401.044 166.255C399.42 167.53 372.589 171.621 372.589 171.621V179.527C372.589 179.527 413.788 181.249 416.332 177.315C418.875 173.381 427.967 127.858 417.208 125.656Z" fill="#4E95CF"/>
<path d="M372.7 172.813C372.7 172.813 367.577 168.818 365.973 168.538C364.369 168.258 357.263 168.956 357.263 168.956C357.263 168.956 356 170.337 359.1 170.642C362.2 170.947 362.943 172.143 362.943 172.143C362.943 172.143 360.919 173.745 356.113 173.85C351.307 173.955 348.684 172.451 347.875 172.71C347.065 172.97 351.441 175.02 351.441 175.02C351.441 175.02 347.045 175.046 346.645 175.02C346.246 174.994 350.326 177.473 352.793 178.451C355.26 179.429 363.13 178.387 367.418 178.451C371.706 178.515 372.71 178.138 372.71 178.138L372.7 172.813Z" fill="url(#paint13_linear_680_229)"/>
<path d="M327.83 307.515C327.83 307.515 321.629 310.83 317.389 313.004C313.149 315.177 302.603 317.879 301.878 320.048C301.153 322.216 301.156 325.642 301.156 325.642H345.616C345.616 325.642 346.338 320.253 344.996 317.561C343.654 314.869 343.651 314.248 343.651 314.248C343.651 314.248 324.218 315.385 327.83 307.515Z" fill="#3A6F9C"/>
<path d="M418.701 237.52V314.142" stroke="#CFDFEC" stroke-width="7" stroke-miterlimit="10"/>
<path d="M390.446 229.111L388.397 274.304C388.252 276.348 387.656 278.335 386.653 280.121L380.868 290.401C378.853 293.988 377.794 298.035 377.794 302.152V325.881" stroke="#CFDFEC" stroke-width="7" stroke-miterlimit="10"/>
<path d="M445.009 225.143C439.783 222.648 429.972 220.965 418.701 220.965C407.429 220.965 397.618 222.648 392.395 225.143H388.386V229.248C388.386 233.824 401.963 237.532 418.701 237.532C435.439 237.532 449.015 233.824 449.015 229.248V225.143H445.009Z" fill="#4E95CF"/>
<path d="M418.701 233.413C435.443 233.413 449.015 229.706 449.015 225.133C449.015 220.559 435.443 216.852 418.701 216.852C401.958 216.852 388.386 220.559 388.386 225.133C388.386 229.706 401.958 233.413 418.701 233.413Z" fill="#3A6F9C"/>
<path d="M445.093 233.764L447.143 278.956C447.29 281 447.887 282.987 448.89 284.774L454.671 295.054C456.687 298.641 457.746 302.688 457.745 306.804V330.533" stroke="#CFDFEC" stroke-width="7" stroke-miterlimit="10"/>
<path d="M419.357 285.697C436.576 285.697 450.535 281.807 450.535 277.008C450.535 272.21 436.576 268.319 419.357 268.319C402.138 268.319 388.179 272.21 388.179 277.008C388.179 281.807 402.138 285.697 419.357 285.697Z" stroke="#CFDFEC" stroke-width="7" stroke-miterlimit="10"/>
<path d="M389.286 288.129C389.286 288.129 389.857 292.406 391.914 293.518C393.971 294.629 402.366 287.077 402.369 285.894C402.371 284.711 399.341 281.654 399.341 281.654L389.286 288.129Z" fill="url(#paint14_linear_680_229)"/>
<path d="M387.493 194.862C387.493 194.862 351.674 230.483 351.21 237.14C350.746 243.796 388.472 289.296 388.472 289.296C388.472 289.296 392.512 289.943 397.463 285.886C402.415 281.829 401.05 281.398 401.05 281.398L379.788 238.007C379.788 238.007 415.334 225.725 420.572 216.744C425.811 207.762 429.282 196.764 429.282 196.764C429.282 196.764 399.948 200.344 387.493 194.862Z" fill="#0E314C"/>
<path d="M402.898 284.002C402.898 284.002 398.659 290.009 393.799 290.528C388.94 291.046 388.932 288.87 388.63 290.528C388.328 292.185 387.698 297.674 385.528 299.745C383.358 301.816 374.566 307.721 374.876 310.01C375.186 312.299 378.496 314.152 378.496 314.152C378.496 314.152 408.275 297.374 408.895 293.645C409.515 289.917 402.898 284.002 402.898 284.002Z" fill="#3A6F9C"/>
<path opacity="0.2" d="M111.977 316.277C150.835 316.277 182.336 311.295 182.336 305.15C182.336 299.005 150.835 294.023 111.977 294.023C73.1193 294.023 41.6187 299.005 41.6187 305.15C41.6187 311.295 73.1193 316.277 111.977 316.277Z" fill="url(#paint15_linear_680_229)"/>
<path d="M199.323 289.552C199.323 289.552 200.681 292.45 204.518 293.089C208.355 293.728 216.107 293.489 216.986 296.132C217.514 297.675 217.514 299.351 216.986 300.895H187.655C187.655 300.895 183.971 294.479 188.21 291.657C192.45 288.834 199.323 289.552 199.323 289.552Z" fill="#3A6F9C"/>
<path d="M96.0937 228.959C96.0937 228.959 93.9393 246.883 110.375 249.724C126.811 252.565 175.738 238.04 177.626 239.342C179.514 240.643 180.083 264.916 182.916 274.636C185.749 284.357 187.45 291.355 187.45 291.355C187.45 291.355 189.528 292.491 193.496 292.112C195.856 291.89 198.063 290.843 199.731 289.156C199.731 289.156 196.708 238.559 196.329 230.232C195.95 221.905 193.872 219.256 188.388 217.362C182.903 215.469 122.164 220.239 122.164 220.239L96.0937 228.959Z" fill="#0E314C"/>
<path d="M131.954 210.743C131.954 210.743 172.242 195.86 182.106 199.144C191.971 202.429 218.738 265.915 218.738 265.915C216.702 267.7 214.373 269.119 211.855 270.111C207.723 271.72 206.806 271.948 206.806 271.948C206.806 271.948 175.695 219.425 172.713 218.506C169.731 217.587 122.169 220.238 122.169 220.238C122.169 220.238 132.441 216.802 131.954 210.743Z" fill="#0E314C"/>
<path d="M218.741 265.915C218.741 265.915 226.098 276.436 232.251 278.358C238.404 280.28 239.283 283.083 238.725 285.323L238.164 287.566C238.164 287.566 209.073 283.321 207.475 280.599C205.876 277.876 206.809 271.948 206.809 271.948C206.809 271.948 218.257 267.724 218.741 265.915Z" fill="#3A6F9C"/>
<path d="M114.482 112.231C114.482 112.231 117.3 120.312 117.016 121.567C116.732 122.822 115.548 123.72 115.761 124.203C115.973 124.685 117.831 128.642 117.423 130.431C117.016 132.219 117.705 139.307 115.981 140.649C114.257 141.991 110.089 141.932 110.089 141.932V145.586H95.7183C95.7183 145.586 96.4868 135.322 95.9924 133.813C95.498 132.304 98.8102 115.657 100.688 114.025C102.566 112.393 114.482 112.231 114.482 112.231Z" fill="url(#paint16_linear_680_229)"/>
<path d="M115.369 111.395C115.245 112.596 115.031 113.786 114.728 114.954C113.757 118.637 112.364 119.081 112.251 120.828C112.105 123.033 113.437 128.057 112.476 128.493C111.516 128.93 111.144 122.989 108.678 122.958C106.211 122.927 105.499 125.163 107.397 128.917C109.295 132.671 107.202 134.863 101.761 137.046C96.3201 139.23 95.8129 137.357 93.4997 136.238C91.1865 135.119 84.2598 132.535 82.3283 126.371C80.3968 120.207 83.2172 116.525 83.2172 116.525C83.2172 116.525 83.2172 116.525 83.2172 116.504C83.043 116.132 80.6888 110.859 86.5832 108.036C92.6851 105.131 110.701 100.653 110.701 100.653C110.701 100.653 116.183 104.313 115.369 111.395Z" fill="black"/>
<path d="M170.043 160.46C170.043 160.46 154.555 193.692 148.161 195.996C141.767 198.3 132.683 188.811 132.683 188.811L140.735 218.686C140.735 218.686 140.01 221.724 136.313 224.686C132.881 227.426 126.904 230.087 116.563 230.218C95.0679 230.475 92.5088 227.139 92.5088 227.139L83.6787 186.65C83.6787 186.65 74.5951 185.488 73.4321 179.847C72.2691 174.207 76.6341 151.581 78.5554 149.505C80.4766 147.429 87.3906 147.36 88.5459 146.554C89.7012 145.748 91.3637 143.069 91.3637 143.069C91.4739 143.218 93.308 143.228 95.8851 143.198C100.068 143.167 106.206 143.069 110.092 143.405C111.885 143.575 113.197 143.824 113.622 144.222C115.546 146.018 116.184 149.097 116.184 149.097C116.184 149.097 127.693 151.15 130.273 153.973C132.852 156.796 146.245 175.256 148.169 175.585C150.092 175.913 159.809 150.773 159.809 150.773C160.674 150.6 161.563 150.583 162.435 150.724C163.873 150.933 165.214 151.578 166.277 152.572C167.537 153.744 168.419 155.412 169.015 156.911C169.466 158.06 169.81 159.248 170.043 160.46Z" fill="#4E95CF"/>
<path d="M115.369 111.395C115.246 112.596 115.032 113.786 114.729 114.954C112.457 116.589 108.837 117.644 103.434 119.009C92.5422 121.76 83.1973 116.525 83.1973 116.525C83.1973 116.525 83.1973 116.525 83.1973 116.504C83.0231 116.132 80.6689 110.859 86.5633 108.036C92.6652 105.131 110.681 100.653 110.681 100.653C110.681 100.653 116.184 104.313 115.369 111.395Z" fill="black"/>
<path d="M162.378 150.696C162.378 150.696 160.918 143.559 161.866 141.553C162.814 139.546 164.458 136.477 164.458 136.477C164.458 136.477 166.792 135.668 165.98 138.904C165.168 142.14 165.934 141.317 166.257 141.199C166.58 141.08 171.529 128.391 173.296 128.881C175.064 129.371 170.934 138.484 171.055 139.777C171.175 141.07 176.163 148.032 174.71 150.686C173.258 153.339 170.045 159.367 170.045 159.367C170.045 159.367 167.958 152.402 162.378 150.696Z" fill="url(#paint17_linear_680_229)"/>
<path d="M137.183 303.132H133.54L131.34 298.344L107.806 296.525L105.485 302.273V309.366C105.485 309.366 104.096 312.034 103.215 312.335C102.334 312.635 100.633 302.273 100.728 301.796C100.823 301.318 101.909 296.525 101.909 296.525L76.62 299.206C76.62 299.206 74.5169 302.997 73.3667 303.546C72.2165 304.095 68.374 303.44 68.374 303.44L73.6536 295.183L101.909 290.392L136.507 295.375L137.183 303.132Z" fill="#0E314C"/>
<path d="M69.3497 295.399C69.4405 295.118 69.6066 294.869 69.8299 294.677C70.0531 294.485 70.3248 294.358 70.6152 294.311L96.7774 290.066L104.462 289.171C104.585 289.155 104.709 289.155 104.831 289.171L112.516 290.066L138.679 294.316C138.969 294.363 139.241 294.49 139.464 294.682C139.687 294.874 139.853 295.124 139.944 295.404L141.899 301.457C141.976 301.698 141.996 301.953 141.956 302.202C141.917 302.451 141.819 302.687 141.671 302.891C141.523 303.096 141.328 303.262 141.104 303.377C140.88 303.491 140.631 303.551 140.38 303.551H138.243C137.913 303.552 137.59 303.449 137.32 303.258C137.051 303.067 136.847 302.796 136.737 302.484L135.062 297.747C134.962 297.465 134.786 297.217 134.553 297.03C134.321 296.844 134.041 296.725 133.745 296.69L107.503 293.525C107.132 293.481 106.757 293.568 106.443 293.772C106.129 293.976 105.897 294.284 105.787 294.642L103.994 300.421C103.946 300.574 103.922 300.734 103.922 300.895V311.034C103.922 311.459 103.754 311.866 103.454 312.167C103.154 312.467 102.747 312.636 102.323 312.636H100.927C100.503 312.636 100.097 312.467 99.797 312.167C99.4973 311.866 99.3289 311.459 99.3289 311.034V300.644C99.3289 300.478 99.3549 300.314 99.4057 300.156L100.751 295.935C100.832 295.68 100.848 295.408 100.797 295.145C100.746 294.881 100.63 294.635 100.459 294.428C100.289 294.222 100.069 294.061 99.8206 293.962C99.5721 293.862 99.3026 293.827 99.0368 293.859L75.5746 296.682C75.2788 296.718 74.999 296.837 74.7664 297.023C74.5339 297.21 74.3578 297.458 74.2579 297.739L72.5851 302.476C72.4748 302.789 72.2705 303.059 72.0002 303.25C71.73 303.442 71.4071 303.544 71.0763 303.544H68.9066C68.6544 303.544 68.4058 303.484 68.1811 303.37C67.9564 303.255 67.7619 303.089 67.6135 302.885C67.4651 302.681 67.3671 302.444 67.3273 302.195C67.2876 301.945 67.3073 301.69 67.3849 301.45L69.3497 295.399Z" fill="#0E314C"/>
<path d="M28.3913 169.905L49.9708 245.958C50.2268 248.125 51.2677 250.123 52.8962 251.572C54.5248 253.021 56.6276 253.821 58.806 253.821H151.282C152.456 253.821 153.582 253.354 154.412 252.522C155.242 251.69 155.709 250.562 155.709 249.386V247.21C155.706 246.178 155.295 245.188 154.567 244.457C153.838 243.726 152.851 243.314 151.82 243.31H124.73C123.361 243.316 122.037 242.822 121.005 241.922C119.972 241.021 119.303 239.775 119.12 238.416L97.6869 172.148C97.2911 169.216 95.8481 166.526 93.6251 164.578C91.4021 162.629 88.5497 161.554 85.5958 161.55H35.8048C34.0451 161.547 32.3412 162.168 30.995 163.303C29.6489 164.439 28.7474 166.015 28.4502 167.752C28.3292 168.463 28.3094 169.188 28.3913 169.905Z" fill="#C9E4F9"/>
<path d="M28.3905 169.907L49.9699 245.959C50.2259 248.126 51.2668 250.124 52.8954 251.573C54.5239 253.022 56.6267 253.823 58.8051 253.822H149.488V249.46H118.517C117.144 249.465 115.817 248.967 114.784 248.061C113.751 247.155 113.083 245.902 112.907 244.538L91.4663 178.293C91.0774 175.355 89.6375 172.657 87.4138 170.702C85.1902 168.747 82.3339 167.666 79.3752 167.661H29.5816C29.2025 167.661 28.824 167.69 28.4494 167.748C28.3278 168.461 28.308 169.188 28.3905 169.907Z" fill="#0E314C"/>
<path d="M119.272 261.595H92.0615C91.9997 261.595 91.9404 261.57 91.8967 261.526C91.853 261.483 91.8284 261.423 91.8284 261.361V253.822H119.494V261.361C119.494 261.421 119.471 261.479 119.43 261.523C119.388 261.566 119.332 261.592 119.272 261.595Z" fill="#0E314C"/>
<path d="M101.912 287.674H109.059V261.594H101.912V287.674Z" fill="#0E314C"/>
<path d="M112.539 290.392H96.7772V282.244C96.7772 282.165 96.8085 282.089 96.8642 282.034C96.9199 281.978 96.9955 281.946 97.0743 281.946H112.242C112.321 281.946 112.396 281.978 112.452 282.034C112.508 282.089 112.539 282.165 112.539 282.244V290.392Z" fill="#0E314C"/>
<path opacity="0.2" d="M140.735 218.691C140.735 218.691 140.01 221.729 136.314 224.691C133.496 213.477 128.291 193.363 125.14 185.539C120.657 174.415 122.125 164.433 122.125 164.433L123.406 170.253C124.687 176.062 132.687 188.816 132.687 188.816L140.735 218.691Z" fill="#171919"/>
<path d="M417.22 194.801H111.877V207.729H417.22V194.801Z" fill="#CFDFEC"/>
<path d="M137.201 312.615H123.565L148.751 207.359H162.387L137.201 312.615Z" fill="#C9E4F9"/>
<path d="M401.496 312.615H415.132L389.948 207.359H376.313L401.496 312.615Z" fill="#CFDFEC"/>
<path opacity="0.2" d="M470.105 307.562H49.8156C46.5587 307.562 43.9185 310.992 43.9185 315.224C43.9185 319.456 46.5587 322.887 49.8156 322.887H470.105C473.362 322.887 476.002 319.456 476.002 315.224C476.002 310.992 473.362 307.562 470.105 307.562Z" fill="#4E95CF"/>
<path d="M155.719 38.9414H162.69C164.736 38.9587 166.218 39.5453 167.137 40.7014C168.056 41.8574 168.36 43.4362 168.047 45.4377C167.926 46.3522 167.657 47.2494 167.241 48.1294C166.842 49.0093 166.288 49.803 165.577 50.5104C164.71 51.4077 163.782 51.9771 162.794 52.2186C161.805 52.4602 160.782 52.581 159.725 52.581H156.604L155.615 57.4985H152L155.719 38.9414ZM158.762 41.8919L157.202 49.6564C157.306 49.6736 157.41 49.6822 157.514 49.6822H157.878C159.543 49.6995 160.93 49.5356 162.039 49.1905C163.149 48.8281 163.895 47.5686 164.276 45.4118C164.588 43.6001 164.276 42.5562 163.34 42.2801C162.421 42.0041 161.268 41.8747 159.881 41.8919C159.673 41.9091 159.473 41.9178 159.282 41.9178C159.109 41.9178 158.927 41.9178 158.736 41.9178L158.762 41.8919Z" fill="white"/>
<path d="M172.166 34H175.755L174.741 38.9434H177.966C179.735 38.9779 181.053 39.3402 181.92 40.0304C182.804 40.7206 183.064 42.0319 182.7 43.9644L180.957 52.583H177.316L178.981 44.3526C179.154 43.4899 179.102 42.8774 178.824 42.515C178.547 42.1527 177.949 41.9715 177.03 41.9715L174.143 41.9456L172.01 52.583H168.421L172.166 34Z" fill="white"/>
<path d="M186.554 38.9414H193.524C195.57 38.9587 197.053 39.5453 197.972 40.7014C198.891 41.8574 199.194 43.4362 198.882 45.4377C198.761 46.3522 198.492 47.2494 198.076 48.1294C197.677 49.0093 197.122 49.803 196.411 50.5104C195.544 51.4077 194.616 51.9771 193.628 52.2186C192.64 52.4602 191.617 52.581 190.559 52.581H187.438L186.45 57.4985H182.834L186.554 38.9414ZM189.597 41.8919L188.036 49.6564C188.14 49.6736 188.244 49.6822 188.348 49.6822H188.712C190.377 49.6995 191.764 49.5356 192.874 49.1905C193.984 48.8281 194.729 47.5686 195.111 45.4118C195.423 43.6001 195.111 42.5562 194.174 42.2801C193.255 42.0041 192.102 41.8747 190.715 41.8919C190.507 41.9091 190.308 41.9178 190.117 41.9178C189.944 41.9178 189.761 41.9178 189.571 41.9178L189.597 41.8919Z" fill="white"/>
<defs>
<linearGradient id="paint0_linear_680_229" x1="169.59" y1="85.623" x2="183.254" y2="85.623" gradientUnits="userSpaceOnUse">
<stop stop-color="#F9F9F8"/>
<stop offset="1" stop-color="#E8E7E4"/>
</linearGradient>
<linearGradient id="paint1_linear_680_229" x1="216.091" y1="99.1523" x2="229.754" y2="99.1523" gradientUnits="userSpaceOnUse">
<stop stop-color="#F9F9F8"/>
<stop offset="1" stop-color="#E8E7E4"/>
</linearGradient>
<linearGradient id="paint2_linear_680_229" x1="190.086" y1="103.662" x2="203.75" y2="103.662" gradientUnits="userSpaceOnUse">
<stop stop-color="#F9F9F8"/>
<stop offset="1" stop-color="#E8E7E4"/>
</linearGradient>
<linearGradient id="paint3_linear_680_229" x1="169.59" y1="107.535" x2="183.254" y2="107.535" gradientUnits="userSpaceOnUse">
<stop stop-color="#F9F9F8"/>
<stop offset="1" stop-color="#E8E7E4"/>
</linearGradient>
<linearGradient id="paint4_linear_680_229" x1="169.59" y1="113.742" x2="183.254" y2="113.742" gradientUnits="userSpaceOnUse">
<stop stop-color="#F9F9F8"/>
<stop offset="1" stop-color="#E8E7E4"/>
</linearGradient>
<linearGradient id="paint5_linear_680_229" x1="187.65" y1="113.742" x2="201.314" y2="113.742" gradientUnits="userSpaceOnUse">
<stop stop-color="#F9F9F8"/>
<stop offset="1" stop-color="#E8E7E4"/>
</linearGradient>
<linearGradient id="paint6_linear_680_229" x1="199.726" y1="85.623" x2="213.39" y2="85.623" gradientUnits="userSpaceOnUse">
<stop stop-color="#F9F9F8"/>
<stop offset="1" stop-color="#E8E7E4"/>
</linearGradient>
<linearGradient id="paint7_linear_680_229" x1="216.806" y1="85.623" x2="230.47" y2="85.623" gradientUnits="userSpaceOnUse">
<stop stop-color="#F9F9F8"/>
<stop offset="1" stop-color="#E8E7E4"/>
</linearGradient>
<linearGradient id="paint8_linear_680_229" x1="192.388" y1="90.1322" x2="206.055" y2="90.1322" gradientUnits="userSpaceOnUse">
<stop stop-color="#F9F9F8"/>
<stop offset="1" stop-color="#E8E7E4"/>
</linearGradient>
<linearGradient id="paint9_linear_680_229" x1="152.216" y1="75.223" x2="165.88" y2="75.223" gradientUnits="userSpaceOnUse">
<stop stop-color="#F9F9F8"/>
<stop offset="1" stop-color="#E8E7E4"/>
</linearGradient>
<linearGradient id="paint10_linear_680_229" x1="324.696" y1="310.579" x2="343.699" y2="310.579" gradientUnits="userSpaceOnUse">
<stop stop-color="#FFD9D9"/>
<stop offset="1" stop-color="#EFB4B4"/>
</linearGradient>
<linearGradient id="paint11_linear_680_229" x1="394.944" y1="106.44" x2="417.205" y2="106.44" gradientUnits="userSpaceOnUse">
<stop stop-color="#FFD9D9"/>
<stop offset="1" stop-color="#EFB4B4"/>
</linearGradient>
<linearGradient id="paint12_linear_680_229" x1="372.789" y1="146.409" x2="371.498" y2="155.629" gradientUnits="userSpaceOnUse">
<stop stop-color="#FFD9D9"/>
<stop offset="1" stop-color="#EFB4B4"/>
</linearGradient>
<linearGradient id="paint13_linear_680_229" x1="346.594" y1="173.668" x2="372.7" y2="173.668" gradientUnits="userSpaceOnUse">
<stop stop-color="#FFD9D9"/>
<stop offset="1" stop-color="#EFB4B4"/>
</linearGradient>
<linearGradient id="paint14_linear_680_229" x1="389.276" y1="287.633" x2="402.358" y2="287.633" gradientUnits="userSpaceOnUse">
<stop stop-color="#FFD9D9"/>
<stop offset="1" stop-color="#EFB4B4"/>
</linearGradient>
<linearGradient id="paint15_linear_680_229" x1="41.6161" y1="305.15" x2="182.336" y2="305.15" gradientUnits="userSpaceOnUse">
<stop stop-color="#00538E"/>
<stop offset="0.99" stop-color="#00538E"/>
</linearGradient>
<linearGradient id="paint16_linear_680_229" x1="95.7183" y1="128.891" x2="117.48" y2="128.891" gradientUnits="userSpaceOnUse">
<stop stop-color="#FFD9D9"/>
<stop offset="1" stop-color="#EFB4B4"/>
</linearGradient>
<linearGradient id="paint17_linear_680_229" x1="164.067" y1="155.464" x2="169.066" y2="144.436" gradientUnits="userSpaceOnUse">
<stop stop-color="#FFD9D9"/>
<stop offset="1" stop-color="#EFB4B4"/>
</linearGradient>
</defs>
</svg>
