<svg xmlns="http://www.w3.org/2000/svg" width="570" height="284.381" viewBox="0 0 570 284.381">
  <g id="Progressive_Web_App_section_1" transform="translate(-802 -978.619)">
    <g id="Group_302536" data-name="Group 302536" transform="translate(-6.771)">
      <g id="PWA-web-development" transform="translate(772.6 1034.699)">
        <g id="desktop" transform="translate(187.341 -3.129)">
          <path id="settings" d="M268.713,55.177a12.53,12.53,0,1,1,22.165,8.329l20.15.134a6.886,6.886,0,0,0,.269-.94,1.058,1.058,0,0,0-.269-.873l-5.306-3.9a.827.827,0,0,1-.336-.672l.067-2.485a.705.705,0,0,1,.336-.6l5.508-3.828a1.079,1.079,0,0,0,.336-.739c-.537-4.567-3.425-9.538-4.3-11.015a.856.856,0,0,0-.739-.336l-6.515.94a.812.812,0,0,1-.672-.2l-1.813-1.746a.758.758,0,0,1-.2-.739l1.41-6.381a1.058,1.058,0,0,0-.269-.873,35.835,35.835,0,0,0-10.948-4.97,1.058,1.058,0,0,0-.873.269l-4.03,5.575a.705.705,0,0,1-.6.336h-2.552a.827.827,0,0,1-.672-.336l-3.493-5.709a.767.767,0,0,0-.873-.336c-6.515,1.746-9.94,3.828-11.015,4.567a.856.856,0,0,0-.336.739l.94,6.246a.8.8,0,0,1-.269.739l-2.149,1.881a.961.961,0,0,1-.739.2l-5.843-1.41a.874.874,0,0,0-.873.336,36.14,36.14,0,0,0-4.836,11.015.818.818,0,0,0,.336.806l5.239,3.9a.705.705,0,0,1,.336.6V56.05a.933.933,0,0,1-.336.672l-5.508,3.9a.856.856,0,0,0-.336.739,17.18,17.18,0,0,0,.336,1.813l22.1.134A12.216,12.216,0,0,1,268.713,55.177Z" transform="translate(-219.748 -24.036)" fill="#60a6df"/>
          <rect id="Rectangle_162636" data-name="Rectangle 162636" width="228.768" height="152.333" transform="translate(23.441 43.768)" fill="#fff"/>
          <path id="XMLID_8_" d="M472.989,105.659v112.1H268.2V93.3H472.989v12.359" transform="translate(-226.02 -46.778)" fill="none"/>
          <g id="XMLID_1_" transform="translate(0 41.551)">
            <path id="Path_134476" data-name="Path 134476" d="M469.9,240.449h-233V93.49a7.582,7.582,0,0,1,7.59-7.59H462.377a7.582,7.582,0,0,1,7.59,7.59L469.9,240.449Z" transform="translate(-215.743 -85.9)" fill="none" stroke="#284f63" stroke-miterlimit="10" stroke-width="13"/>
            <path id="Path_134477" data-name="Path 134477" d="M205.4,323H481.587L479.1,333.411H208.96Z" transform="translate(-205.4 -163.749)" fill="#284f63"/>
          </g>
          <g id="lines" transform="translate(45.874 60.224)" opacity="0.49">
            <path id="XMLID_29_" d="M403.935,120.014H274.976c-.672,0-1.276-.4-1.276-.873v-4.567c0-.47.6-.873,1.276-.873H403.868c.672,0,1.276.4,1.276.873v4.567C405.144,119.678,404.674,120.014,403.935,120.014Z" transform="translate(-273.7 -113.7)" fill="#bcdaf3"/>
            <path id="XMLID_32_" d="M403.935,136.114H274.976c-.672,0-1.276-.4-1.276-.873v-4.567c0-.47.6-.873,1.276-.873H403.868c.672,0,1.276.4,1.276.873v4.567C405.144,135.711,404.674,136.114,403.935,136.114Z" transform="translate(-273.7 -118.986)" fill="#bcdaf3"/>
            <path id="XMLID_34_" d="M403.935,168.814H274.976c-.672,0-1.276-.4-1.276-.873v-4.567c0-.47.6-.873,1.276-.873H403.868c.672,0,1.276.4,1.276.873v4.567C405.144,168.411,404.674,168.814,403.935,168.814Z" transform="translate(-273.7 -129.723)" fill="#bcdaf3"/>
            <path id="XMLID_33_" d="M335.426,152.814H274.976c-.672,0-1.276-.4-1.276-.873v-4.567c0-.47.6-.873,1.276-.873h60.449c.672,0,1.276.4,1.276.873v4.567C336.7,152.411,336.1,152.814,335.426,152.814Z" transform="translate(-273.7 -124.47)" fill="#bcdaf3"/>
          </g>
          <path id="XMLID_11_" d="M527.289,172.336H501.833c-2.418,0-4.433-1.343-4.433-2.955V116.655c0-1.612,2.015-2.955,4.433-2.955h25.456c2.418,0,4.433,1.343,4.433,2.955v52.725C531.655,170.993,529.64,172.336,527.289,172.336Z" transform="translate(-301.275 -53.476)" fill="#bcdaf3" opacity="0.49"/>
          <path id="XMLID_10_" d="M526.92,268.442H501.666a4.567,4.567,0,0,1-4.366-4.7V213.7a4.612,4.612,0,0,1,4.366-4.7H526.92a4.567,4.567,0,0,1,4.366,4.7v50.106A4.549,4.549,0,0,1,526.92,268.442Z" transform="translate(-301.242 -84.767)" fill="#bcdaf3" opacity="0.49"/>
          <path id="Path_134478" data-name="Path 134478" d="M331.53,260.069H274.775a1.061,1.061,0,0,1-1.075-1.075v-74.42a1.061,1.061,0,0,1,1.075-1.075H331.53a1.061,1.061,0,0,1,1.075,1.075v74.42A1.061,1.061,0,0,1,331.53,260.069Z" transform="translate(-227.826 -76.394)" fill="#bcdaf3" opacity="0.49"/>
          <path id="Path_134479" data-name="Path 134479" d="M437.83,260.069H381.075A1.061,1.061,0,0,1,380,258.995v-74.42a1.061,1.061,0,0,1,1.075-1.075H437.83a1.061,1.061,0,0,1,1.075,1.075v74.42A1.061,1.061,0,0,1,437.83,260.069Z" transform="translate(-262.728 -76.394)" fill="#bcdaf3" opacity="0.49"/>
        </g>
        <path id="Path_134480" data-name="Path 134480" d="M650.46,337.725a2.818,2.818,0,0,0,2.418-1.343c1.142-1.142,2.62-.672,2.62,1.209v8.664h8.664c1.881,0,2.351-1.411,1.209-2.619a3.085,3.085,0,0,1-1.343-2.418,4.375,4.375,0,0,1,8.6,0,2.818,2.818,0,0,1-1.343,2.418c-1.142,1.142-.672,2.619,1.209,2.619h8.664V337.59c0-1.881-1.41-2.351-2.619-1.209a3.085,3.085,0,0,1-2.418,1.343,4.375,4.375,0,0,1,0-8.6,2.819,2.819,0,0,1,2.418,1.343c1.142,1.142,2.619.672,2.619-1.209V320.6H672.49c-1.881,0-2.351-1.41-1.209-2.619a3.085,3.085,0,0,0,1.343-2.418,4.375,4.375,0,0,0-8.6,0,2.818,2.818,0,0,0,1.343,2.418c1.142,1.142.672,2.619-1.209,2.619H655.5v8.664c0,1.881-1.41,2.351-2.619,1.209a3.085,3.085,0,0,0-2.418-1.343,4.375,4.375,0,0,0,0,8.6Z" transform="translate(-163.02 -121.715)" fill="#fb8c00" opacity="0.38"/>
        <g id="Group_302527" data-name="Group 302527" transform="translate(374.735 18.004)">
          <g id="Group_302526" data-name="Group 302526">
            <line id="Line_709" data-name="Line 709" x1="4.634" transform="translate(56.755)" fill="none" stroke="#284f63" stroke-miterlimit="10" stroke-width="1"/>
            <line id="Line_710" data-name="Line 710" x1="36.471" transform="translate(9.806)" fill="none" stroke="#284f63" stroke-miterlimit="10" stroke-width="1" stroke-dasharray="7.86 7.86"/>
            <path id="Path_134481" data-name="Path 134481" d="M489.034,55.5H484.4v2.351" transform="translate(-484.4 -55.5)" fill="none" stroke="#284f63" stroke-miterlimit="10" stroke-width="1"/>
            <line id="Line_711" data-name="Line 711" y2="5.978" transform="translate(0 6.314)" fill="none" stroke="#284f63" stroke-miterlimit="10" stroke-width="1" stroke-dasharray="5.935 5.935"/>
            <line id="Line_712" data-name="Line 712" y2="2.351" transform="translate(0 14.306)" fill="none" stroke="#284f63" stroke-miterlimit="10" stroke-width="1"/>
          </g>
        </g>
        <path id="Path_134482" data-name="Path 134482" d="M216.177,134.5H187.9v41.374" transform="translate(-12.313 -63.435)" fill="none" stroke="#284f63" stroke-miterlimit="10" stroke-width="1" stroke-dasharray="7"/>
        <line id="Line_713" data-name="Line 713" y2="61.457" transform="translate(351.831 -28.005)" fill="none" stroke="#284f63" stroke-miterlimit="10" stroke-width="1" stroke-dasharray="7"/>
        <path id="Path_134483" data-name="Path 134483" d="M435.3-18.2H550.624V18.137" transform="translate(-93.544 -13.298)" fill="none" stroke="#284f63" stroke-miterlimit="10" stroke-width="1" stroke-dasharray="7"/>
        <path id="Path_134484" data-name="Path 134484" d="M604.987,83.7v56.084H588.8" transform="translate(-143.944 -46.755)" fill="none" stroke="#284f63" stroke-miterlimit="10" stroke-width="1" stroke-dasharray="7"/>
        <path id="Path_134485" data-name="Path 134485" d="M623.5,78.9h34.792V235.464" transform="translate(-155.337 -45.179)" fill="none" stroke="#284f63" stroke-miterlimit="10" stroke-width="1" stroke-dasharray="7"/>
        <g id="Group_302528" data-name="Group 302528" transform="translate(248.866 88.662)">
          <path id="Path_134486" data-name="Path 134486" d="M416.181,218.732,439.622,160.7H424.106l-16.053,37.479L396.635,160.7H384.68l-12.224,37.479-8.664-17.06L356,205.164l7.926,13.568h15.314l11.082-33.65,10.545,33.65Z" transform="translate(-316.372 -160.7)" fill="#0271a6"/>
          <path id="Path_134487" data-name="Path 134487" d="M311.709,198.783h9.538a30.033,30.033,0,0,0,7.724-.94l2.485-7.59,6.918-21.292a15.627,15.627,0,0,0-1.814-2.351c-3.56-3.9-8.732-5.911-15.583-5.911H297v58.032h14.709Zm12.627-24.717a7.55,7.55,0,0,1,2.082,5.575,8.072,8.072,0,0,1-1.814,5.575c-1.343,1.545-3.761,2.284-7.388,2.284h-5.508V171.917h5.575c3.358.067,5.709.739,7.052,2.149Zm86.376,34.255,4.433-11.284h12.9l-6.112-17.06,7.657-19.277,21.9,58.032h-16.12L431.6,208.321Z" transform="translate(-297 -160.7)" fill="#284f63"/>
        </g>
        <g id="iphone" transform="translate(160.676 112.036)">
          <g id="XMLID_9_">
            <path id="Path_134488" data-name="Path 134488" d="M172.3,310.873a4.071,4.071,0,0,1-4.1-4.1V202a4.071,4.071,0,0,1,4.1-4.1h50.979a4.071,4.071,0,0,1,4.1,4.1V306.709a4.071,4.071,0,0,1-4.1,4.1H172.3Z" transform="translate(-166.521 -196.288)" fill="#fff"/>
            <path id="Path_134489" data-name="Path 134489" d="M222.455,198.858a2.408,2.408,0,0,1,2.418,2.418V305.988a2.408,2.408,0,0,1-2.418,2.418H171.476a2.408,2.408,0,0,1-2.418-2.418V201.209a2.408,2.408,0,0,1,2.418-2.418h50.979m0-3.291H171.476a5.776,5.776,0,0,0-5.776,5.776V305.988a5.776,5.776,0,0,0,5.776,5.776h50.979a5.776,5.776,0,0,0,5.776-5.776V201.209a5.762,5.762,0,0,0-5.776-5.709Z" transform="translate(-165.7 -195.5)" fill="#284f63"/>
          </g>
          <path id="XMLID_2_" d="M226.067,212.9H169.111a1.419,1.419,0,0,1-1.411-1.41V200.61a1.419,1.419,0,0,1,1.411-1.41h56.957a1.419,1.419,0,0,1,1.411,1.41v10.881A1.419,1.419,0,0,1,226.067,212.9Z" transform="translate(-166.357 -196.715)" fill="#284f63"/>
          <path id="XMLID_6_" d="M226.067,356.1H169.111a1.419,1.419,0,0,1-1.411-1.41V339.311a1.419,1.419,0,0,1,1.411-1.41h56.957a1.419,1.419,0,0,1,1.411,1.41v15.381A1.419,1.419,0,0,1,226.067,356.1Z" transform="translate(-166.357 -242.255)" fill="#284f63"/>
          <path id="XMLID_5_" d="M213.459,207.254H202.242a1.177,1.177,0,0,1-1.142-1.142v-.47a1.177,1.177,0,0,1,1.142-1.142h11.217a1.177,1.177,0,0,1,1.142,1.142v.47A1.092,1.092,0,0,1,213.459,207.254Z" transform="translate(-177.323 -198.455)" fill="#fff"/>
          <circle id="XMLID_3_" cx="3.761" cy="3.761" r="3.761" transform="translate(27.605 101.555)" fill="#fff"/>
        </g>
        <path id="Path_134491" data-name="Path 134491" d="M282.8-50.837l11.418-1.545v11.015L282.8-41.3Zm11.418,10.747v11.082L282.8-30.553v-9.538Zm1.41-12.493,15.18-2.216v13.3l-15.18.134Zm15.18,12.627v13.232l-15.18-2.149v-11.15Z" transform="translate(-43.472 -1.281)" fill="#60a6df"/>
        <path id="Path_134492" data-name="Path 134492" d="M174.3,121.131V-31h23.038" transform="translate(-7.847 -9.095)" fill="none" stroke="#284f63" stroke-miterlimit="10" stroke-width="1" stroke-dasharray="7"/>
        <g id="Group_302534" data-name="Group 302534" transform="translate(150.4 -20.728)">
          <g id="Group_302529" data-name="Group 302529" transform="translate(5.44 11.664)">
            <path id="Path_134493" data-name="Path 134493" d="M178.918,32.495a1.2,1.2,0,0,1-1.209,1.209h-18a1.2,1.2,0,0,1-1.209-1.209V16.509a1.2,1.2,0,0,1,1.209-1.209h18a1.2,1.2,0,0,1,1.209,1.209Z" transform="translate(-158.5 -15.233)" fill="#60a6df"/>
            <rect id="Rectangle_162637" data-name="Rectangle 162637" width="20.486" height="8.396" transform="translate(0)" fill="#60a6df"/>
          </g>
          <g id="Group_302530" data-name="Group 302530" transform="translate(0 10.992)">
            <path id="Path_134494" data-name="Path 134494" d="M194.9,26.156a2.164,2.164,0,0,1-2.149,2.149h0a2.164,2.164,0,0,1-2.149-2.149V16.349a2.164,2.164,0,0,1,2.149-2.149h0a2.164,2.164,0,0,1,2.149,2.149Z" transform="translate(-163.599 -14.2)" fill="#60a6df"/>
            <path id="Path_134495" data-name="Path 134495" d="M154.7,26.156a2.164,2.164,0,0,1-2.149,2.149h0a2.164,2.164,0,0,1-2.149-2.149V16.349a2.164,2.164,0,0,1,2.149-2.149h0a2.164,2.164,0,0,1,2.149,2.149Z" transform="translate(-150.4 -14.2)" fill="#60a6df"/>
          </g>
          <path id="Path_134496" data-name="Path 134496" d="M158.6,9.2S158.8.533,168.742.6c9.806,0,10.142,8.6,10.142,8.6Z" transform="translate(-153.092 1.258)" fill="#60a6df"/>
          <g id="Group_302531" data-name="Group 302531" transform="translate(10.008 4.88)">
            <circle id="Ellipse_4665" data-name="Ellipse 4665" cx="1.209" cy="1.209" r="1.209" fill="#fff"/>
            <circle id="Ellipse_4666" data-name="Ellipse 4666" cx="1.209" cy="1.209" r="1.209" transform="translate(8.866)" fill="#fff"/>
          </g>
          <g id="Group_302532" data-name="Group 302532" transform="translate(9 0)">
            <path id="Path_134497" data-name="Path 134497" d="M165.681.834c.067.067.134.067.269-.067h0a.966.966,0,0,0,.134-.2L164.2-2.122c-.067-.067-.134-.067-.269.067h0a.239.239,0,0,0-.134.2Z" transform="translate(-163.8 2.166)" fill="#60a6df"/>
            <path id="Path_134498" data-name="Path 134498" d="M180.6.834c-.067.067-.134.067-.269-.067h0a.965.965,0,0,1-.134-.2l1.881-2.687c.067-.067.134-.067.269.067h0a.239.239,0,0,1,.134.2Z" transform="translate(-169.185 2.166)" fill="#60a6df"/>
          </g>
          <g id="Group_302533" data-name="Group 302533" transform="translate(9.336 23.687)">
            <path id="Path_134499" data-name="Path 134499" d="M181.1,44.988a2.164,2.164,0,0,1-2.149,2.149h0a2.164,2.164,0,0,1-2.149-2.149V35.249a2.164,2.164,0,0,1,2.149-2.149h0a2.164,2.164,0,0,1,2.149,2.149Z" transform="translate(-168.404 -33.1)" fill="#60a6df"/>
            <path id="Path_134500" data-name="Path 134500" d="M168.6,44.988a2.164,2.164,0,0,1-2.149,2.149h0a2.164,2.164,0,0,1-2.149-2.149V35.249a2.164,2.164,0,0,1,2.149-2.149h0a2.164,2.164,0,0,1,2.149,2.149Z" transform="translate(-164.3 -33.1)" fill="#60a6df"/>
          </g>
        </g>
        <path id="Path_134501" data-name="Path 134501" d="M252.2-34.7" transform="translate(-33.425 -7.88)" fill="none" stroke="#9b9b9b" stroke-miterlimit="10" stroke-width="1" stroke-dasharray="7"/>
        <line id="Line_714" data-name="Line 714" x2="46.143" transform="translate(273.045 -40.095)" fill="none" stroke="#284f63" stroke-miterlimit="10" stroke-width="1" stroke-dasharray="7"/>
        <line id="Line_715" data-name="Line 715" y1="0.067" x2="20.553" transform="translate(216.693 -42.647)" fill="none" stroke="#9b9b9b" stroke-miterlimit="10" stroke-width="1" stroke-dasharray="7"/>
        <line id="Line_716" data-name="Line 716" y2="73.547" transform="translate(298.904 -40.095)" fill="none" stroke="#284f63" stroke-miterlimit="10" stroke-width="1" stroke-dasharray="7"/>
        <g id="globe_3_" transform="translate(441.229 4.033)">
          <circle id="Ellipse_4667" data-name="Ellipse 4667" cx="15.851" cy="15.851" r="15.851" fill="none" stroke="#60a6df" stroke-miterlimit="10" stroke-width="3"/>
          <path id="Path_134502" data-name="Path 134502" d="M587.4,70.86c2.821-1.746,23.441-1.746,26.262,0" transform="translate(-584.713 -46.143)" fill="none" stroke="#60a6df" stroke-miterlimit="10" stroke-width="3"/>
          <path id="Path_134503" data-name="Path 134503" d="M586.5,46.6c2.754,1.813,24.784,1.813,27.538,0" transform="translate(-584.418 -38.607)" fill="none" stroke="#60a6df" stroke-miterlimit="10" stroke-width="3"/>
          <path id="Path_134504" data-name="Path 134504" d="M610.88,50.551c0,8.732-5.508,15.851-7.59,15.851s-7.59-7.12-7.59-15.851S601.208,34.7,603.29,34.7,610.88,41.82,610.88,50.551Z" transform="translate(-587.439 -34.7)" fill="none" stroke="#60a6df" stroke-miterlimit="10" stroke-width="3"/>
          <line id="Line_717" data-name="Line 717" x2="31.702" transform="translate(0 16.523)" fill="none" stroke="#60a6df" stroke-miterlimit="10" stroke-width="3"/>
        </g>
        <g id="lines_1_" transform="translate(168.804 131.649)" opacity="0.49">
          <path id="XMLID_13_" d="M223.842,231.014H178.37c-.269,0-.47-.4-.47-.873v-4.567c0-.47.2-.873.47-.873h45.471c.269,0,.47.4.47.873v4.567C224.245,230.678,224.11,231.014,223.842,231.014Z" transform="translate(-177.833 -224.7)" fill="#bcdaf3"/>
          <path id="XMLID_12_" d="M223.842,247.114H178.37c-.269,0-.47-.4-.47-.873v-4.567c0-.47.2-.873.47-.873h45.471c.269,0,.47.4.47.873v4.567C224.245,246.711,224.11,247.114,223.842,247.114Z" transform="translate(-177.833 -229.986)" fill="#bcdaf3"/>
          <path id="XMLID_4_" d="M199.629,263.814H178.27c-.269,0-.47-.4-.47-.873v-4.567c0-.47.2-.873.47-.873h21.359c.269,0,.47.4.47.873v4.567C200.032,263.411,199.83,263.814,199.629,263.814Z" transform="translate(-177.8 -235.469)" fill="#bcdaf3"/>
        </g>
        <path id="Path_134505" data-name="Path 134505" d="M223.174,311.985h-45c-.47,0-.873-.269-.873-.537v-37.21c0-.336.4-.537.873-.537h45c.47,0,.873.269.873.537v37.21C224.048,311.783,223.645,311.985,223.174,311.985Z" transform="translate(-8.832 -109.14)" fill="#bcdaf3" opacity="0.49"/>
        <path id="Path_134506" data-name="Path 134506" d="M258.8,347.029H400.252V338.7" transform="translate(-35.592 -130.482)" fill="none" stroke="#284f63" stroke-miterlimit="10" stroke-width="1" stroke-dasharray="7"/>
      </g>
      <g id="Group_302535" data-name="Group 302535" transform="translate(-490 20734.576)">
        <g id="Group_294387" data-name="Group 294387" transform="translate(1306.771 -19703.371)">
          <rect id="Rectangle_161654" data-name="Rectangle 161654" width="80.115" height="118.506" transform="translate(91.437 231.621) rotate(180)" fill="#60a6df"/>
          <rect id="Rectangle_161655" data-name="Rectangle 161655" width="9.709" height="118.506" transform="translate(1.614 113.116)" fill="#4e95cf"/>
          <g id="Group_294386" data-name="Group 294386">
            <path id="Path_129448" data-name="Path 129448" d="M243.606,262.431l9,7.017-4.233,5.608-10.845-5.7Z" transform="translate(-174.485 -153.355)" fill="#edbc9c"/>
            <path id="Path_129449" data-name="Path 129449" d="M194.16,225.645c.506.2,34.022-7.482,47.576-10.6A12.719,12.719,0,0,1,252,217.108l.156.112a12.721,12.721,0,0,1,4.82,13.808h0a12.71,12.71,0,0,1-6.117,7.676c-9.079,4.979-28.289,15.449-28.849,15.2-.734-.326-24.014-2.05-24.014-2.05l15.256-10.839L194.16,225.645Z" transform="translate(-158.968 -136.286)" fill="#176a92"/>
            <path id="Path_129450" data-name="Path 129450" d="M188.034,244.464l2.927,11.577-.6,3.456h0a17.874,17.874,0,0,1-23.624.456h0a17.516,17.516,0,0,1-6.17-14.283l.625-11.919Z" transform="translate(-146.941 -143.094)" fill="#176a92"/>
            <g id="Group_294384" data-name="Group 294384">
              <path id="Path_129451" data-name="Path 129451" d="M261.05,164.16s6.357,16.158,7.974,20.991,1.463,13.545-10.837,11.1-9.489-33.482-9.489-33.482Z" transform="translate(-178.382 -117.699)" fill="#edbc9c"/>
              <g id="Group_294383" data-name="Group 294383">
                <path id="Path_129452" data-name="Path 129452" d="M195.129,93.39c-6.35-.812-12.465,2.834-17.071,7.281s-8.3,9.818-13.273,13.856a33.789,33.789,0,0,1-25.279,7.2c-.589,8.033.463,16.829,6,22.678,4.84,5.11,12.152,6.974,19.128,7.9,4.415.588,8.961.888,13.278-.206,6.809-1.724,12.44-6.864,15.781-13.041s4.579-13.31,4.68-20.332q.041-2.886-.161-5.769" transform="translate(-139.362 -92.834)"/>
                <path id="Path_129453" data-name="Path 129453" d="M224.552,95.085c-.612.057-2.5-1.4-3.142-1.636a12.414,12.414,0,0,0-7.98-.369,14.98,14.98,0,0,0-10.236,16.367,11.224,11.224,0,0,0,4.549,7.75c2.25,1.487,5.048,1.851,7.741,1.981a21.638,21.638,0,0,0,5.384-.276,13.857,13.857,0,0,0,10.521-11.32C231.89,103.818,229.736,94.6,224.552,95.085Z" transform="translate(-162.143 -92.587)"/>
                <path id="Path_129454" data-name="Path 129454" d="M224.482,130.766a7.785,7.785,0,0,1-5.618-5.868,7.3,7.3,0,0,0,6.278-4.279,12.009,12.009,0,0,0,.589-7.839,35.782,35.782,0,0,0-2.919-7.443c-3.941.818-7.884,2.668-10.415,5.8s-2.106,7.469-3.916,11.171a63.186,63.186,0,0,1-2.914,5.722,8.309,8.309,0,0,1-4.388,3.577,17.939,17.939,0,0,0,11.857,3.971A17.7,17.7,0,0,0,224.482,130.766Z" transform="translate(-161.48 -97.149)" fill="#edbc9c"/>
                <path id="Path_129455" data-name="Path 129455" d="M168.834,154.925l9.988,11.559.34,29.555,41.47.936,4.941-28.185,8.4-11.837s-4.453-12.557-25.692-12.985C188.839,143.577,173.2,143.471,168.834,154.925Z" transform="translate(-149.907 -110.928)" fill="#60a6df"/>
                <path id="Path_129456" data-name="Path 129456" d="M164.421,162.863s-7.372,23.514-9.166,30.282-.727,12.573,14,11.811,17.394-2.837,24.279-.915,9.137-1.642,9.277-4.573-.069-3.363-.069-3.363-6.122-.239-14.578-.033a166.7,166.7,0,0,1-19.894-1.2l5.356-21.49Z" transform="translate(-144.815 -117.731)" fill="#edbc9c"/>
                <path id="Path_129457" data-name="Path 129457" d="M214.913,117.962c-.3,1.346-1.338,2.26-2.318,2.042s-1.533-1.487-1.234-2.832,1.338-2.26,2.318-2.042S215.212,116.616,214.913,117.962Z" transform="translate(-165.093 -100.641)" fill="#edbc9c"/>
                <path id="Path_129458" data-name="Path 129458" d="M189.611,205.283l18.062.868,7.152-27.8,37.387,1.8-7.385,32.652-52.65-2.53-3.227-3.587A.836.836,0,0,1,189.611,205.283Z" transform="translate(-157.026 -123.271)" fill="#0271a6"/>
                <circle id="Ellipse_4595" data-name="Ellipse 4595" cx="4.8" cy="4.8" r="4.8" transform="translate(72.453 71.478) rotate(-87.736)" fill="#adb9be"/>
              </g>
            </g>
            <g id="Group_294385" data-name="Group 294385" transform="translate(13.942 77.331)">
              <path id="Path_129459" data-name="Path 129459" d="M215.968,259.047l6.911-11.113L186.3,216.9a15.1,15.1,0,0,0-8.039-3.754h0a15.1,15.1,0,0,0-17.184,15.492l.255,7.207,24.535,9.205Z" transform="translate(-161.072 -213)" fill="#176a92"/>
            </g>
            <path id="Path_129460" data-name="Path 129460" d="M206.879,224.737c9.773,8.723,22.532,18.56,32.3,27.282" transform="translate(-163.519 -139.869)" fill="none" stroke="#60a6df" stroke-miterlimit="10" stroke-width="0.956"/>
            <path id="Path_129461" data-name="Path 129461" d="M193.695,257.256c-6.716-2.584-13.743-5.386-18.316-10.942" transform="translate(-152.249 -147.589)" fill="none" stroke="#60a6df" stroke-miterlimit="10" stroke-width="0.956"/>
            <path id="Path_129462" data-name="Path 129462" d="M251.9,231.248c-4.764,3.958-9.588,8.067-14.352,12.025" transform="translate(-174.493 -142.198)" fill="none" stroke="#60a6df" stroke-miterlimit="10" stroke-width="0.956"/>
            <path id="Path_129463" data-name="Path 129463" d="M209.582,276.426c2.2,1.471,4.492,2.982,7.109,3.36s7.446-.019,8.416-2.478a6.246,6.246,0,0,0-.474-4.96c-1.047-2.127-4.783-4.627-7.122-5.018-2.165-.362-4.362.478-6.553.355-2.5-.14-4.783-1.514-7.267-1.823a2.7,2.7,0,0,0-1.126.044,2.185,2.185,0,0,0-1.058.8,4.449,4.449,0,0,0,.417,5.337C203.787,274.313,207.183,274.818,209.582,276.426Z" transform="translate(-161.342 -154.569)" fill="#fdfbf2"/>
            <path id="Path_129464" data-name="Path 129464" d="M257.725,272.049s-3.461,4.635-4.887,6.253c0,0,2.5,1.288,4.342,2.285s6.964,10.133,13.944,10.857,5.473.586,7.181-1.278-5.449-10.124-9.951-11.9S259.375,274.2,257.725,272.049Z" transform="translate(-179.963 -156.797)" fill="#fdfbf2"/>
          </g>
        </g>
      </g>
      <g id="Group_294391" data-name="Group 294391" transform="translate(1241.271 1031.205)">
        <rect id="Rectangle_161656" data-name="Rectangle 161656" width="97.507" height="112.031" transform="translate(122.496 231.62) rotate(180)" fill="#60a6df"/>
        <rect id="Rectangle_161657" data-name="Rectangle 161657" width="14.912" height="112.031" transform="translate(10.077 119.59)" fill="#4e95cf"/>
        <g id="Group_294390" data-name="Group 294390">
          <path id="Path_129465" data-name="Path 129465" d="M500.947,221.3a4.142,4.142,0,0,1,5.447,4.757c-1.839,8.66-4.834,22.627-6.1,27.7-1.883,7.578-6.044,12.676-20.025,4.022S464.8,245.67,457.038,243.85c-2.783-.653-6.061-2.015-7.025-4.979a5.654,5.654,0,0,1-.117-2.949c.093-.431.448-.962.483-1.371.077-.9-.766-1.626-1.39-2.16l-5.025-4.31c-.7-.6-1.07-1.623.2-1.489,1.091.116,2.513,1.16,3.465,1.684,2.155,1.185,4.218,2.529,6.379,3.7,3.205,1.745,8.45,4.6,11.614,6.42q.475.272.947.547a185.937,185.937,0,0,0,20.086,9.514l4.107-16A16.09,16.09,0,0,1,500.947,221.3Z" transform="translate(-443.323 -170.924)" fill="#edbc9c"/>
          <g id="Group_294388" data-name="Group 294388" transform="translate(52.738 170.431)">
            <path id="Path_129466" data-name="Path 129466" d="M536.639,378.191,535.257,404l-3.5,6.855-7.1-6.855-1.229-29.036Z" transform="translate(-513.553 -374.965)" fill="#edbc9c"/>
            <path id="Path_129467" data-name="Path 129467" d="M532.451,411.309s2.362,7.557,1.889,8.973-22.355,14.956-22.355,14.956a8.579,8.579,0,0,1-1.1-5.353c.472-2.834,10.015-7.411,10.705-18.577.334-5.419,6.914-3.29,6.184.947C527.2,415.581,532.451,411.309,532.451,411.309Z" transform="translate(-510.795 -382.194)" fill="#176a92"/>
          </g>
          <g id="Group_294389" data-name="Group 294389" transform="translate(28.44 166.713)">
            <path id="Path_129468" data-name="Path 129468" d="M505.553,373.434l-1.383,25.81-3.5,6.855-7.1-6.855-1.229-29.036Z" transform="translate(-482.467 -370.208)" fill="#edbc9c"/>
            <path id="Path_129469" data-name="Path 129469" d="M501.365,406.552s2.361,7.557,1.889,8.974S480.9,430.481,480.9,430.481a8.576,8.576,0,0,1-1.1-5.353c.472-2.833,10.015-7.411,10.705-18.577.335-5.419,6.914-3.289,6.184.947C496.113,410.824,501.365,406.552,501.365,406.552Z" transform="translate(-479.709 -377.437)" fill="#176a92"/>
          </g>
          <path id="Path_129470" data-name="Path 129470" d="M548.992,279.459s8.714,24.119-.3,29.181-31.849,2.679-31.849,2.679l-.9,52.226-27.128.907-1.716-57.6s-1.3-15.028,13.521-18.163c21.23-4.491,19.344-9.94,19.344-9.94Z" transform="translate(-452.876 -183.523)" fill="#222"/>
          <path id="Path_129471" data-name="Path 129471" d="M572.213,279.665s8.714,24.338-.3,29.446-31.849,2.7-31.849,2.7L536.7,367.15l-20.671.454-5.71-60.3s-1.6-17.291,13.521-18.328c17.975-1.233,19.075-8.93,19.075-8.93Z" transform="translate(-457.942 -183.723)" fill="#222"/>
          <path id="Path_129472" data-name="Path 129472" d="M537.432,196.688c.662.69,3.73-2.421,4.186-2.87a7.631,7.631,0,0,0,2.418-4.318c-3.363.373-5.079-2.7-5.717-5.47-.285-1.236-.532-2.48-.693-3.738a25.272,25.272,0,0,1,.578-9.269c.139-.577.818-5.9,1.791-5.652a23.97,23.97,0,0,1,12.533,8.28c2.827,3.86,2.076,8.989,4.013,13.489a75.3,75.3,0,0,0,3.134,6.961,9.881,9.881,0,0,0,5.006,4.5,21.319,21.319,0,0,1-14.306,4.038A19.636,19.636,0,0,1,537.432,196.688Z" transform="translate(-463.874 -158.762)" fill="#edbc9c"/>
          <path id="Path_129473" data-name="Path 129473" d="M502.235,226.968l12.5,4.915,3.993,31.658L571.7,264.72l-4.762-32.9,11.743-12.351c-2.836-8.639-11.5-11.86-23.37-13.2H555.3c-3.887-.456-8.125-.7-12.607-.875a1.562,1.562,0,0,0-.421.07c0,.011-.012.011-.023.011a15.732,15.732,0,0,0-2.907,1.518,16.087,16.087,0,0,1-3.245,1.681c-.011,0-.023.011-.034.011-.7.363-1.109.572-1.109.572a15.706,15.706,0,0,1-.374-4.1c-.875,0-2.311.012-3.129.023l-.91.035C507.99,206.283,502.235,226.968,502.235,226.968Z" transform="translate(-456.188 -167.453)" fill="#fec35b"/>
          <path id="Path_129474" data-name="Path 129474" d="M567.758,257.774H547.94l-6.367-30.814H500.551l6.366,36.133h57.769l3.722-3.757A.917.917,0,0,0,567.758,257.774Z" transform="translate(-455.82 -172.213)" fill="#60a6df"/>
          <path id="Path_129475" data-name="Path 129475" d="M586.594,224.381s6.859,27.109,8.495,34.744.137,14.044-16.224,12.408-19.224-4.091-27-2.318-10.089-2.318-10.089-5.59.258-3.742.258-3.742,6.832.062,16.239.743a186.007,186.007,0,0,0,22.224-.273L575.435,235.8Z" transform="translate(-464.823 -171.65)" fill="#edbc9c"/>
          <path id="Path_129476" data-name="Path 129476" d="M521.708,247.293c0,1.857,2.356,3.363,5.261,3.363s5.26-1.505,5.26-3.363-2.355-3.363-5.26-3.363S521.708,245.435,521.708,247.293Z" transform="translate(-460.44 -175.919)" fill="#ff903e" stroke="#f2d25e" stroke-miterlimit="10" stroke-width="1" opacity="0.7" style="mix-blend-mode: screen;isolation: isolate"/>
          <path id="Path_129477" data-name="Path 129477" d="M558.154,180.187c.279,1.615,1.459,2.76,2.636,2.557s1.906-1.677,1.627-3.293-1.459-2.76-2.636-2.557S557.875,178.572,558.154,180.187Z" transform="translate(-468.386 -161.275)" fill="#edbc9c"/>
          <path id="Path_129478" data-name="Path 129478" d="M553.479,176.778s-4.135,5.309-4-3.163a.606.606,0,0,0-.58-.534c-1.118-.139-3.7-1.012-3.549-6.128a.766.766,0,0,0-.813-.764,51.282,51.282,0,0,0-5.488.373,6.73,6.73,0,0,0-1.005.27,17.014,17.014,0,0,0-.764,2.529c-.108.349-.492,2.551-.492,2.551s-1.425-.439-1.432-1.351.385-2.917.2-3.37-1.578-.779-1.809-1.832c-.519-2.382-1.537-11.667,6.57-7.279,1.061.574,5.074.714,7.391.478,3.238-.328,17.643.6,15.918,14.1-1.025,8.012-2.313,10.659-4.445,12.235-.361.267-2.128,1.981-2.437,2.146A2.488,2.488,0,0,1,555,187.3a6.1,6.1,0,0,1-.477-2.189C554.448,182.4,554.657,177.724,553.479,176.778Z" transform="translate(-462.994 -156.918)"/>
          <path id="Path_129479" data-name="Path 129479" d="M556.994,180.876s.312-3.252,2.966-2.8c3.563.607,3.551,9.35-3.907,9.48A27.3,27.3,0,0,1,556.994,180.876Z" transform="translate(-467.94 -161.529)" fill="#edbc9c"/>
          <path id="Path_129480" data-name="Path 129480" d="M544.1,207.929l2.358,5.849s9.42-5.137,11.452-6.2a64.626,64.626,0,0,1,6.537-2.638h.012c.116-.047.187-.07.187-.07a59.334,59.334,0,0,0-3.9-5.8c-2.124,1.261-5.907,3.281-9.327,5.066,0,.011-.012.011-.023.011-1.015.537-2.008,1.051-2.907,1.518-1.319.689-2.451,1.272-3.245,1.681-.011,0-.023.011-.034.011C544.506,207.719,544.1,207.929,544.1,207.929Z" transform="translate(-465.329 -166.123)" fill="#efb040"/>
          <path id="Path_129481" data-name="Path 129481" d="M538.3,212.957c1.18-2.382,2.779-3.409,4.425-4.728a15.706,15.706,0,0,1-.374-4.1c.012-1.938.163-3.689.163-3.689-1.436.5-4.144,3.549-4.144,3.549-.023.07-.035.128-.058.2A19.957,19.957,0,0,0,538.3,212.957Z" transform="translate(-463.952 -166.423)" fill="#efb040"/>
          <path id="Path_129482" data-name="Path 129482" d="M596.72,222.558l4.195,16.122L586.377,244.7l-1.539-10.023,10.4-15.418Z" transform="translate(-474.226 -170.532)" fill="#fec35b"/>
        </g>
      </g>
    </g>
    <rect id="Rectangle_162638" data-name="Rectangle 162638" width="570" height="0.939" transform="translate(802 1262)" fill="#284f63"/>
  </g>
</svg>
