<svg xmlns="http://www.w3.org/2000/svg" xmlns:xlink="http://www.w3.org/1999/xlink" width="471.306" height="314.074" viewBox="0 0 471.306 314.074">
  <defs>
    <linearGradient id="linear-gradient" y1="0.5" x2="1" y2="0.5" gradientUnits="objectBoundingBox">
      <stop offset="0" stop-color="#025cdc"/>
      <stop offset="1" stop-color="#5394ed"/>
    </linearGradient>
    <linearGradient id="linear-gradient-4" x1="0" y1="0.5" x2="1" y2="0.5" xlink:href="#linear-gradient"/>
    <linearGradient id="linear-gradient-6" y1="0.5" x2="1" y2="0.5" gradientUnits="objectBoundingBox">
      <stop offset="0" stop-color="#f1f5fd"/>
      <stop offset="1" stop-color="#fff"/>
    </linearGradient>
  </defs>
  <g id="progress" transform="translate(-292.695 -144.302)">
    <g id="Group_184416" data-name="Group 184416" transform="translate(292.695 144.302)">
      <ellipse id="Ellipse_3731" data-name="Ellipse 3731" cx="51.215" cy="7.373" rx="51.215" ry="7.373" transform="translate(0 299.327)" fill="#ecf4fc"/>
      <ellipse id="Ellipse_3732" data-name="Ellipse 3732" cx="36.615" cy="7.373" rx="36.615" ry="7.373" transform="translate(398.076 299.327)" fill="#ecf4fc"/>
      <g id="Group_184415" data-name="Group 184415" transform="translate(15.997)">
        <g id="Group_184386" data-name="Group 184386" transform="translate(86.433 51.111)">
          <g id="Group_184375" data-name="Group 184375">
            <rect id="Rectangle_152061" data-name="Rectangle 152061" width="276.399" height="175.31" fill="#5aa9ff"/>
            <rect id="Rectangle_152062" data-name="Rectangle 152062" width="265.089" height="165.984" transform="translate(5.656 4.664)" fill="#fff"/>
          </g>
          <g id="Group_184376" data-name="Group 184376" transform="translate(63.033 17.721)">
            <rect id="Rectangle_152063" data-name="Rectangle 152063" width="9.897" height="42.414" transform="translate(0 14.821)" fill="#257cd4"/>
            <rect id="Rectangle_152064" data-name="Rectangle 152064" width="9.897" height="57.235" transform="translate(35.109)" fill="#257cd4"/>
            <rect id="Rectangle_152065" data-name="Rectangle 152065" width="9.897" height="23.564" transform="translate(17.555 33.672)" fill="#257cd4"/>
            <rect id="Rectangle_152066" data-name="Rectangle 152066" width="9.897" height="18.497" transform="translate(105.329 38.738)" fill="#257cd4"/>
            <rect id="Rectangle_152067" data-name="Rectangle 152067" width="9.897" height="30.457" transform="translate(140.438 26.778)" fill="#257cd4"/>
            <rect id="Rectangle_152068" data-name="Rectangle 152068" width="9.897" height="38.449" transform="translate(122.883 18.787)" fill="#257cd4"/>
            <rect id="Rectangle_152069" data-name="Rectangle 152069" width="9.897" height="33.003" transform="translate(52.664 24.233)" fill="#257cd4"/>
            <rect id="Rectangle_152070" data-name="Rectangle 152070" width="9.897" height="44.535" transform="translate(87.774 12.7)" fill="#257cd4"/>
            <rect id="Rectangle_152071" data-name="Rectangle 152071" width="9.897" height="18.335" transform="translate(70.219 38.9)" fill="#257cd4"/>
          </g>
          <g id="Group_184381" data-name="Group 184381" transform="translate(19.088 83.866)">
            <g id="Group_184378" data-name="Group 184378" transform="translate(0 3.285)" opacity="0.3">
              <g id="Group_184377" data-name="Group 184377">
                <path id="Path_93886" data-name="Path 93886" d="M391.725,295.538a1.084,1.084,0,0,1-.864-1.739c4.275-5.647,8.836-11.182,13.554-16.452,5.8-6.469,12.92-13.053,21.763-12.776,7.9.239,13.727,5.763,19.368,11.1,3.347,3.17,6.807,6.448,10.667,8.6,6.724,3.753,15.372,4.357,23.729,1.654,7.111-2.3,13.99-6.887,20.444-13.634.924-.965,1.85-1.969,2.783-2.983,6.11-6.629,12.429-13.484,21.317-13.57h.16c5.165,0,10.479,2.461,16.238,7.521a133.422,133.422,0,0,1,9.941,10.07,115.972,115.972,0,0,0,11.146,11.075c8.75,7.238,18.684,10.062,26.581,7.553,8.221-2.612,13.606-10.224,18.815-17.586.512-.725,1.023-1.447,1.533-2.159,8.1-11.32,16.125-16.585,24.542-16.079a1.084,1.084,0,0,1-.13,2.165c-7.619-.454-15.012,4.514-22.647,15.177-.509.708-1.016,1.427-1.526,2.149-5.415,7.655-11.015,15.569-19.929,18.4-12.4,3.938-24.146-4.247-28.623-7.949a117.925,117.925,0,0,1-11.359-11.28,132.216,132.216,0,0,0-9.775-9.909c-5.4-4.742-10.243-7-14.944-6.98-7.951.077-13.946,6.582-19.744,12.872-.943,1.022-1.877,2.036-2.81,3.011-6.7,7.01-13.887,11.786-21.344,14.2-8.929,2.887-18.206,2.222-25.455-1.824-4.1-2.288-7.657-5.66-11.1-8.922-5.593-5.294-10.873-10.3-17.943-10.511-7.935-.257-14.619,5.958-20.079,12.056-4.68,5.226-9.2,10.714-13.444,16.315A1.078,1.078,0,0,1,391.725,295.538Z" transform="translate(-390.641 -255.744)" fill="#d8d8d8"/>
              </g>
              <path id="Path_93887" data-name="Path 93887" d="M424.932,280.336a5.656,5.656,0,1,1-5.656-5.655A5.656,5.656,0,0,1,424.932,280.336Z" transform="translate(-385.111 -251.187)" fill="#d8d8d8"/>
              <path id="Path_93888" data-name="Path 93888" d="M462.157,267.421a5.655,5.655,0,1,1-5.655-5.655A5.655,5.655,0,0,1,462.157,267.421Z" transform="translate(-376.152 -254.295)" fill="#d8d8d8"/>
              <path id="Path_93889" data-name="Path 93889" d="M505.27,268.32a5.655,5.655,0,1,1-5.655-5.655A5.654,5.654,0,0,1,505.27,268.32Z" transform="translate(-365.776 -254.078)" fill="#d8d8d8"/>
              <path id="Path_93890" data-name="Path 93890" d="M551.8,276.538a5.655,5.655,0,1,1-5.655-5.656A5.655,5.655,0,0,1,551.8,276.538Z" transform="translate(-354.578 -252.101)" fill="#d8d8d8"/>
            </g>
            <g id="Group_184380" data-name="Group 184380">
              <g id="Group_184379" data-name="Group 184379">
                <path id="Path_93891" data-name="Path 93891" d="M391.725,292.89a1.084,1.084,0,0,1-.864-1.739c4.275-5.648,8.836-11.182,13.554-16.452,5.8-6.469,12.92-13.053,21.763-12.776,7.9.241,13.727,5.763,19.368,11.1,3.347,3.17,6.807,6.448,10.667,8.6,6.724,3.753,15.372,4.357,23.729,1.654,7.111-2.3,13.99-6.887,20.444-13.634.924-.965,1.85-1.969,2.783-2.983,6.11-6.629,12.429-13.484,21.317-13.57h.16c5.165,0,10.479,2.461,16.238,7.521a133.434,133.434,0,0,1,9.941,10.07,115.971,115.971,0,0,0,11.146,11.075c8.75,7.239,18.684,10.062,26.581,7.553,8.221-2.612,13.606-10.224,18.815-17.586.512-.724,1.023-1.447,1.533-2.159,8.1-11.32,16.125-16.585,24.542-16.079a1.084,1.084,0,0,1-.13,2.165c-7.619-.454-15.012,4.514-22.647,15.177q-.763,1.064-1.526,2.149c-5.415,7.655-11.015,15.569-19.929,18.4-12.4,3.938-24.146-4.247-28.623-7.949a117.927,117.927,0,0,1-11.359-11.279,132,132,0,0,0-9.775-9.91c-5.4-4.742-10.243-7-14.944-6.98-7.951.077-13.946,6.582-19.744,12.872-.943,1.022-1.877,2.036-2.81,3.011-6.7,7.01-13.887,11.786-21.344,14.2-8.929,2.887-18.206,2.222-25.455-1.824-4.1-2.288-7.657-5.66-11.1-8.922-5.593-5.294-10.873-10.295-17.943-10.511-7.935-.257-14.619,5.958-20.079,12.056-4.68,5.226-9.2,10.714-13.444,16.315A1.078,1.078,0,0,1,391.725,292.89Z" transform="translate(-390.641 -253.096)" fill="url(#linear-gradient)"/>
              </g>
              <circle id="Ellipse_3733" data-name="Ellipse 3733" cx="5.655" cy="5.655" r="5.655" transform="translate(28.51 23.495)" fill="url(#linear-gradient)"/>
              <path id="Path_93892" data-name="Path 93892" d="M462.157,264.773a5.655,5.655,0,1,1-5.655-5.655A5.656,5.656,0,0,1,462.157,264.773Z" transform="translate(-376.152 -251.647)" fill="url(#linear-gradient)"/>
              <path id="Path_93893" data-name="Path 93893" d="M505.27,265.672a5.655,5.655,0,1,1-5.655-5.655A5.655,5.655,0,0,1,505.27,265.672Z" transform="translate(-365.776 -251.43)" fill="url(#linear-gradient-4)"/>
              <path id="Path_93894" data-name="Path 93894" d="M551.8,273.89a5.655,5.655,0,1,1-5.655-5.655A5.655,5.655,0,0,1,551.8,273.89Z" transform="translate(-354.578 -249.453)" fill="url(#linear-gradient)"/>
            </g>
          </g>
          <g id="Group_184382" data-name="Group 184382" transform="translate(115.697 130.214)">
            <rect id="Rectangle_152072" data-name="Rectangle 152072" width="30.213" height="31.751" transform="translate(7.299)" fill="#c1dffc"/>
            <path id="Path_93895" data-name="Path 93895" d="M474.754,290.454s4.04,26.446-6.244,29.751H500.1s5.877-.734,6.244-11.387,0-18.364,0-18.364Z" transform="translate(-468.51 -290.454)" fill="#257cd4"/>
            <rect id="Rectangle_152073" data-name="Rectangle 152073" width="25.832" height="1.601" transform="translate(9.888 2.388)" fill="#fff" opacity="0.5"/>
            <rect id="Rectangle_152074" data-name="Rectangle 152074" width="25.832" height="1.601" transform="translate(9.888 6.589)" fill="#fff" opacity="0.5"/>
            <rect id="Rectangle_152075" data-name="Rectangle 152075" width="25.832" height="1.601" transform="translate(9.888 10.79)" fill="#fff" opacity="0.5"/>
            <rect id="Rectangle_152076" data-name="Rectangle 152076" width="20.653" height="1.601" transform="translate(9.888 14.99)" fill="#fff" opacity="0.5"/>
            <rect id="Rectangle_152077" data-name="Rectangle 152077" width="14.905" height="1.601" transform="translate(9.888 19.191)" fill="#fff" opacity="0.5"/>
          </g>
          <g id="Group_184383" data-name="Group 184383" transform="translate(28.279 132.3)">
            <rect id="Rectangle_152078" data-name="Rectangle 152078" width="24.217" height="25.45" transform="translate(2.382 3.499) rotate(-8.219)" fill="#c1dffc"/>
            <path id="Path_93896" data-name="Path 93896" d="M399.594,295.754s6.236,20.517-1.545,24.318l25.059-3.62s4.578-1.256,3.649-9.748-2.1-14.569-2.1-14.569Z" transform="translate(-398.049 -292.135)" fill="#61a0e0"/>
            <rect id="Rectangle_152079" data-name="Rectangle 152079" width="20.706" height="1.283" transform="matrix(0.99, -0.143, 0.143, 0.99, 4.709, 5.096)" fill="#fff" opacity="0.5"/>
            <rect id="Rectangle_152080" data-name="Rectangle 152080" width="20.706" height="1.283" transform="matrix(0.99, -0.143, 0.143, 0.99, 5.19, 8.429)" fill="#fff" opacity="0.5"/>
            <rect id="Rectangle_152081" data-name="Rectangle 152081" width="20.706" height="1.283" transform="matrix(0.99, -0.143, 0.143, 0.99, 5.672, 11.761)" fill="#fff" opacity="0.5"/>
            <rect id="Rectangle_152082" data-name="Rectangle 152082" width="16.555" height="1.283" transform="matrix(0.99, -0.143, 0.143, 0.99, 6.153, 15.094)" fill="#fff" opacity="0.5"/>
            <rect id="Rectangle_152083" data-name="Rectangle 152083" width="11.947" height="1.283" transform="translate(6.634 18.427) rotate(-8.218)" fill="#fff" opacity="0.5"/>
          </g>
          <g id="Group_184384" data-name="Group 184384" transform="translate(189.291 129.637)">
            <rect id="Rectangle_152084" data-name="Rectangle 152084" width="24.242" height="25.477" transform="matrix(0.967, 0.254, -0.254, 0.967, 12.156, 2.105)" fill="#c1dffc"/>
            <path id="Path_93897" data-name="Path 93897" d="M539.4,289.988s-2.906,21.269-11.572,21.473l24.306,7.185s4.69.77,7.394-7.342,4.177-14.131,4.177-14.131Z" transform="translate(-527.828 -289.988)" fill="#61a0e0"/>
            <rect id="Rectangle_152085" data-name="Rectangle 152085" width="20.728" height="1.284" transform="translate(13.284 4.521) rotate(16.466)" fill="#fff" opacity="0.5"/>
            <rect id="Rectangle_152086" data-name="Rectangle 152086" width="20.728" height="1.284" transform="translate(12.328 7.754) rotate(16.466)" fill="#fff" opacity="0.5"/>
            <rect id="Rectangle_152087" data-name="Rectangle 152087" width="20.728" height="1.284" transform="translate(11.483 10.615) rotate(16.466)" fill="#fff" opacity="0.5"/>
          </g>
          <g id="Group_184385" data-name="Group 184385" transform="translate(9.325 46.339)">
            <rect id="Rectangle_152088" data-name="Rectangle 152088" width="32.044" height="33.676" transform="translate(9.43 2.514) rotate(0.791)" fill="#d8d8d8"/>
            <path id="Path_93898" data-name="Path 93898" d="M390.782,222.848s3.042,28.211-8.01,31.231l33.471,1.48s6.26-.5,7.149-11.771.861-19.46.861-19.46Z" transform="translate(-382.772 -222.848)" fill="#61a0e0"/>
            <rect id="Rectangle_152089" data-name="Rectangle 152089" width="27.399" height="1.698" transform="translate(11.646 5.255) rotate(2.532)" fill="#fff" opacity="0.5"/>
            <rect id="Rectangle_152090" data-name="Rectangle 152090" width="27.399" height="1.698" transform="matrix(0.999, 0.044, -0.044, 0.999, 11.449, 9.706)" fill="#fff" opacity="0.5"/>
            <rect id="Rectangle_152091" data-name="Rectangle 152091" width="27.399" height="1.698" transform="translate(11.275 13.647) rotate(2.532)" fill="#fff" opacity="0.5"/>
          </g>
        </g>
        <rect id="Rectangle_152092" data-name="Rectangle 152092" width="44.91" height="49.264" transform="translate(317.922 66.941)" fill="#d8d8d8" opacity="0.5"/>
        <g id="Group_184395" data-name="Group 184395" transform="translate(320.943 64.145)">
          <g id="Group_184388" data-name="Group 184388" transform="translate(60.136 38.683)">
            <path id="Path_93899" data-name="Path 93899" d="M653.466,282.39c-3.17,3.667-6.919,1.215-10.469-2.022-3.165-2.887-10.863-11.534-12.5-13.377-.2-.227-.306-.349-.306-.349L617.548,236.8l2.434-1.545,16.534,24.829,1.267,1.145,16.1,14.518A5.2,5.2,0,0,1,653.466,282.39Z" transform="translate(-611.592 -225.24)" fill="#ffad95"/>
            <path id="Path_93900" data-name="Path 93900" d="M650.954,277.352c-3.17,3.667-6.919,1.215-10.469-2.022-3.165-2.887-10.863-11.534-12.5-13.377l7.283-5.757,16.1,14.518A5.2,5.2,0,0,1,650.954,277.352Z" transform="translate(-609.079 -220.201)" fill="#77aee6"/>
            <g id="Group_184387" data-name="Group 184387">
              <path id="Path_93901" data-name="Path 93901" d="M612.952,230.991c.38-.269,1.087.966,1.572,1.526s.649.607.659.49a14.181,14.181,0,0,0-1.171-2.019c-.4-.573-1.05-1.464-.633-1.734s1,.675,1.563,1.433.9,1.6,1.1,1.49-1.495-3.136-1.608-3.368-.522-.965-.155-1.189.788.39,1,.713.767,1.252,1.18,2.056.541,1.064.687,1.02a12.524,12.524,0,0,0-.8-2.744c-.268-.715-.336-1.443.159-1.48s.881,1.373,1.156,2.161a18.284,18.284,0,0,0,1.062,2.64c.313.49.494,1,.732.793h0c.057-.043.1-.076.133-.1a2.1,2.1,0,0,0,.458-1.069,1.752,1.752,0,0,1,.825-1.033c.333-.184.643-.105.277.728a6.08,6.08,0,0,0-.408,2.818c.108.7.237,1.133-.3,1.7-.175.187,2.752,4.816,3.207,5.476s-2.634,2.16-2.954,1.591-2.594-5.77-3.023-5.825-.723-.242-1.5-1.082c-.387-.421-1.071-1.275-1.631-2,0,0-1.063-1.354-1.416-1.914S612.572,231.26,612.952,230.991Z" transform="translate(-612.747 -227.183)" fill="#e39985"/>
            </g>
          </g>
          <g id="Group_184392" data-name="Group 184392">
            <rect id="Rectangle_152093" data-name="Rectangle 152093" width="82.949" height="48.654" fill="url(#linear-gradient-6)"/>
            <g id="Group_184391" data-name="Group 184391" transform="translate(5.357 7.125)">
              <g id="Group_184389" data-name="Group 184389">
                <path id="Path_93902" data-name="Path 93902" d="M585.8,236.151a17.2,17.2,0,0,1,0-34.4v3.8a13.4,13.4,0,1,0,13.4,13.4H603A17.222,17.222,0,0,1,585.8,236.151Z" transform="translate(-568.594 -201.747)" fill="url(#linear-gradient)"/>
              </g>
              <g id="Group_184390" data-name="Group 184390" transform="translate(17.202)">
                <path id="Path_93903" data-name="Path 93903" d="M599.661,218.949h-3.8a13.418,13.418,0,0,0-13.4-13.4v-3.8A17.222,17.222,0,0,1,599.661,218.949Z" transform="translate(-582.459 -201.747)" fill="#257cd4"/>
              </g>
            </g>
            <rect id="Rectangle_152094" data-name="Rectangle 152094" width="33.66" height="3.264" transform="translate(45.167 12.264)" fill="#257cd4"/>
            <rect id="Rectangle_152095" data-name="Rectangle 152095" width="33.66" height="3.264" transform="translate(45.167 19.218)" fill="#257cd4"/>
            <rect id="Rectangle_152096" data-name="Rectangle 152096" width="33.66" height="3.264" transform="translate(45.167 26.172)" fill="#61a0e0"/>
            <rect id="Rectangle_152097" data-name="Rectangle 152097" width="24.557" height="3.264" transform="translate(45.167 33.126)" fill="#61a0e0"/>
          </g>
          <path id="Path_93904" data-name="Path 93904" d="M652.18,333.5s-1.242,12.647-2.144,16.718a4.77,4.77,0,0,0,.13,2.517c2.061,6.31,10.271,32.565,8.078,43.846l-1.945,2.429L641.175,358.68l.8-28.961Z" transform="translate(-545.769 -163.824)" fill="#ffad95"/>
          <path id="Path_93905" data-name="Path 93905" d="M632.167,330.844,638.96,401.1l3.4-1.429s4.29-36.827,2.5-43.619,5.363-28.781,5.363-28.781Z" transform="translate(-547.937 -164.413)" fill="#ffad95"/>
          <path id="Path_93906" data-name="Path 93906" d="M655.761,320.811c-2.17,3.715-.244,22.8-.244,22.8l-1.176-.02-8.809-.164-13.3-.251-1.144-.02c-3.215-23.6,1.433-52.918,1.433-52.918H652.9a40.818,40.818,0,0,0,2.037,7.966c.243.671.52,1.355.823,2.045C658.738,307.046,658.5,316.1,655.761,320.811Z" transform="translate(-548.469 -173.326)" fill="#0572a8"/>
          <path id="Path_93907" data-name="Path 93907" d="M632.02,388.891s-6.038.842-5.9,4.634h9.6a2.821,2.821,0,0,0,2.264-1.146c.954-1.28,2.718-3.21,4.851-3.488v4.634h2.107v-4.634s2.175-5.377.3-6.6a.435.435,0,0,0-.505.021C643.442,383.326,636.467,388.637,632.02,388.891Z" transform="translate(-549.392 -151.188)" fill="#61a0e0"/>
          <path id="Path_93908" data-name="Path 93908" d="M647.674,388.447s-5.686,2.2-4.682,5.86l9.342-2.194a2.823,2.823,0,0,0,1.942-1.634c.636-1.464,1.913-3.747,3.924-4.5l1.06,4.512L661.31,390l-1.06-4.511s.89-5.731-1.22-6.489a.435.435,0,0,0-.486.135C657.52,380.418,651.945,387.182,647.674,388.447Z" transform="translate(-545.36 -151.969)" fill="#61a0e0"/>
          <path id="Path_93909" data-name="Path 93909" d="M632.522,333.828l21.581.661.12-1.167-21.789-.4Z" transform="translate(-547.873 -163.054)" fill="#e2816f" opacity="0.4"/>
          <path id="Path_93910" data-name="Path 93910" d="M631.924,291.068s14.258,3.383,20.653.006l-.12-.835h-20.41Z" transform="translate(-547.995 -173.325)" fill="#0572a8" opacity="0.5"/>
          <path id="Path_93911" data-name="Path 93911" d="M635.529,248.118l.558,13.521a3.609,3.609,0,0,0,3.755,3.456h0a3.609,3.609,0,0,0,3.458-3.755l-.56-13.521" transform="translate(-547.128 -183.534)" fill="#ffad95"/>
          <path id="Path_93912" data-name="Path 93912" d="M635.872,256.533s6.535-1.842,7.109-2.8l-.035-.857s-4.027,2.378-7.188.912Z" transform="translate(-547.073 -182.317)" fill="#f29e8b"/>
          <path id="Path_93913" data-name="Path 93913" d="M639.2,258.464a7.829,7.829,0,0,0,7.96-7.649l.139-6.955a7.829,7.829,0,0,0-7.65-7.96h0a7.829,7.829,0,0,0-7.96,7.649l-.139,6.955a7.829,7.829,0,0,0,7.65,7.96" transform="translate(-548.086 -186.403)" fill="#ffad95"/>
          <path id="Path_93914" data-name="Path 93914" d="M638.039,257.53s-9.142,1.865-7.388,21.276l1.757,19.444c7.124,1.785,13.957,1.949,20.41,0C652.817,298.249,657.584,251.265,638.039,257.53Z" transform="translate(-548.356 -181.336)" fill="#61a0e0"/>
          <path id="Path_93915" data-name="Path 93915" d="M630.746,238.429c-.114,2.478,5.949,3.8,7.162,6.041a6.71,6.71,0,0,1,.506,3.587q-.223,4.686-.736,9.358c-.46,4.192-1.025,8.7,1.325,12.368,1.971,3.076,5.736,5,9.624,5.836a50.007,50.007,0,0,0,11.948.617,24.327,24.327,0,0,1-8.846-13.114c-1.427-5.62-.573-11.464-.475-17.223.042-2.512-.106-5.164-1.624-7.289-1.8-2.511-5.576-4.014-8.909-3.851C638.12,234.887,630.882,235.478,630.746,238.429Z" transform="translate(-548.279 -186.68)"/>
          <path id="Path_93916" data-name="Path 93916" d="M630.426,270.971s5.685,4.186,9.173,3.788l-9.173-6.108Z" transform="translate(-548.356 -178.521)" fill="#61a0e0" opacity="0.6"/>
          <g id="Group_184394" data-name="Group 184394" transform="translate(48.969 40.689)">
            <path id="Path_93917" data-name="Path 93917" d="M649.033,280.356c-2.82,3.943-6.779,1.845-10.61-1.052-3.417-2.583-11.878-10.489-13.673-12.172-.217-.208-.339-.319-.339-.319l-15.332-28.549,2.282-1.763,18.745,23.207,1.366,1.024,17.364,12.977A5.2,5.2,0,0,1,649.033,280.356Z" transform="translate(-602.462 -226.947)" fill="#ffad95"/>
            <path id="Path_93918" data-name="Path 93918" d="M645.994,275.656c-2.82,3.943-6.779,1.845-10.61-1.052-3.417-2.583-11.878-10.489-13.673-12.172l6.722-6.4L645.8,269.008A5.2,5.2,0,0,1,645.994,275.656Z" transform="translate(-599.423 -222.247)" fill="#77aee6"/>
            <g id="Group_184393" data-name="Group 184393">
              <path id="Path_93919" data-name="Path 93919" d="M603.922,232.92c.354-.3,1.171.861,1.7,1.375s.7.545.7.427a14.146,14.146,0,0,0-1.351-1.9c-.448-.533-1.18-1.361-.789-1.67s1.062.581,1.687,1.285,1.043,1.512,1.234,1.381-1.778-2.985-1.911-3.207-.608-.912-.263-1.169.819.316,1.061.619.878,1.176,1.365,1.939.635,1.01.777.953a12.606,12.606,0,0,0-1.051-2.66c-.333-.686-.467-1.406.022-1.488s1,1.287,1.35,2.046a18.424,18.424,0,0,0,1.3,2.531c.357.459.584.948.8.722h0c.053-.048.1-.084.124-.107a2.106,2.106,0,0,0,.356-1.108,1.758,1.758,0,0,1,.727-1.105c.314-.213.63-.163.342.7a6.1,6.1,0,0,0-.148,2.844c.171.685.341,1.105-.138,1.721-.158.2,3.181,4.543,3.7,5.157s-2.425,2.393-2.8,1.856-3.114-5.507-3.546-5.523-.743-.174-1.592-.939c-.424-.383-1.184-1.172-1.809-1.837,0,0-1.182-1.251-1.586-1.777S603.569,233.222,603.922,232.92Z" transform="translate(-603.746 -228.8)" fill="#feac95"/>
            </g>
          </g>
        </g>
        <g id="Group_184406" data-name="Group 184406" transform="translate(0 102.349)">
          <g id="Group_184397" data-name="Group 184397" transform="translate(48.833 192.232)">
            <rect id="Rectangle_152098" data-name="Rectangle 152098" width="5.446" height="7.746" transform="translate(8.006 7.746) rotate(180)" fill="#ffad95"/>
            <g id="Group_184396" data-name="Group 184396" transform="translate(0 5.265)">
              <path id="Path_93920" data-name="Path 93920" d="M344.953,393c.007.639.036,1.051.036,1.051h21.3a3.821,3.821,0,0,0-.052-.672,2.783,2.783,0,0,0-.082-.378c-.55-1.98-2.782-2.326-5.52-2.474-.16-.011-.32-.019-.479-.026-3.388-.16-6.293-4.517-6.293-4.517a5.666,5.666,0,0,1-6.939,0C345.085,386.719,344.923,390.989,344.953,393Z" transform="translate(-344.95 -385.985)" fill="#61a0e0"/>
              <path id="Path_93921" data-name="Path 93921" d="M366.155,391.641h-21.2c.007.639.036,1.051.036,1.051h21.3A3.769,3.769,0,0,0,366.155,391.641Z" transform="translate(-344.949 -384.624)" fill="#cee2f6"/>
            </g>
            <path id="Path_93922" data-name="Path 93922" d="M357.593,389.647a2.681,2.681,0,0,0,.186.55,4.735,4.735,0,0,0,1.921,1.965,2.908,2.908,0,0,0,2.474.687c.345-.108.687-.22,1.021-.35a2.782,2.782,0,0,0-.082-.378C362.563,390.141,360.331,389.795,357.593,389.647Z" transform="translate(-341.907 -379.839)" fill="#cee2f6"/>
          </g>
          <g id="Group_184399" data-name="Group 184399" transform="translate(0 188.21)">
            <rect id="Rectangle_152099" data-name="Rectangle 152099" width="5.446" height="7.746" transform="translate(9.322 9.068) rotate(-161.622)" fill="#ffad95"/>
            <g id="Group_184398" data-name="Group 184398" transform="translate(0 4.812)">
              <path id="Path_93923" data-name="Path 93923" d="M305.884,388.415c-.194.608-.3,1.009-.3,1.009l20.214,6.716a3.926,3.926,0,0,0,.163-.654,2.872,2.872,0,0,0,.042-.386c.1-2.052-1.908-3.084-4.459-4.088-.149-.061-.3-.118-.447-.176-3.165-1.22-4.548-6.27-4.548-6.27a5.664,5.664,0,0,1-6.584-2.187C307.992,382.5,306.491,386.495,305.884,388.415Z" transform="translate(-305.589 -382.378)" fill="#61a0e0"/>
              <path id="Path_93924" data-name="Path 93924" d="M326.008,393.929l-20.124-6.685c-.194.608-.3,1.009-.3,1.009l20.214,6.716A3.817,3.817,0,0,0,326.008,393.929Z" transform="translate(-305.589 -381.207)" fill="#cee2f6"/>
            </g>
            <path id="Path_93925" data-name="Path 93925" d="M318.456,389.337a2.673,2.673,0,0,0,0,.581,4.734,4.734,0,0,0,1.2,2.47c.589.712,1.146,1.414,2.131,1.432.361.007.721.009,1.079-.009a2.872,2.872,0,0,0,.042-.386C323.017,391.373,321.007,390.341,318.456,389.337Z" transform="translate(-302.496 -375.891)" fill="#cee2f6"/>
          </g>
          <path id="Path_93926" data-name="Path 93926" d="M368.125,298.339s-38.356,79.824-52.443,103.3l-5.4-1.8s7.358-34.87,18.555-48.957c0,0,6.5-42.982,15.17-52.011Z" transform="translate(-304.459 -209.58)" fill="#0572a8"/>
          <path id="Path_93927" data-name="Path 93927" d="M364.518,302.121l-10.475,102.4h-5.6s-4.515-46.774-3.973-59.415c0,0-6.14-34.674-2.889-47.5Z" transform="translate(-297.155 -209.757)" fill="#0572a8"/>
          <path id="Path_93928" data-name="Path 93928" d="M365.089,303.7s-19.869,3.554-27.621-4.934l27.94,2.175Z" transform="translate(-297.917 -209.477)" fill="#1616a5" opacity="0.4"/>
          <g id="Group_184402" data-name="Group 184402" transform="translate(17.807 38.484)">
            <g id="Group_184400" data-name="Group 184400" transform="translate(0 37.664)">
              <path id="Path_93929" data-name="Path 93929" d="M320.426,310.8c.7.231,1.2-2.021,1.681-3.122s.7-1.253.774-1.078a23.709,23.709,0,0,1-.849,3.69c-.339,1.077-.917,2.772-.161,2.988s1.212-1.531,1.711-2.975.627-2.914.984-2.837-.824,5.573-.887,5.987-.349,1.743.31,1.912,1.015-.985,1.189-1.589.587-2.308.844-3.751.331-1.908.572-1.909.124,3.4.046,4.631.154,2.393.919,2.21.7-2.55.761-3.9a30.458,30.458,0,0,1,.4-4.6c.249-.909.292-1.783.747-1.581h0c.107.04.191.067.244.083a3.339,3.339,0,0,1,1.186,1.432,2.735,2.735,0,0,0,1.726,1.2c.588.123,1.021-.15.084-1.262a9.837,9.837,0,0,1-1.914-4.156c-.158-1.13-.16-1.865-1.23-2.484-.352-.2,1.957-8.78,2.344-10.021s-4.986-2.06-5.21-1.025-1.282,10.178-1.906,10.472-.985.725-1.774,2.4c-.395.837-1.037,2.491-1.557,3.877,0,0-.989,2.609-1.265,3.646S319.726,310.573,320.426,310.8Z" transform="translate(-319.942 -288.174)" fill="#e89d88"/>
            </g>
            <g id="Group_184401" data-name="Group 184401" transform="translate(5.197)">
              <path id="Path_93930" data-name="Path 93930" d="M351.689,258.26c5.778,2.6,3.712,7.941-1.675,12.771s-10.226,9.253-14.051,15.768a53.074,53.074,0,0,0-6.773,17.512c-1.535-.643-5.228.1-5.054-1.62,1.086-10.755,4.716-18.5,8.928-27.857C337.545,264.875,345.937,255.667,351.689,258.26Z" transform="translate(-324.13 -257.817)" fill="#77aee6"/>
            </g>
          </g>
          <path id="Path_93931" data-name="Path 93931" d="M352.557,243.523l.223,16.235a4.33,4.33,0,0,1-4.27,4.389h0a4.331,4.331,0,0,1-4.391-4.27l-.223-16.235" transform="translate(-296.37 -222.773)" fill="#ffad95"/>
          <path id="Path_93932" data-name="Path 93932" d="M352.7,253.605s-7.951-1.775-8.7-2.883l-.014-1.03s4.981,2.583,8.671.617Z" transform="translate(-296.35 -221.288)" fill="#f29e8b"/>
          <path id="Path_93933" data-name="Path 93933" d="M350.73,256.132a9.394,9.394,0,0,1-10.042-8.639l-.627-8.322a9.4,9.4,0,0,1,8.639-10.043h0a9.394,9.394,0,0,1,10.042,8.639l.627,8.322a9.4,9.4,0,0,1-8.639,10.043" transform="translate(-297.299 -226.243)" fill="#ffad95"/>
          <path id="Path_93934" data-name="Path 93934" d="M354.042,254.859s20.008,2.288,11.943,57.61q-15.664,2.8-27.812-3.071S323.2,250.283,354.042,254.859Z" transform="translate(-298.622 -220.105)" fill="#61a0e0"/>
          <path id="Path_93935" data-name="Path 93935" d="M359.985,228.317c2.192.917,4.331,2.965,3.9,5.3-.489,2.644-3.762,3.629-6.45,3.693s-5.773-.1-7.6,1.866a7.221,7.221,0,0,0-1.578,3.956c-.274,1.881-.3,3.8-.681,5.657a8.2,8.2,0,0,1-2.671,4.9,4.367,4.367,0,0,1-5.272.258c-1.2-.969-1.6-2.6-1.927-4.105a40.144,40.144,0,0,1-1.3-9.946,13.5,13.5,0,0,1,3.573-9.147C344.652,226.136,354.19,225.894,359.985,228.317Z" transform="translate(-298.177 -226.798)"/>
          <g id="Group_184403" data-name="Group 184403" transform="translate(46.246 14.009)">
            <path id="Path_93936" data-name="Path 93936" d="M348.586,240.872a2.861,2.861,0,1,1-2.939-2.782A2.862,2.862,0,0,1,348.586,240.872Z" transform="translate(-342.864 -238.089)" fill="#ffad95"/>
            <path id="Path_93937" data-name="Path 93937" d="M346.518,241.469a1.354,1.354,0,1,1-.274-1.9A1.354,1.354,0,0,1,346.518,241.469Z" transform="translate(-342.572 -237.797)" fill="#ed9783"/>
          </g>
          <path id="Path_93938" data-name="Path 93938" d="M365.641,290.013s-22.718-.722-22.133-22.393L365.745,287.6Z" transform="translate(-296.466 -216.973)" fill="#61a0e0" opacity="0.5"/>
          <g id="Group_184405" data-name="Group 184405" transform="translate(47.041 41.375)">
            <g id="Group_184404" data-name="Group 184404" transform="translate(41.85 2.909)">
              <path id="Path_93939" data-name="Path 93939" d="M401.387,270.806c-.23-.7-2.341.231-3.511.5s-1.426.176-1.326.016a23.6,23.6,0,0,1,3.473-1.507c1.068-.366,2.775-.907,2.5-1.643s-1.952-.067-3.409.39-2.717,1.225-2.867.891,4.974-2.644,5.345-2.84,1.61-.754,1.355-1.385-1.4-.232-1.985-.014-2.2.9-3.519,1.547-1.732.867-1.876.674,2.66-2.117,3.7-2.785S401.1,263.1,400.5,262.6s-2.47.947-3.59,1.7a30.551,30.551,0,0,1-3.934,2.408c-.88.34-1.607.825-1.716.339h0c-.031-.109-.06-.195-.078-.247a3.348,3.348,0,0,1,.449-1.8,2.733,2.733,0,0,0-.062-2.1c-.251-.546-.727-.733-1.064.681a9.859,9.859,0,0,1-2.21,4.007c-.816.8-1.406,1.236-1.269,2.465.045.4-8.227,3.636-9.455,4.061s1.3,5.236,2.267,4.8,8.953-5.01,9.559-4.681,1.167.362,2.984,0c.909-.18,2.622-.644,4.045-1.048,0,0,2.687-.752,3.686-1.145S401.616,271.505,401.387,270.806Z" transform="translate(-377.237 -262.492)" fill="#feac95"/>
            </g>
            <path id="Path_93940" data-name="Path 93940" d="M345.64,262.01s6.889-6.263,11.9,4.175,4.8,14.612,15.656,11.9a132.053,132.053,0,0,0,17.744-5.636l1.67,4.593s-20.875,15.864-33.191,12.941S339.587,269.735,345.64,262.01Z" transform="translate(-343.505 -260.147)" fill="#77aee6"/>
          </g>
        </g>
        <path id="Path_93941" data-name="Path 93941" d="M433.51,187.07a42.942,42.942,0,0,1-58.254,40.1V185.5H433.48C433.5,186.023,433.51,186.546,433.51,187.07Z" transform="translate(-288.823 -134.388)" fill="#d8d8d8" opacity="0.5"/>
        <g id="Group_184409" data-name="Group 184409" transform="translate(21.55 5.649)">
          <path id="Path_93942" data-name="Path 93942" d="M437.509,191.778a42.919,42.919,0,0,1-75.479,27.967c-.651-.756-1.28-1.535-1.871-2.335a42.922,42.922,0,1,1,77.35-25.632Z" transform="translate(-316.052 -148.855)" fill="#61a0e0"/>
          <circle id="Ellipse_3734" data-name="Ellipse 3734" cx="34.953" cy="34.953" r="34.953" transform="translate(43.578 7.967)" fill="#fff"/>
          <circle id="Ellipse_3735" data-name="Ellipse 3735" cx="25.787" cy="25.787" r="25.787" transform="translate(52.745 17.134)" fill="#61a0e0"/>
          <circle id="Ellipse_3736" data-name="Ellipse 3736" cx="11.083" cy="11.083" r="11.083" transform="translate(67.448 31.838)" fill="#fff"/>
          <circle id="Ellipse_3737" data-name="Ellipse 3737" cx="5.542" cy="5.542" r="5.542" transform="translate(72.921 37.465)" fill="#61a0e0"/>
          <path id="Path_93943" data-name="Path 93943" d="M393.91,182.463l-7.695,16.124-4-4.491-21.829,17.562c-.651-.756-1.28-1.535-1.871-2.335l21.709-17.465-4.021-4.506Z" transform="translate(-314.403 -140.767)" opacity="0.2"/>
          <g id="Group_184408" data-name="Group 184408" transform="translate(0 41.694)">
            <path id="Path_93944" data-name="Path 93944" d="M372.233,182.461h18.372L378.9,195.956Z" transform="translate(-311.101 -182.461)" fill="#e0e0e0"/>
            <g id="Group_184407" data-name="Group 184407" transform="translate(8.834 2.856)">
              <rect id="Rectangle_152100" data-name="Rectangle 152100" width="66.342" height="2.995" transform="translate(0 26.333) rotate(-23.386)" fill="#e0e0e0"/>
            </g>
            <path id="Path_93945" data-name="Path 93945" d="M322.959,204.609l9.43,4.634,15.446-6.991-7.8-4.065Z" transform="translate(-322.959 -178.676)" fill="#61a0e0"/>
            <path id="Path_93946" data-name="Path 93946" d="M331,208.454l-2.276,8.5,19.023-7.121-1.3-8.366Z" transform="translate(-321.571 -177.888)" fill="#61a0e0"/>
          </g>
        </g>
        <g id="Group_184411" data-name="Group 184411" transform="translate(206.206 51.111)" opacity="0.5">
          <g id="Group_184410" data-name="Group 184410">
            <path id="Path_93947" data-name="Path 93947" d="M503.206,185.5h7.561l-36.3,26.8-2.672-3.616Z" transform="translate(-471.796 -185.498)" fill="#d8d8d8"/>
            <path id="Path_93948" data-name="Path 93948" d="M547.815,185.5l-23.969,19.321L507.159,185.5H513.1l11.311,13.1,16.252-13.1Z" transform="translate(-463.285 -185.498)" fill="#d8d8d8"/>
          </g>
        </g>
        <path id="Path_93949" data-name="Path 93949" d="M613.973,144.3l-31.948,8.78a24.645,24.645,0,0,1,9.066,5.61l-58.171,46.885-18.476-21.394L471.8,215.66l2.667,3.614,39.3-29.007,18.594,21.53,61.6-49.645a21.062,21.062,0,0,1,3.434,11.9Z" transform="translate(-265.589 -144.302)" fill="url(#linear-gradient)"/>
        <g id="Group_184414" data-name="Group 184414" transform="translate(129.652 213.481)">
          <circle id="Ellipse_3738" data-name="Ellipse 3738" cx="33.538" cy="33.538" r="33.538" transform="translate(0 65.322) rotate(-76.872)" fill="#257cd4"/>
          <g id="Group_184412" data-name="Group 184412" transform="translate(0.588 0.589)">
            <path id="Path_93950" data-name="Path 93950" d="M450.255,396.227a39.69,39.69,0,1,1,39.69-39.69A39.735,39.735,0,0,1,450.255,396.227Zm0-76.275a36.585,36.585,0,1,0,36.585,36.585A36.626,36.626,0,0,0,450.255,319.952Z" transform="translate(-410.565 -316.847)" fill="#257cd4"/>
          </g>
          <g id="Group_184413" data-name="Group 184413" transform="translate(34.424 15.06)">
            <path id="Path_93951" data-name="Path 93951" d="M444.837,378.948c-4.186,0-7-2.814-7-6.314,0-3.636,2.813-6.45,7-6.45,4.118,0,6.932,2.814,6.932,6.45C451.768,376.134,448.954,378.948,444.837,378.948Zm-6.518-50.437h12.694l-1.372,32.87h-9.95Z" transform="translate(-437.838 -328.511)" fill="#fff"/>
          </g>
        </g>
      </g>
    </g>
  </g>
</svg>
