<svg xmlns="http://www.w3.org/2000/svg" width="570" height="441.299" viewBox="0 0 570 441.299">
  <g id="Progressive_Web_App_about" transform="translate(-212 -3297)">
    <g id="Django_Development_about" transform="translate(-6 -57.998)">
      <g id="Group_268982" data-name="Group 268982" transform="translate(218 3355.998)">
        <g id="Group_268973" data-name="Group 268973" transform="translate(94.762 -1)">
          <g id="Golang_Development_about" transform="translate(0 102.903)">
            <g id="Group_250701" data-name="Group 250701" transform="translate(0 0)">
              <g id="Group_250700" data-name="Group 250700" transform="translate(0 0)">
                <g id="Group_250683" data-name="Group 250683" transform="translate(6.41 177.82)">
                  <rect id="Rectangle_158203" data-name="Rectangle 158203" width="294.487" height="11.661" fill="#284f63"/>
                  <rect id="Rectangle_158204" data-name="Rectangle 158204" width="13.051" height="147.936" transform="translate(24.529 10.658)" fill="#284f63"/>
                  <rect id="Rectangle_158205" data-name="Rectangle 158205" width="13.051" height="147.936" transform="translate(258.06 10.658)" fill="#284f63"/>
                  <rect id="Rectangle_158206" data-name="Rectangle 158206" width="13.051" height="14.791" transform="translate(24.529 10.658)" fill="#122c3a"/>
                  <rect id="Rectangle_158207" data-name="Rectangle 158207" width="13.051" height="14.791" transform="translate(258.06 10.658)" fill="#122c3a"/>
                </g>
                <g id="Group_250688" data-name="Group 250688" transform="translate(135.533 67.265)">
                  <path id="Path_108730" data-name="Path 108730" d="M271.9,291.614H239.852L242,270.589h27.758Z" transform="translate(-191.833 -186.659)" fill="#171923"/>
                  <path id="Path_108731" data-name="Path 108731" d="M281.59,294.8H232.008a6.018,6.018,0,0,1,6.018-6.018h37.545a6.018,6.018,0,0,1,6.018,6.018Z" transform="translate(-192.678 -184.699)" fill="#2a2b3d"/>
                  <rect id="Rectangle_158208" data-name="Rectangle 158208" width="128.241" height="85.74" rx="9.514" fill="#2a2b3d"/>
                  <rect id="Rectangle_158209" data-name="Rectangle 158209" width="117.331" height="69.696" transform="translate(5.455 4.902)" fill="#d0e6ef"/>
                  <path id="Path_108732" data-name="Path 108732" d="M258.028,267.917a3.318,3.318,0,1,1-3.318-3.318A3.318,3.318,0,0,1,258.028,267.917Z" transform="translate(-190.59 -187.304)" fill="#171923"/>
                  <g id="Group_250684" data-name="Group 250684" transform="translate(10.953 9.246)">
                    <rect id="Rectangle_158210" data-name="Rectangle 158210" width="106.336" height="5.463" fill="#fff"/>
                    <path id="Path_108733" data-name="Path 108733" d="M210.58,205.86a1.163,1.163,0,1,1-1.163-1.163A1.163,1.163,0,0,1,210.58,205.86Z" transform="translate(-206.19 -203.003)" fill="#d35473"/>
                    <path id="Path_108734" data-name="Path 108734" d="M214.5,205.86a1.163,1.163,0,1,1-1.163-1.163A1.163,1.163,0,0,1,214.5,205.86Z" transform="translate(-205.768 -203.003)" fill="#ffc55a"/>
                    <path id="Path_108735" data-name="Path 108735" d="M218.416,205.86a1.163,1.163,0,1,1-1.163-1.163A1.163,1.163,0,0,1,218.416,205.86Z" transform="translate(-205.346 -203.003)" fill="#54d15f"/>
                    <line id="Line_598" data-name="Line 598" x2="3.541" transform="translate(101.266 1.53)" fill="none" stroke="#61648a" stroke-linecap="round" stroke-miterlimit="10" stroke-width="0.5"/>
                    <line id="Line_599" data-name="Line 599" x2="3.541" transform="translate(101.266 2.731)" fill="none" stroke="#61648a" stroke-linecap="round" stroke-miterlimit="10" stroke-width="0.5"/>
                    <line id="Line_600" data-name="Line 600" x2="3.541" transform="translate(101.266 3.933)" fill="none" stroke="#61648a" stroke-linecap="round" stroke-miterlimit="10" stroke-width="0.5"/>
                  </g>
                  <g id="Group_250686" data-name="Group 250686" transform="translate(71.694 20.867)">
                    <g id="Group_250685" data-name="Group 250685" transform="translate(5.331)">
                      <line id="Line_601" data-name="Line 601" x2="8.241" transform="translate(6.344)" fill="none" stroke="#54d15f" stroke-linecap="round" stroke-miterlimit="10" stroke-width="1"/>
                      <line id="Line_602" data-name="Line 602" x2="3.863" transform="translate(16.229)" fill="none" stroke="#2d292a" stroke-linecap="round" stroke-miterlimit="10" stroke-width="1"/>
                      <line id="Line_603" data-name="Line 603" x2="12.193" transform="translate(21.519)" fill="none" stroke="#54d15f" stroke-linecap="round" stroke-miterlimit="10" stroke-width="1"/>
                      <line id="Line_604" data-name="Line 604" x2="12.101" transform="translate(2.22 5.2)" fill="none" stroke="#ffc55a" stroke-linecap="round" stroke-miterlimit="10" stroke-width="1"/>
                      <line id="Line_605" data-name="Line 605" x2="7.759" transform="translate(15.965 5.2)" fill="none" stroke="#d35473" stroke-linecap="round" stroke-miterlimit="10" stroke-width="1"/>
                      <line id="Line_606" data-name="Line 606" x2="5.182" transform="translate(25.151 5.2)" fill="none" stroke="#54d15f" stroke-linecap="round" stroke-miterlimit="10" stroke-width="1"/>
                      <line id="Line_607" data-name="Line 607" x2="5.182" transform="translate(31.953 5.2)" fill="none" stroke="#d35473" stroke-linecap="round" stroke-miterlimit="10" stroke-width="1"/>
                      <line id="Line_608" data-name="Line 608" x2="7.001" transform="translate(3.307 10.4)" fill="none" stroke="#2d292a" stroke-linecap="round" stroke-miterlimit="10" stroke-width="1"/>
                      <line id="Line_609" data-name="Line 609" x2="5.496" transform="translate(11.952 10.4)" fill="none" stroke="#d35473" stroke-linecap="round" stroke-miterlimit="10" stroke-width="1"/>
                      <line id="Line_610" data-name="Line 610" x2="9.95" transform="translate(18.874 10.4)" fill="none" stroke="#ffc55a" stroke-linecap="round" stroke-miterlimit="10" stroke-width="1"/>
                      <line id="Line_611" data-name="Line 611" x2="3.09" transform="translate(30.161 10.4)" fill="none" stroke="#2d292a" stroke-linecap="round" stroke-miterlimit="10" stroke-width="1"/>
                      <line id="Line_612" data-name="Line 612" x2="1.793" transform="translate(0 20.8)" fill="none" stroke="#ffc55a" stroke-linecap="round" stroke-miterlimit="10" stroke-width="1"/>
                      <line id="Line_613" data-name="Line 613" x2="10.17" transform="translate(3.438 20.8)" fill="none" stroke="#54d15f" stroke-linecap="round" stroke-miterlimit="10" stroke-width="1"/>
                      <line id="Line_614" data-name="Line 614" x2="7.313" transform="translate(15.034 20.8)" fill="none" stroke="#d35473" stroke-linecap="round" stroke-miterlimit="10" stroke-width="1"/>
                      <line id="Line_615" data-name="Line 615" x2="9.36" transform="translate(23.446 20.8)" fill="none" stroke="#54d15f" stroke-linecap="round" stroke-miterlimit="10" stroke-width="1"/>
                      <line id="Line_616" data-name="Line 616" x2="13.575" transform="translate(20.689 31.201)" fill="none" stroke="#ffc55a" stroke-linecap="round" stroke-miterlimit="10" stroke-width="1"/>
                      <line id="Line_617" data-name="Line 617" x2="7.001" transform="translate(3.307 26.001)" fill="none" stroke="#54d15f" stroke-linecap="round" stroke-miterlimit="10" stroke-width="1"/>
                      <line id="Line_618" data-name="Line 618" x2="3.737" transform="translate(11.952 26.001)" fill="none" stroke="#d35473" stroke-linecap="round" stroke-miterlimit="10" stroke-width="1"/>
                      <line id="Line_619" data-name="Line 619" x2="7.606" transform="translate(17.116 26.001)" fill="none" stroke="#2d292a" stroke-linecap="round" stroke-miterlimit="10" stroke-width="1"/>
                      <line id="Line_620" data-name="Line 620" x2="7.606" transform="translate(26.496 26.001)" fill="none" stroke="#d35473" stroke-linecap="round" stroke-miterlimit="10" stroke-width="1"/>
                      <line id="Line_621" data-name="Line 621" x2="5.337" transform="translate(3.639 31.201)" fill="none" stroke="#ffc55a" stroke-linecap="round" stroke-miterlimit="10" stroke-width="1"/>
                      <line id="Line_622" data-name="Line 622" x2="2.273" transform="translate(10.621 31.201)" fill="none" stroke="#2d292a" stroke-linecap="round" stroke-miterlimit="10" stroke-width="1"/>
                      <line id="Line_623" data-name="Line 623" x2="4.68" transform="translate(14.321 31.201)" fill="none" stroke="#54d15f" stroke-linecap="round" stroke-miterlimit="10" stroke-width="1"/>
                      <line id="Line_624" data-name="Line 624" x2="5.164" transform="translate(11.952 40.969)" fill="none" stroke="#d35473" stroke-linecap="round" stroke-miterlimit="10" stroke-width="1"/>
                      <line id="Line_625" data-name="Line 625" x2="5.962" transform="translate(18.761 40.969)" fill="none" stroke="#2d292a" stroke-linecap="round" stroke-miterlimit="10" stroke-width="1"/>
                      <line id="Line_626" data-name="Line 626" x2="9.534" transform="translate(26.149 40.969)" fill="none" stroke="#ffc55a" stroke-linecap="round" stroke-miterlimit="10" stroke-width="1"/>
                      <line id="Line_627" data-name="Line 627" x2="3.911" transform="translate(7.218 46.169)" fill="none" stroke="#d35473" stroke-linecap="round" stroke-miterlimit="10" stroke-width="1"/>
                      <line id="Line_628" data-name="Line 628" x2="6.227" transform="translate(12.774 46.169)" fill="none" stroke="#2d292a" stroke-linecap="round" stroke-miterlimit="10" stroke-width="1"/>
                      <line id="Line_629" data-name="Line 629" x2="5.652" transform="translate(20.427 46.169)" fill="none" stroke="#ffc55a" stroke-linecap="round" stroke-miterlimit="10" stroke-width="1"/>
                      <line id="Line_630" data-name="Line 630" x2="8.761" transform="translate(27.696 46.169)" fill="none" stroke="#54d15f" stroke-linecap="round" stroke-miterlimit="10" stroke-width="1"/>
                    </g>
                    <line id="Line_631" data-name="Line 631" x2="1.758" transform="translate(6.672)" fill="none" stroke="#383952" stroke-linecap="round" stroke-miterlimit="10" stroke-width="1" opacity="0.21"/>
                    <line id="Line_632" data-name="Line 632" x2="1.758" transform="translate(2.059 5.2)" fill="none" stroke="#383952" stroke-linecap="round" stroke-miterlimit="10" stroke-width="1" opacity="0.21"/>
                    <line id="Line_633" data-name="Line 633" x2="1.758" transform="translate(4.19 10.4)" fill="none" stroke="#383952" stroke-linecap="round" stroke-miterlimit="10" stroke-width="1" opacity="0.21"/>
                    <line id="Line_634" data-name="Line 634" x2="1.758" transform="translate(0 15.6)" fill="none" stroke="#383952" stroke-linecap="round" stroke-miterlimit="10" stroke-width="1" opacity="0.21"/>
                    <line id="Line_635" data-name="Line 635" x2="1.758" transform="translate(0 20.8)" fill="none" stroke="#383952" stroke-linecap="round" stroke-miterlimit="10" stroke-width="1" opacity="0.21"/>
                    <line id="Line_636" data-name="Line 636" x2="1.758" transform="translate(3.973 26.001)" fill="none" stroke="#383952" stroke-linecap="round" stroke-miterlimit="10" stroke-width="1" opacity="0.21"/>
                    <line id="Line_637" data-name="Line 637" x2="1.758" transform="translate(4.452 31.201)" fill="none" stroke="#383952" stroke-linecap="round" stroke-miterlimit="10" stroke-width="1" opacity="0.21"/>
                    <line id="Line_638" data-name="Line 638" x2="1.758" transform="translate(0 36.401)" fill="none" stroke="#383952" stroke-linecap="round" stroke-miterlimit="10" stroke-width="1" opacity="0.21"/>
                    <line id="Line_639" data-name="Line 639" x2="1.758" transform="translate(11.258 40.969)" fill="none" stroke="#383952" stroke-linecap="round" stroke-miterlimit="10" stroke-width="1" opacity="0.21"/>
                    <line id="Line_640" data-name="Line 640" x2="1.758" transform="translate(7.123 46.169)" fill="none" stroke="#383952" stroke-linecap="round" stroke-miterlimit="10" stroke-width="1" opacity="0.21"/>
                  </g>
                  <g id="Group_250687" data-name="Group 250687" transform="translate(10.953 19.578)">
                    <rect id="Rectangle_158211" data-name="Rectangle 158211" width="26.624" height="25.161" fill="#7cb4e2" opacity="0.33"/>
                    <rect id="Rectangle_158212" data-name="Rectangle 158212" width="23.296" height="2.281" transform="translate(29.951)" fill="#1978a7"/>
                    <rect id="Rectangle_158213" data-name="Rectangle 158213" width="23.296" height="2.281" transform="translate(29.951 5.72)" fill="#1978a7"/>
                    <rect id="Rectangle_158214" data-name="Rectangle 158214" width="23.296" height="2.281" transform="translate(29.951 11.44)" fill="#7cb4e2"/>
                    <rect id="Rectangle_158215" data-name="Rectangle 158215" width="23.296" height="2.281" transform="translate(29.951 17.16)" fill="#7cb4e2"/>
                    <rect id="Rectangle_158216" data-name="Rectangle 158216" width="23.296" height="2.281" transform="translate(29.951 22.88)" fill="#7cb4e2"/>
                    <rect id="Rectangle_158217" data-name="Rectangle 158217" width="26.544" height="18.463" transform="translate(0.079 28.995)" fill="#1978a7"/>
                    <rect id="Rectangle_158218" data-name="Rectangle 158218" width="23.296" height="8.695" transform="translate(29.951 28.995)" fill="#008dd1"/>
                    <rect id="Rectangle_158219" data-name="Rectangle 158219" width="23.296" height="5.384" transform="translate(29.951 42.075)" fill="#1978a7"/>
                  </g>
                </g>
                <g id="Group_250690" data-name="Group 250690" transform="translate(88.85 54.766)">
                  <path id="Path_108736" data-name="Path 108736" d="M249.62,420.246c-1.33,12.234-3.075,17.674,0,19.422s20.482,0,24.257,0,3.775-7.953-2.517-11.272-7.55-15.185-7.55-15.185Z" transform="translate(-144.283 -158.795)" fill="#2a2b3d"/>
                  <path id="Path_108737" data-name="Path 108737" d="M178.281,420.246c-1.329,12.234-3.074,17.674,0,19.422s20.483,0,24.258,0,3.775-7.953-2.517-11.272-7.55-15.185-7.55-15.185Z" transform="translate(-151.968 -158.795)" fill="#2a2b3d"/>
                  <path id="Path_108738" data-name="Path 108738" d="M201.317,383.744c-.343,13.127-1.3,25.456-2.947,33.11H174.089l-9.039-52.971-.93-5.439a9.335,9.335,0,0,1-9.349-9.3v-.166c.166-10.49,1.983-26.774,11.011-33.032,10.058-6.968,30.23,7.71,32.024,11.332,1.75,3.523,2.958,15.619,3.434,30.141C201.516,365.777,201.549,374.938,201.317,383.744Z" transform="translate(-154.316 -169.473)" fill="#222"/>
                  <path id="Path_108739" data-name="Path 108739" d="M200.317,379.534c-8.574,3.7-15.575,26.552-17.425,33.11h-9.8l-9.039-52.971a12.316,12.316,0,0,1,3.611-4.087c4.409-2.758,29.864-2.426,32.578-2.382C200.516,361.567,200.55,370.728,200.317,379.534Z" transform="translate(-153.316 -165.263)" fill="#383952" opacity="0.36"/>
                  <path id="Path_108740" data-name="Path 108740" d="M268.936,286.232c7.741-2.918,13.13.475,14.527,2.87s2.2,4.59,1.6,5.788-2.594,0-2.594,0-6.786,1.265-11.976.533S268.936,286.232,268.936,286.232Z" transform="translate(-142.151 -172.596)" fill="#f4b8ab"/>
                  <path id="Path_108741" data-name="Path 108741" d="M270.126,288.153c4.2,2.259,11.536,5.449,11.5,5.992s-6.579,2.033-10.745.873S270.126,288.153,270.126,288.153Z" transform="translate(-142.031 -172.267)" fill="#dd6595" opacity="0.53"/>
                  <g id="Group_250689" data-name="Group 250689" transform="translate(21.513 18.132)">
                    <path id="Path_108742" data-name="Path 108742" d="M205.531,203.2c2.931,12,.8,26.159-9.493,27.292l.042,4.223a5.666,5.666,0,0,1-5.61,5.722h0a5.667,5.667,0,0,1-5.722-5.61l-.041-4.223s-8.276-3.421-9.975-8.555-.009-.824-.009-.824l-.942-21.007,31.984-.318Z" transform="translate(-173.781 -199.906)" fill="#f4b8ab"/>
                    <path id="Path_108743" data-name="Path 108743" d="M194.831,227.522a95.88,95.88,0,0,1-9.852.341l9.894,3.881Z" transform="translate(-172.575 -196.931)" fill="#dd6595" opacity="0.53"/>
                  </g>
                  <path id="Path_108744" data-name="Path 108744" d="M206.851,206.908c9.082-5.734,7.364-17.564.928-13.368,0,0-10.15-10.439-25.879-4.744s-17.7,18.868-14.383,27.068,23.7,12.466,23.7,12.466l9.42-9.986Z" transform="translate(-153.09 -183.154)" fill="#222"/>
                  <path id="Path_108745" data-name="Path 108745" d="M204.657,193.923c1.571-4.573-2.376-10.386-6.05-10.386s-3.472,6.312-3.472,6.312l6.275,8.3Z" transform="translate(-149.968 -183.537)" fill="#222"/>
                  <path id="Path_108746" data-name="Path 108746" d="M200.887,212.224c-.107,1.425-1.194,14.314-4.138,17.132l-12.678.173s-13.994-2.85-16.332-14.478a36.59,36.59,0,0,1-.568-3.791c4.131,8.4,21.582,9.816,31-.79C198.166,210.47,199.358,211.211,200.887,212.224Z" transform="translate(-152.98 -180.636)" fill="#222"/>
                  <path id="Path_108747" data-name="Path 108747" d="M201.426,210.056c-2.637-4.7-5.666-2.687-6.248.062s4.97,9.372,6.318,7.01S201.426,210.056,201.426,210.056Z" transform="translate(-149.968 -180.983)" fill="#f4b8ab"/>
                  <path id="Path_108748" data-name="Path 108748" d="M200.9,211.061c-2.334-2.4-3.458-1.395-3.279,1.123s3.235,4.294,4.21,3.561S200.9,211.061,200.9,211.061Z" transform="translate(-149.702 -180.719)" fill="#dd6595" opacity="0.53"/>
                  <path id="Path_108749" data-name="Path 108749" d="M283.211,301.308c-1.23,2.448-33.132,7.355-41.307,5.727s-14.722-13.5-14.722-13.5v31.493H165.825s-5.96-28.945-9.283-48.3c-1.363-7.965-2.293-14.3-2.171-16.328.244-4.088,1.052-6.336,1.684-7.5v-.011a3.761,3.761,0,0,1,.775-1.074,33.676,33.676,0,0,1,24.946-15.541l.41-5.317c14.312-2.858,24.536,0,24.946,2.459a16.594,16.594,0,0,1,0,4.863s17.181-4.464,29.454,13.127,17.181,31.482,17.181,31.482,23.307,4.918,26.176,7.787a13.19,13.19,0,0,1,2.791,4.4C283.665,297.42,283.931,299.857,283.211,301.308Z" transform="translate(-154.36 -178.557)" fill="#008dd1"/>
                  <path id="Path_108750" data-name="Path 108750" d="M283.046,299.059c-1.23,2.448-33.132,7.355-41.307,5.727s-14.722-13.5-14.722-13.5v31.493H165.66s-5.96-28.945-9.283-48.3l-.487-23.827v-.011s14.976.5,37.917.654S218,265.65,224.237,274.235s10.3,23.1,21.39,23.251,34.328,2.027,36.666-4.6l.277-.066C283.5,295.171,283.766,297.608,283.046,299.059Z" transform="translate(-154.196 -176.308)" fill="#008dd1"/>
                  <path id="Path_108751" data-name="Path 108751" d="M276.69,414.813c-.122.643-.244,1.263-.377,1.861h-24.27l-9.97-58.41H198.418l-12.4-15.63L164.71,315.76h61.357q1.4,0,2.891.033c16.727.3,42.78,3.212,46.8,11.3,1.44,2.913,2.515,11.709,3.1,22.886C279.98,370.759,279.459,399.8,276.69,414.813Z" transform="translate(-153.245 -169.293)" fill="#222"/>
                  <path id="Path_108752" data-name="Path 108752" d="M274.617,414.813l-2.127,1.861H249.97L240,358.263H196.345l-12.4-15.63,1.141-17.912,8.319-8.961h30.584q1.4,0,2.891.033c-3.456,29.543,18.023,37.253,31.77,36.5a128.775,128.775,0,0,0,18.133-2.315C277.907,370.759,277.387,399.8,274.617,414.813Z" transform="translate(-151.173 -169.293)" fill="#222"/>
                  <path id="Path_108753" data-name="Path 108753" d="M267.866,420.93H243.692l-2.215-14.07h28.605Z" transform="translate(-144.976 -159.479)" fill="#222"/>
                  <path id="Path_108754" data-name="Path 108754" d="M196.529,420.93H172.354l-2.215-14.07h28.605Z" transform="translate(-152.661 -159.479)" fill="#222"/>
                </g>
                <g id="Group_250691" data-name="Group 250691" transform="translate(60.723 135.226)">
                  <rect id="Rectangle_158220" data-name="Rectangle 158220" width="2.2" height="8.267" transform="translate(28.869 189.731)" fill="#55597c"/>
                  <rect id="Rectangle_158221" data-name="Rectangle 158221" width="2.2" height="8.267" transform="translate(44.505 189.731)" fill="#55597c"/>
                  <rect id="Rectangle_158222" data-name="Rectangle 158222" width="2.2" height="8.267" transform="translate(60.141 189.731)" fill="#55597c"/>
                  <path id="Rectangle_158223" data-name="Rectangle 158223" d="M24.311,0H54.9A24.311,24.311,0,0,1,79.207,24.311v77.153a7.047,7.047,0,0,1-7.047,7.047H7.046A7.046,7.046,0,0,1,0,101.464V24.311A24.311,24.311,0,0,1,24.311,0Z" transform="translate(13.553)" fill="#ffc55a"/>
                  <path id="Rectangle_158224" data-name="Rectangle 158224" d="M24.311,0H54.9A24.311,24.311,0,0,1,79.207,24.311v77.153a7.047,7.047,0,0,1-7.047,7.047H7.046A7.046,7.046,0,0,1,0,101.464V24.311A24.311,24.311,0,0,1,24.311,0Z" transform="translate(13.553)" fill="#54829a"/>
                  <path id="Rectangle_158225" data-name="Rectangle 158225" d="M24.311,0H54.9A24.311,24.311,0,0,1,79.207,24.311v77.153a7.046,7.046,0,0,1-7.046,7.046H7.046A7.046,7.046,0,0,1,0,101.464V24.311A24.311,24.311,0,0,1,24.311,0Z" fill="#7cb4e2"/>
                  <rect id="Rectangle_158226" data-name="Rectangle 158226" width="84.667" height="15.86" rx="7.159" transform="translate(20.923 108.51)" fill="#54829a"/>
                  <rect id="Rectangle_158227" data-name="Rectangle 158227" width="84.668" height="15.86" rx="7.159" transform="translate(0.741 108.51)" fill="#7cb4e2"/>
                  <rect id="Rectangle_158228" data-name="Rectangle 158228" width="6.398" height="56.427" transform="translate(42.573 130.79)" fill="#14161e"/>
                  <path id="Rectangle_158229" data-name="Rectangle 158229" d="M0,0H23.654a0,0,0,0,1,0,0V4.255A2.165,2.165,0,0,1,21.488,6.42H2.165A2.165,2.165,0,0,1,0,4.255V0A0,0,0,0,1,0,0Z" transform="translate(33.567 124.37)" fill="#1f202d"/>
                  <rect id="Rectangle_158230" data-name="Rectangle 158230" width="37.717" height="5.613" transform="translate(26.535 185.797)" fill="#1f202d"/>
                  <rect id="Rectangle_158231" data-name="Rectangle 158231" width="8.375" height="61.859" transform="translate(34.099 62.511)" fill="#2a2b3d"/>
                  <rect id="Rectangle_158232" data-name="Rectangle 158232" width="19.415" height="21.58" rx="4.019" transform="translate(28.579 50.913)" fill="#1f202d"/>
                  <rect id="Rectangle_158233" data-name="Rectangle 158233" width="9.721" height="10.805" rx="4.019" transform="translate(33.426 56.3)" fill="#2a2b3d"/>
                  <path id="Path_108755" data-name="Path 108755" d="M159.792,435.755a3.434,3.434,0,1,1-3.435-3.434A3.434,3.434,0,0,1,159.792,435.755Z" transform="translate(-126.388 -237.197)" fill="#14161e"/>
                  <path id="Path_108756" data-name="Path 108756" d="M173.907,435.755a3.434,3.434,0,1,1-3.434-3.434A3.434,3.434,0,0,1,173.907,435.755Z" transform="translate(-124.868 -237.197)" fill="#14161e"/>
                  <path id="Path_108757" data-name="Path 108757" d="M188.023,435.755a3.435,3.435,0,1,1-3.434-3.434A3.434,3.434,0,0,1,188.023,435.755Z" transform="translate(-123.347 -237.197)" fill="#14161e"/>
                </g>
                <g id="Group_250692" data-name="Group 250692" transform="translate(0 57.462)">
                  <path id="Path_108758" data-name="Path 108758" d="M113.442,301.774l-33.5-68.965,1.1-1.041,35.544-33.773" transform="translate(-73.528 -184.676)" fill="none" stroke="#7cb4e2" stroke-miterlimit="10" stroke-width="4"/>
                  <path id="Path_108759" data-name="Path 108759" d="M86.97,230.046a6.409,6.409,0,1,1-6.409-6.409A6.409,6.409,0,0,1,86.97,230.046Z" transform="translate(-74.151 -181.913)" fill="#7cb4e2" stroke="#008dd1" stroke-miterlimit="10" stroke-width="4"/>
                  <path id="Path_108760" data-name="Path 108760" d="M111.756,187.065h0a6.162,6.162,0,0,1,8.734,1.81l1.315,2.11-9.973,6.594-1.217-1.4A6.162,6.162,0,0,1,111.756,187.065Z" transform="translate(-70.386 -185.971)" fill="#008dd1"/>
                  <path id="Path_108761" data-name="Path 108761" d="M138.362,216.509a5.408,5.408,0,1,1-5.409-5.408A5.408,5.408,0,0,1,138.362,216.509Z" transform="translate(-68.399 -183.264)" fill="#7cb4e2"/>
                  <path id="Path_108762" data-name="Path 108762" d="M111.567,197.092l10.095,25.76a3.326,3.326,0,0,0,4.418,1.849c4.337-1.879,12.011-5.682,16.025-10.512a3.337,3.337,0,0,0-.282-4.559L121.54,190.5Z" transform="translate(-70.12 -185.483)" fill="#1978a7"/>
                  <rect id="Rectangle_158234" data-name="Rectangle 158234" width="32.686" height="5.273" transform="translate(23.571 114.461)" fill="#2a2b3d"/>
                </g>
                <g id="Group_268967" data-name="Group 268967" transform="translate(145.405 -9.711)">
                  <g id="Group_250737" data-name="Group 250737" transform="translate(0 0.114)">
                    <rect id="Rectangle_158242" data-name="Rectangle 158242" width="66.65" height="54.707" rx="5" transform="translate(-0.167 -0.307)" fill="#60a6df"/>
                    <text id="_" data-name="&lt;/&gt;" transform="translate(12.833 39.693)" fill="#fff" font-size="30" font-family="Lato-Black, Lato" font-weight="800" letter-spacing="-0.1em"><tspan x="0" y="0">&lt;/&gt;</tspan></text>
                  </g>
                </g>
                <g id="Group_250699" data-name="Group 250699" transform="translate(193.417)">
                  <path id="Path_108766" data-name="Path 108766" d="M326.891,413.211c1.329,12.235,2.661,24.709-.413,26.457s-20.483,0-24.258,0-3.775-7.953,2.517-11.272,7.55-15.185,7.55-15.185Z" transform="translate(-243.276 -104.03)" fill="#7cb4e2"/>
                  <path id="Path_108767" data-name="Path 108767" d="M395.33,419.689c1.329,12.234,3.075,17.674,0,19.422s-20.483,0-24.258,0-3.775-7.953,2.517-11.272a11.45,11.45,0,0,0,6.323-9.457Z" transform="translate(-235.859 -103.473)" fill="#7cb4e2"/>
                  <path id="Path_108768" data-name="Path 108768" d="M301.712,147.093c-5.142,10.31-4.515,20.822,5.762,21.255S301.712,147.093,301.712,147.093Z" transform="translate(-243.393 -132.697)" fill="#222"/>
                  <g id="Group_250698" data-name="Group 250698" transform="translate(57.642)">
                    <g id="Group_250697" data-name="Group 250697" transform="translate(0.437 6.619)">
                      <path id="Path_108769" data-name="Path 108769" d="M303.048,158.631c3.229,12.662,12.254,24.816,22.423,20.761l2.059,3.963a5.991,5.991,0,0,0,8.079,2.554h0a5.993,5.993,0,0,0,2.555-8.08l-2.059-3.963s6.026-7.3,5.062-12.942-.4-.773-.4-.773l-9.559-20.079-30.017,15.595Z" transform="translate(-301.189 -140.073)" fill="#f4b8ab"/>
                      <path id="Path_108770" data-name="Path 108770" d="M323.109,176.013a101.154,101.154,0,0,0,9.367-4.577l-7.308,8.541Z" transform="translate(-298.828 -136.694)" fill="#dd6595" opacity="0.53"/>
                    </g>
                    <path id="Path_108771" data-name="Path 108771" d="M341.51,158.138c-.332,6.392-1.972,11.93-3.2,13.271-2.659,2.869-11.753,6.048-11.753,6.048-4.143-.554-11.1-3.567-16.738-8.286-5.982-5-10.479-11.9-8.585-19.817,3.223-13.459,23.041-19.862,33.653-11.52C340.557,142.3,341.9,150.783,341.51,158.138Z" transform="translate(-300.794 -134.097)" fill="#222"/>
                    <path id="Path_108772" data-name="Path 108772" d="M340.632,156.148c-.332,6.392-1.972,11.93-3.2,13.271-2.659,2.869-11.753,6.048-11.753,6.048-4.143-.554-11.1-3.567-16.738-8.286a7.661,7.661,0,0,1,2.071-5.2c3.932-3.534,15.453,4.752,18.056-8.585l2.426-.831S336.788,154.63,340.632,156.148Z" transform="translate(-299.917 -132.107)" fill="#222"/>
                    <path id="Path_108773" data-name="Path 108773" d="M307.815,162.9c.127-5.7,3.953-5.323,5.863-3.046s.017,11.219-2.415,9.684S307.815,162.9,307.815,162.9Z" transform="translate(-300.038 -131.49)" fill="#f4b8ab"/>
                    <path id="Path_108774" data-name="Path 108774" d="M308.606,163.649c.986-3.4,2.536-3.021,3.619-.58s-.886,5.615-2.161,5.417S308.606,163.649,308.606,163.649Z" transform="translate(-299.953 -131.181)" fill="#dd6595" opacity="0.53"/>
                  </g>
                  <path id="Path_108775" data-name="Path 108775" d="M330.646,140.934a9.044,9.044,0,0,0-3.351,13.723c2.616,3.33,7.262,1.806,7.262,1.806Z" transform="translate(-240.502 -133.361)" fill="#ffc55a"/>
                  <path id="Path_108776" data-name="Path 108776" d="M327.927,149.072c-1.536-7.54,6.269-13.94,13.094-10.388a8.251,8.251,0,0,1,3.932,4.226c2.56,6.4,2.4,14.7,10.239,15.828,0,0-9.438,10.087-18.877,4.008C331.03,159.341,328.835,153.527,327.927,149.072Z" transform="translate(-240.251 -133.712)" fill="#222"/>
                  <path id="Path_108777" data-name="Path 108777" d="M353.347,174.359c15.248.268,31.7,19.8,36.346,32.609s-7.595,28.387-7.595,28.387Z" transform="translate(-237.491 -129.76)" fill="#fec35b"/>
                  <path id="Path_108778" data-name="Path 108778" d="M272.286,239.687c-6.569-8.411-9.581-8.874-11.665-7.252s-9.962,6.164-11.352,7.252.232,2.71,2.779,2.246l2.549-.464s-1.159,6.024,1.853,8.8,12.511-1.159,12.511-1.159Z" transform="translate(-248.758 -123.584)" fill="#f4b8ab"/>
                  <path id="Path_108779" data-name="Path 108779" d="M386.859,295.56c-1.473,6.536-5.561,18.41-10.911,32.678-16.76,44.664-45.926,112.678-45.926,112.678l-24.8-2.371,37-183.838.786-3.921s16.439-24.27,29.244-18.787a17.425,17.425,0,0,1,7.012,6.126,47.834,47.834,0,0,1,6.779,15.253A90.739,90.739,0,0,1,386.859,295.56Z" transform="translate(-242.676 -123.638)" fill="#284f63"/>
                  <path id="Path_108780" data-name="Path 108780" d="M398.917,439.477l-21.324.764L369.43,327.563l-3.7-51V237.45h24.315c3.921,5.062,7.311,12.063,10.1,20.737h.011C412.155,295.384,413.24,363.188,398.917,439.477Z" transform="translate(-236.157 -122.964)" fill="#284f63"/>
                  <path id="Path_108781" data-name="Path 108781" d="M368.5,324l20.617-37.7-18.454,57.1Z" transform="translate(-235.859 -117.701)" fill="#284f63"/>
                  <path id="Path_108782" data-name="Path 108782" d="M403.067,258.861c-.332-.166-7.6-3.6-20.626-5.483a117.307,117.307,0,0,0-13.791-1.152,142.167,142.167,0,0,0-30.03,2.481l.786-3.921S355.845,226.515,368.65,232a17.426,17.426,0,0,1,7.012,6.126h17.3C396.886,243.186,400.276,250.187,403.067,258.861Z" transform="translate(-239.078 -123.638)" fill="#fec35b"/>
                  <path id="Path_108783" data-name="Path 108783" d="M400.825,244.5l-53.559,12.661L329.443,233.5s-9.626,22.819-16.018,26.2-46.779-2.116-46.779-2.116c-1.052-1.2-1.152-3.512-.831-6h.011a48.892,48.892,0,0,1,2.47-9.56l31.681-3s9.593-25.832,13.448-38.228,12.008-14.19,12.008-14.19a23.316,23.316,0,0,0-.078-3.932c-.244-.886,12.949-10.656,21.911-10.656l2.083,1.894s8.441-3.667,19.407,3.932c5.771,3.988,14.334,22.188,21.158,38.571v.011C396.073,231.207,400.825,244.5,400.825,244.5Z" transform="translate(-246.938 -130.013)" fill="#fec35b"/>
                </g>
              </g>
            </g>
          </g>
          <g id="Group_268971" data-name="Group 268971" transform="matrix(0.978, 0.208, -0.208, 0.978, 59.331, 0)">
            <path id="Path_113346" data-name="Path 113346" d="M72.84,77.687,22.854,88.582a6.4,6.4,0,0,1-7.618-4.892L.142,14.525A6.409,6.409,0,0,1,5.1,6.908L36.793,0,66.838,19.941,77.759,70.078a6.383,6.383,0,0,1-4.919,7.609Z" transform="translate(0 0.001)" fill="#008dd1"/>
            <g id="Group_268959" data-name="Group 268959" transform="translate(36.757 0)" opacity="0.3">
              <path id="Path_113348" data-name="Path 113348" d="M0,0,4.244,19.47a5.948,5.948,0,0,0,7.1,4.546l18.725-4.075Z" fill="#fff" opacity="0.3"/>
            </g>
            <g id="Group_268960" data-name="Group 268960" transform="translate(41.623 19.942)" opacity="0.2">
              <path id="Path_113349" data-name="Path 113349" d="M0,1.181S.782,5.957,6.5,6.339h.648c2.539-.1,19.249-.737,19.169-1.11S25.18,0,25.18,0L6.455,4.075S1.749,4.936,0,1.181Z" opacity="0.2"/>
            </g>
          </g>
          <g id="Group_268972" data-name="Group 268972" transform="matrix(0.995, -0.105, 0.105, 0.995, 324.719, 53.559)">
            <path id="Path_113351" data-name="Path 113351" d="M52.358,82.711,5.227,77.048A5.949,5.949,0,0,1,.039,70.462L7.883,5.228A5.942,5.942,0,0,1,14.469.04L44.36,3.633,64.63,30.239,58.944,77.523a5.941,5.941,0,0,1-6.586,5.188Z" transform="translate(0 0)" fill="#008dd1"/>
            <g id="Group_268961" data-name="Group 268961" transform="translate(0.295 52.992)" opacity="0.2">
              <path id="Path_113354" data-name="Path 113354" d="M2.051,0,60.977,7.089,58.954,23.908a6.585,6.585,0,0,1-7.325,5.751L5.9,24.157A6.695,6.695,0,0,1,.048,16.71L2.058,0Z" opacity="0.2"/>
            </g>
            <g id="Group_268962" data-name="Group 268962" transform="translate(42.148 3.612)" opacity="0.51">
              <path id="Path_113355" data-name="Path 113355" d="M2.235,0,.04,18.359a5.524,5.524,0,0,0,4.822,6.147l17.62,2.122Z" fill="#fff" opacity="0.2"/>
            </g>
          </g>
        </g>
        <rect id="Rectangle_158699" data-name="Rectangle 158699" width="570" height="0.939" transform="translate(0 439.024)" fill="#373660"/>
      </g>
      <g id="Group_268983" data-name="Group 268983" transform="translate(223.195 3689.632)">
        <g id="Group_17428" data-name="Group 17428" transform="translate(49.391 24.977)">
          <g id="Group_17427" data-name="Group 17427" transform="translate(0 0)">
            <g id="Group_17426" data-name="Group 17426">
              <path id="Path_9202" data-name="Path 9202" d="M76.1,400.106c5.5,1.9,12.7.2,17.458-3.261s8.152-8.423,11.14-13.382a19.779,19.779,0,0,0,2.921-6.861,7.474,7.474,0,0,0-2.106-6.861c-2.989-2.513-7.54-1.223-10.869.679A37.732,37.732,0,0,0,76.1,400.106" transform="translate(-76.1 -368.347)" fill="#60a6df"/>
            </g>
          </g>
        </g>
        <g id="Group_17431" data-name="Group 17431" transform="translate(55.301 61.196)">
          <g id="Group_17430" data-name="Group 17430" transform="translate(0)">
            <g id="Group_17429" data-name="Group 17429">
              <path id="Path_9203" data-name="Path 9203" d="M84.8,430.452c3.329,4.348,9.035,6.317,14.537,6.589s10.937-1.291,16.031-3.261c1.834-.747,3.872-1.7,4.551-3.6a4.551,4.551,0,0,0-.951-4.212,9.567,9.567,0,0,0-3.736-2.513,25.31,25.31,0,0,0-16.167-.883c-5.3,1.359-9.918,4.483-14.265,7.88" transform="translate(-84.8 -421.664)" fill="#60a6df"/>
            </g>
          </g>
        </g>
        <g id="Group_17434" data-name="Group 17434" transform="translate(47.021 0)">
          <g id="Group_17433" data-name="Group 17433" transform="translate(0)">
            <g id="Group_17432" data-name="Group 17432">
              <path id="Path_9204" data-name="Path 9204" d="M74.913,364.607c4.551.068,8.016-3.94,10.122-8.016a29.437,29.437,0,0,0,2.717-18.477c-.408-2.31-1.291-4.823-3.4-5.978s-4.891-.408-6.657,1.223a13.536,13.536,0,0,0-3.464,6.25c-2.513,8.016-1.97,17.118.679,25" transform="translate(-72.61 -331.578)" fill="#60a6df"/>
            </g>
          </g>
        </g>
        <g id="Group_17437" data-name="Group 17437" transform="translate(26.947 8.836)">
          <g id="Group_17436" data-name="Group 17436" transform="translate(0 0)">
            <g id="Group_17435" data-name="Group 17435">
              <path id="Path_9205" data-name="Path 9205" d="M50.424,394.116c7.812-13.246,9.1-29.482,4.483-44.222-.747-2.378-2.174-5.095-4.619-5.3-2.785-.2-4.483,2.921-5.231,5.57-2.649,9.306-2.106,19.224-1.494,28.938.272,5.978,2.31,11.073,6.861,15.012" transform="translate(-43.06 -344.586)" fill="#60a6df"/>
            </g>
          </g>
        </g>
        <g id="Group_17440" data-name="Group 17440" transform="translate(0 43.065)">
          <g id="Group_17439" data-name="Group 17439">
            <g id="Group_17438" data-name="Group 17438">
              <path id="Path_9206" data-name="Path 9206" d="M29.55,415.71A31.733,31.733,0,0,0,10.6,395.671c-2.038-.747-4.687-1.223-6.25.34-1.494,1.562-1.019,4.144-.068,6.114,1.562,3.125,4.144,5.638,6.657,8.084,2.31,2.174,4.687,4.415,7.608,5.706,2.989,1.223,8.355,1.562,11-.2" transform="translate(-3.391 -394.974)" fill="#60a6df"/>
            </g>
          </g>
        </g>
        <g id="Group_17444" data-name="Group 17444" transform="translate(38.794 29.7)">
          <g id="Group_17443" data-name="Group 17443" transform="translate(0 0)">
            <g id="Group_17442" data-name="Group 17442">
              <g id="Group_17441" data-name="Group 17441">
                <path id="Path_9207" data-name="Path 9207" d="M96.231,375.3l-.136.136a1.8,1.8,0,0,0-.408.34q-.611.408-1.63,1.223c-.34.272-.747.543-1.155.883s-.883.679-1.359,1.087c-.951.815-2.106,1.7-3.261,2.785-.611.543-1.223,1.087-1.834,1.7l-1.9,1.9c-1.359,1.291-2.649,2.785-4.008,4.348a89.319,89.319,0,0,0-8.016,10.937,92.787,92.787,0,0,0-6.182,12.091c-.747,1.97-1.562,3.8-2.106,5.57-.272.883-.611,1.7-.815,2.581-.2.815-.476,1.63-.679,2.378-.476,1.494-.747,2.921-1.019,4.144-.136.611-.272,1.155-.408,1.7-.068.543-.2,1.019-.272,1.427-.136.883-.272,1.494-.34,2.038-.068.2-.068.408-.136.543a.3.3,0,0,1-.068.2v-.2c0-.136.068-.34.068-.543.068-.475.2-1.155.272-2.038l.2-1.427c.068-.543.2-1.087.34-1.7.272-1.223.543-2.649.951-4.144.2-.747.408-1.562.679-2.378.2-.815.543-1.7.815-2.581.543-1.766,1.291-3.668,2.038-5.57a93.4,93.4,0,0,1,6.182-12.16,92.417,92.417,0,0,1,8.084-11c1.427-1.562,2.717-3.057,4.076-4.348l1.9-1.9c.679-.543,1.291-1.155,1.834-1.63a34.662,34.662,0,0,1,3.329-2.717c.476-.408.951-.747,1.359-1.087A13.773,13.773,0,0,1,93.854,377c.679-.476,1.291-.883,1.7-1.155a4.011,4.011,0,0,0,.408-.272Z" transform="translate(-60.5 -375.3)" fill="#0e314c"/>
              </g>
            </g>
          </g>
        </g>
        <g id="Group_17448" data-name="Group 17448" transform="translate(39.066 65.054)">
          <g id="Group_17447" data-name="Group 17447">
            <g id="Group_17446" data-name="Group 17446">
              <g id="Group_17445" data-name="Group 17445">
                <path id="Path_9208" data-name="Path 9208" d="M106.685,428.809a3.082,3.082,0,0,1-.543-.068c-.34-.068-.883-.2-1.494-.34a39.824,39.824,0,0,0-5.638-.679A41.049,41.049,0,0,0,65.587,441.58a45.751,45.751,0,0,0-3.464,4.483c-.408.543-.679,1.019-.883,1.291s-.272.475-.34.475a1.879,1.879,0,0,1,.272-.475c.2-.272.408-.747.815-1.359a35.006,35.006,0,0,1,3.4-4.551,41.048,41.048,0,0,1,15.148-11,40.622,40.622,0,0,1,18.477-2.989,36.642,36.642,0,0,1,5.638.815,8.748,8.748,0,0,1,1.494.408,4.991,4.991,0,0,1,.543.136Z" transform="translate(-60.9 -427.345)" fill="#0e314c"/>
              </g>
            </g>
          </g>
        </g>
        <g id="Group_17452" data-name="Group 17452" transform="translate(38.726 5.925)">
          <g id="Group_17451" data-name="Group 17451">
            <g id="Group_17450" data-name="Group 17450">
              <g id="Group_17449" data-name="Group 17449">
                <path id="Path_9209" data-name="Path 9209" d="M77.722,340.3v.2a3.441,3.441,0,0,1-.136.611c-.136.543-.272,1.291-.543,2.31-.476,1.97-1.155,4.823-1.97,8.355-1.7,7.065-4.212,16.779-6.793,27.579-1.291,5.366-2.445,10.529-3.464,15.216s-1.834,8.967-2.445,12.5c-.34,1.766-.611,3.4-.815,4.823-.272,1.427-.408,2.649-.611,3.668-.136.951-.272,1.766-.34,2.31a4.327,4.327,0,0,1-.136.611.3.3,0,0,1-.068.2v-.2c0-.136.068-.34.068-.611.068-.543.136-1.359.272-2.31.136-1.019.272-2.242.543-3.668.2-1.427.476-3.057.747-4.823.611-3.6,1.427-7.812,2.378-12.567,1.019-4.687,2.174-9.85,3.464-15.284,2.581-10.8,5.163-20.515,6.929-27.579.883-3.532,1.63-6.318,2.106-8.355.272-.951.408-1.7.611-2.242a2.52,2.52,0,0,0,.136-.611.211.211,0,0,0,.068-.136Z" transform="translate(-60.4 -340.3)" fill="#0e314c"/>
              </g>
            </g>
          </g>
        </g>
        <g id="Group_17456" data-name="Group 17456" transform="translate(32.72 19.103)">
          <g id="Group_17455" data-name="Group 17455" transform="translate(0 0)">
            <g id="Group_17454" data-name="Group 17454">
              <g id="Group_17453" data-name="Group 17453">
                <path id="Path_9210" data-name="Path 9210" d="M57.021,423.826a.211.211,0,0,0-.068-.136,1.728,1.728,0,0,0-.136-.476,15.76,15.76,0,0,0-.408-1.834c-.34-1.63-.747-3.94-1.291-6.793C54.1,408.813,52.945,400.8,52.2,391.9c-.34-4.483-.543-8.7-.611-12.567s0-7.336.068-10.325c.068-1.495.136-2.785.2-3.94s.136-2.174.2-2.989.136-1.427.2-1.9c0-.2.068-.34.068-.476v.476c0,.475-.068,1.087-.136,1.9s-.136,1.834-.136,2.989c-.068,1.155-.136,2.513-.136,3.94-.068,2.921-.068,6.385,0,10.257.136,3.872.34,8.152.679,12.567.747,8.9,1.9,16.915,2.785,22.689.476,2.921.883,5.231,1.155,6.861.136.815.272,1.427.34,1.834,0,.2.068.34.068.476A.211.211,0,0,1,57.021,423.826Z" transform="translate(-51.559 -359.7)" fill="#0e314c"/>
              </g>
            </g>
          </g>
        </g>
        <g id="Group_17460" data-name="Group 17460" transform="translate(7.275 48.585)">
          <g id="Group_17459" data-name="Group 17459">
            <g id="Group_17458" data-name="Group 17458">
              <g id="Group_17457" data-name="Group 17457">
                <path id="Path_9211" data-name="Path 9211" d="M45.551,439.442s-.068-.136-.2-.476a13.942,13.942,0,0,0-.543-1.359c-.136-.272-.2-.611-.34-.951s-.34-.747-.476-1.155c-.2-.408-.34-.815-.543-1.291s-.476-.951-.679-1.426c-.272-.476-.543-1.019-.815-1.562s-.611-1.087-.951-1.63c-.611-1.155-1.427-2.31-2.242-3.532-1.7-2.378-3.668-4.959-5.842-7.472a89.626,89.626,0,0,0-6.725-6.725c-1.087-.951-2.174-1.9-3.193-2.649-.476-.408-1.019-.815-1.494-1.155l-1.427-1.019c-.883-.679-1.7-1.223-2.445-1.7s-1.359-.951-1.9-1.223c-.476-.34-.883-.543-1.223-.747a3.1,3.1,0,0,0-.408-.272s.136.068.476.2c.34.2.747.408,1.223.679a10.935,10.935,0,0,1,1.9,1.223c.747.476,1.562,1.019,2.513,1.7l1.427,1.019c.476.408.951.747,1.494,1.155,1.019.815,2.106,1.7,3.193,2.649a89.973,89.973,0,0,1,6.793,6.725c2.242,2.581,4.212,5.163,5.91,7.54.747,1.223,1.562,2.378,2.174,3.532.34.543.611,1.087.951,1.63.272.543.543,1.087.747,1.562a13.563,13.563,0,0,1,.679,1.427c.2.476.408.883.543,1.291s.34.815.476,1.155.2.679.34.951c.2.543.34,1.019.476,1.359A2.142,2.142,0,0,1,45.551,439.442Z" transform="translate(-14.1 -403.1)" fill="#0e314c"/>
              </g>
            </g>
          </g>
        </g>
        <g id="Group_17491" data-name="Group 17491" transform="translate(25.412 81.259)">
          <g id="Group_17490" data-name="Group 17490">
            <g id="Group_17489" data-name="Group 17489">
              <path id="Path_9219" data-name="Path 9219" d="M40.8,451.2l4.348,22.824a3.2,3.2,0,0,0,3.125,2.581H61.111a3.15,3.15,0,0,0,3.125-2.649l3.8-22.757Z" transform="translate(-40.8 -451.2)" fill="#0e314c"/>
            </g>
          </g>
        </g>
        <g id="Group_17494" data-name="Group 17494" transform="translate(25.412 81.259)">
          <g id="Group_17493" data-name="Group 17493">
            <g id="Group_17492" data-name="Group 17492">
              <path id="Path_9220" data-name="Path 9220" d="M42.227,458.6H66.749l1.291-7.4H40.8Z" transform="translate(-40.8 -451.2)" fill="#235f87"/>
            </g>
          </g>
        </g>
      </g>
      <g id="Group_302520" data-name="Group 302520" transform="translate(697.195 3689.632)">
        <g id="Group_17428-2" data-name="Group 17428" transform="translate(49.391 24.977)">
          <g id="Group_17427-2" data-name="Group 17427" transform="translate(0 0)">
            <g id="Group_17426-2" data-name="Group 17426">
              <path id="Path_9202-2" data-name="Path 9202" d="M76.1,400.106c5.5,1.9,12.7.2,17.458-3.261s8.152-8.423,11.14-13.382a19.779,19.779,0,0,0,2.921-6.861,7.474,7.474,0,0,0-2.106-6.861c-2.989-2.513-7.54-1.223-10.869.679A37.732,37.732,0,0,0,76.1,400.106" transform="translate(-76.1 -368.347)" fill="#60a6df"/>
            </g>
          </g>
        </g>
        <g id="Group_17431-2" data-name="Group 17431" transform="translate(55.301 61.196)">
          <g id="Group_17430-2" data-name="Group 17430" transform="translate(0)">
            <g id="Group_17429-2" data-name="Group 17429">
              <path id="Path_9203-2" data-name="Path 9203" d="M84.8,430.452c3.329,4.348,9.035,6.317,14.537,6.589s10.937-1.291,16.031-3.261c1.834-.747,3.872-1.7,4.551-3.6a4.551,4.551,0,0,0-.951-4.212,9.567,9.567,0,0,0-3.736-2.513,25.31,25.31,0,0,0-16.167-.883c-5.3,1.359-9.918,4.483-14.265,7.88" transform="translate(-84.8 -421.664)" fill="#60a6df"/>
            </g>
          </g>
        </g>
        <g id="Group_17434-2" data-name="Group 17434" transform="translate(47.021 0)">
          <g id="Group_17433-2" data-name="Group 17433" transform="translate(0)">
            <g id="Group_17432-2" data-name="Group 17432">
              <path id="Path_9204-2" data-name="Path 9204" d="M74.913,364.607c4.551.068,8.016-3.94,10.122-8.016a29.437,29.437,0,0,0,2.717-18.477c-.408-2.31-1.291-4.823-3.4-5.978s-4.891-.408-6.657,1.223a13.536,13.536,0,0,0-3.464,6.25c-2.513,8.016-1.97,17.118.679,25" transform="translate(-72.61 -331.578)" fill="#60a6df"/>
            </g>
          </g>
        </g>
        <g id="Group_17437-2" data-name="Group 17437" transform="translate(26.947 8.836)">
          <g id="Group_17436-2" data-name="Group 17436" transform="translate(0 0)">
            <g id="Group_17435-2" data-name="Group 17435">
              <path id="Path_9205-2" data-name="Path 9205" d="M50.424,394.116c7.812-13.246,9.1-29.482,4.483-44.222-.747-2.378-2.174-5.095-4.619-5.3-2.785-.2-4.483,2.921-5.231,5.57-2.649,9.306-2.106,19.224-1.494,28.938.272,5.978,2.31,11.073,6.861,15.012" transform="translate(-43.06 -344.586)" fill="#60a6df"/>
            </g>
          </g>
        </g>
        <g id="Group_17440-2" data-name="Group 17440" transform="translate(0 43.065)">
          <g id="Group_17439-2" data-name="Group 17439">
            <g id="Group_17438-2" data-name="Group 17438">
              <path id="Path_9206-2" data-name="Path 9206" d="M29.55,415.71A31.733,31.733,0,0,0,10.6,395.671c-2.038-.747-4.687-1.223-6.25.34-1.494,1.562-1.019,4.144-.068,6.114,1.562,3.125,4.144,5.638,6.657,8.084,2.31,2.174,4.687,4.415,7.608,5.706,2.989,1.223,8.355,1.562,11-.2" transform="translate(-3.391 -394.974)" fill="#60a6df"/>
            </g>
          </g>
        </g>
        <g id="Group_17444-2" data-name="Group 17444" transform="translate(38.794 29.7)">
          <g id="Group_17443-2" data-name="Group 17443" transform="translate(0 0)">
            <g id="Group_17442-2" data-name="Group 17442">
              <g id="Group_17441-2" data-name="Group 17441">
                <path id="Path_9207-2" data-name="Path 9207" d="M96.231,375.3l-.136.136a1.8,1.8,0,0,0-.408.34q-.611.408-1.63,1.223c-.34.272-.747.543-1.155.883s-.883.679-1.359,1.087c-.951.815-2.106,1.7-3.261,2.785-.611.543-1.223,1.087-1.834,1.7l-1.9,1.9c-1.359,1.291-2.649,2.785-4.008,4.348a89.319,89.319,0,0,0-8.016,10.937,92.787,92.787,0,0,0-6.182,12.091c-.747,1.97-1.562,3.8-2.106,5.57-.272.883-.611,1.7-.815,2.581-.2.815-.476,1.63-.679,2.378-.476,1.494-.747,2.921-1.019,4.144-.136.611-.272,1.155-.408,1.7-.068.543-.2,1.019-.272,1.427-.136.883-.272,1.494-.34,2.038-.068.2-.068.408-.136.543a.3.3,0,0,1-.068.2v-.2c0-.136.068-.34.068-.543.068-.475.2-1.155.272-2.038l.2-1.427c.068-.543.2-1.087.34-1.7.272-1.223.543-2.649.951-4.144.2-.747.408-1.562.679-2.378.2-.815.543-1.7.815-2.581.543-1.766,1.291-3.668,2.038-5.57a93.4,93.4,0,0,1,6.182-12.16,92.417,92.417,0,0,1,8.084-11c1.427-1.562,2.717-3.057,4.076-4.348l1.9-1.9c.679-.543,1.291-1.155,1.834-1.63a34.662,34.662,0,0,1,3.329-2.717c.476-.408.951-.747,1.359-1.087A13.773,13.773,0,0,1,93.854,377c.679-.476,1.291-.883,1.7-1.155a4.011,4.011,0,0,0,.408-.272Z" transform="translate(-60.5 -375.3)" fill="#0e314c"/>
              </g>
            </g>
          </g>
        </g>
        <g id="Group_17448-2" data-name="Group 17448" transform="translate(39.066 65.054)">
          <g id="Group_17447-2" data-name="Group 17447">
            <g id="Group_17446-2" data-name="Group 17446">
              <g id="Group_17445-2" data-name="Group 17445">
                <path id="Path_9208-2" data-name="Path 9208" d="M106.685,428.809a3.082,3.082,0,0,1-.543-.068c-.34-.068-.883-.2-1.494-.34a39.824,39.824,0,0,0-5.638-.679A41.049,41.049,0,0,0,65.587,441.58a45.751,45.751,0,0,0-3.464,4.483c-.408.543-.679,1.019-.883,1.291s-.272.475-.34.475a1.879,1.879,0,0,1,.272-.475c.2-.272.408-.747.815-1.359a35.006,35.006,0,0,1,3.4-4.551,41.048,41.048,0,0,1,15.148-11,40.622,40.622,0,0,1,18.477-2.989,36.642,36.642,0,0,1,5.638.815,8.748,8.748,0,0,1,1.494.408,4.991,4.991,0,0,1,.543.136Z" transform="translate(-60.9 -427.345)" fill="#0e314c"/>
              </g>
            </g>
          </g>
        </g>
        <g id="Group_17452-2" data-name="Group 17452" transform="translate(38.726 5.925)">
          <g id="Group_17451-2" data-name="Group 17451">
            <g id="Group_17450-2" data-name="Group 17450">
              <g id="Group_17449-2" data-name="Group 17449">
                <path id="Path_9209-2" data-name="Path 9209" d="M77.722,340.3v.2a3.441,3.441,0,0,1-.136.611c-.136.543-.272,1.291-.543,2.31-.476,1.97-1.155,4.823-1.97,8.355-1.7,7.065-4.212,16.779-6.793,27.579-1.291,5.366-2.445,10.529-3.464,15.216s-1.834,8.967-2.445,12.5c-.34,1.766-.611,3.4-.815,4.823-.272,1.427-.408,2.649-.611,3.668-.136.951-.272,1.766-.34,2.31a4.327,4.327,0,0,1-.136.611.3.3,0,0,1-.068.2v-.2c0-.136.068-.34.068-.611.068-.543.136-1.359.272-2.31.136-1.019.272-2.242.543-3.668.2-1.427.476-3.057.747-4.823.611-3.6,1.427-7.812,2.378-12.567,1.019-4.687,2.174-9.85,3.464-15.284,2.581-10.8,5.163-20.515,6.929-27.579.883-3.532,1.63-6.318,2.106-8.355.272-.951.408-1.7.611-2.242a2.52,2.52,0,0,0,.136-.611.211.211,0,0,0,.068-.136Z" transform="translate(-60.4 -340.3)" fill="#0e314c"/>
              </g>
            </g>
          </g>
        </g>
        <g id="Group_17456-2" data-name="Group 17456" transform="translate(32.72 19.103)">
          <g id="Group_17455-2" data-name="Group 17455" transform="translate(0 0)">
            <g id="Group_17454-2" data-name="Group 17454">
              <g id="Group_17453-2" data-name="Group 17453">
                <path id="Path_9210-2" data-name="Path 9210" d="M57.021,423.826a.211.211,0,0,0-.068-.136,1.728,1.728,0,0,0-.136-.476,15.76,15.76,0,0,0-.408-1.834c-.34-1.63-.747-3.94-1.291-6.793C54.1,408.813,52.945,400.8,52.2,391.9c-.34-4.483-.543-8.7-.611-12.567s0-7.336.068-10.325c.068-1.495.136-2.785.2-3.94s.136-2.174.2-2.989.136-1.427.2-1.9c0-.2.068-.34.068-.476v.476c0,.475-.068,1.087-.136,1.9s-.136,1.834-.136,2.989c-.068,1.155-.136,2.513-.136,3.94-.068,2.921-.068,6.385,0,10.257.136,3.872.34,8.152.679,12.567.747,8.9,1.9,16.915,2.785,22.689.476,2.921.883,5.231,1.155,6.861.136.815.272,1.427.34,1.834,0,.2.068.34.068.476A.211.211,0,0,1,57.021,423.826Z" transform="translate(-51.559 -359.7)" fill="#0e314c"/>
              </g>
            </g>
          </g>
        </g>
        <g id="Group_17460-2" data-name="Group 17460" transform="translate(7.275 48.585)">
          <g id="Group_17459-2" data-name="Group 17459">
            <g id="Group_17458-2" data-name="Group 17458">
              <g id="Group_17457-2" data-name="Group 17457">
                <path id="Path_9211-2" data-name="Path 9211" d="M45.551,439.442s-.068-.136-.2-.476a13.942,13.942,0,0,0-.543-1.359c-.136-.272-.2-.611-.34-.951s-.34-.747-.476-1.155c-.2-.408-.34-.815-.543-1.291s-.476-.951-.679-1.426c-.272-.476-.543-1.019-.815-1.562s-.611-1.087-.951-1.63c-.611-1.155-1.427-2.31-2.242-3.532-1.7-2.378-3.668-4.959-5.842-7.472a89.626,89.626,0,0,0-6.725-6.725c-1.087-.951-2.174-1.9-3.193-2.649-.476-.408-1.019-.815-1.494-1.155l-1.427-1.019c-.883-.679-1.7-1.223-2.445-1.7s-1.359-.951-1.9-1.223c-.476-.34-.883-.543-1.223-.747a3.1,3.1,0,0,0-.408-.272s.136.068.476.2c.34.2.747.408,1.223.679a10.935,10.935,0,0,1,1.9,1.223c.747.476,1.562,1.019,2.513,1.7l1.427,1.019c.476.408.951.747,1.494,1.155,1.019.815,2.106,1.7,3.193,2.649a89.973,89.973,0,0,1,6.793,6.725c2.242,2.581,4.212,5.163,5.91,7.54.747,1.223,1.562,2.378,2.174,3.532.34.543.611,1.087.951,1.63.272.543.543,1.087.747,1.562a13.563,13.563,0,0,1,.679,1.427c.2.476.408.883.543,1.291s.34.815.476,1.155.2.679.34.951c.2.543.34,1.019.476,1.359A2.142,2.142,0,0,1,45.551,439.442Z" transform="translate(-14.1 -403.1)" fill="#0e314c"/>
              </g>
            </g>
          </g>
        </g>
        <g id="Group_17491-2" data-name="Group 17491" transform="translate(25.412 81.259)">
          <g id="Group_17490-2" data-name="Group 17490">
            <g id="Group_17489-2" data-name="Group 17489">
              <path id="Path_9219-2" data-name="Path 9219" d="M40.8,451.2l4.348,22.824a3.2,3.2,0,0,0,3.125,2.581H61.111a3.15,3.15,0,0,0,3.125-2.649l3.8-22.757Z" transform="translate(-40.8 -451.2)" fill="#0e314c"/>
            </g>
          </g>
        </g>
        <g id="Group_17494-2" data-name="Group 17494" transform="translate(25.412 81.259)">
          <g id="Group_17493-2" data-name="Group 17493">
            <g id="Group_17492-2" data-name="Group 17492">
              <path id="Path_9220-2" data-name="Path 9220" d="M42.227,458.6H66.749l1.291-7.4H40.8Z" transform="translate(-40.8 -451.2)" fill="#235f87"/>
            </g>
          </g>
        </g>
      </g>
    </g>
    <g id="Group_302523" data-name="Group 302523" transform="translate(326.587 3036.588)">
      <path id="Path_134472" data-name="Path 134472" d="M213.019,304.456c-.421,1.053-.839,2.108-1.263,3.16q-3.205,7.955-6.408,15.912a.288.288,0,0,1-.32.218q-2.3-.011-4.608,0a.276.276,0,0,1-.324-.231q-1.66-5.334-3.332-10.664c-.022-.071-.049-.14-.094-.265-.166.5-.315.951-.462,1.4q-1.566,4.772-3.128,9.546a.256.256,0,0,1-.294.215c-1.55-.009-3.1-.007-4.65,0a.3.3,0,0,1-.3-.166q-1.213-2.1-2.442-4.2a.332.332,0,0,1-.045-.3q1.255-3.855,2.5-7.712a1.2,1.2,0,0,1,.053-.111l2.853,5.657.52-1.592q1.735-5.321,3.469-10.643c.024-.073.036-.15.053-.226h4.011c-.03.09.021.166.045.245q1.816,6,3.637,11.99c.017.055.01.128.087.171.028-.061.054-.116.078-.173q2.28-5.341,4.558-10.683c.219-.514.463-1.018.641-1.549Z" transform="translate(-127.723 -0.04)" fill="#fff"/>
      <path id="Path_134473" data-name="Path 134473" d="M53.207,304.416a5.179,5.179,0,0,0,.808.124,5.85,5.85,0,0,1,4.027,2.425.41.41,0,0,1,.061.408q-1.493,4.57-2.968,9.146a.407.407,0,0,1-.34.314,10.645,10.645,0,0,1-2.326.251c-.981,0-1.962.006-2.944,0-.185,0-.217.055-.217.226.006,2.048,0,4.1.009,6.143,0,.2-.036.261-.25.26-1.55-.01-3.1,0-4.65,0q0-9.548,0-19.1c0-.16.036-.2.2-.2Q48.908,304.42,53.207,304.416Zm-3.9,6.336c0,.8,0,1.607,0,2.41,0,.137.033.187.176.178.2-.012.4,0,.6,0a12.375,12.375,0,0,0,2.148-.089,2.216,2.216,0,0,0,1.446-.778,2.821,2.821,0,0,0,.518-1.849,2.282,2.282,0,0,0-2.22-2.412c-.823-.087-1.648-.027-2.472-.053-.172-.006-.194.059-.193.207C49.316,309.159,49.312,309.956,49.312,310.752Z" transform="translate(0 0)" fill="#fff"/>
      <path id="Path_134475" data-name="Path 134475" d="M460.8,323.737c-1.569,0-3.105,0-4.641,0-.234,0-.525.075-.685-.036s-.187-.409-.266-.628c-.313-.867-.628-1.734-.932-2.6a.237.237,0,0,0-.269-.19q-3.243.008-6.486,0c-.241,0-.241,0-.154-.221.436-1.1.877-2.2,1.305-3.3a.285.285,0,0,1,.317-.223c1.259.009,2.518,0,3.776,0,.266,0,.266,0,.179-.243q-.928-2.595-1.859-5.188a.631.631,0,0,1,.012-.486c.811-2.036,1.614-4.075,2.441-6.169Z" transform="translate(-365.176 -0.035)" fill="#fff"/>
    </g>
    <g id="Group_302524" data-name="Group 302524" transform="translate(601.587 3076.588)">
      <path id="Path_134472-2" data-name="Path 134472" d="M211.278,304.456c-.394.987-.787,1.975-1.184,2.961q-3,7.455-6.005,14.911a.27.27,0,0,1-.3.2q-2.159-.011-4.318,0a.259.259,0,0,1-.3-.216q-1.555-5-3.123-9.994c-.021-.066-.046-.131-.088-.248-.156.472-.295.891-.433,1.311q-1.467,4.472-2.931,8.945a.24.24,0,0,1-.275.2c-1.453-.008-2.905-.006-4.358,0a.277.277,0,0,1-.283-.156q-1.136-1.971-2.289-3.934a.311.311,0,0,1-.042-.279q1.176-3.612,2.346-7.227a1.125,1.125,0,0,1,.05-.1l2.674,5.3.487-1.492q1.626-4.986,3.251-9.973c.022-.069.033-.141.05-.212h3.759c-.028.084.02.156.042.23q1.7,5.618,3.408,11.235c.016.051.009.12.082.16.026-.057.051-.109.073-.162q2.137-5.005,4.272-10.011c.205-.482.434-.954.6-1.452Z" transform="translate(-128.553 -0.04)" fill="#fff"/>
      <path id="Path_134473-2" data-name="Path 134473" d="M52.654,304.416a4.851,4.851,0,0,0,.757.116,5.482,5.482,0,0,1,3.773,2.272.384.384,0,0,1,.057.382q-1.4,4.283-2.782,8.57a.381.381,0,0,1-.319.294,9.975,9.975,0,0,1-2.18.235c-.92,0-1.839.006-2.758,0-.173,0-.2.051-.2.211.006,1.919,0,3.838.008,5.757,0,.186-.034.245-.234.244-1.452-.01-2.9,0-4.357,0q0-8.947,0-17.894c0-.15.034-.184.184-.184Q48.625,304.42,52.654,304.416ZM49,310.353c0,.753,0,1.506,0,2.259,0,.129.031.175.165.167.186-.011.373,0,.56,0a11.6,11.6,0,0,0,2.013-.083,2.077,2.077,0,0,0,1.355-.729,2.644,2.644,0,0,0,.485-1.733,2.138,2.138,0,0,0-2.08-2.26c-.771-.082-1.545-.025-2.316-.05-.161-.005-.182.055-.18.194C49.007,308.861,49,309.607,49,310.353Z" transform="translate(0 0)" fill="#fff"/>
      <path id="Path_134475-2" data-name="Path 134475" d="M459.95,322.524H455.6c-.219,0-.492.07-.642-.034s-.175-.384-.249-.589c-.294-.813-.588-1.625-.874-2.44a.222.222,0,0,0-.252-.178q-3.039.008-6.078,0c-.225,0-.226,0-.144-.207.409-1.032.822-2.062,1.223-3.1a.267.267,0,0,1,.3-.209c1.18.009,2.359,0,3.539,0,.249,0,.249,0,.168-.228q-.869-2.431-1.742-4.862a.591.591,0,0,1,.011-.456c.76-1.908,1.512-3.819,2.288-5.781Z" transform="translate(-367.549 -0.036)" fill="#fff"/>
    </g>
  </g>
</svg>
