<svg width="50" height="49" viewBox="0 0 50 49" fill="none" xmlns="http://www.w3.org/2000/svg">
<path d="M37.4067 22.6491C37.0143 22.252 36.8103 21.8487 36.8212 21.2818C36.8368 20.5048 36.7449 19.7262 36.5253 18.9756C35.2873 14.7383 32.0155 12.2311 27.5852 12.1237C27.2021 12.1143 26.8906 12.0365 26.6165 11.7406C24.8319 9.82205 22.5895 8.99048 19.4952 8.97802C18.1529 8.92663 16.3761 9.32062 14.945 10.4636C13.6447 11.5008 12.349 12.0147 10.6563 12.2809C5.99079 13.0129 2.87785 17.5055 3.14569 21.3659C3.17684 21.816 3.018 22.129 2.68475 22.4482C-0.878237 25.8446 -0.896924 32.0113 2.64114 35.3874C2.98841 35.7191 3.13791 36.0633 3.14725 36.5413C3.23757 41.7721 7.07619 45.6715 12.2774 45.8147C12.7555 45.8272 13.1043 45.9736 13.4376 46.3146C16.9196 49.8807 23.2607 49.8309 26.3939 46.3395C26.7349 45.9596 27.1227 45.8288 27.6272 45.8225C32.777 45.7478 36.7231 41.8266 36.8072 36.6939C36.8165 36.1582 36.98 35.7705 37.3553 35.3936C40.87 31.8478 40.895 26.1872 37.4067 22.6491ZM11.069 23.3966C11.0269 21.4002 12.3584 20.0469 14.3563 20.0501C16.264 20.0532 17.5798 21.3535 17.6094 23.2627C17.639 25.2077 16.4041 26.522 14.4903 26.5812C12.4503 26.645 11.111 25.3992 11.069 23.3966ZM17.3478 37.1051C16.8417 37.8665 16.2032 38.3913 15.2424 38.4007C13.5575 38.4225 12.5655 36.9229 13.1806 35.255C13.2958 34.942 13.478 34.6477 13.6634 34.3674C16.5925 29.9588 19.5248 25.5534 22.4634 21.1495C22.6502 20.8707 22.8605 20.5998 23.0956 20.3615C23.9661 19.4786 25.173 19.2948 26.0606 19.8912C26.9467 20.4876 27.2363 21.6696 26.7583 22.8157C26.643 23.0914 26.4982 23.3592 26.3331 23.6068C23.3401 28.1088 20.3408 32.6046 17.3478 37.1051ZM25.5171 37.8043C23.5893 37.7918 22.3544 36.4931 22.3559 34.4811C22.3575 32.424 23.6344 31.1751 25.7367 31.1751C27.6365 31.1751 28.9618 32.5517 28.9384 34.5013C28.915 36.5008 27.5509 37.8167 25.5171 37.8043Z" fill="#005D89"/>
<path d="M49.3023 7.78627C49.1422 8.16658 48.8553 8.38676 48.4616 8.51353C47.1539 8.92719 45.8529 9.36755 44.5451 9.78122C44.3116 9.85461 44.1915 9.98138 44.1181 10.2149C43.6978 11.5426 43.2574 12.8637 42.8237 14.1914C42.6303 14.7852 42.1766 15.0855 41.6161 14.9787C41.1824 14.8987 40.9356 14.6118 40.8021 14.2048C40.3751 12.877 39.9348 11.556 39.5077 10.2282C39.4277 9.98138 39.3076 9.85461 39.0607 9.78122C37.753 9.36755 36.4519 8.93387 35.1442 8.50686C34.5704 8.32004 34.3035 7.99311 34.2969 7.4927C34.2969 6.98563 34.5571 6.65203 35.1242 6.46521C36.4453 6.03153 37.773 5.59784 39.1007 5.17083C39.3143 5.10411 39.421 4.99069 39.4944 4.78385C39.9147 3.46946 40.3551 2.15507 40.7754 0.840677C40.9022 0.447027 41.1157 0.160129 41.5027 0C41.7095 0 41.9163 0 42.1299 0C42.5102 0.160129 42.7303 0.447027 42.8571 0.840677C43.2774 2.15507 43.7178 3.46946 44.1381 4.78385C44.2049 4.99736 44.3183 5.10411 44.5251 5.17083C45.8328 5.59117 47.1339 6.02486 48.4416 6.43852C48.8419 6.56529 49.1488 6.7788 49.309 7.17245C49.3023 7.36594 49.3023 7.57277 49.3023 7.78627Z" fill="#008DD1"/>
</svg>
