<svg width="42" height="42" viewBox="0 0 42 42" fill="none" xmlns="http://www.w3.org/2000/svg">
<g clip-path="url(#clip0_95_1468)">
<path d="M42.0003 10.2504C41.79 10.7498 41.4133 11.0389 40.8964 11.2053C39.1792 11.7485 37.4708 12.3267 35.7537 12.8699C35.4471 12.9663 35.2894 13.1328 35.193 13.4394C34.6411 15.1828 34.0628 16.9175 33.4934 18.6609C33.2393 19.4406 32.6436 19.8349 31.9076 19.6947C31.3382 19.5896 31.014 19.2129 30.8388 18.6784C30.2781 16.935 29.6999 15.2003 29.1392 13.4569C29.034 13.1328 28.8763 12.9663 28.5522 12.8699C26.835 12.3267 25.1267 11.7573 23.4095 11.1966C22.6561 10.9513 22.3056 10.522 22.2969 9.86492C22.2969 9.19908 22.6386 8.76104 23.3832 8.51573C25.1179 7.94627 26.8613 7.37681 28.6048 6.8161C28.8851 6.7285 29.0253 6.57956 29.1217 6.30797C29.6736 4.58206 30.2518 2.85615 30.8038 1.13025C30.9702 0.613351 31.2506 0.23663 31.7587 0.0263672C32.0303 0.0263672 32.3019 0.0263672 32.5822 0.0263672C33.0816 0.23663 33.3707 0.613351 33.5372 1.13025C34.0891 2.85615 34.6673 4.58206 35.2193 6.30797C35.3069 6.58832 35.4558 6.7285 35.7274 6.8161C37.4446 7.36804 39.1529 7.93751 40.8701 8.48069C41.3958 8.64714 41.7988 8.92749 42.009 9.44439C42.0003 9.69846 42.0003 9.97005 42.0003 10.2504Z" fill="#008DD1"/>
<path d="M9.66804e-05 24.2241C0.00885763 23.2428 0.595841 22.4281 1.57707 22.1039C4.52075 21.1402 7.46443 20.1677 10.4169 19.2391C10.96 19.0726 11.2404 18.8098 11.4069 18.2579C12.3355 15.3054 13.2992 12.353 14.2717 9.41806C14.7448 7.99002 16.2867 7.40304 17.557 8.12144C18.1177 8.44559 18.4419 8.94497 18.6434 9.55823C19.6159 12.5545 20.5971 15.5507 21.5608 18.5557C21.6659 18.8799 21.8411 19.0376 22.1565 19.1427C25.1615 20.1064 28.1578 21.0789 31.154 22.0601C32.2579 22.4193 32.8537 23.199 32.8537 24.2503C32.8537 25.3017 32.2667 26.0901 31.1628 26.4493C28.1666 27.4306 25.1703 28.403 22.1653 29.3667C21.8324 29.4719 21.6572 29.6471 21.552 29.98C20.5708 33.0201 19.5896 36.0601 18.5821 39.0914C18.0039 40.8261 15.8837 41.2466 14.701 39.8886C14.4469 39.5908 14.3067 39.2403 14.1928 38.8724C13.2379 35.9287 12.2742 32.9763 11.328 30.0326C11.2141 29.6646 11.0214 29.4719 10.6622 29.358C7.64841 28.3943 4.63464 27.413 1.62963 26.4231C0.578319 26.0901 -0.00866427 25.2841 9.66804e-05 24.2241ZM16.4619 11.6784C16.2779 11.8711 16.2604 12.0551 16.2079 12.2216C15.3318 14.9112 14.4469 17.592 13.5883 20.2816C13.3956 20.8861 13.0276 21.2453 12.4319 21.4381C9.72475 22.3054 7.02638 23.1815 4.32801 24.0664C4.17907 24.1102 4.00385 24.1189 3.88996 24.2679C3.99509 24.3993 4.15279 24.408 4.29296 24.4606C6.99134 25.3367 9.68971 26.2216 12.3968 27.0889C13.0101 27.2816 13.3868 27.6408 13.5883 28.2629C14.4557 30.97 15.3405 33.6684 16.2254 36.3667C16.2779 36.5157 16.2779 36.7084 16.4707 36.8398C16.5408 36.6383 16.6021 36.4719 16.6547 36.3054C17.5308 33.6333 18.4069 30.9612 19.2654 28.2804C19.4669 27.6671 19.8261 27.2992 20.4482 27.1064C23.1903 26.2303 25.9238 25.3279 28.6659 24.4343C28.7711 24.3993 28.9112 24.408 28.9638 24.2416C28.8674 24.2065 28.7886 24.1627 28.6922 24.1365C25.9413 23.2428 23.1903 22.3317 20.4394 21.4556C19.8349 21.2629 19.4669 20.9212 19.2742 20.3167C18.5295 17.9775 17.7585 15.6471 16.9963 13.3079C16.8211 12.7735 16.6459 12.2566 16.4619 11.6784Z" fill="#005D89"/>
<path d="M32.8275 41.9999C32.1879 41.9999 31.7236 41.667 31.5046 40.9924C31.1366 39.8886 30.7774 38.7934 30.4358 37.6808C30.3481 37.3829 30.1905 37.234 29.8926 37.1464C28.815 36.8135 27.7374 36.4543 26.6598 36.1038C25.9239 35.8585 25.5734 35.4205 25.5822 34.7459C25.591 34.0976 25.9414 33.6683 26.6598 33.4317C27.7461 33.0725 28.8413 32.7133 29.9276 32.3717C30.1905 32.2928 30.3306 32.1526 30.4182 31.8898C30.7336 30.8735 31.0753 29.866 31.3995 28.8498C31.7149 27.8773 32.1003 27.5269 32.8275 27.5269C33.5371 27.5269 33.9226 27.8861 34.2292 28.8322C34.5622 29.8397 34.8951 30.856 35.2105 31.8723C35.2981 32.1526 35.447 32.2928 35.7274 32.3804C36.8225 32.7221 37.9088 33.0813 38.9952 33.4405C39.7136 33.677 40.0553 34.1151 40.0553 34.7722C40.0553 35.4292 39.7136 35.8673 38.9952 36.1038C37.9176 36.463 36.8488 36.8135 35.7624 37.1551C35.4558 37.2515 35.2893 37.4004 35.193 37.7158C34.8513 38.8285 34.4833 39.9236 34.1154 41.0275C33.9051 41.6583 33.4495 41.9912 32.8275 41.9999Z" fill="#008DD1"/>
<path d="M10.5488 9.82971C10.5488 10.5744 9.98811 11.1526 9.24342 11.1701C8.92803 11.1789 8.61264 11.1877 8.29724 11.1701C8.00813 11.1526 7.91176 11.2753 7.92052 11.5556C7.93804 11.871 7.92928 12.1864 7.92052 12.5018C7.89424 13.2465 7.30725 13.8072 6.56257 13.7984C5.84418 13.7897 5.26595 13.229 5.23967 12.5106C5.23091 12.239 5.21339 11.9586 5.23967 11.6958C5.29224 11.2665 5.10826 11.1351 4.70525 11.1789C4.45118 11.2052 4.18836 11.1877 3.92553 11.1789C3.18961 11.1526 2.62891 10.5832 2.62891 9.83847C2.62891 9.08503 3.17209 8.52433 3.94305 8.49805C4.24092 8.48929 4.54755 8.48052 4.84543 8.49805C5.17834 8.52433 5.28347 8.38415 5.25719 8.06876C5.23967 7.77089 5.24843 7.46425 5.25719 7.16638C5.27471 6.41294 5.84418 5.86976 6.60638 5.87852C7.3423 5.88728 7.903 6.43046 7.92928 7.16638C7.93804 7.49054 7.9468 7.82345 7.92928 8.14761C7.91176 8.4192 8.02565 8.50681 8.28848 8.49805C8.61264 8.48052 8.94555 8.48929 9.26971 8.49805C10.0056 8.52433 10.5488 9.09379 10.5488 9.82971Z" fill="#005D89"/>
</g>
<defs>
<clipPath id="clip0_95_1468">
<rect width="42" height="42" fill="white"/>
</clipPath>
</defs>
</svg>
