<svg xmlns="http://www.w3.org/2000/svg" xmlns:xlink="http://www.w3.org/1999/xlink" width="570" height="338.927" viewBox="0 0 570 338.927">
  <defs>
    <clipPath id="clip-path">
      <path id="SVGID" d="M344.291,363.188a23.964,23.964,0,1,0,23.963,23.963A23.963,23.963,0,0,0,344.291,363.188Zm0,36.658a12.695,12.695,0,1,1,12.695-12.695A12.695,12.695,0,0,1,344.291,399.846Z" transform="translate(-320.327 -363.188)" fill="none"/>
    </clipPath>
  </defs>
  <g id="Startup_Consulting_banner" transform="translate(-813 -176.001)">
    <g id="Group_311177" data-name="Group 311177" transform="translate(491.673 -5.273)">
      <g id="Group_311139" data-name="Group 311139" transform="translate(691.466 181.274)">
        <path id="Path_138045" data-name="Path 138045" d="M2606.677,226.8a42.088,42.088,0,0,0,.263-4.68c0-.835-.027-1.664-.076-2.487l-7.734-2.5a33.985,33.985,0,0,0-2.739-9.267l5.129-6.31a41.86,41.86,0,0,0-4.063-5.905l-7.735,2.524a34.377,34.377,0,0,0-7.657-5.886l.44-8.127a41.355,41.355,0,0,0-6.752-2.393l-4.776,6.591a34.395,34.395,0,0,0-9.656-.253l-4.422-6.835a41.375,41.375,0,0,0-6.87,2.03l.01,8.139a34.309,34.309,0,0,0-7.958,5.474l-7.588-2.928a41.835,41.835,0,0,0-4.37,5.682l4.789,6.574a34,34,0,0,0-3.229,9.108l-7.854,2.09a42.026,42.026,0,0,0-.263,4.68c0,.835.028,1.664.076,2.487l7.734,2.5a34,34,0,0,0,2.739,9.267l-5.128,6.31a41.777,41.777,0,0,0,4.063,5.905l7.735-2.524a34.369,34.369,0,0,0,7.657,5.886l-.44,8.127a41.373,41.373,0,0,0,6.753,2.393l4.776-6.591a34.385,34.385,0,0,0,9.656.253l4.422,6.835a41.392,41.392,0,0,0,6.87-2.03l-.01-8.139a34.3,34.3,0,0,0,7.958-5.474l7.589,2.928a41.853,41.853,0,0,0,4.37-5.682L2595.594,238a33.995,33.995,0,0,0,3.228-9.108Zm-41.425,11.67a16.351,16.351,0,1,1,16.351-16.351A16.35,16.35,0,0,1,2565.252,238.474Z" transform="translate(-2523.565 -181.274)" fill="#9ec8ff" opacity="0.5"/>
        <g id="Group_311136" data-name="Group 311136" transform="translate(63.146 30.811)">
          <path id="Path_138046" data-name="Path 138046" d="M2899.214,393.07a.842.842,0,0,1-.647-1.381,27.429,27.429,0,0,0,4.833-26.42.842.842,0,0,1,1.593-.549,29.115,29.115,0,0,1-5.13,28.046A.84.84,0,0,1,2899.214,393.07Z" transform="translate(-2898.372 -364.152)" fill="#fff"/>
        </g>
        <g id="Group_311137" data-name="Group 311137" transform="translate(51.061 13.465)">
          <path id="Path_138047" data-name="Path 138047" d="M2837.2,268.869a.84.84,0,0,1-.577-.229,27.226,27.226,0,0,0-9.427-5.809.842.842,0,1,1,.574-1.584,28.9,28.9,0,0,1,10.008,6.166.843.843,0,0,1-.578,1.456Z" transform="translate(-2826.64 -261.197)" fill="#fff"/>
        </g>
        <g id="Group_311138" data-name="Group 311138" transform="translate(34.503 11.781)">
          <path id="Path_138048" data-name="Path 138048" d="M2729.2,253.741a.842.842,0,0,1-.205-1.659,29.182,29.182,0,0,1,7.136-.883.842.842,0,0,1,0,1.685,27.486,27.486,0,0,0-6.724.831A.843.843,0,0,1,2729.2,253.741Z" transform="translate(-2728.36 -251.199)" fill="#fff"/>
        </g>
      </g>
      <rect id="Rectangle_163306" data-name="Rectangle 163306" width="260.542" height="156.494" transform="translate(447.424 181.393)" fill="#60a6df" opacity="0.5"/>
      <rect id="Rectangle_163307" data-name="Rectangle 163307" width="245.12" height="143.665" transform="translate(460.116 185.212)" fill="#fff"/>
      <g id="Group_311142" data-name="Group 311142" transform="translate(606.866 251.838)">
        <path id="Path_138049" data-name="Path 138049" d="M2336.25,607.731c11.681-11.119,31.646-10.867,31.225,6.065s.977,18.523,5.784,27.406c16.679,30.82-19.88,29.006-35.127,30.017s-13.984-27.714-11.288-43.635S2332.832,610.985,2336.25,607.731Z" transform="translate(-2273.997 -600.11)" fill="#303c60"/>
        <path id="Path_138050" data-name="Path 138050" d="M2348.672,1221.577c-3.745,31.45-10.55,54.7-11.308,69.608s-3.791,73.614-3.791,73.614,8.339-.583,9.1-1.847,15.667-34.368,14.909-54.837,14.891-51.592,14.891-51.592l-3.772-30.537Z" transform="translate(-2280.974 -1116.874)" fill="#16191a"/>
        <path id="Path_138051" data-name="Path 138051" d="M2391.4,1302.845l-5.857,2.451c-1.592,9.973-3.358,18.939-4.909,26.892,9.321,6.026,14.135,26.1,16.2,38.374,1.051-13.733,7.531-30.328,11.551-39.5Z" transform="translate(-2320.108 -1184.45)" fill="#16191a"/>
        <path id="Path_138052" data-name="Path 138052" d="M2481.709,1202.759s12.623,16.1,12.227,34.368c-.6,27.807-3.635,35.746,1.642,64.9,2.061,11.388-4.549,48.639-4.549,48.639s-5.646.443-8.679-1.067c.253-2.737-3.648-47.261-11.248-67.729-3.68-9.911-8.852-37.67-11.631-53.59s-3.285-19.205-2.274-19.205S2481.709,1202.759,2481.709,1202.759Z" transform="translate(-2383.37 -1101.227)" fill="#16191a"/>
        <path id="Path_138053" data-name="Path 138053" d="M2133.5,859.736s.561-8.331-.337-10.9-8.649-4.82-8.649-4.82-.337,11.906.449,13.366,5.391,5.616,5.391,5.616Z" transform="translate(-2107.078 -802.919)" fill="#ffbe9d"/>
        <path id="Path_138054" data-name="Path 138054" d="M2194.77,901.313c-17.745,19.1-23.536,27.136-24.884,27.136-4.212-7.435-18.2-23.159-18.2-23.159l-5.965,3.835s13.785,36.016,22.545,36.388,26.568-12.42,26.793-13.889S2194.77,901.313,2194.77,901.313Z" transform="translate(-2124.768 -850.567)" fill="#008dd1"/>
        <path id="Path_138055" data-name="Path 138055" d="M2327.015,943.645c8.68-3.534,18.626-10.926,18.795-12.022.226-1.469-.288-30.31-.288-30.31-3.868,4.164-7.246,7.857-10.176,11.086C2332.167,924.238,2332.374,937.128,2327.015,943.645Z" transform="translate(-2275.52 -850.567)" fill="#60a6df"/>
        <path id="Path_138056" data-name="Path 138056" d="M2407.58,826.678s16.98,8.512,20.687,23.578-7.261,33.68-8.608,43.614-32.346,11.681-32.346,1.048c0-10.194-7.767-31.831-7.328-37.343,1.028-12.932,19.933-28.774,19.933-28.774Z" transform="translate(-2319.55 -788.506)" fill="#008dd1"/>
        <path id="Path_138057" data-name="Path 138057" d="M2446.4,710.826l7.29,22.48s-7.784,6.007-21.105,20.457c.517-9.616,8.573-20.1,8.573-20.1l-5.515-21.228Z" transform="translate(-2363.302 -692.173)" fill="#ffbe9d"/>
        <path id="Path_138058" data-name="Path 138058" d="M2464.893,721.311l-3.4-10.485-10.757,1.611,5.515,21.228s-.538.858-1.332,2.207A25.913,25.913,0,0,0,2464.893,721.311Z" transform="translate(-2378.397 -692.173)" fill="#f2ac88"/>
        <path id="Path_138059" data-name="Path 138059" d="M2389.622,662.344c-1.966,7.154-9.58,11.092-14.99,9.6s-6.568-7.836-4.6-14.99,7.946-11.748,13.356-10.261S2391.588,655.19,2389.622,662.344Z" transform="translate(-2310.543 -638.617)" fill="#ffbe9d"/>
        <path id="Path_138060" data-name="Path 138060" d="M2383.918,1096.5c2.361,14.958-6.4,46.961-6.4,46.961s5.227,1.187,20.9-.329,22.576-17.154,24.935-17.59,3.57,14.553,4.733,15.737,1.341-18.929-1.7-26.836c-5.391-14.017-4.336-19.962-2.321-28.454C2427.639,1070.886,2383.918,1096.5,2383.918,1096.5Z" transform="translate(-2317.511 -1000.164)" fill="#008dd1"/>
        <path id="Path_138061" data-name="Path 138061" d="M2251.8,2027.978c1.411,5.734-1.375,10.281-5.1,13.6-3.032,2.7-12.355,3.841-11.906,5.189s11.457,1.775,15.163,1.213,4.718-2.359,9.331-2.356c3.024,0,3.586-2.458,2.238-5.5s-1.82-4.721-.6-7.446S2251.8,2027.978,2251.8,2027.978Z" transform="translate(-2198.823 -1787.415)" fill="#4476bd"/>
        <path id="Path_138062" data-name="Path 138062" d="M2612.373,2007.39c-.224,5.953-.916,10.388.545,13.147,5.639,4.717,10.327,10.075,8.536,10.446-8.536,1.763-11.793-3.354-16.623-4.807-5.927-1.785.561-9.232-1.761-18.785-1.291-5.311,8.949-4.038,8.949-4.038Z" transform="translate(-2504.389 -1766.827)" fill="#4476bd"/>
        <path id="Path_138063" data-name="Path 138063" d="M2478.109,952.563a28.038,28.038,0,0,0-1.274-4.879c-5.391-14.016-4.335-19.962-2.32-28.454a6.67,6.67,0,0,0,.2-1.773c.455-1.514.879-3.049,1.25-4.593l-1.83-16.518-13.193-15.668c-9.888,14.489-3.215,32.516-4.7,42.456s-18.052,22.614-18.052,22.614l.539,3.527a8.956,8.956,0,0,0,10.072,7.526c6.828-.948,15.786-2.852,19.772-6.551C2472.438,946.671,2475.853,949.44,2478.109,952.563Z" transform="translate(-2367.97 -833.409)" fill="#60a6df"/>
        <path id="Path_138064" data-name="Path 138064" d="M2399.524,1263.53s-7.314,2.046-8.188,2.5-1.358,2.875-1.358,2.875-4.187,3.635-2.583,4.923,4.468,4.546,8.255,3.03c2.324-.931,4.125-9.471,5.649-9.539S2399.524,1263.53,2399.524,1263.53Z" transform="translate(-2325.423 -1151.759)" fill="#ffbe9d"/>
        <path id="Path_138065" data-name="Path 138065" d="M2473.211,869.323c7.828.222,14.925,14.32,17.4,26.552s5.076,29.621,5.076,29.621-12.973,10.239-25.791,13.231c-11.182,2.61-16.89,3.631-16.89,3.631l-2.269-6.384,26.755-15.715s-9.837-18.532-10.815-32.516S2467.262,869.155,2473.211,869.323Z" transform="translate(-2378.397 -823.963)" fill="#008dd1"/>
        <rect id="Rectangle_163308" data-name="Rectangle 163308" width="19.902" height="12.639" transform="translate(0 42.203) rotate(-11.346)" fill="#60a6df"/>
        <path id="Path_138066" data-name="Path 138066" d="M2129.131,871.594c.269-5.126-2.27-12.116-3.73-12.106s.449,4.581-.337,7.614C2124.637,868.745,2129.131,871.594,2129.131,871.594Z" transform="translate(-2107.4 -815.789)" fill="#ffbe9d"/>
        <path id="Path_138067" data-name="Path 138067" d="M2382.965,639.5c.434,14.04,16.832,12.964,21.325,12.1s-5.47,29.62,3.089,31.379c6.284,1.292,4.869-8.539,11.85-7.881,3.089.291,6.193,5.065,6.193,5.065a9.534,9.534,0,0,0-2.823-5.065c-2.358-2.124-8.542-15.153-10.168-24.475s-12.633-15.352-15.89-15.538-11.232,3.52-11.232,3.52Z" transform="translate(-2322.044 -629.186)" fill="#303c60"/>
        <g id="Group_311140" data-name="Group 311140" transform="translate(80.325 22.004)">
          <path id="Path_138068" data-name="Path 138068" d="M2503,765.681a3.238,3.238,0,0,1-.676-.072c-2.739-.583-4.067-3.462-4.18-9.059-.1-4.8.7-10.956,1.537-17.475.339-2.634.69-5.358.979-7.995a.411.411,0,0,1,.816.089c-.29,2.645-.642,5.373-.981,8.01-1.625,12.614-3.159,24.527,2,25.626a2.3,2.3,0,0,0,.48.051c2.963,0,5.632-5.776,7.188-11.4a.41.41,0,0,1,.791.219C2509.929,757.387,2507.167,765.68,2503,765.681Z" transform="translate(-2498.137 -730.714)" fill="#303c60"/>
        </g>
        <g id="Group_311141" data-name="Group 311141" transform="translate(79.175 22.004)">
          <path id="Path_138069" data-name="Path 138069" d="M2496.23,768.944a3.236,3.236,0,0,1-2.426-1.079c-5.59-5.909-.063-35.558.176-36.817a.41.41,0,1,1,.806.152c-.057.3-5.69,30.494-.385,36.1a2.448,2.448,0,0,0,2.231.795c2.9-.383,4.579-4.322,6.058-7.8,1.434-3.371,2.783-6.555,5.186-6.471a.41.41,0,1,1-.029.82h-.059c-1.8,0-3.036,2.9-4.343,5.973-1.564,3.677-3.338,7.845-6.705,8.289A3.886,3.886,0,0,1,2496.23,768.944Z" transform="translate(-2491.313 -730.714)" fill="#303c60"/>
        </g>
        <path id="Path_138070" data-name="Path 138070" d="M2489.391,726.412c-1.156,1.489-2.966,2.019-4.044,1.182s-1.016-2.722.14-4.211,2.966-2.019,4.044-1.182S2490.547,724.923,2489.391,726.412Z" transform="translate(-2406.536 -701.301)" fill="#ffbe9d"/>
      </g>
      <g id="Group_311147" data-name="Group 311147" transform="translate(501.751 315.513)">
        <path id="Path_138071" data-name="Path 138071" d="M1610.979,1012.677c4,8.006.69,17.224-7.185,20.482-7.926,3.279-16.592,1.417-20.6-6.589s-1.03-17.605,6.641-21.441S1606.975,1004.671,1610.979,1012.677Z" transform="translate(-1550.407 -999.251)" fill="#303c60"/>
        <g id="Group_311143" data-name="Group 311143" transform="translate(30.161 12.954)">
          <path id="Path_138072" data-name="Path 138072" d="M1585.206,1076.857c-.884,0-2.625-.313-4.839-2.277a12.373,12.373,0,0,1-3.673-6.959,24.2,24.2,0,0,1,1.348-12.4.41.41,0,0,1,.776.268,23.4,23.4,0,0,0-1.318,11.98,11.549,11.549,0,0,0,3.411,6.5c2.808,2.492,4.691,2.038,4.71,2.033a.41.41,0,0,1,.22.791A2.5,2.5,0,0,1,1585.206,1076.857Z" transform="translate(-1576.377 -1054.942)" fill="#303c60"/>
        </g>
        <g id="Group_311146" data-name="Group 311146" transform="translate(0 41.773)">
          <path id="Path_138073" data-name="Path 138073" d="M1689.832,1242.649c4.556,1.021,10.309,13.683,13.126,21.794,2.841,8.182,7.658,18.331,10.811,21.484s23.875,10.464,23.875,10.464-51.2.1-50.15,0S1689.832,1242.649,1689.832,1242.649Z" transform="translate(-1638.598 -1239.843)" fill="#fec35b"/>
          <path id="Path_138074" data-name="Path 138074" d="M1727.126,1292.323c-2.8-.4-12.914.9-8.609-.9s3.7-4.1,3.7-4.1-6.107,5.106-7.208.641c-.95-3.849-1.313-17.441-4.917-31.063-2.977-6.755-6.874-13.512-10.151-14.246,0,0-.115,4.8-.3,11.521,1.257,14.883,3.391,36.748,3.933,42.259,6.786.011,18.144,0,27.645-.012l6.319-.3S1729.929,1292.723,1727.126,1292.323Z" transform="translate(-1648.712 -1239.843)" fill="#e5a940"/>
          <path id="Path_138075" data-name="Path 138075" d="M1511.039,1226s-14.494,8.1-17.872,9.821,9.465,52.274,12.322,54.44,28,.373,30.868-2.357-2.2-11.106.281-27.879-7.557-31.252-8.846-31.22-9.7-2.806-9.7-2.806Z" transform="translate(-1476.558 -1225.996)" fill="#fec35b"/>
          <path id="Path_138076" data-name="Path 138076" d="M1505.712,1342.371c2.856,2.166,20.852,2.215,28.512-.168.865-.269,4.79-1.833,4.882-3.3-.925-.174-4.595.267-6.085-.075-5.181-1.19-8.034-7.608-8.034-7.608s-2.853-1.026-9.235-3.729-3.754-10.887-3.9-14.491-6.307-15.392-17.869-24.326l-1.061.475C1492.093,1297.361,1503.069,1340.367,1505.712,1342.371Z" transform="translate(-1476.781 -1278.111)" fill="#e5a940"/>
          <g id="Group_311145" data-name="Group 311145" transform="translate(56.434 24.454)">
            <path id="Path_138077" data-name="Path 138077" d="M1909.418,1372.006h-34.9l-15.894,33.824h38.442l14.388-30.618A2.25,2.25,0,0,0,1909.418,1372.006Z" transform="translate(-1837.346 -1371.86)" fill="#60a6df"/>
            <g id="Group_311144" data-name="Group 311144">
              <path id="Path_138078" data-name="Path 138078" d="M1755.68,1405.592h-21a2.359,2.359,0,1,1,0-4.717h19.5l13.181-28.368a2.359,2.359,0,0,1,4.278,1.988l-13.815,29.732A2.358,2.358,0,0,1,1755.68,1405.592Z" transform="translate(-1732.321 -1371.142)" fill="#176a92"/>
            </g>
          </g>
          <path id="Path_138079" data-name="Path 138079" d="M1642.275,1532.736c9.11,1.7,11.35,3.793,16.316,4.594,5.63.907,4.96,2.151.779,2.151s-14.688.162-18.294-.638S1642.275,1532.736,1642.275,1532.736Z" transform="translate(-1598.899 -1481.057)" fill="#f09959"/>
          <path id="Path_138080" data-name="Path 138080" d="M1412.825,1285.582c-6.982,22.324-16.88,47.654-15.3,47.654s41.667,1.621,43.244.271,1.126-6.53.9-7.206-22.792-4.681-22.792-4.681,2.972-5.791,4.1-17.11S1414.149,1281.349,1412.825,1285.582Z" transform="translate(-1397.354 -1274.813)" fill="#fec35b"/>
        </g>
        <path id="Path_138081" data-name="Path 138081" d="M1605.769,1110.857l-5.624,20.553s9.5,14.834,12.116,13.516-1.461-12.057-1.461-13.516,4.073-16.517,4.073-16.517Z" transform="translate(-1565.979 -1088.483)" fill="#ffbe9d"/>
        <path id="Path_138082" data-name="Path 138082" d="M1629.569,1132.457a5.479,5.479,0,0,1-.2-1.047c0-1.459,4.073-16.517,4.073-16.517l-9.105-4.036-1.861,6.8A35.451,35.451,0,0,0,1629.569,1132.457Z" transform="translate(-1584.552 -1088.483)" fill="#efb191"/>
        <path id="Path_138083" data-name="Path 138083" d="M1658.549,1063.612c1.071,5.96.366,13.875-4.927,15.888s-11.667-1.838-14.239-8.6-.366-13.875,4.927-15.888S1657.269,1056.492,1658.549,1063.612Z" transform="translate(-1597.715 -1041.577)" fill="#ffbe9d"/>
        <path id="Path_138084" data-name="Path 138084" d="M1623.146,1114.38c.742,2.083.1,4.216-1.439,4.763s-3.383-.7-4.125-2.782-.1-4.216,1.439-4.763S1622.4,1112.3,1623.146,1114.38Z" transform="translate(-1580.222 -1088.992)" fill="#ffbe9d"/>
        <path id="Path_138085" data-name="Path 138085" d="M1639.259,1041.136c-1.8,13.985-18.793,12.184-18.793,12.184s-3.5-4.607-5.081-2.191,2.187-14.179,11.937-14.7C1630.525,1036.255,1639.259,1041.136,1639.259,1041.136Z" transform="translate(-1578.363 -1026.589)" fill="#303c60"/>
        <ellipse id="Ellipse_4715" data-name="Ellipse 4715" cx="9.203" cy="8.634" rx="9.203" ry="8.634" transform="translate(25.22)" fill="#303c60"/>
      </g>
      <g id="Group_311150" data-name="Group 311150" transform="translate(517.841 412.344)">
        <g id="Group_311149" data-name="Group 311149" transform="translate(0 3.915)">
          <path id="Path_138086" data-name="Path 138086" d="M1492.874,1865.194h2.1l13.589-62.961h-4.63Z" transform="translate(-1492.874 -1764.124)" fill="#176a92"/>
          <path id="Path_138087" data-name="Path 138087" d="M1792.777,1854.209h-2.1l-15.815-65.186h4.63Z" transform="translate(-1727.35 -1753.139)" fill="#176a92"/>
          <g id="Group_311148" data-name="Group 311148" transform="translate(1.187)">
            <path id="Path_138088" data-name="Path 138088" d="M1522.745,1616.5c-8.43,0-13.771-1.514-17.179-4.834-4.225-4.116-5.1-10.491-5.112-18.8-.01-6.537-.165-10.795-.52-14.236a2.359,2.359,0,1,1,4.693-.483c.371,3.607.534,8.007.545,14.712.013,8.418,1.081,12.887,3.686,15.425,2.673,2.6,7.505,3.678,15.665,3.473a92.705,92.705,0,0,0,17.662-2.183c5.732-1.165,9.874-2.007,14.785.34a2.359,2.359,0,0,1-2.034,4.256c-3.486-1.666-6.443-1.065-11.812.026a96.8,96.8,0,0,1-18.485,2.276Q1523.668,1616.5,1522.745,1616.5Z" transform="translate(-1499.922 -1576.034)" fill="#176a92"/>
          </g>
        </g>
        <path id="Path_138089" data-name="Path 138089" d="M1521.705,1574.38l12.9.537-3.435,35.627s-9.619-6.14-9.469-12.747S1521.705,1574.38,1521.705,1574.38Z" transform="translate(-1516.846 -1570.743)" fill="#2e5b9a"/>
        <path id="Path_138090" data-name="Path 138090" d="M1890.927,1590.715c10.911-1.655,14.619-1.134,21.3,11.294s15.566,34.8,20.678,37.694c7.7,4.352,10.248,15.023,13.408,14.543s5.195.917,1.756,3.776-8.993,5.292-10.892,4.785-3.372-8.713-8.333-11.378-3.47-4.853-3.144-7.21-14.479-13.208-25.64-26.7c-6.819-8.246-10.331-13.689-10.852-18.621A12.94,12.94,0,0,1,1890.927,1590.715Z" transform="translate(-1822.369 -1583.76)" fill="#ffbe9d"/>
        <path id="Path_138091" data-name="Path 138091" d="M1917.977,1635.781c-2.534-6.429-5.076-17.04-7.465-26.767-3.4-13.834-6.959-17.119-9.216-18.594-2.728-.684-5.96-.371-10.368.3a12.939,12.939,0,0,0-1.721,8.179c.521,4.933,4.032,10.376,10.852,18.622a195.85,195.85,0,0,0,17.918,18.263Z" transform="translate(-1822.369 -1583.761)" fill="#ffbe9d"/>
        <path id="Path_138092" data-name="Path 138092" d="M1867.338,1601.654s-2.9,21.905-5.607,24.131c-1.933,1.593-3.3,1.7-4.655-4.834s2.1-30.917,2.1-30.917Z" transform="translate(-1795.456 -1583.76)" fill="#2e5b9a"/>
        <path id="Path_138093" data-name="Path 138093" d="M1773.19,1632.688l-26.869,4.515,15.169-21.75,11.544-2.351,6.923,1.592Z" transform="translate(-1703.621 -1602.941)" fill="#ffbe9d"/>
        <path id="Path_138094" data-name="Path 138094" d="M2103.479,1911.651c-.871,3.51-.766,6.105.747,7.406s7.232,10.963,7.232,10.963l1.782-.27-4.125-8.841Z" transform="translate(-2000.149 -1851.192)" fill="#2e5b9a"/>
        <path id="Path_138095" data-name="Path 138095" d="M2115.38,1929.43c1.9.507,7.453-1.926,10.892-4.785s1.4-4.255-1.756-3.776a1.364,1.364,0,0,1-.53-.026c-1.579,3.526-6.77,6.171-8.446,2.446-1.66-3.691-8.774-11.039-11.64-12.611a.673.673,0,0,1,0,.164c-.326,2.357-1.817,4.546,3.144,7.21S2113.481,1928.923,2115.38,1929.43Z" transform="translate(-2000.574 -1850.384)" fill="#2e5b9a"/>
        <path id="Path_138096" data-name="Path 138096" d="M1551.641,1594.669c-9.533,17.107-3.021,27.98,8.565,29.088s29.877-1.008,40.538-9.867,19.413-18.228,18.191-19.625S1551.641,1594.669,1551.641,1594.669Z" transform="translate(-1537.922 -1586.836)" fill="#ffbe9d"/>
        <path id="Path_138097" data-name="Path 138097" d="M1884.719,1623.554c1.952-5.856,4.2-10.349,8.559-10.431,4.58-.086,7.4,2.3,7.594,9.792.233,8.924.547,38.479.135,51.619-.312,9.947,2.587,13.133,2.342,23.5-.184,7.81,8.142,3.865,4.926,7.915-2.212,2.786-8.8,1.875-12.84,1.36-3.6-.458,1.865-11.257-3.122-14.145-4.28-2.477-4.363-6.5-1.66-9.545s.3-12.055-1.5-18.361-4.6-13.13-6.432-28.042C1882.2,1632.968,1883.526,1627.131,1884.719,1623.554Z" transform="translate(-1816.941 -1602.957)" fill="#ffbe9d"/>
        <path id="Path_138098" data-name="Path 138098" d="M1936.134,2049.708a18.868,18.868,0,0,1-4.562.934c-3,.1-3.9-3.2-4.1-7.691-.175-3.918-3.021-10.089-5.939-12.592-.054.071-.109.141-.167.207-2.7,3.045-2.619,7.068,1.66,9.545,4.988,2.888-.481,13.686,3.122,14.145,4.044.514,10.629,1.425,12.84-1.36C1941.074,2050.264,1938.48,2050.055,1936.134,2049.708Z" transform="translate(-1847.65 -1949.901)" fill="#2e5b9a"/>
        <path id="Path_138099" data-name="Path 138099" d="M1914.633,2024.963s-4.38,4.574-3.979,6.476,1.751,6.707,1.976,10.411.426,7.956.426,7.956,1.577,0,1.7-.448,1-15.055,1-15.055Z" transform="translate(-1840.247 -1945.414)" fill="#2e5b9a"/>
        <path id="Path_138100" data-name="Path 138100" d="M1536.568,1590.034s-5.654,24,1.49,30.647,36.809.668,43.8.27c4.73-.27,9.31,5.5,9.31,5.5s-3.3-13.388-1.051-24.2,5.888-11.539,5.888-11.539l-4.836-.682Z" transform="translate(-1527.441 -1583.76)" fill="#222"/>
        <path id="Path_138101" data-name="Path 138101" d="M1533.4,1552.795c2.418,5.13-2.6,13.99-.843,16.542s11.833.358,18.434-4.955,19.094-6.481,19.094-6.481Z" transform="translate(-1525.552 -1552.795)" fill="#fec35b"/>
        <path id="Path_138102" data-name="Path 138102" d="M1564.7,1778.74c19.972.751,41,.4,41-2.58s-.9-5.078-16.368-3.877-25.978,2.853-30.633,1.8S1564.7,1778.74,1564.7,1778.74Z" transform="translate(-1546.623 -1735.018)" fill="#176a92"/>
      </g>
      <rect id="Rectangle_163309" data-name="Rectangle 163309" width="285.742" height="5.437" rx="2.719" transform="translate(465.321 415.709)" fill="#176a92"/>
      <g id="Group_311155" data-name="Group 311155" transform="translate(662.761 322.81)">
        <path id="Path_138103" data-name="Path 138103" d="M2990.051,1091.084c1.935,6.821-2.791,13.851-8,15.327s-8.92-3.158-10.855-9.98.717-13.548,5.923-15.025S2988.115,1084.263,2990.051,1091.084Z" transform="translate(-2866.57 -1071.052)" fill="#ffbe9d"/>
        <path id="Path_138104" data-name="Path 138104" d="M2883.225,1924.823s13.342,20.721,15.144,21.622,6.306,1.126,4.617,4.5-2.365,16.667-3.942,17.343-15.09,2.252-13.063,0,3.274-1.126,4.3-5.18,2.46-11.712.545-13.289-13.626-15.766-13.626-15.766Z" transform="translate(-2788.931 -1772.611)" fill="#ffbe9d"/>
        <path id="Path_138105" data-name="Path 138105" d="M2380.439,1977.643s-16.218,26.729-19.221,29.131-12.914,6.006-4.805,6.607,12.013-2.7,17.118-4.2,11.412-2.4,9.01-6.307-1.4-12.428,3.775-17.834S2380.439,1977.643,2380.439,1977.643Z" transform="translate(-2353.292 -1816.532)" fill="#ffbe9d"/>
        <path id="Path_138106" data-name="Path 138106" d="M2563.191,1609.652s-40.147-1.05-56.064,12.013c-9.31,14.115-31.833,55.763-33.583,60.352,1.2,1.2,7.959,3.369,10.962,3.069,8.86-10.564,20.57-19.7,25.227-27.983,5.739-10.211,7.508-15.317,16.818-16.218s30.333-3.9,36.64-3.9S2563.191,1609.652,2563.191,1609.652Z" transform="translate(-2453.284 -1510.522)" fill="#222"/>
        <path id="Path_138107" data-name="Path 138107" d="M3128.582,1879.455h-2.1l-15.09-62.961h4.629Z" transform="translate(-2983.665 -1682.533)" fill="#176a92"/>
        <path id="Path_138108" data-name="Path 138108" d="M2839.274,1868.469h2.1l17.316-65.186h-4.63Z" transform="translate(-2757.397 -1671.548)" fill="#176a92"/>
        <path id="Path_138109" data-name="Path 138109" d="M2751.816,1593.429l-23.341,4.029s-31.017.285-45.195,2.926c-12.9,2.4-14.8,17.059,0,37.24,8.407,11.464,15.515,20.609,30.051,30.921,3.7-2.715,5.113-3.742,6.135-10.274-1.052-1.443-3.776-10.471-4.621-12.238-8.041-16.807-18.772-22.919-18.921-24.573,1.8-2.928,47.729,15.263,56.861,4.562C2761.5,1615.806,2751.816,1593.429,2751.816,1593.429Z" transform="translate(-2619.037 -1497.05)" fill="#222"/>
        <path id="Path_138110" data-name="Path 138110" d="M3000.167,1278.474a24.424,24.424,0,0,0-18.264,4.545c-5.116,5.216-10.906,13.817-10.552,28,.451,18.019-2.788,19.176.59,24.131,14.091,5.819,38.191,30.82,32.516,4.017-4.11-19.408,9.013-33.874-1.573-55.4C3002.023,1282.018,3000.946,1280.318,3000.167,1278.474Z" transform="translate(-2866.418 -1234.936)" fill="#fec35b"/>
        <path id="Path_138111" data-name="Path 138111" d="M2971.352,1340.022c-.274,9.394-1.6,12.161-.586,15.106,5.745.586,16.252,2.885,18.878,6.561,3,4.2,6.007,4.805,4.605,1.7s-5.106-7.508.6-22.625,8.409-25.327,2.8-35.839Z" transform="translate(-2866.422 -1257.154)" fill="#e5a940"/>
        <path id="Path_138112" data-name="Path 138112" d="M3057.017,1185.866a73.314,73.314,0,0,1-4.715-19.029l-9.91,2.928s5.631,12.613.225,17.118a51.669,51.669,0,0,0-3.863,3.528A24.423,24.423,0,0,1,3057.017,1185.866Z" transform="translate(-2923.269 -1142.328)" fill="#ffbe9d"/>
        <path id="Path_138113" data-name="Path 138113" d="M3070.632,1171.84c-.587-.522-1.321-1.174-2.093-1.856l-8.083,2.388-.017.044a33.029,33.029,0,0,1,2.525,9.873c2.409-1.462,5.046-3.844,8.061-8.007C3070.863,1173.358,3070.733,1172.534,3070.632,1171.84Z" transform="translate(-2941.301 -1144.945)" fill="#f5b08d"/>
        <path id="Path_138114" data-name="Path 138114" d="M2808.646,1295.113c-10.207,3.57-9.075,14.323-18.469,30.181-4.862,8.207-9.377,8.085-9.377,8.085a217.565,217.565,0,0,1-25.193-1.595c-8.635-1.056-9.184,1.515-3.177,3.662,12.113,4.331,24.684,8.992,34.819,7.866s27.471-26.987,28.365-33.718C2816.85,1300.285,2813.787,1293.315,2808.646,1295.113Z" transform="translate(-2681.866 -1248.757)" fill="#f09959"/>
        <g id="Group_311151" data-name="Group 311151" transform="translate(85.907 68.836)">
          <path id="Path_138115" data-name="Path 138115" d="M2898.813,1497.43q-.949,0-1.947-.024a96.837,96.837,0,0,1-18.485-2.276c-5.368-1.091-8.325-1.692-11.811-.026a2.359,2.359,0,1,1-2.034-4.256c4.912-2.347,9.053-1.505,14.785-.34a92.688,92.688,0,0,0,17.662,2.183c8.873.22,14.3-1.111,17.075-4.186,2.477-2.747,3.206-7.325,2.3-14.408-.308-2.4-.616-4.394-.889-6.154-.763-4.938-1.268-8.2-.645-13.23.581-4.688,2.136-10.943,5.74-23.077a2.359,2.359,0,1,1,4.522,1.343c-6.74,22.7-6.4,24.915-4.955,34.243.276,1.788.59,3.814.906,6.273,1.1,8.551,0,14.324-3.471,18.169C2913.988,1495.625,2908.161,1497.43,2898.813,1497.43Z" transform="translate(-2863.194 -1429.946)" fill="#176a92"/>
        </g>
        <path id="Path_138116" data-name="Path 138116" d="M2381.54,2111.357c-10.761,5.263-16.553,8.279-20,7.991-.815-.068-1.489-.151-2.055-.239-3.838,2.268-9.963,4.948-3.071,5.458,8.108.6,12.013-2.7,17.118-4.2s11.412-2.4,9.01-6.307A8.219,8.219,0,0,1,2381.54,2111.357Z" transform="translate(-2353.291 -1927.719)" fill="#008dd1"/>
        <path id="Path_138117" data-name="Path 138117" d="M2941.875,2055.773c-.263,8.52-1.434,16.962-6.645,18.557a8.757,8.757,0,0,1-3.754.335c-.82,1.013-1.819,1.025-3.162,2.516-2.027,2.252,11.487.676,13.064,0s2.252-13.965,3.941-17.343C2946.708,2057.063,2943.916,2056.415,2941.875,2055.773Z" transform="translate(-2831.265 -1881.499)" fill="#008dd1"/>
        <g id="Group_311152" data-name="Group 311152" transform="translate(18.802 58.929)">
          <path id="Path_138118" data-name="Path 138118" d="M2515.249,1405.591h-34.186a2.359,2.359,0,0,1-2.139-1.365l-13.815-29.732a2.359,2.359,0,1,1,4.278-1.988l13.181,28.367h32.681a2.359,2.359,0,0,1,0,4.717Z" transform="translate(-2464.889 -1371.141)" fill="#60a6df"/>
        </g>
        <path id="Path_138119" data-name="Path 138119" d="M2656.227,1497.8c-6.907-.1-13.758-4.217-17.162-3.617s-14.516,8.309-13.115,8.609,10.211-4.266,10.511-4.335,2.2,3.162,6.908,4.349.033-3.526,14.618.879C2667.471,1506.548,2656.227,1497.8,2656.227,1497.8Z" transform="translate(-2579.913 -1414.473)" fill="#ffbe9d"/>
        <path id="Path_138120" data-name="Path 138120" d="M3025.721,1231.247l1.017,8.178s-8.938.532-13.387,3.035-11.012,9.734-11.012,9.734l5.363-9.233.772-5.906Z" transform="translate(-2892.989 -1195.887)" fill="#f2e5de"/>
        <path id="Path_138121" data-name="Path 138121" d="M2861.565,1289.859c-6.64-1.244-9.711,4.705-14.015,14.416s-11.653,21.5-13.114,23.025-24.627,0-24.627,0-.7,6.707,0,7.508,4.705.7,4.705.7,1.6,1.279,3.1,2.291,14.215,2.914,20.122,2.614,11.312-.8,12.113-1.7,16.919-25.728,17.92-34.637S2864.953,1290.494,2861.565,1289.859Z" transform="translate(-2732.637 -1244.488)" fill="#f2e5de"/>
        <path id="Path_138122" data-name="Path 138122" d="M2949.531,1025.892c-12.556.6-10.587,19.49-10.587,19.49s3.261,1.007,10.093-.119c-.525-2.027-.3-7.208-.3-7.208a47.178,47.178,0,0,0,1.8,6.757c1.445.662,3.078.075,5.856-.6,1.427,6,5.458,8.538,8.218,9.406,3.05.959,6.278,2.1,9.882.3s1.622-20.222-.291-23.926c-2.873-5.56-7.647-10.536-15.906-7.909A61.362,61.362,0,0,0,2949.531,1025.892Z" transform="translate(-2840.182 -1021.366)" fill="#303c60"/>
        <path id="Path_138123" data-name="Path 138123" d="M3131.946,1174.723l5.134,7.5s-5.689,14.216,10.858,20.656c12.959,5.044,11.433,13.931,5.577,22.869s3.5,16.743,3.5,16.743,1.427-9.9,14.019-11.769c17.168-2.548,22.03-25.6,9.206-37.124-10.611-9.537-13.84-1.639-21.023-10.2s-20.742-2.778-20.742-2.778l-4.97-7.248Z" transform="translate(-3000.76 -1147.762)" fill="#303c60"/>
        <g id="Group_311153" data-name="Group 311153" transform="translate(137.307 29.639)">
          <path id="Path_138124" data-name="Path 138124" d="M3216.361,1236.655a.41.41,0,0,1-.36-.608c4.327-7.908.8-17.489-.979-20.085-.187-.274-.365-.552-.554-.846-1.746-2.725-3.918-6.116-15.5-8.2-2.774-.5-5.024-2.151-7.406-3.9-4.94-3.627-10.539-7.736-22.7-2.138a.41.41,0,0,1-.343-.746c12.6-5.8,18.41-1.538,23.532,2.222,2.3,1.691,4.479,3.288,7.065,3.753,11.932,2.148,14.212,5.706,16.044,8.566.185.289.36.561.54.825a22.234,22.234,0,0,1,2.933,8.515,19.993,19.993,0,0,1-1.91,12.428A.412.412,0,0,1,3216.361,1236.655Z" transform="translate(-3168.279 -1197.287)" fill="#303c60"/>
        </g>
        <g id="Group_311154" data-name="Group 311154" transform="translate(115.074 16.83)">
          <path id="Path_138125" data-name="Path 138125" d="M3049.687,1139.029a18.019,18.019,0,0,1-2.659-.214c-4.377-.656-10.248-3.145-10.71-17.13a.41.41,0,0,1,.4-.423.4.4,0,0,1,.424.4c.191,5.789,1.341,10.073,3.417,12.735a9.622,9.622,0,0,0,6.594,3.61c4.087.612,6.8-.146,8.055-2.253a.411.411,0,1,1,.7.421C3054.773,1138.072,3052.685,1139.029,3049.687,1139.029Z" transform="translate(-3036.317 -1121.261)" fill="#303c60"/>
        </g>
      </g>
      <g id="Group_311159" data-name="Group 311159" transform="translate(368.254 324.134)">
        <path id="Path_138126" data-name="Path 138126" d="M635.947,1285.624c-14.574,8.334-34.845,42.975-30.565,48.628s27.253-9.212,27.253-9.212Z" transform="translate(-604.801 -1242.427)" fill="#5096cf"/>
        <path id="Path_138127" data-name="Path 138127" d="M817.568,1032.248c-5.565-.151-3.5-4.288-9.9-2.636-3.365.868-.881,2.252-5.252,1.8s-6.522-.9-7.073,1.952-.818,3.754-2.92,4.2-3.052,4.2,0,6.757,1.568,3.6.892,5.706,1.628,2.253,2.879,4.2-1.152,2.321.65,4.014a6.384,6.384,0,0,0,4.329,1.542l7.586-14.544Z" transform="translate(-759.194 -1029.223)" fill="#303c60"/>
        <path id="Path_138128" data-name="Path 138128" d="M1578.374,2053.085s8.108.225,14.415-2.252,10.586-6.307,9.46-1.8-6.307,12.233-10.811,12.986-6.081,5.708-8.559,5.708-6.081-5.708-12.388-8.561C1564.743,2056.564,1578.374,2053.085,1578.374,2053.085Z" transform="translate(-1406.618 -1875.483)" fill="#2e5b9a"/>
        <path id="Path_138129" data-name="Path 138129" d="M1194.941,2052.325a31.19,31.19,0,0,0,9.345,7.974c6.129,3.378,13.2,5.005,8.816,6.533s-10.8,2.716-17.049.9c-4.386-1.274-9.528-1.541-10.886-3.613s1.6-7.276.368-15.054C1184.549,2042.834,1194.941,2052.325,1194.941,2052.325Z" transform="translate(-1087.084 -1875.483)" fill="#2e5b9a"/>
        <path id="Path_138130" data-name="Path 138130" d="M961.409,1630.224s46.971,17.587,50.755,22.5,53.157,49.7,53.157,53.007-8.409,9.31-8.409,9.31-42.346-25.978-52.857-39.192-36.166-19.585-49.8-20.809S961.409,1630.224,961.409,1630.224Z" transform="translate(-891.522 -1528.969)" fill="#222"/>
        <path id="Path_138131" data-name="Path 138131" d="M840.5,1627.589s32.135-1.2,39.042,0,22.059,1.187,12.148,29.156c-7.768,21.922-10.332,49.677-10.332,49.677l-15.444,3.794s.612-49.908,7.982-63.2a247.7,247.7,0,0,0-28.871,6.515c-25.327,7.243-39.214,3.616-39.214,3.616l-3.771-13.215Z" transform="translate(-768.812 -1526.334)" fill="#222"/>
        <path id="Path_138132" data-name="Path 138132" d="M832.278,1137.762l-7.852,23.2,9.92,6.532,5.621-20.046Z" transform="translate(-787.424 -1119.476)" fill="#ffbe9d"/>
        <path id="Path_138133" data-name="Path 138133" d="M859.81,1164.329l4.734-16.882-7.689-9.685-2.872,8.486A48.324,48.324,0,0,0,859.81,1164.329Z" transform="translate(-812.001 -1119.476)" fill="#f1af8e"/>
        <path id="Path_138134" data-name="Path 138134" d="M891.06,1102.6c.255,7.056-3.211,13.163-8.72,13.706s-10.536-4.713-11.229-11.739,3.211-13.163,8.72-13.706S890.658,1091.463,891.06,1102.6Z" transform="translate(-826.177 -1080.384)" fill="#ffbe9d"/>
        <path id="Path_138135" data-name="Path 138135" d="M736.42,1271.449c-24.1,16.277-9.111,42.58-3.819,61.8,4.508,16.371,4.361,26.265,5.036,26.265s17.251-2.478,26.711-11.036A144.957,144.957,0,0,0,780.2,1331.63s-12.12-2.159-16.081-17.837c-2.011-7.96-1.1-12.281-5.681-24.894S736.42,1271.449,736.42,1271.449Z" transform="translate(-703.19 -1230.64)" fill="#60a6df"/>
        <path id="Path_138136" data-name="Path 138136" d="M802.043,1240.275l2.581-6.316s8.184,5.406,11.45,7.959a18.4,18.4,0,0,0,5.281,3.153s1.18,9.054.414,8.233C812.109,1242.951,802.043,1240.275,802.043,1240.275Z" transform="translate(-768.812 -1199.466)" fill="#5096cf"/>
        <g id="Group_311157" data-name="Group 311157" transform="translate(17.576 76.281)">
          <path id="Path_138137" data-name="Path 138137" d="M738.642,1879.455h2.1l15.091-62.961h-4.63Z" transform="translate(-733.669 -1760.139)" fill="#176a92"/>
          <path id="Path_138138" data-name="Path 138138" d="M1016.963,1868.469h-2.1l-17.316-65.186h4.63Z" transform="translate(-948.95 -1749.153)" fill="#176a92"/>
          <g id="Group_311156" data-name="Group 311156">
            <path id="Path_138139" data-name="Path 138139" d="M737.538,1540.708c-8.43,0-13.771-1.514-17.179-4.834-4.225-4.116-5.1-10.491-5.112-18.8-.027-17.462-.992-21.073-5.909-31.736a2.359,2.359,0,0,1,4.284-1.975c5.2,11.271,6.314,15.415,6.342,33.7.013,8.418,1.081,12.887,3.686,15.425,2.673,2.6,7.5,3.677,15.665,3.473a92.7,92.7,0,0,0,17.662-2.183c5.732-1.165,9.874-2.007,14.785.34a2.359,2.359,0,1,1-2.034,4.256c-3.486-1.665-6.443-1.065-11.812.026a96.821,96.821,0,0,1-18.485,2.276Q738.46,1540.708,737.538,1540.708Z" transform="translate(-709.122 -1481.994)" fill="#176a92"/>
          </g>
        </g>
        <g id="Group_311158" data-name="Group 311158" transform="translate(113.588 57.333)">
          <path id="Path_138140" data-name="Path 138140" d="M1315.549,1403.974h-34.186a2.359,2.359,0,1,1,0-4.717h32.681l13.181-28.367a2.359,2.359,0,0,1,4.278,1.988l-13.815,29.732A2.358,2.358,0,0,1,1315.549,1403.974Z" transform="translate(-1279.005 -1369.524)" fill="#3e6bab"/>
        </g>
        <path id="Path_138141" data-name="Path 138141" d="M807.34,1300.156s6.007,18.32,13.44,25.9,22.392,10.131,27.076,9.833c-3.734-1.5-10.844-5.773-13.7-17.091-2.011-7.96-1.1-12.281-5.68-24.894-3.4-9.363-13.888-14.44-19.066-16.435,6.463,4.642,14.544,12.287,17.028,18.1C829.189,1302.033,807.34,1300.156,807.34,1300.156Z" transform="translate(-773.217 -1235.648)" fill="#60a6df"/>
        <path id="Path_138142" data-name="Path 138142" d="M1279.938,1486.275s10.361-4.73,11.487-4.279,12.613,7.386,12.613,8.536-10.136-4.283-10.136-4.283,1.126,3,.451,4.443-8.467,1.44-15.5.99S1279.938,1486.275,1279.938,1486.275Z" transform="translate(-1162.912 -1405.689)" fill="#a86b48"/>
        <path id="Path_138143" data-name="Path 138143" d="M800.88,1322.781c-9.551,19.575,23.211,39.418,42.647,41.183s42.529-4.6,42.529-4.6l-2.6-6.354s-38.939-5.082-39.925-5.794S804.377,1315.612,800.88,1322.781Z" transform="translate(-766.425 -1272.427)" fill="#60a6df"/>
        <path id="Path_138144" data-name="Path 138144" d="M850.924,1125.826c.885,2.328.236,4.735-1.45,5.376s-3.77-.726-4.655-3.054-.236-4.735,1.45-5.376S850.039,1123.5,850.924,1125.826Z" transform="translate(-804.052 -1106.88)" fill="#ffbe9d"/>
        <path id="Path_138145" data-name="Path 138145" d="M883.316,1042.146c2.639-1.1,5.611-2.281,4.691,2.2-.4,1.952,0,1.4.7,3.2s-1.766,3.217-2.567,4.218,1.166,2.089-.436,3.29-3.714-.445-5.206,0c-4.455,1.33-3.9-2.174-6.407-2.9s-3.729-.616-4.2.985,1.752,6.873-.15,6.373-2.33,3.754-2.842,6.156-1.817-1.658-1.732-4.406c.129-4.215-.917-5.986-2.47-7.165s-2.214-11.9,5.294-12.3,7.556-1.125,10.759-1.8S882.113,1042.648,883.316,1042.146Z" transform="translate(-818.42 -1038.103)" fill="#303c60"/>
      </g>
      <g id="Group_311160" data-name="Group 311160" transform="translate(820.573 431.472)">
        <path id="Path_138146" data-name="Path 138146" d="M3463.831,1780.1c4.787,4.371,2.706,8.742-.833,16.859s-4.163,38.09-4.163,38.09l2.914-.417s-.417-30.8,3.538-39.131,5.62-12.489,9.158-9.783S3463.831,1780.1,3463.831,1780.1Z" transform="translate(-3430.388 -1760.933)" fill="#3387cb"/>
        <path id="Path_138147" data-name="Path 138147" d="M3471.6,1679.84c.582-2.591,4.034-5.393,8.652-7.771-.687,3.821-2.887,10.068-.61,11.349,3.072,1.728.3-6.994,1.485-11.788a57.046,57.046,0,0,1,14.354-4.708c-.007.018-.012.035-.02.053-2.706,6.869-6.244,9.575-4.787,10.615,1.1.783,4.667-7.151,9.381-11.219,3.539-.188,6.532.291,8.3,1.693,2.737,2.167,4.575,4.09,1.821,10.689a12.366,12.366,0,0,1-5.977,2.166c-6.244.625-9.158.833-4.787,2.914,2.14,1.019,5.728-.057,8.637-.714-.943,1.739-2.1,3.707-3.513,5.949a22.106,22.106,0,0,1-2.926,3.723,9.238,9.238,0,0,1-4.7-.008c-2.914-1.249-10.407-5.2-12.28-3.538-1.834,1.63,13.877,2.662,12.789,6.8-7.615,4.387-16.33,2.3-17.869-1.729C3477.487,1688.911,3469.849,1687.638,3471.6,1679.84Z" transform="translate(-3440.787 -1666.332)" fill="#60a6df"/>
        <path id="Path_138148" data-name="Path 138148" d="M3450.038,1909.028c-8.326-6.244-16.86-.417-21.231,6.244s-1.249,21.647-1.249,21.647,1.665,0,1.665-.625-4.579-17.692,6.245-25.393c6.771-4.818,11.656-2.5,12.281-.208s-2.706,6.453-2.706,6.453Z" transform="translate(-3403.483 -1865.924)" fill="#3387cb"/>
        <path id="Path_138149" data-name="Path 138149" d="M3450.831,1845.989c8.326,0,11.032,12.9,8.742,20.4s-5.412,21.439-5.412,21.439l-2.081-2.082s7.909-19.565,6.036-28.307-6.452-10.2-7.285-10.2S3450.831,1845.989,3450.831,1845.989Z" transform="translate(-3423.425 -1815.721)" fill="#3387cb"/>
        <path id="Path_138150" data-name="Path 138150" d="M3483.792,1958.317a6.034,6.034,0,0,1,2.191-1.842,16.374,16.374,0,0,1-.432,1.784c-1.043,3.414-2.259,8.167-3.274,12.331-.093-.533-.235-1.354-.454-2.623-.052-.3-.092-.624-.121-.968A80.7,80.7,0,0,0,3483.792,1958.317Z" transform="translate(-3449.403 -1907.593)" fill="#60a6df"/>
        <path id="Path_138151" data-name="Path 138151" d="M3486.37,1909.856c15.819-6.661,7.485-15.8,21.43-9.765a2.427,2.427,0,1,1-1.04,3.33c-4.163-.624-2.706,2.706,4.162,3.538a15.428,15.428,0,0,1,3.219.679c3.272,6.285,4.747,14.555-2.178,17.429a15.684,15.684,0,0,1-4.928,1.011c-2.137-1.7.521-11.526-2.773-10.17-3.163,1.3.991,8.425.422,10.219a45.619,45.619,0,0,1-9.882-1.385,4.917,4.917,0,0,1-2.613-3.006c-1.041-4.371,5.828-7.077,6.036-10.823.191-3.444-2.518,7.578-9.694,9.2C3482.042,1917.083,3478.976,1912.969,3486.37,1909.856Z" transform="translate(-3449.705 -1859.069)" fill="#60a6df"/>
        <path id="Path_138152" data-name="Path 138152" d="M3315.384,1823.4c1.665-3.539-2.706-4.371-2.5-1.665.185,2.4.2,8.226-2.254,9.813a38.579,38.579,0,0,1-14.373-4.773,1.771,1.771,0,0,1,.184-1.085c1.873-3.747,13.946-6.869,10.2-8.118-2.984-.994-8.212,4.876-12.426,7.833-2.531-1.92-4.226-4.209-4.226-6.763,0-3.458,4.2-7.372,9.635-9.243,2.446.247,4.717,1.584,8.265,3.594,5.242,2.97,4.03-1.832-.926-4.682a14.926,14.926,0,0,1,11.689,6.416s-.3,1.867,1.678,4.754c5.389,7.877-.83,12.475-8.265,12.177C3312.487,1829.585,3314.233,1825.849,3315.384,1823.4Z" transform="translate(-3289.99 -1784.394)" fill="#60a6df"/>
        <path id="Path_138153" data-name="Path 138153" d="M3554.156,1919.82c4.07,3.145,8.592,6.823,14.143,9.321s4.44,10.639,4.44,10.639.833-7.031-3.793-9.436-7.678-5.273-11.194-5.828a50.924,50.924,0,0,1-5.458-1.11s1.11-2.22.462-3.053S3554.156,1919.82,3554.156,1919.82Z" transform="translate(-3508.102 -1877.069)" fill="#3387cb"/>
        <path id="Path_138154" data-name="Path 138154" d="M3534.952,1700.848c-14.9,3.978-25.811,13.507-27.846,15.82s-2.035,2.96-2.035,2.96l1.573,2.96.74-.37s-1.2-2.5,1.943-5.736a56.925,56.925,0,0,1,16.56-11.934C3530.418,1702.606,3534.952,1700.848,3534.952,1700.848Z" transform="translate(-3468.834 -1695.033)" fill="#3387cb"/>
        <path id="Rectangle_163310" data-name="Rectangle 163310" d="M10.172,0h0A10.172,10.172,0,0,1,20.344,10.172V20.4a0,0,0,0,1,0,0H0a0,0,0,0,1,0,0V10.172A10.172,10.172,0,0,1,10.172,0Z" transform="translate(38.021 88.259) rotate(180)" fill="#176a92"/>
        <rect id="Rectangle_163311" data-name="Rectangle 163311" width="20.344" height="1.432" transform="translate(17.677 70.195)" fill="#fff"/>
        <rect id="Rectangle_163312" data-name="Rectangle 163312" width="20.344" height="0.842" transform="translate(17.677 72.807)" fill="#fff"/>
      </g>
      <g id="Group_311176" data-name="Group 311176" transform="translate(321.327 198.167)">
        <g id="Group_311163" data-name="Group 311163" transform="translate(241.669 1)">
          <path id="Path_138155" data-name="Path 138155" d="M1728.14,309.683a28.139,28.139,0,1,0-48.829,19.069,12.763,12.763,0,0,1,3.381,8.653v12.614a14.881,14.881,0,0,0,14.837,14.837h4.946a14.881,14.881,0,0,0,14.837-14.837V337.406a12.9,12.9,0,0,1,3.432-8.71A28.036,28.036,0,0,0,1728.14,309.683Z" transform="translate(-1671.863 -281.544)" fill="#60a6df"/>
          <path id="Path_138156" data-name="Path 138156" d="M1743.61,340.293A24.208,24.208,0,1,0,1701.6,356.7a10.982,10.982,0,0,1,2.908,7.444v10.851a12.8,12.8,0,0,0,12.764,12.764h4.255a12.8,12.8,0,0,0,12.764-12.764v-10.85a11.1,11.1,0,0,1,2.953-7.494A24.118,24.118,0,0,0,1743.61,340.293Z" transform="translate(-1691.263 -310.266)" fill="#fff" opacity="0.5"/>
          <g id="Group_311161" data-name="Group 311161" transform="translate(12.052 35.52)">
            <path id="Path_138157" data-name="Path 138157" d="M1763.643,517.775h-9.266a.842.842,0,0,1-.839-.766c-.017-.18-1.746-18.068-9.745-23.077a.842.842,0,0,1,.894-1.428c7.8,4.886,10.02,19.959,10.447,23.586h7.618a27.6,27.6,0,0,1,.759-6.755,37.1,37.1,0,0,1,9.063-16.687.842.842,0,1,1,1.241,1.14c-10.517,11.449-9.347,22.935-9.334,23.049a.842.842,0,0,1-.837.938Z" transform="translate(-1743.398 -492.375)" fill="#60a6df"/>
          </g>
          <g id="Group_311162" data-name="Group 311162" transform="translate(11.011 26.893)">
            <path id="Path_138158" data-name="Path 138158" d="M1765.443,452.507c-3.128,0-7.393-2.223-11.886-4.632-5.8,3.09-11.22,5.861-14.253,4.022-1.425-.864-2.107-2.555-2.084-5.17.022-2.462.728-4.121,2.1-4.932,3.039-1.8,8.468,1.071,14.241,4.17,5.888-3.14,11.431-6.063,14.459-4.22,1.36.828,2.033,2.51,2,5-.033,2.592-.778,4.335-2.214,5.181A4.573,4.573,0,0,1,1765.443,452.507Zm-10.1-5.585c4.626,2.459,9.466,4.813,11.6,3.554.894-.527,1.36-1.789,1.385-3.751.024-1.853-.377-3.044-1.192-3.54C1765.078,441.926,1760.062,444.421,1755.348,446.922Zm-13.753-4.006a2.753,2.753,0,0,0-1.418.329c-.828.49-1.255,1.667-1.272,3.5-.017,1.943.41,3.192,1.272,3.714,2.078,1.26,6.934-1.082,11.592-3.54C1748,444.908,1744.052,442.915,1741.6,442.915Z" transform="translate(-1737.22 -441.171)" fill="#60a6df"/>
          </g>
          <rect id="Rectangle_163313" data-name="Rectangle 163313" width="12.299" height="7.413" rx="3.706" transform="translate(22.273 79.901)" fill="#94bdf2"/>
          <path id="Path_138159" data-name="Path 138159" d="M1731.28,634.135v8.922a15.583,15.583,0,0,0,15.538,15.538H1752a15.584,15.584,0,0,0,15.538-15.538v-8.922Z" transform="translate(-1721.27 -574.732)" fill="#b0d2ef"/>
          <rect id="Rectangle_163314" data-name="Rectangle 163314" width="39.536" height="4.268" rx="2.134" transform="translate(8.598 57.943)" fill="#60a6df"/>
          <path id="Path_138160" data-name="Path 138160" d="M1761.133,648.811l-35.225,4.351a2.028,2.028,0,0,1-2.254-1.759l-.028-.223a2.028,2.028,0,0,1,1.759-2.254l35.225-4.351a2.027,2.027,0,0,1,2.254,1.759l.027.223A2.028,2.028,0,0,1,1761.133,648.811Z" transform="translate(-1714.893 -583.4)" fill="#60a6df"/>
          <path id="Path_138161" data-name="Path 138161" d="M1761.133,685.4l-35.225,4.351a2.027,2.027,0,0,1-2.254-1.759l-.028-.223a2.028,2.028,0,0,1,1.759-2.254l35.225-4.351a2.027,2.027,0,0,1,2.254,1.759l.027.223A2.027,2.027,0,0,1,1761.133,685.4Z" transform="translate(-1714.893 -613.827)" fill="#60a6df"/>
          <path id="Path_138162" data-name="Path 138162" d="M1778.009,724.567l-29.338,3.624a1.861,1.861,0,0,1-2.069-1.614l-.068-.553a1.861,1.861,0,0,1,1.614-2.069l29.337-3.624a1.861,1.861,0,0,1,2.069,1.614l.068.553A1.861,1.861,0,0,1,1778.009,724.567Z" transform="translate(-1733.942 -646.394)" fill="#60a6df"/>
        </g>
        <g id="Group_311165" data-name="Group 311165" transform="translate(505.789 64.614)">
          <path id="Path_138163" data-name="Path 138163" d="M3347.735,699.688h18.909a18.909,18.909,0,1,1-18.909-18.909Z" transform="translate(-3328.826 -678.131)" fill="#60a6df"/>
          <g id="Group_311164" data-name="Group 311164" transform="translate(3.167)">
            <path id="Path_138164" data-name="Path 138164" d="M3478.768,683.973a18.909,18.909,0,0,0-18.909-18.909v18.909Z" transform="translate(-3440.95 -665.064)" fill="#176a92"/>
            <path id="Path_138165" data-name="Path 138165" d="M3347.623,777.3a18.909,18.909,0,0,0,18.909,18.909A19,19,0,0,1,3347.623,777.3Z" transform="translate(-3347.623 -758.391)" fill="#176a92"/>
            <path id="Path_138166" data-name="Path 138166" d="M3366.532,665.064a18.909,18.909,0,0,0-18.909,18.909A19,19,0,0,1,3366.532,665.064Z" transform="translate(-3347.623 -665.064)" fill="#176a92"/>
            <path id="Path_138167" data-name="Path 138167" d="M3459.859,796.209a18.909,18.909,0,0,0,18.909-18.909A19,19,0,0,1,3459.859,796.209Z" transform="translate(-3440.95 -758.391)" fill="#176a92"/>
          </g>
        </g>
        <g id="Group_311166" data-name="Group 311166" transform="translate(154.67 57.654)">
          <rect id="Rectangle_163315" data-name="Rectangle 163315" width="4.13" height="11.95" transform="translate(0 16.01)" fill="#60a6df"/>
          <rect id="Rectangle_163316" data-name="Rectangle 163316" width="4.13" height="8.062" transform="translate(52.935 19.897)" fill="#60a6df"/>
          <rect id="Rectangle_163317" data-name="Rectangle 163317" width="4.13" height="27.959" transform="translate(17.502)" fill="#60a6df"/>
          <rect id="Rectangle_163318" data-name="Rectangle 163318" width="4.13" height="12.567" transform="translate(26.254 15.392)" fill="#60a6df"/>
          <rect id="Rectangle_163319" data-name="Rectangle 163319" width="4.13" height="16.124" transform="translate(35.005 11.835)" fill="#60a6df"/>
          <rect id="Rectangle_163320" data-name="Rectangle 163320" width="4.13" height="19.84" transform="translate(8.751 8.12)" fill="#60a6df"/>
          <rect id="Rectangle_163321" data-name="Rectangle 163321" width="4.13" height="24.436" transform="translate(43.785 3.524)" fill="#60a6df"/>
        </g>
        <g id="Group_311168" data-name="Group 311168" transform="translate(0 13.755)">
          <g id="Group_311167" data-name="Group 311167" clip-path="url(#clip-path)">
            <path id="Path_138168" data-name="Path 138168" d="M464.886,518.668l-21.658-13.244-3.918,25.083A25.415,25.415,0,0,0,464.886,518.668Z" transform="translate(-419.264 -481.461)" fill="#a2dff2"/>
            <path id="Path_138169" data-name="Path 138169" d="M484.245,459.419c.058-.1.135-.227.132-.222a25.389,25.389,0,0,0,.562-24.991c-7.665,4.015-3.1,1.576-22.375,12C484.258,459.471,480.889,457.425,484.245,459.419Z" transform="translate(-438.6 -422.241)" fill="#008dd1"/>
            <path id="Path_138170" data-name="Path 138170" d="M321.248,371.487l23.808,8.773,22.334-12.077C356.943,348.863,328.823,351.18,321.248,371.487Z" transform="translate(-321.093 -356.296)" fill="#9ec8ff"/>
            <path id="Path_138171" data-name="Path 138171" d="M333.261,487.209l3.918-25.083-23.808-8.773C307.708,468.531,317.757,484.765,333.261,487.209Z" transform="translate(-313.215 -438.162)" fill="#176a92"/>
            <path id="Path_138172" data-name="Path 138172" d="M309.731,418.686a2.442,2.442,0,0,1,1.2.311,24.269,24.269,0,0,1,.865-3.378l12.928,4.763s0-.008,0-.012a2.3,2.3,0,0,1,.562-1.577l-1.294-.477-11.606-4.277a24.872,24.872,0,0,1,3.739-6.288,2.516,2.516,0,0,1-1.291-1.084,26.59,26.59,0,0,0-4.029,6.79l-.014-.005-.293.786-.3.793.014.005a25.983,25.983,0,0,0-.947,3.7A2.336,2.336,0,0,1,309.731,418.686Z" transform="translate(-311.134 -399.343)" fill="#fff"/>
            <path id="Path_138173" data-name="Path 138173" d="M356.556,364.372l.014-.008-.4-.741-.025-.044-.327-.61-.013.007a25.922,25.922,0,0,0-10.465-10.151A26.632,26.632,0,0,0,316.247,356a2.6,2.6,0,0,1,1.071,1.3,24.6,24.6,0,0,1,14.183-5.66,24.165,24.165,0,0,1,22.774,12.046l-6.6,3.567c-1.362.733-3.266,1.763-6.453,3.487l-7.9,4.275-.2.11-.663-.406-.036.231-4.645-1.712a2.323,2.323,0,0,1-.621,1.567l5,1.843-3.679,23.554a24.7,24.7,0,0,1-19.93-23.821,2.411,2.411,0,0,1-.819.15,2.456,2.456,0,0,1-.866-.158,26.384,26.384,0,0,0,21.355,25.494l0,.014.83.131.834.131,0-.015a26.253,26.253,0,0,0,25.163-11.678l.017.01.165-.27s.269-.441.269-.441c.041-.067.091-.151.119-.2l.018-.03.013-.023.267-.436-.012-.007A26.332,26.332,0,0,0,356.556,364.372Zm-26.415,36.1,3.591-22.991,9.345,5.715c3.767,2.3,5.923,3.623,7.28,4.45l3.226,1.973A24.447,24.447,0,0,1,330.141,400.469Zm24.336-12.311-.161-.094c-.885-.524-1.269-.752-3.033-1.827l-16.5-10.091,13.7-7.407c2.012-1.082,2.836-1.513,4.879-2.582l1.75-.915A24.644,24.644,0,0,1,354.477,388.158Z" transform="translate(-309.131 -352.137)" fill="#e7f3fe"/>
          </g>
        </g>
        <g id="Group_311170" data-name="Group 311170" transform="translate(90.616 9.553)">
          <path id="Rectangle_163322" data-name="Rectangle 163322" d="M5,0H64.427A8.17,8.17,0,0,1,72.6,8.17V24.638a8.17,8.17,0,0,1-8.17,8.17H8.169A8.169,8.169,0,0,1,0,24.639V5A5,5,0,0,1,5,0Z" fill="#9ec8ff"/>
          <rect id="Rectangle_163323" data-name="Rectangle 163323" width="65.627" height="27.649" rx="5" transform="translate(2.985 2.62)" fill="#fff"/>
          <path id="Path_138174" data-name="Path 138174" d="M1082.223,408.152h-36.3a1.086,1.086,0,1,1,0-2.172h36.3a1.086,1.086,0,0,1,0,2.172Z" transform="translate(-1016.403 -397.568)" fill="#9ec8ff"/>
          <path id="Path_138175" data-name="Path 138175" d="M920.166,507.6h-36.3a1.086,1.086,0,1,1,0-2.172h36.3a1.086,1.086,0,0,1,0,2.172Z" transform="translate(-877.649 -483.258)" fill="#9ec8ff"/>
          <rect id="Rectangle_163327" data-name="Rectangle 163327" width="4.499" height="2.172" rx="1.086" transform="translate(45.077 22.166)" fill="#9ec8ff"/>
          <rect id="Rectangle_163328" data-name="Rectangle 163328" width="4.499" height="2.172" rx="1.086" transform="translate(50.739 22.166)" fill="#9ec8ff"/>
          <path id="Path_138176" data-name="Path 138176" d="M968.49,439.681H908.378a.737.737,0,0,1,0-1.474H968.49a.737.737,0,0,1,0,1.474Z" transform="translate(-902.322 -424.366)" fill="#9ec8ff"/>
          <path id="Path_138177" data-name="Path 138177" d="M968.49,458.557H908.378a.737.737,0,0,1,0-1.474H968.49a.737.737,0,0,1,0,1.474Z" transform="translate(-902.322 -440.061)" fill="#9ec8ff"/>
        </g>
        <g id="Group_311171" data-name="Group 311171" transform="translate(309.106 3.402)">
          <path id="Path_138178" data-name="Path 138178" d="M2192.233,319.8h-31V301.736h23.313l7.686,7.686Z" transform="translate(-2161.233 -301.736)" fill="#a7d3f6"/>
          <path id="Path_138179" data-name="Path 138179" d="M2296.233,301.736v9.644h8.255v-1.853l-7.739-7.739Z" transform="translate(-2273.489 -301.736)" fill="#4e95cf"/>
          <path id="Path_138180" data-name="Path 138180" d="M2299.611,301.736v7.791h7.686Z" transform="translate(-2276.298 -301.736)" fill="#a7d3f6"/>
          <path id="Path_138181" data-name="Path 138181" d="M2193.1,336.575h-13.815a.548.548,0,1,1,0-1.1H2193.1a.548.548,0,1,1,0,1.1Z" transform="translate(-2175.784 -329.795)" fill="#fff"/>
          <path id="Path_138182" data-name="Path 138182" d="M2193.1,353.2h-13.815a.548.548,0,1,1,0-1.1H2193.1a.548.548,0,1,1,0,1.1Z" transform="translate(-2175.784 -343.621)" fill="#fff"/>
          <path id="Path_138183" data-name="Path 138183" d="M2193.1,370.7h-13.815a.548.548,0,1,1,0-1.1H2193.1a.548.548,0,1,1,0,1.1Z" transform="translate(-2175.784 -358.173)" fill="#fff"/>
        </g>
        <circle id="Ellipse_4716" data-name="Ellipse 4716" cx="0.927" cy="0.927" r="0.927" transform="translate(322.753 3.864)" fill="#4e95cf"/>
        <rect id="Rectangle_163329" data-name="Rectangle 163329" width="19.702" height="23.756" transform="translate(187.483 0.548) rotate(10.935)" fill="#a7d3f6"/>
        <path id="Path_138184" data-name="Path 138184" d="M1477.111,352.107l-10.256-1.981a.505.505,0,1,1,.192-.993l10.256,1.982a.505.505,0,1,1-.192.992Z" transform="translate(-1274.377 -337.738)" fill="#60a6df"/>
        <path id="Path_138185" data-name="Path 138185" d="M1474.171,367.325l-10.256-1.982a.505.505,0,0,1,.192-.992l10.256,1.982a.505.505,0,0,1-.192.993Z" transform="translate(-1271.933 -350.392)" fill="#60a6df"/>
        <path id="Path_138186" data-name="Path 138186" d="M1471.15,382.962l-10.256-1.982a.505.505,0,0,1,.192-.993l10.256,1.982a.505.505,0,1,1-.192.992Z" transform="translate(-1269.42 -363.395)" fill="#60a6df"/>
        <path id="Path_138187" data-name="Path 138187" d="M1480.3,298.413a.842.842,0,1,1-.667-.987A.843.843,0,0,1,1480.3,298.413Z" transform="translate(-1284.511 -294.738)" fill="#60a6df"/>
        <path id="Path_138188" data-name="Path 138188" d="M2282.394,450.847l-29.938-3.154,1.977-18.766,23.737,2.5,5.548,6.854Z" transform="translate(-1927.983 -404.097)" fill="#a7d3f6"/>
        <path id="Path_138189" data-name="Path 138189" d="M2284.347,440.132l-22.284-2.347-1.667,15.833,27.7,2.918.977-9.271-5.42-.571Z" transform="translate(-1934.585 -411.462)" fill="#fff"/>
        <path id="Path_138190" data-name="Path 138190" d="M2310.715,472.4l-14.435-1.52a.6.6,0,0,1,.127-1.2l14.435,1.521a.6.6,0,0,1-.127,1.2Z" transform="translate(-1963.973 -437.979)" fill="#9ec8ff"/>
        <path id="Path_138191" data-name="Path 138191" d="M2308.726,491.284l-14.436-1.521a.6.6,0,0,1,.127-1.2l14.435,1.52a.6.6,0,0,1-.126,1.2Z" transform="translate(-1962.319 -453.68)" fill="#9ec8ff"/>
        <path id="Path_138192" data-name="Path 138192" d="M2306.649,511l-14.435-1.521a.6.6,0,1,1,.127-1.2l14.435,1.521a.6.6,0,0,1-.127,1.2Z" transform="translate(-1960.592 -470.072)" fill="#9ec8ff"/>
        <circle id="Ellipse_4717" data-name="Ellipse 4717" cx="0.927" cy="0.927" r="0.927" transform="translate(336.727 28.237)" fill="#4e95cf"/>
        <g id="Group_311173" data-name="Group 311173" transform="translate(482.461 4.191)">
          <path id="Path_138193" data-name="Path 138193" d="M3211.03,316.755a10.336,10.336,0,1,1-10.335-10.336A10.336,10.336,0,0,1,3211.03,316.755Z" transform="translate(-3190.359 -306.419)" fill="#4e95cf"/>
          <g id="Group_311172" data-name="Group 311172" transform="translate(5.997 6.993)">
            <path id="Path_138194" data-name="Path 138194" d="M3229.269,354.806h-.019a.506.506,0,0,1-.361-.171l-2.807-3.19a.505.505,0,0,1,.759-.668l2.455,2.79,5.617-5.5a.505.505,0,1,1,.707.722l-6,5.87A.506.506,0,0,1,3229.269,354.806Z" transform="translate(-3225.956 -347.925)" fill="#fff"/>
          </g>
        </g>
        <g id="Group_311174" data-name="Group 311174" transform="translate(24.391 83.63)">
          <rect id="Rectangle_163330" data-name="Rectangle 163330" width="65.144" height="26.845" rx="8" transform="translate(65.144 26.845) rotate(180)" fill="#9ec8ff"/>
          <path id="Path_138195" data-name="Path 138195" d="M726.767,902.094v14.811L709.7,899.838S726.42,902.094,726.767,902.094Z" transform="translate(-669.491 -879.3)" fill="#9ec8ff"/>
          <rect id="Rectangle_163331" data-name="Rectangle 163331" width="58.405" height="21.522" rx="8" transform="translate(61.775 24.183) rotate(180)" fill="#fff"/>
          <path id="Path_138196" data-name="Path 138196" d="M643.208,813.9H669.59a1.157,1.157,0,0,0,0-2.314H643.208a1.157,1.157,0,0,0,0,2.314Z" transform="translate(-613.239 -802.914)" fill="#9ec8ff"/>
          <rect id="Rectangle_163332" data-name="Rectangle 163332" width="50.218" height="1.3" rx="0.65" transform="translate(57.507 15.408) rotate(180)" fill="#9ec8ff"/>
          <rect id="Rectangle_163333" data-name="Rectangle 163333" width="50.218" height="1.3" rx="0.65" transform="translate(57.507 18.926) rotate(180)" fill="#9ec8ff"/>
        </g>
        <g id="Group_311175" data-name="Group 311175" transform="translate(446.59 86.758)">
          <rect id="Rectangle_163334" data-name="Rectangle 163334" width="5.511" height="4.96" rx="2.48" transform="translate(25.553 4.96) rotate(180)" fill="#60a6df"/>
          <path id="Rectangle_163335" data-name="Rectangle 163335" d="M2.48,0h.552a2.48,2.48,0,0,1,2.48,2.48v0a2.48,2.48,0,0,1-2.48,2.48H2.48A2.48,2.48,0,0,1,0,2.48v0A2.48,2.48,0,0,1,2.48,0Z" transform="translate(15.532 4.96) rotate(180)" fill="#60a6df"/>
          <rect id="Rectangle_163336" data-name="Rectangle 163336" width="5.512" height="4.96" rx="2.48" transform="translate(5.512 4.96) rotate(180)" fill="#60a6df"/>
        </g>
      </g>
    </g>
    <rect id="Rectangle_163157" data-name="Rectangle 163157" width="559.853" height="0.928" transform="translate(818 514)" fill="#49263e"/>
  </g>
</svg>
