<svg xmlns="http://www.w3.org/2000/svg" xmlns:xlink="http://www.w3.org/1999/xlink" width="443.455" height="313.74" viewBox="0 0 443.455 313.74">
  <defs>
    <linearGradient id="linear-gradient" y1="0.5" x2="1" y2="0.5" gradientUnits="objectBoundingBox">
      <stop offset="0" stop-color="#f7be86"/>
      <stop offset="0.329" stop-color="#f7bc83"/>
      <stop offset="0.545" stop-color="#f7b67a"/>
      <stop offset="0.728" stop-color="#f7ac6b"/>
      <stop offset="0.891" stop-color="#f79e56"/>
      <stop offset="1" stop-color="#f79244"/>
    </linearGradient>
    <linearGradient id="linear-gradient-3" x1="0.504" y1="1.047" x2="0.5" y2="0.41" gradientUnits="objectBoundingBox">
      <stop offset="0" stop-color="#f9e6d9"/>
      <stop offset="0.121" stop-color="#fbf1ea"/>
      <stop offset="0.27" stop-color="#fdf9f6"/>
      <stop offset="0.475" stop-color="#fefdfd"/>
      <stop offset="1" stop-color="#fff"/>
    </linearGradient>
    <linearGradient id="linear-gradient-4" x1="-13.527" y1="1.041" x2="-13.533" y2="0.411" xlink:href="#linear-gradient-3"/>
  </defs>
  <g id="support" transform="translate(-109.258 -51.887)">
    <g id="Group_184353" data-name="Group 184353" transform="translate(109.258 51.887)">
      <path id="Path_93826" data-name="Path 93826" d="M532.2,336l-.6-.341H141.733c-13.3-8.876-23.744-22.852-29.106-38.958-2.986-8.971-4.414-18.83-2.5-28.157,5.534-26.938,35.71-40.019,43.4-66.307,4.658-15.924.014-33.154.258-49.885.272-18.188,7.092-36.859,20.406-47.6,26.034-21.015,63.781-5.266,94.144-17.293,20.1-7.966,35.393-27.6,56.015-33.732,17.413-5.171,37.174.784,49.778,15.005,15.748,17.761,20.8,46.694,40.59,58.555,20.277,12.154,50.223,2.233,64.708,22.044,15.188,20.77-1.421,55.816,13.523,76.8,4.874,6.849,12.281,10.761,18.727,15.789C537.737,262.254,546.925,304.822,532.2,336Z" transform="translate(-109.258 -51.887)" fill="#ecf4fc"/>
      <path id="Path_93827" data-name="Path 93827" d="M510.634,335.664H165.224c-11.784-8.876-21.036-22.852-25.786-38.958-2.645-8.971-3.911-18.83-2.213-28.157,4.9-26.938,31.638-40.019,38.448-66.307,4.127-15.924.013-33.154.229-49.885.242-18.188,6.283-36.859,18.08-47.6,23.065-21.015,56.508-5.266,83.408-17.293,17.806-7.966,31.358-27.6,49.628-33.732,15.428-5.171,32.935.784,44.1,15.005,13.952,17.761,18.429,46.694,35.962,58.555,17.965,12.154,44.5,2.233,57.328,22.044,13.457,20.77-1.259,55.816,11.981,76.8,4.318,6.849,10.881,10.761,16.591,15.789C516.071,262.254,523.683,304.482,510.634,335.664Z" transform="translate(-114.919 -51.887)" fill="#cee3f8"/>
      <path id="Path_93828" data-name="Path 93828" d="M150.1,410.271H561.215s-37.95,29.963-209.468,29.963S150.1,410.271,150.1,410.271Z" transform="translate(-117.76 -126.495)" fill="#ecf4fc"/>
    </g>
    <g id="Group_184360" data-name="Group 184360" transform="translate(346.377 122.226)">
      <g id="Group_184354" data-name="Group 184354" transform="translate(57.882 93.953)">
        <path id="Path_93829" data-name="Path 93829" d="M491.541,316.608l4.007.055c4.854.063,9.565.135,13.992-.1,11.917-.641,21.862-3.532,27.5-14.736,3.642-7.229-.491-17.131-3.389-24.82-3.27-8.647-15.274-15.264-15.274-15.264l33.17.58a2.774,2.774,0,0,0,2.78-2.908l0-.03H562.7s19.542-.586,10.785,7.522-9.6,21.355-11.1,34.167-3.207,21.569-3.207,21.569H481.817l.586-6.16Z" transform="translate(-481.817 -259.373)" fill="#3b70a7"/>
        <path id="Path_93830" data-name="Path 93830" d="M546.365,339.275v4.41H509.5v-4.41Z" transform="translate(-487.579 -276.007)" fill="#111023"/>
        <rect id="Rectangle_152047" data-name="Rectangle 152047" width="7.974" height="38.894" transform="translate(36.582 67.679)" fill="#b2b2b2"/>
        <path id="Path_93831" data-name="Path 93831" d="M573.168,414.525c-2.249,1.037-5.266-.689-6.731-3.856-1.346-2.922-.911-6.034.911-7.332a3.017,3.017,0,0,1,.515-.3,4.018,4.018,0,0,1,3.809.443,7.809,7.809,0,0,1,2.93,3.413C576.066,410.067,575.425,413.48,573.168,414.525Z" transform="translate(-499.269 -289.218)" fill="#111023"/>
        <path id="Path_93832" data-name="Path 93832" d="M497.217,414.525c-2.249,1.037-5.266-.689-6.73-3.856s-.831-6.572,1.409-7.625c.008,0,.008-.008.016-.008a4.121,4.121,0,0,1,4.022.578,7.929,7.929,0,0,1,2.708,3.278C500.107,410.067,499.474,413.48,497.217,414.525Z" transform="translate(-483.457 -289.218)" fill="#111023"/>
        <path id="Path_93833" data-name="Path 93833" d="M556.437,401.654a4.019,4.019,0,0,0-3.809-.443,3.023,3.023,0,0,0-.515.3,6.846,6.846,0,0,0-6.018-3.587H527.449v3.84a4.1,4.1,0,0,0-3.983-.554,3.412,3.412,0,0,0-1.006.729v-4.015h-19.78a6.878,6.878,0,0,0-6.168,3.864,4.121,4.121,0,0,0-4.022-.578c-.008,0-.008.008-.016.008a10.8,10.8,0,0,1,8.639-7.134,10.3,10.3,0,0,1,1.568-.119H546.1A10.822,10.822,0,0,1,556.437,401.654Z" transform="translate(-484.036 -287.392)" fill="#111023"/>
        <path id="Path_93834" data-name="Path 93834" d="M536.337,414.526c-2.249,1.037-5.266-.689-6.731-3.856-1.211-2.637-.99-5.432.42-6.9a3.411,3.411,0,0,1,1.006-.728,4.1,4.1,0,0,1,3.983.554,7.92,7.92,0,0,1,2.748,3.3C539.228,410.068,538.594,413.48,536.337,414.526Z" transform="translate(-491.602 -289.218)" fill="#111023"/>
      </g>
      <g id="Group_184355" data-name="Group 184355" transform="translate(0 46.334)">
        <path id="Path_93835" data-name="Path 93835" d="M559.734,256.113h-38.57v-11.1l15.061-1.71,5.646-.641a62.723,62.723,0,0,1-3.627-14.934c-.887-8.512.523-18.054,10.191-20.991a2.213,2.213,0,0,1,.483.269c.6.523,2.732,5.083,5.131,11.529,3.627,9.724,7.879,23.731,8.465,34.642l0,.03A2.774,2.774,0,0,1,559.734,256.113Z" transform="translate(-432.126 -200.796)" fill="#61a0e0"/>
        <path id="Path_93836" data-name="Path 93836" d="M529.691,226.165l-2.019,15.575-15.061,1.71V246s-11.466-1.481-15.163,4.212H487.06v-1.069l.99-9.953s-6.873-4.078-7.855-8.805a5.636,5.636,0,0,1-.111-.958c-.143-5.084,10.927-27.326,11.1-27.666v-.008c3.159-.689,5.487-1.148,5.487-1.148l5.456,8.956.024.04.016-.063,13.453-10.3s13.4,2.787,20.508,4.735a31.452,31.452,0,0,1,3.753,1.2C530.214,208.111,528.8,217.653,529.691,226.165Z" transform="translate(-423.574 -199.235)" fill="#61a0e0"/>
        <path id="Path_93837" data-name="Path 93837" d="M517.177,258.249V266.8h-10.61v-4.339h-4.553C505.712,256.769,517.177,258.249,517.177,258.249Z" transform="translate(-428.14 -211.484)" fill="url(#linear-gradient)"/>
        <path id="Path_93838" data-name="Path 93838" d="M536.329,284.512s-3.175-1.219-20.682,4.015a33.427,33.427,0,0,1-11.885,1.314,41.36,41.36,0,0,1-20.358-7.293l2.922-13.453h42.038A79.763,79.763,0,0,1,536.329,284.512Z" transform="translate(-424.265 -213.778)" fill="#61a0e0"/>
        <path id="Path_93839" data-name="Path 93839" d="M457.6,215.975h2.352l3.983,18.2,4.276,19.518h18.932v4.339H417.111l-8.393-42.062Z" transform="translate(-408.717 -202.72)" fill="#4a4a4a"/>
        <path id="Path_93840" data-name="Path 93840" d="M484.49,203.594c1.429-.4,3.015-.8,4.693-1.169-.174.34-11.244,22.583-11.1,27.666a5.649,5.649,0,0,0,.111.958l-1.4.309-3.983-18.2h-2.352a7.711,7.711,0,0,1,2.174-2.889A27.755,27.755,0,0,1,484.49,203.594Z" transform="translate(-421.57 -199.899)" fill="#61a0e0"/>
      </g>
      <g id="Group_184356" data-name="Group 184356" transform="translate(21.926 115.104)">
        <path id="Path_93841" data-name="Path 93841" d="M539.515,311.187c-3.239,5.083-8.67,8.48-14.427,10.262s-11.861,2.082-17.887,2.043c-1.465-.008-2.922-.04-4.387-.1,2.851-6.572,4.331-19.083,4.989-29.535a33.426,33.426,0,0,0,11.885-1.314c17.507-5.234,20.682-4.015,20.682-4.015q.345.915.665,1.853c.388,1.14.744,2.3,1.061,3.476.008.032.016.071.024.1A22.86,22.86,0,0,1,539.515,311.187Z" transform="translate(-450.232 -286.569)" fill="#0572a8"/>
        <path id="Path_93842" data-name="Path 93842" d="M498.355,293.378c-.657,10.452-2.138,22.963-4.989,29.535q-3.741-.119-7.475-.428c-1.251-6.825-5.179-19.637-17.388-26.4a34.841,34.841,0,0,0-11.07-3.809c9.906-3.286,20.564-6.192,20.564-6.192A41.359,41.359,0,0,0,498.355,293.378Z" transform="translate(-440.785 -286.085)" fill="#0572a8"/>
        <path id="Path_93843" data-name="Path 93843" d="M485.365,325.162c-.063-.016-.119-.04-.174-.055-4.751-1.56-7.728-2.866-7.728-2.866l-.673,7.182-.586,6.16-3.65,38.76h-13.7s-4.988-55.523-3.809-62.055,12.923-13.572,12.923-13.572c12.21,6.762,16.137,19.574,17.388,26.4C485.357,325.13,485.365,325.146,485.365,325.162Z" transform="translate(-440.251 -288.714)" fill="url(#linear-gradient)"/>
        <path id="Path_93844" data-name="Path 93844" d="M455.247,396.569l.823-2.344h13.7v23.485h-3.627V405.968l-3.634,11.743H441.477l9.185-8.14Z" transform="translate(-437.464 -308.597)" fill="#111023"/>
        <path id="Path_93845" data-name="Path 93845" d="M451.2,311.285c-1.18,6.533,3.809,62.055,3.809,62.055l-.823,2.344c-3.809-14.182-18.845-70.749-17.721-74.225.586-1.8,8.322-4.806,16.589-7.554a34.842,34.842,0,0,1,11.07,3.809S452.376,304.753,451.2,311.285Z" transform="translate(-436.408 -287.713)" fill="#f9cb9f"/>
      </g>
      <g id="Group_184359" data-name="Group 184359" transform="translate(60.086)">
        <g id="Group_184357" data-name="Group 184357">
          <path id="Path_93846" data-name="Path 93846" d="M540.825,192.992a31.45,31.45,0,0,0-3.753-1.2,3.912,3.912,0,0,0,.111-3.793,6.427,6.427,0,0,0-3.555-2.89c-1.552-.578-3.373-.879-4.331-2.225s-.641-3.239-1.235-4.791c-.808-2.082-3.1-3.175-5.281-3.666s-4.482-.61-6.461-1.647a7.706,7.706,0,0,1-3.634-4.125c1.37-1.647,4.814-6.271,2.51-8.694-2.843-2.985-4.3,3.136-4.3,3.136a4.781,4.781,0,0,1-2.669.459c-1.1-.238-3.745-4.379-9.518-4.434-1.885-.016-3.745.546-5.63.507a5.476,5.476,0,0,1-2.827-.728,8.887,8.887,0,0,1-2.8-2.6,89.856,89.856,0,0,0,2.779,16h0c-4.015-5.179-6.572-11.877-5.3-18.307s6.469-12.17,12.946-13.128a16.321,16.321,0,0,1,11.576,3,23.8,23.8,0,0,1,7.594,9.439c1.354,2.874,2.51,6.24,5.361,7.649a14.026,14.026,0,0,0,4.331.982c4.078.578,8.575,2.447,9.811,6.382.982,3.144-.34,7.031,1.782,9.549,2.067,2.463,6.43,2.217,8.061,4.988,1.378,2.336-.063,5.416.76,8,.7,2.178,2.843,3.571,3.84,5.622a5.823,5.823,0,0,1-4.553,8.314c-2.4-6.445-4.529-11.006-5.131-11.529A2.212,2.212,0,0,0,540.825,192.992Z" transform="translate(-484.6 -140.719)" fill="#111023"/>
          <path id="Path_93847" data-name="Path 93847" d="M544.429,195.339a3.912,3.912,0,0,1-.111,3.793c-7.111-1.948-20.508-4.735-20.508-4.735l-4.4-17.8s.206-.222.523-.6a7.707,7.707,0,0,0,3.634,4.125c1.98,1.037,4.284,1.148,6.461,1.647s4.474,1.584,5.281,3.666c.594,1.552.269,3.437,1.235,4.791s2.779,1.647,4.331,2.225A6.427,6.427,0,0,1,544.429,195.339Z" transform="translate(-491.846 -148.063)" fill="#111023"/>
        </g>
        <path id="Path_93848" data-name="Path 93848" d="M513.432,172.747c-.317.38-.523.6-.523.6l4.4,17.8-13.453,10.3,4.68-22.234s-4.616,4.434-9.161,5.21a5.9,5.9,0,0,1-4.4-.776c-1.7-1.132-3.009-3.951-4-7.253a89.859,89.859,0,0,1-2.779-16,8.888,8.888,0,0,0,2.8,2.6,5.476,5.476,0,0,0,2.827.728c1.885.04,3.745-.523,5.63-.507,5.772.055,8.417,4.2,9.518,4.434a4.781,4.781,0,0,0,2.668-.459s1.457-6.121,4.3-3.136C518.247,166.476,514.8,171.1,513.432,172.747Z" transform="translate(-485.349 -144.815)" fill="#f7b77b"/>
        <path id="Path_93849" data-name="Path 93849" d="M511.212,184.165l-4.68,22.234-.04.024-5.456-8.956,1.014-8.092C506.6,188.6,511.212,184.165,511.212,184.165Z" transform="translate(-488.022 -149.764)" fill="#f79244"/>
        <g id="Group_184358" data-name="Group 184358" transform="translate(2.696 20.608)">
          <path id="Path_93850" data-name="Path 93850" d="M497.48,179.053a9.4,9.4,0,0,1-2.441.064l-.392-6.656c-.029-.506-.822-.506-.792,0l.411,6.976a.376.376,0,0,0,.112.25.308.308,0,0,0,.257.173,10.693,10.693,0,0,0,3.049-.048C498.188,179.738,497.979,178.974,497.48,179.053Z" transform="translate(-489.223 -167.856)" fill="#f79244"/>
          <path id="Path_93851" data-name="Path 93851" d="M495.507,184.08l6.62-.324s-1.281,3.594-3.31,3.63S495.507,184.08,495.507,184.08Z" transform="translate(-489.567 -170.286)" fill="#fff"/>
          <ellipse id="Ellipse_3729" data-name="Ellipse 3729" cx="1.032" cy="1.388" rx="1.032" ry="1.388" transform="translate(9.89 2.696)" fill="#111023"/>
          <ellipse id="Ellipse_3730" data-name="Ellipse 3730" cx="1.032" cy="1.388" rx="1.032" ry="1.388" transform="translate(1.687 3.274)" fill="#111023"/>
          <path id="Path_93852" data-name="Path 93852" d="M503.22,167.145a6,6,0,0,0-3.76-.183.792.792,0,0,0,.41,1.53,4.6,4.6,0,0,1,2.95.186C503.767,169.048,504.161,167.512,503.22,167.145Z" transform="translate(-490.273 -166.745)" fill="#111023"/>
          <path id="Path_93853" data-name="Path 93853" d="M491.094,167.612a3.713,3.713,0,0,0-2.87,1.182c-.692.746.418,1.876,1.112,1.128a2.175,2.175,0,0,1,1.767-.726C492.121,169.239,492.112,167.655,491.094,167.612Z" transform="translate(-488.006 -166.925)" fill="#111023"/>
        </g>
      </g>
    </g>
    <g id="Group_184366" data-name="Group 184366" transform="translate(238.22 62.17)" opacity="0.86">
      <path id="Path_93854" data-name="Path 93854" d="M272.125,64.873V210.64H523.853V64.873ZM510.867,196.917H416.427V109.611h94.441Z" transform="translate(-272.125 -64.873)" fill="#d1e3f5"/>
      <rect id="Rectangle_152048" data-name="Rectangle 152048" width="127.154" height="105.458" transform="translate(8.74 29.451)" fill="#90bff1"/>
      <rect id="Rectangle_152049" data-name="Rectangle 152049" width="94.441" height="7.829" transform="translate(144.301 31.658)" fill="#98c4f1"/>
      <rect id="Rectangle_152050" data-name="Rectangle 152050" width="231.011" height="17.347" transform="translate(8.74 6.446)" fill="#5fa6f0"/>
      <g id="Group_184363" data-name="Group 184363" transform="translate(188.27 8.883)">
        <g id="Group_184361" data-name="Group 184361">
          <path id="Path_93855" data-name="Path 93855" d="M513.461,85.29h-2.776a.792.792,0,0,1-.792-.792V76.883a.792.792,0,0,1,.792-.792h11.1a.792.792,0,0,1,.792.792v1.779a.792.792,0,0,1-1.584,0v-.987h-9.519v6.032h1.984a.792.792,0,0,1,0,1.584Z" transform="translate(-509.893 -76.091)" fill="#fff"/>
        </g>
        <g id="Group_184362" data-name="Group 184362" transform="translate(5.053 3.487)">
          <path id="Path_93856" data-name="Path 93856" d="M527.672,89.481h-10.6a.791.791,0,0,1-.792-.792v-7.4a.792.792,0,0,1,.792-.792h10.6a.792.792,0,0,1,.792.792v7.4A.792.792,0,0,1,527.672,89.481ZM517.859,87.9h9.021V82.079h-9.021Z" transform="translate(-516.275 -80.495)" fill="#fff"/>
        </g>
      </g>
      <rect id="Rectangle_152051" data-name="Rectangle 152051" width="13.297" height="2.864" rx="1.275" transform="translate(163.474 13.116)" fill="#fff"/>
      <path id="Path_93857" data-name="Path 93857" d="M559.965,85.521a1.241,1.241,0,0,1,.078,1.735,1.227,1.227,0,0,1-1.735.086l-4.422-4.008-4.433,4.008a1.226,1.226,0,0,1-1.734-.086,1.232,1.232,0,0,1,.086-1.735l4.25-3.844-4.25-3.854a1.232,1.232,0,0,1-.086-1.735,1.2,1.2,0,0,1,.906-.4,1.188,1.188,0,0,1,.828.328l4.433,4.008,4.422-4.008a1.189,1.189,0,0,1,.829-.328,1.2,1.2,0,0,1,.906.4,1.241,1.241,0,0,1-.078,1.735l-4.249,3.854Z" transform="translate(-329.432 -67.123)" fill="#fff"/>
      <g id="Group_184364" data-name="Group 184364" transform="translate(13.598 37.45)">
        <path id="Path_93858" data-name="Path 93858" d="M400.367,112.169v33.945H380.418l11.382,9.953-26.2-9.953H289.3V112.169Z" transform="translate(-289.298 -112.169)" fill="url(#linear-gradient-3)"/>
        <rect id="Rectangle_152052" data-name="Rectangle 152052" width="96.386" height="1.812" transform="translate(6.116 5.924)" fill="#6eaef1"/>
        <rect id="Rectangle_152053" data-name="Rectangle 152053" width="96.386" height="1.812" transform="translate(6.116 12.695)" fill="#6eaef1"/>
        <rect id="Rectangle_152054" data-name="Rectangle 152054" width="96.386" height="1.812" transform="translate(6.116 19.76)" fill="#6eaef1"/>
        <rect id="Rectangle_152055" data-name="Rectangle 152055" width="71.63" height="1.812" transform="translate(6.116 26.532)" fill="#6eaef1"/>
      </g>
      <g id="Group_184365" data-name="Group 184365" transform="translate(13.598 81.66)">
        <path id="Path_93859" data-name="Path 93859" d="M289.3,168v33.945h19.949L297.865,211.9l26.2-9.953h44.632V168Z" transform="translate(-289.298 -168.002)" fill="url(#linear-gradient-4)"/>
        <rect id="Rectangle_152056" data-name="Rectangle 152056" width="64.713" height="1.812" transform="translate(73.28 7.736) rotate(-180)" fill="#6eaef1"/>
        <rect id="Rectangle_152057" data-name="Rectangle 152057" width="64.713" height="1.812" transform="translate(73.28 14.507) rotate(-180)" fill="#6eaef1"/>
        <rect id="Rectangle_152058" data-name="Rectangle 152058" width="64.713" height="1.812" transform="translate(73.28 21.572) rotate(-180)" fill="#6eaef1"/>
        <rect id="Rectangle_152059" data-name="Rectangle 152059" width="39.957" height="1.812" transform="translate(73.28 28.344) rotate(-180)" fill="#6eaef1"/>
      </g>
    </g>
    <g id="Group_184367" data-name="Group 184367" transform="translate(231.975 223.884)">
      <path id="Path_93860" data-name="Path 93860" d="M482.821,269.1v6.406H266.036l-.111.032-1.687-6.438H482.821Z" transform="translate(-264.238 -269.103)" fill="#1f1c38"/>
      <path id="Path_93861" data-name="Path 93861" d="M489.7,277.233l21.48,116.123h6.448L503.067,277.233Z" transform="translate(-311.174 -270.796)" fill="#b2b2b2"/>
      <path id="Path_93862" data-name="Path 93862" d="M292.983,277.233,271.5,393.356h-6.448l14.558-116.123Z" transform="translate(-264.408 -270.796)" fill="#b2b2b2"/>
    </g>
    <g id="Group_184373" data-name="Group 184373" transform="translate(151.925 115.136)">
      <g id="Group_184368" data-name="Group 184368" transform="translate(44.972)">
        <path id="Path_93863" data-name="Path 93863" d="M261.129,136.1c.475,2.043-.4,4.165-1.56,5.915a12.657,12.657,0,0,1-5.654,5.044c-2.114.744-2.407,3.539-2.328,5.78s.618,4.585-.206,6.667a1.11,1.11,0,0,1-.594.7c-.538.166-.982-.428-1.227-.934-1.132-2.344-2.3-4.87-4.5-6.255a1.99,1.99,0,0,0-.974-.372c-1.045-.04-1.655,1.2-1.718,2.249a6.667,6.667,0,0,0,2.874,5.836c-.673,1.813-.436,4.276-2.13,5.21a4.31,4.31,0,0,1-1.956.4,69.9,69.9,0,0,1-11.862-.578,15.326,15.326,0,0,1-3-.633,7.114,7.114,0,0,1-1.544-.744,8.871,8.871,0,0,1-2.922-3.666c-2.352-4.9-2.3-10.682-1.006-15.963a21.294,21.294,0,0,1,3.848-8.425,11.7,11.7,0,0,1,7.871-4.529,17.853,17.853,0,0,1,6.073.831c4.87,1.275,9.858,2.8,14.855,2.138a36.242,36.242,0,0,1,5.186-.7,2.909,2.909,0,0,1,1.275.245A2.576,2.576,0,0,1,261.129,136.1Z" transform="translate(-219.938 -131.764)" fill="#1f1c38"/>
        <path id="Path_93864" data-name="Path 93864" d="M254.721,151.083s.784,20.287.713,22.488-8.4,2.043-8.4,2.043l1.14,5.226v.071c-6.263-.3-14.348.412-24.364,1.148l3.294-12.9v-.008a15.327,15.327,0,0,0,3,.633,69.9,69.9,0,0,0,11.862.578,4.31,4.31,0,0,0,1.956-.4c1.695-.934,1.457-3.4,2.13-5.21a6.667,6.667,0,0,1-2.874-5.836c.063-1.045.673-2.288,1.718-2.249a1.99,1.99,0,0,1,.974.372c2.2,1.386,3.365,3.912,4.5,6.255.245.507.689,1.1,1.227.934a1.11,1.11,0,0,0,.594-.7c.823-2.082.285-4.426.206-6.667S252.607,151.827,254.721,151.083Z" transform="translate(-220.744 -135.786)" fill="#f7b77b"/>
      </g>
      <g id="Group_184372" data-name="Group 184372" transform="translate(0 45.553)">
        <path id="Path_93865" data-name="Path 93865" d="M371.079,266.5H353.144V257.11s10.341-2.7,15.639,4.442A14.355,14.355,0,0,1,371.079,266.5Z" transform="translate(-202.696 -203.307)" fill="url(#linear-gradient)"/>
        <g id="Group_184369" data-name="Group 184369" transform="translate(124.42 13.801)">
          <path id="Path_93866" data-name="Path 93866" d="M400.147,206.722,396.4,221.505a11.718,11.718,0,0,0-3.286.008l2.9-11.941h-31.8c.1-.158.19-.317.293-.467a11.873,11.873,0,0,1,2.106-2.383Z" transform="translate(-329.421 -206.722)" fill="#4a4a4a"/>
          <path id="Path_93867" data-name="Path 93867" d="M402.106,225.363l-7.364,29.06v.6h-3.128l7.206-29.654A11.716,11.716,0,0,1,402.106,225.363Z" transform="translate(-335.125 -210.579)" fill="#4a4a4a"/>
          <path id="Path_93868" data-name="Path 93868" d="M389.25,210.322l-2.9,11.941a15,15,0,0,0-4.9,1.576c-3.9,2.051-6.944,5.384-10.151,8.409s-6.865,5.9-11.212,6.62c-3.31.554-6.968-.135-9.834,1.607a9.269,9.269,0,0,0-3.619,4.846l-14.91-2.217c1.116-2.375,2.368-4.846,4.608-6.208a14.106,14.106,0,0,1,3.611-1.37c4.561-1.283,9.407-2.961,12.1-6.857,3.666-5.281,2.138-12.867,5.408-18.347Z" transform="translate(-322.658 -207.471)" fill="#a4cdf6"/>
          <path id="Path_93869" data-name="Path 93869" d="M390.272,225.4l-7.206,29.654H368.243c-5.3-7.142-15.638-4.442-15.638-4.442v-1.853l-2.051-.3a9.269,9.269,0,0,1,3.619-4.846c2.866-1.742,6.525-1.053,9.834-1.607,4.347-.721,8.013-3.595,11.212-6.62s6.247-6.358,10.151-8.409A15,15,0,0,1,390.272,225.4Z" transform="translate(-326.578 -210.611)" fill="#bedaf6"/>
          <path id="Path_93870" data-name="Path 93870" d="M390.845,262.852V267.8H375.19a14.355,14.355,0,0,0-2.3-4.949h17.951Z" transform="translate(-331.228 -218.407)" fill="#4a4a4a"/>
          <path id="Path_93871" data-name="Path 93871" d="M329.926,206.722h27.54a11.873,11.873,0,0,0-2.106,2.383c-.1.15-.2.309-.293.467H331.352l-8.765,31.776-2.312-.34Z" transform="translate(-320.274 -206.722)" fill="#4a4a4a"/>
          <path id="Path_93872" data-name="Path 93872" d="M331.96,210.322h23.715c-3.27,5.479-1.742,13.065-5.408,18.347-2.692,3.9-7.538,5.574-12.1,6.857a14.106,14.106,0,0,0-3.611,1.37c-2.241,1.362-3.492,3.832-4.608,6.208l-6.754-1.006Z" transform="translate(-320.882 -207.471)" fill="#bedaf6"/>
        </g>
        <g id="Group_184370" data-name="Group 184370" transform="translate(0 62.567)">
          <path id="Path_93873" data-name="Path 93873" d="M348.94,424.706l-41.286-.99V413.462h20.429C344.6,417.1,348.94,424.706,348.94,424.706Z" transform="translate(-193.226 -298.526)" fill="#111023"/>
          <path id="Path_93874" data-name="Path 93874" d="M314.295,307.526l2.771,81.629H293.795l-4.838-58.08-3.064.111-23.485.317c-4.426-2.787-6.675-17.586-7.673-30.517l.2-.016c5.978.855,12.812-4.268,12.812-4.268l39.9,3.761A7.339,7.339,0,0,1,314.295,307.526Z" transform="translate(-182.21 -274.219)" fill="#0572a8"/>
          <path id="Path_93875" data-name="Path 93875" d="M172.3,268.406c2.178-.142,3.888-.087,3.888-.087h49.323s9.4-.38,9.5,12.115c.032,3.777.23,9.035.657,14.641,1,12.93,3.246,27.73,7.673,30.517l23.485-.317v6.295H179.709s-1.71-8.75-3.207-21.561-2.344-26.051-11.1-34.167C159.232,270.125,167.1,268.731,172.3,268.406Z" transform="translate(-163.142 -268.309)" fill="#3b70a7"/>
          <path id="Path_93876" data-name="Path 93876" d="M270.528,419.6c-1.465,3.175-4.474,4.9-6.73,3.856a3.229,3.229,0,0,1-1.259-1.021c-1.18-1.528-1.306-4.141-.166-6.6a8.116,8.116,0,0,1,.816-1.4,7.211,7.211,0,0,1,1.892-1.877,4.087,4.087,0,0,1,4.022-.578c.008,0,.008.008.016.008C271.359,413.025,271.993,416.438,270.528,419.6Z" transform="translate(-183.635 -298.152)" fill="#111023"/>
          <path id="Path_93877" data-name="Path 93877" d="M254.283,410.153c-.008,0-.008-.008-.016-.008a4.087,4.087,0,0,0-4.022.578,6.886,6.886,0,0,0-5.123-3.793,6.4,6.4,0,0,0-1.037-.079H224.3v4.022a3.067,3.067,0,0,0-1.006-.728,4.079,4.079,0,0,0-3.983.546v-3.84H200.661a6.855,6.855,0,0,0-6.018,3.587,3.617,3.617,0,0,0-.515-.293,4,4,0,0,0-3.809.443,10.819,10.819,0,0,1,10.341-7.7h43.424a10.217,10.217,0,0,1,1.568.119A10.813,10.813,0,0,1,254.283,410.153Z" transform="translate(-168.8 -296.326)" fill="#111023"/>
          <path id="Path_93878" data-name="Path 93878" d="M259.127,348.2l-3.27,43.3-.016.119a10.218,10.218,0,0,0-1.568-.119H239.244V352.62h11.751V348.2Z" transform="translate(-178.985 -284.941)" fill="#0572a8"/>
          <path id="Path_93879" data-name="Path 93879" d="M258.245,422.805H240.96v-9.344h14.253l3.682,1.338a8.116,8.116,0,0,0-.816,1.4C256.939,418.664,257.066,421.277,258.245,422.805Z" transform="translate(-179.342 -298.526)" fill="#111023"/>
          <path id="Path_93880" data-name="Path 93880" d="M255.31,407.971l-.451,4.331H239.244v-4.41h15.029A6.4,6.4,0,0,1,255.31,407.971Z" transform="translate(-178.985 -297.367)" fill="#0572a8"/>
          <path id="Path_93881" data-name="Path 93881" d="M244.391,348.2v4.418H207.524V348.2Z" transform="translate(-172.382 -284.941)" fill="#111023"/>
          <rect id="Rectangle_152060" data-name="Rectangle 152060" width="7.966" height="38.886" transform="translate(49.379 67.68)" fill="#616161"/>
          <path id="Path_93882" data-name="Path 93882" d="M231.408,419.6c-1.465,3.175-4.474,4.9-6.73,3.856s-2.89-4.45-1.425-7.625a7.945,7.945,0,0,1,2.748-3.31,4.079,4.079,0,0,1,3.983-.546,3.067,3.067,0,0,1,1.006.728C232.4,414.173,232.62,416.968,231.408,419.6Z" transform="translate(-175.492 -298.152)" fill="#111023"/>
          <path id="Path_93883" data-name="Path 93883" d="M194.578,419.6c-1.465,3.175-4.482,4.9-6.73,3.856s-2.9-4.45-1.425-7.625a7.745,7.745,0,0,1,2.922-3.413,4,4,0,0,1,3.809-.443,3.616,3.616,0,0,1,.515.293v.008C195.5,413.563,195.924,416.683,194.578,419.6Z" transform="translate(-167.824 -298.153)" fill="#111023"/>
        </g>
        <g id="Group_184371" data-name="Group 184371" transform="translate(9.155)">
          <path id="Path_93884" data-name="Path 93884" d="M302.594,238.726l14.91,2.217,2.051.3v11.743H268.308L255.069,228.86l-6.406,22.63.388,1.5,1.687,6.438,3.9,14.918s-6.833,5.123-12.812,4.268l-.2.016c-.428-5.606-.626-10.864-.657-14.641-.1-12.495-9.5-12.115-9.5-12.115H193.718l-1.924-51.706s5.764-8.243,23.557-9.526c.57-.04,1.132-.079,1.687-.127,10.017-.736,18.1-1.449,24.364-1.148,5.978.277,10.286,1.489,13.026,4.474,5.764,6.3,27.761,41.856,27.761,41.856l11.339,1.687,2.312.34Z" transform="translate(-178.262 -189.293)" fill="#61a0e0"/>
          <path id="Path_93885" data-name="Path 93885" d="M188.236,203.022l1.924,51.706H178.592s-1.71-.055-3.888.087Z" transform="translate(-174.704 -192.151)" fill="#61a0e0"/>
        </g>
      </g>
    </g>
  </g>
</svg>
