<svg width="43" height="42" viewBox="0 0 43 42" fill="none" xmlns="http://www.w3.org/2000/svg">
<path d="M13.5842 19.0412C16.105 19.0412 18.1511 19.0248 20.1973 19.0478C21.2236 19.0592 22.1975 19.2982 23.0242 19.9562C24.4434 21.089 24.8788 22.5998 24.4008 24.2776C23.9065 26.0111 22.538 26.823 20.8144 27.0767C18.5505 27.4107 16.2834 27.7233 14.0212 28.0621C12.9098 28.2275 12.3074 28.9101 12.404 29.8431C12.5022 30.8023 13.2012 31.4129 14.3257 31.2885C16.5175 31.0478 18.6962 30.6844 20.8848 30.4029C22.1124 30.2458 23.2943 29.9986 24.3681 29.334C26.7596 27.8543 27.9169 25.7001 27.8694 22.9157C27.8579 22.1971 28.0658 21.6881 28.5585 21.1806C30.4393 19.2458 32.2383 17.2308 34.1485 15.3255C36.7135 12.767 40.8434 13.8392 41.8616 17.3045C42.3445 18.9495 41.9532 20.48 40.8058 21.7192C36.0866 26.823 31.5573 32.1053 26.6794 37.0585C23.5087 40.2783 19.5654 41.9365 15.0099 41.9823C12.1732 42.0118 9.33645 41.9987 6.50135 41.9872C3.34541 41.9758 0.112544 38.8902 0.0503424 35.7212C-0.0167703 32.287 -0.0151334 28.8479 0.0454317 25.412C0.101086 22.3003 3.05241 19.493 6.45879 19.1574C8.98943 18.9135 11.5266 19.1181 13.5842 19.0412Z" fill="#005D89"/>
<path d="M22.7115 10.5583C21.6901 10.5419 21.0354 9.8708 20.9781 8.78062C20.8962 7.22393 20.8962 7.22393 19.3723 7.12408C18.197 7.04715 17.4505 6.30564 17.4473 5.21055C17.444 4.25461 18.2166 3.52782 19.3281 3.43779C20.9011 3.31175 20.9011 3.31175 20.9764 1.74197C21.0239 0.746738 21.641 0.0788844 22.5789 0.00686098C23.5807 -0.0684362 24.3288 0.479924 24.5383 1.46042C24.5891 1.69941 24.6202 1.94495 24.6316 2.18721C24.6889 3.40015 24.6856 3.40015 25.9346 3.42797C27.5829 3.46562 28.5274 4.72767 27.8907 6.05683C27.5158 6.83926 26.83 7.09626 26.0132 7.12736C24.7069 7.17483 24.7069 7.18138 24.6316 8.45488C24.5563 9.75949 23.8099 10.5763 22.7115 10.5583Z" fill="#008DD1"/>
<path d="M8.8294 15.7968C8.00768 15.805 7.36111 15.3467 7.0992 14.5626C6.95024 14.1173 6.92405 13.6525 6.94533 13.1892C6.97316 12.6032 6.72435 12.3315 6.12361 12.3642C5.77168 12.3839 5.41156 12.379 5.06454 12.3266C4.12496 12.1842 3.47184 11.3821 3.48657 10.4294C3.49803 9.60279 4.18553 8.86946 5.0629 8.69759C5.64236 8.58464 6.35278 8.93166 6.78328 8.45205C7.17123 8.02155 6.87658 7.34551 6.98462 6.78733C7.17286 5.80356 7.96348 5.1799 8.97345 5.24374C9.91466 5.3043 10.5383 5.96233 10.5956 6.9592C10.5989 7.01322 10.5989 7.06888 10.6005 7.12289C10.6431 8.58955 10.6431 8.58955 12.149 8.67303C13.344 8.73851 14.1264 9.48002 14.1149 10.5342C14.1035 11.59 13.3161 12.3069 12.1081 12.3642C10.6611 12.433 10.6611 12.433 10.5989 13.9537C10.5531 15.0553 9.85246 15.787 8.8294 15.7968Z" fill="#008DD1"/>
</svg>
