<svg xmlns="http://www.w3.org/2000/svg" width="570" height="291.087" viewBox="0 0 570 291.087">
  <g id="Typescript_development_section_1" transform="translate(-817.171 -931)">
    <g id="Kotlin_app_section1" transform="translate(0 -2)">
      <g id="Group_259623" data-name="Group 259623">
        <g id="Group_259622" data-name="Group 259622">
          <g id="Group_259621" data-name="Group 259621" transform="translate(897.853 933)">
            <g id="Background_Simple" data-name="Background Simple">
              <g id="Group_259607" data-name="Group 259607">
                <path id="Path_112823" data-name="Path 112823" d="M40.2,231.2q0,.452,0,.9c-.064,40.425,9.879,96.838,70.705,106.375,79.669,12.491,120.989-84.809,161.277-80.777,20.628,2.064,44.28,4.8,63.286-2.707a88.541,88.541,0,0,0,41.578-34.607c32.121-50.825.242-106.527-58.431-136.167-78.267-39.539-190.6-36.789-240.748,29C51.636,147.628,40.434,190.865,40.2,231.2Z" transform="translate(-40.198 -58.319)" fill="#92e3a9"/>
                <path id="Path_112824" data-name="Path 112824" d="M40.2,231.2q0,.452,0,.9c-.064,40.425,9.879,96.838,70.705,106.375,79.669,12.491,120.989-84.809,161.277-80.777,20.628,2.064,44.28,4.8,63.286-2.707a88.541,88.541,0,0,0,41.578-34.607c32.121-50.825.242-106.527-58.431-136.167-78.267-39.539-190.6-36.789-240.748,29C51.636,147.628,40.434,190.865,40.2,231.2Z" transform="translate(-40.198 -58.319)" fill="#dbe8f3"/>
              </g>
            </g>
            <g id="Lines" transform="translate(24.376 19.825)">
              <g id="Group_259608" data-name="Group 259608">
                <path id="Path_112825" data-name="Path 112825" d="M90.112,218.777H86.018a16.564,16.564,0,0,0-16.564,16.565v90.894A16.564,16.564,0,0,0,86.018,342.8h56.164a16.564,16.564,0,0,0,16.565-16.564h0" transform="translate(-69.454 -104.914)" fill="none" stroke="#263238" stroke-linecap="round" stroke-linejoin="round" stroke-width="1" stroke-dasharray="4"/>
                <path id="Path_112826" data-name="Path 112826" d="M171.1,110.213V92.26a10.146,10.146,0,0,1,10.146-10.146h73.038A10.145,10.145,0,0,1,264.427,92.26h0" transform="translate(-86.411 -82.114)" fill="none" stroke="#263238" stroke-linecap="round" stroke-linejoin="round" stroke-width="1" stroke-dasharray="4"/>
              </g>
            </g>
            <g id="Window" transform="translate(38.44 55.243)">
              <g id="Group_259610" data-name="Group 259610">
                <path id="Path_112827" data-name="Path 112827" d="M359.056,141.4v136a16.765,16.765,0,0,1-16.763,16.763H103.1a16.765,16.765,0,0,1-16.763-16.763v-136c0-.4.017-.792.05-1.183A16.761,16.761,0,0,1,103.1,124.624H342.293a16.761,16.761,0,0,1,16.713,15.589C359.04,140.6,359.056,141,359.056,141.4Z" transform="translate(-86.335 -124.624)" fill="#fff" stroke="#263238" stroke-linecap="round" stroke-linejoin="round" stroke-width="1"/>
                <path id="Rectangle_158940" data-name="Rectangle 158940" d="M0,0H257.262a0,0,0,0,1,0,0V122.483a18.856,18.856,0,0,1-18.856,18.856H18.856A18.856,18.856,0,0,1,0,122.483V0A0,0,0,0,1,0,0Z" transform="translate(8.157 21.872)" fill="#263238"/>
                <path id="Path_112828" data-name="Path 112828" d="M353.391,150.874V276.508a15.624,15.624,0,0,1-15.535,15.705H111.661a15.625,15.625,0,0,1-15.536-15.705V150.874Z" transform="translate(-87.968 -129.003)" fill="#dbe8f3"/>
                <path id="Path_112829" data-name="Path 112829" d="M359.016,140.213H86.395a16.761,16.761,0,0,1,16.713-15.589H342.3A16.761,16.761,0,0,1,359.016,140.213Z" transform="translate(-86.345 -124.624)" fill="#60a6df" stroke="#263238" stroke-miterlimit="10" stroke-width="1"/>
                <path id="Path_112830" data-name="Path 112830" d="M125.415,133.384a2.969,2.969,0,1,1-2.969-2.969A2.969,2.969,0,0,1,125.415,133.384Z" transform="translate(-91.864 -125.59)" fill="#263238"/>
                <path id="Path_112831" data-name="Path 112831" d="M140.484,133.384a2.969,2.969,0,1,1-2.969-2.969A2.97,2.97,0,0,1,140.484,133.384Z" transform="translate(-94.378 -125.59)" fill="#263238"/>
                <path id="Path_112832" data-name="Path 112832" d="M155.552,133.384a2.969,2.969,0,1,1-2.969-2.969A2.969,2.969,0,0,1,155.552,133.384Z" transform="translate(-96.892 -125.59)" fill="#263238"/>
                <path id="Path_112833" data-name="Path 112833" d="M353.388,150.88V276.505a15.715,15.715,0,0,1-15.714,15.714H111.835A15.709,15.709,0,0,1,96.43,279.555l-.008-.008v-.033a15.6,15.6,0,0,1-.292-3.008V150.88Z" transform="translate(-87.969 -129.004)" fill="none" stroke="#263238" stroke-miterlimit="10" stroke-width="1"/>
                <path id="Path_112834" data-name="Path 112834" d="M398.641,172.65a15.979,15.979,0,0,0-3.491-1.441l-1.408-6.307h-6l-1.4,6.307a15.485,15.485,0,0,0-3.5,1.441l-5.416-3.466-4.241,4.241,3.408,5.416a15.415,15.415,0,0,0-1.441,3.5l-6.307,1.4v6l6.307,1.408a15.294,15.294,0,0,0,1.441,3.524l-3.466,5.449,4.241,4.241,5.449-3.466a15.507,15.507,0,0,0,3.5,1.45l1.4,6.3h6l1.408-6.3a16,16,0,0,0,3.491-1.45l.275.175V172.492Zm-7.882,21.871a7.748,7.748,0,1,1,7.748-7.749A7.744,7.744,0,0,1,390.759,194.521Z" transform="translate(-133.467 -131.344)" fill="#60a6df"/>
                <path id="Path_112835" data-name="Path 112835" d="M256.409,176.386V163.738l-13.3-2.949a34.363,34.363,0,0,0-3.041-7.382l1.608-2.533H178.915l1.55,2.466a32.727,32.727,0,0,0-3.033,7.374l-13.3,2.958v12.648l13.3,2.966a33.17,33.17,0,0,0,3.033,7.432l-7.307,11.489,8.948,8.94,11.481-7.307a33.828,33.828,0,0,0,7.382,3.058l2.949,13.281h12.648l2.974-13.281a34.046,34.046,0,0,0,7.357-3.058l11.489,7.307,8.94-8.94-7.257-11.489a34.657,34.657,0,0,0,3.041-7.365ZM210.334,186.4a16.338,16.338,0,1,1,16.338-16.338A16.339,16.339,0,0,1,210.334,186.4Z" transform="translate(-99.314 -129.003)" fill="#60a6df"/>
                <path id="Path_112836" data-name="Path 112836" d="M161.176,276.951l.533-10.031-10.4-2.933a28.14,28.14,0,0,0-2.133-5.965l6.282-8.823-6.732-7.474-9.415,5.324a27.877,27.877,0,0,0-5.732-2.741l-1.8-10.665-10.031-.533-2.9,10.431a26.223,26.223,0,0,0-5.965,2.116l-8.815-6.282-7.482,6.732,5.332,9.423a26.046,26.046,0,0,0-2.749,5.724l-3.041.5v13.589l2.208.625a26.257,26.257,0,0,0,2.133,5.982l-4.341,6.074.292,5.207v.033l.008.008,4.474,4.966,9.431-5.324a26.124,26.124,0,0,0,5.749,2.774l1.716,10.24v.008l.083.425,10.031.533.267-.958v-.008l2.633-9.465a26.894,26.894,0,0,0,6-2.116l8.8,6.274,7.482-6.724-5.316-9.431a26.046,26.046,0,0,0,2.716-5.716Zm-26.645-15.672a12.991,12.991,0,1,0-.966,18.338A12.992,12.992,0,0,0,134.531,261.279Z" transform="translate(-87.969 -142.723)" fill="#263238"/>
                <path id="Path_112837" data-name="Path 112837" d="M260.977,261.2a20.428,20.428,0,0,0,.609-4.752l7.212-3.792-1.993-7.317-8.14.381a20.286,20.286,0,0,0-2.925-3.779l2.413-7.788-6.574-3.765-5.5,6a21.3,21.3,0,0,0-4.736-.6l-3.807-7.218-7.307,1.988.386,8.152a20.674,20.674,0,0,0-3.787,2.921l-7.79-2.4-3.771,6.563,6.033,5.485a19.773,19.773,0,0,0-.6,4.738l-7.225,3.8,1.993,7.317,8.151-.386a19.442,19.442,0,0,0,2.914,3.784l-2.425,7.748,6.574,3.766,5.471-5.95a19.965,19.965,0,0,0,4.747.6l3.8,7.222,7.306-1.988-.321-6.963-.054-1.193a20.085,20.085,0,0,0,3.824-2.926l7.784,2.42,3.217-5.622.549-.951ZM243.7,265.65a9.787,9.787,0,1,1,6.871-12.015A9.788,9.788,0,0,1,243.7,265.65Z" transform="translate(-107.547 -141.966)" fill="#60a6df"/>
                <path id="Path_112838" data-name="Path 112838" d="M356.186,273.466l1.666-10.04-10.165-4.091a26.967,26.967,0,0,0-1.458-6.265l7.315-8.148-5.924-8.282-10.09,4.283a26.817,26.817,0,0,0-5.449-3.383l-.592-10.948-10.048-1.658-4.116,10.123a28.1,28.1,0,0,0-6.24,1.466l-8.173-7.315-8.273,5.924,4.291,10.081a27.447,27.447,0,0,0-3.058,4.749c-.117.233-.233.467-.342.7l-10.94.608L282.925,261.3l1.65.667,8.515,3.433a26.446,26.446,0,0,0,1.458,6.24l-7.315,8.173,5.924,8.273,10.09-4.3a26.154,26.154,0,0,0,5.441,3.408l.567,10.9,10.04,1.658L323.4,289.7a26.4,26.4,0,0,0,6.257-1.466l8.157,7.324,8.282-5.932-4.291-10.09a26.31,26.31,0,0,0,3.441-5.474Zm-28.169-.45a13.149,13.149,0,1,1,3.033-18.346A13.15,13.15,0,0,1,328.016,273.016Z" transform="translate(-119.132 -141.359)" fill="#60a6df"/>
              </g>
            </g>
            <g id="Graphics" transform="translate(50.471 35.102)">
              <g id="Group_259618" data-name="Group 259618">
                <g id="Group_259615" data-name="Group 259615" transform="translate(0 77.885)">
                  <rect id="Rectangle_158941" data-name="Rectangle 158941" width="98.79" height="129.166" rx="11.884" fill="#92e3a9" stroke="#263238" stroke-miterlimit="10" stroke-width="1"/>
                  <rect id="Rectangle_158942" data-name="Rectangle 158942" width="98.79" height="129.166" rx="11.884" fill="#60a6df"/>
                  <g id="Group_259614" data-name="Group 259614" transform="translate(9.197 9.76)">
                    <path id="Path_112839" data-name="Path 112839" d="M210.6,215.542V324.9a9.9,9.9,0,0,1-9.906,9.906H121.712a9.9,9.9,0,0,1-9.9-9.906V215.542a9.9,9.9,0,0,1,9.9-9.9H200.7A9.9,9.9,0,0,1,210.6,215.542Z" transform="translate(-111.814 -205.644)" fill="#fff" stroke="#263238" stroke-linecap="round" stroke-linejoin="round" stroke-width="1"/>
                    <path id="Path_112840" data-name="Path 112840" d="M210.6,215.542V221.4H111.814v-5.857a9.9,9.9,0,0,1,9.9-9.9H200.7A9.9,9.9,0,0,1,210.6,215.542Z" transform="translate(-111.814 -205.644)" fill="#7eb5e2" stroke="#263238" stroke-miterlimit="10" stroke-width="1"/>
                    <rect id="Rectangle_158943" data-name="Rectangle 158943" width="24.304" height="4.076" transform="translate(9.291 22.539)" fill="#60a6df"/>
                    <rect id="Rectangle_158944" data-name="Rectangle 158944" width="24.304" height="4.076" transform="translate(9.291 59.087)" fill="#60a6df"/>
                    <rect id="Rectangle_158945" data-name="Rectangle 158945" width="24.304" height="4.076" transform="translate(9.291 92.229)" fill="#60a6df"/>
                    <g id="Group_259611" data-name="Group 259611" transform="translate(9.291 32.632)">
                      <rect id="Rectangle_158946" data-name="Rectangle 158946" width="69.028" height="2.99" fill="#263238"/>
                      <rect id="Rectangle_158947" data-name="Rectangle 158947" width="56.581" height="2.914" transform="translate(0 5.723)" fill="#263238"/>
                      <rect id="Rectangle_158948" data-name="Rectangle 158948" width="63.99" height="2.914" transform="translate(0 11.349)" fill="#263238"/>
                      <rect id="Rectangle_158949" data-name="Rectangle 158949" width="63.99" height="2.914" transform="translate(0 16.969)" fill="#263238"/>
                    </g>
                    <g id="Group_259612" data-name="Group 259612" transform="translate(9.291 65.774)">
                      <rect id="Rectangle_158950" data-name="Rectangle 158950" width="69.028" height="2.99" fill="#263238"/>
                      <rect id="Rectangle_158951" data-name="Rectangle 158951" width="56.581" height="2.914" transform="translate(0 5.723)" fill="#263238"/>
                      <rect id="Rectangle_158952" data-name="Rectangle 158952" width="63.99" height="2.914" transform="translate(0 11.349)" fill="#263238"/>
                    </g>
                    <g id="Group_259613" data-name="Group 259613" transform="translate(9.291 102.169)">
                      <rect id="Rectangle_158953" data-name="Rectangle 158953" width="69.028" height="2.99" fill="#263238"/>
                      <rect id="Rectangle_158954" data-name="Rectangle 158954" width="56.581" height="2.914" transform="translate(0 5.723)" fill="#263238"/>
                      <rect id="Rectangle_158955" data-name="Rectangle 158955" width="63.99" height="2.914" transform="translate(0 11.349)" fill="#263238"/>
                    </g>
                  </g>
                </g>
                <g id="Group_259617" data-name="Group 259617" transform="translate(93.902)">
                  <path id="Path_112841" data-name="Path 112841" d="M338.9,112.264v44.2a11.8,11.8,0,0,1-11.806,11.806h-101.8a11.807,11.807,0,0,1-11.806-11.806v-44.2a11.814,11.814,0,0,1,11.806-11.814h101.8A11.809,11.809,0,0,1,338.9,112.264Z" transform="translate(-213.48 -100.45)" fill="#fff" stroke="#222221" stroke-miterlimit="10" stroke-width="1"/>
                  <path id="Path_112842" data-name="Path 112842" d="M338.9,112.264v1.008H213.48v-1.008a11.814,11.814,0,0,1,11.806-11.814h101.8A11.809,11.809,0,0,1,338.9,112.264Z" transform="translate(-213.48 -100.45)" fill="#60a6df" stroke="#263238" stroke-miterlimit="10" stroke-width="1"/>
                  <circle id="Ellipse_4167" data-name="Ellipse 4167" cx="1.808" cy="1.808" r="1.808" transform="translate(15.338 5.436)" fill="#263238"/>
                  <circle id="Ellipse_4168" data-name="Ellipse 4168" cx="1.808" cy="1.808" r="1.808" transform="translate(23.737 5.436)" fill="#263238"/>
                  <circle id="Ellipse_4169" data-name="Ellipse 4169" cx="1.808" cy="1.808" r="1.808" transform="translate(32.136 5.436)" fill="#263238"/>
                  <rect id="Rectangle_158956" data-name="Rectangle 158956" width="40.996" height="35.437" transform="translate(7.997 20.95)" fill="none" stroke="#263238" stroke-linecap="round" stroke-linejoin="round" stroke-width="1" stroke-dasharray="4"/>
                  <g id="Group_259616" data-name="Group 259616" transform="translate(55.318 20.95)">
                    <rect id="Rectangle_158957" data-name="Rectangle 158957" width="47.181" height="2.489" fill="#263238"/>
                    <rect id="Rectangle_158958" data-name="Rectangle 158958" width="36.191" height="2.489" transform="translate(0 5.161)" fill="#263238"/>
                    <rect id="Rectangle_158959" data-name="Rectangle 158959" width="53.892" height="2.518" transform="translate(0 10.292)" fill="#263238"/>
                    <rect id="Rectangle_158960" data-name="Rectangle 158960" width="45.89" height="2.518" transform="translate(0 15.306)" fill="#263238"/>
                  </g>
                </g>
              </g>
            </g>
          </g>
          <path id="Path_108575" data-name="Path 108575" d="M725.823,1699.547H609.206l-.226.032h-2.108c-.061-.01-.119-.021-.177-.032h-3.448l-.033.032a.2.2,0,0,0-.019.021H594.24a.455.455,0,0,1-.024-.053H592l-.033.032a.232.232,0,0,0-.019.021h-8.954a.386.386,0,0,1-.024-.053H292.474c.006.014.012.029.017.043H275.831c-.011-.014-.021-.029-.031-.043H250.223c0,.014-.008.029-.012.043h-7.285l-.072-.043H157.306a.744.744,0,0,0-.741.743v.511a.744.744,0,0,0,.741.743H725.823a.744.744,0,0,0,.741-.743v-.511A.744.744,0,0,0,725.823,1699.547Z" transform="translate(660.606 -487.076)" fill="#2e3552"/>
          <g id="Character" transform="translate(1207.953 1006.358)">
            <g id="Group_259620" data-name="Group 259620" transform="translate(0 0)">
              <path id="Path_112843" data-name="Path 112843" d="M288.334,422.323s-24.534,7.036-27.958,8.249c-3.117,1.1-11.562,4.059-17.9,3.145a13.812,13.812,0,0,1-1.81-.392c-6.42-1.913-9.3-3.7-10.144-7.736s2.352-7.008,5.431-8.912,19.784-3.891,19.784-3.891l4.031,1.185h.009Z" transform="translate(-230.384 -225.573)" fill="#60a6df"/>
              <path id="Path_112844" data-name="Path 112844" d="M242.477,433.717a13.812,13.812,0,0,1-1.81-.392c-6.42-1.913-9.3-3.7-10.144-7.736s2.352-7.008,5.431-8.912,19.784-3.891,19.784-3.891l4.031,1.185c-3.649,1.68-17.255,2.613-20.222,4.321s-4.4,4.927-2.65,9.276C237.83,429.882,240.331,432.122,242.477,433.717Z" transform="translate(-230.384 -225.573)" fill="#fff"/>
              <path id="Path_112845" data-name="Path 112845" d="M284.653,423.4s-18.426,4.774-25.731,7.829-21.246,4.392-26.211-1.91-.573-11.722,4.392-12.927,15-3.114,20.488-2.35" transform="translate(-230.394 -225.645)" fill="none" stroke="#263238" stroke-linecap="round" stroke-linejoin="round" stroke-width="1"/>
              <path id="Path_112846" data-name="Path 112846" d="M243.245,433.466s-9.375-5.139-6.262-12.344c2.3-5.317,14.8-4.165,21-7.071" transform="translate(-230.783 -225.658)" fill="none" stroke="#263238" stroke-linecap="round" stroke-linejoin="round" stroke-width="1"/>
              <path id="Path_112847" data-name="Path 112847" d="M368.892,434.822c-.252,2.51-1.139,4.918-3.677,6.411-1.689,1-4.1,1.6-7.54,1.558-8.6-.112-24.776-6.262-24.776-6.262l-15.146-8.371,7.876-12.467,2.156-3.415,5.571,1.25s4.61,2.613,9.248,4.694,15.892,2.52,19.858,5.73S369.321,430.641,368.892,434.822Z" transform="translate(-236.221 -225.539)" fill="#60a6df"/>
              <path id="Path_112848" data-name="Path 112848" d="M369.456,434.822c-.252,2.51-1.139,4.918-3.677,6.411a11.342,11.342,0,0,0-.429-7.559c-1.68-3.8-7.195-7.148-14.436-7.708s-12.785-3.947-15.687-5.459c-2.268-1.176-7.046-3.742-9.033-4.815l2.156-3.415,5.571,1.25s4.61,2.613,9.248,4.694,15.892,2.52,19.858,5.73S369.885,430.641,369.456,434.822Z" transform="translate(-236.785 -225.539)" fill="#fff"/>
              <path id="Path_112849" data-name="Path 112849" d="M321.238,430.866a95.572,95.572,0,0,0,35.449,12.109c2.754.332,5.96.378,7.806-1.693a5.775,5.775,0,0,0,1.272-4.327c-.334-3.888-3.6-6.971-7.188-8.512s-7.544-1.909-11.352-2.763a44.835,44.835,0,0,1-10.916-3.993c-2.737-1.429-5.387-3.164-8.408-3.8s-6.619.136-8.23,2.77" transform="translate(-236.349 -225.9)" fill="none" stroke="#263238" stroke-linecap="round" stroke-linejoin="round" stroke-width="1"/>
              <path id="Path_112850" data-name="Path 112850" d="M364.04,442.067a10.086,10.086,0,0,0,5.54-7.157c.549-3.665-1.538-7.349-4.479-9.6s-6.615-3.313-10.244-4.067-7.339-1.262-10.79-2.61c-5.307-2.073-10.541-6.169-16.048-4.708" transform="translate(-236.907 -225.629)" fill="none" stroke="#263238" stroke-linecap="round" stroke-linejoin="round" stroke-width="1"/>
              <path id="Path_112851" data-name="Path 112851" d="M333.1,289.9l-25.625-9.752-.317-.121s.093-.681.168-1.67c.159-2.044.243-5.375-.719-6.5-1.428-1.67-5.478-.271-9.425-2.081s-11.254,1.428-11.254,1.428-5.273-.97-7.6,2.837c-1.185,3.07-.775,7.643-.775,7.643s-.168.065-.485.177c-3.052,1.138-19.662,7.391-23.18,9.9-3.882,2.753-8.175,30.982-9.556,39.269s-3.835,15.762-2.585,18.617,19.093,16.592,29.358,20.138,46.688,2.51,46.688,2.51.6-.159,1.652-.495c6.159-1.978,28.014-10.125,39.6-29.339C359.05,342.453,347.824,305.629,333.1,289.9Zm-69.233,47.481c-1.885,1.334-.877,6.514-.877,6.514l-3.21-2.828,8.053-19.8,3.434,15.2S265.75,336.051,263.865,337.376Zm64.427,12.579c-.887.457,2.548-9.061.915-11.217s-6.523-1.95-6.523-1.95l.42-2.6c.056-.289,2.9-14.884,2.9-14.884l.961-1.148s9.967,17.087,11.749,23.106C338.716,341.258,327.854,349.956,328.292,349.956Z" transform="translate(-231.12 -215.981)" fill="#60a6df"/>
              <path id="Path_112852" data-name="Path 112852" d="M286.778,225.19l-13.225,14.043s-1.824,1.612-1.1,5.685,2.412,7.573,3.688,7.844a18.143,18.143,0,0,0,3.063.274s2.834,6.142,4.841,8.556c0,0,.7,9.48.327,12.113,0,0,4.752,4.151,9.227,4.678s11.391-6.33,11.391-6.33l1.714-8.394s4.057-6.159,4.334-7.8,2.131-1.219,3.043-2.028a15.442,15.442,0,0,0,3.369-7.843c.349-3.418.373-7.344-3.6-6.192-3.44-.924-1.287-8.2-1.287-8.2l-6.044-5.334Z" transform="translate(-233.184 -213.04)" fill="#ffbe9d"/>
              <path id="Path_112853" data-name="Path 112853" d="M310.026,280.144a13.523,13.523,0,0,1-.681,1.53c-2.184,4.115-11.693,11.954-11.693,11.954l-2.874-8.837-1.577,8.837c-3.173-1.381-12.85-9.771-12.85-9.771s-.327-.784-.728-2.006c.317-.112.485-.177.485-.177s-.411-4.573.775-7.643c2.324-3.807,7.6-2.837,7.6-2.837s7.307-3.238,11.254-1.428,8,.411,9.425,2.081.551,8.175.551,8.175Z" transform="translate(-233.674 -215.981)" fill="#ffbe9d" opacity="0.5"/>
              <path id="Path_112854" data-name="Path 112854" d="M337.508,290.55,311.883,280.8l-.317-.121s.093-.681.168-1.67l-.532,3.322-3.789,5.151a103.762,103.762,0,0,1,11.824,5.212,10.385,10.385,0,0,1,5.432,10.358l-4.724,40.393-1.932,22.938,5.842,6.066c6.159-1.978,28.014-10.125,39.6-29.339C363.46,343.107,352.234,306.283,337.508,290.55ZM332.7,350.61c-.887.457,2.548-9.061.915-11.217s-6.523-1.95-6.523-1.95l.42-2.6c.056-.289,2.9-14.884,2.9-14.884l.961-1.148s9.967,17.087,11.749,23.106C343.126,341.912,332.264,350.61,332.7,350.61Z" transform="translate(-235.531 -216.635)" fill="none" opacity="0.2"/>
              <path id="Path_112855" data-name="Path 112855" d="M273.4,340.588l-3.985-13.317s-7.145-24.367-12.044-30.377l1.288,17.137s-4.2,20.472-8.095,26.557-4.731,7.6,0,7.6,16.238,9.173,16.238,9.173l-.887-7.652Zm-10.013,5.151-3.21-2.828,8.053-19.8,3.434,15.2s-5.515-.411-7.4.915S263.383,345.739,263.383,345.739Z" transform="translate(-231.516 -217.831)" fill="none" opacity="0.2"/>
              <path id="Path_112856" data-name="Path 112856" d="M284.888,264.2s.735,7.18,0,10.461" transform="translate(-234.026 -215.646)" fill="none" stroke="#263238" stroke-linecap="round" stroke-linejoin="round" stroke-width="1"/>
              <path id="Path_112857" data-name="Path 112857" d="M308.116,273.886a30.745,30.745,0,0,1,.8-6.86" transform="translate(-235.577 -215.835)" fill="none" stroke="#263238" stroke-linecap="round" stroke-linejoin="round" stroke-width="1"/>
              <path id="Path_112858" data-name="Path 112858" d="M308.09,230.927s4.345,5.458,4.122,9.58-.557,9.023-.445,13.813-7.687,14.815-11.7,15.706-7.464,1.114-10.025-1.447-5.124-6.127-8.466-10.694-2.563-14.592-2.563-14.592" transform="translate(-233.628 -213.423)" fill="none" stroke="#263238" stroke-linecap="round" stroke-linejoin="round" stroke-width="1"/>
              <path id="Path_112859" data-name="Path 112859" d="M298.942,248.271a22.571,22.571,0,0,0-.339,4.54,5.165,5.165,0,0,0,1.114,3.556c.48.49,1.178.881,1.269,1.561a1.648,1.648,0,0,1-.892,1.478,12.574,12.574,0,0,0-1.567.93" transform="translate(-234.937 -214.582)" fill="none" stroke="#263238" stroke-linecap="round" stroke-linejoin="round" stroke-width="1"/>
              <path id="Path_112860" data-name="Path 112860" d="M291.579,261.769s.5,3.237,4.844,3.915" transform="translate(-234.473 -215.484)" fill="none" stroke="#263238" stroke-linecap="round" stroke-linejoin="round" stroke-width="1"/>
              <path id="Path_112861" data-name="Path 112861" d="M291.934,250.795c0,.936-.4,1.695-.9,1.695s-.9-.759-.9-1.695.4-1.694.9-1.694S291.934,249.859,291.934,250.795Z" transform="translate(-234.376 -214.637)" fill="#263238"/>
              <path id="Path_112862" data-name="Path 112862" d="M305.813,251.231c0,.936-.4,1.695-.9,1.695s-.9-.759-.9-1.695.4-1.694.9-1.694S305.813,250.3,305.813,251.231Z" transform="translate(-235.303 -214.667)" fill="#263238"/>
              <path id="Path_112863" data-name="Path 112863" d="M303.142,246.833s4.211-4.212,7.774.486" transform="translate(-235.245 -214.37)" fill="none" stroke="#263238" stroke-linecap="round" stroke-linejoin="round" stroke-width="2"/>
              <path id="Path_112864" data-name="Path 112864" d="M293.1,246.949s-2.673-3-6.883,0" transform="translate(-234.115 -214.405)" fill="none" stroke="#263238" stroke-linecap="round" stroke-linejoin="round" stroke-width="2"/>
              <path id="Path_112865" data-name="Path 112865" d="M285.215,268.144s2.579,7.11,8.34,9.127,13.409-8.448,13.409-8.448l-.4-1.361s-5.012,6.512-10.588,5.4-11.088-8.665-11.088-8.665Z" transform="translate(-234.026 -215.646)" fill="#263238"/>
              <path id="Path_112866" data-name="Path 112866" d="M279.217,253.725s-3.434,1.212-4.347-1.463-4.043-9.719-1.3-12.066,4.94,3.1,4.94,3.1" transform="translate(-233.196 -214.003)" fill="none" stroke="#263238" stroke-linecap="round" stroke-linejoin="round" stroke-width="1"/>
              <path id="Path_112867" data-name="Path 112867" d="M314.11,255.248s3.191.642,4.1-2.033,4.044-9.719,1.3-12.067-4.94,3.1-4.94,3.1" transform="translate(-235.978 -214.067)" fill="none" stroke="#263238" stroke-linecap="round" stroke-linejoin="round" stroke-width="1"/>
              <path id="Path_112868" data-name="Path 112868" d="M278.238,248.327a4.759,4.759,0,0,0,3.013-1.781,7.5,7.5,0,0,0,.875-2.7,32.55,32.55,0,0,0,.478-5.443,7.3,7.3,0,0,1,.191-2.121,5.443,5.443,0,0,1,1.148-1.888c1.2-1.4,2.641-2.591,3.781-4.044a6.749,6.749,0,0,0,1.669-5.113,23.223,23.223,0,0,0,19.012,4.917c6.043-1.185,11.843-6.488,11.138-13.153a5.394,5.394,0,0,0-4.258-4.641c-2.988-.743-5.672.849-8.378,1.87-4.934,1.861-9.762-1.334-14.747-1.871-4.264-.458-9.5.07-11.716,4.309,0,0-7.659.9-11.013,7.189s3.022,15,3.022,15,2.566-3.107,5.864,3.183Z" transform="translate(-232.928 -212.17)" fill="#263238"/>
              <path id="Path_112869" data-name="Path 112869" d="M310.667,229.013s-1.98,10.319,3.188,15.316c0,0,1.131-3.1,2.277-3.86a11.961,11.961,0,0,0-.905-11.457C311.447,223.008,310.667,229.013,310.667,229.013Z" transform="translate(-235.723 -213.117)" fill="#263238"/>
              <path id="Path_112870" data-name="Path 112870" d="M317.976,216.619a9.744,9.744,0,0,1-5.9,6.155c-7.173,2.922-14.141-.319-21.323-.954-5.871-.519-12.341,4.77-12.751,10.8" transform="translate(-233.566 -212.467)" fill="none" stroke="#fff" stroke-linecap="round" stroke-linejoin="round" stroke-width="1" opacity="0.2"/>
              <path id="Path_112871" data-name="Path 112871" d="M273.231,231.267a12.539,12.539,0,0,1,7.641-11.067" transform="translate(-233.247 -212.707)" fill="none" stroke="#fff" stroke-linecap="round" stroke-linejoin="round" stroke-width="1" opacity="0.2"/>
              <path id="Path_112872" data-name="Path 112872" d="M283.115,274.317a32.723,32.723,0,0,0,11.171,7.643s8.588-2.49,12.959-8.477" transform="translate(-233.907 -216.266)" fill="none" stroke="#263238" stroke-linecap="round" stroke-linejoin="round" stroke-width="1"/>
              <circle id="Ellipse_4170" data-name="Ellipse 4170" cx="7.599" cy="7.599" r="7.599" transform="translate(47.207 28.558)" fill="none" stroke="#263238" stroke-linecap="round" stroke-linejoin="round" stroke-width="1"/>
              <circle id="Ellipse_4171" data-name="Ellipse 4171" cx="7.599" cy="7.599" r="7.599" transform="translate(64.185 28.558)" fill="none" stroke="#263238" stroke-linecap="round" stroke-linejoin="round" stroke-width="1"/>
              <path id="Path_112873" data-name="Path 112873" d="M284.571,271.34a5.955,5.955,0,0,0-3.655,2.834c-1.345,2.367-.534,9.821-.534,9.821s6.943,6.872,12.856,9.77l1.744-9.808,2.707,9.808s9.156-6.475,11.691-11.949c0,0,.827-6.381,0-8.477a2.924,2.924,0,0,0-2.733-2" transform="translate(-233.708 -216.123)" fill="none" stroke="#263238" stroke-linecap="round" stroke-linejoin="round" stroke-width="1"/>
              <path id="Path_112874" data-name="Path 112874" d="M272.778,339.8s-2.711-18.185-6.323-25.6" transform="translate(-232.794 -218.986)" fill="none" stroke="#263238" stroke-linecap="round" stroke-linejoin="round" stroke-width="1"/>
              <path id="Path_112875" data-name="Path 112875" d="M258.087,296.894a73.613,73.613,0,0,1,5.617,9.4" transform="translate(-232.235 -217.831)" fill="none" stroke="#263238" stroke-linecap="round" stroke-linejoin="round" stroke-width="1"/>
              <path id="Path_112876" data-name="Path 112876" d="M334.514,310.807a52.531,52.531,0,0,1,2.984-8.876" transform="translate(-237.341 -218.167)" fill="none" stroke="#263238" stroke-linecap="round" stroke-linejoin="round" stroke-width="1"/>
              <path id="Path_112877" data-name="Path 112877" d="M328.5,340s1.958-12.466,4.288-22.741" transform="translate(-236.939 -219.191)" fill="none" stroke="#263238" stroke-linecap="round" stroke-linejoin="round" stroke-width="1"/>
              <path id="Path_112878" data-name="Path 112878" d="M332.06,322.512a14.344,14.344,0,0,1,7.564-5.174" transform="translate(-237.177 -219.196)" fill="none" stroke="#263238" stroke-linecap="round" stroke-linejoin="round" stroke-width="1"/>
              <path id="Path_112879" data-name="Path 112879" d="M311.866,280.8s15.768,6.3,25.945,9.875c0,0,12.52,11.775,25.944,52.557,0,0-12.305,20.693-35.7,27.326" transform="translate(-235.828 -216.755)" fill="none" stroke="#263238" stroke-linecap="round" stroke-linejoin="round" stroke-width="1"/>
              <path id="Path_112880" data-name="Path 112880" d="M333.567,355.673l11.3-9.438s5.98-4.545,12.2-1.435" transform="translate(-237.278 -220.958)" fill="none" stroke="#263238" stroke-linecap="round" stroke-linejoin="round" stroke-width="1"/>
              <path id="Path_112881" data-name="Path 112881" d="M333.1,321.659s9.352,13.773,11.743,23.1" transform="translate(-237.246 -219.485)" fill="none" stroke="#263238" stroke-linecap="round" stroke-linejoin="round" stroke-width="1"/>
              <path id="Path_112882" data-name="Path 112882" d="M263.656,349.563l-3.308-3.154s-4.911-.858-10.471,2.87" transform="translate(-231.687 -221.133)" fill="none" stroke="#263238" stroke-linecap="round" stroke-linejoin="round" stroke-width="1"/>
              <path id="Path_112883" data-name="Path 112883" d="M261.1,344.95s4.109-13.5,8.162-20.464" transform="translate(-232.436 -219.674)" fill="none" stroke="#263238" stroke-linecap="round" stroke-linejoin="round" stroke-width="1"/>
              <path id="Path_112884" data-name="Path 112884" d="M277.576,282.567s-22.681,8.511-24.9,10.989-10.676,50.079-10.9,55.526c-.2,4.869,17.468,15.811,26.2,20.422" transform="translate(-231.145 -216.873)" fill="none" stroke="#263238" stroke-linecap="round" stroke-linejoin="round" stroke-width="1"/>
              <rect id="Rectangle_158961" data-name="Rectangle 158961" width="36.897" height="26.213" rx="5.921" transform="translate(97.173 31.838)" fill="#fff" stroke="#263238" stroke-linecap="round" stroke-linejoin="round" stroke-width="1"/>
              <path id="Path_112885" data-name="Path 112885" d="M346.763,254.736l-7.1,4.454,6.584,5.84" transform="translate(-237.685 -215.014)" fill="none" stroke="#263238" stroke-linecap="round" stroke-linejoin="round" stroke-width="1"/>
              <path id="Path_112886" data-name="Path 112886" d="M361.054,265.486l6.376-5.434-7.36-4.825" transform="translate(-239.048 -215.047)" fill="none" stroke="#263238" stroke-linecap="round" stroke-linejoin="round" stroke-width="1"/>
              <line id="Line_657" data-name="Line 657" y1="16.423" x2="5.238" transform="translate(112.526 37.36)" fill="none" stroke="#263238" stroke-linecap="round" stroke-linejoin="round" stroke-width="1"/>
              <path id="Path_112887" data-name="Path 112887" d="M298.1,299.693a1.491,1.491,0,1,1-1.491-1.492A1.491,1.491,0,0,1,298.1,299.693Z" transform="translate(-234.709 -217.918)" fill="#263238"/>
              <g id="Group_259619" data-name="Group 259619" transform="translate(31.212 120.81)">
                <path id="Path_112888" data-name="Path 112888" d="M322.657,385.04H271.037a1.211,1.211,0,0,1-1.21-1.21h0a1.21,1.21,0,0,1,1.21-1.209h51.619a1.209,1.209,0,0,1,1.209,1.209h0A1.21,1.21,0,0,1,322.657,385.04Z" transform="translate(-264.231 -344.368)" fill="#263238"/>
                <path id="Path_112889" data-name="Path 112889" d="M324.063,378.289l6.917-32.484a3.456,3.456,0,0,0-3.381-4.176H267.289a3.457,3.457,0,0,0-3.392,4.126l6.2,31.4a3.458,3.458,0,0,0,3.312,2.786l47.191,1.081A3.456,3.456,0,0,0,324.063,378.289Z" transform="translate(-263.831 -341.629)" fill="#fff" stroke="#263238" stroke-linecap="round" stroke-linejoin="round" stroke-width="1"/>
                <path id="Path_112890" data-name="Path 112890" d="M304.1,361.344a4.815,4.815,0,1,1-4.815-4.815A4.815,4.815,0,0,1,304.1,361.344Z" transform="translate(-265.878 -342.624)" fill="#263238"/>
                <line id="Line_658" data-name="Line 658" x2="7.166" transform="translate(47.686 3.082)" fill="none" stroke="#263238" stroke-linecap="round" stroke-linejoin="round" stroke-width="1"/>
                <line id="Line_659" data-name="Line 659" x2="27.2" transform="translate(13.467 3.082)" fill="none" stroke="#263238" stroke-linecap="round" stroke-linejoin="round" stroke-width="1"/>
              </g>
              <path id="Path_112891" data-name="Path 112891" d="M322.221,414.721l-5.5,14.431s-14.019-3.534-31.983-7.215c-18.784-3.849-38.4-8.833-48.58-26.686a10.113,10.113,0,0,1-1.485-7.186c1.469-6.167,9.491-7.841,14.779-8.458a98.2,98.2,0,0,1,10.008-.563c1.7-.024,7.319-.916,8.678.084A39.78,39.78,0,0,0,274.666,383c3,1.275,46.839-1.145,46.839-1.145a15.652,15.652,0,0,0,1.379-5.264c6.89-3.5,22.846-6.469,29.589-5.158,10.6,2.061,16.786,8.247,15.609,14.725S343.507,410.009,322.221,414.721Z" transform="translate(-230.658 -222.789)" fill="#263238"/>
              <path id="Path_112892" data-name="Path 112892" d="M324.291,416.034s-13.334-3.534-24.231-10.9S280.65,389.235,265.47,391" transform="translate(-232.728 -224.102)" fill="none" stroke="#fff" stroke-linecap="round" stroke-linejoin="round" stroke-width="1"/>
              <path id="Path_112893" data-name="Path 112893" d="M299.851,402.659c6.882-1.98,11.934-6.432,17.456-10.707A118.189,118.189,0,0,1,336,379.671" transform="translate(-235.025 -223.361)" fill="none" stroke="#fff" stroke-linecap="round" stroke-linejoin="round" stroke-width="1"/>
              <line id="Line_660" data-name="Line 660" x2="2.019" transform="translate(62.405 37.36)" fill="none" stroke="#263238" stroke-linecap="round" stroke-linejoin="round" stroke-width="1"/>
            </g>
          </g>
        </g>
        <g id="_4" data-name="4" transform="translate(827.459 1113.604)">
          <path id="Path_111652" data-name="Path 111652" d="M2121.436,1233.477h-9.05C2086.859,1140.033,2147.77,1159.136,2121.436,1233.477Z" transform="translate(-2080.488 -1170.342)" fill="#7cb4e2"/>
          <path id="Path_111653" data-name="Path 111653" d="M2159.888,1233.42s-6.776,1.6-6.5,0c7.012-40.77.385-63.1.385-63.1C2178.425,1168.662,2159.888,1233.42,2159.888,1233.42Z" transform="translate(-2118.94 -1170.285)" fill="#60a6df"/>
          <path id="Path_111654" data-name="Path 111654" d="M2197.154,1252.84c-1.374,15.01-10.736,28.439-18.505,40.769h-10.336c.918-14.216,3.219-29.631,11.124-41.877C2183.118,1242.938,2197.177,1240.795,2197.154,1252.84Z" transform="translate(-2131.057 -1230.477)" fill="#7cb4e2"/>
          <path id="Path_111655" data-name="Path 111655" d="M2260.424,1259.206c0,.554-.165,1.726-.165,1.726-7.352-1.172-11.656-4.71-13.971-7.48a6.133,6.133,0,0,1,1.286-1.14A20.644,20.644,0,0,0,2260.424,1259.206Z" transform="translate(-2194.328 -1236.843)" fill="#60a6df"/>
          <path id="Path_111656" data-name="Path 111656" d="M2239.02,1292.758c-.171.54-.356,1.094-.555,1.648-10.51-1.278-15.12-7.29-16.587-9.775.32-.554.667-1.1,1.022-1.641C2223.88,1284.923,2228.582,1291.625,2239.02,1292.758Z" transform="translate(-2174.521 -1261.736)" fill="#60a6df"/>
          <path id="Path_111657" data-name="Path 111657" d="M2218.257,1336.445c-.241.54-.49,1.087-.739,1.627-10-.455-15.366-5.243-17.752-8.39.241-.639.49-1.279.76-1.9C2202.475,1330.766,2208.379,1336.092,2218.257,1336.445Z" transform="translate(-2156.579 -1298.078)" fill="#60a6df"/>
          <path id="Path_111658" data-name="Path 111658" d="M2200.452,1390.175l-.881,1.591c-8.3-.611-13.385-4.118-16.163-7.166a13.464,13.464,0,0,1,.584-1.863A23.611,23.611,0,0,0,2200.452,1390.175Z" transform="translate(-2143.306 -1342.672)" fill="#60a6df"/>
          <path id="Path_111659" data-name="Path 111659" d="M2187.411,1441.116c-.341.54-.675,1.073-1.009,1.6a22.8,22.8,0,0,1-12.552-6.038c.1-.724.2-1.449.32-2.181A23.6,23.6,0,0,0,2187.411,1441.116Z" transform="translate(-2135.55 -1384.669)" fill="#60a6df"/>
          <path id="Path_111660" data-name="Path 111660" d="M1993.467,1353.263h-10.22C1951.091,1310.441,1990.889,1302.183,1993.467,1353.263Z" transform="translate(-1970.76 -1290.129)" fill="#60a6df"/>
          <path id="Path_111661" data-name="Path 111661" d="M2005.811,1352.218H1999.6c-11.183-15.589-13.614-28.387-13.627-34.569C2000.563,1309.869,2005.844,1352.184,2005.811,1352.218Z" transform="translate(-1983.104 -1289.083)" fill="#7cb4e2"/>
          <path id="Path_111662" data-name="Path 111662" d="M2042.054,1304.038H2029.5c.224.534-4-7.4-5.6-11.26h-.007c-3.486-8.2-8.013-19.245-6.223-28.1,1-6.993,10.984-9.751,15.721-4.972C2042.733,1267.991,2042.439,1295.437,2042.054,1304.038Z" transform="translate(-2008.493 -1240.907)" fill="#60a6df"/>
          <path id="Path_111663" data-name="Path 111663" d="M2042.416,1289.762c-.055-.874-.1-1.8-.185-2.7l-6.912,9.583-2.763-11,7.8-11.7c-.179-.809-.382-1.585-.6-2.365l-7.764,11.813-3.289-13.1,6.294-8.717a11.267,11.267,0,0,0-1.179-1.215l-5.662,7.75-2.422-9.988a12.077,12.077,0,0,0-1.754.448l2.543,10.116-8.447-3.239a12.932,12.932,0,0,0-.285,1.606l9.25,3.7,3.332,13.262-11.21-4.773c.185.719.395,1.436.611,2.152l11.125,4.717,2.785,11.089-9.363-3.772c.32.8.692,1.522,1.015,2.238l8.873,3.6c.446.754.943,6.427,2.245,6.287,2.074.089-.705-5.9-.582-6.735l6.55-9.05Z" transform="translate(-2008.918 -1241.563)" fill="#5e94c1"/>
          <rect id="Rectangle_158727" data-name="Rectangle 158727" width="35.108" height="35.438" transform="translate(12.382 63.133)" fill="#284f63"/>
          <path id="Path_111664" data-name="Path 111664" d="M2071.526,1505.057v35.438h-35.108S2071.526,1539.947,2071.526,1505.057Z" transform="translate(-2024.036 -1441.924)" fill="#235c7a"/>
        </g>
      </g>
    </g>
    <g id="typescript-2" transform="translate(1057 991)">
      <path id="Path_136542" data-name="Path 136542" d="M0,0H27.445V27.445H0Z" fill="#017acb"/>
      <path id="Path_136543" data-name="Path 136543" d="M120.375,233.267h1.317v2.273h-3.559v10.112l-.094.026c-.129.034-1.823.034-2.187,0l-.292-.026V235.54H112v-2.273l1.128-.013c.618-.009,2.2-.009,3.525,0S119.646,233.267,120.375,233.267Zm10.048,11.313a4.4,4.4,0,0,1-3.414,1.226,4.373,4.373,0,0,1-1.437-.12,4.889,4.889,0,0,1-2.719-1.694,4.174,4.174,0,0,1-.476-.772c0-.017.043-.056.1-.081s.172-.1.266-.154.266-.159.382-.219.45-.257.742-.433a4.291,4.291,0,0,1,.587-.317c.03,0,.086.06.129.133a3.492,3.492,0,0,0,1.282,1.175,3.893,3.893,0,0,0,1.119.236,3,3,0,0,0,.982-.227,1.194,1.194,0,0,0,.57-.5c.111-.176.124-.223.12-.557a.846.846,0,0,0-.1-.536c-.24-.395-.566-.6-1.887-1.184a7.9,7.9,0,0,1-2.474-1.449,2.634,2.634,0,0,1-.673-.909,2.7,2.7,0,0,1-.343-1.63,3.225,3.225,0,0,1,.073-1.008,4.242,4.242,0,0,1,.515-1.055,3.836,3.836,0,0,1,.566-.579,4.111,4.111,0,0,1,2.363-.828c.1,0,.425.017.729.039a3.474,3.474,0,0,1,2.046.746c.433.343,1.089,1.149,1.025,1.256-.043.064-1.754,1.205-1.865,1.239-.069.021-.116,0-.21-.116-.583-.7-.819-.849-1.385-.883a1.238,1.238,0,0,0-.888.2.97.97,0,0,0-.42.875c0,.583.227.858,1.051,1.265.532.262.986.476,1.021.476.051,0,1.154.549,1.441.72a3.5,3.5,0,0,1,2.024,2.98A3.347,3.347,0,0,1,130.423,244.58Z" transform="translate(-107.197 -223.104)" fill="#fff"/>
    </g>
  </g>
</svg>
